/* XPM */
static char *_5dd53e816a24cfdac94a4f98f68f79fyIhVa27TgLhqQEE5[] = {
/* columns rows colors chars-per-pixel */
"50 50 194 2 ",
"   c #01B7CE",
".  c #00BACE",
"X  c #00AFD6",
"o  c #01AED8",
"O  c #01B5D5",
"+  c #01BDD3",
"@  c #09BFD5",
"#  c #01B5DA",
"$  c #01BCDA",
"%  c #0ABFDA",
"&  c #00C1CF",
"*  c #01C3D5",
"=  c #0AC3D5",
"-  c #01CAD6",
";  c #0BCAD6",
":  c #01C4DA",
">  c #0BC5DA",
",  c #01CBD9",
"<  c #0CCBDA",
"1  c #13C6D6",
"2  c #1CC6D7",
"3  c #12C9D7",
"4  c #12C6DB",
"5  c #19C6DA",
"6  c #14CCDA",
"7  c #19CADC",
"8  c #02D2D7",
"9  c #02D3DB",
"0  c #0CD3DC",
"q  c #01DBDC",
"w  c #0CDADF",
"e  c #13D3DD",
"r  c #1AD3DE",
"t  c #13DBDE",
"y  c #1ADBDE",
"u  c #25C5D6",
"i  c #27CAD7",
"p  c #23C3DB",
"a  c #2EC7DA",
"s  c #25CBDC",
"d  c #2BCBDA",
"f  c #31C6DA",
"g  c #32CEDC",
"h  c #3BCEDB",
"j  c #23D5DE",
"k  c #21DBDE",
"l  c #2BDDDF",
"z  c #32D0DC",
"x  c #3BD4DE",
"c  c #33DFDF",
"v  c #38DDDF",
"b  c #01E2DE",
"n  c #09E4DF",
"m  c #16E2DF",
"M  c #1AE1DF",
"N  c #26E0DB",
"B  c #02C9E0",
"V  c #16C5E0",
"C  c #16CDE2",
"Z  c #19CDE2",
"A  c #02D5E0",
"S  c #0DD2E1",
"D  c #04DFE3",
"F  c #0DDBE0",
"G  c #16D6E0",
"H  c #1DD3E2",
"J  c #14DCE2",
"K  c #1CDCE1",
"L  c #39C9E4",
"P  c #24D6E5",
"I  c #29D6E6",
"U  c #24DCE2",
"Y  c #2CDCE3",
"T  c #27D6E9",
"R  c #3ED3E0",
"E  c #32DEE2",
"W  c #3EDCE3",
"Q  c #03E3E1",
"!  c #0CE4E2",
"~  c #00EBE4",
"^  c #0CEAE4",
"/  c #13E5E3",
"(  c #1CE5E4",
")  c #14EBE4",
"_  c #1BEAE5",
"`  c #1FE6E9",
"'  c #14EBE8",
"]  c #1BECE8",
"[  c #0BF1E7",
"{  c #1BF2EA",
"}  c #23E3E3",
"|  c #2BE3E4",
" . c #25EAE5",
".. c #2EE8E5",
"X. c #23E6E8",
"o. c #2CE5E9",
"O. c #21EDE9",
"+. c #2BEDEA",
"@. c #35E3E6",
"#. c #3CE5E5",
"$. c #31EAE5",
"%. c #35ECE6",
"&. c #3BE8E5",
"*. c #33E4E9",
"=. c #3AE5E9",
"-. c #34EDE9",
";. c #3EE9E8",
":. c #3BEBEB",
">. c #2EF2E7",
",. c #27F2E9",
"<. c #2CF3EB",
"1. c #2FFCED",
"2. c #33F3EC",
"3. c #3EF7EF",
"4. c #3BF5EE",
"5. c #32F9ED",
"6. c #39F9EE",
"7. c #35F6F1",
"8. c #3FF6F1",
"9. c #37FBF1",
"0. c #3DFBF2",
"q. c #47CFDD",
"w. c #46D4DE",
"e. c #4CD2DF",
"r. c #58D7DE",
"t. c #6ED9DF",
"y. c #46D4E2",
"u. c #44DCE2",
"i. c #4CDFE5",
"p. c #5AD6E3",
"a. c #50DDE4",
"s. c #5ADCE2",
"d. c #66D4E1",
"f. c #69D7E6",
"g. c #65DFE6",
"h. c #68DAE5",
"j. c #6BD6E8",
"k. c #74DDE4",
"l. c #7CDDE6",
"z. c #44E7E6",
"x. c #4AE3E4",
"c. c #4FEFE7",
"v. c #44E6E8",
"b. c #4DE5EA",
"n. c #45EFEE",
"m. c #4EEDE8",
"M. c #56E6E5",
"N. c #5AE3E5",
"B. c #55EFE5",
"V. c #55E4E8",
"C. c #54E8E8",
"Z. c #5FEBE8",
"A. c #42F5EC",
"S. c #4CF4ED",
"D. c #43F9EF",
"F. c #51F5EE",
"G. c #4AF3F0",
"H. c #41FAF2",
"J. c #4EFBF4",
"K. c #55FCF2",
"L. c #63E4E6",
"P. c #6BE5E6",
"I. c #6EEBE7",
"U. c #6CE4EA",
"Y. c #6BEBE9",
"T. c #61ECE9",
"R. c #74E1E8",
"E. c #7AEEE8",
"W. c #71E3E4",
"Q. c #77F1EC",
"!. c #81DBE4",
"~. c #82EAEC",
"^. c #89EDED",
"/. c #9AE4EB",
"(. c #9EE8EB",
"). c #83F4EE",
"_. c #98F7EF",
"`. c #9FE8F1",
"'. c #85F6F0",
"]. c #98F7F3",
"[. c #A3E7ED",
"{. c #ACEAEE",
"}. c #BDF4EF",
"|. c #A6F7F4",
" X c #AAF6F6",
".X c #A7F9F3",
"XX c #A8F9F2",
"oX c #B5FBF2",
"OX c #C2F2EF",
"+X c #C0F4F2",
"@X c #C5F9F4",
"#X c #DFFBFA",
"$X c #E7FBFA",
"%X c #E8FBFF",
/* pixels */
"- * * + * * + * * * _ X.* * ; / 2.( ! q q / c * , - * * * * * + * * * / X.* * * / 5.( w q q / E * * ",
"9 q , * - 0 y w q q b t * * * < -.+.n 9 b.@Xk.+ - 9 q - - , S K t q q b G * * + ; $.>.! 9 x.@Xt.* , ",
"* y 0.5.q b ) ] q &.L.+ + e < O + Q ! n E d + + * : K 0.1.b b ' ] q &.L.+ + e , O + n ! ! | a * + * ",
"- ; @.| i.|.T.q 9 $.W + $ P 4 O - U J.3.* O * U e : ; @.Y x. XZ.9 9 ..u.+ $ T 4 O , U J.A.* O * U e ",
"O $ O O d {.M.M H.3.* * : O $ - * + < ; * : $ C > O + O O d {.M.m H.8.* * * # $ , , + ; ; + : $ C > ",
"I > $ , * + * < ;.e + * * * * * * - * * , , * X $ I 4 $ , * . * < ;.7 + * @ * * * * * * * , , $ O # ",
"C = * 8 , * + + + * : , 9 , + * 9 , , : ; , * * $ C ; * 9 : * $ $ . * , 9 9 - + * 9 - , & < , * * $ ",
"* * * $ $ : $ * * 9 , * ! _ Q { q + < 6 < %.` - * & + * + $ : $ + * , , * ! _ Q O.9 + < 6 4 %._ * * ",
"* 9 , + + * - - * + * * @ Y ).#.* + G U * = E .Xu.* 9 - + O + - , * O * * * l '.#.* + e U * = E XXu.",
"* M.%.Q 0 - q - * e : : * = h 1 * * * + * * 4 /.g + C.-.D 0 - q , * e * * * = h 1 * : * + - * 1 /.g ",
"+ f ~.c.{ 0.S O * | U * * * O $ - - * * ; 9 * . + + a ~.m.{ 0.0 O : | U * * + $ + - , * * * 9 - . + ",
"9 * p u K %.; $ # + P ; : : $ + * 9 9 - * + + * , q * p p e ;.; $ # + P * : : $ + * q 9 * * + + * - ",
"q - + * * + * , : # O $ : , < G + * ] { q - 0 J ^ b , * * * + * , * # # $ $ , < K + + ] { 9 , 9 J ! ",
"- + $ , , $ + : * + : , O O = V.U.+ 6 | ) ' q 5.6.* O + - , O + - * $ , , $ O * M.U.+ 6 | _ ' q 5.2.",
"* : : $ O H r , 9 * * + * - 8 ( x * * O 0 A.}  .< * * : $ O H r , 8 * * + * , 9 ( x + +   0 A.} | < ",
"* * : : + 6 < * O.) 9 , w ) 9., . , , * * k.%Xk.. * * : : + e ; * O.) 9 - 0 ) 5.9 + - * * * k.$Xk.. ",
"* * w 0 * * * + j S.b q ] K.@.= * 9 , : - * s + + * * w 0 * * - + j F.b q { K.@.= * 9 * * - * s + + ",
", ) 0.r + : : , * h oX.Xv ; + * * + , : * * * 9 - - / H.G + * , , + h oX|.W = + * * * - : + * * 9 , ",
">.t < + * + # : 9 . h.[.2 . - - < > $ , - , * J 0.2.t < + * + $ : 9 & h.[.2 . , * < > : , * , * J 9.",
"Y + + * K ( - $ # : + . * , * > | Z # : * * * + @.| + + * K M - $ # $ + + * , * > *.Z O * * * * @ Y ",
"+ , 9 * 0 5.] 9 $ $ $ # O , : Z H O + * s.q.* e * . , 9 * 0 <._ 8 $ O $ O $ , : C H O + * s.y.* F * ",
"* * , , * < < , * * + H C o # O O - 9 * e.I.{  ., $ * , - * < < , , * O H C # # O O , 9 * e.I.]  .- ",
"- : O , , * & * * * y | > * * : * , , * + - } * + , * O * , + * * * * k | > : : : : - , * + , } * + ",
": q 9 * @ * * * 9 , e > + - - , - * * * * + + : * , q 9 * + * * * , , e < + , - , - * * * * + + * * ",
"* - ] 8.( q F ( ,.: 8 9 * + + + $ h 5 - 9 9 * - - + , _ 3.( 9 w ( ,.; 9 9 * * + + @ h 7 * 9 9 * , , ",
"* * ; :.[ q ' 2.k + , Q q A G G 0 I.k ! ! * + * , * + ; :.^ q ^ 2.U + - Q q 9 e e 0 P.y b ! , + * - ",
"* * + + E.XXk ! , + + ( ) _ <.~ q Q 9.D.3 + e U + * * + . E..XK ! , + + ( ) _ <.~ q Q 7.D.6   G U . ",
": , $ + k.`.4 < < * * 3 A.0.y ^.].G #.r O : > H P : * : $ k.[.1 ; < * * 3 3.6.K ^._.t =.e + * % Z U ",
"$ , , * + . * * * : * + * , = !.(.* . + , * O $ V : , , * + . * * * * : + * - = l.[.* . * , * O $ C ",
"+ + - : * , 9 - * $ $ , * + : + . * + : , < , + $ + + * - * , , * * $ $ , : + * + + * + : 9 0 * + O ",
"* , : * * - , * * * * : $ * * * * # $ * * *.2./ * + , : : : , - * * * * : # : : * : $ $ * * *.2./ * ",
"/ 9 * , : + + * * * * * $ $ $ # # : 9 , * * r <.6./ 9 * , * + + + * * * * $ * $ # # : 9 , + * r <.0.",
"2.* , , * y o.9 Y Y.,.J * + O H > : 9 * : * + 3 n.-.* , , * r | 9 Y Y.,.t * $ O H < : 9 - * * + 3 :.",
"; * * * * < *.%.B.#.Y < * - R.u.: - * * - - * * + : * * * * < @.%.B.#.U < * * W.W > - * * - : * * + ",
"+ ; - * * *   w.N.+ + * + $ R 4 * , * * * * + - * O * : * ; : O R N.+ + * + $ x 1 * , * : * + : : * ",
"9 9 / U $ : $ + + : $ $ , : * * : 9 / ! , - 9 , , 9 q / U * : $ + * * $ $ , : + * * 9 / ! , , , - 9 ",
"b _ ..6 * * $ # $ $ * $ , , : * - * U / Q <.] b b b _ *.6 * * $ # # $ * # , - * * * * U ! Q +.] b b ",
"9 < 3 * * - - + : , * * * + * * , , + K <.( H.D.0 - < 3 * * , * * : , * * * + * : , , + K <./ D.H.w ",
"* * * * + + * * - - * + * 9 9 * * * + r | - K @.> + * * * + * * * - , * + * 9 9 * * * * r o.- U =.= ",
"* 9 q 9 9 8 * * * * , | ,.Q 9 + * + * * + * + + * * 8 q 9 9 9 - * * * - | ,.! 8 + * + * * + + + + * ",
"* + N.%.b Q ( o./ q q ) 5.e + g 1 9 F * : , : * , * + N.2.q b _ o./ q q ) 5.e + g 1 9 w * * , * * * ",
"* . q.OXz.! O.] q q ) Q - + * s.Q.2.K * : , + * * + + w.OXv.! O.] b q ) ! , * * s.Q.2.y & * , * * * ",
"0 e + 1 i -.A.! } } G.0 + : * * a.y.+ * * - } , + e e + 5 s -.D./ N X.S.e + * * * i.y.+ * * * | , + ",
"H P $ O @ * ; 1 +X#Xg.* * - * : + * - * * - 3 y.d.r P $ $ + * ; 5 }.#Xg.* * - : $ + * * : * * 7 y.d.",
"# # $ * - - + * 4 s * * * * * $ $ + $ : - $ O p L O # + $ - - * * 3 s * : ; * : : $ + : : : + O p L ",
"+ * e - , 9 : * + . * , + * - - $ : B $ $ $ $ O O : * e - - - * * +   * - + * * - : : , $ : $ $ O O ",
"* * k x.i * * * 0 w * + r #.* * * , , O O $ * e < * * U b.i * * * 9 J * . P @.* * * , : + $ + * 6 < ",
"+ O + r.u.* + $ 0 2.&./ F.g.* - * + < G e * . K y O O + p.w.* $ O 0 2.%./ F.L.* * * . < e e * . U K ",
"s.f.$ + + : , : + 3 g.} w + * q 9 3 6 Y U 3 e q * p.j.$ + * : , : + 3 g.U w + * 9 0 4 6 Y j 6 r q * ",
"z x + : $ $ , - * * + + + * * , ^  .9 * , X.+.0 + z x + : $ $ , - * * + + + * * , ^  .8 * -  .+.0 * "
};
