/* XPM */
static char * exit_xpm[] = {
"50 50 383 2",
"  	c #3C2913",
". 	c #473116",
"+ 	c #4A3217",
"@ 	c #4C3318",
"# 	c #4A3218",
"$ 	c #453016",
"% 	c #473117",
"& 	c #463116",
"* 	c #402E14",
"= 	c #3C2C13",
"- 	c #3F2D14",
"; 	c #463016",
"> 	c #553B1A",
", 	c #593C1C",
"' 	c #5B3C1D",
") 	c #583B1C",
"! 	c #52391A",
"~ 	c #543A1C",
"{ 	c #533A1A",
"] 	c #4C3718",
"^ 	c #483517",
"/ 	c #4C3618",
"( 	c #53381A",
"_ 	c #533618",
": 	c #62401C",
"< 	c #755528",
"[ 	c #7E5E2E",
"} 	c #7C5D2D",
"| 	c #7B5C2B",
"1 	c #7A5B2B",
"2 	c #795A2A",
"3 	c #7A5C2B",
"4 	c #7E5D2E",
"5 	c #7D5D2D",
"6 	c #7F5E2E",
"7 	c #7C5C2D",
"8 	c #7A5B2D",
"9 	c #75572A",
"0 	c #6D5026",
"a 	c #725528",
"b 	c #583919",
"c 	c #69431E",
"d 	c #84602F",
"e 	c #906D37",
"f 	c #8C6B35",
"g 	c #896832",
"h 	c #896833",
"i 	c #8E6B35",
"j 	c #8F6C36",
"k 	c #876532",
"l 	c #795A2B",
"m 	c #80612F",
"n 	c #8E6B36",
"o 	c #8C6A34",
"p 	c #8A6933",
"q 	c #4F3517",
"r 	c #5F3E1C",
"s 	c #765629",
"t 	c #826130",
"u 	c #7B5B2C",
"v 	c #755629",
"w 	c #765729",
"x 	c #765829",
"y 	c #77582A",
"z 	c #826230",
"A 	c #836230",
"B 	c #8E6C36",
"C 	c #80602F",
"D 	c #7A5B2C",
"E 	c #79592B",
"F 	c #78582A",
"G 	c #745528",
"H 	c #6D5025",
"I 	c #745629",
"J 	c #846331",
"K 	c #483116",
"L 	c #6B4E25",
"M 	c #6C4E25",
"N 	c #634720",
"O 	c #644820",
"P 	c #664921",
"Q 	c #674A22",
"R 	c #8F6C37",
"S 	c #735528",
"T 	c #644821",
"U 	c #694C23",
"V 	c #78592B",
"W 	c #6B4E24",
"X 	c #6A4C23",
"Y 	c #523518",
"Z 	c #62401D",
"` 	c #755428",
" .	c #7E5E2D",
"..	c #745427",
"+.	c #6B4B22",
"@.	c #6B4C23",
"#.	c #654820",
"$.	c #684A21",
"%.	c #896B34",
"&.	c #896C34",
"*.	c #886733",
"=.	c #8D6B35",
"-.	c #7A582A",
";.	c #714F25",
">.	c #6A4B22",
",.	c #664820",
"'.	c #654720",
").	c #715428",
"!.	c #896B36",
"~.	c #886934",
"{.	c #82612F",
"].	c #623B1C",
"^.	c #744622",
"/.	c #825D2D",
"(.	c #7F5C2C",
"_.	c #775226",
":.	c #886732",
"<.	c #3E3219",
"[.	c #1F1409",
"}.	c #1F1408",
"|.	c #201609",
"1.	c #271C0C",
"2.	c #9F8240",
"3.	c #886731",
"4.	c #835D2D",
"5.	c #81582C",
"6.	c #51371B",
"7.	c #7C602F",
"8.	c #A48745",
"9.	c #A08142",
"0.	c #8D6935",
"a.	c #633B1C",
"b.	c #8A6A34",
"c.	c #382F15",
"d.	c #000000",
"e.	c #120C05",
"f.	c #9F8241",
"g.	c #7D602F",
"h.	c #A08141",
"i.	c #5F3A1C",
"j.	c #714621",
"k.	c #825E2D",
"l.	c #7C5B2B",
"m.	c #876934",
"n.	c #372E15",
"o.	c #81612E",
"p.	c #80602E",
"q.	c #8B6933",
"r.	c #7C5F2E",
"s.	c #A38644",
"t.	c #9E7F40",
"u.	c #8D6A34",
"v.	c #8B6934",
"w.	c #714520",
"x.	c #7F5D2C",
"y.	c #7F632F",
"z.	c #352C13",
"A.	c #8F6C35",
"B.	c #845D2E",
"C.	c #7F562A",
"D.	c #4B3217",
"E.	c #755A2B",
"F.	c #9A7D3D",
"G.	c #745A2B",
"H.	c #876631",
"I.	c #68431D",
"J.	c #5B391A",
"K.	c #6C431F",
"L.	c #815E2D",
"M.	c #7B5A2C",
"N.	c #6D4C24",
"O.	c #6E4D24",
"P.	c #836530",
"Q.	c #9F823F",
"R.	c #8E6B34",
"S.	c #8A6934",
"T.	c #815B2D",
"U.	c #7D5529",
"V.	c #4A3116",
"W.	c #755B2C",
"X.	c #A18442",
"Y.	c #9C7F3E",
"Z.	c #876131",
"`.	c #886231",
" +	c #916D38",
".+	c #382E16",
"++	c #8A6932",
"@+	c #775428",
"#+	c #462F14",
"$+	c #826233",
"%+	c #A78949",
"&+	c #A28345",
"*+	c #8F6B37",
"=+	c #866130",
"-+	c #916E38",
";+	c #382F16",
">+	c #775427",
",+	c #836333",
"'+	c #613B1C",
")+	c #734621",
"!+	c #906C37",
"~+	c #886131",
"{+	c #916E39",
"]+	c #3D331B",
"^+	c #130D06",
"/+	c #1E1609",
"(+	c #795B2B",
"_+	c #785528",
":+	c #785327",
"<+	c #493217",
"[+	c #130D05",
"}+	c #846433",
"|+	c #A78A48",
"1+	c #A18345",
"2+	c #8F6B36",
"3+	c #8A6832",
"4+	c #81602F",
"5+	c #8C6E38",
"6+	c #A7894A",
"7+	c #A78A49",
"8+	c #8F6D37",
"9+	c #896932",
"0+	c #9D7F41",
"a+	c #A48746",
"b+	c #A18443",
"c+	c #876731",
"d+	c #906E37",
"e+	c #876730",
"f+	c #7A5B2A",
"g+	c #906D36",
"h+	c #9D7E41",
"i+	c #A48744",
"j+	c #9A7C3C",
"k+	c #573919",
"l+	c #68431E",
"m+	c #83602F",
"n+	c #916E37",
"o+	c #7B5B2B",
"p+	c #8E6C35",
"q+	c #7A5A2B",
"r+	c #8B6A34",
"s+	c #84612F",
"t+	c #7F5B2C",
"u+	c #825C2C",
"v+	c #835C2C",
"w+	c #8F6B35",
"x+	c #7F5F2E",
"y+	c #7F5C2D",
"z+	c #7E5A2B",
"A+	c #785729",
"B+	c #735427",
"C+	c #855E2F",
"D+	c #865E2F",
"E+	c #876231",
"F+	c #8A6833",
"G+	c #795328",
"H+	c #80572B",
"I+	c #775327",
"J+	c #835E2E",
"K+	c #7C5528",
"L+	c #866330",
"M+	c #533C1D",
"N+	c #483015",
"O+	c #4D3419",
"P+	c #997A3D",
"Q+	c #997B3D",
"R+	c #84632F",
"S+	c #83622E",
"T+	c #7B5729",
"U+	c #5A3D1C",
"V+	c #402C13",
"W+	c #3B2911",
"X+	c #422D14",
"Y+	c #82602F",
"Z+	c #9B7D3F",
"`+	c #98783C",
" @	c #8B6833",
".@	c #825F2E",
"+@	c #865F2F",
"@@	c #7D592A",
"#@	c #816131",
"$@	c #8C6934",
"%@	c #503517",
"&@	c #78572A",
"*@	c #805D2D",
"=@	c #31250F",
"-@	c #110B04",
";@	c #987A3C",
">@	c #836331",
",@	c #886832",
"'@	c #765628",
")@	c #725629",
"!@	c #99783C",
"~@	c #937339",
"{@	c #563B1A",
"]@	c #785929",
"^@	c #2F230E",
"/@	c #0F0A04",
"(@	c #937338",
"_@	c #725326",
":@	c #6C5024",
"<@	c #8F6C34",
"[@	c #755628",
"}@	c #785829",
"|@	c #2F230F",
"1@	c #725327",
"2@	c #6C4F24",
"3@	c #896731",
"4@	c #805F2F",
"5@	c #78562A",
"6@	c #7F5E2D",
"7@	c #312610",
"8@	c #97793C",
"9@	c #98793B",
"0@	c #775628",
"a@	c #6D4C23",
"b@	c #78572B",
"c@	c #906E35",
"d@	c #8C6B34",
"e@	c #906D38",
"f@	c #886330",
"g@	c #30260F",
"h@	c #7B592B",
"i@	c #927239",
"j@	c #462F15",
"k@	c #623A1C",
"l@	c #856030",
"m@	c #7F582C",
"n@	c #8D6A35",
"o@	c #94793E",
"p@	c #93783D",
"q@	c #957B40",
"r@	c #967B40",
"s@	c #957C40",
"t@	c #896733",
"u@	c #8A6733",
"v@	c #8E713A",
"w@	c #967C42",
"x@	c #957B41",
"y@	c #957A40",
"z@	c #8E7038",
"A@	c #97783A",
"B@	c #947539",
"C@	c #61391B",
"D@	c #724420",
"E@	c #8A6834",
"F@	c #896732",
"G@	c #A78948",
"H@	c #613A1B",
"I@	c #734521",
"J@	c #835E2D",
"K@	c #836330",
"L@	c #7D5E2C",
"M@	c #8B6D36",
"N@	c #A08244",
"O@	c #A08344",
"P@	c #9C7D3E",
"Q@	c #9C7D3D",
"R@	c #8B6935",
"S@	c #997A3E",
"T@	c #9D8040",
"U@	c #9C7E3E",
"V@	c #98783B",
"W@	c #734421",
"X@	c #613A1C",
"Y@	c #855F30",
"Z@	c #876630",
"`@	c #8C6A35",
" #	c #8D6B37",
".#	c #8E6B37",
"+#	c #573B1B",
"@#	c #583B1B",
"##	c #523919",
"$#	c #53391A",
"%#	c #543A19",
"&#	c #4E3719",
"*#	c #483417",
"=#	c #4B3618",
"-#	c #533819",
";#	c #553A1A",
">#	c #5B3C1E",
",#	c #4E3819",
"'#	c #52381A",
"  . . . . . + @ @ # $ $ $ $ $ % @ @ @ $ $ $ . . . . . . . . . & $ $ * = = - $ $ $ $ $ ; . . . . . . ",
". > > > > > , ' ' ) ! ! ! ! ! ~ ' ' ' ! ! ! > > > > > > > > > { ! ! ] ^ ^ / ! ! ! ! ! ( > > > > > > ",
". > > > > > , ' ' ) ! ! ! ! ! ~ ' ' ' ! ! ! > > > > > > > > > { ! ! ] ^ ^ / ! ! ! ! ! ( > > > > > > ",
"_ : : < [ [ } | | 1 2 2 2 2 2 3 4 4 4 5 5 5 5 5 5 6 [ [ [ [ [ [ [ [ 7 8 8 9 0 0 a [ [ [ [ [ 4 : : : ",
"b c c d e e f g g g g g g g g h i i i i i i i i i e e e e e e e e e j i i k l l m e e e e e n c c c ",
"b c c d e e o g g g g g g g g p i i i i i i i i i e e e e e e e e e j i i k l l m e e e e e n c c c ",
"q r r s t t u v v w x w w w w y l l l z A A B j j e e e C D D D D D E F F G H H I t t z J J t r r r ",
"K > > L w w M N N O P P P P P P P P Q l l l R e e e e e S P P P P P T N N N N N U w w y l l V > > > ",
". > > L w w W N N O P P P P P P P P Q l l l R e e e e e S P P P P P O N N N N N X w w y l l V > > > ",
"Y Z Z `  . ...+.+.@.P #.#.#.#.#.P P $.%.&.&.*.*.*.=.=.=.-.;.;.>.P P ,.'.'.'.'.'.).!.!.~.{.{.C Z Z Z ",
"].^.^./.g g (._._.:.<.[.[.[.[.}.|.|.1.2.2.2.3 l l 3.g g 4.5.5.6.|.|.|.|.|.|.|.|.7.8.8.9.i i 0.^.^.^.",
"a.^.^./.g g (._._.b.c.d.d.d.d.d.d.d.e.f.2.2.3 l l 3.g g 4.5.5.@ d.d.d.d.d.d.d.d.g.8.8.h.i i 0.^.^.^.",
"i.j.j.k.g g l.;.;.m.n.d.d.d.d.d.d.d.e.f.2.2.o.p.p.p q.q.4.5.5.@ d.d.d.d.d.d.d.d.r.s.s.t.u.u.v.w.j.j.",
"b c c x.g g x P P y.z.d.d.d.d.d.d.d.e.f.2.2.A.i i e e e B.C.C.D.d.d.d.d.d.d.d.d.E.2.2.F.g g 3.c c c ",
"b c c x.g g x P P y.z.d.d.d.d.d.d.d.e.f.2.2.A.i i e e e B.C.C.D.d.d.d.d.d.d.d.d.G.2.2.F.g g H.I.c c ",
"J.K.K.L.p p M.N.O.P.z.d.d.d.d.d.d.d.e.f.2.Q.R.u.u.v.S.S.T.U.U.V.d.d.d.d.d.d.d.d.W.X.X.Y.p p h K.K.K.",
"a.^.^.Z.e e `.5.5. +.+d.d.d.d.d.d.d.e.f.2.2.++g g 3 l l @+_._.#+d.d.d.d.d.d.d.d.$+%+%+&+e e *+^.^.^.",
"a.^.^.=+e e `.5.5.-+;+d.d.d.d.d.d.d.e.f.2.2.++g g 3 l l >+_._.#+d.d.d.d.d.d.d.d.,+%+%+&+e e *+^.^.^.",
"'+)+)+=+!+e ~+5.5.{+]+^+^+^+^+^+^+^+/+f.2.2.++g g | (+(+_+:+:+<+[+[+e.e.e.e.e.e.}+|+|+1+e e 2+)+)+)+",
". > > 1 g 3+4+l l 5+6+6+6+6+6+6+6+6+7+2.2.2.e e 8+9+g g B e e 0+a+a+b+f.f.f.f.f.2.2.2.F.3+3+c+> > > ",
". > > 1 g g p.l l 5+%+%+%+%+%+%+%+%+|+2.2.2.d+e e h g g j e e 0+8.8.X.2.2.2.2.2.2.2.2.F.g g e+> > > ",
"K > > f+g g p.l l 5+6+6+6+6+6+6+%+%+%+2.2.2.e g+e 9+g g j e e h+i+i+X.2.2.2.2.2.2.2.2.j+g g H.> > > ",
"k+l+l+m+8+8+8+R R e n+n+n+n+n+g+++++++e e e o+1 1 B 8+8+e e e j p+p+A.A.A.j e e e e e e 8+8+n l+l+l+",
"b c c d e e e e e e e e e e e j g g g e e e q+l l B e e e e e j i i i i i j e e e e e e e e n c c c ",
"b c c d e e e e e e e e e e e j g g g e e e q+l l n e e e e e j i i i i i j e e e e e e e e n c c c ",
"b c c d e e e e e e e e e e e j g g g e e e o o o !+e e e e e j i i i i i j e e e e e e e e n c c c ",
"b c c d e e e e e e e e e e e j g g g e e e i i i e e e e e e j i i i i i j e e e e e e e e n c c c ",
"b c c d e e e e e e e e e e e j g g g e e e i i i e e e e e e j i i i i i j e e e e e e e e n c c c ",
"b c c L.r+r+s+t+t+t+t+t+t+t+t+t+u+u+v+w+i i q.p p x+[ [ y+t+t+z+z+z+A+B+B+-.C+D+E+r+r+r+r+r+F+c c c ",
"b c c x.g g (._._._._._._._._.G+C.C.H+i i i g g g F w w I+_._._._._.O.P P ;.5.5.4.g g g g g H.I.c c ",
"b c c x.g g (._._._._._._._._.G+C.C.H+i i i g g g F w w I+_._._._._.O.P P ;.5.5.4.g g g g g H.I.c c ",
"b c c L.o o J+K+K+L+M+#+#+#+#+N+D.D.O+P+Q+P+B B n R+S+S+T+_._.U+#+#+V+W+W+X+@ @ Y+Z+Z+`+o o  @c c c ",
"b c c .@i i +@C.C.B n.d.d.d.d.d.d.d.e.f.2.2.d+e e h g g @@_._.#+d.d.d.d.d.d.d.d.#@8.8.h.i i $@c c c ",
"b c c .@i i +@C.C.A.n.d.d.d.d.d.d.d.e.f.2.2.d+e e h g g @@_._.#+d.d.d.d.d.d.d.d.#@8.8.h.i i $@c c c ",
"%@r r s 4+4+&@;.;.*@=@d.d.d.d.d.d.d.-@;@;@;@J >@>@,@g g '@O.O.V+d.d.d.d.d.d.d.d.)@!@!@~@4+4+x+r r r ",
"K {@{@L w w H P P ]@^@d.d.d.d.d.d.d./@(@(@(@1 l l 3.g g _@P P W+d.d.d.d.d.d.d.d.:@<@<@g w w [@{@{@{@",
". > > L w w H P P }@|@d.d.d.d.d.d.d./@(@(@(@1 l l 3.g g 1@P P W+d.d.d.d.d.d.d.d.2@<@<@3@w w [@> > > ",
"Y Z Z s 4@4@5@;.;.6@7@d.d.d.d.d.d.d.-@8@9@9@A z z q.o o 0@a@a@V+d.d.d.d.d.d.d.d.b@c@c@d@4@4@6 Z Z Z ",
"].^.^.=+e@e@~+5.5.f@g@d.d.d.d.d.d.d.e.2.2.Q.e e e e e e t+_._.#+d.d.d.d.d.d.d.d.h@(@(@i@e@e@R ^.^.^.",
"a.^.^.Z.e e `.5.5.f@g@d.d.d.d.d.d.d.e.f.2.2.d+e e e e e t+_._.j@d.d.d.d.d.d.d.d.M.(@(@i@e e *+^.^.^.",
"k@^.^.l@i i =+m@m@n@o@p@p@p@p@p@q@r@s@2.2.2.j i n t@t@u@.@t+t+v@w@w@x@y@y@y@y@y@z@A@A@B@i i n@^.^.^.",
"C@D@D@/.g g p.l l 5+%+%+%+%+%+%+%+%+|+2.2.2.++g g 3 l l E@e e 0+8.8.X.2.2.2.2.2.2.2.2.F.g g F@D@D@D@",
"C@D@D@/.g g m l l 5+%+%+%+%+%+%+%+%+G@2.2.2.++g g 3 l l E@e e 0+8.8.X.2.2.2.2.2.2.2.2.F.g g :.D@D@D@",
"H@I@I@J@p p K@L@L@M@N@N@N@N@N@O@&+&+&+P@Q@P@p g p p.6 6 R@e e S@T@T@U@Q@Q@Q@Q@Q@Q@Q@Q@V@p p F+W@I@I@",
"a.^.^.=+e e o g g g g g g g g p e e e e e e i i i e e e e e e o g g o i i j e e e e e e e e *+^.^.^.",
"a.^.^.=+e e o g g g g g g g g p e e e e e e i i i e e e e e e o g g o i i j e e e e e e e e *+^.^.^.",
"X@)+)+Y@i i ++e+e+e+Z@Z@H.H.H.:.n n n i i n $@$@$@n i i i i i 9+e+e+F+$@$@`@ #.#n n n n n n 0.)+)+)+",
". > > > > > > > > +#' ' @#! ! ! ####$#' ' ' ######%#> > > > > > > > { ####&#*#^ =###########-#;#> > ",
". > > > > > > > > +#' ' ) ! ! ! ! ! $#>#' ' ##! ! > > > > > > > > > { ! ! ,#^ ^ =#! ! ! ! ! '#> > > ",
". > > > > > > > > +#' ' ) ! ! ! ! ! $#>#' ' ##! ! > > > > > > > > > { ! ! ,#^ ^ =#! ! ! ! ! '#> > > "};
