/* XPM */
static char * exitReady_xpm[] = {
"50 50 393 2",
"  	c #3C2913",
". 	c #473116",
"+ 	c #4A3217",
"@ 	c #4C3318",
"# 	c #4A3218",
"$ 	c #453016",
"% 	c #473117",
"& 	c #463116",
"* 	c #402E14",
"= 	c #3C2C13",
"- 	c #3F2D14",
"; 	c #463016",
"> 	c #553B1A",
", 	c #593C1C",
"' 	c #5B3C1D",
") 	c #583B1C",
"! 	c #52391A",
"~ 	c #543A1C",
"{ 	c #533A1A",
"] 	c #4C3718",
"^ 	c #483517",
"/ 	c #4C3618",
"( 	c #53381A",
"_ 	c #533618",
": 	c #62401C",
"< 	c #755528",
"[ 	c #7E5E2E",
"} 	c #7C5D2D",
"| 	c #7B5C2B",
"1 	c #7A5B2B",
"2 	c #795A2A",
"3 	c #7A5C2B",
"4 	c #7E5D2E",
"5 	c #7D5D2D",
"6 	c #7F5E2E",
"7 	c #7C5C2D",
"8 	c #7A5B2D",
"9 	c #75572A",
"0 	c #6D5026",
"a 	c #725528",
"b 	c #583919",
"c 	c #69431E",
"d 	c #84602F",
"e 	c #906D37",
"f 	c #8C6B35",
"g 	c #896832",
"h 	c #896833",
"i 	c #8E6B35",
"j 	c #8F6C36",
"k 	c #876532",
"l 	c #795A2B",
"m 	c #80612F",
"n 	c #8E6B36",
"o 	c #8C6A34",
"p 	c #8A6933",
"q 	c #4F3517",
"r 	c #5F3E1C",
"s 	c #765629",
"t 	c #826130",
"u 	c #7B5B2C",
"v 	c #755629",
"w 	c #765729",
"x 	c #765829",
"y 	c #77582A",
"z 	c #826230",
"A 	c #836230",
"B 	c #8E6C36",
"C 	c #80602F",
"D 	c #7A5B2C",
"E 	c #79592B",
"F 	c #78582A",
"G 	c #745528",
"H 	c #6D5025",
"I 	c #745629",
"J 	c #846331",
"K 	c #483116",
"L 	c #6B4E25",
"M 	c #6C4E25",
"N 	c #634720",
"O 	c #644820",
"P 	c #664921",
"Q 	c #674A22",
"R 	c #8F6C37",
"S 	c #735528",
"T 	c #644821",
"U 	c #694C23",
"V 	c #78592B",
"W 	c #6B4E24",
"X 	c #6A4C23",
"Y 	c #523518",
"Z 	c #62401D",
"` 	c #755428",
" .	c #7E5E2D",
"..	c #745427",
"+.	c #6B4B22",
"@.	c #6B4C23",
"#.	c #654820",
"$.	c #684A21",
"%.	c #896B34",
"&.	c #896C34",
"*.	c #886733",
"=.	c #8D6B35",
"-.	c #7A582A",
";.	c #714F25",
">.	c #6A4B22",
",.	c #664820",
"'.	c #654720",
").	c #715428",
"!.	c #896B36",
"~.	c #886934",
"{.	c #82612F",
"].	c #623B1C",
"^.	c #744622",
"/.	c #825D2D",
"(.	c #7F5C2C",
"_.	c #775226",
":.	c #886732",
"<.	c #C8CA34",
"[.	c #D7DA34",
"}.	c #D7DA3A",
"|.	c #D7DA3C",
"1.	c #D7DA36",
"2.	c #D7DB34",
"3.	c #CED132",
"4.	c #9F8240",
"5.	c #886731",
"6.	c #835D2D",
"7.	c #81582C",
"8.	c #B8B430",
"9.	c #8E7832",
"0.	c #A48745",
"a.	c #A08142",
"b.	c #8D6935",
"c.	c #633B1C",
"d.	c #8A6A34",
"e.	c #DADD38",
"f.	c #EBF03B",
"g.	c #EBF03E",
"h.	c #EBF03A",
"i.	c #EBF038",
"j.	c #EBF03D",
"k.	c #E1E636",
"l.	c #9F8241",
"m.	c #C7C532",
"n.	c #927D32",
"o.	c #A08141",
"p.	c #5F3A1C",
"q.	c #714621",
"r.	c #825E2D",
"s.	c #7C5B2B",
"t.	c #876934",
"u.	c #EBF041",
"v.	c #EBEF46",
"w.	c #EBF03F",
"x.	c #EBF039",
"y.	c #81612E",
"z.	c #80602E",
"A.	c #8B6933",
"B.	c #927C32",
"C.	c #A38644",
"D.	c #9E7F40",
"E.	c #8D6A34",
"F.	c #8B6934",
"G.	c #714520",
"H.	c #7F5D2C",
"I.	c #7F632F",
"J.	c #DADD3E",
"K.	c #EBF040",
"L.	c #EBF043",
"M.	c #8F6C35",
"N.	c #845D2E",
"O.	c #7F562A",
"P.	c #C7C432",
"Q.	c #8B782F",
"R.	c #9A7D3D",
"S.	c #EBF045",
"T.	c #876631",
"U.	c #68431D",
"V.	c #5B391A",
"W.	c #6C431F",
"X.	c #815E2D",
"Y.	c #7B5A2C",
"Z.	c #6D4C24",
"`.	c #6E4D24",
" +	c #836530",
".+	c #DADD3F",
"++	c #EBEF48",
"@+	c #9F823F",
"#+	c #8E6B34",
"$+	c #8A6934",
"%+	c #815B2D",
"&+	c #7D5529",
"*+	c #C6C432",
"=+	c #8B7930",
"-+	c #A18442",
";+	c #9C7F3E",
">+	c #876131",
",+	c #886231",
"'+	c #916D38",
")+	c #DADD39",
"!+	c #EBF044",
"~+	c #8A6932",
"{+	c #775428",
"]+	c #C5C431",
"^+	c #967F36",
"/+	c #A78949",
"(+	c #A28345",
"_+	c #8F6B37",
":+	c #866130",
"<+	c #916E38",
"[+	c #EBF03C",
"}+	c #775427",
"|+	c #977F36",
"1+	c #613B1C",
"2+	c #734621",
"3+	c #906C37",
"4+	c #886131",
"5+	c #916E39",
"6+	c #D1D338",
"7+	c #E1E53B",
"8+	c #E1E53F",
"9+	c #E1E53E",
"0+	c #E1E53A",
"a+	c #795B2B",
"b+	c #785528",
"c+	c #785327",
"d+	c #BEBC30",
"e+	c #967D36",
"f+	c #A78A48",
"g+	c #A18345",
"h+	c #8F6B36",
"i+	c #8A6832",
"j+	c #81602F",
"k+	c #8C6E38",
"l+	c #A7894A",
"m+	c #A78A49",
"n+	c #8F6D37",
"o+	c #896932",
"p+	c #9D7F41",
"q+	c #A48746",
"r+	c #A18443",
"s+	c #876731",
"t+	c #906E37",
"u+	c #876730",
"v+	c #7A5B2A",
"w+	c #906D36",
"x+	c #9D7E41",
"y+	c #A48744",
"z+	c #9A7C3C",
"A+	c #573919",
"B+	c #68431E",
"C+	c #83602F",
"D+	c #916E37",
"E+	c #7B5B2B",
"F+	c #8E6C35",
"G+	c #7A5A2B",
"H+	c #8B6A34",
"I+	c #84612F",
"J+	c #7F5B2C",
"K+	c #825C2C",
"L+	c #835C2C",
"M+	c #8F6B35",
"N+	c #7F5F2E",
"O+	c #7F5C2D",
"P+	c #7E5A2B",
"Q+	c #785729",
"R+	c #735427",
"S+	c #855E2F",
"T+	c #865E2F",
"U+	c #876231",
"V+	c #8A6833",
"W+	c #795328",
"X+	c #80572B",
"Y+	c #775327",
"Z+	c #835E2E",
"`+	c #7C5528",
" @	c #866330",
".@	c #B7B431",
"+@	c #C6C431",
"@@	c #BEBB30",
"#@	c #997A3D",
"$@	c #997B3D",
"%@	c #84632F",
"&@	c #83622E",
"*@	c #7B5729",
"=@	c #AAA22C",
"-@	c #C4C330",
";@	c #C2C330",
">@	c #C4C431",
",@	c #8E7231",
"'@	c #9B7D3F",
")@	c #98783C",
"!@	c #8B6833",
"~@	c #825F2E",
"{@	c #865F2F",
"]@	c #7D592A",
"^@	c #967E34",
"/@	c #8C6934",
"(@	c #503517",
"_@	c #78572A",
":@	c #805D2D",
"<@	c #D9DC36",
"[@	c #E1E536",
"}@	c #987A3C",
"|@	c #836331",
"1@	c #886832",
"2@	c #765628",
"3@	c #8A762D",
"4@	c #99783C",
"5@	c #937339",
"6@	c #563B1A",
"7@	c #785929",
"8@	c #D9DC35",
"9@	c #937338",
"0@	c #725326",
"a@	c #857129",
"b@	c #8F6C34",
"c@	c #755628",
"d@	c #785829",
"e@	c #725327",
"f@	c #896731",
"g@	c #805F2F",
"h@	c #78562A",
"i@	c #7F5E2D",
"j@	c #97793C",
"k@	c #98793B",
"l@	c #775628",
"m@	c #6D4C23",
"n@	c #8E762E",
"o@	c #906E35",
"p@	c #8C6B34",
"q@	c #906D38",
"r@	c #886330",
"s@	c #90782F",
"t@	c #927239",
"u@	c #623A1C",
"v@	c #856030",
"w@	c #7F582C",
"x@	c #8D6A35",
"y@	c #A18A3F",
"z@	c #A48F3F",
"A@	c #A79142",
"B@	c #A79242",
"C@	c #A59042",
"D@	c #896733",
"E@	c #8A6733",
"F@	c #99803C",
"G@	c #A89244",
"H@	c #A79143",
"I@	c #A69143",
"J@	c #907338",
"K@	c #97783A",
"L@	c #947539",
"M@	c #61391B",
"N@	c #724420",
"O@	c #8A6834",
"P@	c #896732",
"Q@	c #A78948",
"R@	c #613A1B",
"S@	c #734521",
"T@	c #835E2D",
"U@	c #836330",
"V@	c #7D5E2C",
"W@	c #8B6D36",
"X@	c #A08244",
"Y@	c #A08344",
"Z@	c #9C7D3E",
"`@	c #9C7D3D",
" #	c #8B6935",
".#	c #997A3E",
"+#	c #9D8040",
"@#	c #9C7E3E",
"##	c #98783B",
"$#	c #734421",
"%#	c #613A1C",
"&#	c #855F30",
"*#	c #876630",
"=#	c #8C6A35",
"-#	c #8D6B37",
";#	c #8E6B37",
">#	c #573B1B",
",#	c #583B1B",
"'#	c #523919",
")#	c #53391A",
"!#	c #543A19",
"~#	c #4E3719",
"{#	c #483417",
"]#	c #4B3618",
"^#	c #533819",
"/#	c #553A1A",
"(#	c #5B3C1E",
"_#	c #4E3819",
":#	c #52381A",
"  . . . . . + @ @ # $ $ $ $ $ % @ @ @ $ $ $ . . . . . . . . . & $ $ * = = - $ $ $ $ $ ; . . . . . . ",
". > > > > > , ' ' ) ! ! ! ! ! ~ ' ' ' ! ! ! > > > > > > > > > { ! ! ] ^ ^ / ! ! ! ! ! ( > > > > > > ",
". > > > > > , ' ' ) ! ! ! ! ! ~ ' ' ' ! ! ! > > > > > > > > > { ! ! ] ^ ^ / ! ! ! ! ! ( > > > > > > ",
"_ : : < [ [ } | | 1 2 2 2 2 2 3 4 4 4 5 5 5 5 5 5 6 [ [ [ [ [ [ [ [ 7 8 8 9 0 0 a [ [ [ [ [ 4 : : : ",
"b c c d e e f g g g g g g g g h i i i i i i i i i e e e e e e e e e j i i k l l m e e e e e n c c c ",
"b c c d e e o g g g g g g g g p i i i i i i i i i e e e e e e e e e j i i k l l m e e e e e n c c c ",
"q r r s t t u v v w x w w w w y l l l z A A B j j e e e C D D D D D E F F G H H I t t z J J t r r r ",
"K > > L w w M N N O P P P P P P P P Q l l l R e e e e e S P P P P P T N N N N N U w w y l l V > > > ",
". > > L w w W N N O P P P P P P P P Q l l l R e e e e e S P P P P P O N N N N N X w w y l l V > > > ",
"Y Z Z `  . ...+.+.@.P #.#.#.#.#.P P $.%.&.&.*.*.*.=.=.=.-.;.;.>.P P ,.'.'.'.'.'.).!.!.~.{.{.C Z Z Z ",
"].^.^./.g g (._._.:.<.[.[.}.|.1.2.2.3.4.4.4.3 l l 5.g g 6.7.7.8.2.2.2.2.2.2.2.2.9.0.0.a.i i b.^.^.^.",
"c.^.^./.g g (._._.d.e.f.g.h.i.j.j.i.k.l.4.4.3 l l 5.g g 6.7.7.m.i.i.i.i.i.i.i.i.n.0.0.o.i i b.^.^.^.",
"p.q.q.r.g g s.;.;.t.e.u.i.v.w.i.j.x.k.l.4.4.y.z.z.p A.A.6.7.7.m.i.i.i.i.i.i.i.i.B.C.C.D.E.E.F.G.q.q.",
"b c c H.g g x P P I.J.x.f.u.K.w.f.L.k.l.4.4.M.i i e e e N.O.O.P.i.i.i.i.i.i.i.i.Q.4.4.R.g g 5.c c c ",
"b c c H.g g x P P I.J.i.i.u.i.K.i.S.k.l.4.4.M.i i e e e N.O.O.P.i.i.i.i.i.i.i.i.Q.4.4.R.g g T.U.c c ",
"V.W.W.X.p p Y.Z.`. +.+i.i.u.i.w.i.++k.l.4.@+#+E.E.F.$+$+%+&+&+*+i.i.i.i.i.i.i.i.=+-+-+;+p p h W.W.W.",
"c.^.^.>+e e ,+7.7.'+)+w.i.h.u.j.!+g.k.l.4.4.~+g g 3 l l {+_._.]+i.i.i.i.i.i.i.i.^+/+/+(+e e _+^.^.^.",
"c.^.^.:+e e ,+7.7.<+e.g.[+i.i.j.f.i.k.l.4.4.~+g g 3 l l }+_._.]+i.i.i.i.i.i.i.i.|+/+/+(+e e _+^.^.^.",
"1+2+2+:+3+e 4+7.7.5+6+k.7+8+9+0+k.k.2.l.4.4.~+g g | a+a+b+c+c+d+k.k.k.k.k.k.k.k.e+f+f+g+e e h+2+2+2+",
". > > 1 g i+j+l l k+l+l+l+l+l+l+l+l+m+4.4.4.e e n+o+g g B e e p+q+q+r+l.l.l.l.l.4.4.4.R.i+i+s+> > > ",
". > > 1 g g z.l l k+/+/+/+/+/+/+/+/+f+4.4.4.t+e e h g g j e e p+0.0.-+4.4.4.4.4.4.4.4.R.g g u+> > > ",
"K > > v+g g z.l l k+l+l+l+l+l+l+/+/+/+4.4.4.e w+e o+g g j e e x+y+y+-+4.4.4.4.4.4.4.4.z+g g T.> > > ",
"A+B+B+C+n+n+n+R R e D+D+D+D+D+w+~+~+~+e e e E+1 1 B n+n+e e e j F+F+M.M.M.j e e e e e e n+n+n B+B+B+",
"b c c d e e e e e e e e e e e j g g g e e e G+l l B e e e e e j i i i i i j e e e e e e e e n c c c ",
"b c c d e e e e e e e e e e e j g g g e e e G+l l n e e e e e j i i i i i j e e e e e e e e n c c c ",
"b c c d e e e e e e e e e e e j g g g e e e o o o 3+e e e e e j i i i i i j e e e e e e e e n c c c ",
"b c c d e e e e e e e e e e e j g g g e e e i i i e e e e e e j i i i i i j e e e e e e e e n c c c ",
"b c c d e e e e e e e e e e e j g g g e e e i i i e e e e e e j i i i i i j e e e e e e e e n c c c ",
"b c c X.H+H+I+J+J+J+J+J+J+J+J+J+K+K+L+M+i i A.p p N+[ [ O+J+J+P+P+P+Q+R+R+-.S+T+U+H+H+H+H+H+V+c c c ",
"b c c H.g g (._._._._._._._._.W+O.O.X+i i i g g g F w w Y+_._._._._.`.P P ;.7.7.6.g g g g g T.U.c c ",
"b c c H.g g (._._._._._._._._.W+O.O.X+i i i g g g F w w Y+_._._._._.`.P P ;.7.7.6.g g g g g T.U.c c ",
"b c c X.o o Z+`+`+ @.@]+]+]+]++@*+*+@@#@$@#@B B n %@&@&@*@_._.=@]+]+-@;@;@>@m.m.,@'@'@)@o o !@c c c ",
"b c c ~@i i {@O.O.B e.i.i.i.i.i.i.i.k.l.4.4.t+e e h g g ]@_._.]+i.i.i.i.i.i.i.i.^@0.0.o.i i /@c c c ",
"b c c ~@i i {@O.O.M.e.i.i.i.i.i.i.i.k.l.4.4.t+e e h g g ]@_._.]+i.i.i.i.i.i.i.i.^@0.0.o.i i /@c c c ",
"(@r r s j+j+_@;.;.:@<@i.i.i.i.i.i.i.[@}@}@}@J |@|@1@g g 2@`.`.-@i.i.i.i.i.i.i.i.3@4@4@5@j+j+N+r r r ",
"K 6@6@L w w H P P 7@8@i.i.i.i.i.i.i.[@9@9@9@1 l l 5.g g 0@P P ;@i.i.i.i.i.i.i.i.a@b@b@g w w c@6@6@6@",
". > > L w w H P P d@8@i.i.i.i.i.i.i.[@9@9@9@1 l l 5.g g e@P P ;@i.i.i.i.i.i.i.i.a@b@b@f@w w c@> > > ",
"Y Z Z s g@g@h@;.;.i@<@i.i.i.i.i.i.i.k.j@k@k@A z z A.o o l@m@m@-@i.i.i.i.i.i.i.i.n@o@o@p@g@g@6 Z Z Z ",
"].^.^.:+q@q@4+7.7.r@<@i.i.i.i.i.i.i.k.4.4.@+e e e e e e J+_._.]+i.i.i.i.i.i.i.i.s@9@9@t@q@q@R ^.^.^.",
"c.^.^.>+e e ,+7.7.r@<@i.i.i.i.i.i.i.k.l.4.4.t+e e e e e J+_._.]+i.i.i.i.i.i.i.i.s@9@9@t@e e _+^.^.^.",
"u@^.^.v@i i :+w@w@x@y@z@z@z@z@z@A@B@C@4.4.4.j i n D@D@E@~@J+J+F@G@G@H@I@I@I@I@I@J@K@K@L@i i x@^.^.^.",
"M@N@N@/.g g z.l l k+/+/+/+/+/+/+/+/+f+4.4.4.~+g g 3 l l O@e e p+0.0.-+4.4.4.4.4.4.4.4.R.g g P@N@N@N@",
"M@N@N@/.g g m l l k+/+/+/+/+/+/+/+/+Q@4.4.4.~+g g 3 l l O@e e p+0.0.-+4.4.4.4.4.4.4.4.R.g g :.N@N@N@",
"R@S@S@T@p p U@V@V@W@X@X@X@X@X@Y@(+(+(+Z@`@Z@p g p z.6 6  #e e .#+#+#@#`@`@`@`@`@`@`@`@##p p V+$#S@S@",
"c.^.^.:+e e o g g g g g g g g p e e e e e e i i i e e e e e e o g g o i i j e e e e e e e e _+^.^.^.",
"c.^.^.:+e e o g g g g g g g g p e e e e e e i i i e e e e e e o g g o i i j e e e e e e e e _+^.^.^.",
"%#2+2+&#i i ~+u+u+u+*#*#T.T.T.:.n n n i i n /@/@/@n i i i i i o+u+u+V+/@/@=#-#;#n n n n n n b.2+2+2+",
". > > > > > > > > >#' ' ,#! ! ! '#'#)#' ' ' '#'#'#!#> > > > > > > > { '#'#~#{#^ ]#'#'#'#'#'#^#/#> > ",
". > > > > > > > > >#' ' ) ! ! ! ! ! )#(#' ' '#! ! > > > > > > > > > { ! ! _#^ ^ ]#! ! ! ! ! :#> > > ",
". > > > > > > > > >#' ' ) ! ! ! ! ! )#(#' ' '#! ! > > > > > > > > > { ! ! _#^ ^ ]#! ! ! ! ! :#> > > "};
