/* XPM */
static char * frog_xpm[] = {
"50 50 554 2",
"  	c None",
". 	c #A0AB8A",
"+ 	c #9EB085",
"@ 	c #90AD78",
"# 	c #93B07C",
"$ 	c #739561",
"% 	c #97AF77",
"& 	c #9EB87F",
"* 	c #B6D194",
"= 	c #A9C785",
"- 	c #6A9253",
"; 	c #AEC693",
"> 	c #C2DA9D",
", 	c #A2BD81",
"' 	c #90AA74",
") 	c #6A8162",
"! 	c #ACC793",
"~ 	c #96B780",
"{ 	c #5A9642",
"] 	c #7CA360",
"^ 	c #B0CD8A",
"/ 	c #89A860",
"( 	c #74945B",
"_ 	c #A8BC8E",
": 	c #93B37D",
"< 	c #8AAC75",
"[ 	c #C2DD9F",
"} 	c #9AB87B",
"| 	c #91B175",
"1 	c #78A161",
"2 	c #4C8E47",
"3 	c #647C6A",
"4 	c #6D9D55",
"5 	c #689B4E",
"6 	c #323C27",
"7 	c #5F953C",
"8 	c #A4C382",
"9 	c #C2DE9C",
"0 	c #C8E2A6",
"a 	c #CAE6A8",
"b 	c #C9E5AA",
"c 	c #C5DFA2",
"d 	c #ADC883",
"e 	c #8FAF75",
"f 	c #64994B",
"g 	c #5E8648",
"h 	c #2D3B24",
"i 	c #4D7F4C",
"j 	c #729F52",
"k 	c #223011",
"l 	c #303822",
"m 	c #729E4F",
"n 	c #B2CD92",
"o 	c #B6D496",
"p 	c #8DB06F",
"q 	c #CBE4A5",
"r 	c #BDD79B",
"s 	c #82A764",
"t 	c #A2C07D",
"u 	c #91AC71",
"v 	c #548C37",
"w 	c #254715",
"x 	c #2F382D",
"y 	c #4D854E",
"z 	c #7AA462",
"A 	c #89A764",
"B 	c #709C52",
"C 	c #6A984A",
"D 	c #9DB779",
"E 	c #C5E1A2",
"F 	c #C6E19F",
"G 	c #B3CD88",
"H 	c #B1CD81",
"I 	c #ADCB81",
"J 	c #9CBD73",
"K 	c #A5C67B",
"L 	c #98B76F",
"M 	c #809C63",
"N 	c #548F42",
"O 	c #519053",
"P 	c #4C8B56",
"Q 	c #80A76D",
"R 	c #BEDD9E",
"S 	c #B4CE93",
"T 	c #AFC78E",
"U 	c #B1CA8D",
"V 	c #C3E09D",
"W 	c #C7E5A0",
"X 	c #C6E39F",
"Y 	c #AFCA80",
"Z 	c #AAC67B",
"` 	c #A3C778",
" .	c #A3C77B",
"..	c #A2C67A",
"+.	c #A3C77C",
"@.	c #98BC73",
"#.	c #83A865",
"$.	c #729B64",
"%.	c #64936A",
"&.	c #5B986F",
"*.	c #B4CE9B",
"=.	c #CBE4A1",
"-.	c #C8E29E",
";.	c #C5DE99",
">.	c #C1D893",
",.	c #B5CB88",
"'.	c #ACC480",
").	c #99B671",
"!.	c #92AE6C",
"~.	c #8EAE6A",
"{.	c #91B06E",
"].	c #8DAC6B",
"^.	c #99B574",
"/.	c #9DB974",
"(.	c #9EB975",
"_.	c #90AF75",
":.	c #749B73",
"<.	c #668C73",
"[.	c #C2D89E",
"}.	c #BFD48C",
"|.	c #B9CE83",
"1.	c #9DB773",
"2.	c #92AE6B",
"3.	c #799F4E",
"4.	c #8EA459",
"5.	c #97AC68",
"6.	c #9DB170",
"7.	c #93B277",
"8.	c #94B278",
"9.	c #79A05E",
"0.	c #689750",
"a.	c #649448",
"b.	c #749956",
"c.	c #7D9F66",
"d.	c #799D73",
"e.	c #679673",
"f.	c #44935B",
"g.	c #92AF74",
"h.	c #88A868",
"i.	c #80A45E",
"j.	c #8CAB68",
"k.	c #A0BA7A",
"l.	c #A2B56E",
"m.	c #A6B266",
"n.	c #A5AE5B",
"o.	c #9EAB5A",
"p.	c #98A759",
"q.	c #99A657",
"r.	c #97A55A",
"s.	c #93A560",
"t.	c #82A169",
"u.	c #789D60",
"v.	c #6E9A5C",
"w.	c #60954E",
"x.	c #599253",
"y.	c #488D4A",
"z.	c #4F725E",
"A.	c #95A673",
"B.	c #92AE6D",
"C.	c #98B16E",
"D.	c #9BB371",
"E.	c #A1B065",
"F.	c #A4AF5F",
"G.	c #A3AC5D",
"H.	c #9B9D5E",
"I.	c #98995F",
"J.	c #989663",
"K.	c #989662",
"L.	c #9A9262",
"M.	c #9A9961",
"N.	c #8C9F5E",
"O.	c #899E61",
"P.	c #879E65",
"Q.	c #7D9C6A",
"R.	c #63976F",
"S.	c #56956B",
"T.	c #4E745F",
"U.	c #638944",
"V.	c #6F9656",
"W.	c #769960",
"X.	c #7D9C67",
"Y.	c #97A159",
"Z.	c #96A058",
"`.	c #969D53",
" +	c #A08173",
".+	c #A27E76",
"++	c #9F7E75",
"@+	c #9E7D74",
"#+	c #A08074",
"$+	c #998A68",
"%+	c #91985D",
"&+	c #8D9C5A",
"*+	c #899C57",
"=+	c #6A9661",
"-+	c #4A9262",
";+	c #47895B",
">+	c #52883E",
",+	c #6E9B4A",
"'+	c #5E9343",
")+	c #71964E",
"!+	c #998D61",
"~+	c #9A8E60",
"{+	c #A0806F",
"]+	c #A07F76",
"^+	c #9E7E74",
"/+	c #9E7E75",
"(+	c #987B74",
"_+	c #93787B",
":+	c #8C8A68",
"<+	c #869459",
"[+	c #608C4B",
"}+	c #3C8A3D",
"|+	c #368737",
"1+	c #BED6A2",
"2+	c #C9E5A5",
"3+	c #BFD99A",
"4+	c #B1C287",
"5+	c #A58671",
"6+	c #A58573",
"7+	c #A28274",
"8+	c #A18173",
"9+	c #A18174",
"0+	c #A08073",
"a+	c #9E7E73",
"b+	c #9C7C79",
"c+	c #997D7A",
"d+	c #977A79",
"e+	c #917972",
"f+	c #8C736D",
"g+	c #6D8F6E",
"h+	c #619769",
"i+	c #58946B",
"j+	c #50925A",
"k+	c #BEBDAC",
"l+	c #CDE6B2",
"m+	c #C9E6A6",
"n+	c #C9DF9D",
"o+	c #BDC27C",
"p+	c #D9C696",
"q+	c #DECB9A",
"r+	c #BFA87F",
"s+	c #B08C77",
"t+	c #B18B72",
"u+	c #AA8A70",
"v+	c #AB8977",
"w+	c #A98875",
"x+	c #AB8C78",
"y+	c #B59780",
"z+	c #AD8E7C",
"A+	c #A6867C",
"B+	c #98AD81",
"C+	c #84A773",
"D+	c #749B70",
"E+	c #5E9468",
"F+	c #C6DAA9",
"G+	c #C9E6A5",
"H+	c #C5E19D",
"I+	c #AABE7C",
"J+	c #9F9364",
"K+	c #BA9F7D",
"L+	c #C3AB80",
"M+	c #CCBC91",
"N+	c #D7C69A",
"O+	c #C7B686",
"P+	c #C4B585",
"Q+	c #C3B588",
"R+	c #C1B083",
"S+	c #BCA87F",
"T+	c #BA9E78",
"U+	c #AE907A",
"V+	c #B59C82",
"W+	c #C2D58E",
"X+	c #A3C176",
"Y+	c #8CAC6F",
"Z+	c #65986E",
"`+	c #498D66",
" @	c #91A980",
".@	c #C6E4A7",
"+@	c #C8E5A4",
"@@	c #B9D48D",
"#@	c #A4B378",
"$@	c #9A7D63",
"%@	c #947156",
"&@	c #CFBE9A",
"*@	c #EFE5B2",
"=@	c #D8CE98",
"-@	c #CEC48D",
";@	c #CEC48F",
">@	c #CEC48E",
",@	c #CDC08B",
"'@	c #BE9F7A",
")@	c #977161",
"!@	c #A99370",
"~@	c #C4D995",
"{@	c #A5CA7C",
"]@	c #95B371",
"^@	c #769D6D",
"/@	c #578578",
"(@	c #91B07C",
"_@	c #C3E29F",
":@	c #C8E79F",
"<@	c #B6D289",
"[@	c #A6B57D",
"}@	c #937A56",
"|@	c #B29276",
"1@	c #F4E5B8",
"2@	c #E9DAA6",
"3@	c #D1C38A",
"4@	c #CEC489",
"5@	c #CDC28C",
"6@	c #C2AA80",
"7@	c #A4806C",
"8@	c #93805E",
"9@	c #C5DEA0",
"0@	c #ABCC80",
"a@	c #9AB775",
"b@	c #719A6D",
"c@	c #5C8C70",
"d@	c #8FA86E",
"e@	c #BED58C",
"f@	c #C9E39D",
"g@	c #BAD48C",
"h@	c #A4BD7F",
"i@	c #938D54",
"j@	c #A37C5F",
"k@	c #E2D19E",
"l@	c #E2D29E",
"m@	c #D0C38A",
"n@	c #CEC488",
"o@	c #CEC18C",
"p@	c #C2A47E",
"q@	c #A58169",
"r@	c #96995A",
"s@	c #BCD694",
"t@	c #A9C77B",
"u@	c #99B571",
"v@	c #719A68",
"w@	c #56876B",
"x@	c #6F954F",
"y@	c #B1C87D",
"z@	c #C5E29C",
"A@	c #BDD790",
"B@	c #A2C17B",
"C@	c #A09B6A",
"D@	c #926A50",
"E@	c #C09D74",
"F@	c #DAC58F",
"G@	c #D1C389",
"H@	c #D0C288",
"I@	c #CEC48B",
"J@	c #CBB58A",
"K@	c #AE9766",
"L@	c #958E50",
"M@	c #AFB978",
"N@	c #B0CC83",
"O@	c #A9C278",
"P@	c #91AA6F",
"Q@	c #649569",
"R@	c #4C885E",
"S@	c #47714C",
"T@	c #BCC9A7",
"U@	c #99B77F",
"V@	c #8DA55F",
"W@	c #B5CB83",
"X@	c #BFD993",
"Y@	c #A5C67C",
"Z@	c #A4B179",
"`@	c #907E5C",
" #	c #A27A5F",
".#	c #BA946B",
"+#	c #C5AD7D",
"@#	c #D0BC88",
"##	c #CDC187",
"$#	c #CCBF89",
"%#	c #C0AB80",
"&#	c #B08D74",
"*#	c #9B8E5C",
"=#	c #90A042",
"-#	c #BECD8B",
";#	c #ADCA7B",
">#	c #A3BC76",
",#	c #809E6D",
"'#	c #589366",
")#	c #438C49",
"!#	c #5C8A6D",
"~#	c #5A726D",
"{#	c #BCD0A6",
"]#	c #C9E5A7",
"^#	c #ACCE83",
"/#	c #799D57",
"(#	c #AFC27C",
"_#	c #B9D289",
":#	c #ACCD83",
"<#	c #9FC479",
"[#	c #94A870",
"}#	c #8B7954",
"|#	c #A47B63",
"1#	c #B28A6B",
"2#	c #B39075",
"3#	c #B69775",
"4#	c #B09074",
"5#	c #AA8772",
"6#	c #A5816D",
"7#	c #959851",
"8#	c #B6C67D",
"9#	c #B9CF81",
"0#	c #A5C075",
"a#	c #8AA56B",
"b#	c #718E75",
"c#	c #518862",
"d#	c #5C9253",
"e#	c #80A76F",
"f#	c #629275",
"g#	c #BAD79C",
"h#	c #BEDC98",
"i#	c #A5C979",
"j#	c #79A158",
"k#	c #849D5E",
"l#	c #AEC077",
"m#	c #B0CF80",
"n#	c #A9CA7B",
"o#	c #9FBE7B",
"p#	c #97A467",
"q#	c #8B7D4A",
"r#	c #9C8356",
"s#	c #A78470",
"t#	c #A58574",
"u#	c #9E7E6C",
"v#	c #9F836B",
"w#	c #BCC88A",
"x#	c #C5DA94",
"y#	c #A7C476",
"z#	c #92AF6C",
"A#	c #82A271",
"B#	c #60916D",
"C#	c #4B824C",
"D#	c #8CA873",
"E#	c #92AF72",
"F#	c #63976D",
"G#	c #507F5B",
"H#	c #91B26B",
"I#	c #A9C67A",
"J#	c #A3C376",
"K#	c #8CAA69",
"L#	c #568E47",
"M#	c #87A157",
"N#	c #ABBE76",
"O#	c #B4D085",
"P#	c #AECB7E",
"Q#	c #A5C579",
"R#	c #A0B167",
"S#	c #919454",
"T#	c #878858",
"U#	c #889061",
"V#	c #9EA564",
"W#	c #C6D291",
"X#	c #BFD58D",
"Y#	c #B1CF88",
"Z#	c #A3C37D",
"`#	c #90AF71",
" $	c #66976B",
".$	c #498D4E",
"+$	c #689851",
"@$	c #9BB477",
"#$	c #86A86F",
"$$	c #5A9666",
"%$	c #4D8856",
"&$	c #6A9655",
"*$	c #7C9B68",
"=$	c #81A167",
"-$	c #7A9D66",
";$	c #4E8F56",
">$	c #5A873E",
",$	c #809C5B",
"'$	c #A3BB72",
")$	c #B3D085",
"!$	c #A6CA7C",
"~$	c #A6C276",
"{$	c #90A564",
"]$	c #73943D",
"^$	c #69924F",
"/$	c #6A9343",
"($	c #ADC281",
"_$	c #B8D590",
":$	c #ACCE80",
"<$	c #A6C77C",
"[$	c #93B070",
"}$	c #6B9664",
"|$	c #458D4A",
"1$	c #3A882F",
"2$	c #6B995C",
"3$	c #7CA26C",
"4$	c #629665",
"5$	c #49905E",
"6$	c #95AF81",
"7$	c #568D50",
"8$	c #54915A",
"9$	c #4B8E57",
"0$	c #4F8F42",
"a$	c #97A274",
"b$	c #488430",
"c$	c #6D9747",
"d$	c #9AB572",
"e$	c #AEC483",
"f$	c #88A96C",
"g$	c #83A669",
"h$	c #478B3D",
"i$	c #2D8708",
"j$	c #448922",
"k$	c #94B070",
"l$	c #ABC78B",
"m$	c #B0C884",
"n$	c #95B178",
"o$	c #68965F",
"p$	c #3F8938",
"q$	c #4A875D",
"r$	c #4F8C62",
"s$	c #428B46",
"t$	c #479061",
"u$	c #448E56",
"v$	c #3C8439",
"w$	c #377E51",
"x$	c #547647",
"y$	c #477337",
"z$	c #57743F",
"A$	c #426D2D",
"B$	c #418525",
"C$	c #629142",
"D$	c #8CA76D",
"E$	c #589351",
"F$	c #628E5B",
"G$	c #327821",
"H$	c #37702A",
"I$	c #356527",
"J$	c #739658",
"K$	c #749A5F",
"L$	c #8EAB6E",
"M$	c #689564",
"N$	c #35872A",
"O$	c #377B31",
"P$	c #526053",
"Q$	c #347127",
"R$	c #368837",
"S$	c #3A7A31",
"T$	c #8A8A70",
"U$	c #6A8350",
"V$	c #66854D",
"W$	c #3D6D34",
"X$	c #5A614B",
"Y$	c #73865B",
"Z$	c #4B7F3C",
"`$	c #658B53",
" %	c #53794C",
".%	c #3C5C2F",
"                                                                                                    ",
"                                                                                                    ",
"                                                                                                    ",
"                                                                                                    ",
"                                                                                                    ",
"                                                                                                    ",
"                                                                                                    ",
"                                                                                                    ",
"                                                                                                    ",
"                                                                                                    ",
"                                                                                                    ",
"                                                                                                    ",
"                                                                                                    ",
"                                                                                                    ",
"                                                                                                    ",
"                                                                                                    ",
"                                                                                                    ",
"                                                                                                    ",
"                                      . +               @ # $                                       ",
"                                    % & * = -         ; > , ' )                                     ",
"                                  ! ~ { ] ^ / ( _ : < [ } | 1 2 3                                   ",
"                                  4 5 6 7 8 9 0 a b c d e f g h i                                   ",
"                                  j k l m n o p q r s t u v w x y                                   ",
"                                z A B C D E F G H I J K L M N O P                                   ",
"                              Q R S T U V W X Y Z `  ...+.@.#.$.%.&.                                ",
"                              *.a =.-.;.>.,.'.).!.~.{.].^./.(._.:.<.                                ",
"                              [.}.|.1.2.3.4.5.6.7.8.7.9.0.a.b.c.d.e.f.                              ",
"                              g.h.i.j.k.l.m.n.o.p.q.r.s.t.u.v.w.x.y.z.                              ",
"                              A.B.C.D.E.F.G.H.I.J.K.L.M.N.O.P.Q.R.S.T.                              ",
"                              U.V.W.X.Y.Z.`. +.+++@+#+$+%+&+*+=+-+;+                                ",
"                              >+,+'+)+!+~+{+#+]+^+@+/+(+_+:+<+[+}+|+                                ",
"                              1+2+3+4+5+6+7+8+9+0+a+b+c+d+e+f+g+h+i+j+                              ",
"                            k+l+m+n+o+p+q+r+s+t+u+v+w+x+y+z+A+B+C+D+E+                              ",
"                            F+G+H+I+J+K+L+M+N+O+P+Q+R+S+T+U+V+W+X+Y+Z+`+                            ",
"                           @.@+@@@#@$@%@&@*@=@-@-@;@>@,@'@)@!@~@{@]@^@/@                            ",
"                          (@_@:@<@[@}@|@1@2@3@4@4@-@>@5@6@7@8@9@0@a@b@c@                            ",
"                          d@e@f@g@h@i@j@k@l@m@n@n@4@-@o@p@q@r@s@t@u@v@w@                            ",
"                          x@y@z@A@B@C@D@E@F@G@H@n@4@I@J@K@L@M@N@O@P@Q@R@S@                          ",
"                        T@U@V@W@X@Y@Z@`@ #.#+#@###$#%#&#*#=#-#;#>#,#'#)#!#~#                        ",
"                      {#]#^#/#(#_#:#<#[#}#|#1#2#3#4#5#6#7#8#9#0#a#b#c#d#e#f#                        ",
"                      g#h#i#j#k#l#m#n#o#p#q#r#s#5+t#u#v#w#x#y#z#A#B#C#D#E#F#G#                      ",
"                      H#I#J#K#L#M#N#O#P#Q#R#S#T#U#<+V#W#X#Y#Z#`# $.$+$@$#$$$%$                      ",
"                      &$*$=$-$;$>$,$'$)$!$~${$]$^$/$($_$:$<$[$}$|$1$2$3$4$5$                        ",
"                      6$7$8$9$0$a$b$c$d$e$f$g$h$i$j$k$l$m$n$o$p$q$r$s$t$u$v$w$                      ",
"                          x$y$z$  A$B$C$D$E$F$G$H$I$J$K$L$M$N$O$P$  Q$R$S$                          ",
"                                    T$U$V$W$X$      Y$Z$`$ %.%                                      ",
"                                                                                                    ",
"                                                                                                    ",
"                                                                                                    ",
"                                                                                                    "};
