/* XPM */
static char * frog_xpm[] = {
"50 50 220 2",
"  	c None",
". 	c #BEAA79",
"+ 	c #C2B172",
"@ 	c #88A30B",
"# 	c #73861B",
"$ 	c #6B7E1B",
"% 	c #87A30B",
"& 	c #BFB26F",
"* 	c #BFAB77",
"= 	c #282B1B",
"- 	c #AEA186",
"; 	c #F4EBCA",
"> 	c #D9D46F",
", 	c #98B213",
"' 	c #75891E",
") 	c #21280A",
"! 	c #21280C",
"~ 	c #252D12",
"{ 	c #94AF17",
"] 	c #B7CC42",
"^ 	c #F3DEA3",
"/ 	c #E7DEC7",
"( 	c #25261A",
"_ 	c #232713",
": 	c #272726",
"< 	c #CEB686",
"[ 	c #F6DC97",
"} 	c #A6C50B",
"| 	c #A6C609",
"1 	c #A6C610",
"2 	c #A7C70F",
"3 	c #A6C706",
"4 	c #C6CF5A",
"5 	c #F8DB9D",
"6 	c #978969",
"7 	c #282724",
"8 	c #252A12",
"9 	c #606E23",
"0 	c #A6A35F",
"a 	c #E7CB92",
"b 	c #EFD495",
"c 	c #DDD476",
"d 	c #A6C508",
"e 	c #A6C705",
"f 	c #A6C607",
"g 	c #BBCC48",
"h 	c #F3D995",
"i 	c #EDD196",
"j 	c #E6CD93",
"k 	c #616F1A",
"l 	c #819911",
"m 	c #C3CF51",
"n 	c #EAD889",
"o 	c #E1D57B",
"p 	c #A5C706",
"q 	c #A7C606",
"r 	c #A1C10B",
"s 	c #A3C309",
"t 	c #A4C509",
"u 	c #98B50B",
"v 	c #A6C608",
"w 	c #A5C704",
"x 	c #DED578",
"y 	c #E9DA85",
"z 	c #8BA319",
"A 	c #5C6B24",
"B 	c #85A10B",
"C 	c #A6C60C",
"D 	c #A6C704",
"E 	c #9CBB09",
"F 	c #A2C20B",
"G 	c #A2C209",
"H 	c #8AA608",
"I 	c #A5C609",
"J 	c #A5C705",
"K 	c #5E6D22",
"L 	c #5B6A18",
"M 	c #A6C708",
"N 	c #A6C70B",
"O 	c #A6C70C",
"P 	c #89A20D",
"Q 	c #7A8F06",
"R 	c #7A8F07",
"S 	c #98B40D",
"T 	c #A6C60D",
"U 	c #5F720A",
"V 	c #5B6A19",
"W 	c #829B0A",
"X 	c #404D04",
"Y 	c #414C03",
"Z 	c #DCCE8F",
"` 	c #404D03",
" .	c #788E0C",
"..	c #5D6F07",
"+.	c #5B6C15",
"@.	c #A7C410",
"#.	c #D5C889",
"$.	c #D9CB8C",
"%.	c #948F13",
"&.	c #5B7009",
"*.	c #5B6921",
"=.	c #9DB211",
"-.	c #D1C485",
";.	c #C2B477",
">.	c #DACC8D",
",.	c #D7C98A",
"'.	c #D5C788",
").	c #D4C688",
"!.	c #5C7122",
"~.	c #DBCD8E",
"{.	c #D2C586",
"].	c #D8CA8B",
"^.	c #262C13",
"/.	c #889D11",
"(.	c #A9C212",
"_.	c #AAC129",
":.	c #B4B627",
"<.	c #BFB20C",
"[.	c #A9C210",
"}.	c #A8C313",
"|.	c #8FA714",
"1.	c #526109",
"2.	c #667722",
"3.	c #697C14",
"4.	c #768B0A",
"5.	c #849E11",
"6.	c #94B10F",
"7.	c #AEBF25",
"8.	c #CABD7F",
"9.	c #D7CA8B",
"0.	c #CD9F06",
"a.	c #A5C70A",
"b.	c #88A311",
"c.	c #849D0B",
"d.	c #6B7F17",
"e.	c #66771E",
"f.	c #9AB80E",
"g.	c #A4C40A",
"h.	c #99B416",
"i.	c #859F11",
"j.	c #A7C505",
"k.	c #91AF0D",
"l.	c #819B0E",
"m.	c #A4C30A",
"n.	c #9DBC0B",
"o.	c #5E6C22",
"p.	c #586811",
"q.	c #A0BF07",
"r.	c #9AB706",
"s.	c #424E06",
"t.	c #A6C60B",
"u.	c #A8C307",
"v.	c #D3C587",
"w.	c #D1C486",
"x.	c #D4C789",
"y.	c #BC8A0A",
"z.	c #A9C50B",
"A.	c #8CA80A",
"B.	c #99B513",
"C.	c #A2C207",
"D.	c #839B12",
"E.	c #1B2202",
"F.	c #45510A",
"G.	c #839B09",
"H.	c #7F9706",
"I.	c #343E07",
"J.	c #96B40B",
"K.	c #B3A40C",
"L.	c #D6C889",
"M.	c #9FB711",
"N.	c #738908",
"O.	c #7E940C",
"P.	c #869E07",
"Q.	c #637509",
"R.	c #1D2400",
"S.	c #5B6C07",
"T.	c #5B6C03",
"U.	c #222904",
"V.	c #657807",
"W.	c #687702",
"X.	c #6C7302",
"Y.	c #657803",
"Z.	c #536304",
"`.	c #5A6B08",
" +	c #5D6F04",
".+	c #2E3319",
"++	c #48531C",
"@+	c #444F08",
"#+	c #394305",
"$+	c #49550B",
"%+	c #576906",
"&+	c #756F03",
"*+	c #B59A65",
"=+	c #846705",
"-+	c #5A6D04",
";+	c #4D5A09",
">+	c #3B4605",
",+	c #434F09",
"'+	c #485314",
")+	c #56650E",
"!+	c #5B6C04",
"~+	c #5B6C06",
"{+	c #373F11",
"]+	c #343B16",
"^+	c #566606",
"/+	c #596D04",
"(+	c #596C04",
"_+	c #4D5A15",
":+	c #4A311D",
"<+	c #4D301D",
"[+	c #4E311E",
"}+	c #4C311C",
"|+	c #4B551C",
"1+	c #5A6C05",
"2+	c #586806",
"3+	c #3D4706",
"4+	c #373E17",
"5+	c #485505",
"6+	c #566607",
"7+	c #282D13",
"                                                                                                    ",
"                                                                                                    ",
"                                                                                                    ",
"                                                                                                    ",
"                                                                                                    ",
"                                                                                                    ",
"                                                                                                    ",
"                                                                                                    ",
"                                                                                                    ",
"                                                                                                    ",
"                                                                                                    ",
"                                                                                                    ",
"                                                                                                    ",
"                                                                                                    ",
"                                                                                                    ",
"                                      . + @ #         $ % & *                                       ",
"                                    = - ; > , ' ) ! ~ { ] ^ / (                                     ",
"                                    _ : < [ } | 1 1 2 3 4 5 6 7 8                                   ",
"                                  9 0 a b c d e 3 3 f 3 g h i j k                                   ",
"                                  l m n o p q r s t u v w x n y z A                                 ",
"                                B C D 3 w p e E F G H I J e e 3 3 E K                               ",
"                              L 3 M N O P Q Q R R R R Q Q R S T M e U                               ",
"                              V e W X Y Z Z Z Z Z Z Z Z Z Z Z `  .v ..                              ",
"                              +.@.Z Z Z Z Z Z Z Z Z #.Z Z $.$.Z Z %.&.                              ",
"                              *.=.Z Z Z -.;.Z Z Z Z #.Z >.,.'.).Z Z !.                              ",
"                                  Z ~.,.Z Z Z >.Z Z Z Z {.{.].).Z Z                                 ",
"                                  Z ~.,.Z Z >.).Z Z Z Z Z Z Z Z Z Z                                 ",
"                                ^./.(._.:.Z Z Z Z Z Z Z Z <.[.}.|.1.                                ",
"                            2.3.4.5.6.7.$.Z Z Z Z Z Z 8.9.Z 0.a.b.c.d.e.                            ",
"                            f.g.h.i.3 Z #.Z Z Z >.).>.Z ~.~.Z j.k.l.m.n.o.                          ",
"                          p.q.r.s.t.u.$.v.Z w.x.~.>.).>.-.,.Z y.z.A.B.C.D.E.                        ",
"                          F.G.H.I.J.K.$.$.Z Z L.L.Z Z Z #.Z Z Z M.N.O.P.Q.R.                        ",
"                            S.T.U.V.W.Z Z Z Z '.,.Z Z ~.,.Z Z X.Y.Z.`. +.+                          ",
"                            ++@+#+$+%+&+Z *+Z #.Z Z Z ~.,.Z =+-+;+>+,+'+                            ",
"                            )+!+~+{+]+^+/+(+_+:+<+[+}+|+1+/+2+3+4+5+!+6+7+                          ",
"                                                                                                    ",
"                                                                                                    ",
"                                                                                                    ",
"                                                                                                    ",
"                                                                                                    ",
"                                                                                                    ",
"                                                                                                    ",
"                                                                                                    ",
"                                                                                                    ",
"                                                                                                    ",
"                                                                                                    ",
"                                                                                                    ",
"                                                                                                    ",
"                                                                                                    ",
"                                                                                                    "};
