/* XPM */
static char * frog_xpm[] = {
"50 50 206 2",
"  	c None",
". 	c #64C74F",
"+ 	c #63C74D",
"@ 	c #40894A",
"# 	c #3E8948",
"$ 	c #428A4D",
"% 	c #66C655",
"& 	c #49913D",
"* 	c #3F7E37",
"= 	c #3F7D37",
"- 	c #65C058",
"; 	c #418A4C",
"> 	c #397E43",
", 	c #2A5635",
"' 	c #366B41",
") 	c #77BC4D",
"! 	c #6BC34D",
"~ 	c #61C44C",
"{ 	c #5BB748",
"] 	c #305C2F",
"^ 	c #181425",
"/ 	c #160724",
"( 	c #58B246",
"_ 	c #5DB94B",
": 	c #628549",
"< 	c #509149",
"[ 	c #3D8241",
"} 	c #295534",
"| 	c #B86E50",
"1 	c #8AAD4E",
"2 	c #5AB447",
"3 	c #160324",
"4 	c #181225",
"5 	c #170B25",
"6 	c #478E3C",
"7 	c #9A9E4F",
"8 	c #B86F50",
"9 	c #B96F50",
"0 	c #85B24E",
"a 	c #56AD45",
"b 	c #181325",
"c 	c #171025",
"d 	c #170F25",
"e 	c #478F3C",
"f 	c #76BC4D",
"g 	c #83B34E",
"h 	c #6EC14D",
"i 	c #60C04B",
"j 	c #56AC44",
"k 	c #28492B",
"l 	c #A88C4F",
"m 	c #82B44E",
"n 	c #5CB949",
"o 	c #376B32",
"p 	c #213628",
"q 	c #171125",
"r 	c #356832",
"s 	c #4F9F41",
"t 	c #63C84D",
"u 	c #346936",
"v 	c #254930",
"w 	c #336331",
"x 	c #150024",
"y 	c #60C14B",
"z 	c #459449",
"A 	c #5BB848",
"B 	c #59B347",
"C 	c #62C64D",
"D 	c #57B34B",
"E 	c #489A49",
"F 	c #377D46",
"G 	c #2C6743",
"H 	c #40894B",
"I 	c #86B14E",
"J 	c #6CC34D",
"K 	c #59B64B",
"L 	c #4CA14A",
"M 	c #3E8747",
"N 	c #347745",
"O 	c #2F6D44",
"P 	c #3E8848",
"Q 	c #498C56",
"R 	c #64C753",
"S 	c #7BB94E",
"T 	c #B96D50",
"U 	c #7CB94E",
"V 	c #62C74C",
"W 	c #60C64B",
"X 	c #398846",
"Y 	c #236342",
"Z 	c #2B7144",
"` 	c #3A8947",
" .	c #468B51",
"..	c #B87052",
"+.	c #91A84F",
"@.	c #67C54D",
"#.	c #73BE4D",
"$.	c #ACCC7E",
"%.	c #DED2A1",
"&.	c #DCCCA1",
"*.	c #D7A676",
"=.	c #D6A06D",
"-.	c #D7A36E",
";.	c #498A49",
">.	c #9E9A4F",
",.	c #A5CC7A",
"'.	c #CBD094",
").	c #EAD4AA",
"!.	c #E5AE7C",
"~.	c #E4A672",
"{.	c #9E965C",
"].	c #9C955D",
"^.	c #60C74B",
"/.	c #E4D3A6",
"(.	c #E3A674",
"_.	c #63C74E",
":.	c #E0A678",
"<.	c #7ABA4E",
"[.	c #91A74E",
"}.	c #76AB4D",
"|.	c #56B14B",
"1.	c #5AB84C",
"2.	c #58B44B",
"3.	c #E4A673",
"4.	c #64C750",
"5.	c #90A84E",
"6.	c #8A7D4C",
"7.	c #418D48",
"8.	c #4EA34A",
"9.	c #479849",
"0.	c #EAD4AB",
"a.	c #93A44E",
"b.	c #61C34D",
"c.	c #3F8A48",
"d.	c #60C74C",
"e.	c #DEAA72",
"f.	c #E4A874",
"g.	c #C07B57",
"h.	c #987C4E",
"i.	c #4A8A4A",
"j.	c #7CB84E",
"k.	c #96A24F",
"l.	c #7FB64E",
"m.	c #62C54D",
"n.	c #52AB4A",
"o.	c #469749",
"p.	c #8CAC4E",
"q.	c #94A44E",
"r.	c #E0A670",
"s.	c #9E8453",
"t.	c #75824B",
"u.	c #65C64D",
"v.	c #AA884F",
"w.	c #B76E50",
"x.	c #E1A370",
"y.	c #E5A672",
"z.	c #6E8D50",
"A.	c #3F8848",
"B.	c #72BF4D",
"C.	c #8B5845",
"D.	c #733E39",
"E.	c #93A54E",
"F.	c #6AC34D",
"G.	c #52AA4A",
"H.	c #469649",
"I.	c #92A54E",
"J.	c #ADB75F",
"K.	c #CAB069",
"L.	c #733D39",
"M.	c #4D8A56",
"N.	c #68C750",
"O.	c #6FC854",
"P.	c #418E48",
"Q.	c #4A8D4D",
"R.	c #518D50",
"S.	c #408748",
"T.	c #4A9649",
"U.	c #67C750",
"V.	c #64C74E",
"W.	c #B0B963",
"X.	c #E4A875",
"Y.	c #E3A672",
"Z.	c #E0A571",
"`.	c #895B45",
" +	c #76453B",
".+	c #7C473D",
"++	c #418848",
"@+	c #558C53",
"#+	c #AFCD80",
"$+	c #EBD4AB",
"%+	c #68C850",
"&+	c #BACE88",
"*+	c #E5D1A7",
"=+	c #64623F",
"-+	c #6B533C",
";+	c #3D8848",
">+	c #5DBC4C",
",+	c #ECD4AB",
"'+	c #73C857",
")+	c #B4CD84",
"!+	c #C89F69",
"~+	c #3D8948",
"{+	c #A0965C",
"]+	c #E5A773",
"^+	c #4B8A4A",
"/+	c #AD9960",
"                                                                                                    ",
"                                                                                                    ",
"                                                                                                    ",
"                                                                                                    ",
"                                                                                                    ",
"                                                                                                    ",
"                                                                                                    ",
"                                                                                                    ",
"                                                                                                    ",
"                                                                                                    ",
"                                                                                                    ",
"                                                                                                    ",
"                                                                                                    ",
"                                    . + + + + +               @ # # # $                             ",
"                                  % + + + & * = -           ; ; > , , ' ;                           ",
"                                  ) ! ~ { ] ^ / ( _         : < [ ^ ^ } >                           ",
"                                  | 1 2 3 4 ^ ^ 5 6 + + 7 8 9 0 a b ^ b c                           ",
"                                  8 1 2 d ^ ^ ^ ^ e + + f g g h i j k ^ ^                           ",
"                                  l m n o p ^ q r s + + + + + + + t u v v                           ",
"                                  + + + + w d x y + + + + + + + + + z # #                           ",
"                                  + + + + A B B C D E + + + + + + + z F G H                         ",
"                                  + + ! I J + + + K L K K K K K K K M N O P Q                       ",
"                              R + + + S T U + + + V W X X X X X X X Y Z ` #  .                      ",
"                            ..+.+ + + @.#.@.+ + + $.%.&.&.&.&.&.&.&.*.=.-.;.@                       ",
"                            >.g + + + + + + + V ,.'.).).).).).).).).!.~.~.{.].                      ",
"                          + + + + + + + + + + ^./.).).).).).).).).).!.~.~.~.(.                      ",
"                      . _.+ + + + + + + + + + ^./.).).).).).).).).).!.~.~.~.:.                      ",
"                      _.<.[.[.}.|.+ 1.2.+ + + ^./.).).).).).).).).).!.~.~.3.                        ",
"                      4.5.8 8 6.7.t 8.9.+ + + ^./.).).).).).).).).0.!.~.~.                          ",
"                    _.+ 5.8 8 a.b.c.c.9.+ + + d.e.f.f.f.f.f.f.f.f.f.g.h.i.                          ",
"                    + + j.k.k.l.m.n.o.9.+ p.q.a.r.~.~.~.~.~.~.~.~.~.s.t.#                           ",
"                    u.+ + + + + + + 8.9.+ v.8 w.x.~.~.~.~.~.~.~.~.y.z.A.A.                          ",
"                    | B.+ + + + + + 8.9.+ v.8 w.x.~.~.~.~.~.~.~.~.y.C.D.D.                          ",
"                    E.F.+ + G.G.G.G.H.9.+ 1 E.I.J.K.~.~.~.~.~.~.~.y.C.D.L.M.                        ",
"                    + + N.O.P.Q.R.# S.T.m.+ U.O.V.W.X.~.~.~.~.~.Y.Z.`. +.+++@+                      ",
"                      . #+$+%+&+*+X =+-+;+>+,.,+'+)+).~.~.~.~.~.!+` ~+{+]+^+/+~.                    ",
"                                                                                                    ",
"                                                                                                    ",
"                                                                                                    ",
"                                                                                                    ",
"                                                                                                    ",
"                                                                                                    ",
"                                                                                                    ",
"                                                                                                    ",
"                                                                                                    ",
"                                                                                                    ",
"                                                                                                    ",
"                                                                                                    ",
"                                                                                                    ",
"                                                                                                    "};
