/* XPM */
static char * frog_xpm[] = {
"50 50 456 2",
"  	c None",
". 	c #7D876A",
"+ 	c #A4B285",
"@ 	c #ADBC8B",
"# 	c #A5B588",
"$ 	c #A1B183",
"% 	c #9CAD7E",
"& 	c #92A776",
"* 	c #8EA173",
"= 	c #BFD098",
"- 	c #DFF3AF",
"; 	c #D0E7A9",
"> 	c #C8E0A0",
", 	c #C0D897",
"' 	c #ABCC85",
") 	c #9BB47B",
"! 	c #9FBA7D",
"~ 	c #A9C585",
"{ 	c #B7CE91",
"] 	c #93A276",
"^ 	c #70785F",
"/ 	c #6B745D",
"( 	c #9DAF7E",
"_ 	c #BDD694",
": 	c #B4CF8D",
"< 	c #A5C381",
"[ 	c #889870",
"} 	c #A9C485",
"| 	c #AFCB8A",
"1 	c #A4B882",
"2 	c #A4AC97",
"3 	c #A3A3A3",
"4 	c #A4AE94",
"5 	c #C0D797",
"6 	c #B8D390",
"7 	c #95AC78",
"8 	c #8DA073",
"9 	c #98A87B",
"0 	c #92A477",
"a 	c #8EA274",
"b 	c #8A9C71",
"c 	c #B5CB8F",
"d 	c #AFC58B",
"e 	c #424242",
"f 	c #CECECE",
"g 	c #FFFFFF",
"h 	c #C0C0C0",
"i 	c #BFD696",
"j 	c #A3C080",
"k 	c #8E9C75",
"l 	c #B4D18D",
"m 	c #96AE78",
"n 	c #9DAC81",
"o 	c #C3D89F",
"p 	c #C1D899",
"q 	c #98C374",
"r 	c #8EB66E",
"s 	c #BDD399",
"t 	c #C2D89D",
"u 	c #BED795",
"v 	c #BCD694",
"w 	c #B0CB8A",
"x 	c #89B469",
"y 	c #84A669",
"z 	c #9CAC80",
"A 	c #C9E2A2",
"B 	c #C2DA99",
"C 	c #B3C98D",
"D 	c #6C775C",
"E 	c #C2C5C0",
"F 	c #E8E8E8",
"G 	c #B8BBB4",
"H 	c #BBD493",
"I 	c #B3D18C",
"J 	c #A5C980",
"K 	c #91C06D",
"L 	c #88B468",
"M 	c #92A07A",
"N 	c #9DB27F",
"O 	c #B0CF89",
"P 	c #C7E0A0",
"Q 	c #C7DEA1",
"R 	c #B0C58B",
"S 	c #93C06F",
"T 	c #8AAC6D",
"U 	c #88976F",
"V 	c #93A476",
"W 	c #9FC67A",
"X 	c #8BBD68",
"Y 	c #7D8669",
"Z 	c #C6DBA1",
"` 	c #CBE2A3",
" .	c #474945",
"..	c #8A9B71",
"+.	c #93A977",
"@.	c #B8CF91",
"#.	c #ACC188",
"$.	c #9DAF7D",
"%.	c #A9C185",
"&.	c #9AC475",
"*.	c #91B670",
"=.	c #83A069",
"-.	c #829B69",
";.	c #7C8669",
">.	c #96A67A",
",.	c #A9BD87",
"'.	c #C2D99B",
").	c #C4DC9C",
"!.	c #96A778",
"~.	c #9AA489",
"{.	c #CDCDCD",
"].	c #A7BB85",
"^.	c #87966F",
"/.	c #7F8A6C",
"(.	c #B6D28F",
"_.	c #8DBE6A",
":.	c #87AB6A",
"<.	c #7F896B",
"[.	c #808A6C",
"}.	c #7F8A6B",
"|.	c #9DAE7F",
"1.	c #6D775C",
"2.	c #888888",
"3.	c #FDFDFD",
"4.	c #CAE1A2",
"5.	c #CDE4A6",
"6.	c #D3EAAA",
"7.	c #D5EBAB",
"8.	c #D2E9AA",
"9.	c #CDE3A1",
"0.	c #B8D091",
"a.	c #C8DF9D",
"b.	c #D0E6A4",
"c.	c #CCE3A3",
"d.	c #D8EDAC",
"e.	c #CEE4A4",
"f.	c #CAE1A1",
"g.	c #CBE2A2",
"h.	c #B6D28E",
"i.	c #BED796",
"j.	c #9DB07E",
"k.	c #9DAA8A",
"l.	c #BFC0BF",
"m.	c #A6BD83",
"n.	c #9CC578",
"o.	c #84966D",
"p.	c #C1D997",
"q.	c #C7DE9F",
"r.	c #C3DB9B",
"s.	c #C5DD9D",
"t.	c #80946A",
"u.	c #A4C281",
"v.	c #B2CF8B",
"w.	c #DEF2AE",
"x.	c #D3E8A6",
"y.	c #CDE4A5",
"z.	c #99D08D",
"A.	c #AAD994",
"B.	c #CEE4A3",
"C.	c #C9E1A1",
"D.	c #C8DFA0",
"E.	c #C7DE9E",
"F.	c #B2D08B",
"G.	c #9FC67B",
"H.	c #95BB74",
"I.	c #86AA69",
"J.	c #80936A",
"K.	c #7C876A",
"L.	c #86E19D",
"M.	c #9DE6A0",
"N.	c #8CBD69",
"O.	c #81B583",
"P.	c #86DD9B",
"Q.	c #94F1AD",
"R.	c #9BF3AF",
"S.	c #A3F0AE",
"T.	c #BADD9C",
"U.	c #C1D999",
"V.	c #C1D998",
"W.	c #AFCE89",
"X.	c #92C06F",
"Y.	c #80956A",
"Z.	c #83BA87",
"`.	c #8CEFA7",
" +	c #95F3AF",
".+	c #98F5B1",
"++	c #9AF6B3",
"@+	c #B9DF9D",
"#+	c #C3DB9A",
"$+	c #C2DA9A",
"%+	c #BFD998",
"&+	c #ADD893",
"*+	c #A5D38C",
"=+	c #A1D087",
"-+	c #95C279",
";+	c #7D886A",
">+	c #89BE8D",
",+	c #8BEEA7",
"'+	c #8EF0A9",
")+	c #CEE5A6",
"!+	c #90F1AA",
"~+	c #88EDA4",
"{+	c #71DE8F",
"]+	c #77B97E",
"^+	c #85BF8B",
"/+	c #8ACC94",
"(+	c #BFD797",
"_+	c #A1B382",
":+	c #C6DD9D",
"<+	c #CCE3A1",
"[+	c #D5EBA8",
"}+	c #C8DF9F",
"|+	c #C4DB9B",
"1+	c #ADE9A7",
"2+	c #A5EFAC",
"3+	c #97F4B0",
"4+	c #94F3AE",
"5+	c #81E89D",
"6+	c #7BD892",
"7+	c #75C784",
"8+	c #7D896B",
"9+	c #86B185",
"0+	c #89BC8C",
"a+	c #96E9AA",
"b+	c #B1D497",
"c+	c #B7CD91",
"d+	c #94A17E",
"e+	c #9CAB82",
"f+	c #BDD595",
"g+	c #CBE2A0",
"h+	c #DAEFAB",
"i+	c #C5DC9B",
"j+	c #BEDA99",
"k+	c #BBDD9C",
"l+	c #A1F1AF",
"m+	c #75E093",
"n+	c #91D9A0",
"o+	c #808A6D",
"p+	c #E4F9C4",
"q+	c #D4E7B6",
"r+	c #ADC28A",
"s+	c #B5E3A1",
"t+	c #91F2AC",
"u+	c #7D8A6B",
"v+	c #AAECB0",
"w+	c #C4D7A8",
"x+	c #C4D5A8",
"y+	c #C3D5A8",
"z+	c #C4D6A8",
"A+	c #DEF2BF",
"B+	c #ABBC8E",
"C+	c #97ECAC",
"D+	c #8DDE9F",
"E+	c #76C283",
"F+	c #78B37C",
"G+	c #8ABE8D",
"H+	c #B7F8B9",
"I+	c #E5FBC5",
"J+	c #A8B790",
"K+	c #7D866A",
"L+	c #95E5A7",
"M+	c #84CC90",
"N+	c #76C182",
"O+	c #82B985",
"P+	c #DAF9C1",
"Q+	c #E5FAC5",
"R+	c #838D6F",
"S+	c #818A6D",
"T+	c #84A67D",
"U+	c #8DB482",
"V+	c #A1E59F",
"W+	c #DCF7C0",
"X+	c #E4FAC5",
"Y+	c #B2C298",
"Z+	c #B1C198",
"`+	c #B0BF96",
" @	c #A4BF93",
".@	c #8DCB96",
"+@	c #8CD494",
"@@	c #86956F",
"#@	c #DFF4BE",
"$@	c #CFF8BF",
"%@	c #97E098",
"&@	c #A2B386",
"*@	c #CCE3A5",
"=@	c #E0F6C0",
"-@	c #E1F9C3",
";@	c #AAF7B6",
">@	c #BADE9E",
",@	c #B4D794",
"'@	c #9EAE83",
")@	c #B8CC97",
"!@	c #DEF3BE",
"~@	c #C1F7BB",
"{@	c #B2F7B8",
"]@	c #A8EDAA",
"^@	c #C1DA9B",
"/@	c #BBD695",
"(@	c #8DA871",
"_@	c #819A69",
":@	c #D8EBB9",
"<@	c #E6FBC6",
"[@	c #D8F8C1",
"}@	c #AEE8A6",
"|@	c #CCE3AF",
"1@	c #DBF3BC",
"2@	c #E2F9C3",
"3@	c #D7F8C1",
"4@	c #CCE9AD",
"5@	c #BAD492",
"6@	c #93C170",
"7@	c #C8E1AC",
"8@	c #D9F1BA",
"9@	c #E1F7C1",
"0@	c #D1E8AE",
"a@	c #B5D28E",
"b@	c #D3EDB5",
"c@	c #CAE3A7",
"d@	c #A4B68C",
"e@	c #BED1A3",
"f@	c #DEF5BF",
"g@	c #DAF2BB",
"h@	c #C7E3A7",
"i@	c #B3CA95",
"j@	c #92A876",
"k@	c #A3BB81",
"l@	c #AECE87",
"m@	c #D2ECB4",
"n@	c #BDDA9C",
"o@	c #A2B887",
"p@	c #9DAF7F",
"q@	c #A3C180",
"r@	c #A0B289",
"s@	c #B7C792",
"t@	c #829C69",
"u@	c #DFF5C0",
"v@	c #DCF3BD",
"w@	c #B8CF9C",
"x@	c #C4D79B",
"y@	c #B1CF8A",
"z@	c #889F6F",
"A@	c #A7B98F",
"B@	c #9FAF83",
"C@	c #D3ECB3",
"D@	c #D7F0B8",
"E@	c #DEF4BE",
"F@	c #E1F7C2",
"G@	c #DEF3BC",
"H@	c #D0E7AA",
"I@	c #95A37C",
"J@	c #96A580",
"K@	c #9CAB80",
"L@	c #C9E0A2",
"M@	c #CBE4A8",
"N@	c #CEE7AC",
"O@	c #D6EDB6",
"P@	c #DDF4BE",
"Q@	c #D6EFB8",
"R@	c #D7EDB5",
"S@	c #D2E9AE",
"T@	c #919F78",
"U@	c #91A07B",
"V@	c #CBE6AC",
"W@	c #A2B58A",
"X@	c #A9CB83",
"Y@	c #8A9F70",
"Z@	c #97A77B",
"`@	c #BED696",
" #	c #C0D998",
".#	c #BEDB9D",
"+#	c #C6DE9F",
"@#	c #8D9D77",
"##	c #9CAF82",
"$#	c #9DAD82",
"%#	c #B6D38F",
"&#	c #A9C685",
"*#	c #B2C995",
"=#	c #C7E2A6",
"-#	c #D5EEB7",
";#	c #C9E5AA",
">#	c #C3DFA2",
",#	c #94A37E",
"'#	c #B9CB9F",
")#	c #BBD593",
"!#	c #899971",
"~#	c #B8D398",
"{#	c #B3CD94",
"]#	c #A0B87F",
"^#	c #9BBF79",
"/#	c #9EB97D",
"(#	c #B3D28D",
"_#	c #A0B585",
":#	c #B4CE95",
"<#	c #CFE9B0",
"[#	c #D0EAB1",
"}#	c #C5E1A5",
"|#	c #B9D491",
"1#	c #889970",
"2#	c #8E9D77",
"3#	c #99B07C",
"4#	c #A0C57B",
"5#	c #A7C985",
"6#	c #ACC98B",
"7#	c #A2B787",
"8#	c #AACB85",
"9#	c #BCD2A1",
"0#	c #9AAA7E",
"a#	c #B1D08A",
"b#	c #97A97E",
"c#	c #A2B687",
"d#	c #C4E0A4",
"e#	c #A8B98D",
"f#	c #D7EDB3",
"g#	c #8B9974",
"h#	c #89A070",
"i#	c #88A26E",
"j#	c #C3DDA5",
"k#	c #96A77A",
"l#	c #9FBF7D",
"m#	c #8D9C76",
"n#	c #B6D096",
"o#	c #B6D196",
"p#	c #A3B486",
"q#	c #C0D997",
"r#	c #A6CA81",
"s#	c #87986F",
"t#	c #8B9A75",
"u#	c #B5D096",
"v#	c #889671",
"w#	c #8B9873",
"x#	c #8E9B78",
"y#	c #909E7B",
"z#	c #97AA7F",
"A#	c #B2D28E",
"B#	c #C1DCA3",
"C#	c #C0D7A5",
"D#	c #7C8769",
"E#	c #AFCE88",
"F#	c #A1C77D",
"G#	c #8BBD69",
"H#	c #7E896B",
"I#	c #D0E6AB",
"J#	c #899A71",
"K#	c #86A16C",
"L#	c #829D69",
"M#	c #91A177",
"N#	c #93A877",
"O#	c #8DA472",
"P#	c #829F6A",
"Q#	c #7F916A",
"R#	c #91A775",
"S#	c #97AA7A",
"T#	c #A4B589",
"U#	c #A8BA90",
"V#	c #A6B98E",
"W#	c #7C866A",
"                  . . . . . . .                                                                     ",
"                  + @ # $ % & *                                                                     ",
"            . . . = - ; > , ' ) .                                                                   ",
"          . ! ~ { ] ^ / ( , _ : < [ .                             . . . .                           ",
"          . } | 1 2 3 3 4 1 5 6 ' 7 8                             9 0 a a b                         ",
"          . c d e f g g h e i 6 ' ' j .                     . . k , l ' ' m . . .                   ",
"      . n o p d e f g g h e i 6 ' q r .                 . 8 j s t , u v v w j x y .                 ",
"      . z A B C D E F F G D H I J K L .                 M N O P Q d d R , 6 O S T .                 ",
"      . a ' v , , U e e V , ' W X X L Y               . Z ` , , d e e  ., , , ' ) .                 ",
"        ..+.@., , #.$.$.%.l &.*.=.=.-.. ;.;.. . . . >.,.'.)., !.~.f f {.U ]., ' < ) ^.              ",
"          /.c , , , , , (.' _.:.<././.[.<.<.[.}.<.<.|., , , , 1.2.g g 3.e V , ' ' ' [ .             ",
"          . c , , , , , , , ; 4., 5.6.- 7.8.- 9., , 6 ' _ , , 1.2.g g 3.e V , ' ' ' [ .             ",
"        b m 0., , , , , a.b.> > > > c.d.e.f.b.g.> , v h.i., , j.k.h h l.V m.h.' J n.o..             ",
"      . a ' v , , , , , b.- p.q.; r.r.; s., , 4.; , , , , , , , d e e  ., h.' ' W X t..             ",
"    . u.v., , , , , , ; > p.w.x., y.y., ` 5., , , , , , , , , , , i i i , h.' ' W X t..             ",
"    . z.A., , , , , , 4.s., x.B.q.C.D., E.> , , , , , , , , , , , , , , 6 F.' G.H.I.J.              ",
"    K.L.M., , , , , , , , , , q.; r., , , , , , , , , , , , , , , , , , ' ' ' N.I..                 ",
". O.P.Q.R.S.T., , , , , , , , U.r.V., , , , , , , , , , , , , , , , (.W.' W X.Y.J.                  ",
". Z.`. +.+++@+, , , , , , , , , , , , , , , , , , r.B , #+$+, , %+@+&+*+=+-+L ;+                    ",
". >+++,+'+++@+, , , , , , , , , , , , , , , , , , ; 4., )+` , , @+++!+~+{+]+.                       ",
". >+++^+/+++@+, , , (+9 9 9 9 9 9 9 _+, , , , , , :+<+[+}+|+, 1+2+++3+4+5+6+7+8+                    ",
". >+++9+0+a+b+{ { { c+d+d+d+d+d+d+d+e+{ f+, , , , , g+h+i+j+k+l+++++++++,+5+m+8+.                   ",
". >+++++n+. . . . . o+p+p+p+p+p+p+p+q+. r+, , , , , , , , s+++++++++++++++t+~+u+.                   ",
". >+++++v+w+x+y+y+y+z+p+p+p+p+p+p+p+A+y+B+% % % % , , , , s+++++C+>+D+!+++t+~+E+F+.                 ",
". G+++++H+I+p+p+p+p+p+p+p+p+p+p+p+p+p+p+J+. . . K+, , , , s+++++L+. M+~+++t+~+{+N+.                 ",
". O+~+P+Q+p+p+p+p+p+p+p+p+p+p+p+p+p+p+p+p+p+p+p+p+R+S+. . . . . T+++++++++++++~+M+.                 ",
". U+V+W+X+p+p+p+p+p+p+p+p+p+p+p+p+p+p+p+p+p+p+p+p+Y+Z+`+`+ @>+>+.@++++++++++++~++@& @@              ",
". % , #@p+p+p+p+p+p+p+p+p+p+p+p+p+p+p+p+p+p+p+p+p+p+p+p+p+$@++++++++++++++++++~+%@' [ .             ",
". &@*@=@p+p+p+p+p+p+p+p+p+p+p+p+p+p+p+p+p+p+p+p+p+p+p+p+p+-@P+;@++++++++++++++>@,@' [ .             ",
". '@)@!@p+p+p+p+p+p+Q+p+p+p+p+p+p+p+p+p+p+p+p+p+p+p+p+p+p+p+p+~@{@++++++++l+]@^@/@F.(@_@            ",
"    . :@p+p+p+p+p+Q+<@p+p+p+p+p+p+p+p+p+p+p+p+p+p+p+p+p+p+p+p+p+[@++++++++}@, , , , q L .           ",
"    . |@1@p+p+p+p+p+p+p+p+p+p+p+p+p+p+p+p+p+p+p+p+p+p+p+p+p+p+p+2@3@3@3@3@4@, , 5@O 6@L .           ",
"    . 7@8@p+p+p+p+p+p+p+p+p+p+p+p+p+p+p+p+p+p+p+p+p+p+p+p+p+p+p+p+p+p+p+9@0@, v a@' q r .           ",
"    . 7@8@p+p+p+p+p+p+p+p+p+p+p+p+p+p+p+p+p+p+p+p+p+p+p+p+p+p+p+p+p+p+p+b@c@, ' ' ' ' j .           ",
"      d@e@p+p+p+p+p+p+p+p+p+p+p+p+p+p+p+p+p+p+p+p+p+p+p+p+p+p+p+p+p+f@g@h@i@|.j@k@6 l@j .           ",
"      . J+p+p+p+p+p+p+p+p+p+p+p+p+p+p+p+p+p+p+p+p+p+p+p+p+p+p+p+p+p+g@m@n@o@[.<.p@, O q@;+          ",
"      . r@b@9@p+p+p+p+p+p+p+p+p+p+p+p+p+p+p+p+p+p+p+p+p+p+p+p+p+9@b@h@n@. s@- p., , O J X t@.       ",
"      . r@b@9@p+p+p+p+p+p+p+p+p+p+p+p+p+p+p+p+u@v@p+p+p+p+p+p+p+9@b@w@o@s@x@b.> s., 6 y@n.z@.       ",
"      . r@b@9@p+p+p+p+p+p+p+p+p+p+p+p+p+p+p+p+g@b@p+p+p+p+p+p+p+9@b@A@[.- b., ; 4., , v ' a .       ",
"      . B@; C@D@p+p+p+p+p+p+p+p+p+p+p+p+8@b@b@b@b@p+E@b@F@G@H@I@J@b@A@<.p.> ; V., , O ' ' a .       ",
"      . K@L@M@N@O@E@p+p+p+p+p+F@P@P@P@P@Q@b@b@b@b@P@v@g@R@S@4.T@U@V@W@<., s.4., _ 6 l@X@W Y@.       ",
"      . Z@`@,  #.#O@p+p+p+p+p+P@b@b@b@b@b@b@b@b@b@b@g@p++#, , k @#.###<., , , , 6 ' ' J X -.K+      ",
"      . $#y.%#&#@#*#=#D@D@D@D@-#b@b@b@b@b@b@b@;#>#,#'#p++#)#O !#@#.#~#{#k ]#O O l@' ' J X ^#/#.     ",
"      . B@; (#q@. _#:#<#<#<#<#<#<#<#[#b@b@m@<#}#.#. `+p++#|#' 1#@#.#.#n@2#3#j ' X@J J 4#L 5#6#.     ",
"      . B@; (#q@. . <..#.#.#.#.#.#.#>#b@b@[#.#.#.#. `+p++#|#' 1#@#.#.#.#.#7#. 8#W X X L . 9#7@.     ",
"      . 0#s.a#q@. .   b#b#b#b#b#b#b#c#}#}#d#.#.#.#. e#f#).|#' 1#@#.#.#n@b#g#. a h#t@t@i#/#j#7@.     ",
"      . k#_ ' l#.     . . . . . . . m#n#n#n#n#n#o#. p#)+q#h.r#s#t#o#o#u#@@v#w#w#x#d+y#z#A#B#C#.     ",
"      . a ' X.L .                     . . . . . . D#% , E#F#G#t.. D#. H#' h., , I#p+D@b@b@r@.       ",
"        J#& K#L#                                    M#|.N#O#P#Q#        R#S#% % T#`+U#V#V#J@        ",
"          . . .                                       H#. . W#          D#. . . . . . . .           "};
