/* XPM */
static char * frog_xpm[] = {
"50 50 206 2",
"  	c None",
". 	c #428A4D",
"+ 	c #3E8948",
"@ 	c #40894A",
"# 	c #63C74D",
"$ 	c #64C74F",
"% 	c #418A4C",
"& 	c #366B41",
"* 	c #2A5635",
"= 	c #397E43",
"- 	c #65C058",
"; 	c #3F7D37",
"> 	c #3F7E37",
", 	c #49913D",
"' 	c #66C655",
") 	c #295534",
"! 	c #181425",
"~ 	c #3D8241",
"{ 	c #509149",
"] 	c #628549",
"^ 	c #5DB94B",
"/ 	c #58B246",
"( 	c #160724",
"_ 	c #305C2F",
": 	c #5BB748",
"< 	c #61C44C",
"[ 	c #6BC34D",
"} 	c #77BC4D",
"| 	c #171025",
"1 	c #181325",
"2 	c #56AD45",
"3 	c #85B24E",
"4 	c #B96F50",
"5 	c #B86F50",
"6 	c #9A9E4F",
"7 	c #478E3C",
"8 	c #170B25",
"9 	c #181225",
"0 	c #160324",
"a 	c #5AB447",
"b 	c #8AAD4E",
"c 	c #B86E50",
"d 	c #28492B",
"e 	c #56AC44",
"f 	c #60C04B",
"g 	c #6EC14D",
"h 	c #83B34E",
"i 	c #76BC4D",
"j 	c #478F3C",
"k 	c #170F25",
"l 	c #254930",
"m 	c #346936",
"n 	c #63C84D",
"o 	c #4F9F41",
"p 	c #356832",
"q 	c #171125",
"r 	c #213628",
"s 	c #376B32",
"t 	c #5CB949",
"u 	c #82B44E",
"v 	c #A88C4F",
"w 	c #459449",
"x 	c #60C14B",
"y 	c #150024",
"z 	c #336331",
"A 	c #40894B",
"B 	c #2C6743",
"C 	c #377D46",
"D 	c #489A49",
"E 	c #57B34B",
"F 	c #62C64D",
"G 	c #59B347",
"H 	c #5BB848",
"I 	c #498C56",
"J 	c #3E8848",
"K 	c #2F6D44",
"L 	c #347745",
"M 	c #3E8747",
"N 	c #59B64B",
"O 	c #4CA14A",
"P 	c #6CC34D",
"Q 	c #86B14E",
"R 	c #468B51",
"S 	c #3A8947",
"T 	c #2B7144",
"U 	c #236342",
"V 	c #398846",
"W 	c #60C64B",
"X 	c #62C74C",
"Y 	c #7CB94E",
"Z 	c #B96D50",
"` 	c #7BB94E",
" .	c #64C753",
"..	c #498A49",
"+.	c #D7A36E",
"@.	c #D6A06D",
"#.	c #D7A676",
"$.	c #DCCCA1",
"%.	c #DED2A1",
"&.	c #ACCC7E",
"*.	c #67C54D",
"=.	c #73BE4D",
"-.	c #91A84F",
";.	c #B87052",
">.	c #9C955D",
",.	c #9E965C",
"'.	c #E4A672",
").	c #E5AE7C",
"!.	c #EAD4AA",
"~.	c #CBD094",
"{.	c #A5CC7A",
"].	c #9E9A4F",
"^.	c #E3A674",
"/.	c #E4D3A6",
"(.	c #60C74B",
"_.	c #E0A678",
":.	c #63C74E",
"<.	c #E4A673",
"[.	c #58B44B",
"}.	c #5AB84C",
"|.	c #56B14B",
"1.	c #76AB4D",
"2.	c #91A74E",
"3.	c #7ABA4E",
"4.	c #EAD4AB",
"5.	c #479849",
"6.	c #4EA34A",
"7.	c #418D48",
"8.	c #8A7D4C",
"9.	c #90A84E",
"0.	c #64C750",
"a.	c #4A8A4A",
"b.	c #987C4E",
"c.	c #C07B57",
"d.	c #E4A874",
"e.	c #DEAA72",
"f.	c #60C74C",
"g.	c #3F8A48",
"h.	c #61C34D",
"i.	c #93A44E",
"j.	c #75824B",
"k.	c #9E8453",
"l.	c #E0A670",
"m.	c #94A44E",
"n.	c #8CAC4E",
"o.	c #469749",
"p.	c #52AB4A",
"q.	c #62C54D",
"r.	c #7FB64E",
"s.	c #96A24F",
"t.	c #7CB84E",
"u.	c #3F8848",
"v.	c #6E8D50",
"w.	c #E5A672",
"x.	c #E1A370",
"y.	c #B76E50",
"z.	c #AA884F",
"A.	c #65C64D",
"B.	c #733E39",
"C.	c #8B5845",
"D.	c #72BF4D",
"E.	c #4D8A56",
"F.	c #733D39",
"G.	c #CAB069",
"H.	c #ADB75F",
"I.	c #92A54E",
"J.	c #93A54E",
"K.	c #469649",
"L.	c #52AA4A",
"M.	c #6AC34D",
"N.	c #558C53",
"O.	c #418848",
"P.	c #7C473D",
"Q.	c #76453B",
"R.	c #895B45",
"S.	c #E0A571",
"T.	c #E3A672",
"U.	c #E4A875",
"V.	c #B0B963",
"W.	c #64C74E",
"X.	c #6FC854",
"Y.	c #67C750",
"Z.	c #4A9649",
"`.	c #408748",
" +	c #518D50",
".+	c #4A8D4D",
"++	c #418E48",
"@+	c #68C750",
"#+	c #AD9960",
"$+	c #4B8A4A",
"%+	c #E5A773",
"&+	c #A0965C",
"*+	c #3D8948",
"=+	c #C89F69",
"-+	c #B4CD84",
";+	c #73C857",
">+	c #ECD4AB",
",+	c #5DBC4C",
"'+	c #3D8848",
")+	c #6B533C",
"!+	c #64623F",
"~+	c #E5D1A7",
"{+	c #BACE88",
"]+	c #68C850",
"^+	c #EBD4AB",
"/+	c #AFCD80",
"                                                                                                    ",
"                                                                                                    ",
"                                                                                                    ",
"                                                                                                    ",
"                                                                                                    ",
"                                                                                                    ",
"                                                                                                    ",
"                                                                                                    ",
"                                                                                                    ",
"                                                                                                    ",
"                                                                                                    ",
"                                                                                                    ",
"                                                                                                    ",
"                            . + + + @               # # # # # $                                     ",
"                          % & * * = % %           - ; > , # # # '                                   ",
"                          = ) ! ! ~ { ]         ^ / ( ! _ : < [ }                                   ",
"                          | 1 ! 1 2 3 4 5 6 # # 7 8 ! ! 9 0 a b c                                   ",
"                          ! ! d e f g h h i # # j ! ! ! ! k a b 5                                   ",
"                          l l m n # # # # # # # o p q ! r s t u v                                   ",
"                          + + w # # # # # # # # # x y k z # # # #                                   ",
"                        A B C w # # # # # # # D E F G G H # # # #                                   ",
"                      I J K L M N N N N N N N O N # # # P Q [ # #                                   ",
"                      R + S T U V V V V V V V W X # # # Y Z ` # # #  .                              ",
"                      @ ..+.@.#.$.$.$.$.$.$.$.%.&.# # # *.=.*.# # # -.;.                            ",
"                      >.,.'.'.).!.!.!.!.!.!.!.!.~.{.X # # # # # # # h ].                            ",
"                      ^.'.'.'.).!.!.!.!.!.!.!.!.!./.(.# # # # # # # # # #                           ",
"                      _.'.'.'.).!.!.!.!.!.!.!.!.!./.(.# # # # # # # # # # :.$                       ",
"                        <.'.'.).!.!.!.!.!.!.!.!.!./.(.# # # [.}.# |.1.2.2.3.:.                      ",
"                          '.'.).4.!.!.!.!.!.!.!.!./.(.# # # 5.6.n 7.8.5 5 9.0.                      ",
"                          a.b.c.d.d.d.d.d.d.d.d.d.e.f.# # # 5.g.g.h.i.5 5 9.# :.                    ",
"                          + j.k.'.'.'.'.'.'.'.'.'.l.i.m.n.# 5.o.p.q.r.s.s.t.# #                     ",
"                          u.u.v.w.'.'.'.'.'.'.'.'.x.y.5 z.# 5.6.# # # # # # # A.                    ",
"                          B.B.C.w.'.'.'.'.'.'.'.'.x.y.5 z.# 5.6.# # # # # # D.c                     ",
"                        E.F.B.C.w.'.'.'.'.'.'.'.G.H.I.J.b # 5.K.L.L.L.L.# # M.J.                    ",
"                      N.O.P.Q.R.S.T.'.'.'.'.'.U.V.W.X.Y.# q.Z.`.+  +.+++X.@+# #                     ",
"                    '.#+$+%+&+*+S =+'.'.'.'.'.!.-+;+>+{.,+'+)+!+V ~+{+]+^+/+$                       ",
"                                                                                                    ",
"                                                                                                    ",
"                                                                                                    ",
"                                                                                                    ",
"                                                                                                    ",
"                                                                                                    ",
"                                                                                                    ",
"                                                                                                    ",
"                                                                                                    ",
"                                                                                                    ",
"                                                                                                    ",
"                                                                                                    ",
"                                                                                                    ",
"                                                                                                    "};
