/* XPM */
static char * frog_xpm[] = {
"50 50 585 2",
"  	c None",
". 	c #8A898F",
"+ 	c #8C8B91",
"@ 	c #8D8B94",
"# 	c #84828A",
"$ 	c #86858A",
"% 	c #8C8B94",
"& 	c #78767F",
"* 	c #9B9A9D",
"= 	c #7F877C",
"- 	c #67845C",
"; 	c #6A8860",
"> 	c #6B855C",
", 	c #6C8559",
"' 	c #768872",
") 	c #6C855C",
"! 	c #68844C",
"~ 	c #688452",
"{ 	c #6A8553",
"] 	c #848C79",
"^ 	c #BBBABF",
"/ 	c #576B5E",
"( 	c #68925F",
"_ 	c #A2DE80",
": 	c #9EDA7B",
"< 	c #9EDF77",
"[ 	c #A3EB6A",
"} 	c #80B05C",
"| 	c #5D6B5E",
"1 	c #3E653E",
"2 	c #9CDE71",
"3 	c #A5E56D",
"4 	c #B0E17B",
"5 	c #AEE07A",
"6 	c #8CBD74",
"7 	c #3E6048",
"8 	c #454547",
"9 	c #4D9564",
"0 	c #419F59",
"a 	c #338C3F",
"b 	c #69B16D",
"c 	c #5DA960",
"d 	c #6FC851",
"e 	c #9BD77A",
"f 	c #AAD69B",
"g 	c #1B2220",
"h 	c #1C1C1F",
"i 	c #19191C",
"j 	c #1B1A23",
"k 	c #1C1B24",
"l 	c #1E1D28",
"m 	c #688A5F",
"n 	c #9CE97C",
"o 	c #6EC64D",
"p 	c #75B672",
"q 	c #72B378",
"r 	c #418C4F",
"s 	c #438E4F",
"t 	c #5CB269",
"u 	c #1B301F",
"v 	c #373838",
"w 	c #478F63",
"x 	c #3E7D5C",
"y 	c #0D0625",
"z 	c #D7D3DD",
"A 	c #9D99A5",
"B 	c #427641",
"C 	c #6CC54F",
"D 	c #77C758",
"E 	c #CFE6B3",
"F 	c #DEF0BF",
"G 	c #DFF0BF",
"H 	c #E1F1BF",
"I 	c #E2F2C1",
"J 	c #E5F0C1",
"K 	c #ABE08E",
"L 	c #7CE15B",
"M 	c #448F48",
"N 	c #A7B3B4",
"O 	c #CECDD1",
"P 	c #080419",
"Q 	c #305F3D",
"R 	c #55AD70",
"S 	c #182C26",
"T 	c #454745",
"U 	c #20613F",
"V 	c #205340",
"W 	c #06051E",
"X 	c #322F3B",
"Y 	c #201F2C",
"Z 	c #10291B",
"` 	c #478F3E",
" .	c #68C54B",
"..	c #96E563",
"+.	c #A5EE6B",
"@.	c #A8F16C",
"#.	c #ABF166",
"$.	c #A9EF63",
"%.	c #A4F361",
"&.	c #7FDA59",
"*.	c #4DB051",
"=.	c #306348",
"-.	c #23232E",
";.	c #2A2C34",
">.	c #020619",
",.	c #1A3D32",
"'.	c #1E6D47",
").	c #0B221C",
"!.	c #234B39",
"~.	c #154937",
"{.	c #070520",
"].	c #06021F",
"^.	c #0B0523",
"/.	c #2A5739",
"(.	c #58AF4A",
"_.	c #72CD4D",
":.	c #77D048",
"<.	c #7BCE4D",
"[.	c #7ACD4C",
"}.	c #7BCD47",
"|.	c #7CCE47",
"1.	c #7ACE44",
"2.	c #73CE4F",
"3.	c #66C853",
"4.	c #478244",
"5.	c #171C2C",
"6.	c #09021D",
"7.	c #08011C",
"8.	c #17332C",
"9.	c #1F4938",
"0.	c #818281",
"a.	c #2C2D30",
"b.	c #143F35",
"c.	c #174229",
"d.	c #2C5837",
"e.	c #2E5E33",
"f.	c #58AA57",
"g.	c #75CE52",
"h.	c #72CD4F",
"i.	c #76C855",
"j.	c #7ACB56",
"k.	c #79CB53",
"l.	c #73CE4E",
"m.	c #76CA51",
"n.	c #75CA54",
"o.	c #70D055",
"p.	c #62BC52",
"q.	c #3C6A41",
"r.	c #2D4F3B",
"s.	c #214430",
"t.	c #10482A",
"u.	c #0D241D",
"v.	c #C4C3C6",
"w.	c #396242",
"x.	c #337543",
"y.	c #438744",
"z.	c #56A149",
"A.	c #51A74B",
"B.	c #6DCB58",
"C.	c #6DCB52",
"D.	c #51AA46",
"E.	c #2E622D",
"F.	c #79C85C",
"G.	c #79CC4E",
"H.	c #74CF4E",
"I.	c #71CC4B",
"J.	c #5EAC48",
"K.	c #396D35",
"L.	c #60BC4C",
"M.	c #72CC55",
"N.	c #66B95B",
"O.	c #509C50",
"P.	c #4D984B",
"Q.	c #327937",
"R.	c #2D653B",
"S.	c #9FA3A0",
"T.	c #363737",
"U.	c #346F43",
"V.	c #4B9C4D",
"W.	c #6BB953",
"X.	c #7ACC4F",
"Y.	c #78CB55",
"Z.	c #72CC4D",
"`.	c #65BE57",
" +	c #2A5E31",
".+	c #7AC85E",
"++	c #60AD4D",
"@+	c #487A47",
"#+	c #6DCD50",
"$+	c #73CE4D",
"%+	c #70CC4D",
"&+	c #6DCD4D",
"*+	c #6DCD4E",
"=+	c #49A94F",
"-+	c #3C8D53",
";+	c #1D3826",
">+	c #3D3C45",
",+	c #295637",
"'+	c #4B8D4E",
")+	c #68B259",
"!+	c #73C458",
"~+	c #75C554",
"{+	c #78C853",
"]+	c #77CE49",
"^+	c #71C84E",
"/+	c #5BAA46",
"(+	c #76CD5A",
"_+	c #74CD56",
":+	c #72CE51",
"<+	c #72CD50",
"[+	c #6EC350",
"}+	c #68B84C",
"|+	c #75CF4F",
"1+	c #74CF4C",
"2+	c #71CB52",
"3+	c #6BC44F",
"4+	c #6EC352",
"5+	c #55A35E",
"6+	c #3F8857",
"7+	c #1F3A29",
"8+	c #3E3E47",
"9+	c #356C3E",
"0+	c #60A563",
"a+	c #4F854C",
"b+	c #3D7B45",
"c+	c #478D4F",
"d+	c #68B35B",
"e+	c #75CA5A",
"f+	c #73C958",
"g+	c #74C75D",
"h+	c #79C760",
"i+	c #79C75F",
"j+	c #77C557",
"k+	c #7AC85A",
"l+	c #70CC5E",
"m+	c #6CCB5F",
"n+	c #6ECB5A",
"o+	c #6EC659",
"p+	c #53A84D",
"q+	c #348542",
"r+	c #3C8745",
"s+	c #60AB6F",
"t+	c #48915F",
"u+	c #213C2A",
"v+	c #37373C",
"w+	c #B1B58F",
"x+	c #D7C89A",
"y+	c #D4C9A3",
"z+	c #A0BA8A",
"A+	c #48834C",
"B+	c #3F7B45",
"C+	c #427246",
"D+	c #477047",
"E+	c #437049",
"F+	c #3B6F4E",
"G+	c #3A6E4D",
"H+	c #396E4A",
"I+	c #3B704C",
"J+	c #397148",
"K+	c #3A7348",
"L+	c #387742",
"M+	c #3D7D42",
"N+	c #407C46",
"O+	c #61915B",
"P+	c #CBCCA4",
"Q+	c #D6C8A4",
"R+	c #D5C4AA",
"S+	c #6A5951",
"T+	c #726F60",
"U+	c #BEAE92",
"V+	c #E5C2A9",
"W+	c #DEC49C",
"X+	c #E6DAB4",
"Y+	c #EADFBA",
"Z+	c #F1F0C3",
"`+	c #F0F3C0",
" @	c #EEF3C3",
".@	c #EAF3C8",
"+@	c #EBF3C8",
"@@	c #E9F2C6",
"#@	c #EAF4C1",
"$@	c #EBF5C1",
"%@	c #ECF2C3",
"&@	c #EDEAC3",
"*@	c #E5D7B2",
"=@	c #DDCFA4",
"-@	c #E5CAA2",
";@	c #E5CAA3",
">@	c #8A7E70",
",@	c #7A7D81",
"'@	c #7A8171",
")@	c #BBAC8F",
"!@	c #E5BA99",
"~@	c #F2D6B0",
"{@	c #F8DFB9",
"]@	c #FDF3CA",
"^@	c #FBF7C9",
"/@	c #FBF7C7",
"(@	c #FCF7C9",
"_@	c #FBF6C9",
":@	c #FCF6C9",
"<@	c #FDF6C9",
"[@	c #FBF6C7",
"}@	c #F7EFC0",
"|@	c #EBDCAC",
"1@	c #E2D19A",
"2@	c #E3C79B",
"3@	c #949080",
"4@	c #4C4E4D",
"5@	c #3E4D4C",
"6@	c #61705C",
"7@	c #85846A",
"8@	c #CEC39D",
"9@	c #D6C8A1",
"0@	c #F4EBC6",
"a@	c #FCF6C7",
"b@	c #FBF7C2",
"c@	c #F9F8C8",
"d@	c #FBFBCB",
"e@	c #FAF7C8",
"f@	c #FBF6C8",
"g@	c #FAF6C4",
"h@	c #DDD7A2",
"i@	c #D2CC97",
"j@	c #A9A879",
"k@	c #7C8A6B",
"l@	c #1C343B",
"m@	c #919295",
"n@	c #A2A6AC",
"o@	c #343743",
"p@	c #0B2D2B",
"q@	c #18523C",
"r@	c #4E7D51",
"s@	c #4F7E4F",
"t@	c #84AB7B",
"u@	c #CBDEA8",
"v@	c #F4FAC1",
"w@	c #F7F8C7",
"x@	c #F6F8C7",
"y@	c #F0F8C5",
"z@	c #ECF6C2",
"A@	c #A2BA8A",
"B@	c #618B5E",
"C@	c #487044",
"D@	c #2F6745",
"E@	c #154D44",
"F@	c #0D1022",
"G@	c #47464B",
"H@	c #C5C7C7",
"I@	c #496848",
"J@	c #34553B",
"K@	c #173D2A",
"L@	c #183B2D",
"M@	c #152E2B",
"N@	c #0E2223",
"O@	c #1F4F39",
"P@	c #286B42",
"Q@	c #24663E",
"R@	c #306647",
"S@	c #518658",
"T@	c #619A5A",
"U@	c #689B5C",
"V@	c #6B9F5F",
"W@	c #68A160",
"X@	c #67A15F",
"Y@	c #5C9E58",
"Z@	c #5D955B",
"`@	c #3B6C45",
" #	c #256241",
".#	c #216A3C",
"+#	c #20643C",
"@#	c #21473F",
"##	c #0B151F",
"$#	c #1D342F",
"%#	c #1D3E2E",
"&#	c #1E4229",
"*#	c #3E653D",
"=#	c #949F92",
"-#	c #0A1F19",
";#	c #62A759",
">#	c #5AA15B",
",#	c #2C783E",
"'#	c #2F7841",
")#	c #285F3C",
"!#	c #142A2A",
"~#	c #1E5139",
"{#	c #48954A",
"]#	c #4B9848",
"^#	c #30733F",
"/#	c #2A6443",
"(#	c #30633D",
"_#	c #35663C",
":#	c #37683F",
"<#	c #31693D",
"[#	c #326B3E",
"}#	c #346A3D",
"|#	c #316946",
"1#	c #245E44",
"2#	c #3A804F",
"3#	c #3F9646",
"4#	c #388846",
"5#	c #1A4A3D",
"6#	c #0A272D",
"7#	c #296745",
"8#	c #22773E",
"9#	c #217C2F",
"0#	c #56B04D",
"a#	c #507C4C",
"b#	c #4F4E55",
"c#	c #3E4D48",
"d#	c #265E3E",
"e#	c #2A7344",
"f#	c #317842",
"g#	c #2E7D40",
"h#	c #2C6944",
"i#	c #123128",
"j#	c #1F5536",
"k#	c #61B751",
"l#	c #6DC754",
"m#	c #56A855",
"n#	c #9BAC7D",
"o#	c #C4B38F",
"p#	c #C3B58E",
"q#	c #C3B690",
"r#	c #C3B890",
"s#	c #C2B78F",
"t#	c #C4B390",
"u#	c #C0B594",
"v#	c #789E6F",
"w#	c #5BB150",
"x#	c #60BF41",
"y#	c #50A548",
"z#	c #124D3C",
"A#	c #0C2529",
"B#	c #266839",
"C#	c #207935",
"D#	c #237839",
"E#	c #26743B",
"F#	c #274C3F",
"G#	c #66666C",
"H#	c #0A1D15",
"I#	c #2E6447",
"J#	c #2B7A4C",
"K#	c #307B42",
"L#	c #30694D",
"M#	c #13302B",
"N#	c #25533C",
"O#	c #5CB558",
"P#	c #6BCB53",
"Q#	c #55B95B",
"R#	c #BFD09B",
"S#	c #F2DAB2",
"T#	c #EFDAB1",
"U#	c #F0DBB2",
"V#	c #F0D8B6",
"W#	c #ECD9B7",
"X#	c #94B883",
"Y#	c #66BD52",
"Z#	c #6AC645",
"`#	c #5CAB57",
" $	c #1B493D",
".$	c #092229",
"+$	c #23653B",
"@$	c #1E7839",
"#$	c #266F3F",
"$$	c #26543B",
"%$	c #061A14",
"&$	c #071B11",
"*$	c #20533B",
"=$	c #1A4F30",
"-$	c #163B32",
";$	c #132031",
">$	c #17332B",
",$	c #419852",
"'$	c #62C856",
")$	c #4AAD52",
"!$	c #BFCC9A",
"~$	c #F6DFB3",
"{$	c #F9EDBE",
"]$	c #FCF1C1",
"^$	c #FDF1C2",
"/$	c #FCF0C1",
"($	c #FAE9C1",
"_$	c #F2E2BF",
":$	c #91B484",
"<$	c #62B655",
"[$	c #62BE4C",
"}$	c #388348",
"|$	c #0D2122",
"1$	c #0C2131",
"2$	c #114532",
"3$	c #145B32",
"4$	c #174331",
"5$	c #06181E",
"6$	c #2F383C",
"7$	c #06321C",
"8$	c #0B5B26",
"9$	c #083A22",
"0$	c #071821",
"a$	c #081E22",
"b$	c #041B21",
"c$	c #051624",
"d$	c #101F21",
"e$	c #3F8353",
"f$	c #56B650",
"g$	c #36813D",
"h$	c #9E9E80",
"i$	c #D7BC94",
"j$	c #F4E5B4",
"k$	c #F6E7B6",
"l$	c #F5E6B5",
"m$	c #F5E6B6",
"n$	c #EBD8AE",
"o$	c #BCAE8D",
"p$	c #5F795B",
"q$	c #429048",
"r$	c #419D43",
"s$	c #2D6945",
"t$	c #050E1D",
"u$	c #04161F",
"v$	c #0B1320",
"w$	c #0B111E",
"x$	c #091A1A",
"y$	c #175138",
"z$	c #12432E",
"A$	c #394242",
"B$	c #B1C1B9",
"C$	c #C1CDCC",
"D$	c #647871",
"E$	c #175039",
"F$	c #164F2F",
"G$	c #0D291D",
"H$	c #286B45",
"I$	c #50AE55",
"J$	c #318043",
"K$	c #285940",
"L$	c #7B8269",
"M$	c #D5B99A",
"N$	c #D4B899",
"O$	c #D7BC9C",
"P$	c #D7BB9C",
"Q$	c #C2B091",
"R$	c #3E633C",
"S$	c #1F5B3B",
"T$	c #429047",
"U$	c #429945",
"V$	c #1F4E39",
"W$	c #192F2B",
"X$	c #1B4E36",
"Y$	c #1D4832",
"Z$	c #9CB6B3",
"`$	c #818E8E",
" %	c #D6DFDC",
".%	c #3A4E46",
"+%	c #194C3A",
"@%	c #144227",
"#%	c #2F8B3E",
"$%	c #1C7736",
"%%	c #164E2E",
"&%	c #BED1BE",
"*%	c #EEECDB",
"=%	c #E9E9DF",
"-%	c #768C7E",
";%	c #0D5430",
">%	c #2F823C",
",%	c #327F42",
"'%	c #394C4A",
")%	c #799A8E",
"!%	c #20513F",
"~%	c #123E2F",
"{%	c #999F9D",
"]%	c #54655E",
"^%	c #416255",
"/%	c #6D7D77",
"(%	c #7AA287",
"_%	c #759882",
":%	c #647A70",
"<%	c #92A69B",
"[%	c #708B81",
"}%	c #76A283",
"|%	c #70977E",
"1%	c #656F70",
"2%	c #728881",
"3%	c #6D7C76",
"4%	c #65726E",
"                                                                                                    ",
"                                                                                                    ",
"                                                                                                    ",
"                                                                                                    ",
"                                                                                                    ",
"                                                                                                    ",
"                                                                                                    ",
"                                                                                                    ",
"                                                                                                    ",
"                                                                                                    ",
"                                                                                                    ",
"                                . + @ #                       $ % & *                               ",
"                              = - ; > , '                   ) ! ~ { ] ^                             ",
"                            / ( _ : < [ } |               1 2 3 4 5 6 7                             ",
"                          8 9 0 a b c d e f g h i j k l m n o p q r s t u                           ",
"                          v w x y z A B C D E F G H I J K L M N O P Q R S                           ",
"                          T U V W X Y Z `  ...+.@.#.$.%.&.*.=.-.;.>.,.'.).                          ",
"                            !.~.{.].^./.(._.:.<.[.}.|.1.2.3.4.5.6.7.8.9.0.                          ",
"                            a.b.c.d.e.f.g.h.i.j.k.2.l.m.n.o.p.q.r.s.t.u.v.                          ",
"                            w.x.y.z.A.B.C.D.E.F.G.H.I.J.K.L.M.N.O.P.Q.R.S.                          ",
"                          T.U.V.W.X.Y.Y.Z.`. +.+G.I.I.++@+#+$+%+&+*+=+-+;+                          ",
"                          >+,+'+)+!+~+{+]+^+/+(+_+:+<+[+}+|+1+2+3+4+5+6+7+                          ",
"                          8+9+0+a+b+c+d+e+f+g+h+i+j+k+l+m+n+o+p+q+r+s+t+u+                          ",
"                          v+w+x+y+z+A+B+C+D+E+F+G+H+I+J+K+L+M+N+O+P+Q+R+S+                          ",
"                            T+U+V+W+X+Y+Z+`+ @.@+@.@@@#@$@%@&@*@=@-@;@>@                            ",
"                            ,@'@)@!@~@{@]@^@/@^@(@_@_@:@<@[@}@|@1@2@3@4@                            ",
"                              5@6@7@8@9@0@a@b@c@d@c@c@e@f@g@h@i@j@k@l@                              ",
"                          m@n@o@p@q@r@s@t@u@v@w@w@x@x@y@z@A@B@C@D@E@F@G@                            ",
"                    H@I@J@K@L@M@N@O@P@Q@R@S@T@U@V@W@X@Y@Z@`@ #.#+#@###$#%#&#*#=#                    ",
"                    -#;#>#,#'#)#!#~#{#]#^#/#(#_#:#<#[#}#|#1#2#3#4#5#6#7#8#9#0#a#b#                  ",
"                    c#d#e#f#g#h#i#j#k#l#m#n#o#p#q#r#s#t#u#v#w#x#y#z#A#B#C#D#E#F#G#                  ",
"                      H#I#J#K#L#M#N#O#P#Q#R#S#T#U#U#U#V#W#X#Y#Z#`# $.$+$@$#$$$                      ",
"                      %$&$*$=$-$;$>$,$'$)$!$~${$]$^$/$($_$:$<$[$}$|$1$2$3$4$5$6$                    ",
"                    7$8$9$0$a$b$c$d$e$f$g$h$i$j$k$l$m$n$o$p$q$r$s$t$u$v$w$x$y$z$A$                  ",
"                        B$C$D$E$F$G$H$I$J$K$L$M$N$O$P$Q$R$S$T$U$V$W$X$Y$Z$      `$                  ",
"                         %.%+%      @%#%$%%%&%      *%=%-%;%>%,%'%  )%!%~%                          ",
"                        {%]%^%      /%(%_%:%            <%[%}%|%1%    2%3%4%                        ",
"                                                                                                    ",
"                                                                                                    ",
"                                                                                                    ",
"                                                                                                    ",
"                                                                                                    ",
"                                                                                                    ",
"                                                                                                    ",
"                                                                                                    ",
"                                                                                                    ",
"                                                                                                    ",
"                                                                                                    ",
"                                                                                                    ",
"                                                                                                    "};
