/* XPM */
static char * ground2_xpm[] = {
"50 50 96 2",
"  	c #744C37",
". 	c #845A3E",
"+ 	c #875D3F",
"@ 	c #795139",
"# 	c #754D37",
"$ 	c #764E38",
"% 	c #845B3E",
"& 	c #7B523A",
"* 	c #7C543B",
"= 	c #865C3F",
"- 	c #865C3E",
"; 	c #774E38",
"> 	c #7C533A",
", 	c #855B3E",
"' 	c #774F38",
") 	c #785039",
"! 	c #754D38",
"~ 	c #865D3F",
"{ 	c #80573C",
"] 	c #82593D",
"^ 	c #7D543B",
"/ 	c #784F39",
"( 	c #784F38",
"_ 	c #82583D",
": 	c #835A3D",
"< 	c #7F563C",
"[ 	c #734B37",
"} 	c #885D3F",
"| 	c #81583D",
"1 	c #704936",
"2 	c #6C4534",
"3 	c #724A36",
"4 	c #6A4433",
"5 	c #5A362D",
"6 	c #5B372D",
"7 	c #6E4735",
"8 	c #6B4533",
"9 	c #734C37",
"0 	c #643F31",
"a 	c #674132",
"b 	c #5A372D",
"c 	c #754C37",
"d 	c #5C382D",
"e 	c #664131",
"f 	c #694333",
"g 	c #58362C",
"h 	c #533429",
"i 	c #543429",
"j 	c #57352B",
"k 	c #5C372D",
"l 	c #55342A",
"m 	c #472F24",
"n 	c #482F24",
"o 	c #59362C",
"p 	c #513328",
"q 	c #533329",
"r 	c #4F3227",
"s 	c #523329",
"t 	c #4D3126",
"u 	c #4E3227",
"v 	c #493025",
"w 	c #4B3025",
"x 	c #4A3025",
"y 	c #58362B",
"z 	c #54342A",
"A 	c #56352A",
"B 	c #603B2F",
"C 	c #744D37",
"D 	c #613C2F",
"E 	c #795239",
"F 	c #623D30",
"G 	c #81583C",
"H 	c #885E3F",
"I 	c #6C4634",
"J 	c #6D4634",
"K 	c #7B533A",
"L 	c #7A533A",
"M 	c #7C543A",
"N 	c #7A523A",
"O 	c #6D4734",
"P 	c #7A5239",
"Q 	c #855C3E",
"R 	c #795039",
"S 	c #7F563B",
"T 	c #7E553B",
"U 	c #7A5139",
"V 	c #5F3A2E",
"W 	c #5E3A2E",
"X 	c #694332",
"Y 	c #6F4835",
"Z 	c #5E392E",
"` 	c #5D392E",
" .	c #724B36",
"..	c #734B36",
"+.	c #714A36",
"@.	c #5D382E",
"                                                                            . + + + + + + + + @     ",
"                                                                    # $ $ $ % + + + + + + + + & $   ",
"                                                                    * = = = + + + + + + + + + = - $ ",
"                      $ ; ; ; ; ; ; ; $                             > , , , + + , , , , , , , , % $ ",
"                    $ - = = = = = = = , #                             # # # . = $ # # # # # # # #   ",
"      # ' ' ' ' ' ' @ + + + + + + + + = ) ' ' $       $ ' ' ' ' ' ' ' ' ' ' % = ) ' ' ' ' !         ",
"      & + ~ ~ ~ ~ ~ + + + + + + + + + + + ~ + {       ] + ~ ~ ~ ~ ~ ~ ~ ~ ~ + + + ~ ~ ~ + ^         ",
"/ / ( ^ + + + + + + + + + + + + + + + + + + + _ ' / ' : + + + + + + + + + + + + + + + + + < ' / / / ",
"+ + + + + + + + + + + + + + + + + + + + + + + + + + + + + + + + + + + + + + + + + + + + + + + + + + ",
"+ + + + + + + + + + + + + + + + + + + + + + + + + + + + + + + + + + + + + + + + + + + + + + + + + + ",
"+ + + + + + + + + + + + + + + + + + + + + + + + + + + + + + + + + + + + + + + + + + + + + + + + + + ",
"+ + + + + + + + + + + + + + + + + + + + + + + + + + + + + + + + + + + + + + + + + + + + + + + + + + ",
"+ + + + + + + + + + + + + + + + + + + + + + + + + + + + + + + + + + + + + + + + + + + + + + + + + + ",
"+ + + + + + + + + + ~ ] ] ] ] ] ] ] ] ] ] ] ] ] ] , + + + + + + + + + + + + + + + + + + + + + + + + ",
"+ + + + + + + + + + ,                           [ < } + + + + + + + + + + + + + + + + + + + + + + + ",
"| | | | | | | | | | {                             > _ | | | | | | | | | | | | | | | | | | | | | | | ",
"                                                                                                    ",
"                                                                    1 2 2 2 2 2 2 2 2 2 2 2 2 3     ",
"                                                                  # 4 5 6 6 6 6 6 6 6 6 6 6 5 7     ",
"8 8 8 8 8 8 8 3                       9 2 8 8 8 8 8 8 8 8 8 8 8 8 8 0 6 6 6 6 6 6 6 6 6 6 6 6 a 8 8 ",
"b b b b b b 5 7 c                     [ d b b 6 6 6 6 6 6 b b b b b 6 6 6 6 6 6 6 6 6 6 6 6 6 6 6 6 ",
"6 6 6 6 6 6 6 e 4 4 4 4 4 4 4 4 4 4 4 f d 6 6 g h h h h i b 6 6 6 6 6 6 6 6 6 6 6 6 6 6 6 j h h h h ",
"6 6 6 6 6 6 6 6 6 6 6 6 6 6 6 6 6 6 6 6 6 6 k l m n n n n o 6 6 6 6 6 6 6 6 6 6 6 6 6 6 k p m n n n ",
"q q q q q q q q q q q q q q q q q q q q q q q r n n n n n s q q q q q q q q q q q q q q q t n n n n ",
"n n n n n n n n n n n n n n n n n n n n n n n n n n n n n n n n n n n n n n n n n n n n n n n n n n ",
"n n n n n n n n n n n n n n n n n n n n n n n n n n n n n n n n n n n n n n n n n n n n n n n n n n ",
"n n n n n n n n n n n n n n n n n n n n n n n n n n n n n n n n n n n n n n n n n n n n n n n n n n ",
"h h h h h h h h h h h h h h u n n n n n n n n n n n n n n n v q h h h h h h h h h h h h h h h w n n ",
"6 6 6 6 6 6 6 6 6 6 6 6 6 k h m n n n n n n n n n n n n n n x 6 6 6 6 6 6 6 6 6 6 6 6 6 6 6 k t m n ",
"6 6 6 6 6 6 6 6 6 6 6 6 6 6 y i z z z z z z z z z z z z z z l 6 6 6 6 6 6 6 6 6 6 6 6 6 6 6 6 A z z ",
"6 6 6 6 6 6 6 6 6 6 6 6 6 b 6 6 5 5 5 5 5 5 5 5 6 6 6 6 6 6 6 6 6 6 6 6 6 6 6 6 6 6 6 6 b 5 5 5 5 5 ",
"6 6 6 6 6 6 6 6 6 6 6 6 B 2 2 8 C @ @ @ @ @ @ C 8 2 2 B 6 6 6 6 6 6 6 6 6 6 6 6 6 6 6 D 2 9 E @ @ @ ",
"6 6 6 6 6 6 6 6 6 5 5 5 F       G H } } } } H G       F 5 6 6 6 6 6 6 6 6 6 6 6 5 5 5 0   < H } } } ",
"I I I I I I I I J @ K L M | G G , + + + + + + , G G | M N 7 I I I I I I I I I O P K L ^ G % + + + + ",
"                # - + + + + + + + + + + + + + + + + + + + $                   ! = + + + + + + + + + ",
"_ <       > ] _ _ ~ + + + + + + + + + + + + + + + + + + + ] _ _ _ ] > [ ^ _ _ ] + + + + + + + + + + ",
"+ .     9 < + + + + + + + + + + + + + + + + + + + + + + + + + + + + < [ G + + + + + + + + + + + + + ",
"+ = ] ] ] , + + + + + + + + + + + + + + + + + + + + + + + + + + + + , ] Q + + + + + + + + + + + + + ",
"+ + + + + + + + + + + + + + + + + + + + + + + + + + + + + + + + + + + + + + + + + + + + + + + + + + ",
"R K + + + + + + + + + + + + G ) R R R R R R R R R R R R @ - + + + + + + + + + + + + + + + < ) R R R ",
"  ( + + + + + + + + + + + + S [                           , + + + + + + + + + + + + + + + ^         ",
"  # / T + + + + + U ) ) ) ) $                             ( U + + + + + + + & ) ) ) ) ) ) $         ",
"      & + + + + = $                                         $ = + + + + + + (                       ",
"      # ' ' ' ' '                                             ' ' ' ' ' ' ' #                       ",
"                                9 [ [ [ [ [ [ [ [                                       [ [ [ [ [ [ ",
"                                a V V V V V V V W 8                                   J W V V V V V ",
"[ [ [ [                   [ [ [ 0 6 6 6 6 6 6 6 5 X [ [ [ [ [ [ [ [ [           [ [ [ 8 5 6 6 6 6 6 ",
"W W W a                 Y Z W W d 6 6 6 6 6 6 6 6 ` W W W W W W W Z X         [ B W W ` 6 6 6 6 6 6 ",
"6 6 6 0 [  . . . . . ...J 6 6 6 6 6 6 6 6 6 6 6 6 6 6 6 6 6 6 6 6 6 e [  . . .+.@.6 6 6 6 6 6 6 6 6 ",
"6 6 6 d Z Z Z Z Z Z Z Z ` 6 6 6 6 6 6 6 6 6 6 6 6 6 6 6 6 6 6 6 6 6 d Z Z Z Z ` 6 6 6 6 6 6 6 6 6 6 "};
