/* XPM */
static char * ground2_xpm[] = {
"50 50 189 2",
"  	c #C3A81D",
". 	c #AB9B22",
"+ 	c #BAA31F",
"@ 	c #BDA41E",
"# 	c #A89922",
"$ 	c #BCA41E",
"% 	c #B9A21F",
"& 	c #828627",
"* 	c #AD9C21",
"= 	c #AC9B21",
"- 	c #8D8C25",
"; 	c #C4AA22",
"> 	c #CFB73E",
", 	c #A49723",
"' 	c #908D25",
") 	c #C2A71D",
"! 	c #A59822",
"~ 	c #8C8B26",
"{ 	c #C4A81E",
"] 	c #C8AF30",
"^ 	c #F1E072",
"/ 	c #F2E072",
"( 	c #B29E20",
"_ 	c #7A8327",
": 	c #CAAA22",
"< 	c #E4B434",
"[ 	c #D7AF2C",
"} 	c #D9B02D",
"| 	c #B39D21",
"1 	c #8A8329",
"2 	c #898229",
"3 	c #D4C625",
"4 	c #C0A61E",
"5 	c #B9A31F",
"6 	c #BFA61E",
"7 	c #BEA51E",
"8 	c #BBA31F",
"9 	c #F1B93E",
"0 	c #CDAB26",
"a 	c #D3AE29",
"b 	c #C7A920",
"c 	c #BAA220",
"d 	c #C6AE1F",
"e 	c #DAB030",
"f 	c #C8AA21",
"g 	c #C6A91F",
"h 	c #D1AD28",
"i 	c #CEAC25",
"j 	c #C9AA22",
"k 	c #BEA61E",
"l 	c #A89B21",
"m 	c #BBA41E",
"n 	c #939124",
"o 	c #C2A81D",
"p 	c #B6A11F",
"q 	c #9F9723",
"r 	c #B19F20",
"s 	c #9F9623",
"t 	c #CAAA23",
"u 	c #DCB12F",
"v 	c #D6AF2B",
"w 	c #CCAB24",
"x 	c #E3B433",
"y 	c #CDAB25",
"z 	c #E2B333",
"A 	c #CAAB23",
"B 	c #CBAB24",
"C 	c #DEB230",
"D 	c #C5A91F",
"E 	c #D9B02E",
"F 	c #A09722",
"G 	c #BDA51E",
"H 	c #AB9C21",
"I 	c #B09E20",
"J 	c #949124",
"K 	c #B7A21F",
"L 	c #9C9523",
"M 	c #A49822",
"N 	c #B5A11F",
"O 	c #D1BA42",
"P 	c #CAB031",
"Q 	c #C6AD1E",
"R 	c #EAD865",
"S 	c #D5BF48",
"T 	c #C6AB27",
"U 	c #C9B031",
"V 	c #C8AE2E",
"W 	c #C7AD2A",
"X 	c #C4A921",
"Y 	c #C3A81E",
"Z 	c #C4A91D",
"` 	c #DACC25",
" .	c #CCB620",
"..	c #D9C350",
"+.	c #F3E173",
"@.	c #C3A81C",
"#.	c #EAD768",
"$.	c #E2CD5D",
"%.	c #CCB337",
"&.	c #C5AB25",
"*.	c #A29828",
"=.	c #C2B626",
"-.	c #DACB2B",
";.	c #CFC233",
">.	c #988F34",
",.	c #E3CE5E",
"'.	c #F2DF71",
").	c #EFDD6F",
"!.	c #C4A920",
"~.	c #D5BE49",
"{.	c #F0DD6F",
"].	c #CAB420",
"^.	c #B8A221",
"/.	c #C3AC20",
"(.	c #C6AF20",
"_.	c #B59E21",
":.	c #CCB438",
"<.	c #E0CB5A",
"[.	c #F0DE6C",
"}.	c #E2D347",
"|.	c #D4C324",
"1.	c #C7AE1E",
"2.	c #CDB820",
"3.	c #D9C834",
"4.	c #E5D550",
"5.	c #AF9B22",
"6.	c #AA9724",
"7.	c #B6A63E",
"8.	c #CBBD51",
"9.	c #B6A524",
"0.	c #C7B824",
"a.	c #DACB31",
"b.	c #DDC756",
"c.	c #948928",
"d.	c #9D9428",
"e.	c #A09728",
"f.	c #BDB227",
"g.	c #D3C625",
"h.	c #C4B625",
"i.	c #908728",
"j.	c #A19627",
"k.	c #D8C924",
"l.	c #A49927",
"m.	c #BEB126",
"n.	c #C2B426",
"o.	c #C1A71D",
"p.	c #CFB63D",
"q.	c #EDDA6B",
"r.	c #E1CC5B",
"s.	c #E5D161",
"t.	c #D7C04C",
"u.	c #CBB42D",
"v.	c #E2D249",
"w.	c #D3C122",
"x.	c #C6AC1E",
"y.	c #C9BA54",
"z.	c #DECF59",
"A.	c #DDCB46",
"B.	c #CAB723",
"C.	c #BBB027",
"D.	c #C7AF1E",
"E.	c #A29225",
"F.	c #C3B324",
"G.	c #D4C323",
"H.	c #C8B824",
"I.	c #9E9026",
"J.	c #D1B942",
"K.	c #C6AC29",
"L.	c #C5AA24",
"M.	c #C6AC28",
"N.	c #C6AB26",
"O.	c #F1DF6F",
"P.	c #D0B83D",
"Q.	c #E1CC5C",
"R.	c #EBD869",
"S.	c #DACB24",
"T.	c #CDB921",
"U.	c #AF9D31",
"V.	c #BBAF3A",
"W.	c #DDCE36",
"X.	c #D7C724",
"Y.	c #9A9228",
"Z.	c #CEC126",
"`.	c #CDB821",
" +	c #B9A120",
".+	c #BCA721",
"++	c #CBB620",
"@+	c #B29D22",
"#+	c #C6B020",
"                                                                                                    ",
"                                                                                                    ",
"                . +   @ #                                                                           ",
"        $ %     & * @ = -                                                                     ; > > ",
"        , ' )   & * ! ~                                     {                                 ] ^ / ",
"          ( _   & * ! ~                                   : < {   [ }                       | 1 2 3 ",
"          4 %   5 6 7 8             { 9 0                 : < { } a b                       4 c c d ",
"                                      e f                 g h   i j                                 ",
"                                                                                                    ",
"                                                                                                    ",
"                                                                                                    ",
"                                                                                                    ",
"                                                                                                    ",
"                                                          k l                                       ",
"                                                          m n o p $                                 ",
"                                                          m n o q r                                 ",
"                                                          m n o s r                                 ",
"                                                            o                                       ",
"                      t u                                                                           ",
"          j v         w x                                                                           ",
"          y z     w A w x                                                                           ",
"          B C j { } v w x                                                                           ",
"            D < f E v w x                                                                           ",
"              {   { {   {                                                                           ",
"                                    o F G                                                           ",
"                                  7 H I 4                                                           ",
"                                  + J   K G                                                         ",
"                                  m L   M N                                                         ",
"                                                                                                    ",
"                                                                                                    ",
"                                                                                                    ",
"                                                                                                    ",
"                            O P                                                                     ",
"                          Q R S T U U               V U W             X U Y                         ",
"                        Z ` `  ...+./ @.            #.+.$.            %.+.&.                        ",
"                        Z ` *.=.-.;.>.              W ,.'.).).!.    ~.{.+.&.                        ",
"                          ].^./.].(._.                :.<.[.}.|.1.2.3.4.+.&.                        ",
"                                                    5.6.7.8.` ` 9.0.` a.b.X                         ",
"                                                  _.c.1 1 d.` ` e.f.g.h._.o                         ",
"                                                  i.i.i.i.j.k.k.l.m.n.i.i.o.                        ",
"                                                                                                    ",
"                      p.q.@.                                                                        ",
"                r.s.t.u.v.w.x.                                                                      ",
"                y.z.A.B.C.` D.                                                                      ",
"                E.F.G.H.I.G.Q                                 J.K.                                  ",
"                                                      L.M.N.  O.P.Z                                 ",
"                                                      Q.+.R.  S.` T.                                ",
"                                                      U.V.W.X.Y.Z.`.                                ",
"                                                       +.+++ .@+#+1.                                ",
"                                                                                                    "};
