/* XPM */
static char * ground2_xpm[] = {
"50 50 238 2",
"  	c #C3A81D",
". 	c #AB9B22",
"+ 	c #BAA31F",
"@ 	c #BDA41E",
"# 	c #A89922",
"$ 	c #BCA41E",
"% 	c #B9A21F",
"& 	c #828627",
"* 	c #AD9C21",
"= 	c #AC9B21",
"- 	c #8D8C25",
"; 	c #C4AA22",
"> 	c #CFB73E",
", 	c #A49723",
"' 	c #908D25",
") 	c #C2A71D",
"! 	c #A59822",
"~ 	c #8C8B26",
"{ 	c #C4A81E",
"] 	c #C8AF30",
"^ 	c #F1E072",
"/ 	c #F2E072",
"( 	c #B29E20",
"_ 	c #7A8327",
": 	c #CAAA22",
"< 	c #E4B434",
"[ 	c #D7AF2C",
"} 	c #D9B02D",
"| 	c #B39D21",
"1 	c #8A8329",
"2 	c #898229",
"3 	c #D4C625",
"4 	c #C0A61E",
"5 	c #B9A31F",
"6 	c #BFA61E",
"7 	c #BEA51E",
"8 	c #BBA31F",
"9 	c #F1B93E",
"0 	c #CDAB26",
"a 	c #D3AE29",
"b 	c #C7A920",
"c 	c #BAA220",
"d 	c #C6AE1F",
"e 	c #DAB030",
"f 	c #C8AA21",
"g 	c #C6A91F",
"h 	c #D1AD28",
"i 	c #CEAC25",
"j 	c #C9AA22",
"k 	c #A09523",
"l 	c #938E25",
"m 	c #888926",
"n 	c #BEA61E",
"o 	c #A89B21",
"p 	c #B6A120",
"q 	c #968D28",
"r 	c #5D6A33",
"s 	c #958F26",
"t 	c #BBA41E",
"u 	c #939124",
"v 	c #C2A81D",
"w 	c #B6A11F",
"x 	c #B19E21",
"y 	c #A99A22",
"z 	c #A09227",
"A 	c #857C31",
"B 	c #495839",
"C 	c #707D2A",
"D 	c #9F9723",
"E 	c #B19F20",
"F 	c #8B8828",
"G 	c #6D7A2C",
"H 	c #8A8828",
"I 	c #B19D22",
"J 	c #6F6D35",
"K 	c #737E29",
"L 	c #9F9623",
"M 	c #7B7533",
"N 	c #596734",
"O 	c #7F8527",
"P 	c #7D8427",
"Q 	c #C2A71E",
"R 	c #AE9C21",
"S 	c #738028",
"T 	c #748128",
"U 	c #CAAA23",
"V 	c #DCB12F",
"W 	c #B5A020",
"X 	c #D6AF2B",
"Y 	c #CCAB24",
"Z 	c #E3B433",
"` 	c #CDAB25",
" .	c #E2B333",
"..	c #CAAB23",
"+.	c #D8AF2E",
"@.	c #CBAB24",
"#.	c #DEB230",
"$.	c #C7A921",
"%.	c #CEAC26",
"&.	c #F7BB42",
"*.	c #D4AE2B",
"=.	c #C5A91F",
"-.	c #D9B02E",
";.	c #FABC43",
">.	c #E2B335",
",.	c #F9BC42",
"'.	c #F5B542",
").	c #D27E39",
"!.	c #C6A621",
"~.	c #A09722",
"{.	c #BDA51E",
"].	c #E3B336",
"^.	c #F0AE41",
"/.	c #D99139",
"(.	c #C69F26",
"_.	c #C3A71E",
":.	c #AB9C21",
"<.	c #B09E20",
"[.	c #EDA940",
"}.	c #CF8336",
"|.	c #949124",
"1.	c #B7A21F",
"2.	c #D9AF2F",
"3.	c #DFA936",
"4.	c #CB912F",
"5.	c #9C9523",
"6.	c #A49822",
"7.	c #B5A11F",
"8.	c #D1BA42",
"9.	c #CAB031",
"0.	c #C6AD1E",
"a.	c #EAD865",
"b.	c #D5BF48",
"c.	c #C6AB27",
"d.	c #C9B031",
"e.	c #C8AE2E",
"f.	c #C7AD2A",
"g.	c #C4A921",
"h.	c #C3A81E",
"i.	c #C4A91D",
"j.	c #DACC25",
"k.	c #CCB620",
"l.	c #D9C350",
"m.	c #F3E173",
"n.	c #C3A81C",
"o.	c #EAD768",
"p.	c #E2CD5D",
"q.	c #CCB337",
"r.	c #C5AB25",
"s.	c #A29828",
"t.	c #C2B626",
"u.	c #DACB2B",
"v.	c #CFC233",
"w.	c #988F34",
"x.	c #E3CE5E",
"y.	c #F2DF71",
"z.	c #EFDD6F",
"A.	c #C4A920",
"B.	c #D5BE49",
"C.	c #F0DD6F",
"D.	c #CAB420",
"E.	c #B8A221",
"F.	c #C3AC20",
"G.	c #C6AF20",
"H.	c #B59E21",
"I.	c #CCB438",
"J.	c #E0CB5A",
"K.	c #F0DE6C",
"L.	c #E2D347",
"M.	c #D4C324",
"N.	c #C7AE1E",
"O.	c #CDB820",
"P.	c #D9C834",
"Q.	c #E5D550",
"R.	c #AF9B22",
"S.	c #AA9724",
"T.	c #B6A63E",
"U.	c #CBBD51",
"V.	c #B6A524",
"W.	c #C7B824",
"X.	c #DACB31",
"Y.	c #DDC756",
"Z.	c #948928",
"`.	c #9D9428",
" +	c #A09728",
".+	c #BDB227",
"++	c #D3C625",
"@+	c #C4B625",
"#+	c #908728",
"$+	c #A19627",
"%+	c #D8C924",
"&+	c #A49927",
"*+	c #BEB126",
"=+	c #C2B426",
"-+	c #C1A71D",
";+	c #CFB63D",
">+	c #EDDA6B",
",+	c #E1CC5B",
"'+	c #E5D161",
")+	c #D7C04C",
"!+	c #CBB42D",
"~+	c #E2D249",
"{+	c #D3C122",
"]+	c #C6AC1E",
"^+	c #C9BA54",
"/+	c #DECF59",
"(+	c #DDCB46",
"_+	c #CAB723",
":+	c #BBB027",
"<+	c #C7AF1E",
"[+	c #A29225",
"}+	c #C3B324",
"|+	c #D4C323",
"1+	c #C8B824",
"2+	c #9E9026",
"3+	c #D1B942",
"4+	c #C6AC29",
"5+	c #C5AA24",
"6+	c #C6AC28",
"7+	c #C6AB26",
"8+	c #F1DF6F",
"9+	c #D0B83D",
"0+	c #E1CC5C",
"a+	c #EBD869",
"b+	c #DACB24",
"c+	c #CDB921",
"d+	c #AF9D31",
"e+	c #BBAF3A",
"f+	c #DDCE36",
"g+	c #D7C724",
"h+	c #9A9228",
"i+	c #CEC126",
"j+	c #CDB821",
"k+	c #B9A120",
"l+	c #BCA721",
"m+	c #CBB620",
"n+	c #B29D22",
"o+	c #C6B020",
"                                                                                                    ",
"                                                                                                    ",
"                . +   @ #                                                                           ",
"        $ %     & * @ = -                                                                     ; > > ",
"        , ' )   & * ! ~                                     {                                 ] ^ / ",
"          ( _   & * ! ~                                   : < {   [ }                       | 1 2 3 ",
"          4 %   5 6 7 8             { 9 0                 : < { } a b                       4 c c d ",
"                                      e f                 g h   i j                                 ",
"                                                                                                    ",
"                                                                                                    ",
"                                                                                                    ",
"                                                                                          k l       ",
"                                                                                          k _ m m 7 ",
"                                                          n o                             p q r r s ",
"                                                          t u v w $                     x y z A B C ",
"                                                          t u v D E                     F G H I J K ",
"                                                          t u v L E                     M B N O   P ",
"                                                            v                           ) Q R S T @ ",
"                      U V                                                                   6 W W ) ",
"          j X         Y Z                                                                           ",
"          `  .    Y ..Y Z                                                             +.U           ",
"          @.#.j { } X Y Z                                                       $.%.%.&.*.          ",
"            =.< f -.X Y Z                                                       +.;.;.;.*.          ",
"              {   { {   {                                                     >.,.'.).!.{           ",
"                                    v ~.{.                                    ].^./.(._.            ",
"                                  7 :.<.4                                     ].[.}.                ",
"                                  + |.  1.{.                                  2.3.4.                ",
"                                  t 5.  6.7.                                                        ",
"                                                                                                    ",
"                                                                                                    ",
"                                                                                                    ",
"                                                                                                    ",
"                            8.9.                                                                    ",
"                          0.a.b.c.d.d.              e.d.f.            g.d.h.                        ",
"                        i.j.j.k.l.m./ n.            o.m.p.            q.m.r.                        ",
"                        i.j.s.t.u.v.w.              f.x.y.z.z.A.    B.C.m.r.                        ",
"                          D.E.F.D.G.H.                I.J.K.L.M.N.O.P.Q.m.r.                        ",
"                                                    R.S.T.U.j.j.V.W.j.X.Y.g.                        ",
"                                                  H.Z.1 1 `.j.j. +.+++@+H.v                         ",
"                                                  #+#+#+#+$+%+%+&+*+=+#+#+-+                        ",
"                                                                                                    ",
"                      ;+>+n.                                                                        ",
"                ,+'+)+!+~+{+]+                                                                      ",
"                ^+/+(+_+:+j.<+                                                                      ",
"                [+}+|+1+2+|+0.                                3+4+                                  ",
"                                                      5+6+7+  8+9+i.                                ",
"                                                      0+m.a+  b+j.c+                                ",
"                                                      d+e+f+g+h+i+j+                                ",
"                                                      k+l+m+k.n+o+N.                                ",
"                                                                                                    "};
