/* XPM */
static char *_ab347a414e148bcfaa30d79aab41e89AnDppW2VbeW2jWFG[] = {
/* columns rows colors chars-per-pixel */
"50 85 151 2 ",
"   c None",
".  c #5C3D21",
"X  c #603F23",
"o  c #5F4024",
"O  c #614225",
"+  c #684726",
"@  c #654629",
"#  c #68472A",
"$  c #67482A",
"%  c #6B4C2D",
"&  c #6E502F",
"*  c #6E4F30",
"=  c #6E5031",
"-  c #735434",
";  c #755837",
":  c #7A5A36",
">  c #775A39",
",  c #7A5D3A",
"<  c #7E613E",
"1  c #7F6440",
"2  c #803F0C",
"3  c #82400C",
"4  c #93490E",
"5  c #964C10",
"6  c #9D5217",
"7  c #9C5319",
"8  c #A2561A",
"9  c #815F38",
"0  c #A75B20",
"q  c #82633D",
"w  c #89693F",
"e  c #AD6124",
"r  c #AF6428",
"t  c #B16426",
"y  c #B26629",
"u  c #B66C31",
"i  c #B96E33",
"p  c #BD7235",
"a  c #BD7338",
"s  c #C07539",
"d  c #C2783D",
"f  c #816441",
"g  c #856A44",
"h  c #8B6D44",
"j  c #876B48",
"k  c #896E49",
"l  c #8D7146",
"z  c #8D734B",
"x  c #907447",
"c  c #92754B",
"v  c #95794E",
"b  c #957B52",
"n  c #997E53",
"m  c #C77D42",
"M  c #C97E44",
"N  c #9D8457",
"B  c #9B8156",
"V  c #9E8558",
"C  c #9F8659",
"Z  c #9E8659",
"A  c #9F865A",
"S  c #9F875A",
"D  c #9C845A",
"F  c #9F885D",
"G  c #A08659",
"H  c #A0855A",
"J  c #A0865A",
"K  c #A0875A",
"L  c #A1865B",
"P  c #A0875B",
"I  c #A1885B",
"U  c #A0895B",
"Y  c #A1895C",
"T  c #A1885D",
"R  c #A2895D",
"E  c #A38A5D",
"W  c #A1895F",
"Q  c #A3895E",
"!  c #A18A5F",
"~  c #A38B5E",
"^  c #A4895E",
"/  c #A48B5E",
"(  c #A48B5F",
")  c #A48A5E",
"_  c #A38C5F",
"`  c #A48C5E",
"'  c #A58C5F",
"]  c #A68D5F",
"[  c #A68E5F",
"{  c #A2895E",
"}  c #A38B61",
"|  c #A58C60",
" . c #A58D60",
".. c #A48C61",
"X. c #A58C61",
"o. c #A68D60",
"O. c #A58E60",
"+. c #A68E61",
"@. c #A78E61",
"#. c #A48E63",
"$. c #A78F63",
"%. c #A48D62",
"&. c #A88F62",
"*. c #A88F63",
"=. c #A88F64",
"-. c #A79065",
";. c #A89062",
":. c #A89063",
">. c #A89163",
",. c #A99164",
"<. c #A99065",
"1. c #AA9165",
"2. c #AA9365",
"3. c #AA9266",
"4. c #AB9266",
"5. c #AB9366",
"6. c #AB9367",
"7. c #A99265",
"8. c #AB9468",
"9. c #AC9468",
"0. c #AC9469",
"q. c #AD9569",
"w. c #AE9669",
"e. c #AD966A",
"r. c #AE966A",
"t. c #AE966B",
"y. c #AE976B",
"u. c #AF976B",
"i. c #AF976C",
"p. c #AC956A",
"a. c #AF986C",
"s. c #AF986D",
"d. c #B0986B",
"f. c #B0996D",
"g. c #B1996E",
"h. c #B19A6E",
"j. c #B29B6F",
"k. c #B19A6E",
"l. c #B29B70",
"z. c #B39C70",
"x. c #B39C71",
"c. c #B49C71",
"v. c #B49D71",
"b. c #B49D72",
"n. c #B59E72",
"m. c #B59E73",
"M. c #B69F74",
"N. c #B49D72",
"B. c #CA8146",
"V. c #CE8449",
"C. c #D1874C",
/* pixels */
"                                                                                                    ",
"                                                                                                    ",
"                                                                                              f     ",
"                                                                                      ,     f l.<   ",
"                                                                                    , M.f f 5.f     ",
"                                                                                      < M.Q ,       ",
"                                                                                    f M.:.z.<       ",
"                                                                                    f 5.v.N <       ",
"                                                                                  < 5.v.[ r.,       ",
"                                                                                  f M.$.i.n r.-     ",
"                              -                                                   < :.g.H 5.-       ",
"                            , r.,       ,                                       q $.v.H $.%         ",
"                              , $.q q < r.<                                   , $.M.A 5.v *         ",
"                                - r.$.g.q                 f                     - ) r.B =           ",
"                                - B a.[ g.,             < l.f     ,             - z.N ) =           ",
"                                - A B r.[ g.,   -         f 5.f f M.,           * H 5.c =           ",
"                                  - n B :.U g.- *.-         , Q M.<             % g.n B -           ",
"                                    & v n *.U g.:.-         < z.:.M.f         # % B ) h $.%         ",
"                                  - l h n v 5.A g.-         < N v.5.f       % v.H r.v n %           ",
"                                    % % + l c r.N -         , r.[ v.5.<       % g.B U =             ",
"                                          + n c 5.Q -     - r.n i.$.M.f       % B *.v $             ",
"                                          + h B c r.) - -   - 5.H g.:.<       % 5.n n $             ",
"                                            + h H c 8.U g.%   % $.H v.$.q     % v Q h $.#           ",
"                                              O q A x r.%     * v 5.A M.$., O n Q x c O             ",
"                                            O : l q Q c %       = B r.) -     O h v q O             ",
"                                              O O l q $.c @     = ) N z.-       O q h O             ",
"                                      q           O l q _ O     = c 5.H * 1       O o n O           ",
"                                    - r.q 8 e < 4 5 + g O .     - B n g.% $.-     @ 1 O             ",
"                                      - $.q q M.: p u X q .   % $.h ) B % # Q ;   > } =             ",
"                                        - [ v.5., - * # B %     % n v r.H v.% B ; ; } -         f   ",
"                                        , d.[ z.8., A % B %       = U B g.%   = b $.,   ,     f l.< ",
"                                      - Q x r.Q z., O l = A =   # $ v *.B %   % b $., , M.f f 5.f   ",
"                                        - - c 5.$.z.- . - Q - + n $ n n 5.%   % b $.;   < M.Q , g f ",
"                                        3 6 % n r.8.- u - =.- v # $.h Q v %     - $.- f M.:.z.< -.5.",
"                                        3 7 % B B r.5.- i.- = c # O c x Q n O   - $.- f 5.z.N < = = ",
"                                        4 % l g B F i.5.- $.% z $ O q v h O     - $.< 5.v.[ r.,     ",
"                                        4 4 % # h Q Q a.- & Q l @ O h q O       - $.f M.$.i.n r.-   ",
"                                        4 4 4 3 # v $.=., = Q g O n O O       1 < $.< :.g.H 5.-     ",
"                                        4 4 4 2 # n B 5.-.- k =.=.O f @   , - $.$.q $.v.H $.%       ",
"                                        4 4 4 2 V.$ B A 8., 5.% % = } > & ; Q = , $.M.A 5.v *       ",
"                                        4 4 4 2 V.@ l Q Q r.- N # - } ; ; B @ - - - Q r.B =         ",
"                                        4 4 ; ; @ h l v $.$.; B #   , $.b =     ; - z.N ) =         ",
"                                        4 - $.+ n @ @ v n 5.Q ; -   , $.b %     - * H 5.c =         ",
"                                        ; $.= = @ A O w A n 5.T l.- ; $.b % ,   - % g.n B -         ",
"                                        4 = 4 3 B.# f @ l Q n 8.; v - $.- n ;   # % B ) h $.%       ",
"                                        4 4 4 3 B.f 5.O c l $.- O v - $.- $ n % v.H r.v n %         ",
"                                        4 4 4 2 B.V.* O 9 c l # > c - $.- , < % % g.B U =           ",
"                                        4 4 4 2 V.V.O h O 9 v # B ; % $., 8.8.f % B *.v $           ",
"                                              2 V.V.2 O . O O @ @ c % ; -.* * 8.f 5.n n $ g         ",
"                                              2 V.V.2     o < O O c ; 5.*   O * % v Q h $.# k       ",
"                                              2 V.V.2     % n = @ , Q * -   O O n Q x c O % 5.g     ",
"                                              2 V.B.2       ; A % A Q * -   O g O h v q O   ;       ",
"                                              2 M V.2       - Q % n @ ..;   O 1 A O q h O           ",
"                                              2 B.V.2       = Q $ n @ } - < 1 < B @ O O n O         ",
"                                              2 V.V.2       = ..$ c @ Q , $.$.- % < @ f O           ",
"                                              2 V.< < <       = ..l @ Q % % = Q ; . > } =           ",
"                                        4 8 e t g 5.5.5., 5   - ..% z F % % n @ B ; ; } -           ",
"                                        4 4 0 f 9.= = = 5.,   - -.% @ A % % n O = g j g             ",
"                                        4 r p M : V.V.B.= A ; - -.% @ A @ * b O k -.=.=.g           ",
"                                        4 s i V.V.C.V.u y % b - $.= @ n o z @ 1 5., , 1 -.k     g g ",
"                                        4 i M B.V.C.V.B.0 8 # l ; $.> n o z < -.; - $.- g     < -.-.",
"                                        4 7 B.V.C.C.C.C.e 6 $ k ; $., b o ; $.-   - $.-     < $.$ = ",
"                                        3 6 8 m u d a u 8 3   $ ; .., b o ; $.-   - $.-   > ..@     ",
"                                        3 7 8 f f f f 7 3 +     ; F , z ; $.$     - $.% - B @       ",
"                                        4 4 g 5.5.5.-., 4 4     ; F , g ; ..@     - $.% c @         ",
"                                        4 f 5.> > - - =.1 4   k ; A > f ; } $     - $.% c O         ",
"                                        , 5.> 3 3 3 3 - .., g 5.% = A % F o .     - ..@ c @         ",
"                                        4 - 4 2 B.V.2 4 - Q , ;   = A % A o       - ..z O           ",
"                                        4 4 4 2 V.V.+ 4 - T ,     = A % B O 1     ; ..z O           ",
"                                        4 4 4 2 V.V.2 4 4 O n ,   = A % B O <     - } z O           ",
"                                        4 4 4 3 V.V.2 4 4 O n >   * A z o % B ,   - Q z O           ",
"                                        4 4 4 3 V.B.2 4 4 O n -   % A l o $ n ;   % Q z @           ",
"                                        4 4 4 3 V.B.2 4 4 4 O v * # B k O   $ n % % F z @           ",
"                                        4 4 4 3 B.V.2 4 4 4 O c % @ B g o   O n % % A @             ",
"                                        4 4 4 3 B.V.2 4 4 4 O z % @ B f o   O b * @ A @             ",
"                                        4 4 4 2 B.V.2 4 4 4   o k @ B o       @ z o n +             ",
"                                        4 4 4 2 V.V.2 4 4 4   o g O n o       O z o n O             ",
"                                              2 V.V.2         o g o b .       O k o b O             ",
"                                              2 V.V.2           o , b .       O g o b .             ",
"                                              2 V.V.2           . , c .       O f . z .             ",
"                                              2 V.B.2           . , z .       @ < . g .             ",
"                                              2 M V.2           . , z .       @ < . < .             ",
"                                              2 B.V.2             . q .       . . . . .             ",
"                                              2 V.V.2             . , .                             ",
"                                              2 V.V.2             . @ .                             "
};
