/* XPM */
static char *f705b968c20b47abceb4e67e090aeb31ciylKvRAAq40HcAY[] = {
/* columns rows colors chars-per-pixel */
"60 60 240 2 ",
"   c None",
".  c #526D34",
"X  c #5A7436",
"o  c #567536",
"O  c #657436",
"+  c #6C7637",
"@  c #6F7A39",
"#  c #737536",
"$  c #737D39",
"%  c #777638",
"&  c #736C35",
"*  c #787B48",
"=  c #9C3325",
"-  c #9F3C2C",
";  c #953328",
":  c #993E3A",
">  c #982E24",
",  c #A43C26",
"<  c #A43E2A",
"1  c #A43926",
"2  c #B23F29",
"3  c #8A5D34",
"4  c #975137",
"5  c #AB442B",
"6  c #AC4C2B",
"7  c #A54429",
"8  c #B3472C",
"9  c #B34B2B",
"0  c #B94B2B",
"q  c #B24A27",
"w  c #AC522B",
"e  c #B4532D",
"r  c #BC542D",
"t  c #BA592D",
"y  c #B45B2F",
"u  c #BC5C32",
"i  c #B85831",
"p  c #98632F",
"a  c #886634",
"s  c #946B35",
"d  c #847C37",
"f  c #8B7A37",
"g  c #837B38",
"h  c #897837",
"j  c #977637",
"k  c #BB672F",
"l  c #BE6635",
"z  c #B67737",
"x  c #A36E35",
"c  c #C3542E",
"v  c #C35E2F",
"b  c #CA5D2F",
"n  c #C45B34",
"m  c #C85C33",
"M  c #DC572E",
"N  c #E25F3D",
"B  c #C5662F",
"V  c #C86B2F",
"C  c #D7752E",
"Z  c #C56433",
"A  c #CC6433",
"S  c #C56C34",
"D  c #CC6C33",
"F  c #C56239",
"G  c #D46434",
"H  c #D26C34",
"J  c #DA6C33",
"K  c #D76836",
"L  c #C57235",
"P  c #CC7335",
"I  c #CD7A36",
"U  c #C37B3A",
"Y  c #CB7C39",
"T  c #C87638",
"R  c #D27335",
"E  c #DE7431",
"W  c #D37B35",
"Q  c #DE7B34",
"!  c #D37D39",
"~  c #D7783A",
"^  c #E77E2E",
"/  c #E26B32",
"(  c #E57434",
")  c #E27C35",
"_  c #EB7A35",
"`  c #E37C39",
"'  c #E97632",
"]  c #F67734",
"[  c #F07E2E",
"{  c #D76C44",
"}  c #C57B4A",
"|  c #74833B",
" . c #7B833C",
".. c #7D8B3E",
"X. c #778C3E",
"o. c #6E843E",
"O. c #799140",
"+. c #84853D",
"@. c #838C3E",
"#. c #8A8D3E",
"$. c #88833A",
"%. c #9D893E",
"&. c #988539",
"*. c #8D913F",
"=. c #99983F",
"-. c #A8873A",
";. c #B38C3D",
":. c #B7863A",
">. c #AC993C",
",. c #B6973D",
"<. c #C4843B",
"1. c #CB823A",
"2. c #C48839",
"3. c #D58536",
"4. c #DC8435",
"5. c #DD8936",
"6. c #D3833B",
"7. c #DA843A",
"8. c #D48A3B",
"9. c #DB8B3A",
"0. c #D68837",
"q. c #CA963E",
"w. c #C19C3F",
"e. c #CC9B3D",
"r. c #C4933A",
"t. c #D4953B",
"y. c #DB933B",
"u. c #DB9C3D",
"i. c #D69A3C",
"p. c #E7852F",
"a. c #E48435",
"s. c #E98335",
"d. c #E58B36",
"f. c #EB8C34",
"g. c #E38C3A",
"h. c #EA8D3A",
"j. c #E48639",
"k. c #F78936",
"l. c #ED9436",
"z. c #E4933A",
"x. c #EC9539",
"c. c #E39B3B",
"v. c #ED9A3A",
"b. c #EF9837",
"n. c #F29635",
"m. c #FB9635",
"M. c #F29A37",
"N. c #FD9A36",
"B. c #F59539",
"V. c #F19A38",
"C. c #FA9D38",
"Z. c #F08E2F",
"A. c #D7A13E",
"S. c #CEA03E",
"D. c #F5A23A",
"F. c #FAA43B",
"G. c #FAA93B",
"H. c #E5A03B",
"J. c #898848",
"K. c #968B45",
"L. c #8B9341",
"P. c #8C9C44",
"I. c #929541",
"U. c #939C42",
"Y. c #9C9C43",
"T. c #9A9843",
"R. c #AD8B42",
"E. c #B98C46",
"W. c #A49642",
"Q. c #AD9542",
"!. c #A59C44",
"~. c #AC9C43",
"^. c #AC9648",
"/. c #BB9441",
"(. c #B49C43",
"). c #BC9C42",
"_. c #B59244",
"`. c #B19D5B",
"'. c #8CA749",
"]. c #94A446",
"[. c #9CA447",
"{. c #93A649",
"}. c #9BA649",
"|. c #93AA4A",
" X c #9CA94A",
".X c #98AA46",
"XX c #A4A446",
"oX c #ACA345",
"OX c #ACAB47",
"+X c #A3AA49",
"@X c #A8A649",
"#X c #B4A343",
"$X c #BBA443",
"%X c #B1A946",
"&X c #B6A84D",
"*X c #A7B14B",
"=X c #A8A953",
"-X c #B8AB54",
";X c #B7B262",
":X c #D68743",
">X c #C89B42",
",X c #D89348",
"<X c #DF9759",
"1X c #C4854A",
"2X c #ED9D42",
"3X c #E99645",
"4X c #F29841",
"5X c #E89E56",
"6X c #C4A342",
"7X c #CBA241",
"8X c #CDA54D",
"9X c #D7A347",
"0X c #D8A554",
"qX c #D7B45F",
"wX c #EDA147",
"eX c #F1A245",
"rX c #F2A54B",
"tX c #F7A94D",
"yX c #EBA857",
"uX c #F2AB54",
"iX c #F2AE5B",
"pX c #F6A655",
"aX c #F2B25D",
"sX c #EFB15E",
"dX c #E29D61",
"fX c #D2B971",
"gX c #E9A967",
"hX c #ECB367",
"jX c #F3B463",
"kX c #F4BB6C",
"lX c #F6B668",
"zX c #E7BC76",
"xX c #F3BC74",
"cX c #F2BE7B",
"vX c #FABC77",
"bX c #F7C279",
"nX c #F3C483",
"mX c #F6C889",
"MX c #F5CA91",
"NX c #FED098",
/* pixels */
"                                                                                                                        ",
"                                                                                    + +                                 ",
"                                                                                    + + +                               ",
"                                                                                        O O                             ",
"                                                      OXOX*.#.          # h   J.L. .  % #                               ",
"                                                    I.OX       .        g     +.|.&X:XI <.                              ",
"                                                     .      XXI.    ~ z # z j.:.| !.2X2Xq.2.!                           ",
"                                                  $ *.  [.OX$ W.  G 7.z.:.% f &.d T.wX-X}.).yXxX                        ",
"                                                  $ I.  [.E.{ I 1.R R ) _ g.r.j O Y.$X[.oXuXvXcXpXd.                    ",
"                                                  Y.    _.E.U <.8.y.y.y.d.k.] k | '.%Xi.>X@X~.+.#X(.>.                  ",
"                                                Y.Y.      1XOXoX#X$X$X#XOX#X;.%.T.%.;.h.g.q.e.(.zXzXqX!.                ",
"                                                 .#.XX| z <.%XV.V.V.l.).oX#XOX/.J E J a.s._ ^ 4XhXfXfXoX    [.          ",
"                        . . . .               | | #.oX . .(.i.C.V.) U ~.c.N.>XW.a.V.s.) f.uXyXh.d =.&XoXr.  [.          ",
"                        . . . .               |  .+.XX*.| (.V.D.7.D <.OXc.k.<.oXb.tXsXf.^ rXnXfX$ W.,.e.| U.#.          ",
"                      . . #..                 | +.+.*.Y.| (.D.d.D 4.V.i.w.1.;.oXb.pXbX0Xj h K.K.&X(.2.J u.!.Y.          ",
"                      . @.|                     |  .#.I.| -.v.7.R x.D.7X#XXXXXe.m.eXkX`.R.# f ~.~.W.:.P ~   L.          ",
"                      . $ |                       | +.#.+.L x.P ! D.6X6X1.T 9.C.n.v.jXK.K.#.!.#X#X~.&.S e j I.          ",
"                  W D # @ $ x.                      | | a D x.D P D.6X$XD ! z.C.V.x.Q.J.(.~.~.=.&.&.&.u , oXOX          ",
"                  R p O #.&.#X7.              OX    @ I.R.l 4.P W D.A.%Xz I v.V.V.x.g K.-.h f &.&.d :.5 S U.|           ",
"                V C 2.d O O -.jXgX              OXOX  XX    Z H 6.D.D.#X;.T b.V.V.V.V.V.V.x.1.-.-.t.l 5   OXOX          ",
"                D R V.x.-.-.y.uX5X<X                OX      & + # r.F.).Q.I b.V.V.V.V.V.V.l.~ V.G.9.e F     XX          ",
"                P V V.V.V.V.uXkX2XgX                        + + + &.#XOXz L b.C.V.V.V.V.V.a.P G.g.u m       L.#.        ",
"                W 4.V.V.V.V.jXuXlXgX:X                    + + + & h Q.q.r e z.F.C.V.C.F.C.D V W 9 n   +     $ *.OX      ",
"                V l.V.V.V.V.aXxXcXyXgX                  + +         6 n c 5 P v.b.V.V.V.a.5 3 a a # +   + +             ",
"                B b.V.V.V.V.eXkXnXhXgX:X                  O             % a 3 s s a 3 w 9       +                       ",
"              B B V.V.V.V.V.V.jXxXnX<X,X                  + O         @ L.U.J.* X X + +                                 ",
"              B 5.V.V.V.V.V.V.rXlXnXdX:X                    # j Y E.=X X*XP.*       j X                                 ",
"              D x.V.V.V.V.V.V.V.lXcXcXI D                   Y !     &X*X.X| % U       o                                 ",
"              R x.V.V.V.V.V.V.V.iXkXnXP P                 9.n.B.B.t.oX'.o.% <.h.j.' x o s                               ",
"              S l.V.V.V.V.V.V.V.eXlXxX! P         9.W 3.).XXoX8XtX3XoXO.% :.V.z.Y j O % z 7.! R                         ",
"            D e x.V.V.V.V.V.V.V.V.jXrXV.S u     hXcX5Xt.XX}.=X=X0X3XoXX.f -.g + + X $.y.V.z.3.R G     |..X.X.X[.        ",
"            e r V.V.V.V.V.V.V.V.V.eXV.V.P R f.iXMXNXbXaX9X).XX|.>X,XoX..+ + O $.-.r.5.k.f.Q D H K Y _._.} 1X X[.[.      ",
"            , D V.V.V.V.V.d.d.b.V.b.V.V.7.l.M.pXlXlXlXlXtXw.].{.XXoXOX... s g.D.V.k.( H R H R R W 1.1.R N   E..X.X      ",
"          d.= d.V.V.V.V.V.d.P R V.V.b.z.;.>.,.).).(.).&X&XXXw.u.$X+X*X@.O p / ] _ _ s.a.d.d.z.g.7.6.! W R { } [..X      ",
"          r 6 b.V.V.V.V.V.4.W P V.V.u.>.>.oX-XoXU.].!.[.{.~.z.m.7X+X|.].P.h w M ] B.c.A.A.7X7XA.e.>X/.~.!.Y.^.          ",
"          5 S V.V.V.V.V.e.r.;.T l.z.!.-XhXxXxXzXqX9Xu.u.i.y.h.h.<.%.#.*.[.U.%.R.~.%XXXXXoXoXoXoXXXoXXX[.!.(.<.          ",
"        a.1 x.V.V.V.V.V.[..Xw.I a.8.[.fXMXmXbXbXlXB.Z.s.' ) ) ) ~ Z Z S S E.&X+X'.{.{.'.(.c.H.u.i.u.u.u.8.Y !           ",
"        A 5 x.V.V.V.V.x.XXXX! I h.y.XX;X;X-X-XyX4XE E Q ) f.f.d.` / ' k.( K /.%XS.i.u.#X!.9.k.N.N.N.N.N.h.1.I           ",
"        r r V.V.V.V.V.V.[.~.I 7.f.x.[.{.9X).U.1.[ a.3XyXrXM.a.Q ) a.n.V.a.U Y.$XN.N.m.c. X;.J Q z.V.V.C.x.1.Y           ",
"        5 A V.V.V.V.V.V.#X[.1.9.w.$XoXoX8X(.=.,XpXkXxXbXtXl.E ) f.eXeXV.f.,.'.).B.C.N.c.+X!.D A P c.V.C.x.9.T           ",
"        5 R V.V.V.V.x.V.y.~.oXXX X7Xy./.Y.,.-XzXmXMXnXjXeXa.a.Z.rXkXiXV.m.7X}.<._ B.N.u.'.oX7.D D 0.v.C.V.c.T           ",
"        r H V.V.x.V.x.t.(.;.Q.).u.l.( T e.yXzXMXmXbXlXrXa.Q f.eXxXbXiXV.m.6XXXY K _ m.e.XXu.V.0.P R 5.b.C.v.T           ",
"        5 1 a.V.4.d.V.oXY S Q g.B.) A R n.kXmXnXbXjXrXh.E a.eXxXnXxXaXV.m.6X{.Q.:.;.(.$Xu.N.C.v.W b P g.C.c.P           ",
"        t = , D V x.V.~.S P V.W g.R P 3.V.jXxXjXuXrXV.a.a.x.jXnXxXjXuXV.m.c.oX{. X}.Y.q.m.V.V.V.9.D D 9.D.b.D           ",
"          v -.W.Y.T.-.W.L V.x.k L D T g.V.eXrX2Xb.V.x.Q p.wXcXbXlXjX2Xl.V.N.c.>X_.:.U 0.b.V.V.V.v.7.D ! v.b.D           ",
"            U.+X+X[.L. .a e B 7 6 n l 5.C.n.n.n.V.V.l.Q p.uXcXxXlXjX2Xl.V.V.C.f.! R A ~ b.V.V.V.D.9.u H c.v.D           ",
"            [.+X XXXY.@.$.q , 6 = 9 y 5.C.V.V.V.V.V.x.a.f.uXxXkXkXuXb.b.V.V.C.l.6.I D R z.C.V.V.D.3.e D v.V.H           ",
"            +X+XXXoXI. ...      < 0 y 3.C.C.V.V.V.V.x.a.f.eXjXkXaXv.x.V.V.V.V.x.9.Y R D 0.C.V.V.D.3.e H v.l.A           ",
"           XXXXXXXI. .| #.      S c 5 L v.V.V.V.V.V.a.Q l.V.uXjXeXn.V.V.V.V.V.V.9.Y S v 4.C.V.V.D.3.e H c.4.n           ",
"          ].L. .| |  ...L.        S = y y.b.V.V.V.b.` ) b.V.eXrXV.V.V.V.V.V.V.V.9.Y t r 4.D.V.V.D.0.y H 5.S             ",
"        @.@.#.@.@.@.@.L.            , 6 8.v.V.V.V.b.` h.V.V.V.V.V.V.V.V.V.V.V.V.9.Y y 0 4.D.V.V.F.9.u K H 5             ",
"                                    u 7 l z.V.V.V.b.` j.V.V.V.V.V.V.V.V.V.V.V.b.9.Y y 0 4.D.V.M.D.! t K m               ",
"                                      n 6 I F.F.C.b.A R V.V.V.V.V.V.V.V.V.V.V.V.z.1.t 0 4.D.V.D.V.S r c 9               ",
"                                        u w 7.D.F.V.l Z x.C.V.V.V.b.V.V.V.V.V.b.9.Y e 0 4.D.V.D.h.b 8 q                 ",
"                                          r 9 B z.G.9.r Q D.V.V.V.V.V.V.V.V.C.x.6.y 5 r 9.v.x.h.G 5                     ",
"                                            0 , e W 5.q A C.D.V.V.V.V.V.V.C.D.x.Y 6 2 H 0.g.~ v 5                       ",
"                                                < - 6 - 8 h.G.D.C.C.C.C.v.v.v.y.S 7 0 J S m r 1                         ",
"                                                  : 4 : - v a.d.a.a.a.f.g.9.! P 9 > 9 G 8 ;                             ",
"                                                            9 9 q q 8 c A Z r 5 <                                       ",
"                                                            - ; ; ; ; = < < = ;                                         "
};
