/* XPM */
static char *d4f0cf47bb694425cf22b3e995484bb44qMJQNhsQepMExFf[] = {
/* columns rows colors chars-per-pixel */
"50 85 151 2 ",
"   c None",
".  c #5C3D21",
"X  c #603F23",
"o  c #5F4024",
"O  c #614225",
"+  c #684726",
"@  c #654629",
"#  c #68472A",
"$  c #67482A",
"%  c #6B4C2D",
"&  c #6E502F",
"*  c #6E4F30",
"=  c #6E5031",
"-  c #735434",
";  c #755837",
":  c #7A5A36",
">  c #775A39",
",  c #7A5D3A",
"<  c #7E613E",
"1  c #7F6440",
"2  c #803F0C",
"3  c #82400C",
"4  c #93490E",
"5  c #964C10",
"6  c #9D5217",
"7  c #9C5319",
"8  c #A2561A",
"9  c #815F38",
"0  c #A75B20",
"q  c #82633D",
"w  c #89693F",
"e  c #AD6124",
"r  c #AF6428",
"t  c #B16426",
"y  c #B26629",
"u  c #B66C31",
"i  c #B96E33",
"p  c #BD7235",
"a  c #BD7338",
"s  c #C07539",
"d  c #C2783D",
"f  c #816441",
"g  c #856A44",
"h  c #8B6D44",
"j  c #876B48",
"k  c #896E49",
"l  c #8D7146",
"z  c #8D734B",
"x  c #907447",
"c  c #92754B",
"v  c #95794E",
"b  c #957B52",
"n  c #997E53",
"m  c #C77D42",
"M  c #C97E44",
"N  c #9D8457",
"B  c #9B8156",
"V  c #9E8558",
"C  c #9F8659",
"Z  c #9E8659",
"A  c #9F865A",
"S  c #9F875A",
"D  c #9C845A",
"F  c #9F885D",
"G  c #A08659",
"H  c #A0855A",
"J  c #A0865A",
"K  c #A0875A",
"L  c #A1865B",
"P  c #A0875B",
"I  c #A1885B",
"U  c #A0895B",
"Y  c #A1895C",
"T  c #A1885D",
"R  c #A2895D",
"E  c #A38A5D",
"W  c #A1895F",
"Q  c #A3895E",
"!  c #A18A5F",
"~  c #A38B5E",
"^  c #A4895E",
"/  c #A48B5E",
"(  c #A48B5F",
")  c #A48A5E",
"_  c #A38C5F",
"`  c #A48C5E",
"'  c #A58C5F",
"]  c #A68D5F",
"[  c #A68E5F",
"{  c #A2895E",
"}  c #A38B61",
"|  c #A58C60",
" . c #A58D60",
".. c #A48C61",
"X. c #A58C61",
"o. c #A68D60",
"O. c #A58E60",
"+. c #A68E61",
"@. c #A78E61",
"#. c #A48E63",
"$. c #A78F63",
"%. c #A48D62",
"&. c #A88F62",
"*. c #A88F63",
"=. c #A88F64",
"-. c #A79065",
";. c #A89062",
":. c #A89063",
">. c #A89163",
",. c #A99164",
"<. c #A99065",
"1. c #AA9165",
"2. c #AA9365",
"3. c #AA9266",
"4. c #AB9266",
"5. c #AB9366",
"6. c #AB9367",
"7. c #A99265",
"8. c #AB9468",
"9. c #AC9468",
"0. c #AC9469",
"q. c #AD9569",
"w. c #AE9669",
"e. c #AD966A",
"r. c #AE966A",
"t. c #AE966B",
"y. c #AE976B",
"u. c #AF976B",
"i. c #AF976C",
"p. c #AC956A",
"a. c #AF986C",
"s. c #AF986D",
"d. c #B0986B",
"f. c #B0996D",
"g. c #B1996E",
"h. c #B19A6E",
"j. c #B29B6F",
"k. c #B19A6E",
"l. c #B29B70",
"z. c #B39C70",
"x. c #B39C71",
"c. c #B49C71",
"v. c #B49D71",
"b. c #B49D72",
"n. c #B59E72",
"m. c #B59E73",
"M. c #B69F74",
"N. c #B49D72",
"B. c #CA8146",
"V. c #CE8449",
"C. c #D1874C",
/* pixels */
"                                                                                                    ",
"                                                                                                    ",
"    f                                                                                               ",
"  < l.f     ,                                                                                       ",
"    f 6.f f M.,                                                                                     ",
"      , Y M.<                                                                                       ",
"      < x.>.M.f                                                                                     ",
"      < N b.6.f                                                                                     ",
"      > u.' b.6.<                                                                                   ",
"    - u.n i.@.M.f                                                                                   ",
"      ; 6.L h.>.<                                                   -                               ",
"        % @.L b.@.q                                       ,       > u.,                             ",
"        * v 6.C M.@.,                                   < u.< q q @.>                               ",
"          = B u./ ;                     f                 q h.@.u.;                                 ",
"          = / N x.-             ,     f l.<             , h.' a.B ;                                 ",
"          = x 6.L *           , M.f f 6.f         ;   > h.' u.B C ;                                 ",
"          - B n h.%             < M.Y ,         - &.; h.I >.B n ;                                   ",
"        % @.h / B % $         f M.>.x.<         - >.h.I &.n v &                                     ",
"          % n v u.L b.%       f 6.b.N <         - h.C 6.v n h l -                                   ",
"            = I B h.%       < 6.b.' u.>         - N u.c l @ % %                                     ",
"            $ v &.B %       f M.@.i.n u.-     - Y 6.x n @                                           ",
"            $ n n 6.%       < >.h.L 6.;   - - / u.x B h @                                           ",
"          # @.h Y v %     q @.b.L @.%   % h.I 8.x L h @                                             ",
"            O x x Y n O , @.M.C 6.v *     % u.x C q O                                               ",
"            O q v h O     ; / u.B =       % c Y w l : O                                             ",
"            O h q O       - x.N / =     @ x @.w z O O                                               ",
"          O n O O       1 * L 6.x =     O _ w z X           q                                       ",
"            O f @     ; @.% h.n B -     . O g + 5 4 < e 8 q u.;                                     ",
"            = } >   ; Y $ % B / h @.%   . q X u p : M.q q @.;                                       ",
"  f         - } ; ; B % x.C u.v n %     % B $ * - , 6.b.' ;                                         ",
"< l.f     ,   > @.b =   % h.B I =       % B % C , 8.x.' d.>                                         ",
"  f 6.f f M., > @.b %   % B &.v $ $   = C = l O , x.Y u.x Y -                                       ",
"f g , Y M.<   ; @.b %   % 6.n n $ n @ - Y - . ; x.@.6.x - -                                         ",
"6.-.< x.>.M.f ; @.-     % v Y h @.# v - #.- u ; 8.u.n % 6 3                                         ",
"= = < N b.6.f ; @.-   O n Y x x O $ c = - i.; 6.u.B B % 7 3                                         ",
"    > u.' b.6.< @.-     O h v q O $ z % @.- 6.i.F B g z % 4                                         ",
"  - u.n i.@.M.f @.-       O q h O @ z Y & ; a.Y Y h $ % 4 4                                         ",
"    ; 6.L h.>.< @.< 1       O O n O g Y = > =.@.v $ 3 4 4 4                                         ",
"      % @.L b.@.< @.@.- >   @ f O #.#.k - -.6.B n $ 2 4 4 4                                         ",
"      * v 6.C M.@., = Y ; & > } = % % 6.> 8.C B $ V.2 4 4 4                                         ",
"        = B u./ ; - - @ B ; ; } - $ C - u.Y Y l @ V.2 4 4 4                                         ",
"        = / N x.- -     = b @.>   $ B ; @.@.v z h @ - ; 4 4                                         ",
"        = x 6.L * -     % b @.>   ; ; Y 6.n v @ @ n @ @.- 4                                         ",
"        - B n h.% -   > % b @.; ; l.T 6.n C w O C @ = = @.;                                         ",
"      % @.h / B % $   ; n - @.; v ; 8.n Y l @ f $ B.3 4 = 4                                         ",
"        % n v u.L b.% n $ - @.; v O - @.z x O 6.f B.3 4 4 4                                         ",
"          = I B h.% % < , - @.- v > $ z v 9 O * V.B.2 4 4 4                                         ",
"          $ v &.B % 1 6.6.> @.% ; B $ v 9 O h O V.V.2 4 4 4                                         ",
"        g $ n n 6.f 6.* * -.; % c @ @ O O . O 2 V.V.2                                               ",
"      k # @.h Y v % * O   * 6.; c O O < o     2 V.V.2                                               ",
"    g 6.% O x x Y n O O   - * Y , @ = n %     2 V.V.2                                               ",
"      -   O q v h O g O   - * Y C % C -       2 B.V.2                                               ",
"          O h q O C 1 O   - } @ n % Y -       2 V.M 2                                               ",
"        O n O O @ B < 1 < - } @ n $ Y =       2 V.B.2                                               ",
"          O f @ < % ; @.@., Y @ v $ } =       2 V.V.2                                               ",
"          = } > . ; Y = % % Y @ z } =       < < < V.2                                               ",
"          - } ; ; B @ n % % F z % } -   5 , 6.6.5.g t e 8 4                                         ",
"            g j g = O n % % C @ % -.-   , 6.= = = 9.f 0 4 4                                         ",
"          g #.#.-.k O b * @ C @ % -.= ; C = B.V.V.: M p r 4                                         ",
"g g     k -.1 , , 6.< @ z o n @ = @.= b % y i V.C.V.V.i s 4                                         ",
"-.-.<     g ; @.- - -.< z o n > @.- z $ 8 0 B.V.C.V.B.M i 4                                         ",
"= $ @.<     ; @.-   - @.- o b , @.- k $ 6 e C.C.C.C.V.B.7 4                                         ",
"    @ } >   = } -   - @.- o b , @.- $   3 8 u a d u m 8 6 3                                         ",
"      @ B ; % @.-     $ } ; z , Y -     2 3 7 f f f f 8 7 3                                         ",
"        @ c % @.-     @ } ; g > F -     4 4 , -.6.6.6.g 4 4                                         ",
"        O c % @.-     $ } - f > C - k   4 1 #.; ; > > 6.f 4                                         ",
"        @ c @ } -     . O F % C = % 6.g , } - 3 3 3 3 > 6.,                                         ",
"          O z } -       O C % C =   - , Y - 4 2 V.B.2 4 ; 4                                         ",
"          O z } -     1 O B % C =     , T - 4 2 V.V.2 4 4 4                                         ",
"          O z } -     < O B % C =   > n O 4 4 2 V.V.2 4 4 4                                         ",
"          O z Y -   > B % o z C *   > n O 4 4 2 V.V.3 4 4 4                                         ",
"          @ z Y %   > n $ o z C %   - n O 4 4 2 B.V.3 4 4 4                                         ",
"          @ z F % % n $   O k B $ * v O 4 4 4 2 B.V.3 4 4 4                                         ",
"            @ C % % n O   o g B @ % c O 4 4 4 2 V.B.3 4 4 4                                         ",
"            @ C @ * b O   o f B @ % z O 4 4 4 2 V.B.3 4 4 4                                         ",
"            @ n o z @       o B @ k o   4 4 4 2 V.B.2 4 4 4                                         ",
"            O n o z O       o n O g o   4 4 4 2 V.V.2 4 4 4                                         ",
"            O b o k O       . b o g o         2 V.V.2                                               ",
"            . b o g O       . b , o           2 V.V.2                                               ",
"            . z . f O       . c , .           2 V.V.2                                               ",
"            . g . < @       . z , .           2 B.V.2                                               ",
"            . < . < @       . z , .           2 V.M 2                                               ",
"            . . . . .       . q .             2 V.B.2                                               ",
"                            . , .             2 V.V.2                                               ",
"                            . @ .             2 V.V.2                                               "
};
