/* XPM */
static char *result[] = {
/* columns rows colors chars-per-pixel */
"50 85 90 1 ",
"  c #5C3D21",
". c #603F23",
"X c #5F4024",
"o c #614225",
"O c #684726",
"+ c #654629",
"@ c #68472A",
"# c #67482A",
"$ c #6B4C2D",
"% c #6E502F",
"& c #6E4F30",
"* c #6E5031",
"= c #735434",
"- c #755837",
"; c #7A5A36",
": c #775A39",
"> c #7A5D3A",
", c #6C6530",
"< c #716935",
"1 c #7E613E",
"2 c #776E3A",
"3 c #796F3C",
"4 c #7C723F",
"5 c #7F6440",
"6 c #803F0C",
"7 c #82400C",
"8 c #93490E",
"9 c #954B10",
"0 c #9D5217",
"q c #9C5319",
"w c #A2561A",
"e c #815F38",
"r c #A75B20",
"t c #82633D",
"y c #89693F",
"u c #AD6124",
"i c #AF6428",
"p c #B16426",
"a c #B26629",
"s c #B66C31",
"d c #B96E33",
"f c #BD7235",
"g c #BD7338",
"h c #C07539",
"j c #C2783D",
"k c #816441",
"l c #856A44",
"z c #8B6D44",
"x c #876B48",
"c c #896E49",
"v c #837645",
"b c #8D7146",
"n c #857A47",
"m c #8D734B",
"M c #8B7D4C",
"N c #907447",
"B c #92754B",
"V c #95794E",
"C c #957B52",
"Z c #997E53",
"A c #C77D42",
"S c #C97E44",
"D c #8C814E",
"F c #948354",
"G c #9C8256",
"H c #9D855A",
"J c #968F58",
"K c #9D8B5C",
"L c #9C915D",
"P c #A0865A",
"I c #A28A5E",
"U c #A48D62",
"Y c #A88F63",
"T c #A69165",
"R c #A99265",
"E c #A79A66",
"W c #AD956A",
"Q c #AF9A6D",
"! c #B19A6E",
"~ c #B49D72",
"^ c #A9A26A",
"/ c #B3A26F",
"( c #AFA870",
") c #B5A373",
"_ c #B6AC76",
"` c #B7B077",
"' c #CA8146",
"] c #CE8449",
"[ c #D1874C",
"{ c None",
/* pixels */
"{{{{{{{{{{{{{{{{{{{{{{{{{{{{{{{{{{{{{{{{{{{{{{{{{{",
"{{{{{{{{{{{{{{{{{{{{{{{{{{{{{{{{{{{{{{{{{{{{{{{{{{",
"{{{{{{{{{{{{{{{{{{{{{{{{{{{{{{{{{{{{{{{{{{{{{{{k{{",
"{{{{{{{{{{{{{{{{{{{{{{{{{{{{{{{{{{{{{{{{{{{>{{k~t{",
"{{{{{{{{{{{{{{{{{{{{{{{{{{{{{{{{{{{{{{{{{{>~ktWk{{",
"{{{{{{{{{{{{{{{{{{{{{{{{{{{{{{{{{{{{{{{{{{{1~I>{{{",
"{{{{{{{{{{{{{{{{{{{{{{{{{{{{{{{{{{{{{{{{{{k)R~1{{{",
"{{{{{{{{{{{{{{{{{{{{{{{{{{{{{{{{{{{{{{{{{{kR~G>{{{",
"{{{{{{{{{{{{{{{{{{{{{{{{{{{{{{{{{{{{{{{{{kR~IW;{{{",
"{{{{{{{{{{{{{{{{{{{{{{{{{{{{{{{{{{{{{{{{{k~U!ZW={{",
"{{{{{{{{{{{{{{{={{{{{{{{{{{{{{{{{{{{{{{{{1R!PY-{{{",
"{{{{{{{{{{{{{{>W>{{{>{{{{{{{{{{{{{{{{{{{tY~PY${{{{",
"{{{{{{{{{{{{{{{>Yt11W1{{{{{{{{{{{{{{{{{>U~PYV&{{{{",
"{{{{{{{{{{{{{{{{=WYQt{{{{{{{{t{{{{{{{{{{;I!Z&{{{{{",
"{{{{{{{{{{{{{{{{;G!I!>{{{{{{1~k{{>{{{{{{=~GU={{{{{",
"{{{{{{{{{{{{{{{{=PGWI!;{-{{{{tWkk)>{{{{{&PYN&{{{{{",
"{{{{{{{{{{{{{{{{{-GGIP!=Y={{{{>I)1{{{{{{$!ZG={{{{{",
"{{{{{{{{{{{{{{{{{{%VGYI!I={{{{>~R~k{{{{$$PIzU${{{{",
"{{{{{{{{{{{{{{{{{=zyZVRP!={{{{tH~Rk{{{$~PWVV${{{{{",
"{{{{{{{{{{{{{{{{{{%$ONBWP={{{{;WU~Rt{{{$!GI*{{{{{{",
"{{{{{{{{{{{{{{{{{{{{{OZNWP={{=WZ!I~k{{{$PIV${{{{{{",
"{{{{{{{{{{{{{{{{{{{{{OzGBWP=*{-RP!Yt{{{$RVZO{{{{{{",
"{{{{{{{{{{{{{{{{{{{{{{ozPNWI!${$UP~Yk{{$VPzY@{{{{{",
"{{{{{{{{{{{{{{{{{{{{{{{otPNW${{&VWP~Ue.ZINV.{{{{{{",
"{{{{{{{{{{{{{{{{{{{{{{o;btPV${{{%Z!P={{ozCt.{{{{{{",
"{{{{{{{{{{{{{{{{{{{{{{{ooNyIVo{{=IP~={{{ tz.{{{{{~",
"{{{{{{{{{{{{{{{{{{{t{{{{{.NtUo{{&VYP$k{{{oXZo{{{{{",
"{{{{{{{{{{{{{{{{{~;!kwue89Oyoo{{&ZZ!$Y-{{#5 {{~{{{",
"{{{{{{{{{{{{{{{{{~{-Ytt);fs to{$YzIP$$I-{:U&{{~{{{",
"{{{{{{{{{{{{{{{{{{{{;I~W>=&OG${{$VVWP~$Z--U&{{{~k{",
"{{{{{{{{{{{{{{{{{{{{;!I!W>H$G%{~~%PG~${&CU>{>{{k~1",
"{{{{{{{{{{{{{{{{{~{=INWI~;Ob*H*{$@VUG&{$CU>>~kkRt{",
"{{{{{{{{{{{{{{~{{~{{=%NWU~- *U=+C@ZVW${$CU-{1~I>ll",
"{{{{{{{{{{{{{{{~{{{~6w$ZWW-s=U=V@UzPV%{{*T-k~R~1UR",
"{{{{{{{{{{{{{{{{{{{~60$HZWR-W==B$.VNIZo{*U-kR~H1&&",
"{{{{{{{{{{{{{{{{{{!F8$NtZIWR=U$mO tVzo`_=UtY~UW>)`",
"{{{{{{{{{{{{{{{{{~{H88$$zII!-&Uc+ozt.``)=Uk~UWZW=`",
"{{{{{{{{{{{{{{{{{{~n8886$VUY>&IloZ  ~`)t1U1Y!PY;_`",
"{{{{{{{{{{{{{{{{{{~U8886@VHYT=xUUo5+);-YYtI~PU&_``",
"{{{{{{{{{{{{{{{{{{{R8886[@HPW;Y&&&U:*=I=eY~PWV*_``",
"{{{{{{{{{{{{{{{{{{{F888O[+zIIW=H@*U:=C#===UWZ*`)_`",
"{{{{{{{{{{{{{{~{{{{W88;;+zNCUU-Z#`:UC&`~==~HI*`))_",
"{{{{{{{{{{{{{{{~{{Tn8=POZ+oCZRU=-_:UM&__=&HRB&`_)_",
"{{{{{{{{{{{{{{{){{H3;I%%oIozHZRU~=:UC&:_*&!ZZ&`_)`",
"{{{{{{{{{{{{{{{{{{,P8%87'$5ocIZR-C-U*G-_@$ZIbU%`_`",
"{{{{{{{{{{{{{{{{{{,Y8887SkYoBbU=oB-U*#C&~P!VZ$_```",
"{{{{{{{{{{{{{{{{{{,,8886S]&oeBc$:B*U-15&$~ZI%)_```",
"{{{{{{{{{{{{{{{{{!2,8886]].zoeV$G-*U:RT5&ZYV@))``)",
"{{{{{{{{{{{{{{{{{Q<2/`_6]]6Oooo++B&:T&&WkYZZ+x~``)",
"{{{{{{{{{{{{{{{{~v,D))_6]]6_` 5XoB-U&)o*&VIzU#c``~",
"{{{{{{{{{{{{{{{{{,,_`~_6]]6_`&Z&+>I&-)o ZIBB &Tx``",
"{{{{{{{{{{{{{{{{{,,(`_)O]S7```=H&HU&=_Xl.zCk _=`))",
"{{{{{{{{{{{{{{{{{,,_``_6j]6```=K#Z+U-`X5P.ez+```_~",
"{{{{{{{{{{{{{{{{{{,~_`_6]]6```*I#CXU*555Z@..Z _``)",
"{{{{{{{{{{{{{{{~{~nR)_)6]]7/``%I#B+U:TU=#1@k `~_`)",
"{{{{{{{{{{{{{{{~{~WMQ_)6]tte)``=Uc+K&&&U- :U&)))__",
"{{{{{{{{{{{{{{{{{~FK8wpplWRR19_=U#mU$&C+C::U*)_))_",
"{{{{{{{{{{{{{{{{{~,v88rkW***R1)=T*+H$$CX&xxx~_`~_~",
"{{{{{{{{{{{{{{{{{~{L8pfS;[]S&H;&T$+H+&C+cTTUx``_)`",
"{{{{{{{{{{{{{{~{{~FF8gd]S[]da$C*T&+CXc+5T>>5Tx`_xx",
"{{{{{{{{{{{{{{{~{{FU9dSS[[[Srw@m=T:CXc5T=*T-x`_1TT",
"{{{{{{{{{{{{{{{{{{FK8q]S[[[[i0@c=T:CX=T=`=T=))1U#*",
"{{{{{{{{{{{{{{{{{{WC6qrAsAhsw6`#=T5MX=U=`=T*`:U+)`",
"{{{{{{{{{{{{{{{{{~{K6qqktttw6O`)=K:m:U#~`*U&-Zo__`",
"{{{{{{{{{{{{{{{{{{UL88lRRRT>89`~:K:5:T#)`=T&C.`_)`",
"{{{{{{{{{{{{{{{{{{KR8kR:---T58`c*H:5=U#)`=U$C+````",
"{{{{{{{{{{{{{{{{{{,R>R:7677*U>xT$*H$K. _`=U+C.`)``",
"{{{{{{{{{{{{{{{{{{,E8-86S]69&U>-`*H$Z+__`*Tc._`)``",
"{{{{{{{{{{{{{{~{{,3W8886[[68*U>``*H$HX5~`=Ux._`))_",
"{{{{{{{{{{{{{{{~{<KJ8886[j689 C:`*H$H 5_)=UC#)`_)_",
"{{{{{{{{{{{{{{{~{<Q_8886[[688oZ:_&HmX$Z:~*Um.)__)`",
"{{{{{{{{{{{{{{{{{,L)8887[jO88.C=)&HmX+H:)&Km#)_`_`",
"{{{{{{{{{{{{{{{{{,(/8887[]6888.V&#HxX`#C&@IM+)_```",
"{{{{{{{{{{{{{{{{{,^`8887j[6898.V&+HxX`XC&&H#`)_``_",
"{{{{{{{{{{{{{{{{{Fy(8887]]6888.b&XK5X`XC&+Ho`))`__",
"{{{{{{{{{{{{{{{{{E<K8886][6888).c+ZX```#m G+`))``)",
"{{{{{{{{{{{{{{{{~{,<8886]'6888!.xXZX`)`XcXZX`_)``~",
"{{{{{{{{{{{{{{{{{{,,(!`7]]6``_!oxXC `))+c CX`))```",
"{{{{{{{{{{{{{{{{{{,,(_/6]]6```!_ :C `_`Xx C )__`~_",
"{{{{{{{{{{{{{{{{{{,<_`_6]]7```/` -C ```X5 m ~```_)",
"{{{{{{{{{{{{{{{{{{{WE``7]S6````` >M ~``+5 x )````)",
"{{{{{{{{{{{{{{{~{{MIE`/7A]7_```` >c __~+> > _``_`_",
"{{{{{{{{{{{{{{{~{{WDJ`)6]]7_````` > _`~     _)`))`",
"{{{{{{{{{{{{{{{{{~KKI``6]]7/````` ; ``_)_```)_``)_",
"{{{{{{{{{{{{{{{{{~{nQ``O]]7/`````.+ ```)````)__`_~"
};
