/* XPM */
static char *fe7369d7facd49fe8317f6d23dd2e2995FXlrh0AbZfQK66C[] = {
/* columns rows colors chars-per-pixel */
"55 55 174 2 ",
"   c None",
".  c #192F11",
"X  c #1D3518",
"o  c #243F0B",
"O  c #223A17",
"+  c #001F35",
"@  c #0E2A2E",
"#  c #0C282A",
"$  c #0E3026",
"%  c #13362F",
"&  c #153B2F",
"*  c #183928",
"=  c #002235",
"-  c #002F35",
";  c #153B31",
":  c #153838",
">  c #1A2D2A",
",  c #27400C",
"<  c #33500C",
"1  c #29441E",
"2  c #3D611B",
"3  c #1C422C",
"4  c #1E4F2F",
"5  c #174134",
"6  c #1A4434",
"7  c #1A4934",
"8  c #1B473D",
"9  c #1E4A38",
"0  c #1D533C",
"q  c #1F573A",
"w  c #264929",
"e  c #2D562E",
"r  c #33552A",
"t  c #284A38",
"y  c #235633",
"u  c #235B34",
"i  c #20563D",
"p  c #285839",
"a  c #31523E",
"s  c #385B34",
"d  c #364B2C",
"f  c #266435",
"g  c #2A6C3D",
"h  c #296539",
"j  c #3C6534",
"k  c #376634",
"l  c #2F7B39",
"z  c #327B37",
"x  c #40541F",
"c  c #465939",
"v  c #537523",
"b  c #406731",
"n  c #467D3C",
"m  c #487839",
"M  c #5C7C30",
"N  c #4C682B",
"B  c #1B2D50",
"V  c #233677",
"C  c #1B4D44",
"Z  c #2A4B43",
"A  c #215C44",
"S  c #315247",
"D  c #315248",
"F  c #3F5F49",
"G  c #314D57",
"H  c #294E53",
"J  c #246544",
"K  c #256843",
"L  c #2E6C46",
"P  c #2B6644",
"I  c #277345",
"U  c #2B7543",
"Y  c #2E7A43",
"T  c #367541",
"R  c #207750",
"E  c #207760",
"W  c #405B59",
"Q  c #495743",
"!  c #4B6A42",
"~  c #5E6A44",
"^  c #626D43",
"/  c #6C7448",
"(  c #687146",
")  c #746B5E",
"_  c #645D79",
"`  c #5C7C60",
"'  c #446579",
"]  c #4B6D6A",
"[  c #766972",
"{  c #A63010",
"}  c #836235",
"|  c #CA5A19",
" . c #877666",
".. c #398F34",
"X. c #34853D",
"o. c #368A3C",
"O. c #388E3C",
"+. c #3B983C",
"@. c #3C9839",
"#. c #65821B",
"$. c #4B843C",
"%. c #4B853C",
"&. c #57893C",
"*. c #5F903C",
"=. c #648738",
"-. c #789A38",
";. c #6D8A2A",
":. c #42A436",
">. c #43A837",
",. c #40A23D",
"<. c #45AD3D",
"1. c #4AB634",
"2. c #2F8045",
"3. c #2F8348",
"4. c #368B46",
"5. c #328446",
"6. c #3D9A40",
"7. c #39A458",
"8. c #468141",
"9. c #598745",
"0. c #5B8950",
"q. c #728B42",
"w. c #63824C",
"e. c #42A742",
"r. c #60BE51",
"t. c #6C8D71",
"y. c #7AA87C",
"u. c #72C254",
"i. c #83AC3D",
"p. c #84A63C",
"a. c #9AA62F",
"s. c #86E23C",
"d. c #B7E23C",
"f. c #829B57",
"g. c #81985C",
"h. c #8B9E5E",
"j. c #83AE40",
"k. c #93BB41",
"l. c #9F8577",
"z. c #A98B7C",
"x. c #E99B65",
"c. c #DDB568",
"v. c #2F5293",
"b. c #3C5890",
"n. c #3B58AA",
"m. c #5B7C8F",
"M. c #527197",
"N. c #43658C",
"B. c #5373B0",
"V. c #517FCC",
"C. c #4B70D4",
"Z. c #5F8082",
"A. c #609B93",
"S. c #5F8CAD",
"D. c #5C9ABA",
"F. c #70ABB1",
"G. c #6CB4BA",
"H. c #5E91DD",
"J. c #5685C6",
"K. c #6496D7",
"L. c #7CB7D9",
"P. c #6EA9E7",
"I. c #7CB8E6",
"U. c #6CB1F5",
"Y. c #7AC1F5",
"T. c #83A788",
"R. c #C8B4A0",
"E. c #FBDB8D",
"W. c #FBEA98",
"Q. c #85B9EF",
"!. c #8BD1CF",
"~. c #88DDEF",
"^. c #86CFED",
"/. c #AEEAF8",
/* pixels */
"                                                                                a a a -                       ",
"                              D D                                             a R R R R -                     ",
"                            D r.f.D                                     a a a R R R R a a                     ",
"                            D r.r.D                               a a a R 7.7.R 7.7.R R R a   a -             ",
"                          D f.r.f.9.D                           a R 7.7.R u.7.7.7.7.R R R a a R R -           ",
"                          D s.r.f.f.D                         a R 7.u.R 7.u.u.7.7.7.7.7.R R R R R R -         ",
"                        D f.s.r.f.9.9.D                       a R a R a u.u.d.d.u.7.u.u.7.R R R R a a         ",
"                        D s.r.r.f.9.9.D                         - - a R u.u.d.d.u.u.d.u.7.R 7.7.R R R a       ",
"                      D f.r.r.f.f.9.9.9.D                         a R 7.7.u.u.u.u.7.d.u.7.7.7.R 7.7.R R a     ",
"                      D f.r.r.f.f.f.9.9.9.D                     a R 7.7.7.u.7.u.7.7.7.u.7.u.7.R 7.R 7.R a a   ",
"                    D f.r.r.r.f.9.9.9.9.9.D                       - R 7.R 7.7.7.R R 7.7.R 7.R R R R R R R R - ",
"                  D f.r.r.f.r.f.9.9.9.f.9.9.D                       - a R 7.R R R R 7.R R 7.a R R a R R a - - ",
"                D f.r.s.f.f.f.9.9.9.9.f.f.L L D               a a a - a a R 7.R 7.R R R a R a a R a - R a     ",
"                + f.s.f.9.f.r.f.9.L 9.9.f.9.D +             a R 7.7.R R a R R R 7.a R R a a a - R -   - -     ",
"                  + D 9.f.9.r.L 9.L 9.D L + +           a a 7.u.7.u.7.R R R R R R a a R a R R a - -           ",
"                    + D D 9.f.D L D L D + L +         a R 7.u.u.7.u.7.R u.d.7.7.R R R R R 7.7.7.R a           ",
"                  D 9.9.f.D D 9.D L + L L L L D       - R R R 7.7.R R 7.d.d.u.7.R 7.R R 7.R 7.7.R R -         ",
"                  D 9.f.r.r.f.f.9.L L 9.L L 9.D         - a R a R a 7.7.u.u.u.7.7.7.7.R R R 7.R a - -         ",
"                D f.f.r.r.r.r.f.f.9.9.9.9.9.9.9.D         - a a R a 7.7.7.u.7.7.7.7.R R a R R a a a a a       ",
"            D D s.r.r.s.r.f.f.f.9.9.9.9.f.9.9.9.f.D   a a a a R 7.R 7.R 7.7.7.R 7.R R a a a R a R 7.7.R a -   ",
"            D r.L f.s.r.9.f.f.9.f.9.9.9.f.f.9.L 9.D + R 7.7.R R 7.R R R 7.R R R R a R a R R a R R 7.7.7.R a - ",
"              + D r.r.9.f.f.r.9.f.f.9.9.9.9.f.9.D D + 7.u.u.7.R R R R R R R R R a a a a a R R R R R 7.R 7.R a ",
"                + D 9.f.D 9.r.f.9.f.L 9.D D L + + + 7.u.u.u.7.7.R R 7.7.R 7.R R a a a a R 7.7.7.7.R R R R R R ",
"              D D f.9.D 9.9.f.D 9.9.D 9.+ L + L + 7.R u.7.u.7.R R 7.u.u.7.7.7.7.R R a a 7.u.u.7.7.R a R a R R ",
"            D 9.9.f.f.f.f.9.9.9.D D L + L L 9.L L D a 7.7.u.R R a R u.u.u.u.7.7.7.R R a 7.u.u.7.R 7.a a - R - ",
"            D r.r.f.r.f.r.f.f.9.f.9.9.L L 9.9.L L L D R a 7.R R - R 7.u.u.7.u.7.7.R a R R 7.R 7.R R a -   -   ",
"          D 9.f.r.s.r.f.r.r.f.f.9.9.9.9.L 9.f.9.9.+ + - a R a R a - R 7.u.7.7.7.R R a R R a a R a a - -       ",
"        D f.r.r.s.s.r.f.f.r.9.f.f.9.9.f.9.9.9.f.9.9.L D - R a R a a R R 7.R 7.R R a a a R a R a a -           ",
"      D r.r.r.f.s.r.f.f.9.f.9.f.f.9.9.9.9.L 9.9.9.L L L D a R R R R R 7.R R R a R - a a R R R R R a - -       ",
"      + 9.f.s.f.f.f.f.f.9.f.9.9.f.9.9.9.9.9.9.L 9.f.f.L D R u.7.7.R 7.u.7.7.R a - a a a R 7.7.7.R R R a a     ",
"        + 9.f.9.9.r.r.f.9.9.9.9.9.9.9.9.9.9.L L D D L L + u.u.u.7.7.7.u.u.7.7.R R a R R 7.u.u.7.7.R R a R a   ",
"        D + D L 9.s.f.9.f.9.9.f.9.9.9.9.9.f.L D + D + + R u.7.u.7.R 7.7.u.7.7.R R a a R 7.u.u.7.7.R R R R a - ",
"      D f.f.D 9.D 9.D r.r.9.9.f.9.L 9.9.L 9.f.D D + L L D R R u.R a R a 7.R 7.R a a R R R u.7.7.7.R 7.R R R R ",
"  D D 9.f.r.f.f.9.D D s.r.9.D r.9.D L 9.D L + D L L D L 9.D D 7.R a R - R a R a - a R R a 7.R 7.R R 7.R a R R ",
"D 9.f.f.r.r.f.f.9.f.9.9.9.D L 9.L D D L L + D L 9.9.L L 9.f.f.D R - -   - a R - a - R a a R R 7.R a R R - R - ",
"+ f.f.9.s.r.f.r.r.f.f.9.D L 9.L D L L D D L L L 9.9.9.L L L 9.+ - -     S S E = g - R - - R a a R - R -   -   ",
"  D D s.f.f.r.r.s.f.r.9.9.9.f.9.L L 9.L L L 9.L 9.f.f.9.L f.D -         D / D L / L = =   - - a R - -         ",
"D 9.r.f.9.f.f.s.f.9.r.r.f.9.9.f.9.9.f.9.L L f.f.L 9.f.f.9.f.f.D       D L / z.L / / L D +     - R -           ",
"D f.9.9.f.r.f.f.9.f.r.s.f.9.f.f.9.9.9.9.L 9.9.f.f.9.9.9.9.L + +       % / / R./ L / z./ D   ;   -             ",
"+ + + D f.r.r.f.f.f.s.r.f.f.r.f.9.9.9.L L 9.9.9.f.L 9.L D +     %   % I % / z.l.6 Z / R.~ % 4.5               ",
"    D f.s.r.f.9.r.f.s.r.f.r.r.f.9.9.9.9.9.9.9.9.L L 9.f.9.D % % I % 4.I % P ~ t 4.; P  .9 5 4.@.% 5           ",
"  D 9.r.9.9.f.r.9.f.r.f.f.r.r.f.9.f.9.9.9.f.9.9.f.9.D 9.f.+ ,.| ,.,.I | I % % @.4.5 5 6 3.2.J o.i 6.4         ",
"  + 9.9.+ 9.r.f.D 9.f.f.9.r.f.9.f.f.9.f.L f.f.L 9.f.9.D + | 1.1.4.I | W.| J J % J 2.3.7 i <.o.C e.1.y         ",
"    + +   + f.9.+ L 9.D 9.f.9.L f.f.9.f.L D f.L D L L + ,.4.4.1.1.4.1.| 4.I % C o.<.h 0 9 y X.X.l 3           ",
"            + +   + + D 9.9.9.D 9.f.L D D + + +   + + I 4.| ,.,.| 4.4.,.,.4.I % X.p Z 9 6 z @.L Y ..f         ",
"                v.V =  .D 9.D D L 9.D L L +         * I { c.{ 4.1.1.I I { I % L @.z % 0 O.U U : Y @.& @ %     ",
"          > , H /.L.* x  .D / / D D L L / L +   3 e e % 4.{ ,.I 1.,.4.J J J J % U U O.g f :.i o.: J 4.>.1.7   ",
"      O B D.=.N F.y.0.A.} z.z./ z./ L / ( ) c w %.k % J J ,.4.I I { ,.J 8 8 % o.i >.+.; 7 0 +.K Y O.U e.f     ",
"    O F J.Y.!.a.;.;.~.G.s [ z.z./ z./ ^ s =.M n $.t $ 8 J 4.I J J J I J 8 % Y K +.i I 5.q 5 4.>.A ,.O.K +.u   ",
"      o ' Q.K.h.g.T.^.^.U.n._ z.z./ / P c &.k.i.p r -.e 8 I 8 8 J 8 J 8 % ,.A >.4.J 6.0 7 % & l # u f @ @ ..6 ",
"      . ! B.t.g.f.V.H.I.m.W Q z.x.z.L D D d m i.n p.j.e % 8 % % 8 % 8 % f u # l & & g ; q ;   ;     &     &   ",
"        ] ] #.y.y.q.t.C.` < d x.E.x.z.D t s %.$.*.&.j     %     % & %   &     ;     ;   ;                     ",
"      V I.S.j P.K.M.w.m.v w ^ z.E.E.z.t y &.n m p.m $.k                                                       ",
"        G t ' K.P.! 2 v 1 h L L x.x.z.* k n y * i.-.p 8.3                                                     ",
"        X X G N.b.r O 1 X   L L / / / 3 p 3 *   b =.$ 3                                                       "
};
