/* XPM */
static char *result[] = {
/* columns rows colors chars-per-pixel */
"55 50 64 1 ",
"  c #5D3D21",
". c #603F23",
"X c #5F4025",
"o c #624225",
"O c #684726",
"+ c #654629",
"@ c #68472A",
"# c #67482A",
"$ c #6B4C2D",
"% c #6E502F",
"& c #6D4F30",
"* c #6E5131",
"= c #725433",
"- c #755937",
"; c #7F5B34",
": c #765A38",
"> c #795C3A",
", c #7D613D",
"< c #7F6440",
"1 c #803F0C",
"2 c #82400C",
"3 c #93490E",
"4 c #954B10",
"5 c #984E13",
"6 c #9C5116",
"7 c #A1571C",
"8 c #A45A1F",
"9 c #A75D22",
"0 c #84643C",
"q c #AB6126",
"w c #AE6429",
"e c #B1672C",
"r c #B3692E",
"t c #B36C34",
"y c #B96E33",
"u c #C47A3F",
"i c #816641",
"p c #896740",
"a c #856A44",
"s c #8A6C43",
"d c #896E49",
"f c #8C7146",
"g c #8E734B",
"h c #92764C",
"j c #957A4E",
"k c #947B52",
"l c #987E53",
"z c #C57B40",
"x c #C87E42",
"c c #9B8156",
"v c #9D845A",
"b c #9F885D",
"n c #A0865A",
"m c #A1895E",
"M c #A48D62",
"N c #A88F63",
"B c #A79064",
"V c #A99166",
"C c #AC9569",
"Z c #B19A6E",
"A c #B49C71",
"S c #CB8146",
"D c #CE8449",
"F c None",
/* pixels */
"FFFFFFFFF-lnmmZ;m=oj*F$vg F*Clm0@$FF$h%M=FF*nNh%FFFFFFF",
"FFFFFFFFFF%jlNnZN=Fok*@vdoF&kMsl&FFF#g%M=FF$Zll=FFFFFFF",
"FFFFFFFFF=h0ljVnZ=Fog*+vaXF&m0c@FFFF+gm%FF$$nmsM%FFFFFF",
"FFFFFFFFFF%$OfjCn=F.d&+c<X@Npl0OFFFF+fm*F$ZnCjl$FFFFFFF",
"FFFFFFFFFF$$nOjhVm=F.socXFF#l00@FFFFF=b&FF$Zcm%FFFFFFFF",
"FFFFFFFFF$AnCO0nhCn==sXlXFFF..oV*FFFF=b*FF$nNj$FFFFFFFF",
"FFFFFFFFFF$AnnosnhVnZ$okXFF@d.=$,<FF$c=FFF$VjlOFFFFFFFF",
"FFFFFFFFFF%nmjO.0nhC$.>j FF+MoF0NB<F#l=FFF&jmsN@FFFFFFF",
"FFFFFFFFFF$Cllo0f0nj$a:k FF&MX<boON<#c&FFocmhjo=FFFFFFF",
"FFFFFFFFFF$jnsmoog0Ngo-g FF*M+c+F X #l&FFFopji B;FFFFFF",
"FFFFFFFFFolmhhoFFog0m+m= F>B#k+FF bj+k&FF=b.0p *FFFFFFF",
"FFFFFFFFFF.sk0.FFF$0oX#v*F-M++FFFF jol#<<j@Fo.loFFFFFFF",
"FFFFFFFFFFFo0a FFFFo0X#b-F*MoFFFFF jOk>BM=FF#< FFFFFFFF",
"FFFFFFF<iFFF..lo==$+c$ #v---oFFFFF jok+@*M-F=M*FFFFFFFF",
"FFFFFF>NM=FF+i.:Mmn$c%F#c:MM,FFFFF gXkXg +c--M=FFFFFFFF",
"FFFFFFF$=m-F-M>V+OOf*v*#@b$@M,FFdF f ka.FF&kM>FFFFFFFFF",
"FFFFFFFFF#c=-M=@FFF =m=#k#$M#FFiB*F kXaXFF$kM>FFFFFFFFF",
"FFFFFFFFFF*kM:FFFFFF=M=jog$MoF<B=FF k< FFF@kM-FFFFaaaFF",
"FFFFFFFFFF&kM>FFFFFF=B%h$fboFF<B=FF k, FFFF=M-FFF<VBN<F",
"FFFFFFFFFF#kM-FFFFaa=M%g#aMXF:B*FFF g, FFFF=M-FF,N#&&>,",
"FFFFFFFFFFF=M:FFF<BBB*mg+$MoF:M=FFF g FFFFF=M=F-M+FFF&F",
"FFFFFFFFFFF=M:FF,N#***md#*bX:MoFFFF d FFFFF=M$=c+FFFFFF",
"FFFFFFFFFFF=M*F:M+FFF*b=F$mo-:,,FFaaa FFFFF=M*h+FFFFFFF",
"FFFFFFFFFFF=M*=l+FFFF*b=F&bo*VBBadNNB<FFFFF=M$kXFFFFFFF",
"FFaaaFFFFFF=N&k+FFFFFF*v#3653544334&$V<FFFF=M+h#FFFFFFF",
"FdNNB<FFFFF=M&-==FFFFF=c$3eqwrDSr94 +*MaFFF=MhoFFFFFFFF",
"aV&&&BaFFFF=M*MCV%FFFF*l+39yxSDDD84FFF#v<FF=MgoFFFFFFFF",
"F=FFF&MaFFF==N**%b-FFF$c+58ySSDDt64FFF+c<FF*MgoFFFFFFFF",
"FFFFFF+b<FF=M*oFF$v=FF$k+5rzSSSS994FFFF$l>F*MdoFFFFFFFF",
"FFFFFF+c<FF=Mg+FFF$j$F$ko47yzzuut64FFFF$v-F&Mg#FFFFFFFF",
"FFFFFFF@c>F*mgoFFFFog$+lo445wwyw945FFFFF+k&&bg#FFFFFFFF",
"FFFFFFF#l-F&mg+FFFFFod+ko4444443444FFFFFXk&$b+FFFFFFFFF",
"FFFFFFFF$k$$mg+FFFFF gokX1111111111FFFFF+k&+v+FFFFFFFFF",
"FFFFF11111111111111111111111111111111111111111111111111",
"FFFFFtrytttttttttttttttt121111111311tttyttttttttttttttt",
"FFFFFyrytttttttttttttttt111111111111tttyttttttttttttttt",
"FFFFF22O111112O11111111111111111112111111O1111111111111",
"FFFFFFFFFod.l FFFFFFFF ,h1111111112FFFFFFoi g FFFFFFFFF",
"FFFFFFFFFoi.j.FFFFFFFFF gO111111111FFFFFFO, a FFFFFFFFF",
"FFFFFFFFFo0 h.FFFFFFFFF d2111111111FFFFFFO> < FFFFFFFFF",
"FFFFFFFFF+, a FFFFFFFFF a1111111111FFFFFF..   FFFFFFFFF",
"FFFFFFFFF+, > FFFFFFFFF >1111111111FFFFFFFFFFFFFFFFFFFF",
"FFFFFFFFF     FFFFFFFFF.>2111111111FFFFFFFFFFFFFFFFFFFF",
"FFFFFFFFFFFFFFFFFFFFFFFO+2111111111FFFFFFFFFFFFFFFFFFFF",
"FFFFFFFFFFFFFFFFFFFFFFFFF2O11111111FFFFFFFFFFFFFFFFFFFF",
"FFFFFFFFFFFFFFFFFFFFFFFFFFFFFFFFFFFFFFFFFFFFFFFFFFFFFFF",
"FFFFFFFFFFFFFFFFFFFFFFFFFFFFFFFFFFFFFFFFFFFFFFFFFFFFFFF",
"FFFFFFFFFFFFFFFFFFFFFFFFFFFFFFFFFFFFFFFFFFFFFFFFFFFFFFF",
"FFFFFFFFFFFFFFFFFFFFFFFFFFFFFFFFFFFFFFFFFFFFFFFFFFFFFFF",
"FFFFFFFFFFFFFFFFFFFFFFFFFFFFFFFFFFFFFFFFFFFFFFFFFFFFFFF"
};
