/* XPM */
static char * wallin_xpm[] = {
"60 60 5 1",
" 	c None",
".	c #456521",
"+	c #3D4722",
"@	c #2C3414",
"#	c #382C1C",
"            .                                ..             ",
"            ..                    ... +++.+++..             ",
"            ..+++.+++ ... .       +..+++..++++++++          ",
"    .    ++++++++..+++..+ ..  ++.+++++++..+++++++++...      ",
"    ....+++++++++..++++++++++++...++++++++++...++++..+      ",
"    .+..++++...++++++++++..++++...+++...@@++@..@++.++++     ",
"    ++++.++@..@++@@...+++...++++++++@@..@@@@@@@@@..++++..   ",
"  ..++++..@@@@@@@@@..@@+++++++++++++@@@@@@@@@+++@..@+++...  ",
" ...+++@..@+++@@@@@@@@@@@+++++++++++@@++@@@@@++@@@@@+++++   ",
"  +++++@@@@@++@@@@@++@@@@@@@...+++++@@.+++@@@@@@@@@@@@++++  ",
" ++++@@@@@@@@@@@@+++.@@@+++@..++++.+@..+++.@@@@@@@+++@...+  ",
" +...@+++@@@@@@@.+++..@@++@@@@+++..+@..+++..@@@@@@+++@..+++ ",
"+++..@+++@@@@@@..+++..@@@@@@@@+++..+@+.+++..+@@@@@@@+@@++.. ",
"..++@@+@@@@@@@+..+++++@@@@@@@++++++++..++++++@@@@@@@@@@++...",
"..++@@@@@@@@@@+++++++++@@@+@@++@@++++.....+++@++@@@@@@@++++ ",
"++++@@@@@@@++@+++...++..@@++@++@@@@+++++..++@@+..@@..+..+++ ",
"+++..++@@@+++@@++..+++....++@@@@@@++++++..+#++...++..++..+++",
"++++++++@.@@@@@@+++++++@@@@@@@@@@@++++++..+++++++++..+++... ",
"...+++..+++++@@@@@++@@@@@++@@@@@@@...+++++++++++++++++++..  ",
"...+++..+++@@@@@@@@@@@@+++.@@@+++@..++++++.+++..++++++++++  ",
" ++++#.#...@+++@@@@@@@.+++..@@++@@@@++++++..++..@@@+++.++++ ",
" ++++###+..@+++@@@@@@..+++..@@@@@@@@..++++..++@.@@...+..+++ ",
"..+++###++@@+@@@@@@@+..+++++@@@@@@@...+++++++@@@@@@..+..+++ ",
"..++...#++@@@@@@@@@@+++++++++@@@+@@...+++++++@@@@@@..+#++.. ",
" .++..##++@@@@@@@++@+++...++..@@++@++@@++@@@@@@+++++.+#++...",
" ++++++#+..++@@@+++@@++..+++....++@@@@@++@@+++@++++..+##++++",
" +++++++...++@@.@@@@@@+++++++@@@@@@@@@@@@@@@++@@@++..##.++++",
"  +++..+...++@@.@@@@@@++++.++@@@@..@@..@@@@@++@@...++#..++++",
"  ++...+..+++...++++@@@@@@..++++...++...@@@@@@@@..++.+++++..",
" ..+++++..+++....+++@@@@@@..+++++++++..++@@@@@@@@@++++++++..",
"..++++++#.#++++++..++@.@@...++++++++++++++@@@@@@+@@+++...++ ",
"...+++..###++++++..++..@@@++++++..++++++++@@@@@++@..++..+++ ",
"...+++..###+++..+.+++..+++++++++..###+++@@@@@@@++@..+++++++ ",
" ++++#.##...++..++++++++++++++++#.##...+@+++@@@@@@@.+++++...",
" ++++#####..++...+++++++++..+++######..++++..@@@@@++.+++++..",
"..+++####++++++..++++...++..+++######..++++...@@@@++++++++..",
"..++...#+++++++.++++++......+++++++++..+..+++++@@@@+++...++ ",
" .++..##+..+++++++++++++++++++++++++++++..+++++@@@@+++..+++ ",
" ++++++#+...+++.+++..+++++++.+++..+++++++.++++++@..++++++++ ",
" ++++++++++++....++..@@@++++..++..@@@+++++++...+@..++++++...",
"  +++..++++++....++@.@@...++..++@.@@...+++++..@@@@.++...+.. ",
"  ++...+++++++++++@@@@@@..+++++@@@@@@..+..+@@@@@@@++..+++...",
" ..+++++++++++++++@@@@@@..+++++@@@@@@..+..@@@@@@@+++..+++...",
"...+++++..+@@@+++@@++..+++....++@@@@@@+@.@@@@++@@+++#.#++++ ",
"..++++++..@@@@@++@+++...++..@@++@++@@@@@.@@@@++@++..###++++ ",
"..++++++.@@@@@@@@@+++++++++@@@+@@++@@++@+++@@@+@++..###+++..",
" ++++....@+@@@@@@@+..+++++@@@@@@@++++++@++@@@@@@++.+#...++..",
" ++++....@+++@@@@@@..+++..@@@@@@@@+++..@@@@@@@..++++##..++. ",
" ++++##..@+++@@@@@@@.+++..@@++@@@@+++..@@+++@@..++++#++++++ ",
" ...++#++@@@@@@@@@@@@+++.@@@+++@..++++.@@++++++.+++++++++++ ",
"  ..++##+++@@@@@++@@@@@++@@@@@@@...++++@@@@++++++++.+..+++  ",
"  +++..#+++@..@+++@@@@@@..++..+++++++++@@@@++++++++.+...++  ",
" .+++.++#..@++@@@..@@++@@+++#++++@@@@@@@@@@@+++@..#++++++.. ",
" .++++++...@@@@@@..++++@@@++#++++++@@..@@@@@@@@@..+++++++...",
"   +++++++++@@@@+.++++..+@+..+...+++...@@++@..@++.++++++    ",
"   ..+++++++++++++++++..++++.++..++++++++++...++++..+++     ",
"  ...++++++++..+++..+++.+++++++++++++++..+++++++++....      ",
"  ..  ++ ..++..++...+.++++..+ .  +..+++..++++++++   ..      ",
"  .  ..  ..   . ..  ..    ..     ... +++.+++..              ",
"          .     .   ..    .        .        ..              "};
