/* XPM */
static char *_988930f82c743f1d5056757716df1ddbZJYBWPNNmgOa5YK[] = {
/* columns rows colors chars-per-pixel */
"55 85 159 2 ",
"   c None",
".  c #5D3D21",
"X  c #603F23",
"o  c #5F4024",
"O  c #624225",
"+  c #684726",
"@  c #654629",
"#  c #68472A",
"$  c #67482A",
"%  c #6B4C2D",
"&  c #6E502F",
"*  c #6E4F30",
"=  c #6E5131",
"-  c #735533",
";  c #765937",
":  c #7D5B35",
">  c #775A39",
",  c #7A5D3A",
"<  c #6C6530",
"1  c #716A35",
"2  c #7D613D",
"3  c #796F3C",
"4  c #7F6440",
"5  c #803F0C",
"6  c #82400C",
"7  c #93490E",
"8  c #844613",
"9  c #874B18",
"0  c #8A511F",
"q  c #9C5115",
"w  c #A3591E",
"e  c #8D5523",
"r  c #815F38",
"t  c #A65C21",
"y  c #82643D",
"u  c #89693F",
"i  c #976738",
"p  c #996C3D",
"a  c #B0662B",
"s  c #B36C34",
"d  c #816541",
"f  c #896740",
"g  c #856A44",
"h  c #8A6C43",
"j  c #876B48",
"k  c #896E49",
"l  c #817643",
"z  c #8C7146",
"x  c #847946",
"c  c #8D734A",
"v  c #8D7E4D",
"b  c #907447",
"n  c #92764C",
"m  c #95794E",
"M  c #957C52",
"N  c #997E53",
"B  c #8F8050",
"V  c #948454",
"C  c #9B8256",
"Z  c #958B56",
"A  c #9E855A",
"S  c #9F865B",
"D  c #9D8559",
"F  c #9F875C",
"G  c #9D855A",
"H  c #9D895C",
"J  c #99905B",
"K  c #A0875A",
"L  c #A1875E",
"P  c #A0865A",
"I  c #A1895B",
"U  c #A1895D",
"Y  c #A38A5D",
"T  c #A1895E",
"R  c #A2895E",
"E  c #A18B5F",
"W  c #A28A5E",
"Q  c #A38B5E",
"!  c #A48B5E",
"~  c #A48C5E",
"^  c #A58C5F",
"/  c #A68D5F",
"(  c #A68E5F",
")  c #A28A5E",
"_  c #AA8A5D",
"`  c #A28C61",
"'  c #A58D60",
"]  c #A68D60",
"[  c #A58E61",
"{  c #A68E61",
"}  c #A78E61",
"|  c #A58D62",
" . c #A68D62",
".. c #A78F62",
"X. c #A68F64",
"o. c #A48D62",
"O. c #A88F63",
"+. c #A88F65",
"@. c #A88F63",
"#. c #A79065",
"$. c #A79165",
"%. c #A69066",
"&. c #A69164",
"*. c #A89063",
"=. c #A89163",
"-. c #A89165",
";. c #A99165",
":. c #AA9365",
">. c #A99167",
",. c #A99267",
"<. c #AB9366",
"1. c #AB9367",
"2. c #AB9266",
"3. c #A99265",
"4. c #A49B65",
"5. c #AA9368",
"6. c #AB9368",
"7. c #AB9469",
"8. c #AB9468",
"9. c #AB956B",
"0. c #AC9468",
"q. c #AC9569",
"w. c #AD9569",
"e. c #AC9469",
"r. c #AE9669",
"t. c #AD966B",
"y. c #AE966A",
"u. c #AE966B",
"i. c #AE976B",
"p. c #AF976B",
"a. c #AD976C",
"s. c #AD966D",
"d. c #AF976C",
"f. c #AD9569",
"g. c #A79F68",
"h. c #AF986C",
"j. c #AF986D",
"k. c #AF9A6D",
"l. c #B0986B",
"z. c #B0996D",
"x. c #B1996E",
"c. c #B19A6E",
"v. c #B1996E",
"b. c #B29B70",
"n. c #B29B71",
"m. c #B39C70",
"M. c #B39C71",
"N. c #B49D71",
"B. c #B49D72",
"V. c #B59E72",
"C. c #B59E73",
"Z. c #B69F74",
"A. c #B49D71",
"S. c #ADA26D",
"D. c #B5A473",
"F. c #B6AC76",
"G. c #B7B077",
"H. c #CB8146",
"J. c #CE8449",
/* pixels */
"                                                                                                              ",
"                y                                                                                             ",
"              ; i.y     2                                                                                     ",
"                ; ..y y Z.>                                                                                   ",
"                  ; / N.2.,                                                                                   ",
"                  > l./ m.8.,                                                                                 ",
"                - Q b i.Q m.,                                                                                 ",
"                  - - n 2...m.;                                                                               ",
"                      % N i.8.;   -                                                                           ",
"                      % C C i.2.; a.-                                                                         ",
"                    % z f C F a.2.-                                                                           ",
"                      % $ h Q Q j.;                                                                           ",
"                          $ m ..+.>                                                                           ",
"                          $ N C 2.#.-                                                                         ",
"                            $ C A 8.>                                                                         ",
"                            # z Q Q i.-                                                                       ",
"                          # h z m ....;                                                                       ",
"                        @ N O O m N 2.Q ; ;                                                                   ",
"                          O   O u A N 2.L b.;                                                                 ",
"                                O z Q N 8.;                                                                   ",
"                                O n z ..-                                                                     ",
"                                O r m z $           , 2                                                       ",
"                  d           O f O r m $         > 5.5.d                                                 -   ",
"                2 b.d     ,     O   O O #       ; #.* * 5.d                                     ,       > i., ",
"                  d 2.d d Z.,       o 2 o     ; #.*     *                                     2 i.2 y y ..>   ",
"                    , Q Z.2         % N =   , Q *                                               y c...i.;     ",
"                    2 m.=.Z.d         - A % A Q *                                             , c./ j.C ;     ",
"                    2 D N.2.d         - F % N #                                         ;   > c./ i.C A ;     ",
"                    > i./ N.2.2       = Q $ N #                                       - O.; c.I =.C N ;       ",
"                  - i.N a...Z.d       = ` $ m #                                       - =.c.I O.N m &         ",
"                    ; 2.K c.=.2 2       = ` z #                                       - c.A 2.m N f z -       ",
"                      % ..K N...y ,     - ` %                                         - D i.n z @ % %         ",
"                      * m 2.A Z..., ,   - #.%               g j g         d         - Q 2.n N @               ",
"                        = C i.! ; = A ; = #.%             k #.X.X.g     g Z.k c - - ! i.n C h @               ",
"                        = ! D m.-   % M = ..=           2 2., , 2 #.d d N.2.N.2.d I 8.n K h O         d       ",
"                        = n 2.K *     $ z - ..>   7 q 2 #.- t 2 m.2 1.N.=.N.Q c.Q 2 b A y O   ,     d b.2     ",
"                        - C N c.%     $ k - ..,   7 - ..- J.J.H.2 2.N.Q N.C c.z ; m.; u z : , Z.d d 2.d       ",
"                      % ..h ! C % $     $ - ..,   7 - ..- J.J.J.2 N.Q m.N % = = n - u z O O   2 Z.Q ,         ",
"                        % N m i.K N.%     - Q ,   ; ..$ J.J.J.2 N.! b.N -     O ~ u z O     d Z.=.m.2         ",
"                      g 2.= I C c.%       - F >   ; ` # w a a 2 O.b.C c.-     . O f +       d 2.N.D 2         ",
"                    d 2.> $ m O.C %       - A >   - ` $ 6 6 g 2.c.C j.- c.-   . y X       2 2.N./ i.>         ",
"  -               , 2.>   $ N M 2.% ,       = A % F O 5 2 6 g c.A i.%   -     % C $ * - - d Z...a.N i.-       ",
", i.>       ,       ;   # ..h Q m % Q ,     = A % A O 2 b.y c.K 2.n % >       % C % A Q ..2 =.c.K 2.;         ",
"  > ..y y 2 i.2           O n b Q N O ,     = A % C O 5 2 c.A 2.n % $ A $   = A = z O @ y ..N.K ..%           ",
"    ; i...c.y 5 5 5 5 5 5 O y m f O O N > 5 = A % C O 5 , Q 2.M ..$ 5 # N @ - Q - . 5 , ..Z.A 2.m * 5 5 5 5 5 ",
"    ; C j./ c., s s s s s O h y O s O N > s * A c O 5 5 , i.m A f a.$ 5 @ m - X.- s s s ; ! i.C = s s s s s s ",
"    ; A C i./ c.> s ; s O N O O s s O 4 2 s % A z O 5 & i.M ! f % % 5 5 $ n = ..- s s s - m.D ! = s s s s s s ",
"      ; N C =.I c.; O.- 5 O d # 5 5 ; ...., $ C k O 5 & M ..f M % 5 6 5 $ c % ..- 5 5 5 * K 2.n = 5 5 5 5 5 5 ",
"        & m N O.I c.=.-   = ` ;   ; Q = % % # C g o 5 % ..f C $ 5 5 6   # z Q &         % c.N C -             ",
"      - z f N m 2.A c.-   - ` ; ; C # O c % # C d o $ ..f N : # 5 6 6   $ z Q =       $ % C ! h ..%           ",
"        % % @ z n i.D -     > ..M =     o k O C o 5 + # N : h # 5 6 5     - F = c.  % N.K i.m N %             ",
"              @ N n 2.Q -   > ..M %     o g O N o 5 5 + O O O 2.& 5 5 N.  - F = N.    % c.C I =               ",
"              @ h C n i.! - - ..M % N.  o f o M . 5 9 % k O - % 4 g 5   $ A -     N.  % C O.m #             N.",
"      N.    d 2.O k K n 8.I c.% -   N.N.  o , M . p i $ F O 5 2 ....4   $ C -     H i.% 2.M N $             N.",
"      N.  d 2.= * O y A b i.% ..-   c.H 2 g , n . _ 0 % ` O 4 Q O O ..4 $ N = < < Z v % m L h ..# N.  N.    N.",
"            *   O : z u Q m % ..- < H c ..` ; c . @.8 & ` # C O e . O . # N % l g.j.O N Q b n O ; v   V V <   ",
"          < H 3 B O O z u ..n O - F d ..% & Q - . i.> ..$ N @ < 1 . L m # N % Z F.; A O f m y O #.< < l V V x ",
"      N.  H ~ 4.x ,.V O z u ~ # - Z S.= G.F.$ A - g > ..$ O F.S.F.D.. m O N $ F.& M $ F.O y h O 8.F.Z 4.:.J 4.",
"N.    N.  H k.F.F.F.D.G.+ f O . - G.G.G.G.G.# F ; X.= ..O F.F.G.G.F.. m O N # % 2 4 D.F.G.O O N O F.G.D.D.F.F.",
"  N.      D.G.G.G.F.D.G.# X y . - G.G.G.F.d 2.$ A > = ..O D.F.G.F.D.. n O N O , ....; G.G.# d O G.G.G.F.F.G.F.",
"          D.F.G.G.G.- - * $ C % - D.F.G.; ; = # C , = ` O D.F.D.G.D.. c O M O z % = Q ; G.> ` = G.G.G.F.F.G.D.",
"        N.D.F.D.G.; ..Q A % C % - D.F.> ...., # C > % ..O D.F.G.k D.. z . M g . G.D.# C ; ; ` - F.G.G.D.F.G.D.",
"      N.  D.G.D., 2.# @ O z = A = D.$ A $ % ..2 $ c % ` O D.G.d ..= D.. M o f . F.D.F.= M ..> D.D.G.D.D.F.D.F.",
"        N.F.G.F.D.$ G.G.D.. - Q - @ N # % F.$ F.$ c % ` O D.4 ..- F.D.. M 2 . F.D.F.G.% M ..> F.D.F.D.F.F.D.D.",
"        N.D.G.F.N.G.G.G.D.# - X.- m @ N $ G.D.F.# k F O F.D.d ..- G.G.. m 2 . D.D.G.G.% M X.; F.F.G.G.g g d F.",
"          D.F.G.F.G.G.G.D.# - ..= n $ $ G.G.F.F.# g ` O F., ..= F.F.G.. n 2 . D.G.G.G.G.- ..; G.F.F.2 #.#.2.d ",
"          D.F.F.F.G.F.F.D.G.- ..% c $ O G.G.G.G.F.% Q O G., ..- F.D.F.. z . G.G.F.N.F.G.- ..; G.F.2 ..$ = = > ",
"N.        N.G.F.D.G.D.D.F.G.# & Q z # O G.D.D.G.G.% Q O > ` O F.G.D.F.. k . G.G.F.N.G.G.- ..- G.> ` O G.G.G.* ",
"  N.    N.F.G.F.D.G.F.D.F.G.@ = Q z $ F.D.F.N.G.G.% Q O ; Q O D.G.F.D.. g . G.G.F.D.G.G.- ..% ; C # D.F.G.G.G.",
"  N.    N.F.G.D.D.G.G.F.N.G.O = F - O N.F.G.N.> , , Q O > Q # D.F.F.D.g g g G.G.G.G.G.G.- ..% n O G.D.D.G.G.G.",
"          D.G.D.F.G.G.G.D.F.O = F - O F.G.G.& 2.2.2.d O Q O G.D.F.F.k X.X.#.d G.G.G.G.G.- ..% n O G.F.D.F.G.G.",
"          D.F.D.D.G.D.F.D.F.. M - A $ G.G.= Q % - - 2.d C O G.D.F.g 2.% % % 2.d G.G.F.D.- ` # n # G.G.G.G.F.G.",
"          G.G.G.; - - F.G.G.. c - C $ G.& A # G.G.$ > O C O G.D.F.G.- F.D.G.= ..d G.F.D.- ` c O D.G.G.G.F.D.G.",
"      N.  G.G.- ..5.#.= G.G.. g = N $ G.& Q # G.G.@ N O N O G.D.F.G.G.F.D.G.G.# A 4 F.G.- ` c O D.F.G.F.D.F.G.",
"      N.  F.; ..= = = A ; G.. 2 % N # . A . G.G.G.O n C . G.G.D.N.G.G.D.F.G.G.# C 2 G.G.- ` c O F.N.G.F.N.F.G.",
"    N.    F.D.= G.G.G.$ A ; . . % N # m L . F.D.F.. c C . G.G.F.D.G.G.N.F.G.G.D.% C > G.- Q c O G.D.F.F.N.G.G.",
"          G.F.D.F.G.G.G.$ M & G.$ N O m . G.F.D.D.. 2 N . G.G.F.D.G.G.F.G.G.G.D.$ N ; G.% Q c # G.F.F.G.F.F.G.",
"          G.G.F.D.F.G.G.G.O z % # N O m . G.G.F.F.. ; N . G.D.F.F.G.D.F.G.G.F.D.G.$ N % % F c # G.F.D.F.F.D.G.",
"          F.G.G.F.F.G.G.G.G.O c O N O n . G.G.G.G.. % c . F.N.G.G.G.F.D.F.G.F.F.F.O N % % A # D.G.F.D.D.F.D.G.",
"          N.F.G.F.F.G.G.G.G.. z O M O c . G.N.G.F.. . . . D.D.G.G.G.G.D.F.G.G.F.D.O M * # Z # D.F.G.F.D.F.G.G.",
"  N.      D.F.G.D.F.G.G.D.F.G.. g M . z . D.D.F.D.G.G.G.F.N.F.G.G.F.F.F.F.G.G.N.F.G.# c o N @ D.D.G.G.D.F.G.F.",
"  N.    N.D.G.G.F.D.G.G.D.F.G.. f o M . F.N.F.G.D.F.G.G.F.F.F.D.G.D.D.G.G.G.G.D.F.G.O c o N O D.D.G.F.D.F.F.D.",
"      N.N.D.F.G.G.D.G.G.F.D.G.G.. 2 M . F.D.G.G.D.D.G.G.G.G.D.D.G.F.D.F.G.G.G.D.D.G.O k o M O F.F.G.D.F.F.D.F.",
"      N.  F.D.G.G.D.F.G.F.D.G.G.. 2 m . D.F.G.G.F.D.G.G.G.G.D.F.G.G.F.N.G.G.G.D.F.G.O f o M . G.G.F.D.G.D.D.G.",
"          F.F.G.G.G.G.G.G.G.G.G.. 2 n . G.G.G.G.G.G.G.G.G.G.G.G.G.G.G.G.G.G.G.G.G.G.O d . c . G.G.G.F.G.F.F.G."
};
