/* XPM */
static char * wallin_xpm[] = {
"50 50 630 2",
"  	c None",
". 	c #6C7637",
"+ 	c #9EA44D",
"@ 	c #91974B",
"# 	c #A9AD52",
"$ 	c #A1A647",
"% 	c #9DA346",
"& 	c #717A39",
"* 	c #92824D",
"= 	c #CD813F",
"- 	c #CB813E",
"; 	c #CC813E",
"> 	c #BC9747",
", 	c #A3A648",
"' 	c #9BA046",
") 	c #9BA048",
"! 	c #72793A",
"~ 	c #AA7D38",
"{ 	c #CD7F3A",
"] 	c #CD7F38",
"^ 	c #CB8040",
"/ 	c #CB813F",
"( 	c #CD823F",
"_ 	c #D3883F",
": 	c #D2883F",
"< 	c #DD8D38",
"[ 	c #EC9739",
"} 	c #EC9738",
"| 	c #EB983B",
"1 	c #C1913F",
"2 	c #9EA447",
"3 	c #8B9343",
"4 	c #707A38",
"5 	c #9A7D38",
"6 	c #D18539",
"7 	c #D5853A",
"8 	c #D27F38",
"9 	c #D36A33",
"0 	c #767537",
"a 	c #797537",
"b 	c #D16C3A",
"c 	c #D16D3B",
"d 	c #D06F47",
"e 	c #DD8D3C",
"f 	c #DD8C38",
"g 	c #D4853A",
"h 	c #E08E3B",
"i 	c #B1A144",
"j 	c #A3A448",
"k 	c #CDAA58",
"l 	c #EE9F49",
"m 	c #C09140",
"n 	c #9D8038",
"o 	c #E99839",
"p 	c #EF9939",
"q 	c #D68439",
"r 	c #CB7936",
"s 	c #6D7637",
"t 	c #A77B38",
"u 	c #CE8038",
"v 	c #CE7F38",
"w 	c #D26C33",
"x 	c #CF6D45",
"y 	c #D48539",
"z 	c #E7963D",
"A 	c #F2BB78",
"B 	c #F2BC7A",
"C 	c #E99F4D",
"D 	c #C79D42",
"E 	c #A6A246",
"F 	c #A8A347",
"G 	c #B4A954",
"H 	c #A3A549",
"I 	c #E3A34C",
"J 	c #9EA446",
"K 	c #A18239",
"L 	c #827A37",
"M 	c #717637",
"N 	c #D88F39",
"O 	c #E9943A",
"P 	c #E9943C",
"Q 	c #D8843A",
"R 	c #CF7C37",
"S 	c #D56B35",
"T 	c #D26738",
"U 	c #C2803D",
"V 	c #CE8B49",
"W 	c #DA8B3A",
"X 	c #EF993C",
"Y 	c #F1B46D",
"Z 	c #F2C588",
"` 	c #F2C587",
" .	c #F2BF79",
"..	c #F2AF5B",
"+.	c #CB9F43",
"@.	c #B79941",
"#.	c #A2A346",
"$.	c #A1A448",
"%.	c #E59844",
"&.	c #B89641",
"*.	c #717737",
"=.	c #817937",
"-.	c #BD8938",
";.	c #DC933A",
">.	c #ED9638",
",.	c #E48735",
"'.	c #E58735",
").	c #DE7A33",
"!.	c #D36B33",
"~.	c #D46E34",
"{.	c #D46E35",
"].	c #CE7F3A",
"^.	c #BB8F40",
"/.	c #BB8C3F",
"(.	c #CF6A42",
"_.	c #D9893A",
":.	c #EE993A",
"<.	c #EF993A",
"[.	c #F0A552",
"}.	c #F1AC5F",
"|.	c #F0AC5E",
"1.	c #F1AA55",
"2.	c #F1B767",
"3.	c #EFA043",
"4.	c #A3A346",
"5.	c #9FA447",
"6.	c #A5A146",
"7.	c #6F7637",
"8.	c #DD7335",
"9.	c #EE9A3A",
"0.	c #EF9938",
"a.	c #E88B39",
"b.	c #DF7737",
"c.	c #D26B33",
"d.	c #D07535",
"e.	c #D07536",
"f.	c #CF7F39",
"g.	c #CE7F39",
"h.	c #CF7D39",
"i.	c #D47854",
"j.	c #CC8443",
"k.	c #9FA347",
"l.	c #A1A347",
"m.	c #B09E44",
"n.	c #B09D44",
"o.	c #A7A145",
"p.	c #AF9D44",
"q.	c #A3A447",
"r.	c #A6A346",
"s.	c #E5913B",
"t.	c #BCA042",
"u.	c #A7A546",
"v.	c #9CA347",
"w.	c #717435",
"x.	c #846B32",
"y.	c #A1662F",
"z.	c #D76D34",
"A.	c #DC7037",
"B.	c #DE7436",
"C.	c #E78C37",
"D.	c #EA9338",
"E.	c #E99538",
"F.	c #EA9538",
"G.	c #DD8C3A",
"H.	c #D4853B",
"I.	c #D0813A",
"J.	c #CE7D37",
"K.	c #D26B36",
"L.	c #C47C4A",
"M.	c #AB9D46",
"N.	c #BA9A41",
"O.	c #BAA34C",
"P.	c #D7AA5B",
"Q.	c #B7A64C",
"R.	c #A7A246",
"S.	c #B09E43",
"T.	c #CD8C3B",
"U.	c #E2903A",
"V.	c #B9A343",
"W.	c #9AA146",
"X.	c #9CA247",
"Y.	c #9CA346",
"Z.	c #969B43",
"`.	c #90642E",
" +	c #C66430",
".+	c #DB7034",
"++	c #EE9A39",
"@+	c #E19C3C",
"#+	c #CD9F40",
"$+	c #C5A041",
"%+	c #B7A144",
"&+	c #C4A042",
"*+	c #BF9D41",
"=+	c #A99D44",
"-+	c #A4A146",
";+	c #A1A246",
">+	c #CC894F",
",+	c #BDA854",
"'+	c #F3BD79",
")+	c #F3C281",
"!+	c #F0BD76",
"~+	c #F3BD74",
"{+	c #F2B15E",
"]+	c #F09939",
"^+	c #F09938",
"/+	c #F0993A",
"(+	c #EF983B",
"_+	c #E9943E",
":+	c #E9933E",
"<+	c #E0853A",
"[+	c #B07A3A",
"}+	c #9D7E3C",
"|+	c #957C39",
"1+	c #938338",
"2+	c #A39E45",
"3+	c #A9A346",
"4+	c #B49642",
"5+	c #C6873D",
"6+	c #CF7C38",
"7+	c #D47549",
"8+	c #D5873A",
"9+	c #E6BF7F",
"0+	c #E6BD78",
"a+	c #F1B766",
"b+	c #F1AA53",
"c+	c #E99036",
"d+	c #E68935",
"e+	c #E07B36",
"f+	c #DD7533",
"g+	c #DF7933",
"h+	c #DE7935",
"i+	c #DF7937",
"j+	c #D56332",
"k+	c #DA7234",
"l+	c #DB7736",
"m+	c #D26833",
"n+	c #B59D44",
"o+	c #BEA143",
"p+	c #A3A446",
"q+	c #AEA145",
"r+	c #DF933A",
"s+	c #E29039",
"t+	c #CF803A",
"u+	c #D36933",
"v+	c #D98D44",
"w+	c #E9973C",
"x+	c #A3A54A",
"y+	c #A0A448",
"z+	c #A9A448",
"A+	c #F1A64E",
"B+	c #E17E37",
"C+	c #D96E32",
"D+	c #E28036",
"E+	c #E48736",
"F+	c #EE9638",
"G+	c #E98F38",
"H+	c #E07B38",
"I+	c #DC7235",
"J+	c #EB9338",
"K+	c #D07836",
"L+	c #DB7235",
"M+	c #E39B3B",
"N+	c #E99539",
"O+	c #A0A347",
"P+	c #B99140",
"Q+	c #E07C35",
"R+	c #D08139",
"S+	c #D36932",
"T+	c #E18E38",
"U+	c #ED993B",
"V+	c #EDA855",
"W+	c #D39941",
"X+	c #DE7537",
"Y+	c #ED9640",
"Z+	c #EE9F4D",
"`+	c #F0A755",
" @	c #F2BB70",
".@	c #F09F42",
"+@	c #ED9538",
"@@	c #DB7332",
"#@	c #DD7436",
"$@	c #E88C39",
"%@	c #ED963A",
"&@	c #EA9539",
"*@	c #AA9D44",
"=@	c #EE9739",
"-@	c #B6A144",
";@	c #A6A045",
">@	c #D36F34",
",@	c #D57035",
"'@	c #D18037",
")@	c #EB9638",
"!@	c #D08238",
"~@	c #C65F30",
"{@	c #A6A146",
"]@	c #A2A447",
"^@	c #A2A446",
"/@	c #B7A244",
"(@	c #B59F44",
"_@	c #B29B43",
":@	c #A9A447",
"<@	c #EFAF66",
"[@	c #EFB46E",
"}@	c #F2BD77",
"|@	c #F1B15D",
"1@	c #F09C3F",
"2@	c #E78638",
"3@	c #DF7B34",
"4@	c #ED9A3B",
"5@	c #EFAC5D",
"6@	c #F09E42",
"7@	c #E59138",
"8@	c #A79F45",
"9@	c #A79E45",
"0@	c #E48537",
"a@	c #AAA245",
"b@	c #D38238",
"c@	c #D16C33",
"d@	c #D26D34",
"e@	c #D88739",
"f@	c #DB8A39",
"g@	c #AA4B2B",
"h@	c #A6A147",
"i@	c #B3A245",
"j@	c #E39B3C",
"k@	c #E78937",
"l@	c #BD8A3E",
"m@	c #B09C44",
"n@	c #DF9A3F",
"o@	c #CFB265",
"p@	c #F3C688",
"q@	c #F3C485",
"r@	c #F4B96B",
"s@	c #F2AB53",
"t@	c #EC933B",
"u@	c #E17F37",
"v@	c #EF9739",
"w@	c #F09A3B",
"x@	c #F0B46B",
"y@	c #F2B869",
"z@	c #F0A54C",
"A@	c #B99341",
"B@	c #D56C34",
"C@	c #E5863A",
"D@	c #A5A346",
"E@	c #EA963C",
"F@	c #CE7E36",
"G@	c #D36D34",
"H@	c #D18038",
"I@	c #E39138",
"J@	c #E89539",
"K@	c #AA4A2B",
"L@	c #D38840",
"M@	c #E58F3B",
"N@	c #D46832",
"O@	c #CF7936",
"P@	c #EE993B",
"Q@	c #F0B46F",
"R@	c #F2C280",
"S@	c #F3BE77",
"T@	c #F2B765",
"U@	c #F0AB56",
"V@	c #EB923A",
"W@	c #DA6E34",
"X@	c #E58838",
"Y@	c #EE9A3B",
"Z@	c #F1B570",
"`@	c #F2C07D",
" #	c #F3B766",
".#	c #F1A54D",
"+#	c #B89341",
"@#	c #CF7A36",
"##	c #DE8B37",
"$#	c #E89439",
"%#	c #E79439",
"&#	c #D28339",
"*#	c #D46833",
"=#	c #CE7B35",
"-#	c #E49239",
";#	c #A94B2B",
">#	c #C47038",
",#	c #E28E3A",
"'#	c #D27336",
")#	c #D26F34",
"!#	c #F1B46F",
"~#	c #F2BC74",
"{#	c #F3B96C",
"]#	c #F1AD58",
"^#	c #F09B3D",
"/#	c #E58639",
"(#	c #E48337",
"_#	c #F1B065",
":#	c #F2C17F",
"<#	c #F3B96A",
"[#	c #F4B766",
"}#	c #F1A64D",
"|#	c #A8A346",
"1#	c #A2A246",
"2#	c #B39641",
"3#	c #A69E45",
"4#	c #D26A33",
"5#	c #D88539",
"6#	c #E79539",
"7#	c #CF7836",
"8#	c #AA4629",
"9#	c #B45B30",
"0#	c #DA8639",
"a#	c #D16B33",
"b#	c #CE7C38",
"c#	c #E08E38",
"d#	c #EFAA55",
"e#	c #F1B15E",
"f#	c #F1A64F",
"g#	c #EF9E43",
"h#	c #EF9C3D",
"i#	c #ED9839",
"j#	c #E27F38",
"k#	c #EB9037",
"l#	c #EE9D43",
"m#	c #F4BE7C",
"n#	c #F0AE5A",
"o#	c #EF9B3C",
"p#	c #A8A145",
"q#	c #A69F45",
"r#	c #B69040",
"s#	c #C8893C",
"t#	c #EA953B",
"u#	c #EC973A",
"v#	c #D28239",
"w#	c #D26D35",
"x#	c #D68338",
"y#	c #ED9738",
"z#	c #D27235",
"A#	c #AB4229",
"B#	c #A94C2B",
"C#	c #B35C2C",
"D#	c #D16B35",
"E#	c #C57237",
"F#	c #E59038",
"G#	c #EA9137",
"H#	c #DA6F32",
"I#	c #ED9438",
"J#	c #EEAC60",
"K#	c #F4C07B",
"L#	c #EFAC57",
"M#	c #D5843A",
"N#	c #CF7F3A",
"O#	c #D36B34",
"P#	c #CE7936",
"Q#	c #E8943B",
"R#	c #E4933A",
"S#	c #C56734",
"T#	c #D27638",
"U#	c #E18F39",
"V#	c #A84B2A",
"W#	c #A34027",
"X#	c #CA5D33",
"Y#	c #B25B2E",
"Z#	c #E59037",
"`#	c #E07D34",
" $	c #F3BA6E",
".$	c #F1AB57",
"+$	c #D07636",
"@$	c #D16F35",
"#$	c #B25B2F",
"$$	c #D06934",
"%$	c #C3773F",
"&$	c #9E3626",
"*$	c #C75931",
"=$	c #B3592F",
"-$	c #DC8B37",
";$	c #EEA555",
">$	c #F3B769",
",$	c #F2B05C",
"'$	c #DB8A3A",
")$	c #CE7D34",
"!$	c #E28F3A",
"~$	c #E99338",
"{$	c #AB472F",
"]$	c #B1572E",
"^$	c #C75932",
"/$	c #B45A30",
"($	c #F4B15C",
"_$	c #F1B15C",
":$	c #EF9C3F",
"<$	c #E89639",
"[$	c #CF7D37",
"}$	c #D36D35",
"|$	c #D07832",
"1$	c #DB8537",
"2$	c #C8582F",
"3$	c #A44D3D",
"4$	c #CB7E3E",
"5$	c #D16D36",
"6$	c #A03927",
"7$	c #BF6D32",
"8$	c #DA8B39",
"9$	c #EE9939",
"0$	c #E38336",
"a$	c #F3AD57",
"b$	c #F0A852",
"c$	c #C57633",
"d$	c #BA512C",
"e$	c #CF6934",
"f$	c #D07734",
"g$	c #BA5332",
"h$	c #CC8141",
"i$	c #9E3625",
"j$	c #BE6B32",
"k$	c #EF9A39",
"l$	c #E17A39",
"m$	c #C57534",
"n$	c #B84C2A",
"o$	c #D07833",
"p$	c #BA512D",
"q$	c #984033",
"r$	c #BA512F",
"s$	c #A44427",
"t$	c #CE7D3C",
"u$	c #E48F37",
"v$	c #E2793A",
"w$	c #EE983B",
"x$	c #C57535",
"y$	c #E5923C",
"z$	c #B45A2F",
"A$	c #D36333",
"B$	c #D36434",
"C$	c #A44534",
"D$	c #CF683D",
"E$	c #BC502E",
"F$	c #B25831",
"G$	c #DE8B39",
"H$	c #D46A36",
"I$	c #DF7D33",
"J$	c #D07735",
"K$	c #B64C2C",
"L$	c #D46333",
"M$	c #9E4A3E",
"N$	c #D3693F",
"O$	c #BC562E",
"P$	c #B25C2D",
"Q$	c #EF9A3E",
"R$	c #EE9A38",
"S$	c #BC5C33",
"T$	c #DF7D35",
"U$	c #D36C33",
"V$	c #B74C2C",
"W$	c #B54B2B",
"X$	c #A73F27",
"Y$	c #CE653A",
"Z$	c #B84F2F",
"`$	c #B65B2F",
" %	c #D98636",
".%	c #E99537",
"+%	c #C06437",
"@%	c #BE562C",
"#%	c #EC9138",
"$%	c #D8873B",
"%%	c #CA7937",
"&%	c #AE512E",
"*%	c #CF7935",
"=%	c #EA963A",
"-%	c #E28D38",
";%	c #D97437",
">%	c #C3542E",
",%	c #A24131",
"'%	c #D4693E",
")%	c #B74B2A",
"!%	c #A84028",
"~%	c #C06A35",
"{%	c #DE883A",
"]%	c #DE8B36",
"^%	c #AC4428",
"/%	c #E18138",
"(%	c #B66130",
"_%	c #A33B29",
":%	c #C5572E",
"<%	c #CF7937",
"[%	c #D6863A",
"}%	c #D77D37",
"|%	c #CB6932",
"1%	c #C05430",
"2%	c #9D3B2D",
"3%	c #C95F35",
"4%	c #A13726",
"5%	c #A74528",
"6%	c #AF5129",
"7%	c #9D3625",
"8%	c #D06434",
"9%	c #EF993B",
"0%	c #CF8039",
"a%	c #B86031",
"b%	c #AA422B",
"c%	c #D66431",
"d%	c #D17838",
"e%	c #D56535",
"f%	c #A63F26",
"g%	c #9A3827",
"h%	c #9F4539",
"i%	c #A2473C",
"j%	c #A2463B",
"k%	c #A14539",
"l%	c #A7422E",
"m%	c #DD7433",
"n%	c #E68A36",
"o%	c #E68A35",
"p%	c #E68B37",
"q%	c #D78737",
"r%	c #CD7D37",
"s%	c #CE7535",
"t%	c #C66C32",
"u%	c #9F3625",
"v%	c #A63E29",
"w%	c #C6572E",
"x%	c #C35730",
"y%	c #A03626",
"z%	c #A04032",
"A%	c #B64C2B",
"B%	c #D36534",
"C%	c #D26F36",
"D%	c #CD6934",
"E%	c #B74B2C",
"F%	c #B3482B",
"G%	c #9E3627",
"H%	c #983B2C",
"I%	c #9A3727",
"J%	c #A33F29",
"K%	c #A33F2A",
"L%	c #A13E29",
"M%	c #994235",
"                                                                                                    ",
"                                                                                                    ",
"                                                                                                    ",
"                                                                                                    ",
"                                        . . .                                                       ",
"                                      . . . . .                                                     ",
"                                    . .                                                             ",
"                                    . .                                                             ",
"                                      .           . . . . . . . .                                   ",
"                                      . . . . . . . + @         . .                                 ",
"                                        .       # $ % & *       . .                                 ",
"                                      = - ; ; > , ' ) ! ~ { ] ^   .                                 ",
"                              / ( _ : < [ } | 1 2 3 4 5 6 7 8 9 0 a b c d                           ",
"                            e f g h i 2 j k l m 2 . n o p q r . s t u v w x       2 2 2 2           ",
"                        y z A B C D E F G H I m J . K L M . . . N O P Q R S T U 2 2 2 2 2 2         ",
"                    V W X Y Z `  ...+.@.#.$.%.&.J . *.. =.-.;.>.,.'.).!.~.{.].^./.(.    2 2         ",
"                    _.:.<.[.}.|.1.2.3.4.2 5.5.6.J . 7.8.9.0.a.b.c.d.e.R f.v ].g.h.c.i.  2 2         ",
"                  j.E k.l.m.n.o.p.q.r.#.p s.t.u.v.w.x.y.z.A.B.C.D.E.F.E.E.G.H.I.].J.K.L.2           ",
"                M.2 N.O.P.Q.q.R.S.S.o.T.U.U.V.W.X.Y.Z.`. +.+++@+#+$+$+%+$+#+&+*+=+-+2 ;+            ",
"    2 2 2     >+k.,+'+)+!+~+{+]+^+/+(+_+:+<+[+}+|+1+2 2+k.2 2 2 2 3+3+%+3+2 3+3+#.4+5+6+7+          ",
"    2 2       8+2 9+9+0+2.a+b+c+d+e+f+g+g+h+i+j+k+l+m+n+o+2 p+q+2 #.r+0.^+^+^+^+p s+t+].u+          ",
"    2       v+w+x+y+2 y+z+A+B+C+D+E+F+^+]+G+H+I+J+O K+L+2 M+^+^+N+O+P+Q+]+]+^+^+^+^+R+].S+          ",
"    2 2     T+U+2 $.V+W+2 X+Y+Z+`+ @.@+@@@#@$@%@p &@R+*@#.=@^+^+^+-@;@>@,@'@)@^+^+^+!@].~@          ",
"      2 2 {@]@^@/@(@_@2 :@<@[@` }@|@1@2@3@]+4@5@6@]+7@8@9@0@]+^+^+%+a@b@c@d@e@^+^+^+f@].g@          ",
"        2 h@i@j@k@l@m@n@o@Z p@q@r@s@t@u@v@w@x@y@z@^+<.2 A@B@C@]+0.D@D@E@F@G@H@I@0.^+J@].K@          ",
"          L@&@M@N@O@P@Q@Z R@S@T@U@V@W@X@Y@Z@`@ #.#^+j@r.+#@#w ##$#2 ^+/+%#&#*#=#-#^+J@g.;#          ",
"          >#,#'#)#u /+!#~#{# #]#^#/#(#p _#:#<#[#}#^+^+|#1#2#3#;+E ^+^+^+^+f@>@4#5#^+6#7#8#          ",
"          9#0#a#b#c#p d#e#f#g#h#i#j#k#l#m#}@[#n#o#^+^+^+p#-+q#r#s#t#^+^+^+u#v#w#x#y#J@z#A#          ",
"          B#C#D#E#F#^+^+^+^+^+^+G#H#I#J#K#[#[#L#0.^+^+^+^+M#N#O#P#Q#^+^+^+^+R#S#T#U#J@z#A#          ",
"          V#W#X#Y#Z#^+^+^+^+^+^+G#`#^+J# $[#[#.$^+^+^+^+^+M#N#+$@$Q#^+^+^+^+R##$$$U#J@z#A#          ",
"          %$&$*$=$-$p ^+^+^+^+^+G#`#^+;$>$[#,$p ^+^+^+^+^+'$].=#c.)$^+^+^+^+R##$$$!$~$G@{$          ",
"            ]$^$/$v /+^+^+^+^+^+G#`#^+^+($_$:$^+^+^+^+^+^+<$].[$}$|$0.^+^+^+R##$$$!$1$2$3$          ",
"            4$5$6$7$8$^+^+^+^+9$X+0$^+^+a$b$^+^+^+^+^+^+^+<$].c$d$|$0.^+^+^+R##$e$f f$g$            ",
"              h$i$j$7 &@^+^+^+k$l$]+^+^+^+^+^+^+^+^+^+^+^+<$].m$n$o$0.^+^+^+R##$$$7#p$q$            ",
"                r$s$t$u$^+^+^+k$v$w$]+^+^+^+^+^+^+^+^+^+^+<$].x$n$o$0.^+^+^+y$z$A$B$C$              ",
"                D$E$F$G$/+^+^+p H$I$^+^+^+^+^+^+^+^+^+^+^+<$].x$n$o$0.^+^+^+J$K$L$n$M$              ",
"                  N$O$P$Q$^+^+R$S$T$p ^+^+^+^+^+^+^+^+^+^+E.].m$n$o$0.^+]+k$U$V$W$X$                ",
"                    Y$Z$`$ %.%/++%@%#%^+^+^+^+^+^+^+^+^+^+$%%%&%n$*%=%)@-%;%>%,%                    ",
"                      '%)%!%~%{%]%^%/%^+^+^+^+^+^+^+^+^+^+M#(%_%:%<%[%}%|%1%2%                      ",
"                          3%4%5%6%7%8%9%]+^+^+^+^+^+<.Y@U#0%a%b%c%d%9 e%f%g%                        ",
"                            h%i%j%k%l%m%n%n%n%n%o%p%q%r%s%t%u%v%w%x%y%z%                            ",
"                                      V$K$K$K$K$A%B%C%D%E%F%G%                                      ",
"                                        H%I%g%g%I%J%K%L%g%M%                                        ",
"                                                                                                    ",
"                                                                                                    ",
"                                                                                                    ",
"                                                                                                    ",
"                                                                                                    ",
"                                                                                                    ",
"                                                                                                    "};
