/* XPM */
static char *result[] = {
/* columns rows colors chars-per-pixel */
"50 85 71 1 ",
"  c #5C3D21",
". c #603F23",
"X c #5F4024",
"o c #614225",
"O c #684726",
"+ c #654629",
"@ c #68472A",
"# c #67482A",
"$ c #6B4C2D",
"% c #6E502F",
"& c #6E4F30",
"* c #6E5031",
"= c #735434",
"- c #755837",
"; c #7A5A36",
": c #775A39",
"> c #7A5D3A",
", c #7E613E",
"< c #7F6440",
"1 c #803F0C",
"2 c #82400C",
"3 c #93490E",
"4 c #964C10",
"5 c #9D5217",
"6 c #9C5319",
"7 c #A2561A",
"8 c #815F38",
"9 c #A75B20",
"0 c #82633D",
"q c #89693F",
"w c #AD6124",
"e c #AF6428",
"r c #B16426",
"t c #B26629",
"y c #B66C31",
"u c #B96E33",
"i c #BD7235",
"p c #BD7338",
"a c #C07539",
"s c #C2783D",
"d c #816441",
"f c #856A44",
"g c #8B6D44",
"h c #876B48",
"j c #896E49",
"k c #8D7146",
"l c #8D734B",
"z c #907447",
"x c #92754B",
"c c #95794E",
"v c #957B52",
"b c #997E53",
"n c #C77D42",
"m c #C97E44",
"M c #9C8256",
"N c #9D855A",
"B c #9F885D",
"V c #A0865A",
"C c #A28A5E",
"Z c #A48D62",
"A c #A88F63",
"S c #A79065",
"D c #AA9265",
"F c #AD956A",
"G c #AF986D",
"H c #B19A6E",
"J c #B49C71",
"K c #CA8146",
"L c #CE8449",
"P c #D1874C",
"I c None",
/* pixels */
"IIIIIIIIIIIIIIIIIIIIIIIIIIIIIIIIIIIIIIIIIIIIIIIIII",
"IIIIIIIIIIIIIIIIIIIIIIIIIIIIIIIIIIIIIIIIIIIIIIIIII",
"IIIIIIIIIIIIIIIIIIIIIIIIIIIIIIIIIIIIIIIIIIIIIII0II",
"IIIIIIIIIIIIIIIIIIIIIIIIIIIIIIIIIIIIIIIIIII,IIdJ,I",
"IIIIIIIIIIIIIIIIIIIIIIIIIIIIIIIIIIIIIIIIII,JddDdII",
"IIIIIIIIIIIIIIIIIIIIIIIIIIIIIIIIIIIIIIIIIII,JC>III",
"IIIIIIIIIIIIIIIIIIIIIIIIIIIIIIIIIIIIIIIIIIdJDJ,III",
"IIIIIIIIIIIIIIIIIIIIIIIIIIIIIIIIIIIIIIIIIIdDJN,III",
"IIIIIIIIIIIIIIIIIIIIIIIIIIIIIIIIIIIIIIIIIdDJCF>III",
"IIIIIIIIIIIIIIIIIIIIIIIIIIIIIIIIIIIIIIIIIdJAFbF=II",
"IIIIIIIIIIIIIII=IIIIIIIIIIIIIIIIIIIIIIIII,SHVA-III",
"IIIIIIIIIIIIII>F>III>IIIIIIIIIIIIIIIIIII0SJVA$IIII",
"IIIIIIIIIIIIIII>A00,F,IIIIIIIIIIIIIIIII>AJVDc%IIII",
"IIIIIIIIIIIIIIII-DCHqIIIIIIIIdIIIIIIIIII-CFV&IIIII",
"IIIIIIIIIIIIIIII;MHCG>IIIIII,JdII,IIIIII=JNC&IIIII",
"IIIIIIIIIIIIIIII=VNDCH-I-IIIIdD0dJ>IIIII$VSz=IIIII",
"IIIIIIIIIIIIIIIII-MMCVH=A=IIII>CJ<IIIIII$HbM=IIIII",
"IIIIIIIIIIIIIIIIII%cMACHA=IIII,JDJdIIII$#VCgZ$IIII",
"IIIIIIIIIIIIIIIII=gqMxDVF=IIII0MJDdIII$JVFcb$IIIII",
"IIIIIIIIIIIIIIIIII%$OzxFV=IIII:FSJD0III$HMV*IIIIII",
"IIIIIIIIIIIIIIIIIIIIIObzDC%II=FbHCJdIII$VAcOIIIIII",
"IIIIIIIIIIIIIIIIIIIIIOgMcFC==I-DVHS,III$Dcb#IIIIII",
"IIIIIIIIIIIIIIIIIIIIIIogVzFVG$I$ACJS0II$cVgC@IIIII",
"IIIIIIIIIIIIIIIIIIIIIIIO0VzF$II&cDVJA>.bCzcOIIIIII",
"IIIIIIIIIIIIIIIIIIIIIIo;k0Vc#III%MFC;IIogv0.IIIIII",
"IIIIIIIIIIIIIIIIIIIIIIIoozqCx+II%CVJ=III 0g.IIIIIJ",
"IIIIIIIIIIIIIIIIIII0IIIII.z0ZoII%zDV&<IIIoXboIIIII",
"IIIIIIIIIIIIIIIIIJ-F07w034OqooII%MbH$A-II#< IIJIII",
"IIIIIIIIIIIIIIIIIJI;A0qJ-auo0oI$AgCV$#C-I:Z&IIJIII",
"IIIIIIIIIIIIIIIIIIII-CJD-=$OM$II$ccFNJ$M--Z&IIIJdI",
"IIIIIIIIIIIIIIIIIIII-HCJD>V$M%IJH=VMJ$I&vZ>I>IIdJ,",
"IIIIIIIIIIIIIIIIIJI=CzFCJ>Ok%N%I#@cSM$I$vZ>>JddD0I",
"IIIIIIIIIIIIIIJIIJII%%cDZJ- -B=+b#bbD$I$vZ-I<JB>fd",
"IIIIIIIIIIIIIIIJIIIJ27$bDF-y=Z=c@ZgVc%II*Z-<JDJ,SS",
"IIIIIIIIIIIIIIIIIIIJ25$MMFD-F==x#.czCbOI=Z-dFJM,**",
"IIIIIIIIIIIIIIIIIIJI3$kfNVGZ=Z&zOo0cgoII=Z<DJAF:II",
"IIIIIIIIIIIIIIIIIJIJ33$#gCCH-%Vj+.g0 IIJ=Z<JZGbF-I",
"IIIIIIIIIIIIIIIIIIJI3332@cZA:&Zfob oJIId<A>AHVA;JI",
"IIIIIIIIIIIIIIIIIIJJ3331@bMAS-jZZo<+J:-AA0AJVC&III",
"IIIIIIIIIIIIIIIIIIIJ3331L@NVF:A$$&Z:$-C*>AJVDc&III",
"IIIIIIIIIIIIIIIIIIIJ3331P+gVCG=N$=Z--b+*--ZGb&IJII",
"IIIIIIIIIIIIIIJIIIIJ33;-+jxcAZ-b+I:Zv&IJ=*JMC=IJII",
"IIIIIIIIIIIIIIIJIIJI3=ZOb+ocvDZ=-I:Zv$II=&NDz&IIJI",
"IIIIIIIIIIIIIIIJIIJI-A*$oCoqNbSZJ--Zx&>I*$Jbb=IIJI",
"IIIIIIIIIIIIIIIIIIIJ3*32K$<+jCbF-c-Z*b-I$$VCgC%III",
"IIIIIIIIIIIIIIIIIIIJ3332m<SockZ=oc-S*#v$JNFcc%IIII",
"IIIIIIIIIIIIIIIIIIII333OKL&.8xk#:l*Z-><&$HMV=JIIII",
"IIIIIIIIIIIIIIIIIJII3331LL.g.8v#M-*Z:FD<$MAc@HIIII",
"IIIIIIIIIIIIIIIIIJIIJII1PP1oXoo+ov&-D**DdDbb@hJIIJ",
"IIIIIIIIIIIIIIIIJIIIJII1Pm1II <oox-S&Jo*&cVgZ@jIIJ",
"IIIIIIIIIIIIIIIIIIIIIJI1KP1II&b*+>C&-JXXbCzx &DhII",
"IIIIIIIIIIIIIIIIIIIIIIJ1LK1III-N$NC&=Iof.gv0XI-IJI",
"IIIIIIIIIIIIIIIIIIIIIII1mK1III-N#M+B-IX<V 8g IIIIJ",
"IIIIIIIIIIIIIIIIIIIJIII1KP1III*B#b+Z=<<<NO..boIIIJ",
"IIIIIIIIIIIIIIIJIJIJJIJ1PP1JII*Z#x+B:ZZ-&>@dXIJIII",
"IIIIIIIIIIIIIIIJIJJIJIJ1L>8,JII=Zl+B&&&B- :Z&JJJJI",
"IIIIIIIIIIIIIIIIIJJJ47rrgDDD>4I=Z#vB$&vXM--Z*IIJJI",
"IIIIIIIIIIIIIIIIIJII447qF&=&D,I*S&XN#&v+&fh<JIIJIJ",
"IIIIIIIIIIIIIIIIIJIJ4ram;LLm&N;*S$XN#*vXjDZZhIIJII",
"IIIIIIIIIIIIIIJIIJII3aummPPut$v*Z&#NXl#<D:<,SjIIff",
"IIIIIIIIIIIIIIIJIIIJ3ummPPPm97$z*S:vXj<S-*Z-fII,SS",
"IIIIIIIIIIIIIIIIIIIJ36LLPPPP95@j:B<vX=S*I=Z-IJ,A#*",
"IIIIIIIIIIIIIIIIIIJI157nynay73I+=B<lX=S*I=Z*I:Z+II",
"IIIIIIIIIIIIIIIIIJIHO67dddd61OIJ:Z<l=Z#JI-Z&-M+IJI",
"IIIIIIIIIIIIIIIIIIJI43fADDS>43IJ-N:h:S#JI=Z&vXIIJI",
"IIIIIIIIIIIIIIIIIIJJ4dD::::Z,4Ij*N:<-B$II-Z&xXIIII",
"IIIIIIIIIIIIIIIIIIIJ;A;1111*Z>hD&&N$BX II*Z+x+IIII",
"IIIIIIIIIIIIIIIIIIIJ3;31mL14*B>-I*N$N III*Zl+IIJII",
"IIIIIIIIIIIIIIJIIIIJ4441PP13=Z>II*B$NX<JI-Zl+IIJII",
"IIIIIIIIIIIIIIIJIIJI3341Ps133 b>I*N$NX<IJ=Zl+IIIJI",
"IIIIIIIIIIIIIIIJIIJI3331PP134ov:I&Nl $M:J&Zl+JIIJI",
"IIIIIIIIIIIIIIIIIIIJ3331PsO33 v=J&NlX#b-J&Bl+JIIII",
"IIIIIIIIIIIIIIIIIIIJ3342PL1333Ox*#NhXI#v&$Bl+JIIII",
"IIIIIIIIIIIIIIIIIIII3332sP1333.x*#MhXI+v&$N@IJIIII",
"IIIIIIIIIIIIIIIIIJII3331LL1333.k*XM<XI+v&+N+IJIIII",
"IIIIIIIIIIIIIIIIIJII3331LP1334I.jXMXIII+l bOIIJIIJ",
"IIIIIIIIIIIIIIIIJIII4331LL1434D.hXMXIJI+jXvXIIJIIJ",
"IIIIIIIIIIIIIIIIIIIIIJI1LP1IIIF.hXvXIJIXjXvXIIJIII",
"IIIIIIIIIIIIIIIIIIIIIIJ1Lm1IIIDIX:v III+<Xv JIIIJI",
"IIIIIIIIIIIIIIIIIIIIIII1PL1IIIII :x III#< l JIIIIJ",
"IIIIIIIIIIIIIIIIIIIJIII1Pm1IIIII :x JII+, f JIIIIJ",
"IIIIIIIIIIIIIIIJIIIJIIJ1mK1IIIII >l JIJ#, > IIIIII",
"IIIIIIIIIIIIIIIJIIJIIII1LL1IIIIII , IIJ     IJIJJI",
"IIIIIIIIIIIIIIIIIJJJIII1LL1JIIIII - IIIJIIIIJIIIJI",
"IIIIIIIIIIIIIIIIIJIIJII1LP1JIIIII # IIIJIIIIJIIIIJ"
};
