/* XPM */
static char * wallin_xpm[] = {
"50 50 627 2",
"  	c None",
". 	c #9EA44D",
"+ 	c #91974B",
"@ 	c #A9AD52",
"# 	c #A1A647",
"$ 	c #9DA346",
"% 	c #717A39",
"& 	c #92824D",
"* 	c #CD813F",
"= 	c #CB813E",
"- 	c #CC813E",
"; 	c #BC9747",
"> 	c #A3A648",
", 	c #9BA046",
"' 	c #9BA048",
") 	c #72793A",
"! 	c #AA7D38",
"~ 	c #CD7F3A",
"{ 	c #CD7F38",
"] 	c #CB8040",
"^ 	c #CB813F",
"/ 	c #CD823F",
"( 	c #D3883F",
"_ 	c #D2883F",
": 	c #DD8D38",
"< 	c #EC9739",
"[ 	c #EC9738",
"} 	c #EB983B",
"| 	c #C1913F",
"1 	c #9EA447",
"2 	c #8B9343",
"3 	c #707A38",
"4 	c #9A7D38",
"5 	c #D18539",
"6 	c #D5853A",
"7 	c #D27F38",
"8 	c #D36A33",
"9 	c #D16936",
"0 	c #D16C3A",
"a 	c #D16D3B",
"b 	c #D06F47",
"c 	c #DD8D3C",
"d 	c #DD8C38",
"e 	c #D4853A",
"f 	c #E08E3B",
"g 	c #EDA24F",
"h 	c #F0AE64",
"i 	c #F0AF65",
"j 	c #EE9F49",
"k 	c #C09140",
"l 	c #6C7637",
"m 	c #9D8038",
"n 	c #E99839",
"o 	c #EF9939",
"p 	c #E78739",
"q 	c #DB7A36",
"r 	c #D17134",
"s 	c #CF7736",
"t 	c #CE8038",
"u 	c #CE7F38",
"v 	c #D26C33",
"w 	c #CF6D45",
"x 	c #D48539",
"y 	c #E7963D",
"z 	c #F2BB78",
"A 	c #F2BC7A",
"B 	c #E99F4D",
"C 	c #E7953C",
"D 	c #DE8B39",
"E 	c #ED9D46",
"F 	c #F4BC77",
"G 	c #F3BA6D",
"H 	c #F0A34D",
"I 	c #9EA446",
"J 	c #C58D3A",
"K 	c #F0973A",
"L 	c #E48437",
"M 	c #D66731",
"N 	c #D27334",
"O 	c #E59039",
"P 	c #E99439",
"Q 	c #E9943A",
"R 	c #E9943C",
"S 	c #D8843A",
"T 	c #CF7C37",
"U 	c #D56B35",
"V 	c #D26738",
"W 	c #D26536",
"X 	c #CE8B49",
"Y 	c #DA8B3A",
"Z 	c #EF993C",
"` 	c #F1B46D",
" .	c #F2C588",
"..	c #F2C587",
"+.	c #F2BF79",
"@.	c #F2AF5B",
"#.	c #ED9A3E",
"$.	c #D68638",
"%.	c #DD8E3A",
"&.	c #F1AC58",
"*.	c #E59844",
"=.	c #C0913F",
"-.	c #C78D3C",
";.	c #DB6E33",
">.	c #EA8D3A",
",.	c #EE993B",
"'.	c #ED9638",
").	c #E48735",
"!.	c #E58735",
"~.	c #DE7A33",
"{.	c #D36B33",
"].	c #D46E34",
"^.	c #D46E35",
"/.	c #CE7F3A",
"(.	c #D27537",
"_.	c #D36D35",
":.	c #CF6A42",
"<.	c #D9893A",
"[.	c #EE993A",
"}.	c #EF993A",
"|.	c #F0A552",
"1.	c #F1AC5F",
"2.	c #F0AC5E",
"3.	c #F1AA55",
"4.	c #F1B767",
"5.	c #EFA043",
"6.	c #EA9539",
"7.	c #E38F38",
"8.	c #E4913A",
"9.	c #E69239",
"0.	c #C1903F",
"a.	c #BA7939",
"b.	c #DD7335",
"c.	c #EE9A3A",
"d.	c #EF9938",
"e.	c #E88B39",
"f.	c #DF7737",
"g.	c #D26B33",
"h.	c #D07535",
"i.	c #D07536",
"j.	c #CF7F39",
"k.	c #CE7F39",
"l.	c #CF7D39",
"m.	c #D47854",
"n.	c #CC8443",
"o.	c #DD8B38",
"p.	c #D7873A",
"q.	c #DA893B",
"r.	c #DA893A",
"s.	c #DA883A",
"t.	c #D6863A",
"u.	c #D8883C",
"v.	c #EA9A42",
"w.	c #EA9639",
"x.	c #EC9637",
"y.	c #E5913B",
"z.	c #BCA042",
"A.	c #A7A546",
"B.	c #9CA347",
"C.	c #727334",
"D.	c #8B6730",
"E.	c #A1662F",
"F.	c #D76D34",
"G.	c #DC7037",
"H.	c #DE7436",
"I.	c #E78C37",
"J.	c #EA9338",
"K.	c #E99538",
"L.	c #EA9538",
"M.	c #DD8C3A",
"N.	c #D4853B",
"O.	c #D0813A",
"P.	c #CE7D37",
"Q.	c #D26B36",
"R.	c #CC704B",
"S.	c #CA8445",
"T.	c #D78637",
"U.	c #DB8B38",
"V.	c #E7A154",
"W.	c #EFAD64",
"X.	c #EFAA58",
"Y.	c #EFA44C",
"Z.	c #E59038",
"`.	c #DC8B37",
" +	c #DC8A37",
".+	c #DA8937",
"++	c #E2903A",
"@+	c #B9A343",
"#+	c #9AA146",
"$+	c #9AA147",
"%+	c #81893C",
"&+	c #7C7936",
"*+	c #90642E",
"=+	c #C66430",
"-+	c #DB7034",
";+	c #EE9A39",
">+	c #F09938",
",+	c #F09939",
"'+	c #E49138",
")+	c #CD7C37",
"!+	c #D46932",
"~+	c #CC894F",
"{+	c #D6883A",
"]+	c #EDAF69",
"^+	c #F3BD79",
"/+	c #F3C281",
"(+	c #F0BD76",
"_+	c #F3BD74",
":+	c #F2B15E",
"<+	c #F0993A",
"[+	c #EF983B",
"}+	c #E9943E",
"|+	c #E9933E",
"1+	c #E0853A",
"2+	c #B07A3A",
"3+	c #9D7E3C",
"4+	c #947737",
"5+	c #8F7331",
"6+	c #8F692D",
"7+	c #C16430",
"8+	c #D5642F",
"9+	c #D76632",
"0+	c #D97231",
"a+	c #DE7933",
"b+	c #F0983B",
"c+	c #E29039",
"d+	c #CF7C38",
"e+	c #D47549",
"f+	c #D5873A",
"g+	c #F2B46E",
"h+	c #F3C588",
"i+	c #F3C589",
"j+	c #F1B766",
"k+	c #F1AA53",
"l+	c #E99036",
"m+	c #E68935",
"n+	c #E07B36",
"o+	c #DD7533",
"p+	c #DF7933",
"q+	c #DE7935",
"r+	c #DF7937",
"s+	c #D56332",
"t+	c #DA7234",
"u+	c #DB7736",
"v+	c #D26833",
"w+	c #E88839",
"x+	c #F19939",
"y+	c #ED9339",
"z+	c #D97534",
"A+	c #E28437",
"B+	c #EB8F37",
"C+	c #CF803A",
"D+	c #D36933",
"E+	c #D98D44",
"F+	c #E9973C",
"G+	c #F3C17E",
"H+	c #F3BD75",
"I+	c #F3B96B",
"J+	c #F0A650",
"K+	c #F1A64E",
"L+	c #E17E37",
"M+	c #D96E32",
"N+	c #E28036",
"O+	c #E48736",
"P+	c #EE9638",
"Q+	c #E98F38",
"R+	c #E07B38",
"S+	c #DC7235",
"T+	c #EB9338",
"U+	c #D07836",
"V+	c #DB7235",
"W+	c #E99539",
"X+	c #D67A37",
"Y+	c #DA6D35",
"Z+	c #E07C35",
"`+	c #D08139",
" @	c #D36932",
".@	c #E18E38",
"+@	c #ED993B",
"@@	c #F1B262",
"#@	c #F2B25F",
"$@	c #EDA855",
"%@	c #EA923D",
"&@	c #DD7635",
"*@	c #DE7537",
"=@	c #ED9640",
"-@	c #EE9F4D",
";@	c #F0A755",
">@	c #F2BB70",
",@	c #F09F42",
"'@	c #ED9538",
")@	c #DB7332",
"!@	c #DD7436",
"~@	c #E88C39",
"{@	c #ED963A",
"]@	c #D07A37",
"^@	c #E28337",
"/@	c #EE9739",
"(@	c #EC973B",
"_@	c #D38138",
":@	c #D36F34",
"<@	c #D57035",
"[@	c #D18037",
"}@	c #EB9638",
"|@	c #D08238",
"1@	c #C65F30",
"2@	c #D48842",
"3@	c #E98D3A",
"4@	c #DF7A36",
"5@	c #DD7434",
"6@	c #F09F49",
"7@	c #EFAF66",
"8@	c #EFB46E",
"9@	c #F2BD77",
"0@	c #F1B15D",
"a@	c #F09C3F",
"b@	c #E78638",
"c@	c #DF7B34",
"d@	c #ED9A3B",
"e@	c #EFAC5D",
"f@	c #F09E42",
"g@	c #E59138",
"h@	c #E48537",
"i@	c #E89438",
"j@	c #D38238",
"k@	c #D16C33",
"l@	c #D26D34",
"m@	c #D88739",
"n@	c #DB8A39",
"o@	c #AA4B2B",
"p@	c #D48944",
"q@	c #E78937",
"r@	c #D66934",
"s@	c #DA8238",
"t@	c #EB973D",
"u@	c #F3BE7B",
"v@	c #F3C688",
"w@	c #F3C485",
"x@	c #F4B96B",
"y@	c #F2AB53",
"z@	c #EC933B",
"A@	c #E17F37",
"B@	c #EF9739",
"C@	c #F09A3B",
"D@	c #F0B46B",
"E@	c #F2B869",
"F@	c #F0A54C",
"G@	c #D28339",
"H@	c #CF7F3A",
"I@	c #D56C34",
"J@	c #E5863A",
"K@	c #EA963C",
"L@	c #CE7E36",
"M@	c #D36D34",
"N@	c #D18038",
"O@	c #E39138",
"P@	c #E89539",
"Q@	c #AA4A2B",
"R@	c #D38840",
"S@	c #E58F3B",
"T@	c #D46832",
"U@	c #CF7936",
"V@	c #F0B46F",
"W@	c #F2C280",
"X@	c #F3BE77",
"Y@	c #F2B765",
"Z@	c #F0AB56",
"`@	c #EB923A",
" #	c #DA6E34",
".#	c #E58838",
"+#	c #EE9A3B",
"@#	c #F1B570",
"##	c #F2C07D",
"$#	c #F3B766",
"%#	c #F1A54D",
"&#	c #E8953A",
"*#	c #CF7A36",
"=#	c #DE8B37",
"-#	c #E89439",
";#	c #E79439",
">#	c #D46833",
",#	c #CE7B35",
"'#	c #E49239",
")#	c #A94B2B",
"!#	c #C47038",
"~#	c #E28E3A",
"{#	c #D27336",
"]#	c #D26F34",
"^#	c #F1B46F",
"/#	c #F2BC74",
"(#	c #F3B96C",
"_#	c #F1AD58",
":#	c #F09B3D",
"<#	c #E58639",
"[#	c #E48337",
"}#	c #F1B065",
"|#	c #F2C17F",
"1#	c #F3B96A",
"2#	c #F4B766",
"3#	c #F1A64D",
"4#	c #D58538",
"5#	c #CD7D37",
"6#	c #D36C34",
"7#	c #CF7A38",
"8#	c #DC8B39",
"9#	c #D26A33",
"0#	c #D88539",
"a#	c #E79539",
"b#	c #CF7836",
"c#	c #AA4629",
"d#	c #B45B30",
"e#	c #DA8639",
"f#	c #D16B33",
"g#	c #CE7C38",
"h#	c #E08E38",
"i#	c #EFAA55",
"j#	c #F1B15E",
"k#	c #F1A64F",
"l#	c #EF9E43",
"m#	c #EF9C3D",
"n#	c #ED9839",
"o#	c #E27F38",
"p#	c #EB9037",
"q#	c #EE9D43",
"r#	c #F4BE7C",
"s#	c #F0AE5A",
"t#	c #EF9B3C",
"u#	c #DF8D38",
"v#	c #D17436",
"w#	c #D46B34",
"x#	c #EA953B",
"y#	c #EC973A",
"z#	c #D28239",
"A#	c #D26D35",
"B#	c #D68338",
"C#	c #ED9738",
"D#	c #D27235",
"E#	c #AB4229",
"F#	c #A94C2B",
"G#	c #B35C2C",
"H#	c #D16B35",
"I#	c #C57237",
"J#	c #EA9137",
"K#	c #DA6F32",
"L#	c #ED9438",
"M#	c #EEAC60",
"N#	c #F4C07B",
"O#	c #EFAC57",
"P#	c #D5843A",
"Q#	c #D36B34",
"R#	c #CE7936",
"S#	c #E8943B",
"T#	c #E4933A",
"U#	c #C56734",
"V#	c #D27638",
"W#	c #E18F39",
"X#	c #A84B2A",
"Y#	c #A34027",
"Z#	c #CA5D33",
"`#	c #B25B2E",
" $	c #E59037",
".$	c #E07D34",
"+$	c #F3BA6E",
"@$	c #F1AB57",
"#$	c #D07636",
"$$	c #D16F35",
"%$	c #B25B2F",
"&$	c #D06934",
"*$	c #C3773F",
"=$	c #9E3626",
"-$	c #C75931",
";$	c #B3592F",
">$	c #EEA555",
",$	c #F3B769",
"'$	c #F2B05C",
")$	c #DB8A3A",
"!$	c #CE7D34",
"~$	c #E28F3A",
"{$	c #E99338",
"]$	c #AB472F",
"^$	c #B1572E",
"/$	c #C75932",
"($	c #B45A30",
"_$	c #F4B15C",
":$	c #F1B15C",
"<$	c #EF9C3F",
"[$	c #E89639",
"}$	c #CF7D37",
"|$	c #D07832",
"1$	c #DB8537",
"2$	c #C8582F",
"3$	c #A44D3D",
"4$	c #CB7E3E",
"5$	c #D16D36",
"6$	c #A03927",
"7$	c #BF6D32",
"8$	c #DA8B39",
"9$	c #EE9939",
"0$	c #E38336",
"a$	c #F3AD57",
"b$	c #F0A852",
"c$	c #C57633",
"d$	c #BA512C",
"e$	c #CF6934",
"f$	c #D07734",
"g$	c #BA5332",
"h$	c #CC8141",
"i$	c #9E3625",
"j$	c #BE6B32",
"k$	c #EF9A39",
"l$	c #E17A39",
"m$	c #C57534",
"n$	c #B84C2A",
"o$	c #D07833",
"p$	c #BA512D",
"q$	c #984033",
"r$	c #BA512F",
"s$	c #A44427",
"t$	c #CE7D3C",
"u$	c #E48F37",
"v$	c #E2793A",
"w$	c #EE983B",
"x$	c #C57535",
"y$	c #E5923C",
"z$	c #B45A2F",
"A$	c #D36333",
"B$	c #D36434",
"C$	c #A44534",
"D$	c #CF683D",
"E$	c #BC502E",
"F$	c #B25831",
"G$	c #D46A36",
"H$	c #DF7D33",
"I$	c #D07735",
"J$	c #B64C2C",
"K$	c #D46333",
"L$	c #9E4A3E",
"M$	c #D3693F",
"N$	c #BC562E",
"O$	c #B25C2D",
"P$	c #EF9A3E",
"Q$	c #EE9A38",
"R$	c #BC5C33",
"S$	c #DF7D35",
"T$	c #D36C33",
"U$	c #B74C2C",
"V$	c #B54B2B",
"W$	c #A73F27",
"X$	c #CE653A",
"Y$	c #B84F2F",
"Z$	c #B65B2F",
"`$	c #D98636",
" %	c #E99537",
".%	c #C06437",
"+%	c #BE562C",
"@%	c #EC9138",
"#%	c #D8873B",
"$%	c #CA7937",
"%%	c #AE512E",
"&%	c #CF7935",
"*%	c #EA963A",
"=%	c #E28D38",
"-%	c #D97437",
";%	c #C3542E",
">%	c #A24131",
",%	c #D4693E",
"'%	c #B74B2A",
")%	c #A84028",
"!%	c #C06A35",
"~%	c #DE883A",
"{%	c #DE8B36",
"]%	c #AC4428",
"^%	c #E18138",
"/%	c #B66130",
"(%	c #A33B29",
"_%	c #C5572E",
":%	c #CF7937",
"<%	c #D77D37",
"[%	c #CB6932",
"}%	c #C05430",
"|%	c #9D3B2D",
"1%	c #C95F35",
"2%	c #A13726",
"3%	c #A74528",
"4%	c #AF5129",
"5%	c #9D3625",
"6%	c #D06434",
"7%	c #EF993B",
"8%	c #CF8039",
"9%	c #B86031",
"0%	c #AA422B",
"a%	c #D66431",
"b%	c #D17838",
"c%	c #D56535",
"d%	c #A63F26",
"e%	c #9A3827",
"f%	c #9F4539",
"g%	c #A2473C",
"h%	c #A2463B",
"i%	c #A14539",
"j%	c #A7422E",
"k%	c #DD7433",
"l%	c #E68A36",
"m%	c #E68A35",
"n%	c #E68B37",
"o%	c #D78737",
"p%	c #CE7535",
"q%	c #C66C32",
"r%	c #9F3625",
"s%	c #A63E29",
"t%	c #C6572E",
"u%	c #C35730",
"v%	c #A03626",
"w%	c #A04032",
"x%	c #B64C2B",
"y%	c #D36534",
"z%	c #D26F36",
"A%	c #CD6934",
"B%	c #B74B2C",
"C%	c #B3482B",
"D%	c #9E3627",
"E%	c #983B2C",
"F%	c #9A3727",
"G%	c #A33F29",
"H%	c #A33F2A",
"I%	c #A13E29",
"J%	c #994235",
"                                                                                                    ",
"                                                                                                    ",
"                                                                                                    ",
"                                                                                                    ",
"                                                                                                    ",
"                                                                                                    ",
"                                                                                                    ",
"                                                                                                    ",
"                                                                                                    ",
"                                                    . +                                             ",
"                                                @ # $ % &                                           ",
"                                      * = - - ; > , ' ) ! ~ { ]                                     ",
"                              ^ / ( _ : < [ } | 1 2 3 4 5 6 7 8 9 0 0 a b                           ",
"                            c d e f < g h i j k 1 l m n o p q r s t t u v w                         ",
"                        x y z A B C D E F G H k I l J K L M N O P Q R S T U V W                     ",
"                    X Y Z `  ...+.@.#.$.%.&.*.=.I l -.;.>.o ,.'.).!.~.{.].^./.(._.:.                ",
"                    <.[.}.|.1.2.3.4.5.6.7.8.9.0.I l a.b.c.d.e.f.g.h.i.T j.u /.k.l.g.m.              ",
"                  n.o.p.q.r.s.t.u.v.w.x.o y.z.A.B.C.D.E.F.G.H.I.J.K.L.K.K.M.N.O./.P.Q.R.            ",
"                S.T.U.V.W.X.Y.Z.`. +.+$.++++@+#+$+%+&+*+=+-+;+;+>+>+>+>+>+,+o '+{ /.)+!+            ",
"              ~+{+]+^+/+(+_+:+,+>+<+[+}+|+1+2+3+4+5+6+7+8+9+0+a+b+,+>+>+>+>+>+>+c+k./.d+e+          ",
"              f+g+h+i+/+4.j+k+l+m+n+o+p+p+q+r+s+t+u+v+w+,+,+x+y+z+A+B+d.>+>+>+>+o c+C+/.D+          ",
"            E+F+G+_+H+I+J+K+L+M+N+O+P+>+,+Q+R+S+T+Q U+V+d.>+>+>+W+X+Y+Z+,+,+>+>+>+>+`+/. @          ",
"            .@+@@@#@$@%@&@*@=@-@;@>@,@'@)@!@~@{@o 6.`+]@^@/@>+>+>+(@_@:@<@[@}@>+>+>+|@/.1@          ",
"          2@}.o ;+3@4@5@6@7@8@..9@0@a@b@c@,+d@e@f@,+g@C+s h@,+>+>+<+i@j@k@l@m@>+>+>+n@/.o@          ",
"          p@}.,+q@r@s@t@u@ .v@w@x@y@z@A@B@C@D@E@F@>+}.G@H@I@J@,+d.>+>+K@L@M@N@O@d.>+P@/.Q@          ",
"          R@6.S@T@U@,.V@ .W@X@Y@Z@`@ #.#+#@###$#%#>+,+&#/.*#v =#-#>+>+<+;#G@>#,#'#>+P@k.)#          ",
"          !#~#{#]#t <+^#/#(#$#_#:#<#[#o }#|#1#2#3#>+>+< 4#5#6#7#8#>+>+>+>+n@:@9#0#>+a#b#c#          ",
"          d#e#f#g#h#o i#j#k#l#m#n#o#p#q#r#9@2#s#t#>+>+>+u#C+v#w#`+x#>+>+>+y#z#A#B#C#P@D#E#          ",
"          F#G#H#I#Z.>+>+>+>+>+>+J#K#L#M#N#2#2#O#d.>+>+>+>+P#H@Q#R#S#>+>+>+>+T#U#V#W#P@D#E#          ",
"          X#Y#Z#`# $>+>+>+>+>+>+J#.$>+M#+$2#2#@$>+>+>+>+>+P#H@#$$$S#>+>+>+>+T#%$&$W#P@D#E#          ",
"          *$=$-$;$`.o >+>+>+>+>+J#.$>+>$,$2#'$o >+>+>+>+>+)$/.,#g.!$>+>+>+>+T#%$&$~${$M@]$          ",
"            ^$/$($u <+>+>+>+>+>+J#.$>+>+_$:$<$>+>+>+>+>+>+[$/.}$_.|$d.>+>+>+T#%$&$~$1$2$3$          ",
"            4$5$6$7$8$>+>+>+>+9$*@0$>+>+a$b$>+>+>+>+>+>+>+[$/.c$d$|$d.>+>+>+T#%$e$d f$g$            ",
"              h$i$j$6 6.>+>+>+k$l$,+>+>+>+>+>+>+>+>+>+>+>+[$/.m$n$o$d.>+>+>+T#%$&$b#p$q$            ",
"                r$s$t$u$>+>+>+k$v$w$,+>+>+>+>+>+>+>+>+>+>+[$/.x$n$o$d.>+>+>+y$z$A$B$C$              ",
"                D$E$F$D <+>+>+o G$H$>+>+>+>+>+>+>+>+>+>+>+[$/.x$n$o$d.>+>+>+I$J$K$n$L$              ",
"                  M$N$O$P$>+>+Q$R$S$o >+>+>+>+>+>+>+>+>+>+K./.m$n$o$d.>+,+k$T$U$V$W$                ",
"                    X$Y$Z$`$ %<+.%+%@%>+>+>+>+>+>+>+>+>+>+#%$%%%n$&%*%}@=%-%;%>%                    ",
"                      ,%'%)%!%~%{%]%^%>+>+>+>+>+>+>+>+>+>+P#/%(%_%:%t.<%[%}%|%                      ",
"                          1%2%3%4%5%6%7%,+>+>+>+>+>+}.+#W#8%9%0%a%b%8 c%d%e%                        ",
"                            f%g%h%i%j%k%l%l%l%l%m%n%o%5#p%q%r%s%t%u%v%w%                            ",
"                                      U$J$J$J$J$x%y%z%A%B%C%D%                                      ",
"                                        E%F%e%e%F%G%H%I%e%J%                                        ",
"                                                                                                    ",
"                                                                                                    ",
"                                                                                                    ",
"                                                                                                    ",
"                                                                                                    ",
"                                                                                                    ",
"                                                                                                    "};
