/* XPM */
static char *_e4b9d1666c14604c8cd0cb6f880f1a3OjZ6dxmG63tpfUmu[] = {
/* columns rows colors chars-per-pixel */
"55 85 151 2 ",
"   c None",
".  c #5D3D21",
"X  c #603F23",
"o  c #5F4024",
"O  c #624225",
"+  c #684726",
"@  c #654629",
"#  c #68472A",
"$  c #67482A",
"%  c #6B4C2D",
"&  c #6E502F",
"*  c #6E4F30",
"=  c #6E5131",
"-  c #735533",
";  c #765937",
":  c #7D5B35",
">  c #775A39",
",  c #7A5D3A",
"<  c #7D613D",
"1  c #7F6440",
"2  c #803F0C",
"3  c #82400C",
"4  c #93490E",
"5  c #844613",
"6  c #874B18",
"7  c #8A511F",
"8  c #9C5115",
"9  c #A3591E",
"0  c #8D5523",
"q  c #815F38",
"w  c #A65C21",
"e  c #82643D",
"r  c #89693F",
"t  c #976738",
"y  c #996C3D",
"u  c #B0662B",
"i  c #B36C34",
"p  c #816541",
"a  c #896740",
"s  c #856A44",
"d  c #8A6C43",
"f  c #876B48",
"g  c #896E49",
"h  c #8C7146",
"j  c #8D734A",
"k  c #907447",
"l  c #92764C",
"z  c #95794E",
"x  c #957C52",
"c  c #997E53",
"v  c #9B8256",
"b  c #9E855A",
"n  c #9F865B",
"m  c #9D8559",
"M  c #9F875C",
"N  c #9D855A",
"B  c #9F885D",
"V  c #A0875A",
"C  c #A1875E",
"Z  c #A0865A",
"A  c #A1895B",
"S  c #A1895D",
"D  c #A38A5D",
"F  c #A1895E",
"G  c #A2895E",
"H  c #A18B5F",
"J  c #A28A5E",
"K  c #A38B5E",
"L  c #A48B5E",
"P  c #A48A5E",
"I  c #A48C5E",
"U  c #A58C5F",
"Y  c #A68D5F",
"T  c #A68E5F",
"R  c #A28A5E",
"E  c #AA8A5D",
"W  c #A28C61",
"Q  c #A58D60",
"!  c #A58C60",
"~  c #A68D60",
"^  c #A58E60",
"/  c #A58E61",
"(  c #A68E61",
")  c #A78E61",
"_  c #A58D62",
"`  c #A68D62",
"'  c #A78F62",
"]  c #A68F64",
"[  c #A48D62",
"{  c #A88F63",
"}  c #A88F65",
"|  c #A88F63",
" . c #A79065",
".. c #A79165",
"X. c #A69065",
"o. c #A69066",
"O. c #A79064",
"+. c #A89062",
"@. c #A89063",
"#. c #A89163",
"$. c #A99164",
"%. c #A99065",
"&. c #A89165",
"*. c #AA9365",
"=. c #A99066",
"-. c #A89167",
";. c #A99267",
":. c #AA9266",
">. c #AB9266",
",. c #AB9366",
"<. c #AB9367",
"1. c #A99165",
"2. c #AA9368",
"3. c #AB9368",
"4. c #AB9468",
"5. c #AB9469",
"6. c #AB956B",
"7. c #AC9468",
"8. c #AC9469",
"9. c #AC9569",
"0. c #AD9569",
"q. c #AE9669",
"w. c #AD966B",
"e. c #AE966A",
"r. c #AE966B",
"t. c #AE976B",
"y. c #AF976B",
"u. c #AD976C",
"i. c #AD966D",
"p. c #AF976C",
"a. c #AD9569",
"s. c #AF986C",
"d. c #AF986D",
"f. c #AF986C",
"g. c #B0986B",
"h. c #B0996D",
"j. c #B1996E",
"k. c #B19A6E",
"l. c #B1996E",
"z. c #B29B70",
"x. c #B29B71",
"c. c #B39C70",
"v. c #B39C71",
"b. c #B49D71",
"n. c #B49D72",
"m. c #B59E72",
"M. c #B59E73",
"N. c #B69F74",
"B. c #B49C71",
"V. c #CB8146",
"C. c #CE8449",
/* pixels */
"                                                                                                              ",
"                e                                                                                             ",
"              ; t.e     <                                                                                     ",
"                ; ' e e N.>                                                                                   ",
"                  ; Y b.:.,                                                                                   ",
"                  > g.Y c.4.,                                                                                 ",
"                - K k t.K c.,                                                                                 ",
"                  - - l :.' c.;                                                                               ",
"                      % c t.4.;   -                                                                           ",
"                      % v v t.:.; u.-                                                                         ",
"                    % h a v M u.:.-                                                                           ",
"                      % $ d K K d.;                                                                           ",
"                          $ z ' } >                                                                           ",
"                          $ c v :...-                                                                         ",
"                            $ v b 4.>                                                                         ",
"                            # h K K t.-                                                                       ",
"                          # d h z ' ' ;                                                                       ",
"                        @ c O O z c :.K ; ;                                                                   ",
"                          O   O r b c :.C z.;                                                                 ",
"                                O h K c 4.;                                                                   ",
"                                O l h ' -                                                                     ",
"                                O q z h $           , <                                                       ",
"                  p           O a O q z $         > 2.2.p                                                 -   ",
"                < z.p     ,     O   O O #       ; ..* * 2.p                                     ,       > t., ",
"                  p :.p p N.,       o < o     ; ..*     *                                     < t.< e e ' >   ",
"                    , K N.<         % c =   , K *                                               e k.' t.;     ",
"                    < c.+.N.p         - b % b K *                                             , k.Y d.v ;     ",
"                    < m b.:.p         - B % c #                                         ;   > k.Y t.v b ;     ",
"                    > t.Y b.:.<       = K $ c #                                       - { ; k.A +.v c ;       ",
"                  - t.c u.' N.p       = W $ z #                                       - +.k.A { c z &         ",
"                    ; :.V k.+.< <       = W h #                                       - k.b :.z c a h -       ",
"                      % ' V b.' e ,     - W %                                         - m t.l h @ % %         ",
"                      * z :.b N.' , ,   - ..%               s f s         p         - K :.l c @               ",
"                        = v t.P ; = b ; = ..%             g ..] ] s     s N.g j - - P t.l v d @               ",
"                        = P m c.-   % x = ' =           < :., , < ..p p b.:.b.:.p A 4.l V d O         p       ",
"                        = l :.V *     $ h - ' >   4 8 < ..- w < c.< <.b.+.b.K k.K < k b e O   ,     p z.<     ",
"                        - v c k.%     $ g - ' ,   4 - ' - C.C.V.< :.b.K b.v k.h ; c.; r h : , N.p p :.p       ",
"                      % ' d P v % $     $ - ' ,   4 - ' - C.C.C.< b.K c.c % = = l - r h O O   < N.K ,         ",
"                        % c z t.V b.%     - K ,   ; ' $ C.C.C.< b.P z.c -     O I r h O     p N.+.c.<         ",
"                      s :.= A v k.%       - M >   ; W # 9 u u < { z.v k.-     . O a +       p :.b.m <         ",
"                    p :.> $ z { v %       - b >   - W $ 3 3 s :.k.v d.- k.-   . e X       < :.b.Y t.>         ",
"  -               , :.>   $ c x :.% ,       = b % M O 2 < 3 s k.b t.%   -     % v $ * - - p N.' u.c t.-       ",
", t.>       ,       ;   # ' d K z % K ,     = b % b O < z.e k.V :.l % >       % v % b K ' < +.k.V :.;         ",
"  > ' e e < t.<           O l k K c O ,     = b % v O 2 < k.b :.l % $ b $   = b = h O @ e ' b.V ' %           ",
"    ; t.' k.e 2 2 2 2 2 2 O e z a O O c > 2 = b % v O 2 , K :.x ' $ 2 # c @ - K - . 2 , ' N.b :.z * 2 2 2 2 2 ",
"    ; v d.Y k., i i i i i O d e O i O c > i * b j O 2 2 , t.z b a u.$ 2 @ z - ] - i i i ; P t.v = i i i i i i ",
"    ; b v t.Y k.> i ; i O c O O i i O 1 < i % b h O 2 & t.x P a % % 2 2 $ l = ' - i i i - c.m P = i i i i i i ",
"      ; c v +.A k.; { - 2 O p # 2 2 ; ' ' , $ v g O 2 & x ' a x % 2 3 2 $ j % ' - 2 2 2 * V :.l = 2 2 2 2 2 2 ",
"        & z c { A k.+.-   = W ;   ; K = % % # v s o 2 % ' a v $ 2 2 3   # h K &         % k.c v -             ",
"      - h a c z :.b k.-   - W ; ; v # O j % # v p o $ ' a c : # 2 3 3   $ h K =       $ % v P d ' %           ",
"        % % @ h l t.m -     > ' x =     o g O v o 2 + # c : d # 2 3 2     - B = k.  % b.V t.z c %             ",
"              @ c l :.K -   > ' x %     o s O c o 2 2 + O O O :.& 2 2 b.  - B = b.    % k.v A =               ",
"              @ d v l t.P - - ' x % b.  o a o x . 2 6 % g O - % 1 s 2   $ b -     b.  % v { z #             b.",
"      b.    p :.@ d V l 4.A k.% -   b.b.  o , x . y t $ B O 2 < ' ' 1   $ v -       b.% :.x c $             b.",
"      b.  p :.= = O e b k t.% ' -   b.  < s , l . E 7 % W O 1 K O O ' 1 $ c =     b.  % z C d ' # b.  b.    b.",
"            *   O : h r K l % ' -   b.j ' W ; j . | 5 & W # v O 0 . O . # c %     b.O c K k l O ;       b.    ",
"            b.    O O h r ' l O - b.p ' % & K - . b.> ' $ c @     . C z # c %     - b O a z e O b.      b.    ",
"      b.  b.b.    b.  O h r I # -     =     $ b - s > ' $ O       b.. z O c $   & x $   O e d O b.      b.    ",
"b.    b.    b.      b.  + a O . -           # M ; ] = ' O           . z O c # % < 1 b.    O O c O     b.      ",
"  b.      b.        b.  # X e . -         p :.$ b > = ' O b.      b.. l O c O , ' ' ;     # p O               ",
"          b.        - - * $ v % - b.    ; ; = # v , = W O b.  b.  b.. j O x O h % = K ;   > W =             b.",
"        b.    b.  ; ' K b % v % - b.  > ' ' , # v > % ' O b.    g   . h . x s .   b.# v ; ; W -       b.      ",
"      b.  b.  b., :.# @ O h = b = b.$ b $ % ' < $ j % W O b.  p ' = b.. x o a .   b.  = x ' > b.      b.  b.  ",
"        b.      b.$       . - K - @ c # %   $   $ j % W O b.1 ' -   b.. x < .   b.    % x ' >   b.  b.    b.b.",
"        b.b.    b.      b.# - ] - z @ c $   b.  # g B O   b.p ' -     . z < . b.      % x ] ;         s s p   ",
"          b.            b.# - ' = l $ $         # s W O   , ' =       . l < .           - ' ;       < ....:.p ",
"          b.            b.  - ' % j $ O           % K O   , ' -   b.  . h .       b.    - ' ;     < ' $ = = > ",
"b.        b.    b.  b.b.    # & K h # O     b.    % K O > W O     b.  . g .       b.    - ' -   > W #       * ",
"  b.    b.      b.    b.    @ = K h $   b.  b.    % K O ; K O       b.. s .       b.    - ' % ; v # b.        ",
"  b.    b.    b.b.      b.  O = B - O b.    b.> , , K O > K # b.    b.s s s             - ' % l O     b.      ",
"          b.  b.        b.  O = B - O       & :.:.:.p O K O   b.    g ] ] ..p           - ' % l O     b.      ",
"          b.        b.  b.  . x - b $     = K % - - :.p v O   b.  s :.% % % :.p       b.- W # l #             ",
"                ; - -       . j - v $   & b #     $ > O v O   b.    -   b.  = ' p     b.- W j O b.        b.  ",
"      b.      - ' 2...=     . s = c $   & K #     @ c O c O   c.        b.    # b 1     - W j O b.      b.    ",
"      b.    ; ' = = = b ;   . < % c # . b .       O l v .       b.    b.      # v <     - W j O   b.    b.    ",
"    b.      b.=       $ b - . . % c # z C .   b.  . j v .       b.    b.        % v >   - K j O   b.    b.    ",
"              b.        $ x &   $ c O z .     b.  . < c .       b.            b.$ c ;   % K j #               ",
"                b.        O h % # c O z .         . ; c .   b.      b.        b.  $ c % % B j #     b.    b.  ",
"                            O h O c O l .         . % j .   b.        b.          O c % % b # b.    b.b.      ",
"          b.                . h O x O j .   b.    . . . .   b.        b.        b.O x * # b # b.      b.      ",
"  b.      b.    b.      b.    . s x . h . b.b.  b.        b.                  b.    # j o c @ b.      b.      ",
"  b.    b.        b.    b.    . a o x .   b.    b.            b.  b.b.        b.    O j o c O b.            b.",
"      b.b.b.      b.      b.    . < x .   b.      b.        b.      b.          b.  O g o x O       b.    b.  ",
"      b.    b.    b.      b.    . < z . b.        b.        b.        b.            O a o x .       b.  b.b.  ",
"                                . < l .                                             O p . j .                 "
};
