/* XPM */
static char * wallin2_xpm[] = {
"50 50 783 2",
"  	c None",
". 	c #90883C",
"+ 	c #91883B",
"@ 	c #8C883C",
"# 	c #91893C",
"$ 	c #8D873B",
"% 	c #6C7637",
"& 	c #8E883C",
"* 	c #BC592F",
"= 	c #B56E35",
"- 	c #92893C",
"; 	c #A28C40",
"> 	c #999242",
", 	c #A3863E",
"' 	c #AE6F35",
") 	c #B45F30",
"! 	c #AF6531",
"~ 	c #90873C",
"{ 	c #C16433",
"] 	c #BE5F32",
"^ 	c #C17E3F",
"/ 	c #948A3D",
"( 	c #A48E3F",
"_ 	c #9D8E3F",
": 	c #AE873B",
"< 	c #B97134",
"[ 	c #BA592E",
"} 	c #B96D34",
"| 	c #9F833B",
"1 	c #91883C",
"2 	c #909040",
"3 	c #C17138",
"4 	c #CE9D51",
"5 	c #C99F53",
"6 	c #AC9548",
"7 	c #958B3D",
"8 	c #92893D",
"9 	c #A8853A",
"0 	c #BD7334",
"a 	c #C78439",
"b 	c #C48239",
"c 	c #A3863B",
"d 	c #94883C",
"e 	c #938A3D",
"f 	c #9D9242",
"g 	c #78803A",
"h 	c #82823C",
"i 	c #978842",
"j 	c #AA9348",
"k 	c #A99347",
"l 	c #9C8D40",
"m 	c #958A3D",
"n 	c #93893C",
"o 	c #93893D",
"p 	c #A3893C",
"q 	c #AB873B",
"r 	c #A1893C",
"s 	c #9E893B",
"t 	c #98893C",
"u 	c #97893C",
"v 	c #9F8A3D",
"w 	c #B18C40",
"x 	c #7A833B",
"y 	c #7F853C",
"z 	c #A69746",
"A 	c #A48B43",
"B 	c #948A3E",
"C 	c #958A3E",
"D 	c #998B3E",
"E 	c #A98C3E",
"F 	c #B37836",
"G 	c #B27235",
"H 	c #9C8A3C",
"I 	c #A08B3D",
"J 	c #BC8E3C",
"K 	c #BD7936",
"L 	c #B77C37",
"M 	c #BA8D3B",
"N 	c #C88F3A",
"O 	c #CA8A3B",
"P 	c #C8813B",
"Q 	c #A8AB50",
"R 	c #A4A346",
"S 	c #A88B3F",
"T 	c #97853B",
"U 	c #998C42",
"V 	c #A29147",
"W 	c #CC9250",
"X 	c #C06232",
"Y 	c #C36231",
"Z 	c #D68843",
"` 	c #A78D3E",
" .	c #978A3C",
"..	c #C5913C",
"+.	c #D08538",
"@.	c #BE6330",
"#.	c #C26330",
"$.	c #E58F38",
"%.	c #DE8937",
"&.	c #CF7B36",
"*.	c #CD813F",
"=.	c #CB813E",
"-.	c #CC813E",
";.	c #BC9747",
">.	c #A4A547",
",.	c #A59742",
"'.	c #AB7F3C",
").	c #A0823B",
"!.	c #BE9449",
"~.	c #CF8D4F",
"{.	c #C66D3C",
"].	c #C46334",
"^.	c #EC9F52",
"/.	c #EDAA5B",
"(.	c #DB9C47",
"_.	c #A18C3C",
":.	c #AB8C3D",
"<.	c #D7933C",
"[.	c #D9953C",
"}.	c #C2612F",
"|.	c #C25F2F",
"1.	c #D27934",
"2.	c #CE7935",
"3.	c #CB813F",
"4.	c #CD823F",
"5.	c #D3883F",
"6.	c #D2883F",
"7.	c #DD8D38",
"8.	c #EC9739",
"9.	c #EC9738",
"0.	c #EB983B",
"a.	c #C1913F",
"b.	c #A0A146",
"c.	c #A3803B",
"d.	c #AE6934",
"e.	c #C67738",
"f.	c #DA893D",
"g.	c #C66934",
"h.	c #CD7136",
"i.	c #ED9C4C",
"j.	c #EFA95A",
"k.	c #F1AD5C",
"l.	c #EB9F45",
"m.	c #BF8C3B",
"n.	c #B47F38",
"o.	c #D38D3B",
"p.	c #E69439",
"q.	c #DC8535",
"r.	c #C5632F",
"s.	c #C66731",
"t.	c #CB7134",
"u.	c #DD8D3C",
"v.	c #DD8C38",
"w.	c #D4853A",
"x.	c #E08E3B",
"y.	c #B1A144",
"z.	c #9EA447",
"A.	c #A3A448",
"B.	c #CDAA58",
"C.	c #EE9F49",
"D.	c #C09140",
"E.	c #9FA146",
"F.	c #987035",
"G.	c #AF6833",
"H.	c #C67434",
"I.	c #C66730",
"J.	c #C15D2E",
"K.	c #E88F39",
"L.	c #ED9A46",
"M.	c #F0A652",
"N.	c #F1A650",
"O.	c #EF9C40",
"P.	c #D17933",
"Q.	c #C36530",
"R.	c #D07935",
"S.	c #E79037",
"T.	c #E89338",
"U.	c #C86A31",
"V.	c #BE5D2F",
"W.	c #B56E36",
"X.	c #A19E45",
"Y.	c #D48539",
"Z.	c #E7963D",
"`.	c #F2BB78",
" +	c #F2BC7A",
".+	c #E99F4D",
"++	c #C79D42",
"@+	c #A6A246",
"#+	c #A8A347",
"$+	c #B4A954",
"%+	c #A3A549",
"&+	c #E3A34C",
"*+	c #9EA245",
"=+	c #867336",
"-+	c #A87035",
";+	c #B26A34",
">+	c #C36631",
",+	c #D47832",
"'+	c #EC9239",
")+	c #EC953D",
"!+	c #EF9E42",
"~+	c #F09D40",
"{+	c #F09A3A",
"]+	c #ED9738",
"^+	c #CC7031",
"/+	c #C3632F",
"(+	c #E48E36",
"_+	c #E79138",
":+	c #C97033",
"<+	c #B76032",
"[+	c #AE7A3A",
"}+	c #A0A046",
"|+	c #CE8B49",
"1+	c #DA8B3A",
"2+	c #EF993C",
"3+	c #F1B46D",
"4+	c #F2C588",
"5+	c #F2C587",
"6+	c #F2BF79",
"7+	c #F2AF5B",
"8+	c #CB9F43",
"9+	c #B79941",
"0+	c #A2A346",
"a+	c #A1A448",
"b+	c #E59844",
"c+	c #B89641",
"d+	c #9EA346",
"e+	c #787437",
"f+	c #917036",
"g+	c #A76734",
"h+	c #C16B34",
"i+	c #E08836",
"j+	c #E38937",
"k+	c #E18938",
"l+	c #E79139",
"m+	c #EF9939",
"n+	c #F09938",
"o+	c #ED9638",
"p+	c #C76A30",
"q+	c #C3642F",
"r+	c #E18A36",
"s+	c #E08837",
"t+	c #C76F34",
"u+	c #BC5D38",
"v+	c #D9893A",
"w+	c #EE993A",
"x+	c #EF993A",
"y+	c #F0A552",
"z+	c #F1AC5F",
"A+	c #F0AC5E",
"B+	c #F1AA55",
"C+	c #F1B767",
"D+	c #EFA043",
"E+	c #A3A346",
"F+	c #9FA447",
"G+	c #A5A146",
"H+	c #9EA446",
"I+	c #717537",
"J+	c #887136",
"K+	c #B96C35",
"L+	c #C47235",
"M+	c #D27D35",
"N+	c #CF7635",
"O+	c #CB7335",
"P+	c #D78137",
"Q+	c #EA9338",
"R+	c #EC9538",
"S+	c #E69038",
"T+	c #CC7232",
"U+	c #C26631",
"V+	c #D07835",
"W+	c #CE7634",
"X+	c #C16C34",
"Y+	c #C26433",
"Z+	c #CF7450",
"`+	c #CC8443",
" @	c #9FA347",
".@	c #A1A347",
"+@	c #B09E44",
"@@	c #B09D44",
"#@	c #A7A145",
"$@	c #AF9D44",
"%@	c #A3A447",
"&@	c #A6A346",
"*@	c #E5913B",
"=@	c #BCA042",
"-@	c #A7A546",
";@	c #9CA347",
">@	c #727435",
",@	c #8B6B33",
"'@	c #A76A32",
")@	c #C26D35",
"!@	c #BA6835",
"~@	c #B76333",
"{@	c #B66234",
"]@	c #C36E35",
"^@	c #D68036",
"/@	c #D88236",
"(@	c #D37F36",
"_@	c #C47034",
":@	c #B76433",
"<@	c #B76634",
"[@	c #B96834",
"}@	c #B66F36",
"|@	c #C17736",
"1@	c #D16B36",
"2@	c #C47C4A",
"3@	c #AB9D46",
"4@	c #BA9A41",
"5@	c #BAA34C",
"6@	c #D7AA5B",
"7@	c #B7A64C",
"8@	c #A7A246",
"9@	c #B09E43",
"0@	c #CD8C3B",
"a@	c #E2903A",
"b@	c #B9A343",
"c@	c #9AA146",
"d@	c #9CA247",
"e@	c #9CA346",
"f@	c #969A43",
"g@	c #92652F",
"h@	c #BD6732",
"i@	c #B36B35",
"j@	c #B17236",
"k@	c #B16B35",
"l@	c #B26233",
"m@	c #B86533",
"n@	c #BA6634",
"o@	c #B66734",
"p@	c #B27035",
"q@	c #AF7537",
"r@	c #AC7638",
"s@	c #AC7B39",
"t@	c #A47839",
"u@	c #A38C3F",
"v@	c #9EA246",
"w@	c #A1A246",
"x@	c #CC894F",
"y@	c #BDA854",
"z@	c #F3BD79",
"A@	c #F3C281",
"B@	c #F0BD76",
"C@	c #F3BD74",
"D@	c #F2B15E",
"E@	c #F09939",
"F@	c #F0993A",
"G@	c #EF983B",
"H@	c #E9943E",
"I@	c #E9933E",
"J@	c #E0853A",
"K@	c #B07A3A",
"L@	c #9D7E3C",
"M@	c #957C39",
"N@	c #938338",
"O@	c #A39E45",
"P@	c #A9A346",
"Q@	c #B7A144",
"R@	c #B49642",
"S@	c #C6873D",
"T@	c #CF7C38",
"U@	c #D47549",
"V@	c #D5873A",
"W@	c #E6BF7F",
"X@	c #E6BD78",
"Y@	c #F1B766",
"Z@	c #F1AA53",
"`@	c #E99036",
" #	c #E68935",
".#	c #E07B36",
"+#	c #DD7533",
"@#	c #DF7933",
"##	c #DE7935",
"$#	c #DF7937",
"%#	c #D56332",
"&#	c #DA7234",
"*#	c #DB7736",
"=#	c #D26833",
"-#	c #B59D44",
";#	c #BEA143",
">#	c #A3A446",
",#	c #AEA145",
"'#	c #DF933A",
")#	c #EF9938",
"!#	c #E29039",
"~#	c #CF803A",
"{#	c #CE7F3A",
"]#	c #D36933",
"^#	c #D98D44",
"/#	c #E9973C",
"(#	c #A3A54A",
"_#	c #A0A448",
":#	c #A9A448",
"<#	c #F1A64E",
"[#	c #E17E37",
"}#	c #D96E32",
"|#	c #E28036",
"1#	c #E48736",
"2#	c #EE9638",
"3#	c #E98F38",
"4#	c #E07B38",
"5#	c #DC7235",
"6#	c #EB9338",
"7#	c #E9943A",
"8#	c #D07836",
"9#	c #DB7235",
"0#	c #E39B3B",
"a#	c #E99539",
"b#	c #A0A347",
"c#	c #B99140",
"d#	c #E07C35",
"e#	c #D08139",
"f#	c #D36932",
"g#	c #E18E38",
"h#	c #ED993B",
"i#	c #EDA855",
"j#	c #D39941",
"k#	c #DE7537",
"l#	c #ED9640",
"m#	c #EE9F4D",
"n#	c #F0A755",
"o#	c #F2BB70",
"p#	c #F09F42",
"q#	c #ED9538",
"r#	c #DB7332",
"s#	c #DD7436",
"t#	c #E88C39",
"u#	c #ED963A",
"v#	c #EA9539",
"w#	c #AA9D44",
"x#	c #EE9739",
"y#	c #B6A144",
"z#	c #A6A045",
"A#	c #D36F34",
"B#	c #D57035",
"C#	c #D18037",
"D#	c #EB9638",
"E#	c #D08238",
"F#	c #C65F30",
"G#	c #A6A146",
"H#	c #A2A447",
"I#	c #A2A446",
"J#	c #B7A244",
"K#	c #B59F44",
"L#	c #B29B43",
"M#	c #A9A447",
"N#	c #EFAF66",
"O#	c #EFB46E",
"P#	c #F2BD77",
"Q#	c #F1B15D",
"R#	c #F09C3F",
"S#	c #E78638",
"T#	c #DF7B34",
"U#	c #ED9A3B",
"V#	c #EFAC5D",
"W#	c #F09E42",
"X#	c #E59138",
"Y#	c #A79F45",
"Z#	c #A79E45",
"`#	c #E48537",
" $	c #AAA245",
".$	c #D38238",
"+$	c #D16C33",
"@$	c #D26D34",
"#$	c #D88739",
"$$	c #DB8A39",
"%$	c #AA4B2B",
"&$	c #A6A147",
"*$	c #B3A245",
"=$	c #E39B3C",
"-$	c #E78937",
";$	c #BD8A3E",
">$	c #B09C44",
",$	c #DF9A3F",
"'$	c #CFB265",
")$	c #F3C688",
"!$	c #F3C485",
"~$	c #F4B96B",
"{$	c #F2AB53",
"]$	c #EC933B",
"^$	c #E17F37",
"/$	c #EF9739",
"($	c #F09A3B",
"_$	c #F0B46B",
":$	c #F2B869",
"<$	c #F0A54C",
"[$	c #B99341",
"}$	c #D56C34",
"|$	c #E5863A",
"1$	c #A5A346",
"2$	c #EA963C",
"3$	c #CE7E36",
"4$	c #D36D34",
"5$	c #D18038",
"6$	c #E39138",
"7$	c #E89539",
"8$	c #AA4A2B",
"9$	c #D38840",
"0$	c #E58F3B",
"a$	c #D46832",
"b$	c #CF7936",
"c$	c #EE993B",
"d$	c #F0B46F",
"e$	c #F2C280",
"f$	c #F3BE77",
"g$	c #F2B765",
"h$	c #F0AB56",
"i$	c #EB923A",
"j$	c #DA6E34",
"k$	c #E58838",
"l$	c #EE9A3B",
"m$	c #F1B570",
"n$	c #F2C07D",
"o$	c #F3B766",
"p$	c #F1A54D",
"q$	c #B89341",
"r$	c #CF7A36",
"s$	c #D26C33",
"t$	c #DE8B37",
"u$	c #E89439",
"v$	c #E79439",
"w$	c #D28339",
"x$	c #D46833",
"y$	c #CE7B35",
"z$	c #E49239",
"A$	c #CE7F39",
"B$	c #A94B2B",
"C$	c #C47038",
"D$	c #E28E3A",
"E$	c #D27336",
"F$	c #D26F34",
"G$	c #CE8038",
"H$	c #F1B46F",
"I$	c #F2BC74",
"J$	c #F3B96C",
"K$	c #F1AD58",
"L$	c #F09B3D",
"M$	c #E58639",
"N$	c #E48337",
"O$	c #F1B065",
"P$	c #F2C17F",
"Q$	c #F3B96A",
"R$	c #F4B766",
"S$	c #F1A64D",
"T$	c #A8A346",
"U$	c #A2A246",
"V$	c #B39641",
"W$	c #A69E45",
"X$	c #D26A33",
"Y$	c #D88539",
"Z$	c #E79539",
"`$	c #CF7836",
" %	c #AA4629",
".%	c #B45B30",
"+%	c #DA8639",
"@%	c #D16B33",
"#%	c #CE7C38",
"$%	c #E08E38",
"%%	c #EFAA55",
"&%	c #F1B15E",
"*%	c #F1A64F",
"=%	c #EF9E43",
"-%	c #EF9C3D",
";%	c #ED9839",
">%	c #E27F38",
",%	c #EB9037",
"'%	c #EE9D43",
")%	c #F4BE7C",
"!%	c #F0AE5A",
"~%	c #EF9B3C",
"{%	c #A8A145",
"]%	c #A4A146",
"^%	c #A69F45",
"/%	c #B69040",
"(%	c #C8893C",
"_%	c #EA953B",
":%	c #EC973A",
"<%	c #D28239",
"[%	c #D26D35",
"}%	c #D68338",
"|%	c #D27235",
"1%	c #AB4229",
"2%	c #A94C2B",
"3%	c #B35C2C",
"4%	c #D16B35",
"5%	c #C57237",
"6%	c #E59038",
"7%	c #EA9137",
"8%	c #DA6F32",
"9%	c #ED9438",
"0%	c #EEAC60",
"a%	c #F4C07B",
"b%	c #EFAC57",
"c%	c #D5843A",
"d%	c #CF7F3A",
"e%	c #D36B34",
"f%	c #CE7936",
"g%	c #E8943B",
"h%	c #E4933A",
"i%	c #C56734",
"j%	c #D27638",
"k%	c #E18F39",
"l%	c #A84B2A",
"m%	c #A34027",
"n%	c #CA5D33",
"o%	c #B25B2E",
"p%	c #E59037",
"q%	c #E07D34",
"r%	c #F3BA6E",
"s%	c #F1AB57",
"t%	c #D07636",
"u%	c #D16F35",
"v%	c #B25B2F",
"w%	c #D06934",
"x%	c #C3773F",
"y%	c #9E3626",
"z%	c #C75931",
"A%	c #B3592F",
"B%	c #DC8B37",
"C%	c #EEA555",
"D%	c #F3B769",
"E%	c #F2B05C",
"F%	c #DB8A3A",
"G%	c #D26B33",
"H%	c #CE7D34",
"I%	c #E28F3A",
"J%	c #E99338",
"K%	c #AB472F",
"L%	c #B1572E",
"M%	c #C75932",
"N%	c #B45A30",
"O%	c #CE7F38",
"P%	c #F4B15C",
"Q%	c #F1B15C",
"R%	c #EF9C3F",
"S%	c #E89639",
"T%	c #CF7D37",
"U%	c #D36D35",
"V%	c #D07832",
"W%	c #DB8537",
"X%	c #C8582F",
"Y%	c #A44D3D",
"Z%	c #CB7E3E",
"`%	c #D16D36",
" &	c #A03927",
".&	c #BF6D32",
"+&	c #DA8B39",
"@&	c #EE9939",
"#&	c #E38336",
"$&	c #F3AD57",
"%&	c #F0A852",
"&&	c #C57633",
"*&	c #BA512C",
"=&	c #CF6934",
"-&	c #D07734",
";&	c #BA5332",
">&	c #CC8141",
",&	c #9E3625",
"'&	c #BE6B32",
")&	c #D5853A",
"!&	c #EF9A39",
"~&	c #E17A39",
"{&	c #C57534",
"]&	c #B84C2A",
"^&	c #D07833",
"/&	c #BA512D",
"(&	c #984033",
"_&	c #BA512F",
":&	c #A44427",
"<&	c #CE7D3C",
"[&	c #E48F37",
"}&	c #E2793A",
"|&	c #EE983B",
"1&	c #C57535",
"2&	c #E5923C",
"3&	c #B45A2F",
"4&	c #D36333",
"5&	c #D36434",
"6&	c #A44534",
"7&	c #CF683D",
"8&	c #BC502E",
"9&	c #B25831",
"0&	c #DE8B39",
"a&	c #D46A36",
"b&	c #DF7D33",
"c&	c #D07735",
"d&	c #B64C2C",
"e&	c #D46333",
"f&	c #9E4A3E",
"g&	c #D3693F",
"h&	c #BC562E",
"i&	c #B25C2D",
"j&	c #EF9A3E",
"k&	c #EE9A38",
"l&	c #BC5C33",
"m&	c #DF7D35",
"n&	c #E99538",
"o&	c #D36C33",
"p&	c #B74C2C",
"q&	c #B54B2B",
"r&	c #A73F27",
"s&	c #CE653A",
"t&	c #B84F2F",
"u&	c #B65B2F",
"v&	c #D98636",
"w&	c #E99537",
"x&	c #C06437",
"y&	c #BE562C",
"z&	c #EC9138",
"A&	c #D8873B",
"B&	c #CA7937",
"C&	c #AE512E",
"D&	c #CF7935",
"E&	c #EA963A",
"F&	c #E28D38",
"G&	c #D97437",
"H&	c #C3542E",
"I&	c #A24131",
"J&	c #D4693E",
"K&	c #B74B2A",
"L&	c #A84028",
"M&	c #C06A35",
"N&	c #DE883A",
"O&	c #DE8B36",
"P&	c #AC4428",
"Q&	c #E18138",
"R&	c #B66130",
"S&	c #A33B29",
"T&	c #C5572E",
"U&	c #CF7937",
"V&	c #D6863A",
"W&	c #D77D37",
"X&	c #CB6932",
"Y&	c #C05430",
"Z&	c #9D3B2D",
"`&	c #C95F35",
" *	c #A13726",
".*	c #A74528",
"+*	c #AF5129",
"@*	c #9D3625",
"#*	c #D06434",
"$*	c #EF993B",
"%*	c #CF8039",
"&*	c #B86031",
"**	c #AA422B",
"=*	c #D66431",
"-*	c #D17838",
";*	c #D36A33",
">*	c #D56535",
",*	c #A63F26",
"'*	c #9A3827",
")*	c #9F4539",
"!*	c #A2473C",
"~*	c #A2463B",
"{*	c #A14539",
"]*	c #A7422E",
"^*	c #DD7433",
"/*	c #E68A36",
"(*	c #E68A35",
"_*	c #E68B37",
":*	c #D78737",
"<*	c #CD7D37",
"[*	c #CE7535",
"}*	c #C66C32",
"|*	c #9F3625",
"1*	c #A63E29",
"2*	c #C6572E",
"3*	c #C35730",
"4*	c #A03626",
"5*	c #A04032",
"6*	c #B64C2B",
"7*	c #D36534",
"8*	c #D26F36",
"9*	c #CD6934",
"0*	c #B74B2C",
"a*	c #B3482B",
"b*	c #9E3627",
"c*	c #983B2C",
"d*	c #9A3727",
"e*	c #A33F29",
"f*	c #A33F2A",
"g*	c #A13E29",
"h*	c #994235",
"                                                                                                    ",
"                                                                                                    ",
"                                                                                                    ",
"                                                                                                    ",
"                                                                                                    ",
"                                                                                                    ",
"                                                                                                    ",
"                                                                                                    ",
"                                                                                                    ",
"                                                              . +                                   ",
"                                                            @ # $                                   ",
"                                      % % %                 & #                                     ",
"                                    % % % % %           * = - - ; > , ' ) ! ~ &                     ",
"                                  % %                 { ] ^ ; / ( _ : < [ } | 1 2                   ",
"                                  % %                 3 4 5 6 7 / 8 9 0 a b c d e f                 ",
"                                    %           g h i j k l m n o - p q r s t u v w                 ",
"                                    % % % % % x y z A B C D E F G H I J K L M N O P                 ",
"                                      %       Q R S T U V W X Y Z `  ...+.@.#.$.%.&.                ",
"                                    *.=.-.-.;.>.,.'.).!.~.{.].^./.(._.:.<.[.}.|.1.2.                ",
"                            3.4.5.6.7.8.9.0.a.b.c.d.e.f.g.h.i.j.k.l.m.n.o.p.q.r.s.t.                ",
"                          u.v.w.x.y.z.A.B.C.D.E.F.G.H.I.J.K.L.M.N.O.P.Q.R.S.T.U.V.W.X.z.            ",
"                      Y.Z.`. +.+++@+#+$+%+&+D.*+=+-+;+>+,+'+)+!+~+{+]+^+/+(+_+:+<+[+}+z.z.          ",
"                  |+1+2+3+4+5+6+7+8+9+0+a+b+c+d+e+f+g+h+i+j+k+l+m+n+o+p+q+r+s+t+u+    z.z.          ",
"                  v+w+x+y+z+A+B+C+D+E+z.F+F+G+H+I+J+K+L+M+N+O+P+Q+R+S+T+U+V+W+X+Y+Z+  z.z.          ",
"                `+@+ @.@+@@@#@$@%@&@0+m+*@=@-@;@>@,@'@)@!@~@{@]@^@/@(@_@:@<@[@}@|@1@2@z.            ",
"              3@z.4@5@6@7@%@8@9@9@#@0@a@a@b@c@d@e@f@g@h@i@j@k@l@m@n@o@p@q@r@s@t@u@v@w@              ",
"  z.z.z.    x@ @y@z@A@B@C@D@E@n+F@G@H@I@J@K@L@M@N@z.O@ @z.z.z.z.P@P@Q@P@z.P@P@0+R@S@T@U@            ",
"  z.z.      V@z.W@W@X@C+Y@Z@`@ #.#+#@#@###$#%#&#*#=#-#;#z.>#,#z.0+'#)#n+n+n+n+m+!#~#{#]#            ",
"  z.      ^#/#(#_#z._#:#<#[#}#|#1#2#n+E@3#4#5#6#7#8#9#z.0#n+n+a#b#c#d#E@E@n+n+n+n+e#{#f#            ",
"  z.z.    g#h#z.a+i#j#z.k#l#m#n#o#p#q#r#s#t#u#m+v#e#w#0+x#n+n+n+y#z#A#B#C#D#n+n+n+E#{#F#            ",
"    z.z.G#H#I#J#K#L#z.M#N#O#5+P#Q#R#S#T#E@U#V#W#E@X#Y#Z#`#E@n+n+Q@ $.$+$@$#$n+n+n+$${#%$            ",
"      z.&$*$=$-$;$>$,$'$4+)$!$~${$]$^$/$($_$:$<$n+x+z.[$}$|$E@)#1$1$2$3$4$5$6$)#n+7${#8$            ",
"        9$v#0$a$b$c$d$4+e$f$g$h$i$j$k$l$m$n$o$p$n+=$&@q$r$s$t$u$z.n+F@v$w$x$y$z$n+7$A$B$            ",
"        C$D$E$F$G$F@H$I$J$o$K$L$M$N$m+O$P$Q$R$S$n+n+T$U$V$W$w@@+n+n+n+n+$$A#X$Y$n+Z$`$ %            ",
"        .%+%@%#%$%m+%%&%*%=%-%;%>%,%'%)%P#R$!%~%n+n+n+{%]%^%/%(%_%n+n+n+:%<%[%}%]+7$|%1%            ",
"        2%3%4%5%6%n+n+n+n+n+n+7%8%9%0%a%R$R$b%)#n+n+n+n+c%d%e%f%g%n+n+n+n+h%i%j%k%7$|%1%            ",
"        l%m%n%o%p%n+n+n+n+n+n+7%q%n+0%r%R$R$s%n+n+n+n+n+c%d%t%u%g%n+n+n+n+h%v%w%k%7$|%1%            ",
"        x%y%z%A%B%m+n+n+n+n+n+7%q%n+C%D%R$E%m+n+n+n+n+n+F%{#y$G%H%n+n+n+n+h%v%w%I%J%4$K%            ",
"          L%M%N%O%F@n+n+n+n+n+7%q%n+n+P%Q%R%n+n+n+n+n+n+S%{#T%U%V%)#n+n+n+h%v%w%I%W%X%Y%            ",
"          Z%`% &.&+&n+n+n+n+@&k##&n+n+$&%&n+n+n+n+n+n+n+S%{#&&*&V%)#n+n+n+h%v%=&v.-&;&              ",
"            >&,&'&)&v#n+n+n+!&~&E@n+n+n+n+n+n+n+n+n+n+n+S%{#{&]&^&)#n+n+n+h%v%w%`$/&(&              ",
"              _&:&<&[&n+n+n+!&}&|&E@n+n+n+n+n+n+n+n+n+n+S%{#1&]&^&)#n+n+n+2&3&4&5&6&                ",
"              7&8&9&0&F@n+n+m+a&b&n+n+n+n+n+n+n+n+n+n+n+S%{#1&]&^&)#n+n+n+c&d&e&]&f&                ",
"                g&h&i&j&n+n+k&l&m&m+n+n+n+n+n+n+n+n+n+n+n&{#{&]&^&)#n+E@!&o&p&q&r&                  ",
"                  s&t&u&v&w&F@x&y&z&n+n+n+n+n+n+n+n+n+n+A&B&C&]&D&E&D#F&G&H&I&                      ",
"                    J&K&L&M&N&O&P&Q&n+n+n+n+n+n+n+n+n+n+c%R&S&T&U&V&W&X&Y&Z&                        ",
"                        `& *.*+*@*#*$*E@n+n+n+n+n+x+l$k%%*&***=*-*;*>*,*'*                          ",
"                          )*!*~*{*]*^*/*/*/*/*(*_*:*<*[*}*|*1*2*3*4*5*                              ",
"                                    p&d&d&d&d&6*7*8*9*0*a*b*                                        ",
"                                      c*d*'*'*d*e*f*g*'*h*                                          "};
