/* XPM */
static char *result[] = {
/* columns rows colors chars-per-pixel */
"50 85 90 1 ",
"  c #5C3D21",
". c #603F23",
"X c #5F4024",
"o c #614225",
"O c #684726",
"+ c #654629",
"@ c #68472A",
"# c #67482A",
"$ c #6B4C2D",
"% c #6E502F",
"& c #6E4F30",
"* c #6E5031",
"= c #735434",
"- c #755837",
"; c #7A5A36",
": c #775A39",
"> c #7A5D3A",
", c #6C6530",
"< c #716935",
"1 c #7E613E",
"2 c #776E3A",
"3 c #796F3C",
"4 c #7C723F",
"5 c #7F6440",
"6 c #803F0C",
"7 c #82400C",
"8 c #93490E",
"9 c #954B10",
"0 c #9D5217",
"q c #9C5319",
"w c #A2561A",
"e c #815F38",
"r c #A75B20",
"t c #82633D",
"y c #89693F",
"u c #AD6124",
"i c #AF6428",
"p c #B16426",
"a c #B26629",
"s c #B66C31",
"d c #B96E33",
"f c #BD7235",
"g c #BD7338",
"h c #C07539",
"j c #C2783D",
"k c #816441",
"l c #856A44",
"z c #8B6D44",
"x c #876B48",
"c c #896E49",
"v c #837645",
"b c #8D7146",
"n c #857A47",
"m c #8D734B",
"M c #8B7D4C",
"N c #907447",
"B c #92754B",
"V c #95794E",
"C c #957B52",
"Z c #997E53",
"A c #C77D42",
"S c #C97E44",
"D c #8C814E",
"F c #948354",
"G c #9C8256",
"H c #9D855A",
"J c #968F58",
"K c #9D8B5C",
"L c #9C915D",
"P c #A0865A",
"I c #A28A5E",
"U c #A48D62",
"Y c #A88F63",
"T c #A69165",
"R c #A99265",
"E c #A79A66",
"W c #AD956A",
"Q c #AF9A6D",
"! c #B19A6E",
"~ c #B49D72",
"^ c #A9A26A",
"/ c #B3A26F",
"( c #AFA870",
") c #B5A373",
"_ c #B6AC76",
"` c #B7B077",
"' c #CA8146",
"] c #CE8449",
"[ c #D1874C",
"{ c None",
/* pixels */
"{{{{{{{{{{{{{{{{{{{{{{{{{{{{{{{{{{{{{{{{{{{{{{{{{{",
"{{{{{{{{{{{{{{{{{{{{{{{{{{{{{{{{{{{{{{{{{{{{{{{{{{",
"{t{{{{{{{{{{{{{{{{{{{{{{{{{{{{{{{{{{{{{{{{{{{{{{{{",
"1~k{{>{{{{{{{{{{{{{{{{{{{{{{{{{{{{{{{{{{{{{{{{{{{{",
"{kR5k~>{{{{{{{{{{{{{{{{{{{{{{{{{{{{{{{{{{{{{{{{{{{",
"{{1P)1{{{{{{{{{{{{{{{{{{{{{{{{{{{{{{{{{{{{{{{{{{{{",
"{{1~R~k{{{{{{{{{{{{{{{{{{{{{{{{{{{{{{{{{{{{{{{{{{{",
"{{1G~Rk{{{{{{{{{{{{{{{{{{{{{{{{{{{{{{{{{{{{{{{{{{{",
"{{;WU~Yt{{{{{{{{{{{{{{{{{{{{{{{{{{{{{{{{{{{{{{{{{{",
"{=WZ!U~k{{{{{{{{{{{{{{{{{{{{{{{{{{{{{{{{{{{{{{{{{{",
"{{-YP!Rt{{{{{{{{{{{{{{{{{{{{{{{{{-{{{{{{{{{{{{{{{{",
"{{{$UP~Yk{{{{{{{{{{{{{{{{{{{>{{{;W>{{{{{{{{{{{{{{{",
"{{{&VRP~Ye{{{{{{{{{{{{{{{{{1Rtt1U>{{{{{{{{{{{{{{{{",
"{{{{=ZWI-{{{{{{{{{{k{{{{{{{{y!TW-{{{{{{{{{{{{{{{{{",
"{{{{*IH~={{{{{{>{{t~1{{{{{{1!IRG-{{{{{{{{{{{{{{{{{",
"{{{{&BYP&{{{{{>~k5Rk{{{{-{;!IRPP={{{{{{{{{{{{{{{{{",
"{{{{=GZ!${{{{{{t~I>{{{{=I;!PRGG={{{{{{{{{{{{{{{{{{",
"{{{$UzUG$@{{{{k)R~1{{{{=R!PRVV%{{{{{{{{{{{{{{{{{{{",
"{{{{$ZVWP~${{{kR~G>{{{{=WPRVGyb={{{{{{{{{{{{{{{{{{",
"{{{{{%IZ!${{{tR~UW>{{{{=PWBbOO%{{{{{{{{{{{{{{{{{{{",
"{{{{{@VRP${{{t~IWZW={{=PRBZO{{{{{{{{{{{{{{{{{{{{{{",
"{{{{{@VZR%{{{tR!PY-{==IWNPyO{{{{{{{{{{{{{{{{{{{{{{",
"{{{{@IzIV${{tY~PI${%!PWBPz+{{{{{{{{{{{{{{{{{{{{{{{",
"{{{{{oBNIZo>U~PWZ*{{$WNPto{{{{{{{{{{{{{{{{{{{{{{{{",
"{{{{{okCz.{{=IWZ%{{{$BItNe.{{{{{{{{{{{{{{{{{{{{{{{",
"{{{{{ zt.{{{=~PI*{{+BItN.o{{{{{{{{{{{{{{{{{{{{{{{{",
"{{{{oZX {{{k%PYB*{{oUyNo{{{{{t{{{{{{{{{{{{{{{{{{{{",
"{{~{{X5+{{-U%!ZG={{.oyO88>uwtW-~{{{{{{{{{{{{{{{{{{",
"{{~{{=U-{-U+$GIzU${otodf;)ytY-{~{{{{{{{{{{{{{{{{{{",
"k~{{{=U--G$~HWVZ${{$GO$=>R~I;{{{{{{{{{{{{{{{{{{{{{",
"!t{{;{>UC*{$!ZP$~~{$G@K>W!I!;{{{{{{{{{{{{{{{{{{{{{",
"kWkk~>>YC#{&PYZO@{=H*bo>~IWNI={~{{{{{{{{{{{{{{{{{{",
"l>I~5{-UC${$RZZ+C+=I= =~YRB=={{~{{~{{{{{{{{{{{{{{{",
"T1~R~5-U={{$VIzU@V=U=s-WRV$07~{{{~{{{{{{{{{{{{{{{{",
"&1G~W5=Y={.ZINBo@V==W-RWPG$q6~{{{{{{{{{{{{{{{{{{{{",
")-WU~R5U=__.zZto#m$U=RWIGyb$8F~{{{{{{{{{{{{{{{{{{{",
"=WC!I)kY=)`` kx.OmI%=!IIz@$88H{~{{{{{{{{{{{{{{{{{{",
")-YP!Y>Y11)`) .ZXlK*;TUV@7888n~{{{{{{{{{{{{{{{{{{{",
"``$UP~U5UY-;)#5XYYc-RRHZ@7888T~{{{{{{{{{{{{{{{{{{{",
"`)%VWP~U>&U-*:U*$$Y;RHH@]7888T{{{{{{{{{{{{{{{{{{{{",
"`)`*ZWI;=*#H-=U*#H=WUUx@]7888F{{{{{{{{{{{{{{{{{{{{",
"_)`*IP~*=~`*CU:`@F:UUBBx#=-88R{{{{~{{{{{{{{{{{{{{{",
")_`*BYP&-)`$CU:)-:UYZZooG+I=8nT{{~{{{{{{{{{{{{{{{{",
")_`*ZZ!&*`:$MU:-~HYZPyoPo*%U-4H{{~{{{{{{{{{{{{{{{{",
"_`&YbIZ&#`-Z*U=V-WZPzok$'68=8K,{{{{{{{{{{{{{{{{{{{",
"``)%ZVWP~#C#=Y=Vo=UBBoRk'7888T,{{{{{{{{{{{{{{{{{{{",
"``_)%IZ~&&51=U*C-@mBe.$]'6888,,{{{{{{{{{{{{{{{{{{{",
"``))OVRZ&5TW:U&-Z$Veoz.]]6888,2!{{{{{{{{{{{{{{{{{{",
"``~z@GZRkR**Y;&C++XoXo6]]6_`/2<!{{{{{{{{{{{{{{{{{{",
"``x@IzPV%*o)&Y-moX1X``6]]6`)/D,v~{{{{{{{{{{{{{{{{{",
"`xY$oBBPZ.o)*&U;+*Z$``7['6`/`_,,{{{{{{{{{{{{{{{{{{",
")_-_.tVz.lo`=&UH&H=```Oj]8/)`(,,{{{{{{{{{{{{{{{{{{",
"_`_`ozt.H5X`=UoZ$P=``_O]j7_```,,{{{{{{{{{{{{{{{{{{",
"``_oZXX+H555=UoZ$I=_`)6]]6_`_~,{{{{{{{{{{{{{{{{{{{",
"`))_ 5+1$-YY>K+C@I%`_/6]]6/_)Ev~{~{{{{{{{{{{{{{{{{",
"))))*U- -K*#&UXmI=``/ytt]6)_!VR~{~{{{{{{{{{{{{{{{{",
"))__:T::Z#C&$Km$U*`9>WRRlpuw8KF~{{{{{{{{{{{{{{{{{{",
"))`_~555&XC&#H#&Y=_>Y=$=Rlw88v,~{{{{{{{{{{{{{{{{{{",
"_)``5TTTcXC&#H#$T*-H&']];'fi8I{~{{{{{{{{{{{{{{{{{{",
"5_`xT511R5#m.C+*U*C$ad][]]fg9FD~{{~{{{{{{{{{{{{{{{",
"W5__5:T*:T55.C:T=m#wr'[[[SSs8TD{{~{{{{{{{{{{{{{{{{",
"$T5)):T*_:T=.C:T=c#qi[[[[]'w8HF{{{{{{{{{{{{{{{{{{{",
"_.U:_=T*_=T=.C>T=#`7wsgjsAw07FW{{{{{{{{{{{{{{{{{{{",
")_+C=$T=_)+T:m:K-)`77qkkklqq7K{~{{{{{{{{{{{{{{{{{{",
")_`#C#T=`)#T:5:U:)`e6kRYRRx60YY{{{{{{{{{{{{{{{{{{{",
"```.C&U=__#T:5:H&5_7kY;;-:Wk6WI{{{{{{{{{{{{{{{{{{{",
"`__.C#U*`_XXH#H&@Wx5Y&6666:W>R<{{{{{{{{{{{{{{{{{{{",
"`)`_.cU=___XH&H*_:5Z;06[S66e8R,{{{{{{{{{{{{{{{{{{{",
"))`_.CU*_~5XC&C*__5U*86S]O888E3,{{~{{{{{{{{{{{{{{{",
")_`)+mU=))5XC#T*_5C.886S]7888KK<{~{{{{{{{{{{{{{{{{",
")``~XCZ:~5C&+4U&_:C.88OS]6888_Q<{~{{{{{{{{{{{{{{{{",
"_`_~+CZ&~:C#+CC&~-C.886S[6888)L,{{{{{{{{{{{{{{{{{{",
"``_)#5T$&C#_X5U#$Vo8886S[6888/_,{{{{{{{{{{{{{{{{{{",
"``))`#U$&CX`+5C&&Bo8886]j6888_/,{{{{{{{{{{{{{{{{{{",
"``_)`#C$&C+`+5C+$mo8886][6888(yF{{{{{{{{{{{{{{{{{{",
"``))`&CX5+```+C+zo)8886[]6888J,Y{{{{{{{{{{{{{{{{{{",
"``)_`+CX4&`~`XCXlX!8886']6888<,{~{{{{{{{{{{{{{{{{{",
"``)_`.CX5+)~`XC lX!_``6]]6`/(,,{{{{{{{{{{{{{{{{{{{",
")`)`~ C.5+_``XC5X`Q```6]]6)_(,,{{{{{{{{{{{{{{{{{{{",
"_```~ c 5&```X55 `/```6']6_``<,{{{{{{{{{{{{{{{{{{{",
"````) l 5X``Q M: `````8S]6``EQ{{{{{{{{{{{{{{{{{{{{",
"__``_ > 5#~`) m>X````_6Sj6/`EIM{{~{{{{{{{{{{{{{{{{",
")_`)_     ~`` 5X`````)6][6__JDR{{~{{{{{{{{{{{{{{{{",
")___)````)(`_ > `````/6]]7``LII~{{{{{{{{{{{{{{{{{{",
"_``_~````)``` + `````)O]]7`_Qn{){{{{{{{{{{{{{{{{{{"
};
