/* XPM */
static char *result[] = {
/* columns rows colors chars-per-pixel */
"55 50 72 1 ",
"  c #5D3D21",
". c #603F23",
"X c #5F4025",
"o c #624225",
"O c #684726",
"+ c #654629",
"@ c #68472A",
"# c #67482A",
"$ c #6B4C2D",
"% c #6E502F",
"& c #6D4F30",
"* c #6E5131",
"= c #725433",
"- c #755937",
"; c #7F5B34",
": c #765A38",
"> c #795C3A",
", c #7D613D",
"< c #7F6440",
"1 c #803F0C",
"2 c #82400C",
"3 c #93490E",
"4 c #844613",
"5 c #874C1A",
"6 c #954B10",
"7 c #984E13",
"8 c #8A511F",
"9 c #9C5116",
"0 c #A1571C",
"q c #A45A1F",
"w c #8B5221",
"e c #A75D22",
"r c #84643C",
"t c #AB6126",
"y c #AE6429",
"u c #B1672C",
"i c #B3692E",
"p c #B36C34",
"a c #B96E33",
"s c #C47A3F",
"d c #816641",
"f c #896740",
"g c #856A44",
"h c #8A6C43",
"j c #896E49",
"k c #8C7146",
"l c #8E734B",
"z c #9D7345",
"x c #92764C",
"c c #957A4E",
"v c #947B52",
"b c #987E53",
"n c #A27B4E",
"m c #C57B40",
"M c #C87E42",
"N c #9B8156",
"B c #9D845A",
"V c #9F885D",
"C c #A0865A",
"Z c #A88559",
"A c #A1895E",
"S c #A48D62",
"D c #A88F63",
"F c #A79064",
"G c #AA9166",
"H c #AD9569",
"J c #B09469",
"K c #B19A6E",
"L c #B49C71",
"P c #CB8146",
"I c #CE8449",
"U c None",
/* pixels */
"UUULUULUL;bNDCK=D=ob*U$Bl U*HbAh$#UU$x*S=UU*ZGk$UUUUUUU",
"UULUUULUUL%cbFCKD=K.v*#BjXU*vShc&ULU+l%S=UU$KbN=LUUUUJU",
"UULUULLUU=krbcGCK=Uox*XBjXU#Drb@LULU@lA*UU$$CAhS&LUUUJU",
"UUULULUUUU%$OkxJN=Uoj*#N< $Dfcr@UULUOkV*U$LBHcb$ULUUUUU",
"UUULUUUULU$$CObkGA=UohoNXUU+brrOUUUUU=V&UL$KNC$UUUUUUUU",
"UUUUUUUUL$LCJOrCxKC=*hXbXUUU..+D*ULUU=V*UL$NGc$UUUULUUU",
"ULUUUUUUUU$KNCohCxGCK%Xb UU$j.=$,<LU$B=UUU$Hcb$UUULUUUU",
"ULUULUUUUU$CGcO.rCkJ$X>c HU+S.L,DD<U#b=UUU&cCkZ$UULUUUU",
"LUUULUUUUU$Hbb.rkrCc$g:v HU$So<SooFd$b&UUobAxxX=UULUUUU",
"UUUUULUUUU$cChD.olrSxX-x UU*SoBoU o +b&UUUofvroD-UUUUUU",
"UUUUUULUUobAxxoUUolrAoV= U:S#boUL Vc+b$UU=Borf *LUULUUU",
"UUUUUUUUUU.hbr UUUOhoX#B=U:S#oUUUL cob#<<c$U oboLLUUUUU",
"UUULUUUUUUUorg.UUUUorXoV-U*SoUUUUL cob:DS=UUo<XUULUUUUU",
"UUULUUL<dULU..bo==$+N%X#B>=-oUUUUU vobo&*S:U-S*UULUUUUU",
"UULUUU>DS=LU+d :SAC$N%L+B:SS,LULLU lXvok +N=-S=UUUUULUU",
"ULLLUUU$=A-L:S>G+OOk*B*+#V#$D,UUjU k vg.UU*vD:UULUULUUU",
"ULUULUULU+N=-S=$UUL =S*+b+$S#UUdD*U vXg LU&vS:UULULLUUU",
"UUUUUUUUUU&vS:UUUUUU=S=vol$SoU<F=UU v< ULU$vS-UUUUgggUU",
"UUUUUUUUUU$vS:UUUULU=S&v$kAoUU<F-UU v, UULU=S-UUU<FGDdL",
"UUULUUUUUU$vS:UUUUgg=D$l#gSXU>F*LUU l, UUUL*S-UL,D#&&:d",
"UUULUULULUU=S-LUU<FFF*Ak+$SoU:S=LUU l UUULU=S=U:SoULU&L",
"UUUUUULUULU=S-LU,D#***Ak+*AX:SoUULU k UUULU=S$-BoUUULUU",
"UUUUUULUULU=S*U:S+LUU*V=U%AX-:,>ULggg UUULU=S*voLUUULUU",
"UUULULLUULU=S&-NoUUUU*V=U$AX*GGG<jFDF<UUULL=S$loLUUULUU",
"LUgggULUUUL=D&coUUUUUU*B#6966767366$$FdUUUL=S+x+LUULUUU",
"UjDFD<UUUUL=S$:==UUUUL*N#3utyuIMie6X#*D<UUU=Sl+UUUUUUUU",
"jG$$$GdUUUU=S=SGG*UUUL*b#6eaMPIIPq3UUU#V<UU-SjoLUUUUUUL",
"U=UUL*DdUUU=-S***V:UUL&b#7qaPPIIi03UUUoB<LU=Sl+LUUULUUU",
"UUULUL#B<UU=S=oUU$B=UU$b+7uMPMPPye3UUUU&b:U*SjoLUUULULU",
"UUUULU+B<UU=SloUUL$c*U+bo60pMmmma96UUUU#B-U&Sl+ULULUULL",
"UUUULLU&B:U*AloUULUXl$obo667yyaye66UUUUL#v&&Vl#UUUUUULU",
"UUUUULU+b:U&Al+UULUUokobo6666666666UUUUU+v&#V#UUUUUUULU",
"UUUUUUUU#b$$Al+UUUUU.l.vo1111211121UUUUUov%OnOUUULUUUUU",
"UUUUU1111O111111111111111111121112111111111O11111O11111",
"UUUUUpppiiappppppppapppp111111111211ppppppppppapppppapp",
"UUUUUpppaapppppppppapppp111111112211pppapppppppppppaapp",
"UUUUU111111211111111111O11111111212111111O1111111111111",
"UUUUULUUUoj v.UUUUUUUU.,x1111111112UUUUUUor l UUUUUUUUU",
"UUUUUUUUUodov UUUUUUUUU l1111111122ULUUUUO, g UULUUUULU",
"UUULUUUUUo< l UUUUUUUUU j1111111121ULUUUUO, , UULUUULUU",
"UUULUULUUo, g UUUUUUUUU g1111111211LUUUUU..   UUULUULUU",
"UULUUULUU#, , UUUUUUUUU >1111111111LUUUUUUUUUUUUULUULUU",
"UUUUUUULU     UUUUUUUUU >21111112w1UUUULUUUUUUUUUUUUUUU",
"UUUUUUUULUUUUUUUUUUUUUUX+21111114n4UUUULUUUUUUUUUULUULU",
"UUUUUUUUUUUUUUUUUUUUUUUUU2Z412521zwLUUUUULUUUUULUULLUUU",
"UUUUULUUUUUUUUUUUUUUUULUUUJUUUHUUHULUUUULUUUUUULUUULUUU",
"ULUUULUULUUULUUUUUUUULLULUHUULUUUJUUUUULUUUUUUULUUULUUU",
"ULUULUUUULUULUUUUUUUULUULUUUUUULULLUUUULUUUUUUULUUUUUUL",
"UUULLLUUULUUULUUUUUUULUUULUUUULUUULUUUUULUUUUUUUUULUULU",
"UUULUULUULUUULUUUUUULUUUULUUUULUUUULUUUUUUUUUUUUUULULLU"
};
