/* XPM */
static char *e9587703c56c4ec8e376e99da908212f6JHbZR5yBnBUMXR3[] = {
/* columns rows colors chars-per-pixel */
"55 85 147 2 ",
"   c None",
".  c #5D3D21",
"X  c #603F23",
"o  c #5F4024",
"O  c #624225",
"+  c #684726",
"@  c #654629",
"#  c #68472A",
"$  c #67482A",
"%  c #6B4C2D",
"&  c #6E502F",
"*  c #6E4F30",
"=  c #6E5131",
"-  c #735533",
";  c #765937",
":  c #7D5B35",
">  c #775A39",
",  c #7A5D3A",
"<  c #7D613D",
"1  c #7F6440",
"2  c #803F0C",
"3  c #82400C",
"4  c #93490E",
"5  c #9C5115",
"6  c #A3591E",
"7  c #815F38",
"8  c #A65C21",
"9  c #82643D",
"0  c #89693F",
"q  c #B0662B",
"w  c #B36C34",
"e  c #816541",
"r  c #896740",
"t  c #856A44",
"y  c #8A6C43",
"u  c #876B48",
"i  c #896E49",
"p  c #8C7146",
"a  c #8D734A",
"s  c #907447",
"d  c #92764C",
"f  c #95794E",
"g  c #957C52",
"h  c #997E53",
"j  c #9B8256",
"k  c #9E855A",
"l  c #9F865B",
"z  c #9D8559",
"x  c #9F875C",
"c  c #9D855A",
"v  c #9F885D",
"b  c #A0865A",
"n  c #A0875A",
"m  c #A1875E",
"M  c #A0865A",
"N  c #A1885B",
"B  c #A0895B",
"V  c #A1895D",
"C  c #A38A5D",
"Z  c #A1895E",
"A  c #A2895E",
"S  c #A18B5F",
"D  c #A28A5E",
"F  c #A38B5E",
"G  c #A28B5E",
"H  c #A48A5E",
"J  c #A48B5E",
"K  c #A48C5E",
"L  c #A58C5F",
"P  c #A68D5F",
"I  c #A68E5F",
"U  c #A28A5E",
"Y  c #A28C61",
"T  c #A58C60",
"R  c #A58D60",
"E  c #A68D60",
"W  c #A58E60",
"Q  c #A58E61",
"!  c #A68E61",
"~  c #A78E61",
"^  c #A58D62",
"/  c #A68D62",
"(  c #A78F62",
")  c #A68F64",
"_  c #A48D62",
"`  c #A88F63",
"'  c #A88F65",
"]  c #A88F63",
"[  c #A79065",
"{  c #A79165",
"}  c #A69065",
"|  c #A69066",
" . c #A79064",
".. c #A89062",
"X. c #A89063",
"o. c #A89163",
"O. c #A99164",
"+. c #A99065",
"@. c #A89165",
"#. c #AA9365",
"$. c #A99066",
"%. c #A89167",
"&. c #A99267",
"*. c #AA9266",
"=. c #AB9266",
"-. c #AB9366",
";. c #AB9367",
":. c #A99265",
">. c #AA9368",
",. c #AB9368",
"<. c #AB9468",
"1. c #AB9469",
"2. c #AB956B",
"3. c #AC9468",
"4. c #AC9469",
"5. c #AC9569",
"6. c #AD9569",
"7. c #AE9669",
"8. c #AD966B",
"9. c #AE966A",
"0. c #AE966B",
"q. c #AE976B",
"w. c #AF976B",
"e. c #AD976C",
"r. c #AD966D",
"t. c #AF976C",
"y. c #AD9569",
"u. c #AF986C",
"i. c #AF986D",
"p. c #AF986C",
"a. c #B0986B",
"s. c #B0996D",
"d. c #B1996E",
"f. c #B19A6E",
"g. c #B19A6E",
"h. c #B29B70",
"j. c #B29B71",
"k. c #B39C70",
"l. c #B39C71",
"z. c #B49D71",
"x. c #B49D72",
"c. c #B59E72",
"v. c #B59E73",
"b. c #B69F74",
"n. c #B49D72",
"m. c #CB8146",
"M. c #CE8449",
/* pixels */
"                                                                                                              ",
"                9                                                                                             ",
"              ; q.9     <                                                                                     ",
"                ; ( 9 9 b.>                                                                                   ",
"                  ; P z.*.,                                                                                   ",
"                  > a.P k.<.,                                                                                 ",
"                - F s q.F k.,                                                                                 ",
"                  - - d *.( k.;                                                                               ",
"                      % h q.<.;   -                                                                           ",
"                      % j j q.*.; e.-                                                                         ",
"                    % p r j x e.*.-                                                                           ",
"                      % $ y F F i.;                                                                           ",
"                          $ f ( ' >                                                                           ",
"                          $ h j *.{ -                                                                         ",
"                            $ j k <.>                                                                         ",
"                            # p F F q.-                                                                       ",
"                          # y p f ( ( ;                                                                       ",
"                        @ h O O f h *.F ; ;                                                                   ",
"                          O   O 0 k h *.m h.;                                                                 ",
"                                O p F h <.;                                                                   ",
"                                O d p ( -                                                                     ",
"                                O 7 f p $           , <                                                       ",
"                  e           O r O 7 f $         > >.>.e                                                 -   ",
"                < h.e     ,     O   O O #       ; { * * >.e                                     ,       > q., ",
"                  e *.e e b.,       o < o     ; { *     *                                     < q.< 9 9 ( >   ",
"                    , F b.<         % h =   , F *                                               9 f.( q.;     ",
"                    < k...b.e         - k % k F *                                             , f.P i.j ;     ",
"                    < z z.*.e         - v % h #                                         ;   > f.P q.j k ;     ",
"                    > q.P z.*.<       = F $ h #                                       - ` ; f.B ..j h ;       ",
"                  - q.h e.( b.e       = Y $ f #                                       - ..f.B ` h f &         ",
"                    ; *.b f...< <       = Y p #                                       - f.k *.f h r p -       ",
"                      % ( b z.( 9 ,     - Y %                                         - z q.d p @ % %         ",
"                      * f *.k b.( , ,   - { %               t u t         e         - F *.d h @               ",
"                        = j q.H ; = k ; = { %             i { ) ) t     t b.i a - - H q.d j y @               ",
"                        = H z k.-   % g = ( =           < *., , < { e e z.*.z.*.e B <.d b y O         e       ",
"                        = d *.b *     $ p - ( >   4 5 < { - 8 < k.< ;.z...z.F f.F < s k 9 O   ,     e h.<     ",
"                        - j h f.%     $ i - ( ,   4 - ( - M.M.m.< *.z.F z.j f.p ; k.; 0 p : , b.e e *.e       ",
"                      % ( y H j % $     $ - ( ,   4 - ( - M.M.M.< z.F k.h % = = d - 0 p O O   < b.F ,         ",
"                        % h f q.b z.%     - F ,   ; ( $ M.M.M.< z.H h.h -     O F 0 p O     e b...k.<         ",
"                      t *.= B j f.%       - x >   ; Y # 6 q q < ` h.j f.-     . O r +       e *.z.z <         ",
"                    e *.> $ f ` j %       - k >   - Y $ 3 3 t *.f.j i.- f.-   . 9 X       < *.z.P q.>         ",
"  -               , *.>   $ h g *.% ,       = k % x O 2 < 3 t f.k q.%   -     % j $ * - - e b.( e.h q.-       ",
", q.>       ,       ;   # ( y F f % F ,     = k % k O < h.9 f.b *.d % >       % j % k F ( < ..f.b *.;         ",
"  > ( 9 9 < q.<           O d s F h O ,     = k % j O 2 < f.k *.d % $ k $   = k = p O @ 9 ( z.b ( %           ",
"    ; q.( f.9 2 2 2 2 2 2 O 9 f r O O h > 2 = k % j O 2 , F *.g ( $ 2 # h @ - F - . 2 , ( b.k *.f * 2 2 2 2 2 ",
"    ; j i.P f., w w w w w O y 9 O w O h > w * k a O 2 2 , q.f k r e.$ 2 @ f - ) - w w w ; H q.j = w w w w w w ",
"    ; k j q.P f.> w ; w O h O O w w O 1 < w % k p O 2 & q.g H r % % 2 2 $ d = ( - w w w - k.z H = w w w w w w ",
"      ; h j ..B f.; ` - 2 O e # 2 2 ; ( ( , $ j i O 2 & g ( r g % 2 3 2 $ a % ( - 2 2 2 * b *.d = 2 2 2 2 2 2 ",
"        & f h ` B f...-   = Y ;   ; F = % % # j t o 2 % ( r j $ 2 2 3   # p F &         % f.h j -             ",
"      - p r h f *.k f.-   - Y ; ; j # O a % # j e o $ ( r h : # 2 3 3   $ p F =       $ % j H y ( %           ",
"        % % @ p d q.z -     > ( g =     o i O j o 2 + # h : y # 2 3 2     - v =     % z.b q.f h %             ",
"              @ h d *.F -   > ( g %     o t O h o 2 2 + O O O *.& 2 2     - v =       % f.j B =               ",
"              @ y j d q.H - - ( g %     o r o g . 2 3 % i O - % 1 t 2   $ k -         % j ` f #               ",
"            e *.O i b d <.B f.% -         o , g . 2 2 $ v O 2 < ( ( 1   $ j -         % *.g h $               ",
"          e *.= * O 9 k s q.% ( -       < t , d . 2 2 % Y O 1 F O O ( 1 $ h =         % f m y ( #             ",
"            *   O : p 0 F f % ( -     a ( Y ; a . 2 2 & Y # j O 2 . O . # h %       O h F s d O ;             ",
"                  O O p 0 ( d O -   e ( % & F - .   > ( $ h @     . m f # h %     - k O r f 9 O               ",
"                      O p 0 F # -     =     $ k - t > ( $ O         . f O h $   & g $   O 9 y O               ",
"                        + r O . -           # x ; ) = ( O           . f O h # % < 1       O O h O             ",
"                        # X 9 . -         e *.$ k > = ( O           . d O h O , ( ( ;     # e O               ",
"                    - - * $ j % -       ; ; = # j , = Y O           . a O g O p % = F ;   > Y =               ",
"                  ; ( F k % j % -     > ( ( , # j > % ( O       i   . p . g t .     # j ; ; Y -               ",
"                , *.# @ O p = k =   $ k $ % ( < $ a % Y O     e ( =   . g o r .       = g ( >                 ",
"                  $       . - F - @ h # %   $   $ a % Y O   1 ( -     . g < .         % g ( >                 ",
"                          # - ) - f @ h $       # i v O     e ( -     . f < .         % g ) ;         t t e   ",
"                          # - ( = d $ $         # t Y O   , ( =       . d < .           - ( ;       < { { *.e ",
"                            - ( % a $ O           % F O   , ( -       . p .             - ( ;     < ( $ = = > ",
"                            # & F p # O           % F O > Y O         . i .             - ( -   > Y #       * ",
"                            @ = F p $             % F O ; F O         . t .             - ( % ; j #           ",
"                            O = v - O         > , , F O > F #         t t t             - ( % d O             ",
"                            O = v - O       & *.*.*.e O F O         i ) ) { e           - ( % d O             ",
"                            . g - k $     = F % - - *.e j O       t *.% % % *.e         - Y # d #             ",
"                ; - -       . a - j $   & k #     $ > O j O         -       = ( e       - Y a O               ",
"              - ( >.{ =     . t = h $   & F #     @ h O h O                   # k 1     - Y a O               ",
"            ; ( = = = k ;   . < % h # . k .       O d j .                     # j <     - Y a O               ",
"              =       $ k - . . % h # f m .       . a j .                       % j >   - F a O               ",
"                        $ g &   $ h O f .         . < h .                       $ h ;   % F a #               ",
"                          O p % # h O f .         . ; h .                         $ h % % v a #               ",
"                            O p O h O d .         . % a .                         O h % % k #                 ",
"                            . p O g O a .         . . . .                         O g * # k #                 ",
"                              . t g . p .                                           # a o h @                 ",
"                              . r o g .                                             O a o h O                 ",
"                                . < g .                                             O i o g O                 ",
"                                . < f .                                             O r o g .                 ",
"                                . < d .                                             O e . a .                 "
};
