/* XPM */
static char *result[] = {
/* columns rows colors chars-per-pixel */
"55 50 71 1 ",
"  c #5D3D21",
". c #603F23",
"X c #5F4025",
"o c #624225",
"O c #684726",
"+ c #654629",
"@ c #68472A",
"# c #67482A",
"$ c #6B4C2D",
"% c #6E502F",
"& c #6D4F30",
"* c #6E5131",
"= c #725433",
"- c #755937",
"; c #7F5B34",
": c #765A38",
"> c #795C3A",
", c #7D613D",
"< c #7F6440",
"1 c #803F0C",
"2 c #82400C",
"3 c #93490E",
"4 c #844613",
"5 c #874C1A",
"6 c #954B10",
"7 c #984E13",
"8 c #8A511F",
"9 c #9C5116",
"0 c #A1571C",
"q c #A45A1F",
"w c #8B5221",
"e c #A75D22",
"r c #84643C",
"t c #AB6126",
"y c #AE6429",
"u c #B1672C",
"i c #B3692E",
"p c #B36C34",
"a c #B96E33",
"s c #C47A3F",
"d c #816641",
"f c #896740",
"g c #856A44",
"h c #8A6C43",
"j c #896E49",
"k c #8C7146",
"l c #8E734B",
"z c #9D7345",
"x c #92764C",
"c c #957A4E",
"v c #947B52",
"b c #987E53",
"n c #A27B4E",
"m c #C57B40",
"M c #C87E42",
"N c #9B8156",
"B c #9D845A",
"V c #9F885D",
"C c #A0865A",
"Z c #A88559",
"A c #A1895E",
"S c #A48D62",
"D c #A88F63",
"F c #A79064",
"G c #AA9166",
"H c #AC9569",
"J c #B19A6E",
"K c #B49C71",
"L c #CB8146",
"P c #CE8449",
"I c None",
/* pixels */
"IIIIIIIII-bbAAJ-D=.c*I$BlXI%HbAr#$II#v%S=II*CGl%IIIIIII",
"IIIIIIIIII%bNGCJD=Ioc*#BjXI*bShb$III+x%S=II$Jbb=IIIIIII",
"IIIIIIIII=lrbbHVJ=Iox*+BgXI$Arb@IIII+lA%II$$ZAhS$IIIIII",
"IIIIIIIIII%$OrzHB=IXj$+NdX#Sfbr@IIII+kA*I$JCGbb$IIIIIII",
"IIIIIIIIII$$COblGA%IokoBXII#brrOIIIII=V*II$JNA$IIIIIIII",
"IIIIIIIII$KCHOrZcHA=%gXboIIIo.+D*IIII=V*II$ZSc$IIIIIIII",
"IIIIIIIIII$JNAohCxGZJ%ov II#j.=$,<II$N=III$GbbOIIIIIIII",
"IIIIIIIIII%NFzO.rClH$X-c II+SoI,DF<I#b=III&cChS@IIIIIII",
"IIIIIIIIII$Hbb.rkrAc$g:v II&SX<Vo+Sd$v*IIoNAxc -IIIIIII",
"IIIIIIIIII$cAhAookrDxo-l II*S+N+I o +N$IIIofcd D>IIIIII",
"IIIIIIIIIobAxxoIIolrAoA= I>F+v+II Vc+v$II=B.rfo*IIIIIII",
"IIIIIIIIII.hvr.IIIOgoX#B*I-S#+IIII cob#<<c$I..voIIIIIII",
"IIIIIIIIIIIorg IIII.rX+V-I*SoIIIII cov>DS=II+< IIIIIIII",
"IIIIIII<dIII..bo==$$N% #B---+IIIII cob+#*S-I-S*IIIIIIII",
"IIIIII>DS=II+d.-SAC$N$I#N-SS>IIIII lovXl +N--S=IIIIIIII",
"IIIIIII$=A-I-S>G@Ook*B=+#V$$S,IIjI k vg.II&vD-IIIIIIIII",
"IIIIIIIII#v--S=#III.=A=#v#$S#IIdS*I vXg II$vS-IIIIIIIII",
"IIIIIIIIII*vS>IIIIII=S=col$S+I<S-II v< III$vS-IIIIgggII",
"IIIIIIIIII&vS-IIIIII=F%x$kVoIIdF-II v, IIII=S-III<GFDdI",
"IIIIIIIIII#vD-IIIIgg=S%l#gSXI>S*III l, IIII=S-II,D#&*-d",
"IIIIIIIIIII=S-III,FFF*Al+$AXI:S=III l IIIII=S=I-S+III&I",
"IIIIIIIIIII=F=II,D#***Aj+*A+-SoIIII k IIIII=S$-N+IIIIII",
"IIIIIIIIIII=S*I-S+III*V=I*AX-:,>IIggg IIIII=S*x+IIIIIII",
"IIIIIIIIIII=S*-N+IIII*V=I$AX*GGGdjSFG<IIIII=S$vXIIIIIII",
"IIgggIIIIII=D&voIIIIII*N#6966667336$&F<IIII=S#l#IIIIIII",
"IjDDF<IIIII=S$-==IIIII=N#3utyuPLie6X+*DdIII=Sl+IIIIIIII",
"gG&$&GdIIII=S=SGG*IIII*N#6eaMLPPPq3III#B<II-SloIIIIIIII",
"I-III*DdIII=-S**%V-III$N#7qaLLPPu03III+N<II*SloIIIIIIII",
"IIIIII#B<II-S*oII$B=II$v+7uMLLLLte6IIII&b>I*Sl.IIIIIIII",
"IIIIII+B<II=Sl+III$c$I$vo6qammssa96IIII#N:I&Sl+IIIIIIII",
"IIIIIII#N>I*AloIIIIXl$#vo666yyaye66IIIII#v&&Vl+IIIIIIII",
"IIIIIII#b-I&Vl+IIIIIXk+vo6666366666IIIII+v&#V+IIIIIIIII",
"IIIIIIII#b$$Ax+IIIII.l.vo1111211121IIIIIov%OnOIIIIIIIII",
"IIIII1111O111111111111111111121112111111111O11111O11111",
"IIIIIpppiiappppppppapppp111111111211ppppppppppapppppapp",
"IIIIIpppaiappppppppapppp111111112211pppapppppppppppaapp",
"IIIII411111O11111111111O11111111212111111O1111111111111",
"IIIIIIIIIOrXvXIIIIIIII.,x1111111112IIIIIIod l IIIIIIIII",
"IIIIIIIIIOg v IIIIIIIII l1111111122IIIIIIO, h IIIIIIIII",
"IIIIIIIIIo< l IIIIIIIII j1111111121IIIIIIO, > IIIIIIIII",
"IIIIIIIIIo, h IIIIIIIII g1111111211IIIIII..   IIIIIIIII",
"IIIIIIIII@, > IIIIIIIII >1211111111IIIIIIIIIIIIIIIIIIII",
"IIIIIIIII.    IIIIIIIII >21111112w1IIIIIIIIIIIIIIIIIIII",
"IIIIIIIIIIIIIIIIIIIIIIIo+21111114n4IIIIIIIIIIIIIIIIIIII",
"IIIIIIIIIIIIIIIIIIIIIIIII2Z412522n8IIIIIIIIIIIIIIIIIIII",
"IIIIIIIIIIIIIIIIIIIIIIIIIIHIIIGIIGIIIIIIIIIIIIIIIIIIIII",
"IIIIIIIIIIIIIIIIIIIIIIIIIIHIIIIIIIIIIIIIIIIIIIIIIIIIIII",
"IIIIIIIIIIIIIIIIIIIIIIIIIIIIIIIIIIIIIIIIIIIIIIIIIIIIIII",
"IIIIIIIIIIIIIIIIIIIIIIIIIIIIIIIIIIIIIIIIIIIIIIIIIIIIIII",
"IIIIIIIIIIIIIIIIIIIIIIIIIIIIIIIIIIIIIIIIIIIIIIIIIIIIIII"
};
