/* XPM */
static char *d73e4f9fd20642a3c001b6bc7b994e58areW709ausoGf5Om[] = {
/* columns rows colors chars-per-pixel */
"55 75 234 2 ",
"   c None",
".  c #1D331A",
"X  c #193926",
"o  c #13362F",
"O  c #1C3E29",
"+  c #327A1E",
"@  c #2A741F",
"#  c #09582D",
"$  c #155B2D",
"%  c #094A39",
"&  c #1B473E",
"*  c #134A3C",
"=  c #0B5234",
"-  c #0C543A",
";  c #085638",
":  c #165938",
">  c #10492D",
",  c #274929",
"<  c #225B2D",
"1  c #265A38",
"2  c #375839",
"3  c #2F4B38",
"4  c #1B632B",
"5  c #196829",
"6  c #0E623C",
"7  c #1B6637",
"8  c #166A31",
"9  c #266B2A",
"0  c #2C722B",
"q  c #2A7525",
"w  c #347A24",
"e  c #3A7C23",
"r  c #347C2C",
"t  c #377628",
"y  c #266836",
"u  c #386738",
"i  c #2B7332",
"p  c #2A7738",
"a  c #337D39",
"s  c #377736",
"d  c #37622F",
"f  c #405D39",
"g  c #417A2A",
"h  c #456737",
"j  c #467838",
"k  c #50712A",
"l  c #6C7734",
"z  c #1C3A4C",
"x  c #1D3752",
"c  c #263B4A",
"v  c #282D5A",
"b  c #243B54",
"n  c #293757",
"m  c #363858",
"M  c #333055",
"N  c #3D1B75",
"B  c #1C356C",
"V  c #3A2967",
"C  c #2A3A68",
"Z  c #383767",
"A  c #3C2B73",
"S  c #393374",
"D  c #2C3169",
"F  c #453B5A",
"G  c #432D5E",
"H  c #481B78",
"J  c #442A6B",
"K  c #473568",
"L  c #442373",
"P  c #452977",
"I  c #513276",
"U  c #613173",
"Y  c #194648",
"T  c #0B5B44",
"R  c #0D5A4C",
"E  c #0B5547",
"W  c #155847",
"Q  c #0B5855",
"!  c #135C5B",
"~  c #155856",
"^  c #124A51",
"/  c #274647",
"(  c #394A4B",
")  c #255847",
"_  c #395647",
"`  c #2A4759",
"'  c #3A4853",
"]  c #325656",
"[  c #186746",
"{  c #0D625A",
"}  c #1B6456",
"|  c #136B4B",
" . c #246544",
".. c #266B4A",
"X. c #366746",
"o. c #277345",
"O. c #287449",
"+. c #256A54",
"@. c #267754",
"#. c #387054",
"$. c #185965",
"%. c #1A5169",
"&. c #284667",
"*. c #364965",
"=. c #2D4F70",
"-. c #186465",
";. c #136867",
":. c #366465",
">. c #2B7767",
",. c #414C4D",
"<. c #445849",
"1. c #424454",
"2. c #454857",
"3. c #50515B",
"4. c #4F714D",
"5. c #747350",
"6. c #4D4B6E",
"7. c #6C526D",
"8. c #6E7567",
"9. c #596563",
"0. c #867F39",
"q. c #CA5A19",
"w. c #847B4F",
"e. c #8C6E65",
"r. c #39841C",
"t. c #2F841E",
"y. c #3D8324",
"u. c #3C842C",
"i. c #398726",
"p. c #3A8432",
"a. c #3A863C",
"s. c #3B8C3D",
"d. c #368636",
"f. c #3D9436",
"g. c #328830",
"h. c #478D1D",
"j. c #458A28",
"k. c #4C9429",
"l. c #589A27",
"z. c #478837",
"x. c #479338",
"c. c #559C36",
"v. c #5C883B",
"b. c #68963C",
"n. c #6C9136",
"m. c #5DA22B",
"M. c #40A23D",
"N. c #5CA53A",
"B. c #4AB734",
"V. c #67A82A",
"C. c #7AB928",
"Z. c #64A938",
"A. c #6DB73A",
"S. c #7BBE33",
"D. c #73BB3B",
"F. c #75B936",
"G. c #73AA33",
"H. c #7CC235",
"J. c #7AC62C",
"K. c #368C47",
"L. c #3C8C43",
"P. c #378848",
"I. c #3C924C",
"U. c #3C9548",
"Y. c #2C8757",
"T. c #368955",
"R. c #3C9552",
"E. c #3E9B5D",
"W. c #399459",
"Q. c #28834B",
"!. c #2B8667",
"~. c #3C9B64",
"^. c #399765",
"/. c #368868",
"(. c #3CA05A",
"). c #429344",
"_. c #489A48",
"`. c #449C57",
"'. c #57904A",
"]. c #749D44",
"[. c #5CAD4C",
"{. c #57A646",
"}. c #5BB148",
"|. c #4AA35A",
" X c #4AA258",
".X c #55AA55",
"XX c #55AD50",
"oX c #62AD46",
"OX c #66B546",
"+X c #69B44D",
"@X c #439763",
"#X c #73866C",
"$X c #45A264",
"%X c #51AD60",
"&X c #7BC340",
"*X c #989037",
"=X c #87AB3E",
"-X c #87A33C",
";X c #8EBD2E",
":X c #88C72A",
">X c #93CC23",
",X c #81C432",
"<X c #87CA34",
"1X c #8E894C",
"2X c #B09353",
"3X c #89986A",
"4X c #9F8B6B",
"5X c #AA8E70",
"6X c #A1AF42",
"7X c #D1B768",
"8X c #C69B65",
"9X c #592B9A",
"0X c #5B3596",
"qX c #503287",
"wX c #61399B",
"eX c #673786",
"rX c #573CA6",
"tX c #6439AA",
"yX c #6837B7",
"uX c #5C1FA0",
"iX c #534E90",
"pX c #684C89",
"aX c #6D558B",
"sX c #79648F",
"dX c #6B45A6",
"fX c #7146AB",
"gX c #4F72BE",
"hX c #5A74B5",
"jX c #754BC2",
"kX c #847998",
"lX c #64A3DE",
"zX c #868098",
"xX c #FBEA98",
"cX c #97E6F6",
/* pixels */
"                                                  s                                                           ",
"                                                % _.:                                                         ",
"                                          * ; r C.|.p =                                                       ",
"                                          L :.G.[.!.E.t #                                                     ",
"                                              S ;.} @.y.) L                                                   ",
"                                      - = = = S } y.i Y H                                                     ",
"                                      Z '.C.S.^.N.[.`.r 1.                                                    ",
"                                        / @.{.m.Z.>XV.%XY.5 1 H                                               ",
"                                  % z.c.[ z.Y.a $XH.x.l.Y.+.'                                                 ",
"                                  _ k.k.c.OXa.{.[.~.~.a.P./.u #                                               ",
"                                    H V p L.@.<X}.r /.R.p.y.w j.9 :                                           ",
"                                      *.@ W L.c.:.a.O.!.-...# u <.<.                                          ",
"                          = =       Y R ! E t Z ^ Y.).4 b %.~ V                                               ",
"                          *.oXi : % Y.u C &.Z $.R - R.0 * Z Z b                                               ",
"                            +.V.c.- K.@Xc 6 &.~ pX6.u <.b T $.T n S Z A                                       ",
"                          6 x.m._.{.h.K.p c.:.D _ aXP : v ~ E = T -.&.S                                       ",
"                          ` 4.:X:X[.A.C.N.j.D.n.# Y X.Q.t m = Y V Y V                                         ",
"                            / 7 L.}.C.D. XW..XV.$ 0 i.E.a.Z ~ 0 1.* $ n                                       ",
"                            ,.U.f.q a OX;XN.H.!.i `.s.+ m %.7 e 7 O.r.,.                                      ",
"                            H F ( 5 W.m.x.A.oXI.).R.~.+ #.~ $ a ^.).t J                                       ",
"                            * X.^ 9 u.7 W.|.a.W.L.y.d.{.}.W.r u.s.+ /                                         ",
"                        - [ [ 8 X.V c y.i.w ..d.O.f z.<Xc.Z.{.p.~.[ x V L                                     ",
"                        W >.U.i.+.{ z 4 u & 5  .6.m E.c.p P.{.9 f.U.' * Y C &.A                               ",
"                          A m ' +.-.iXh x L v K 4.q u.r.4 0 d.5 ( F K n T ;.%.L                               ",
"                        P H     *.{ A 2.7.yXI 0.h 1 K 2.( V g _ x ^ $.= - A n                                 ",
"                      n W.:.Z n 4 7 *.C Z v v 1Xe.K tXL Y ! S ` # ~ -.: $ V = 4 V                             ",
"                    [ Q.u.7 : b R k.H.:.; # 5 +.1X*XfXv # ! { &.1 9 : d.z./ t h.K                             ",
"                    : [ ] *.Y.].F.{.D.H.c.!.j.oXO.1 ` M T ! = W 1.g p.$Xd.w j.9 Y L                           ",
"                    - P.p =.<.s.OX,X X[.OXD.|..X[.W.r.y ) u u l.C.`.m.c.j.R.R.d.u L                           ",
"                  - @.i [ R =.[.OX[.,XV.N.H.R.R.p i 2 S 7.e.e.5 a _.OXx.N.c.y u L                             ",
"                  a._.- [.T p k.@._.l.4 x.$Xr p + b 9XH   N B $ d.7 .Xl.p l.) N                               ",
"              : $ o.+Xk.:XoX[ $ r u.$ E o.L.e 9 ` J dXL L u a [ ' Z x.O.M # / P L                             ",
"              6.OXN.c.~.A.>XoXa.c.).[ [ a.y./ wXe.*XfXv # Q a +.p } : 1.Y E Q $.L                             ",
"                +.D.S.[.[.[.S.OXD.D.oX|..XW.P *.h 5XdXC 4.g Q ! +.-.=.^ = R ~ L     n                         ",
"              # L.S.^.,XF.|.:XS. X>X[.|.:X|.>.Y.T l dXA U 3.l u ! E T - = q (   ; 5 _                         ",
"              - J V '.J.#.l.,X`..X[.A.|.oXc.i.<.tX5.dXv E %.K J b * : e 7 p.j.7 P.i.,.                        ",
"                  5 f.<.D | E.u.^.g.Z.C.p ~.u.K rX5.fXv $ Z ! { ' L $ i ~.L.u.R.i 1.                          ",
"                  m 1.&.- p.i t f.f #._.$ j.9 h c 0 dXY y.K E : r.<.).E.K.L.I.u.0 1.                          ",
"                    v { Z K Y w h n m A ( 9 9 Y 5.k.W l.l.u $ L.E.i.P.XXC.L.|.C.h.u H                         ",
"                    = ~ T.s R S C T % * V y e u.).[.k.<Xc.T.x.`.d.y..X).I.^.a t / L                           ",
"                  [ @.y $.o.O.O.{ Q u iXqX: L.+X[.[.$X[.|. X$XV.x.u.C.&Xj._.'.v n L                           ",
"          = =   % : >.p.o.} y.#.6.k u =.) r.p l.H.OX~.S.[.F.L.$X_.w 9 l.0 y.3.b b                             ",
"          : L.y 9 oXo.W : $ [ %.L ( 0 q : 4 w I.`.[ `.D.P.).0 @.[ t q b Y m J Y Z A A                         ",
"            m Z.,X[.D.o.$ w 9 [ | 0 {.L.E.#.f _ E ! 6 ..E o.-.R E ~ h K Y R ! = R { S                         ",
"          6 4.oXOX,X~.[.c.@.m.|..XW.l.Z.i.6.uXZ d.` n ! ` C $.D %.b n n * T ! $.R M     # _                   ",
"            4.l.F.A.OX>XD..X<XS.:X.XW.k.Y.! qXP F wXI X.H   K X.Z L T T = n ; E W H b @.i.h                   ",
"            V : A.P.l.C.{.:X{.S.^.N.|.E $.p < rXaXsXfXH     n t.s -.R 0 g A R q 0 < a.`.i.<.                  ",
"            z ( :.9 t 9 j.XXX.{.K.} >.9 7 P.s.< qX5.sXiX&.u j j T Q $ j.^.' 9 r.9 L.u.q '                     ",
"                  = 9 = u.X.L a u ] Y.L.j.^.L.j...3 5.iXP 7.7.e.l 9 q I.K.h.C._.u.I.~.i _                     ",
"              = 6 ^.-.- 1 L   J ' e u.`.^.OX_.W.^.d._ iX>   D ` U g E.s.V._.V.,X`.w u.2.J L                   ",
"              : Y.T.-.a.o.&.K ^ = q {.oX{.,X`.W.P.Y.2 U j x - ! C _ }.l.K.}.4 u I.4 v                         ",
"      a O.% : e 9 i |.!...r ..~ q q {.s.k.$Xi R.Q.c 9X9XaX5.; Q - n k t./ f.u v ,.2.H                         ",
"= = $ k.x.O.l.{.t 7 o.y h.s -.* F V X.F _ f.* ' i.K jXwXL 7.1Xd = Q &.V C m J Y Y H                           ",
": Z.,Xl._.<X:X|.!.= 0 y ! $.W R % ) 2.7.9X2 I wXJ pXe.tXc - K 7.w.1 ~ $.Z z ^ $.: H   # L     : V             ",
"  A 4.'.m.V.|.|.XX_.W.p.= = 0 y ] 5.5.L   V 7.e.8.k 4.qXz %.&.v H 4.=.# e ( = 4 t b # e b   : t J             ",
"      * l.V.|.D.>XS.OXU.p a.w j eX2.&.n H Y 1X2X*X3.5 $ v ,.H     = 9 w j.s.q x.u.9 T.i 9 @.a.y.J             ",
"      k.,X_.).D.:X:X>XF.z.~.p.T.A ~ ; R n 0X] y ,.I e r.1 w <.    $ z.`.p.W.R.^.p.R.I.r R.R.u.1.              ",
"    +.4.h d.A.S.|.D.H.|. XD.^.I.u z U.[ z 7.3./.I.e W.u.r.k.a : 0 p.V.:X`.P.~.$Xa.a.e I.s.0 /                 ",
"    H H m V.OX$XT.^.S. XI.,XXXr w = G.}.` G 3.=.!.p.oX.Xp.V..XE.j.).oXS.OX~.D.N.^.+X_.P.~.~.i.F               ",
"        6 {.[ p j.,XOXE.w _.).V.Z.Y._.H./.T.X.p } Y.l.k.p.9 k.s.y L..X[.>Xc.>XN.P.OX<Xj.p.d.] c               ",
"        V P _ r.i OXs.7 r.w m.F.`.OX|. X,X[.R.t >.OX4 s (.d./ m 9 A.U.l.a j.A.^.r d.oX_.t e m .               ",
"            1.u P P.t V 2 3 % $ l.<X[.F._.H.$Xd.) :.b K #.:.I   ( #.1 # P.r 9 s.7 1 q 5 J iXiXh .             ",
"                  K V   pXaXZ w 0 a.S.N.u.@.L.g.m 9XtXtXI pXaX  sXpX6.c g r.1 m 3.5.<.<.K cXlXcXlXB           ",
"                            kX2.q @ _.W.e + : ,.e I jX0XaX  o kX    kXsX6.F K iXgXgX-XgXlXlXcXlXgXgXB         ",
"                      zXzXzX  J t 2.P y 0 9 K yXP K 5.0XaXo K.o zXzX    kX3 #XhXX -X6X-XgXX X gXn..           ",
"                  o     zXzX  pXqXsX6.r.: P 0X7.fX5.5.tXo o K.M.o o zXzX  . 3 9.8.X lX-XX j < X k , .         ",
"                o o.o   zXzXzXo     I M 1.o jX*X7.8.5.o o. . .B.o K.o   B X j 4.3.lXlXX b.n.h X , .           ",
"              o K.o.o zXzXo o o.o o kXo o o.o 8X1Xl o o.K.M. . . .M.B.o 3.j v.y O gXX s b.b.n., X             ",
"              o K.M.o.o o o.o.K.o o.o o.o. .o 7X1X2Xw.o o M.B.& M.B.o 3X3Xj j y X O X b.=X=X-Xk , X           ",
"          o o q.o.M.M.& o.o.K.K.o.o.o.K.o. .o 7X0.2Xw.jXqXo  .M. .o o #X3X3XX.3.=Xd b.z.z.=X=Xv.n., X         ",
"        o  .q.xXq.o.M.o.K.o.M.K.q.M.K.K. .o 7X2Xl 2Xw.o o M.B.& K.M.B.o #X3X8.3X].z.j z.=X=Xb.=Xn.2 X         ",
"      o  .o.K.q.o.o.o.o.q.M.M.o.M.M.K. .o.o 2X2Xl 2Xo K.M. . .& & M.o o o o #X#X'.j z.s z.b.b.b.G.v.X         ",
"        o  .o.K.B.B.o.q.xXq.K.K.o.K.o.o. .o 5X4X5.4Xo o M.B.& M.& & K.M.B.B.o 9.j u j s z.s b.s G.v.X X       ",
"        o  . .o.o.B.B.M.q.M.M.K.q.o.o.K.o. .o o o   o.K. .& M. . .M. .K.M.o =X;X1 , , 2 s j h 1 v.h X X       ",
"X X X o o o o o o o o o o o o o o o o o o o o o o o o  .M. .K.B. .K.B. .K.M.o =XX O O O , , O X X X X X       "
};
