/* XPM */
static char * citrouille3_xpm[] = {
"46 44 41 1",
" 	c None",
".	c #29682D",
"+	c #5E8160",
"@	c #8A9E8B",
"#	c #B9C3BA",
"$	c #C8CFC8",
"%	c #DDE1DD",
"&	c #FAFAFA",
"*	c #8A8A8A",
"=	c #BDBDBD",
"-	c #424242",
";	c #040404",
">	c #235B26",
",	c #EFF0EF",
"'	c #A9B6A9",
")	c #27632B",
"!	c #1E5122",
"~	c #1B4B1E",
"{	c #1D4F21",
"]	c #1A471C",
"^	c #174119",
"/	c #19471C",
"(	c #153D18",
"_	c #133815",
":	c #133A16",
"<	c #1D4D20",
"[	c #1F5222",
"}	c #113513",
"|	c #1C4B1F",
"1	c #123714",
"2	c #163F19",
"3	c #153E18",
"4	c #215624",
"5	c #18431B",
"6	c #19451B",
"7	c #17411A",
"8	c #0A260C",
"9	c #0E2D10",
"0	c #1A471D",
"a	c #103212",
"b	c #113514",
"                                              ",
"                                              ",
"                                              ",
"                               ....           ",
"          .....                ......         ",
"         .....                .......         ",
"        ......                 .......        ",
"        .....                   ......        ",
"       ......                  .... ..        ",
"          ...                  ....           ",
"           ..                  ....           ",
"           ...                 ....           ",
"           ...                 ...            ",
"          ..........................          ",
"          ..........................          ",
"          ..........................          ",
"          ..........................          ",
"          ....+++++........@@@@@....          ",
"          ....#$$$#........#%%%#....          ",
"          ....#&*&#........#=-&#....          ",
"          ....#&;&#....>...#=-&#....          ",
"          ....#,,,#....>...#%%%#....          ",
"          ....'''''...)!...@@@@@....          ",
"          ............~.............          ",
"          ............!)............          ",
"          ...........{>.>>..........          ",
"          ........]>^/).(_..........          ",
"          .......:<>>...[().........          ",
"          .......}......)/::/>......          ",
"         .......):.........)|})..........     ",
"        ........):...........|1..........     ",
"       ..........234.........55..........     ",
"       ..........)}/6[)))))){4~..........     ",
"       .............61//////7/...........     ",
"       ...............>>>>>>>............     ",
"       ..................................     ",
"       .................................      ",
"       ..........>>.......~.............      ",
"       ..........{{~.....484............      ",
"        .........>4!9!.{/0_............       ",
"          .........~^4a6b1{...........        ",
"            .........^4>>............         ",
"              .....................           ",
"                                              "};
