/* XPM */
static char * citrouille2_xpm[] = {
"46 44 134 2",
"  	c None",
". 	c #51944A",
"+ 	c #FEA609",
"@ 	c #EEA41D",
"# 	c #EEA31E",
"$ 	c #EBA320",
"% 	c #989940",
"& 	c #8E9842",
"* 	c #E2A226",
"= 	c #CD9F31",
"- 	c #699647",
"; 	c #F4A418",
"> 	c #E3A225",
", 	c #5F9548",
"' 	c #5E9549",
") 	c #8B9843",
"! 	c #CB9E31",
"~ 	c #BD9D36",
"{ 	c #729646",
"] 	c #D09F2F",
"^ 	c #8D9842",
"/ 	c #619548",
"( 	c #549549",
"_ 	c #5B9549",
": 	c #AB9B3C",
"< 	c #D19F2F",
"[ 	c #5A9549",
"} 	c #53954A",
"| 	c #C59E33",
"1 	c #5D9549",
"2 	c #B79D39",
"3 	c #E39508",
"4 	c #CC8508",
"5 	c #CC9120",
"6 	c #928A36",
"7 	c #588640",
"8 	c #548640",
"9 	c #62803B",
"0 	c #A79337",
"a 	c #889843",
"b 	c #5C9046",
"c 	c #F39F09",
"d 	c #7D9745",
"e 	c #52944A",
"f 	c #649548",
"g 	c #7A9745",
"h 	c #E39408",
"i 	c #CB8508",
"j 	c #AC8D2F",
"k 	c #6E873D",
"l 	c #558640",
"m 	c #58803C",
"n 	c #A39338",
"o 	c #52954A",
"p 	c #51954A",
"q 	c #5C813D",
"r 	c #C98408",
"s 	c #C38008",
"t 	c #D08808",
"u 	c #689647",
"v 	c #7F9744",
"w 	c #589549",
"x 	c #839744",
"y 	c #D3A02E",
"z 	c #969940",
"A 	c #C29E35",
"B 	c #A79B3D",
"C 	c #609548",
"D 	c #F49F09",
"E 	c #A89B3C",
"F 	c #B09C3A",
"G 	c #799745",
"H 	c #539549",
"I 	c #569549",
"J 	c #899843",
"K 	c #C49025",
"L 	c #FDA509",
"M 	c #CC9B2C",
"N 	c #77883B",
"O 	c #676B2B",
"P 	c #79883B",
"Q 	c #568640",
"R 	c #528E46",
"S 	c #B89C38",
"T 	c #809744",
"U 	c #A98023",
"V 	c #BB8E29",
"W 	c #F5A009",
"X 	c #DB8F08",
"Y 	c #988B35",
"Z 	c #557B39",
"` 	c #7A883B",
" .	c #D79C25",
"..	c #599549",
"+.	c #557937",
"@.	c #83782C",
"#.	c #C48412",
"$.	c #909942",
"%.	c #669648",
"&.	c #C48716",
"*.	c #5D7B38",
"=.	c #E0A227",
"-.	c #969941",
";.	c #829744",
">.	c #547B3A",
",.	c #5B7937",
"'.	c #C79E33",
").	c #B19C3A",
"!.	c #559549",
"~.	c #AB8122",
"{.	c #8B8938",
"].	c #659548",
"^.	c #679044",
"/.	c #547435",
"(.	c #5D8F46",
"_.	c #558F46",
":.	c #537B3A",
"<.	c #6E9647",
"[.	c #A99B3C",
"}.	c #979940",
"|.	c #749646",
"1.	c #679648",
"2.	c #A1953A",
"3.	c #6F7D36",
"4.	c #537838",
"5.	c #B29C3A",
"6.	c #709647",
"7.	c #8A9843",
"8.	c #959941",
"9.	c #6F9647",
"0.	c #5E863F",
"a.	c #817E32",
"b.	c #BB7B08",
"c.	c #DA8F08",
"                                                                                            ",
"                                                                                            ",
"                                                                                            ",
"                                                                                            ",
"                                                                                            ",
"                                                                                            ",
"                                                                                            ",
"                              . . . .                                                       ",
"                              . . . . .     . . . . .                                       ",
"                              . . . . .   . . . . . . .                       . . .         ",
"                                . . . . . . . . . . . .                       . . .         ",
"        + + + + + + + @ # $     . . . . . . . .   . . . .                   . . . .         ",
"        + + + + + + + % & % * = - . . . . . . . . . . . .                   . . .           ",
"      + + + + ; > > ; % , ' ) ! ~ { . . . . . . . . . . .     + + + + +   . . . .           ",
"      + + + ] ] > > ] ^ / ( _ : + < [ . . . . . . . . . } + + + + + + + | 1 . .             ",
"    + @ @ 2 ; + 3 3 4 5 6 7 8 9 0 + a . . . . . . . . . b c + + + + + + d . e f             ",
"    + % g % + + 3 h i 5 j k l m n ] ; - o . . . . . . p q r s s t 3 + + d . . u +           ",
"    + v } w x y + + + > > z ( ( z + A y B C . . o . . e d + + + D 4 3 + E [ . _ F +         ",
"    + G H . I x + + + + A J ( ( z + K > L M N O P Q R _ S + + + + + + h + J I o x + +       ",
"      J o . . _ x y + + + J } } T U V + W X + + Y l Z ` 3 + + + + + + 3 t  ...o / @ +       ",
"      J H e ( . ..x y + + x ( +.@.#.+ + D t + + z } } P 3 h @ $.%.- % + D &.*.o ..=.+       ",
"      -.} } ..- ( ( / u ;._ >.,.'.+ + + D t + + ).o . !.B ~.{.].. . w ).+ + ^.o I y +       ",
"      T ( H % y x } . . R /.(.x @ + + + D t + + y _ . . ( _.:.. . . . ).+ @ / o ..=.+       ",
"      <.o !.[.+ y / } . >.w % y + + + + D t + + + }./ } ( . :.R . . w ).+ E ' } |.@ +       ",
"      <.o ( 1.y + '.2.3.z ).+ + + + + + D t + + + + y ).|.. 4.4.. o / % y %.o / 5.+ +       ",
"      6.- . } ' 7.y 3 3 + + + + + + + + D t + + + + + + + w . :.R . . x ).( ( |.+ + +       ",
"        8.- ( o _ % t D + + + + + + + + D t + + + + + + + - ( 4.4.. e 9.|.( I B + + +       ",
"        + y x ' ' % s + + + + + + + + + D t + + + + + + + y ).P 0.e } 9.' o 6.y + +         ",
"          + @ '.'.y s + + + + + + + + + D t + + + + + + + + + D a.} o I o ' E + + +         ",
"            + + + + + + + + + + + + + + + s + + + + + + + + + + ).( . . ( x @ +             ",
"            + + + + + + + + + + + + + + + s + + + + + + + + + + y - } e - y + +             ",
"            + + + + + + + + + + + + + + + t D + + + + + + + + + + y }.}.5.+ +               ",
"              + + + + + + + + + + + + + + t D + + + + + + + + + + + + + + + +               ",
"                + + + + + + + + + + + + + 3 b.+ + + + + + + + + + + + + +                   ",
"                  + + + + + + + + + + + + 3 c.+ + + + + + + + + + + + + +                   ",
"                    + + + + + + + + + + + + + + + + + + + + + + + + + +                     ",
"                    + + + + + + + + + + + + + + + + + + + + + + + + + +                     ",
"                        + + + + + + + + + + + + + + + + + + + + + +                         ",
"                          + + + + + + + + + + + + + + + + + + + + +                         ",
"                              + + + + + + + + + + + + + + + + + +                           ",
"                                  + + + + + + + + + + + + + + +                             ",
"                                          + + + + + + + + +                                 ",
"                                                                                            ",
"                                                                                            "};
