/* XPM */
static char *result[] = {
/* columns rows colors chars-per-pixel */
"55 50 97 2 ",
"   c #5D3D21",
".  c #603F23",
"X  c #5F4025",
"o  c #624225",
"O  c #684726",
"+  c #654629",
"@  c #68472A",
"#  c #67482A",
"$  c #6B4C2D",
"%  c #6E502F",
"&  c #6D4F30",
"*  c #6E5131",
"=  c #725433",
"-  c #755937",
";  c #7F5B34",
":  c #765A38",
">  c #795C3A",
",  c #6C6530",
"<  c #6F6833",
"1  c #716935",
"2  c #7D613D",
"3  c #776D3A",
"4  c #796F3C",
"5  c #7C733E",
"6  c #7F6440",
"7  c #7D7340",
"8  c #7F7842",
"9  c #803F0C",
"0  c #82400C",
"q  c #93490E",
"w  c #844613",
"e  c #874C1A",
"r  c #954B10",
"t  c #984E13",
"y  c #8A511F",
"u  c #9C5116",
"i  c #A1571C",
"p  c #A45A1F",
"a  c #8B5221",
"s  c #A75D22",
"d  c #84643C",
"f  c #AB6126",
"g  c #AE6429",
"h  c #B1672C",
"j  c #B3692E",
"k  c #B36C34",
"l  c #B96E33",
"z  c #C47A3F",
"x  c #816641",
"c  c #896740",
"v  c #856A44",
"b  c #8A6C43",
"n  c #896E49",
"m  c #827543",
"M  c #8C7146",
"N  c #837A45",
"B  c #8E734B",
"V  c #867D49",
"C  c #8C7D4C",
"Z  c #9D7345",
"A  c #92764C",
"S  c #957A4E",
"D  c #947B52",
"F  c #987E53",
"G  c #A27B4E",
"H  c #C57B40",
"J  c #C87E42",
"K  c #8F8050",
"L  c #948354",
"P  c #9B8156",
"I  c #928B54",
"U  c #9C845A",
"Y  c #968F58",
"T  c #9E895C",
"R  c #98915A",
"E  c #A0865A",
"W  c #A88559",
"Q  c #A18A5E",
"!  c #A48D62",
"~  c #A88F62",
"^  c #A69164",
"/  c #A99266",
"(  c #A39B64",
")  c #AC9569",
"_  c #AE9B6C",
"`  c #B0966A",
"'  c #B19B6D",
"]  c #B49D71",
"[  c #AAA26A",
"{  c #B3A16F",
"}  c #AFA870",
"|  c #B5A473",
" . c #B6AC76",
".. c #B7B077",
"X. c #CB8146",
"o. c #CE8449",
"O. c None",
/* pixels */
"O.O.O.] O. .|  .| - F P / W ' = ~ = o S * ..$ U B   ..* ) S Q b # $  ...# D * ^ * ....$ E / A %  ......... ...",
"O.O.] O.O. .|  ...| % S F ~ E ' ~ = | o D * # U n o  .& D ~ b S $  .|  .+ B $ ~ - ....% ' F F = ] ...... .` ..",
"O.O.] O.O.| | ....= M b F S / E ' = ..o B * + P v X ..$ ~ d P @ |  .| ..+ B T * ....# $ E Q n ~ % | ......` ..",
"O.O.O.] O.|  .......$ O O M A ) P % ..o n & + P 6 X $ ! c S d @  . .|  .# M Q * ..$ ] U ) S S $ ..|  .........",
"O.O.O.] O. .| ..|  .$ $ E O F A ) W = ..o b + P X ....+ F d d O .... .....& T & | | $ ] P W * ................",
"O.O.O.O.O.......' $ ' W ) O d P S ) Q % % b X F X ....... . + ~ * ^ | ....- T &  .| $ P / S O ...... .| ......",
"O.] O.O.O...........$ ` P E O b E A ) E ' $ o D    ...$ n . = $ 6 6 | ..@ U * ......$ ) S P O | ....| | ......",
"O.] O.O.] ..........% E / S @ . d U M ` $ X > S X ) ..# Q o ] 2 ! ~ 6 ..$ F - ......$ S E b ~ @ ..| ]  .......",
"] O.O.O.] | ........$ ) F F . ; M d E S $ x : A   _ ..$ ! X 6 Q o o ~ x @ F & ..... F ! n D   = .. .] ........",
"O.O.O.O.O.| ........$ S W b ! o o M d ^ A + : B   ....* ! + T X ..  o   + F & ....... b D x . ^ - .... .......",
"O.O.O.O.O.| |  .... F Q A A . ....o M d ! + Q -   ..> ! # D + ..| . Q D + F # ....- U . d b + & ]  . .| .. . .",
"O.O.O.O.O... ........ b D d . ......O v o   # U * ..: ! # X .... .]   D o P # 6 6 S @  .. . F   | | ..| ..{ { ",
"O.O.O.] O... .........o d v . ......... d X # T - ..* ! + ........|   A o F > ! ~ = ....+ 6   ....| ......|  .",
"O.O.O.] O...| 6 x ..] ..o . F o = = * O P $   # U : - - + .... ... .  A o D o & & ! - ..: ! & ....| | ........",
"O.O.] O.O...> ~ ~ - | | + x   : ~ Q E $ P $ | # P : ! ! 2 | ..| | ..  B o D # B   # F - : Q = ..| | ....| ....",
"O.] ] ] O.....$ * Q - | - ! > / + O o M * U * + # T # # ! 2 .. .v  .  B   D x   ....& D ! : ....|  ...] | ....",
"O.] O.O.] ....] ..# L - : ! * #  ...| o * Q - + F + $ ! #  . .6 ^ * ..  D   v   | ..& D ! : .. .| ..| | ......",
"O.O.O.O.O...........& D ! > ............- ! * S + B # ! + ..6 ^ = ....  D 6   ..| | # D ! - ........v v v ....",
"O.O.O.O.O...........$ D ! : ...... .| | * ! % A # B U + ....6 ^ : ....  D 6   .. .| | = ! : ......6 / / ~ x ] ",
"O.O.O.] O... .......$ A ! : ........v v - ~ % B + v ! X ..: ~ * ] ....  B 6   ....| | = ! : ..] > ~ # & & : x ",
"O.O.O.] O...|  .| ....= ! - | ....2 ^ ^ ^ * Q B # # Q + ..: ! * |  ...  B   .. ...| | = ! = ..: ! #  .| ..$ ] ",
"O.O.O.O.O...| ..| | ..= ! - | | 2 ~ # * * * T B # & Q X : ! + .. .] ..  n    . ...] ..= ! & : F # |  . .| ....",
"O.O.O.O.O...|  .| ] ..= ! * ..: ! + | |  .* T * ..& Q X : > 2 >  .| v v v    . . .|  .= ! $ C + | .... .| |  .",
"O.O.O.] O.| ] ....| | = ! & - P +  . .| ..* U - | & Q X * / / ^ x n ^ ^ ^ 6 .... .| ] = ! & D   ]  . . .|  ...",
"] O.v v v  .| .... .| * ! & B +  ...........* U # r u t r t t t q r r & & ^ x ......| = ! @ B + |  ...| | ....",
"O.n ~ ~ ^ 6 ...... .] - ! & - - - ........ .* P # q h f f h o.J h s r   + & ^ 6 ......= ! B +  ...............",
"n ^ & $ & / x ........= Q - ! / ! * | ....| & F # r s l J X.o.o.J s r ......+ T 6 ....= ! B X | ......|  ...| ",
"O.- O.O.] & ^ 6 ......= : ! $ * * U - ....| & P + t i l X.X.o.o.h s q ......+ F 6 |  .* ! B + ] ......|  ... .",
"O.O.O.] O.] # U 6 ....- ! * + ....O T - .. .$ D O t h J X.X.X.J s s t ........$ F > ..= ! B   |  ... .|  . ...",
"O.O.O.O.]  .+ U 6 ....* ! B X ....| @ D %  .# F o t i k J H H H k u r  .......# F :  .& ! B @  .]  .] .. .] ] ",
"O.O.O.O.] |  .$ P : ..* ! B X .. .|  .o B $ + D o r r t g g k g s r e ........| # D & & Q B # ............|  .",
"O.O.O.O.O.|  .+ F - ..& Q B O .. .] ....  B O D o r r q t q q t r r r ........ .X D & # U # | .... ..... .] ..",
"O.O.O.O.O. . . .# D $ $ Q A +  .{  ...... d O S X 9 9 9 9 0 9 9 9 0 9 .. . .....o D $ O U + .... .| .... .| ..",
"O.O.O.O.O.9 9 9 9 O 9 9 9 9 9 9 O 0 0 0 0 q 0 0 0 O 9 9 9 0 9 9 9 0 9 9 9 9 0 9 9 0 9 9 0 0 9 9 9 9 9 9 9 0 9 ",
"O.O.O.O.O.k k k j j l k k k k k k k j l j k k k 9 9 9 9 9 9 9 9 9 0 9 9 k k k l k k k k k k k k k k j h k k k ",
"O.O.O.O.O.k k k l l k k k k k k k k l j k k k k 9 9 9 9 9 9 9 9 9 0 9 9 k k k l k k k k k k k k k j l z k k k ",
"O.O.O.O.O.9 9 9 9 9 9 9 9 9 9 9 0 0 0 0 9 9 9 O 9 9 9 9 9 9 9 9 0 9 9 9 9 9 9 9 0 0 O 0 O 9 9 9 9 9 9 9 9 0 O ",
"O.O.O.O.O.| ..|  .o n X D . ........ ... . .  2 Z 9 9 9 9 9 9 9 9 9 9 ............O a   Z   ..|  ......... . .",
"O.O.O.O.O.......... v   A   ............ .....X M 9 9 9 9 9 9 9 9 0 0  .| ........o 2   b   ..| |  ... . .{ ..",
"O.O.O.] O.........o x   B   ................}   M 0 9 9 9 9 9 9 9 0 9  .| ........O 2   2   ....|  ... .{  ...",
"O.O.O.] O. .| ....o 2   v   ..................  d 9 9 9 9 9 9 9 9 9 9 |  .........           ... .|  . .]  ...",
"O.O.] O.O...| | ..# >   2   ..................  d 9 9 9 9 9 9 9 9 9 9 ] ......| ..................|  . .] ....",
"O.O.O.O.O.....| ..          ..................  > 9 9 9 9 9 9 9 0 y 9  .......| .................. . ..... . .",
"O.O.O.O.O.....| | ...... .....................X O 9 9 9 9 9 9 9 w G w  .....| | ................ . .|  . .| ..",
"O.O.O.O.O.K [  . . ....... .......................0 W w O 9 q 9 0 Z a | ...... . .{ ........ .{ .. .| |  .| ..",
"O.O.O.O.O.) N ( N I 8 I N , , 1 N I [ [ ....|  .5 < Q 1 , | ` [  .' | |  . ... .| ............{ }  .( ) R Y ( ",
"O.] O.O.O.! m , L V , , ^ 5 , , , , , < [ _ | V ( d S , 3 _ N , 1 L Y C C Y , ' | ..} ..} I , K C < , L N < 7 ",
"O.] O.O.] O.O.O.O.] O.O.! C , , , , , , 1 ^ < , ^ 5 , , U K m ^ O.) Q , , , , L [ R  .[ 1 , , L C , ! U 5 N ) ",
"O.O.O.] ] ] O.O.O.] O.O.O.] O.O.O.O.O.O.L U , O.O.] O.O.O.O.] O.O.O.] O.O.O., K L , , , , O.O.O.O.O.] O.O.] O.",
"O.O.O.] O.O.] O.O.] O.O.O.] O.O.O.O.O.O.' O.O.O.O.] O.O.O.O.] O.O.O.O.] O.O.O.) O.O.O.O.O.O.O.O.O.O.] O.] ] O."
};
