/* XPM */
static char * chestng_xpm[] = {
"50 50 132 2",
"  	c None",
". 	c #000000",
"+ 	c #8F7C2B",
"@ 	c #9B852F",
"# 	c #63551B",
"$ 	c #D5B844",
"% 	c #E4C549",
"& 	c #95802C",
"* 	c #DBC156",
"= 	c #EBCE5C",
"- 	c #998639",
"; 	c #DCC258",
"> 	c #ECD05F",
", 	c #9A873B",
"' 	c #292311",
") 	c #3D351C",
"! 	c #3C341C",
"~ 	c #3C341B",
"{ 	c #38311E",
"] 	c #352F20",
"^ 	c #241F14",
"/ 	c #4F4526",
"( 	c #706238",
"_ 	c #685D3C",
": 	c #645A3F",
"< 	c #463F2B",
"[ 	c #E1D49B",
"} 	c #F3E3A6",
"| 	c #F3E3A5",
"1 	c #9F946B",
"2 	c #65562C",
"3 	c #8D7A3F",
"4 	c #8C7840",
"5 	c #8D7942",
"6 	c #8B7841",
"7 	c #63552C",
"8 	c #F1DE97",
"9 	c #E3DAAD",
"0 	c #F7EBBA",
"a 	c #F6EAB9",
"b 	c #A19978",
"c 	c #6D5D2E",
"d 	c #998343",
"e 	c #F4E4A8",
"f 	c #E4DAAE",
"g 	c #A29978",
"h 	c #F3E4A8",
"i 	c #E2D7A5",
"j 	c #F5E7B0",
"k 	c #A09772",
"l 	c #947F42",
"m 	c #937E42",
"n 	c #695A2D",
"o 	c #F2E1A0",
"p 	c #DBC258",
"q 	c #9A873A",
"r 	c #756639",
"s 	c #75663A",
"t 	c #D8BC4D",
"u 	c #E7C952",
"v 	c #978333",
"w 	c #5E5029",
"x 	c #83713D",
"y 	c #726439",
"z 	c #6C5F3A",
"A 	c #695D3C",
"B 	c #4A4129",
"C 	c #6F6138",
"D 	c #675A37",
"E 	c #564D35",
"F 	c #61573C",
"G 	c #554C35",
"H 	c #60573D",
"I 	c #473E25",
"J 	c #655937",
"K 	c #605436",
"L 	c #5C5239",
"M 	c #5E543B",
"N 	c #423B28",
"O 	c #3B3423",
"P 	c #D6B944",
"Q 	c #E5C649",
"R 	c #96812C",
"S 	c #564C35",
"T 	c #514515",
"U 	c #574A17",
"V 	c #362E0B",
"W 	c #504832",
"X 	c #1C180E",
"Y 	c #504731",
"Z 	c #312B1D",
"` 	c #473F2B",
" .	c #50482C",
"..	c #847533",
"+.	c #847633",
"@.	c #594D1F",
"#.	c #EBCF5E",
"$.	c #EBCF5F",
"%.	c #594E1F",
"&.	c #313038",
"*.	c #35343D",
"=.	c #433D31",
"-.	c #48402C",
";.	c #3F3726",
">.	c #2E280D",
",.	c #867532",
"'.	c #35353C",
").	c #3A3A42",
"!.	c #3E3E47",
"~.	c #3D3D48",
"{.	c #50483A",
"].	c #4A422E",
"^.	c #3A3942",
"/.	c #3F3E47",
"(.	c #3E3D48",
"_.	c #393942",
":.	c #4D473C",
"<.	c #524A38",
"[.	c #524A35",
"}.	c #524A33",
"|.	c #48412D",
"1.	c #131009",
"2.	c #3E3E48",
"3.	c #3E3B36",
"4.	c #3F3927",
"5.	c #3F3B36",
"6.	c #3E3A36",
"7.	c #393943",
"8.	c #25242A",
"9.	c #28272D",
"0.	c #282521",
"a.	c #282417",
". . . . . . . . . . . . .                                                 . . . . . . . . . . . . . ",
". . . . . . . . . . . . .                                                 . . . . . . . . . . . . . ",
". . . . . . . . . . . . .                                                 . . . . . . . . . . . . . ",
". . . + @ @ @ @ @ # . . .                                                 . . . # @ @ @ @ @ + . . . ",
". . . $ % % % % % & . . . . . . . . . . . . . . . . . . . . . . . . . . . . . . & % % % % % $ . . . ",
". . . $ % % % % % & . . . . . . . . . . . . . . . . . . . . . . . . . . . . . . & % % % % % $ . . . ",
". . . $ % % % % % & . . . . . . . . . . . . . . . . . . . . . . . . . . . . . . & % % % % % $ . . . ",
". . . * = = = = = - . . . . . . . . . . . . . . . . . . . . . . . . . . . . . . - = = = = = * . . . ",
". . . ; > > > > > , . . . . . . . . . . . . . . . . . . . . . . . . . . . . . . , > > > > > ; . . . ",
". . . ; > > > > > , . . . . . . . . . . . . . . . . . . . . . . . . . . . . . . , > > > > > ; . . . ",
". . . ; > > > > > , . . ' ) ! ) ! ) ~ ) ) ! ! ! ! ! ) ) ) ! ) ) ! ) { ] ] ^ . . , > > > > > ; . . . ",
". . . ; > > > > > , . . / ( ( ( ( ( ( ( ( ( ( ( ( ( ( ( ( ( ( ( ( ( _ : : < . . , > > > > > ; . . . ",
". . . ; > > > > > , . . / ( ( ( ( ( ( ( ( ( ( ( ( ( ( ( ( ( ( ( ( ( _ : : < . . , > > > > > ; . . . ",
". . . ; > > > > > , . . / ( ( ( ( ( ( ( ( ( ( ( ( ( ( ( ( ( ( ( ( ( _ : : < . . , > > > > > ; . . . ",
". . . [ } | } } } 1 . . 2 3 3 3 3 3 3 3 3 3 3 3 3 3 3 3 3 3 3 3 3 3 4 5 6 7 . . 1 | } 8 > > ; . . . ",
". . . 9 0 a 0 0 0 b . . c d d d d d d d d d d d d d d d d d d d d d d d d c . . b 0 0 e > > ; . . . ",
". . . f a 0 0 a 0 g . . c d d d d d d d d d d d d d d d d d d d d d d d d c . . b 0 0 h > > ; . . . ",
". . . i j j j j j k . . c d d d d d d d d d d d d d d d l m m m m m m m m n . . k j j o > > ; . . . ",
". . . p > > > > > q . . c d d d d d d d d d d d d d d d r ( ( ( ( ( ( ( ( / . . q > > > > > ; . . . ",
". . . ; > > > > > , . . c d d d d d d d d d d d d d d d s ( ( ( ( ( ( ( ( / . . , > > > > > ; . . . ",
". . . ; > > > > > , . . c d d d d d d d d d d d d d d d s ( ( ( ( ( ( ( ( / . . , > > > > > ; . . . ",
". . . t u u u u u v . . w x x x x x x x x x x x x x x x y ( ( ( ( ( z A A B . . v u u u u u t . . . ",
". . . $ % % % % % & . . / ( ( ( ( ( ( ( ( ( ( ( ( ( ( ( ( ( ( ( ( ( _ : : < . . & % % % % % $ . . . ",
". . . $ % % % % % & . . / ( ( ( ( ( ( ( ( ( ( ( ( ( ( ( ( ( ( ( ( ( _ : : < . . & % % % % % $ . . . ",
". . . $ % % % % % & . . / ( ( C C C C C C C C C C C C C C C C C ( ( _ : : < . . & % % % % % $ . . . ",
". . . $ % % % % % & . . / ( ( D E E E E E E E E E E E E E E E F : : : : : < . . & % % % % % $ . . . ",
". . . $ % % % % % & . . / ( ( D G G G G G G G G G G G G G G G H : : : : : < . . & % % % % % $ . . . ",
". . . $ % % % % % & . . / ( ( D G G G G G G G G G G G G G G G H : : : : : < . . & % % % % % $ . . . ",
". . . $ % % % % % & . . I J J K G G G G G G G G G G G G G G G L M M M M M N . . & % % % % % $ . . . ",
". . . $ % % % % % & . . O G G G G G G G G G G G G G G G G G G G G G G G G O . . & % % % % % $ . . . ",
". . . $ % % % % % & . . O G G G G G G G G G G G G G G G G G G G G G G G G O . . & % % % % % $ . . . ",
". . . P Q Q Q Q Q R . . O G G G G G G G G G S S S S S S G G G G G G G G G O . . R Q Q Q Q Q P . . . ",
". . . T U U U U U V . . O G G G G G G G G W X X X X X X W G G G G G G G G O . . V U U U U U T . . . ",
". . . . . . . . . . . . O G G G G G G G G Y . . . . . . Y G G G G G G G G O . . . . . . . . . . . . ",
". . . . . . . . . . . . O G G G G G G G G Y . . . . . . Y G G G G G G G G O . . . . . . . . . . . . ",
". . . . . . . . . . . . Z ` ` ` ` ` ` ` `  ...+.+.+.+... .` ` ` ` ` ` ` ` Z . . . . . . . . . . . . ",
". . . . . . . . . . . . . . . . . . . . . @.#.$.$.$.$.#.@.. . . . . . . . . . . . . . . . . . . . . ",
". . . . . . . . . . . . . . . . . . . . . %.> > > > > > %.. . . . . . . . . . . . . . . . . . . . . ",
". . . . . . . . . . . . . . . . . . . . . @.> > > > > > @.. . . . . . . . . . . . . . . . . . . . . ",
". . . &.*.*.=.-.-.-.-.-.-.-.-.-.-.-.;.. . >.,.,.,.,.,.,.>.. . ;.-.-.-.-.-.-.-.-.-.-.-.=.*.'.&.. . . ",
". . . ).!.~.{.G G G G G G G G G G G ].. . . . . . . . . . . . ].G G G G G G G G G G G {.~.!.^.. . . ",
". . . ^./.(.{.G G G G G G G G G G G ].. . . . . . . . . . . . ].G G G G G G G G G G G {.!.(._.. . . ",
". . . _.!.(.:.<.<.[.}.}.}.}.}.}.}.}.|.1.1.1.1.1.1.1.1.1.1.1.1.|.}.}.}.}.}.}.}.}.[.<.<.:.(.(.^.. . . ",
". . . ^.(.(.2.~.~.3.4.4.4.4.4.4.4.4.4.4.4.4.4.4.4.4.4.4.4.4.4.4.4.4.4.4.4.4.4.4.3.(.~.(.2./._.. . . ",
". . . ).!.(.!.!.!.5.4.4.4.4.4.4.4.4.4.4.4.4.4.4.4.4.4.4.4.4.4.4.4.4.4.4.4.4.4.4.5.(.(.!.2.(.^.. . . ",
". . . _.(.~.(.(.(.6.4.4.4.4.4.4.4.4.4.4.4.4.4.4.4.4.4.4.4.4.4.4.4.4.4.4.4.4.4.4.3.(.~.(.(.(.7.. . . ",
". . . 8.9.9.9.9.9.0.a.a.a.a.a.a.a.a.a.a.a.a.a.a.a.a.a.a.a.a.a.a.a.a.a.a.a.a.a.a.0.9.9.9.9.9.8.. . . ",
". . . . . . . . . . . . . . . . . . . . . . . . . . . . . . . . . . . . . . . . . . . . . . . . . . ",
". . . . . . . . . . . . . . . . . . . . . . . . . . . . . . . . . . . . . . . . . . . . . . . . . . ",
". . . . . . . . . . . . . . . . . . . . . . . . . . . . . . . . . . . . . . . . . . . . . . . . . . "};
