/* XPM */
static char * ground2ng_xpm[] = {
"50 50 367 2",
"  	c #BB7F6E",
". 	c #DDA386",
"+ 	c #DFA788",
"@ 	c #D49B7D",
"# 	c #D9A182",
"$ 	c #E0A889",
"% 	c #D8A083",
"& 	c #D79E80",
"* 	c #D19A7B",
"= 	c #A56A60",
"- 	c #CF947A",
"; 	c #D49B7F",
"> 	c #D9A183",
", 	c #CD947A",
"' 	c #D39B7C",
") 	c #DBA384",
"! 	c #DDA284",
"~ 	c #D39A7C",
"{ 	c #D0987D",
"] 	c #DDA487",
"^ 	c #DAA183",
"/ 	c #B27768",
"( 	c #B67B6C",
"_ 	c #C18571",
": 	c #C18570",
"< 	c #A46B62",
"[ 	c #C89076",
"} 	c #D79F81",
"| 	c #D69E7F",
"1 	c #D49C7D",
"2 	c #CD9576",
"3 	c #D9A083",
"4 	c #D49C80",
"5 	c #DDA486",
"6 	c #BB7F6D",
"7 	c #DDA385",
"8 	c #DEA687",
"9 	c #CF9479",
"0 	c #CE957B",
"a 	c #DBA386",
"b 	c #D3997C",
"c 	c #D2977D",
"d 	c #B17868",
"e 	c #BD836E",
"f 	c #DEA485",
"g 	c #D79E82",
"h 	c #D69C7F",
"i 	c #DFA686",
"j 	c #D2997C",
"k 	c #DFA588",
"l 	c #CE9477",
"m 	c #DFA688",
"n 	c #D59B7F",
"o 	c #A86E61",
"p 	c #C98F74",
"q 	c #D29A7B",
"r 	c #DBA385",
"s 	c #D49B7E",
"t 	c #CD9478",
"u 	c #D99F84",
"v 	c #BA7E6C",
"w 	c #D9A082",
"x 	c #D49C7E",
"y 	c #CF9678",
"z 	c #D79F80",
"A 	c #D69D7F",
"B 	c #DBA286",
"C 	c #D39A7D",
"D 	c #D1977D",
"E 	c #DDA587",
"F 	c #D9A184",
"G 	c #DFA586",
"H 	c #D89F82",
"I 	c #E0A887",
"J 	c #D29A7C",
"K 	c #E0A789",
"L 	c #CD9477",
"M 	c #D49C7F",
"N 	c #A86F62",
"O 	c #CA8F74",
"P 	c #CD9578",
"Q 	c #DDA586",
"R 	c #BA7E6B",
"S 	c #DEA486",
"T 	c #DAA184",
"U 	c #CF9679",
"V 	c #CE9677",
"W 	c #D1997A",
"X 	c #D29A7D",
"Y 	c #D1987C",
"Z 	c #B17969",
"` 	c #BE836E",
" .	c #E0A686",
"..	c #D69E80",
"+.	c #D29A7E",
"@.	c #A86F63",
"#.	c #C99076",
"$.	c #DFA789",
"%.	c #DBA484",
"&.	c #CE9579",
"*.	c #E0A88A",
"=.	c #DAA283",
"-.	c #B97F6B",
";.	c #D1997C",
">.	c #A56A61",
",.	c #D1987B",
"'.	c #D0987A",
").	c #DCA486",
"!.	c #B27869",
"~.	c #BC836E",
"{.	c #DEA686",
"].	c #D39B7D",
"^.	c #E0A888",
"/.	c #E0A788",
"(.	c #D59B80",
"_.	c #A96F63",
":.	c #D89F83",
"<.	c #D1987A",
"[.	c #D8A082",
"}.	c #B37869",
"|.	c #BD846E",
"1.	c #CE9577",
"2.	c #D69B80",
"3.	c #D8A081",
"4.	c #DAA284",
"5.	c #D39C7D",
"6.	c #DCA385",
"7.	c #CF967A",
"8.	c #DEA688",
"9.	c #D99F81",
"0.	c #D79E7F",
"a.	c #CE9678",
"b.	c #D9A084",
"c.	c #CE957A",
"d.	c #DFA888",
"e.	c #D79E81",
"f.	c #E0A787",
"g.	c #DCA485",
"h.	c #D0987B",
"i.	c #D89F81",
"j.	c #D2997B",
"k.	c #A46A60",
"l.	c #D1997B",
"m.	c #DBA186",
"n.	c #D3997D",
"o.	c #B37868",
"p.	c #C99075",
"q.	c #D7A081",
"r.	c #CE9578",
"s.	c #CF9779",
"t.	c #CE9778",
"u.	c #D49A7C",
"v.	c #D3997B",
"w.	c #A46B60",
"x.	c #DDA186",
"y.	c #B37967",
"z.	c #BD846F",
"A.	c #D69D80",
"B.	c #D59D80",
"C.	c #D49A7D",
"D.	c #D3987C",
"E.	c #A46B61",
"F.	c #BD836F",
"G.	c #A86F64",
"H.	c #C88E75",
"I.	c #CC9377",
"J.	c #D79E83",
"K.	c #D79F83",
"L.	c #CF977A",
"M.	c #D59D7E",
"N.	c #D2987B",
"O.	c #AF7365",
"P.	c #AF7465",
"Q.	c #AF7567",
"R.	c #AE7565",
"S.	c #AF7665",
"T.	c #AE7564",
"U.	c #AF7664",
"V.	c #DBA284",
"W.	c #D8A080",
"X.	c #CE9679",
"Y.	c #BE8270",
"Z.	c #C18672",
"`.	c #C28672",
" +	c #C28571",
".+	c #C28670",
"++	c #C28572",
"@+	c #DEA689",
"#+	c #DBA383",
"$+	c #DCA284",
"%+	c #D69E81",
"&+	c #C98F76",
"*+	c #DBA283",
"=+	c #DBA185",
"-+	c #D3997F",
";+	c #D1977B",
">+	c #D59B7D",
",+	c #D8A084",
"'+	c #B37867",
")+	c #C98F77",
"!+	c #D39A7F",
"~+	c #D9A283",
"{+	c #CF9778",
"]+	c #D1997D",
"^+	c #BD8470",
"/+	c #E0A78A",
"(+	c #D39B7F",
"_+	c #CF977B",
":+	c #DCA386",
"<+	c #D0977A",
"[+	c #CA8F75",
"}+	c #BA7F6B",
"|+	c #D0977B",
"1+	c #CD9476",
"2+	c #D2977B",
"3+	c #D09879",
"4+	c #DBA183",
"5+	c #CE9379",
"6+	c #DAA185",
"7+	c #D69B7E",
"8+	c #C99074",
"9+	c #D39B7E",
"0+	c #D89E83",
"a+	c #CD937A",
"b+	c #CD9577",
"c+	c #DCA586",
"d+	c #D59C7F",
"e+	c #DCA384",
"f+	c #D99E83",
"g+	c #D79D80",
"h+	c #D69C80",
"i+	c #CD9479",
"j+	c #CA9173",
"k+	c #D79F82",
"l+	c #D3987D",
"m+	c #A46A61",
"n+	c #E1A787",
"o+	c #CE9377",
"p+	c #D69B7F",
"q+	c #D09779",
"r+	c #D69B7D",
"s+	c #D69D7E",
"t+	c #CF957A",
"u+	c #D79E7E",
"v+	c #D59B7E",
"w+	c #D09678",
"x+	c #CF9879",
"y+	c #D1987D",
"z+	c #DFA787",
"A+	c #DAA285",
"B+	c #D2997D",
"C+	c #DCA484",
"D+	c #D2987D",
"E+	c #D59C7E",
"F+	c #D1977A",
"G+	c #D3987A",
"H+	c #D0967A",
"I+	c #D49D7E",
"J+	c #DAA182",
"K+	c #CE9476",
"L+	c #D0957B",
"M+	c #DEA587",
"N+	c #D0987C",
"O+	c #D0997A",
"P+	c #D0957A",
"Q+	c #B27867",
"R+	c #BC836F",
"S+	c #D49B7C",
"T+	c #A66B61",
"U+	c #BB826F",
"V+	c #D59D7F",
"W+	c #CE9479",
"X+	c #E2A789",
"Y+	c #CF9478",
"Z+	c #DDA485",
"`+	c #E1A88A",
" @	c #A56B60",
".@	c #C98E76",
"+@	c #CC9177",
"@@	c #CD9277",
"#@	c #CC9277",
"$@	c #CD9278",
"%@	c #CC9076",
"&@	c #CC9278",
"*@	c #D49B80",
"=@	c #E1A78A",
"-@	c #D2987C",
";@	c #A26760",
">@	c #A76B60",
",@	c #A76C61",
"'@	c #A66C61",
")@	c #A56C61",
"!@	c #A66B60",
"~@	c #9F665C",
"{@	c #A56B61",
"]@	c #CB9177",
"^@	c #CB9276",
"/@	c #D4997C",
"(@	c #CA9176",
"_@	c #D2997E",
":@	c #D2977C",
"<@	c #D1967B",
"[@	c #BC846E",
"}@	c #D39B7B",
"|@	c #D09479",
"1@	c #DBA182",
"2@	c #A96F64",
"3@	c #CA9074",
"4@	c #D2987A",
"5@	c #D59C80",
"6@	c #D0967B",
"7@	c #B27968",
"8@	c #BC846F",
"9@	c #D39A7E",
"0@	c #DBA285",
"a@	c #B27A69",
"b@	c #D0987E",
"c@	c #D69C7E",
"d@	c #B37968",
"e@	c #D1977C",
"f@	c #B47968",
"g@	c #A36B61",
"h@	c #A76F64",
"i@	c #BA806C",
"j@	c #CF9578",
"k@	c #D3987B",
"l@	c #DDA588",
"m@	c #D59D81",
"n@	c #D29B7C",
"o@	c #DDA585",
"p@	c #DAA282",
"q@	c #DAA384",
"r@	c #DAA383",
"s@	c #A76F63",
"t@	c #CE9676",
"u@	c #D9A181",
"v@	c #DDA285",
"w@	c #CB9074",
"x@	c #D39A7B",
"y@	c #D29779",
"z@	c #DDA286",
"A@	c #B57B6C",
"B@	c #C48A72",
"C@	c #C58972",
"D@	c #C48871",
"E@	c #C68A72",
"F@	c #C58A72",
"G@	c #C48971",
"H@	c #C38871",
"I@	c #C48972",
"J@	c #A36860",
"K@	c #A76C62",
"L@	c #AE7568",
"M@	c #AF7669",
"N@	c #AE7468",
"O@	c #AE7569",
"P@	c #AF7569",
"Q@	c #AC7568",
"R@	c #A1665E",
"S@	c #DBA287",
"T@	c #D0977C",
"U@	c #DCA487",
"V@	c #BC836D",
"W@	c #A96F62",
"X@	c #D69D81",
"Y@	c #DFA78A",
"Z@	c #DCA387",
"  . + @ # $ % & $ $ $ * = - ; > , $ ' ) ! ~ { ] ^ / ( _ : : : : : _ : _ : < [ } | $ ) 1 $ 2 3 4 $ 5 ",
"6 7 8 1 & + % & + 5 $ * = 9 1 ^ 0 $ ' ) a b c ] > d e f g h i ^ j k l m n o p m q ) r s $ t u 4 $ 5 ",
"v 7 w x y 8 % & + 2 $ * = - s > ; > z A B C D E F d e G H | I ) J K L $ M N O K q ) a s $ P B ; Q 5 ",
"R S T 4 U 8 % & + V $ * = - ; ^ Q W + V B X Y E T Z `  .% ..$ r +.$ , $ 4 @.#.$.q %.a s $ &.*.1 =.5 ",
"-.Q =.M 5 + % & + V $ ;.>.- s ^ Q ,.$ V B J '.).T !.~.{.% & $ =.].^.t /.(._.O + q ) ) @ + V $ x =.5 ",
"-.Q =.x ) + :.& ) <.).;.>.- 1 ^ Q Y $ V B J s [.3 }.|.{.[.& + 1.+ $ t /.2._.O Q J 3.4.5.6.W $ ; 4.5 ",
"-.Q =.x 7.8.9.0.a.a ].* = - 1 ^ Q Y $ V B X + , b.}.|.{.3.| $.c.$ d.e.f.n @.#.} A V g.> h.Q K n 4.5 ",
"-.Q =.x 7.8 i...a.) ~ j.k.- s ^ Q l.+ 1.m.n.+ c.3 o.|.{.Q Q + &.[.4.8.@ n @.p.q.A r.+ $ <.Q K ; 4.5 ",
"-.Q =.x s.8 % ..t.) u.v.w.c.M ^ Q W 1 # x.b + , 3 y.z.8 8 8 + a.A.:.8 U n @.p.} B.&.+ + '.Q $ x =.5 ",
"-.Q =.x s.8 :...a.) C.D.E.c.M ^ Q W C a g.' ).t ^ y.F.8 3.| $.c.A.i.{.7.n G.H.+.Y I.J.K.&.B...L.C M ",
"-.Q =.x 7.8 ).s M.r C N.w.c.M ^ Q W ~ r $ | i.t 3 y.F.8 i...+ &.r g.{.7.n G.O.P.Q.Q.R.S.S.R.T.U.U.Q.",
"-.Q =.x 7.8.$ J V.).].l.w.c.M ^ Q W ' ) $ ..W.&.3 y.F.8.:...+ X.i.# {.7.n N Y.Z.Z.`. +.+.+.+ +++`.`.",
"-.Q > 1 U @+$ X #+g.~ N.w.c.M ^ Q W u.$+$ %+% c.^ y.z.8 # 3.+ X.A.:.{.U (.N &+8.j.*+=+-+;+7 w >+m 6.",
"-.g.M.3.s.8.$ ].) g.~ N.w.c.M ^ Q W ~ $+$ %+,+&.^ '+z.8 $ $ + X.A H {.U s N )+$ q ) r !+;.Q ~+M.$ 5 ",
"-.) {++ y 8 $ C #+g.].]+E.c.M ^ Q W ' ) $ %+,+&.^ }.^+8 $ $ + X.A i.8.7.].N &+/+J ) r (+Y Q ~+M.$ 5 ",
"-.V.{++ _+8.+ ~ ) :+C N.w.c.M ^ r q C r $ ..[.r.^ }.^+8 # z + X.8 + 8 <+; @.[+K J ) r !+Y Q ~+M.$ 5 ",
"}+V.{++ |+8.} | + H & N.w.c.M ^ 1+$ C r $ ..[.r.^ }.^+8 3...+ r.$ $ $ + ; G.O K ~ g.r !+2+Q ~+M.$ 5 ",
"}+V.3+$ <+8 :...+ 1.$ l.w.c.M 4+5+$ # 1 + ..[.c.6+}.^+8 3.| | & $ + ../.7+@.8+K C ).r 9+<.Q > M.$ 5 ",
"-.) 3+$ <+8.0+A.+ V $ l.k.- ; ^ a+$ $ V + ..[.c.6+}.^+8 3...b++ [.# t /.7+@.8+$ ~ g.) J '.c+# d+$ 5 ",
"-.e+3+$ <+m f+g++ V $ l.= - h+4.i+$ $ V + ..[.c.T }.^+8 3...P + ..z i+K 7+@.8+$ ~ g.$ | z Q j+; E 5 ",
"-.e+3+$ <+8 k+..+ 1.K l+m+c.+ n+o++ $ V + ..[.&.T '+z.8 3.| b++ %+g t /.p+G.8+$ ~ g.$ ..:.8 q+r+^ 5 ",
"-.) 3+$ <+Q ; 6.s+M.i.l+E.t++ u+A.%+^.V + | 3.P 3 o.z.8 3...b++ %+g 3 /.2.G.8+$ ~ g.$ ..g 8 y v+=.5 ",
"}+V.3+$ <+g.Y K w+) C l+E.t++ x+r y+^.V + A z 6.^ }.^+8 3...P + %+g j /.2.G.8+$ ~ g.$ %+g 8 a.(+=.5 ",
"}+V.3+$ <+g.Y $.a.) C l+E.t++ {+) ,.z+V A+B+|+).^ '+z.Q | 3.b++ ..z A+/.2.G.8+$ ~ g.$ %+g 8 y >+=.5 ",
"-.) 3+$ <+C+,.K a.) C D+E.t+=.1 E+M 4.a.A+X ,.g.^ '+z.) F+/.b++ ..z t /.2.G.8+K ~ r $ ..e.8 a.@ =.5 ",
"-.e+3++ L.e+G+K X.A+X ]+E.H+I+J+K+% %+X.6+].W Q T }.^+r 2+K P + ..} t /.2.G.8++ q ) $ A.z + 4.; =.5 ",
"-.e+3+B.i.Q <.K q+:.s l.k.L+M.> L 3.| M+B X Q + ^ '+z.r N+/.b++ ..} t /.2.G.8+3.M.V + 8.;.Q + @ =.5 ",
"-.) q+; # Q W $ + P *.O+= P+1 > L 3.| $ r J + $ > Q+R+4.N++ b++ B.z t /.2.G.8+} A 1+$ *.Y Q + S+=.5 ",
"}+V.q+2.> Q W $ + V $ l.T+9 1 w 2 } | $ 4.~ + + 3 / U+4.h.3.x V+..3.W+X+2.G.8+} g+Y+$ *.Y Q Z+r+5 5 ",
"}+V.q+E+# Q W $ + V `+l. @.@+@@@O @@#@W+$@%@9 W+&@d U+4.;+j.) t B.z 6.K *@G.8+} A l $ *.Y Q > >+K 5 ",
"}+V.3+x # Q W $ + V =@-@;@>@,@T+'@'@)@)@T+'@T+)@!@~@R+) c ~ ) c.A.z + $ 4 G.8+} A 1.$ $ h.Q ~+x $ 5 ",
"}+V.q+2.> Q W $ + t $.l.{@]@J ^@;.~ ~ /@(@_@I.:@<@y.[@r ,.}@) |@1@x 8 $ 4 2@3@i.A.r.$ K 4@Q ~+x $ 5 ",
"}+V.q+5@> Q W + + L K l.T+6@/.q+8 $ H . 1.$ ,.5 T 7@8@Q =.' ) 9 f.N+).K ; G.3@i.A 1.$ K <.Q ~+x $ 5 ",
"}+V.'.4 > {+| z + 2 /.N.T+6@K q+8 $ 9@0@1.^.,.5 T a@R+8 $ ' ) &.K b@r N.n G.8+} A b+$ $ ,.Q ~+x $ 5 ",
"}+g./.c@> P H ..+ b++ l.k.P+K q+8 $ 9@0@' $ y+Q T d@8@8 $ ' ) &./.:@) U n G.8+} g+Y+$ $ <.Q ~+x $ 5 ",
"}+g.K E+> r.[...+ x ^ N.= P+$ q+8 $ C r $ $ N+c+T d@z.8 + q =.&./.e@) 7.n G.8+} A l $ $ '.Q ~+x $ 5 ",
"}+g.+ x # 1.3.| $ ) C.l+>.P+$ q+8 $ C *+' + 6.+ T f@z.g.x q =.&.^.a Q 7.n G.8+} A 1.$ # M.+ > x $ 5 ",
"}+) <.p+> 1.[...$ ) C.l+g@t+$ l.8 8 1 ) T 9@J Q T f@z.) 3+q =.9 /.*.8 t+; h@8+3.M.{++ ..[.$ =.>++ 5 ",
"i@e+q+n > 1.[...$ ) C.l+g@t+$ $ g.'.$ + A++.l.Q T f@z.) 3+q T 9 f.*.8 t+s h@8++ ' ) $ ..[.$ K >+=.5 ",
"i@e+3+E+F r.3.| $ ) C.l+>.P+$ $ 1 =.$ A T +.'.Q T f@z.) 3+j 6+&.I ^.{.j@>+@.8+$ ' =.+ ..3.^.$ M =.5 ",
"i@e+3+M.% r.3.| + r C.k@= P+$ ^.L $ $ 1.T +.).+ T f@z.) 3+q T &.I ^.+ :+7+@.8+$ ' =.$ ..[.$ $ M 4.5 ",
"i@e+x++ <+l@$.q #+a C k@= P+^.I t $ $ b+0@m@$ $ T f@z.) q+q =.&.I $ $ K 2.G.8++ n@=.+ ..% $ $ M 4.5 ",
"i@g.| $ 3+8 $ 3.M.) ~ l.= P+) E , $ $ V+Q F F 8 T d@z.o@z ' ) ].p@+ i.K 2.G.8+g.].g.3.A i.3.$ M 4.5 ",
"-.Q + + 7.E $ $ {+q@~ N.= P+1 # , $ $ $ r J <.Q T d@F.8 ^.J ) r X + L /+; @.8+} | + &...3.2 $ ; 4.5 ",
"}+Q =.M._+8.$ $ {+r@C D.>.P+I+p@c.$ $ $ a J <.Q T d@F.8 $ J ) a X 8 X.*.M s@8+} | $.c...i.2 K n 4.5 ",
"}+Q > s <+8 $ $ {+A+C l.= P+I+p@c.$ g.8 ! b ;+Q T d@F.8 $ J ) ) J y+).$ 4 @.3@i.| =.;.M.=.t@$ M 4.5 ",
"}+Q > @ H z+$ $ } A+~ N.= P+1 u@i+$ ' ) v@/@<.Q T d@F.8 $ J ) Q # y+E $ M _.w@i.| 1.=.].+ V $ M 4.5 ",
"-.Z+# @ + + + + + V.x@y@= P+I+u@i+$ ' ) z@n.<.Q T d@z.8 $ J ) $ $ y+E $ M 2@w@i...&.) ' $ V $ M 4.5 ",
"A@B@C@D@E@F@C@C@C@G@H@I@J@P+I+u@i+$ ' ) B B+,.Q T f@z.{.+ q ) $ ^.N+] ^.1 _.w@i...&.) x $ V $ M =.5 ",
"K@L@M@N@N@O@P@P@M@M@L@Q@R@t+M [.t $.X A+S@_@T@U@6+d@V@M...V ' ..| t M | {+W@O k+X@&.Y@/+Y@r.l@4 Z@U@"};
