/* XPM */
static char * chest_xpm[] = {
"49 49 399 2",
"  	c #453D32",
". 	c #443C31",
"+ 	c #413B2F",
"@ 	c #373229",
"# 	c #322E25",
"$ 	c #534431",
"% 	c #634C2E",
"& 	c #624B2E",
"* 	c #60482C",
"= 	c #5F482C",
"- 	c #5A472C",
"; 	c #5A462C",
"> 	c #5A462B",
", 	c #5B462C",
"' 	c #5B472C",
") 	c #5F492C",
"! 	c #60492C",
"~ 	c #604A2C",
"{ 	c #5D482C",
"] 	c #5C482C",
"^ 	c #453927",
"/ 	c #312D24",
"( 	c #7B5B30",
"_ 	c #AA792D",
": 	c #A8762C",
"< 	c #A16B23",
"[ 	c #A06B22",
"} 	c #8F691E",
"| 	c #A07025",
"1 	c #A37226",
"2 	c #9A6D22",
"3 	c #956C21",
"4 	c #684E27",
"5 	c #2C281E",
"6 	c #A8772C",
"7 	c #9F6B22",
"8 	c #9A6D23",
"9 	c #956C22",
"0 	c #684E26",
"a 	c #8F681D",
"b 	c #8F691F",
"c 	c #996D22",
"d 	c #A5762A",
"e 	c #91691E",
"f 	c #8A5F20",
"g 	c #845C1E",
"h 	c #906523",
"i 	c #A47328",
"j 	c #A26F26",
"k 	c #A36E25",
"l 	c #8A5F21",
"m 	c #916624",
"n 	c #A47327",
"o 	c #A5752B",
"p 	c #845C20",
"q 	c #906624",
"r 	c #A57328",
"s 	c #A37227",
"t 	c #AA782D",
"u 	c #77552E",
"v 	c #A46F27",
"w 	c #A26E26",
"x 	c #9C6A22",
"y 	c #9B6922",
"z 	c #905F1D",
"A 	c #905E1D",
"B 	c #B5A99F",
"C 	c #BCB6AF",
"D 	c #ABA39C",
"E 	c #9D948D",
"F 	c #9B8878",
"G 	c #936320",
"H 	c #A26E25",
"I 	c #A26D25",
"J 	c #A16C24",
"K 	c #A26C24",
"L 	c #644924",
"M 	c #75532D",
"N 	c #9F6923",
"O 	c #895919",
"P 	c #C2BDBA",
"Q 	c #CDCDCD",
"R 	c #B7B6B6",
"S 	c #A7A4A5",
"T 	c #9F938C",
"U 	c #624722",
"V 	c #624723",
"W 	c #6E512D",
"X 	c #956625",
"Y 	c #956624",
"Z 	c #9A6824",
"` 	c #9E6923",
" .	c #835820",
"..	c #83581F",
"+.	c #BEB9B6",
"@.	c #C9C9C9",
"#.	c #AFAEAE",
"$.	c #9B999A",
"%.	c #928982",
"&.	c #765018",
"*.	c #9A6A21",
"=.	c #9B6923",
"-.	c #9C6824",
";.	c #9C6823",
">.	c #9B6925",
",.	c #9A6927",
"'.	c #5F4624",
").	c #614C2D",
"!.	c #7E5E22",
"~.	c #8D6322",
"{.	c #9D6923",
"].	c #775925",
"^.	c #785825",
"/.	c #B6B4B0",
"(.	c #C2C2C2",
"_.	c #A1A1A1",
":.	c #868686",
"<.	c #7A7672",
"[.	c #543E15",
"}.	c #8F681E",
"|.	c #936522",
"1.	c #936423",
"2.	c #916527",
"3.	c #90662A",
"4.	c #5A4424",
"5.	c #8D6422",
"6.	c #B7B4B0",
"7.	c #5C492D",
"8.	c #745723",
"9.	c #755723",
"0.	c #825C24",
"a.	c #936223",
"b.	c #936324",
"c.	c #906124",
"d.	c #6E5125",
"e.	c #6F5024",
"f.	c #B1AEAB",
"g.	c #BDBCBD",
"h.	c #9E9D9D",
"i.	c #838383",
"j.	c #777470",
"k.	c #4E3A16",
"l.	c #84601F",
"m.	c #846020",
"n.	c #865E23",
"o.	c #875D23",
"p.	c #855E27",
"q.	c #855F2A",
"r.	c #845F2A",
"s.	c #544023",
"t.	c #40382E",
"u.	c #373026",
"v.	c #372F25",
"w.	c #989596",
"x.	c #8C8B8B",
"y.	c #767676",
"z.	c #676766",
"A.	c #302A20",
"B.	c #372F26",
"C.	c #5A4831",
"D.	c #71562E",
"E.	c #70562E",
"F.	c #6F542E",
"G.	c #5C4526",
"H.	c #8B8887",
"I.	c #949394",
"J.	c #6A6865",
"K.	c #42331B",
"L.	c #715128",
"M.	c #705128",
"N.	c #705129",
"O.	c #70552D",
"P.	c #4A3B25",
"Q.	c #5D4A31",
"R.	c #775A30",
"S.	c #75582F",
"T.	c #614927",
"U.	c #898684",
"V.	c #919191",
"W.	c #828282",
"X.	c #45351B",
"Y.	c #765428",
"Z.	c #755429",
"`.	c #77582E",
" +	c #4D3E26",
".+	c #76582F",
"++	c #614928",
"@+	c #919190",
"#+	c #828281",
"$+	c #6A6864",
"%+	c #77592F",
"&+	c #674E2F",
"*+	c #896028",
"=+	c #886028",
"-+	c #855E29",
";+	c #865E29",
">+	c #835D28",
",+	c #6D4C21",
"'+	c #766558",
")+	c #786A60",
"!+	c #706157",
"~+	c #6B5B50",
"{+	c #6A5644",
"]+	c #67461B",
"^+	c #855C26",
"/+	c #855E28",
"(+	c #7F5B2A",
"_+	c #513E24",
":+	c #6D502D",
"<+	c #926423",
"[+	c #8E6126",
"}+	c #8C6026",
"|+	c #734F1D",
"1+	c #654518",
"2+	c #614216",
"3+	c #684718",
"4+	c #78501C",
"5+	c #835C26",
"6+	c #835C27",
"7+	c #533E23",
"8+	c #6D4F2D",
"9+	c #926424",
"0+	c #73542E",
"a+	c #9D6D28",
"b+	c #9C6D28",
"c+	c #9B6B2A",
"d+	c #996928",
"e+	c #986625",
"f+	c #966625",
"g+	c #7F5B1E",
"h+	c #7F5B1F",
"i+	c #835C23",
"j+	c #845D24",
"k+	c #835D24",
"l+	c #855E23",
"m+	c #8B5F22",
"n+	c #8B6022",
"o+	c #976827",
"p+	c #996A29",
"q+	c #8B632A",
"r+	c #584225",
"s+	c #A97528",
"t+	c #A76E1F",
"u+	c #A56E20",
"v+	c #A8772B",
"w+	c #A6762A",
"x+	c #956B2D",
"y+	c #956C2E",
"z+	c #5D4726",
"A+	c #A56E1F",
"B+	c #795A30",
"C+	c #A8782C",
"D+	c #A87528",
"E+	c #A76F21",
"F+	c #A56E21",
"G+	c #91691F",
"H+	c #92691F",
"I+	c #A9792D",
"J+	c #A9782C",
"K+	c #A17125",
"L+	c #A17126",
"M+	c #A27126",
"N+	c #A47226",
"O+	c #A67529",
"P+	c #936B2C",
"Q+	c #936C2D",
"R+	c #6B522B",
"S+	c #9B7025",
"T+	c #986D22",
"U+	c #A26D20",
"V+	c #A97327",
"W+	c #7F5F21",
"X+	c #524122",
"Y+	c #6A522B",
"Z+	c #A16D20",
"`+	c #A87327",
" @	c #986D21",
".@	c #7F5E22",
"+@	c #514122",
"@@	c #74562D",
"#@	c #9F7024",
"$@	c #A37428",
"%@	c #A7772B",
"&@	c #936B20",
"*@	c #916A1F",
"=@	c #A8762B",
"-@	c #A9772B",
";@	c #9F7025",
">@	c #8D6428",
",@	c #594324",
"'@	c #76572E",
")@	c #A7762A",
"!@	c #90691E",
"~@	c #76552D",
"{@	c #A26E24",
"]@	c #A36E24",
"^@	c #A56F23",
"/@	c #A57023",
"(@	c #A57026",
"_@	c #A57027",
":@	c #A47026",
"<@	c #9D6B20",
"[@	c #9E6C1F",
"}@	c #9E6C20",
"|@	c #A87226",
"1@	c #A87225",
"2@	c #A67126",
"3@	c #8F6327",
"4@	c #8E6328",
"5@	c #5A4223",
"6@	c #A26C23",
"7@	c #A36C22",
"8@	c #A66D20",
"9@	c #8F6125",
"0@	c #5A4123",
"a@	c #A36D22",
"b@	c #5A4122",
"c@	c #A46F26",
"d@	c #A46E26",
"e@	c #A87124",
"f@	c #A87224",
"g@	c #A36E26",
"h@	c #A16D24",
"i@	c #9C6A21",
"j@	c #9D6B22",
"k@	c #A36F26",
"l@	c #A16D21",
"m@	c #A16C20",
"n@	c #A26D23",
"o@	c #A26C22",
"p@	c #906428",
"q@	c #5B4324",
"r@	c #A07328",
"s@	c #926A20",
"t@	c #9D7025",
"u@	c #AA792E",
"v@	c #AA772B",
"w@	c #A76E20",
"x@	c #966C2D",
"y@	c #926B20",
"z@	c #9C7125",
"A@	c #9C7026",
"B@	c #A66E20",
"C@	c #956B2E",
"D@	c #946A1F",
"E@	c #9F7328",
"F@	c #524022",
"G@	c #A9772C",
"H@	c #6D5330",
"I@	c #946B2B",
"J@	c #926929",
"K@	c #896120",
"L@	c #896121",
"M@	c #896323",
"N@	c #896424",
"O@	c #906828",
"P@	c #996E2E",
"Q@	c #996E2D",
"R@	c #886324",
"S@	c #836121",
"T@	c #916929",
"U@	c #896423",
"V@	c #8E6627",
"W@	c #8F6728",
"X@	c #82612B",
"Y@	c #82612C",
"Z@	c #534126",
"`@	c #6E5431",
" #	c #916A2C",
".#	c #886427",
"+#	c #836126",
"@#	c #8C672A",
"##	c #8D6529",
"$#	c #92682C",
"%#	c #83622D",
"&#	c #83622E",
"*#	c #544227",
"=#	c #836125",
"-#	c #373128",
";#	c #534028",
">#	c #6E5128",
",#	c #6E5229",
"'#	c #6C5027",
")#	c #604721",
"!#	c #5F4720",
"~#	c #664C24",
"{#	c #6E5228",
"]#	c #634922",
"^#	c #5F4721",
"/#	c #684D25",
"(#	c #604820",
"_#	c #674C25",
":#	c #6B5027",
"<#	c #624928",
"[#	c #624A28",
"}#	c #403320",
"|#	c #27231B",
"1#	c #211E19",
"2#	c #211E18",
"  . + + + + + + + + + + + + + + + + + + + + + + + + + + + + + + + + + + + + + + + + + + + + + @ # ",
"  $ % % & * * * * * * * * * * * * = - ; > ; ; - ; , ' > ; ; - ; ; > ) ! ~ { ; ; ] % % % % % % ^ / ",
"  ( _ _ : < < < < < < < < < < < < [ } } } } } } } } } } } } } } } } | 1 1 2 } } 3 _ _ _ _ _ _ 4 5 ",
"  ( _ _ 6 < < < < < < < < < < < < 7 } } } } } } } } } } } } } } } } | 1 1 8 } } 9 _ _ _ _ _ _ 0 5 ",
"  ( _ _ 6 < < < < < < < < < < < < [ a } } } b b b b b } } } } } } } | 1 1 c } } 3 _ _ _ _ _ _ 4 5 ",
"  ( _ _ d } } } } } } } } } } } } e < < < f g g g g g h _ _ _ _ _ _ i 1 1 j < < k _ _ _ _ _ _ 4 5 ",
"  ( _ _ d } } } } } } } } } } } } e < < < l g g g g g m _ _ _ _ _ _ n 1 1 j < < k _ _ _ _ _ _ 4 5 ",
"  ( _ _ o } } } } } } } } } } } } e < < < l p p p p p q _ _ _ _ _ _ r 1 s j < < k t _ _ _ _ _ 4 5 ",
"  u v v w x x x x x x x x x x x x y z A A B C C D E E F G G G v v v H I I J < < K v v v v v v L 5 ",
"  M < < < < < < < < < < < < < < < N O O O P Q Q R S S T O O O < < < < < < < < < < < < < < < < U 5 ",
"  M < < < < < < < < < < < < < < < N O O O P Q Q R S S T O O O < < < < < < < < < < < < < < < < V 5 ",
"  W X Y Y X Y Y X X Y Y X Y Z < < `  .....+.@.@.#.$.$.%.&.&.&.*.*.*.=.-.;.>.,.,.,.,.,.,.,.,.,.'.5 ",
"  ).!.!.!.!.!.!.!.!.!.!.!.!.~.< < {.].].^./.(.(._.:.:.<.[.[.[.}.} } |.1.1.2.3.3.3.3.3.3.3.3.3.4.5 ",
"  ).!.!.!.!.!.!.!.!.!.!.!.!.5.< < {.].].^.6.(.(._.:.:.<.[.[.[.}.} } |.1.1.2.3.3.3.3.3.3.3.3.3.4.5 ",
"  7.8.8.8.8.8.8.8.8.8.8.9.8.0.a.b.c.d.d.e.f.g.g.h.i.i.j.k.k.k.l.m.m.n.o.o.p.q.q.q.r.r.r.r.q.r.s.5 ",
"  t.u.u.u.u.u.u.u.u.u.u.u.u.u.u.u.v.5 5 5 w.S S x.y.y.z.5 5 5 u.u.u.u.u.u.u.u.u.u.u.u.u.u.u.u.A.5 ",
"  t.u.u.u.u.u.u.u.u.u.u.u.u.u.u.u.B.5 5 5 w.S S x.y.y.z.5 5 5 u.u.u.u.u.u.u.u.u.u.u.u.u.u.u.u.A.5 ",
"  t.u.u.u.u.u.u.u.u.u.u.u.u.u.u.u.B.5 5 5 w.S S x.y.y.z.5 5 5 u.u.u.u.u.u.u.u.u.u.u.u.u.u.u.u.A.5 ",
"  C.D.D.D.E.D.D.D.D.D.D.D.D.D.E.D.F.G.G.G.H.I.I.i.y.y.J.K.K.K.L.M.N.O.E.D.D.D.D.D.D.D.D.E.D.D.P.5 ",
"  Q.R.R.R.R.R.R.R.R.R.R.R.R.R.R.R.S.T.T.T.U.V.V.W.y.y.J.X.X.X.Y.Z.Z.`.R.R.R.R.R.R.R.R.R.R.R.R. +5 ",
"  Q.R.R.R.R.R.R.R.R.R.R.R.R.R.R.R..+++T.T.U.@+@+#+y.y.$+X.X.X.Y.Z.Z.%+R.R.R.R.R.R.R.R.R.R.R.R. +5 ",
"  &+*+*+=+-+-+-+-+-+;+-+-+-+-+-+-+>+,+,+,+'+)+)+!+~+~+{+]+]+]+^+^+^+/+-+-+-+-+-+-+-+-+-+(+(+(+_+5 ",
"  :+1.1.<+[+[+[+[+[+[+[+[+[+[+[+[+}+|+|+|+1+2+2+2+2+2+3+4+4+4+[+[+[+[+[+[+[+[+[+[+[+[+[+5+5+6+7+5 ",
"  8+1.1.9+[+[+[+[+[+[+[+[+[+[+[+[+}+|+|+|+1+2+2+2+2+2+3+4+4+4+[+[+[+[+[+[+[+[+[+[+[+[+[+6+5+6+7+5 ",
"  0+a+a+b+c+c+c+c+c+c+c+c+c+d+e+e+f+g+h+g+i+j+j+j+j+k+l+m+m+n+o+o+o+o+o+o+p+c+c+c+c+c+c+q+q+q+r+5 ",
"  ( _ _ _ _ _ _ _ _ _ _ _ _ s+t+t+u+} } } d _ _ _ _ _ v+1 1 1 1 1 1 1 1 1 w+_ _ _ _ _ _ x+y+y+z+5 ",
"  ( _ _ _ _ _ _ _ _ _ _ _ _ s+t+t+A+b } } d _ _ _ _ _ v+1 1 1 1 1 1 1 1 1 w+_ _ _ _ _ _ x+y+y+z+5 ",
"  B+C+C+C+C+C+C+C+C+C+C+C+C+D+E+E+F+G+H+G+d I+I+J+C+C+w+K+L+K+K+M+K+1 N+N+O+_ _ _ C+C+C+P+Q+Q+z+5 ",
"  R+} } } } } } } } } } } } S+_ _ J+1 1 1 1 1 1 T+} } } } } } } } } U+t+t+V+_ _ d } } } W+!.!.X+5 ",
"  Y+} } } } } } } } } } } } S+_ _ J+1 1 1 1 1 1 T+} } } } } } } } } Z+t+t+`+_ _ d } } } W+!.!.X+5 ",
"  R+} } } } } } } } } } } } S+_ _ J+1 1 1 1 1 1  @} } } } } } } } } Z+t+t+`+_ _ d } } } W+.@.@+@5 ",
"  @@#@#@#@#@#@#@#@#@#@$@d d %@_ _ C+&@&@&@&@&@&@*@} } } } } } d d d =@-@-@J+_ _ v+#@#@;@>@>@>@,@5 ",
"  '@1 1 1 1 1 1 1 1 1 )@_ _ _ _ _ 6 } } } } } } } } } } } } !@_ _ _ _ _ _ _ _ _ J+1 1 1 3.3.3.4.5 ",
"  '@1 1 1 1 1 1 1 1 1 )@_ _ _ _ _ 6 } } } } } } } } } } } } !@_ _ _ _ _ _ _ _ _ J+1 1 1 3.3.3.4.5 ",
"  ~@{@{@]@^@^@/@^@^@^@(@_@_@_@_@_@:@*.*.*.<@[@[@[@}@[@[@}@}@[@|@1@1@1@1@1@2@_@_@:@{@{@{@3@4@4@5@5 ",
"  M < < 6@t+t+t+t+t+t+7@< < < < < < < < < 8@t+t+t+t+t+t+t+t+t+t+t+t+t+t+t+7@< < < < < < 9@[+[+0@5 ",
"  M < < 6@t+t+t+t+t+t+a@< < < < < < < < < 8@t+t+t+t+t+t+t+t+t+t+t+t+t+t+t+7@< < < < < < 9@[+[+b@5 ",
"  u c@d@:@e@f@f@f@f@f@(@d@g@h@i@i@j@k@c@d@l@m@Z+m@m@m@m@m@m@m@m@m@m@m@m@m@n@c@k@k o@o@o@p@p@p@q@5 ",
"  ( _ _ _ _ _ _ _ _ _ _ _ _ r@} } s@t _ _ 9 } } } } } } } } } } } } } } } t@u@_ v@w@w@t+x@y+y+z+5 ",
"  ( _ _ _ _ _ _ _ _ _ _ _ _ r@} } y@_ _ _ 9 } } } } } } } } } } } } } } } z@_ _ -@t+t+t+x@y+y+z+5 ",
"  ( _ _ _ _ _ _ _ _ _ _ _ _ r@} } y@_ _ _ 9 } } } } } } } } } } } } } } } A@_ _ -@B@w@w@C@y+y+z+5 ",
"  R+} } D@t+t+t+J+_ _ _ _ _ _ _ _ _ _ _ _ 9 } } E@_ _ _ _ _ _ _ _ _ 3 } } } } } } } } } W+!.!.F@5 ",
"  R+} } D@t+t+t+G@_ _ _ _ _ _ _ _ _ _ _ _ 9 } } E@_ _ _ _ _ _ _ _ _ 3 } } } } } } } } } W+!.!.F@5 ",
"  R+} } D@t+t+t+G@_ _ _ _ _ _ _ _ _ _ _ _ 9 } } E@_ _ _ _ _ _ _ _ _ 3 } } } } } } } } } W+!.!.X+5 ",
"  H@I@I@J@K@L@L@M@N@N@N@N@N@O@P@P@P@P@Q@Q@R@S@S@T@Q@Q@Q@P@Q@P@U@N@N@V@W@W@T@I@I@I@I@I@I@X@Y@Y@Z@5 ",
"  `@y+y+ #!.!.!.!.!.!.!.!.!..#y+y+y+y+y+y++#!.!.@#y+y+y+y+y+y+!.!.!.##3.3.$#y+y+y+y+y+y+%#&#&#*#5 ",
"  `@y+y+ #!.!.!.!.!.!.!.!.!..#y+y+y+y+y+y+=#!.!.@#y+y+y+y+y+y+!.!.!.##3.3.$#y+y+y+y+y+y+%#&#&#*#5 ",
"-#;#>#,#'#)#)#!#)#)#)#)#)#)#~#>#{#,#>#,#{#]#)#^#/#,#,#>#{#,#>#)#)#(#_#/#0 :#>#{#,#,#{#,#<#[#[#}#|#",
"1#2#2#2#2#2#2#2#2#2#2#2#2#2#2#2#2#2#2#2#2#2#2#2#2#2#2#2#2#2#2#2#2#2#2#2#2#2#2#2#2#2#2#2#2#2#2#2#2#"};
