/* XPM */
static char * ground2ng_xpm[] = {
"50 50 325 2",
"  	c #DAC9AF",
". 	c #D6C7AB",
"+ 	c #D6C7AA",
"@ 	c #D9C9AD",
"# 	c #DDCCB0",
"$ 	c #DFCEB0",
"% 	c #DECDB0",
"& 	c #DBCAB0",
"* 	c #DBCAAF",
"= 	c #DDCCAF",
"- 	c #D7C6AC",
"; 	c #CBB9A1",
"> 	c #CAB8A0",
", 	c #D7C7AB",
"' 	c #D8C9AD",
") 	c #DECEB0",
"! 	c #DECDAF",
"~ 	c #DDCCAE",
"{ 	c #D9C8AE",
"] 	c #CBBAA1",
"^ 	c #CAB9A0",
"/ 	c #DAC9AE",
"( 	c #D9C9AE",
"_ 	c #D8C7AC",
": 	c #D7C8AB",
"< 	c #D2C1A6",
"[ 	c #CEBCA3",
"} 	c #CDBBA3",
"| 	c #CFBFA5",
"1 	c #D1C2A7",
"2 	c #D2C3A7",
"3 	c #D4C5A9",
"4 	c #D7C7AA",
"5 	c #D9C8AC",
"6 	c #D8C8AD",
"7 	c #D0C2A7",
"8 	c #CFC0A5",
"9 	c #CEC0A5",
"0 	c #D7C7AC",
"a 	c #CFBFA4",
"b 	c #CCBCA3",
"c 	c #CFC1A6",
"d 	c #D5C6A9",
"e 	c #D7C8AC",
"f 	c #D8C8AC",
"g 	c #D7C7AD",
"h 	c #D0BFA4",
"i 	c #CFC0A6",
"j 	c #D2C4A7",
"k 	c #D8C7AD",
"l 	c #D6C6AA",
"m 	c #D3C3A8",
"n 	c #D2C3A8",
"o 	c #D5C5AA",
"p 	c #D3C4A9",
"q 	c #D1C3A8",
"r 	c #D1C3A7",
"s 	c #D9C9AF",
"t 	c #D5C5AB",
"u 	c #CCBBA2",
"v 	c #CCBAA2",
"w 	c #D9C8AD",
"x 	c #D0C2A6",
"y 	c #D3C4A8",
"z 	c #D0C1A7",
"A 	c #D2C4A8",
"B 	c #CEBEA4",
"C 	c #CEBDA3",
"D 	c #C9BAA2",
"E 	c #C9B9A2",
"F 	c #CDBCA4",
"G 	c #CFBEA5",
"H 	c #D0BEA6",
"I 	c #CFBEA4",
"J 	c #CBBBA3",
"K 	c #C6B7A0",
"L 	c #C2B49D",
"M 	c #C0B49D",
"N 	c #BFB39C",
"O 	c #BEB19C",
"P 	c #BDB19B",
"Q 	c #BFB29C",
"R 	c #C3B59E",
"S 	c #C5B69F",
"T 	c #C4B59E",
"U 	c #C0B39C",
"V 	c #C7B8A0",
"W 	c #C4B69E",
"X 	c #C1B49D",
"Y 	c #C1B49F",
"Z 	c #C4B5A0",
"` 	c #C9B8A2",
" .	c #BCAE99",
"..	c #BBAE99",
"+.	c #C1B29C",
"@.	c #C0B19C",
"#.	c #C7B69F",
"$.	c #C5B59E",
"%.	c #C1B19C",
"&.	c #BCAE9A",
"*.	c #B6AA97",
"=.	c #B4A996",
"-.	c #B4A997",
";.	c #B7AB98",
">.	c #BDAF9A",
",.	c #C0B19B",
"'.	c #BEAF9B",
").	c #B8AC98",
"!.	c #B5AA97",
"~.	c #BAAD99",
"{.	c #BFB09B",
"].	c #BBAD99",
"^.	c #B5A997",
"/.	c #B8AB98",
"(.	c #C0B09B",
"_.	c #BEAF9A",
":.	c #C9B8A0",
"<.	c #C6B59E",
"[.	c #C5B49D",
"}.	c #B3A896",
"|.	c #B6AA98",
"1.	c #BEB09B",
"2.	c #B7AA98",
"3.	c #BDAE9A",
"4.	c #D3C2A9",
"5.	c #D2C2A7",
"6.	c #D2C1A7",
"7.	c #CBBCA3",
"8.	c #C8BAA2",
"9.	c #D6C4A9",
"0.	c #D6C5A9",
"a.	c #D4C3A8",
"b.	c #CEBFA6",
"c.	c #CEBFA5",
"d.	c #CABCA3",
"e.	c #C5B8A0",
"f.	c #C3B7A0",
"g.	c #C7BAA2",
"h.	c #CFBFA7",
"i.	c #CEBFA7",
"j.	c #CCBDA5",
"k.	c #CABCA5",
"l.	c #CBBCA5",
"m.	c #DDCDAF",
"n.	c #CEC0A6",
"o.	c #D8C9AC",
"p.	c #D8C8AB",
"q.	c #CDC0A5",
"r.	c #DACAAC",
"s.	c #DCCCAF",
"t.	c #DACAAE",
"u.	c #D8C8AE",
"v.	c #D8C7AE",
"w.	c #DFCDB0",
"x.	c #D3C5A8",
"y.	c #D9CAAC",
"z.	c #DACAAD",
"A.	c #DBCBAE",
"B.	c #DCCBAF",
"C.	c #D6C7AC",
"D.	c #DBCAAD",
"E.	c #DBCBAD",
"F.	c #D9C9AC",
"G.	c #D4C4A8",
"H.	c #CDBDA3",
"I.	c #D0C0A5",
"J.	c #D5C5A9",
"K.	c #DAC9AD",
"L.	c #D5C6AB",
"M.	c #D3C5A9",
"N.	c #CCBBA1",
"O.	c #D7C8AA",
"P.	c #D5C6AA",
"Q.	c #CDBEA4",
"R.	c #D6C6AC",
"S.	c #D4C5AA",
"T.	c #D4C6A9",
"U.	c #D1C1A7",
"V.	c #D3C4AA",
"W.	c #D1C2A8",
"X.	c #D5C7AA",
"Y.	c #D1C1A6",
"Z.	c #CEBCA4",
"`.	c #D5C4AB",
" +	c #CEBDA4",
".+	c #D7C5AC",
"++	c #D4C5A8",
"@+	c #C6B9A1",
"#+	c #CCBEA4",
"$+	c #D2C1A9",
"%+	c #D2C1A8",
"&+	c #D0C1A6",
"*+	c #CDBFA4",
"=+	c #CBBEA4",
"-+	c #C8BAA1",
";+	c #C4B49D",
">+	c #C2B29C",
",+	c #CBBCA4",
"'+	c #D0C0A8",
")+	c #D1C1A8",
"!+	c #CEBFA4",
"~+	c #CCBDA4",
"{+	c #CABCA2",
"]+	c #CABBA2",
"^+	c #C9BBA2",
"/+	c #B8AC99",
"(+	c #C0B29C",
"_+	c #C3B49D",
":+	c #C3B49E",
"<+	c #C4B49E",
"[+	c #C8B7A0",
"}+	c #BBAF9A",
"|+	c #B9AE99",
"1+	c #B8AD99",
"2+	c #B7AA97",
"3+	c #B9AD9A",
"4+	c #BAAE9A",
"5+	c #BBAF9B",
"6+	c #C0B29D",
"7+	c #C6B69F",
"8+	c #C8B8A0",
"9+	c #C2B39D",
"0+	c #C1B39D",
"a+	c #B2A796",
"b+	c #C5B49E",
"c+	c #C9B7A0",
"d+	c #BAAC99",
"e+	c #B4A896",
"f+	c #B2A795",
"g+	c #C6B69E",
"h+	c #B2A896",
"i+	c #BEB19D",
"j+	c #BFB29D",
"k+	c #C5B6A0",
"l+	c #C7B7A0",
"m+	c #C6B6A0",
"n+	c #CAB9A1",
"o+	c #CDBCA2",
"p+	c #C9B9A0",
"q+	c #C0B39D",
"r+	c #C0B39E",
"s+	c #C8B8A1",
"t+	c #CABAA2",
"u+	c #CFBDA4",
"v+	c #CDBCA3",
"w+	c #C4B59F",
"x+	c #D1C1A9",
"y+	c #D2C2A9",
"z+	c #D8C7AB",
"A+	c #D4C3AA",
"B+	c #D3C3A9",
"C+	c #D6C5AA",
"D+	c #D9C8AB",
"E+	c #DAC9AC",
"F+	c #C9BCA3",
"G+	c #E0CEB0",
"H+	c #DBC9AF",
"I+	c #DCCCAE",
"J+	c #DCCBAE",
"K+	c #DBCAAE",
"L+	c #D8C9AB",
"M+	c #D2C3A9",
"N+	c #CCBBA3",
"O+	c #DACAAF",
"P+	c #D5C7A9",
"Q+	c #D0C0A6",
"R+	c #D4C4AA",
"S+	c #CDBFA5",
"T+	c #CEC1A6",
"U+	c #CFC1A7",
"V+	c #D4C4AB",
"W+	c #C6B8A1",
"X+	c #C5B7A1",
"Y+	c #CDBDA4",
"Z+	c #C9BAA1",
"`+	c #C4B79F",
" @	c #C1B49E",
".@	c #C3B69F",
"+@	c #C5B7A0",
"@@	c #C8B9A1",
"#@	c #D0BFA5",
"$@	c #C6B8A0",
"%@	c #C4B69F",
"&@	c #C2B49E",
"*@	c #C9B79F",
"=@	c #C4B39D",
"-@	c #BDAF9B",
";@	c #C2B29D",
">@	c #BCAF9A",
",@	c #C7BAA1",
"'@	c #C7B9A1",
")@	c #C8B9A2",
"!@	c #CBBBA4",
"~@	c #CCBBA4",
"{@	c #D3C1A7",
"]@	c #D3C2A7",
"^@	c #CFBEA6",
"/@	c #CCBCA4",
"(@	c #C9BAA3",
"_@	c #C6B8A2",
":@	c #C3B6A0",
"<@	c #C2B59E",
"[@	c #CEBEA5",
"}@	c #D1C0A6",
"|@	c #D2C0A6",
"1@	c #CABBA3",
"2@	c #DECEAF",
"3@	c #DCCBB0",
"4@	c #DBCCAE",
"5@	c #D6C5AB",
"6@	c #D6C5AC",
"7@	c #CFC2A6",
"8@	c #D3C3AA",
"9@	c #D3C4AB",
"0@	c #D4C3A9",
"a@	c #D7C6AD",
"b@	c #D5C4AC",
"c@	c #B9AC99",
"d@	c #BBAE9A",
"e@	c #BFB09C",
"f@	c #B9AD99",
"g@	c #B6AB98",
"h@	c #BFB19B",
"i@	c #C3B39D",
"j@	c #C8B69F",
"      . + + @     # $ $ $ $ $ $ $ $ $ $ $ $ $ $ % &   * = $ $ $ $ $ $ $ $ $ $ $ $ $ $ #     - ; > > ",
"      . + + @     # $ $ $ $ $ $ $ $ $ $ $ $ $ $ % &   * = $ $ $ $ $ $ $ $ $ $ $ $ $ $ #     - ; > > ",
"      , + + '     = % ) ! ~ ~ ~ = = ! ) ) $ $ $ % *   * = $ $ $ ) ) ) ) ) $ $ $ $ $ $ #   { - ] ^ ^ ",
"      / / ( _ , , : : : < [ } | 1 2 3 4 : 5 / * *         * / 5 : : : : : @ * * * *   6 1 7 7 8 9 9 ",
"            0 + + + + + a ; > b 9 c 2 d + e (               ( e + + + + + f           g c c c c c c ",
"            _ + + + + + h ; > b i c j d + 0 {               { 0 + + + + + f           k 7 c c c c c ",
"0 0 _       / @ @ @ @ @ l m n o 0 g , + + d p n n n n n n n n q r q 3 + + , 0 e 6     s k g t u v v ",
"+ + + /                 _ + + f     w , + 3 1 c c c c c c c c c c x y + + + + + f           - ; > > ",
"+ + + {                 _ + + 6 (   6 + + p z c c c c c c c c c c c A + + + + + e s s       - > > > ",
"B B C D E E E E E F G H I B B J E E K L M N O P Q R S S S S T U P O R V V W M M X Y Y Z ` E K  .....",
"^ ^ > +.@.@.@.@.@.#.> ; ^ ^ ^ $.%.@.&.*.=.-.=.=.;.>.,.,.,.,.'.).=.!.~.,.{.].-.-.-.-.^./.(.,._.=.=.=.",
"> > :.@.{.{.{.{.{.<.> > > > > [.,.{.].^.}.}.}.}.|.&.{.{.{.{.>.;.}.-.~.{.1.~.}.}.}.}.}.2.{.{.3.=.}.}.",
"4.4.4.5.5.6.7.8.8.6.9.0.0.0.0.a.5.5.z b.c.d.e.f.g.| 5.5.5.5.1 i c.c.b.h.i.j.8.8.8.8.8.8.8.8.D k.l.l.",
"{ { { = m.= A n.n.o.= ! ! ! ! ! m.m.= = = p.7 q.n r.m.m.m.m.m.= = s.t.{ u.0 3 3 3 3 3 y n.n.7 k v.v.",
"      w.$ $ x.c c y.$ $ $ $ $ $ $ $ $ $ $ z.n c p A.$ $ $ $ $ $ $ $ B.    ' + + + + + 3 c c q       ",
"6 6 ' B.= B.C.o o f D.E.F., , F.D.E.F.: : G.a H.I.J., p.K.E.E.E.E.z.t.    ( f f f f f , o o L.6 6 6 ",
". . , / *   s { { f : : y 1 7 M.+ : 3 r 7 a N.; u 8 7 r d : : : O.: '       / / / / / ( { { { . . . ",
"+ + + /           _ + + n c c A P.+ p 7 c Q.; > ] Q.c 7 3 + + + + . 6                         + + + ",
"3 3 3 L.R.R.k w w f e e S.A r 3 + + T.A 2 | ] > u U.V.S.. e e e e e 6 w w w w w _ R.R.R.R.R.L.3 3 3 ",
"7 7 7 7 7 W.P., , 6 ( ( 0 P.d X.+ + + d d Y.v > Z.`.{ { { ( ( ( ( { f , , , , . 3 W.7 7 7 7 7 7 7 7 ",
"7 7 7 7 7 7 T.+ + @ & & f + + + + + + : : 5.u >  +.+*         & &   f + + + + + ++c c c c c c 7 7 7 ",
"@+@+@+@+@+@+#+c.c.U.$+$+%+5.5.&+8 c.*+#+=+-+;+>+S ,+i.i.i.i.i.'+$+)+i c.c.c.c.8 !+Q.Q.~+{+]+^+@+@+@+",
").).).).)./+(+_+:+<+<+<+:.v u [+<+:+Q }+|+1+;.2+/.3+4+4+4+4+5+6+<+<+:+:+:+:+:+R 7+] ] 8+9+0+@.1+).).",
"a+a+a+a+a+}.]._.'.'.1.1.b+c+> ;+{.{.d+e+f+a+a+a+a+a+f+f+f+f+e+d+1.'.'.'.'.'.'.{.9+> :.g+{.'. .}.h+h+",
"i+i+i+j+j+6+k+V 8+l+m+K n+o+o+p+7+S R q+j+j+j+j+j+j+j+j+j+j+r+S s+s+s+s+s+s+s+s+t+u+u+v+K m+w+}+}+}+",
"x+x+y+o o l , z+z+o A+A+B+m y 2 1 1 n o C+C+C+C+C+C+C+C+C+C+l , z+z+z+z+z+z+z+z+D+E+E+_ A+A+$+F+^+^+",
"    * $ $ $ $ $ $ B.    f + + + + + y.! G+$ G+G+G+G+G+G+G+G+G+$ $ $ $ $ $ $ $ $ $ $ $ % H+  6 7 c c ",
"      = m.m.! % % *     6 , , , , , F.I+m.~ I+J+J+J+J+J+J+J+I+~ m.m.~ J+J+I+m.m.= J+J+K+k k R.i c.c.",
"      F.F.F.K+B.B.      ( w w w w w w F.F.: J.3 3 3 3 3 3 3 J., F.L++ 3 3 l F.o., 3 3 p M+M+5.N+u u ",
"      . + + '                       w , + ++x c c c c c c c 7 p + d j c c n + + y c c c c c !+> > > ",
"* * O+: , , 6 ( ( ( ( ( { { { { { { 0 + d y x c c 7 7 7 7 7 1 3 + P+y 7 x n d d A c c z 7 7 Q+] ; ; ",
"= = = @ w w f e e e e e t R+V.V.V.V.p n r 7 c c 7 A 3 3 3 3 3 P.+ + T.M.y A r r x c c W.R.R.R+B Q.Q.",
"$ $ $ *     , + + + + + n c c c c c c c c c &+c r P.: + + + + + + + + + + x.c c c c 7 p     k 7 7 7 ",
"D.D.D.- R.R.3 ++3 3 d J.1 i 9 9 c.*+*+S+S+S+S+S+T+n 3 x.y 3 ++++++3 3 3 y 1 S+S+S+S+S+U+R.R.V+9 S+S+",
"8.8.8.W+X+X+8.D D H.| a Y+b b Z+V V `+X M M M M  @.@`++@@@D ]+H.#@I b D D @@$@K %@M M &@X+X+X+M M M ",
"}.}.}.}.}.}...1.{.<.c+> > > > ;+(.{.].^.}.}.}.}.}.}.}.^...{.@.<.> *@=@{.{.{.{.'.].}.}.}.}.}.}.}.}.}.",
"*.*.*.!.^.!.-@@.+.#.; ; ; ; ; <.;@%.-@;.!.!.!.^.!.!.*.).1.+.9+#.; > $.@.@.@.+.(+>@|.!.!.*.*.*.*.*.*.",
"g.,@'@ @q+q+)@!@~@Q+{@]@]@]@]@^@/@!@(@_@X+:@ @q+<@e.g.8./@ +[@}@]@|@b K V t+B Q.1@X+X+W+g.g.g.g.g.g.",
"$ $ m.5.c c g     # $ $ $ $ $ B.          R.1 c y A.$ $ $ $ $ $ $ ~ l c x + $ $ #     B.$ $ $ $ $ $ ",
"$ $ ! 2 c &+g     # $ $ w.! % B.          R.W.c y E.2@! $ $ $ $ $ = + c 7 + $ $ #     * ) $ $ $ $ $ ",
"J+J+E.x.q n k     3@# # K+F.F.0 R.R.0 6 w L.1 c q + F.y.J+# # # # J+. q A , = # A.' @ K.4@J+J+J+J+J+",
"+ + + + + + @           S.7 c c c c j d + ++x c c c c q 0         ( e + + f     ' + + + + + + + + + ",
"+ + + + + + '           S.7 c c c c j d + ++x c c c c q 0         ( e + + f     6 + + + + + + + + + ",
"+ + + 3 3 3 . g g 6 @ @ L.p n n q r A ++3 2 8 *+9 1 n R+k     ( @ 6 . 3 3 l g g . 3 3 3 3 3 3 3 3 3 ",
"+ + + 7 c c c c c 3 + + 6 s   6 + + M.7 c B ] >  +5@        ( e + P.A c c c c c c c c c c c c c c c ",
"+ + P.x c c c c c +++ + 6 s   6 + + p 7 c Q.] > Z.6@        { _ + d j c c c c c c c c c c c c c c c ",
"7 x 7@*+#+#+#+#+#+i 7 7 M+8@9@B+n 2 z i 9 H.; > v+0@a@6@6@b@`.B+7 &+9 #+#+=+d.d.d.d.d.d.d.d.d.d.d.d.",
"!.!.*.{.@.@.@.@.@.c@*.!.!.!.!.d@@.@.<+:.^ > > > > ; ; c+<+%.e@f@!.g@d@@.h@d@!.^.^.^.^.^.^.^.^.^.^.^.",
"}.}.e+_.{.{.{.{.{.2.}.}.}.}.}.c@'.{.i@*@> > > > > > > j@;@{.>.;.}.-.~.{.1.d+}.}.}.}.}.}.}.}.}.}.}.}.",
"}.}.e+_.{.{.{.{.{.2.}.}.}.}.}.c@'.{.i@*@> > > > > > > j@;@{.>.;.}.-.~.{.1.d+}.}.}.}.}.}.}.}.}.}.}.}."};
