/* XPM */
static char * ground_xpm[] = {
"49 49 796 2",
"  	c #B0865D",
". 	c #B4865D",
"+ 	c #A27750",
"@ 	c #936C47",
"# 	c #926E49",
"$ 	c #8B6742",
"% 	c #775634",
"& 	c #765634",
"* 	c #765633",
"= 	c #B2855E",
"- 	c #B4865C",
"; 	c #9A734D",
"> 	c #83613D",
", 	c #705232",
"' 	c #583E24",
") 	c #573E25",
"! 	c #5A4127",
"~ 	c #765636",
"{ 	c #A97F55",
"] 	c #B4875C",
"^ 	c #B5865C",
"/ 	c #8F6A46",
"( 	c #775635",
"_ 	c #765635",
": 	c #97704C",
"< 	c #B5855E",
"[ 	c #B5865D",
"} 	c #AB8158",
"| 	c #B3865D",
"1 	c #A17851",
"2 	c #936D48",
"3 	c #926E48",
"4 	c #896744",
"5 	c #775633",
"6 	c #B2865E",
"7 	c #B2885B",
"8 	c #98724C",
"9 	c #916E49",
"0 	c #715233",
"a 	c #573E24",
"b 	c #5B4027",
"c 	c #A97E58",
"d 	c #916A46",
"e 	c #98704B",
"f 	c #B3875C",
"g 	c #886341",
"h 	c #87633F",
"i 	c #8D6945",
"j 	c #936E49",
"k 	c #81623E",
"l 	c #674C2F",
"m 	c #674C30",
"n 	c #6C4F32",
"o 	c #745538",
"p 	c #735537",
"q 	c #745537",
"r 	c #694D30",
"s 	c #684B2E",
"t 	c #684B2F",
"u 	c #684C2F",
"v 	c #674B30",
"w 	c #715232",
"x 	c #6E5032",
"y 	c #604328",
"z 	c #5F4429",
"A 	c #866543",
"B 	c #876542",
"C 	c #846440",
"D 	c #775734",
"E 	c #A47B54",
"F 	c #A77D56",
"G 	c #A77E56",
"H 	c #9E754E",
"I 	c #9B724C",
"J 	c #9B744E",
"K 	c #795937",
"L 	c #604428",
"M 	c #604327",
"N 	c #6A4C30",
"O 	c #735538",
"P 	c #745539",
"Q 	c #886542",
"R 	c #7C5D3D",
"S 	c #573E26",
"T 	c #583E25",
"U 	c #61462B",
"V 	c #755634",
"W 	c #583D24",
"X 	c #593D24",
"Y 	c #593D23",
"Z 	c #6A4D2F",
"` 	c #755738",
" .	c #6A4F33",
"..	c #664A2E",
"+.	c #906C45",
"@.	c #B1845B",
"#.	c #B2875C",
"$.	c #946B47",
"%.	c #946D48",
"&.	c #715334",
"*.	c #765737",
"=.	c #775636",
"-.	c #7F5D3C",
";.	c #563E26",
">.	c #60462A",
",.	c #755736",
"'.	c #583D25",
").	c #6A4D30",
"!.	c #6B4F32",
"~.	c #674B2E",
"{.	c #906C46",
"].	c #AF855B",
"^.	c #B3875B",
"/.	c #9A724C",
"(.	c #926C46",
"_.	c #946C47",
":.	c #705334",
"<.	c #593E24",
"[.	c #9E7550",
"}.	c #9E764E",
"|.	c #82603C",
"1.	c #6B4E2F",
"2.	c #6C4D2E",
"3.	c #63472C",
"4.	c #64472B",
"5.	c #6E5234",
"6.	c #9E764F",
"7.	c #9F7651",
"8.	c #9D7650",
"9.	c #815E3D",
"0.	c #7F5E3D",
"a.	c #715332",
"b.	c #6C4E2D",
"c.	c #896643",
"d.	c #9C7550",
"e.	c #876444",
"f.	c #62462B",
"g.	c #82603D",
"h.	c #815F3B",
"i.	c #805F3A",
"j.	c #836143",
"k.	c #846143",
"l.	c #846142",
"m.	c #897765",
"n.	c #887D6A",
"o.	c #887E6B",
"p.	c #917559",
"q.	c #97704E",
"r.	c #97704D",
"s.	c #836140",
"t.	c #694E31",
"u.	c #6B4E2E",
"v.	c #926C47",
"w.	c #6D4F31",
"x.	c #6C5033",
"y.	c #B3865E",
"z.	c #7F5D3B",
"A.	c #9C744E",
"B.	c #98704C",
"C.	c #5F4329",
"D.	c #7D7B73",
"E.	c #848683",
"F.	c #828782",
"G.	c #A38767",
"H.	c #B3885B",
"I.	c #99724C",
"J.	c #B4875B",
"K.	c #916C48",
"L.	c #6D4F30",
"M.	c #583D23",
"N.	c #B3875D",
"O.	c #946D49",
"P.	c #765637",
"Q.	c #986F4D",
"R.	c #573D24",
"S.	c #573F25",
"T.	c #5A3E24",
"U.	c #583D22",
"V.	c #7D7C74",
"W.	c #858683",
"X.	c #848681",
"Y.	c #A48769",
"Z.	c #775637",
"`.	c #A77A53",
" +	c #A77B54",
".+	c #876C4F",
"++	c #706050",
"@+	c #70604D",
"#+	c #80654A",
"$+	c #946D47",
"%+	c #946D46",
"&+	c #876441",
"*+	c #66492E",
"=+	c #66492D",
"-+	c #6D5132",
";+	c #956F4D",
">+	c #956E4D",
",+	c #946F4C",
"'+	c #936D49",
")+	c #896642",
"!+	c #876440",
"~+	c #8F6B46",
"{+	c #956E49",
"]+	c #956D49",
"^+	c #9E7650",
"/+	c #A67B53",
"(+	c #A67C53",
"_+	c #946E4B",
":+	c #745637",
"<+	c #755737",
"[+	c #755534",
"}+	c #6A4C2E",
"|+	c #65492D",
"1+	c #654A2D",
"2+	c #947C63",
"3+	c #9A866F",
"4+	c #9A8670",
"5+	c #A3805D",
"6+	c #A87B54",
"7+	c #A77C55",
"8+	c #926B48",
"9+	c #956B47",
"0+	c #936B48",
"a+	c #7B6C58",
"b+	c #696B67",
"c+	c #907760",
"d+	c #B38759",
"e+	c #A37B54",
"f+	c #573D21",
"g+	c #916D49",
"h+	c #7C5B38",
"i+	c #A17852",
"j+	c #A27850",
"k+	c #926B45",
"l+	c #8C6945",
"m+	c #735434",
"n+	c #AA7E55",
"o+	c #B58659",
"p+	c #B58658",
"q+	c #936C48",
"r+	c #966D49",
"s+	c #86633F",
"t+	c #765638",
"u+	c #7B6B59",
"v+	c #696B68",
"w+	c #8F775F",
"x+	c #926D4A",
"y+	c #7C5B39",
"z+	c #A27852",
"A+	c #B4855E",
"B+	c #936A46",
"C+	c #926D49",
"D+	c #745536",
"E+	c #B4865A",
"F+	c #A17850",
"G+	c #85633F",
"H+	c #7E6853",
"I+	c #6D655C",
"J+	c #6A665B",
"K+	c #8C7256",
"L+	c #AA8054",
"M+	c #8B6542",
"N+	c #583E23",
"O+	c #7B5B39",
"P+	c #98714A",
"Q+	c #A47B53",
"R+	c #A67B54",
"S+	c #8F6945",
"T+	c #836241",
"U+	c #836341",
"V+	c #80603D",
"W+	c #745633",
"X+	c #775737",
"Y+	c #785939",
"Z+	c #78583B",
"`+	c #A37852",
" @	c #AB8057",
".@	c #AC8057",
"+@	c #846340",
"@@	c #7D5D3B",
"#@	c #84603D",
"$@	c #775535",
"%@	c #765734",
"&@	c #82603E",
"*@	c #916E48",
"=@	c #9F744E",
"-@	c #A77E57",
";@	c #593E23",
">@	c #765736",
",@	c #7E5E3C",
"'@	c #5F4328",
")@	c #7B5B37",
"!@	c #B4865E",
"~@	c #B3865C",
"{@	c #B4875D",
"]@	c #7A5735",
"^@	c #8D6A45",
"/@	c #936E48",
"(@	c #715234",
"_@	c #674A2C",
":@	c #83603D",
"<@	c #956D47",
"[@	c #A0734F",
"}@	c #A77E58",
"|@	c #876541",
"1@	c #916F48",
"2@	c #7E5E3B",
"3@	c #7D5B37",
"4@	c #B4865F",
"5@	c #765532",
"6@	c #705333",
"7@	c #66492C",
"8@	c #976D48",
"9@	c #967049",
"0@	c #81603E",
"a@	c #705332",
"b@	c #81603D",
"c@	c #966D48",
"d@	c #9E744E",
"e@	c #AF845B",
"f@	c #B0825B",
"g@	c #A57B54",
"h@	c #5C4125",
"i@	c #5B4128",
"j@	c #5D4125",
"k@	c #795A39",
"l@	c #725334",
"m@	c #735433",
"n@	c #725433",
"o@	c #725434",
"p@	c #81613F",
"q@	c #8B6946",
"r@	c #8A6A45",
"s@	c #7A5C3C",
"t@	c #5B4127",
"u@	c #5B4024",
"v@	c #62462A",
"w@	c #7A5B38",
"x@	c #AA805B",
"y@	c #AB8059",
"z@	c #AA805A",
"A@	c #795735",
"B@	c #896743",
"C@	c #8E6B46",
"D@	c #8E6B47",
"E@	c #5B4126",
"F@	c #5B4026",
"G@	c #6B4E30",
"H@	c #805D3B",
"I@	c #B3855C",
"J@	c #846141",
"K@	c #936F49",
"L@	c #946C46",
"M@	c #8E6A45",
"N@	c #755637",
"O@	c #634629",
"P@	c #573D22",
"Q@	c #573C22",
"R@	c #65482C",
"S@	c #755635",
"T@	c #735435",
"U@	c #583E22",
"V@	c #5A3F22",
"W@	c #95704A",
"X@	c #86623F",
"Y@	c #573F26",
"Z@	c #946E49",
"`@	c #926D48",
" #	c #63462A",
".#	c #65492C",
"+#	c #96704B",
"@#	c #B4875E",
"##	c #85613F",
"$#	c #755636",
"%#	c #926F49",
"&#	c #74573A",
"*#	c #634729",
"=#	c #573D23",
"-#	c #573E23",
";#	c #66482B",
">#	c #775533",
",#	c #755535",
"'#	c #96704C",
")#	c #916B48",
"!#	c #755434",
"~#	c #745534",
"{#	c #775735",
"]#	c #785735",
"^#	c #765A3D",
"/#	c #6D6961",
"(#	c #6C6962",
"_#	c #6C695D",
":#	c #765838",
"<#	c #775733",
"[#	c #775835",
"}#	c #765535",
"|#	c #745434",
"1#	c #A17751",
"2#	c #B0845B",
"3#	c #B0845C",
"4#	c #B0855B",
"5#	c #9A744E",
"6#	c #856242",
"7#	c #B1845D",
"8#	c #B1845C",
"9#	c #AF865B",
"0#	c #795836",
"a#	c #8B6944",
"b#	c #916D48",
"c#	c #84623D",
"d#	c #956C46",
"e#	c #916D4A",
"f#	c #74593F",
"g#	c #6A6A66",
"h#	c #6A6B65",
"i#	c #A37953",
"j#	c #B2865D",
"k#	c #9D754F",
"l#	c #866241",
"m#	c #795734",
"n#	c #83623E",
"o#	c #936B46",
"p#	c #745A3D",
"q#	c #696B64",
"r#	c #696B65",
"s#	c #6C6B62",
"t#	c #A37952",
"u#	c #9E7651",
"v#	c #866242",
"w#	c #B38760",
"x#	c #7A5734",
"y#	c #815F3E",
"z#	c #856341",
"A#	c #7C5C39",
"B#	c #8D6946",
"C#	c #A77D53",
"D#	c #A77D54",
"E#	c #A87D53",
"F#	c #A97D55",
"G#	c #A97D57",
"H#	c #A47A54",
"I#	c #896D4F",
"J#	c #8A6C51",
"K#	c #8B6D4E",
"L#	c #8D6944",
"M#	c #684B2C",
"N#	c #604329",
"O#	c #7B5B38",
"P#	c #85623F",
"Q#	c #9B734E",
"R#	c #866340",
"S#	c #604326",
"T#	c #5F4428",
"U#	c #6F5133",
"V#	c #99734C",
"W#	c #867967",
"X#	c #888175",
"Y#	c #8B7255",
"Z#	c #8C6844",
"`#	c #946D4C",
" $	c #AF8258",
".$	c #936C46",
"+$	c #926D47",
"@$	c #926D46",
"#$	c #926E47",
"$$	c #63462B",
"%$	c #7E5E3D",
"&$	c #573F24",
"*$	c #8F6C47",
"=$	c #837E75",
"-$	c #858684",
";$	c #8C775F",
">$	c #946E4C",
",$	c #AF8259",
"'$	c #926C48",
")$	c #62472A",
"!$	c #6D4F2F",
"~$	c #876442",
"{$	c #847D73",
"]$	c #838682",
"^$	c #848781",
"/$	c #8D7760",
"($	c #956B48",
"_$	c #886541",
":$	c #886642",
"<$	c #7E5C3A",
"[$	c #946C49",
"}$	c #936D47",
"|$	c #966F49",
"1$	c #A07751",
"2$	c #9F7751",
"3$	c #9A744D",
"4$	c #825F3C",
"5$	c #60452A",
"6$	c #65492E",
"7$	c #63492E",
"8$	c #81603C",
"9$	c #805F3C",
"0$	c #7E5E3E",
"a$	c #7F5F3E",
"b$	c #815F3C",
"c$	c #8D7359",
"d$	c #8D775F",
"e$	c #8D7861",
"f$	c #7E6449",
"g$	c #735337",
"h$	c #705437",
"i$	c #785938",
"j$	c #7F5D3A",
"k$	c #8D6A46",
"l$	c #765632",
"m$	c #563E25",
"n$	c #6B4D2F",
"o$	c #785534",
"p$	c #725436",
"q$	c #674A2D",
"r$	c #835F3C",
"s$	c #765735",
"t$	c #8E6945",
"u$	c #64462A",
"v$	c #83603E",
"w$	c #946B46",
"x$	c #956D48",
"y$	c #715434",
"z$	c #856340",
"A$	c #84623E",
"B$	c #83613E",
"C$	c #775938",
"D$	c #735534",
"E$	c #7D5E3E",
"F$	c #7C5D3E",
"G$	c #7C5D3F",
"H$	c #5D4328",
"I$	c #61462A",
"J$	c #664A2D",
"K$	c #67492D",
"L$	c #705132",
"M$	c #84603F",
"N$	c #6B4D31",
"O$	c #6B4D32",
"P$	c #A37750",
"Q$	c #A47851",
"R$	c #745535",
"S$	c #82613E",
"T$	c #886543",
"U$	c #7B5D3C",
"V$	c #60462B",
"W$	c #785535",
"X$	c #6D4F32",
"Y$	c #B0845D",
"Z$	c #906945",
"`$	c #7D5C3B",
" %	c #563F27",
".%	c #6D5031",
"+%	c #B5855D",
"@%	c #8F6B47",
"#%	c #815E3C",
"$%	c #614529",
"%%	c #6E5133",
"&%	c #896645",
"*%	c #866342",
"=%	c #6A4E30",
"-%	c #765739",
";%	c #7A593A",
">%	c #79593A",
",%	c #7B5C3B",
"'%	c #7E5D3A",
")%	c #6E5030",
"!%	c #6E5031",
"~%	c #826240",
"{%	c #9C754F",
"]%	c #99714C",
"^%	c #8A6644",
"/%	c #8B6744",
"(%	c #85643F",
"_%	c #573D25",
":%	c #A97D56",
"<%	c #AC7F57",
"[%	c #AB7F56",
"}%	c #AB7F57",
"|%	c #AB7E56",
"1%	c #8E7153",
"2%	c #7B6552",
"3%	c #7A6751",
"4%	c #836748",
"5%	c #8B6743",
"6%	c #8B6843",
"7%	c #8C6743",
"8%	c #A97F58",
"9%	c #AE8259",
"0%	c #765738",
"a%	c #846343",
"b%	c #AD8158",
"c%	c #8F6D48",
"d%	c #936B47",
"e%	c #946B45",
"f%	c #887D6E",
"g%	c #858780",
"h%	c #7C7363",
"i%	c #876540",
"j%	c #8D6643",
"k%	c #A98056",
"l%	c #AE8359",
"m%	c #9D744E",
"n%	c #775738",
"o%	c #AD8059",
"p%	c #8F6D49",
"q%	c #916D47",
"r%	c #848782",
"s%	c #7D7265",
"t%	c #775638",
"u%	c #7A5937",
"v%	c #7A5936",
"w%	c #8F6C46",
"x%	c #8B6643",
"y%	c #B0835A",
"z%	c #B1835A",
"A%	c #A67E54",
"B%	c #775537",
"C%	c #966C48",
"D%	c #AC8259",
"E%	c #9A734C",
"F%	c #77593A",
"G%	c #594530",
"H%	c #59452F",
"I%	c #836446",
"J%	c #B0825A",
"K%	c #B18459",
"L%	c #AF8359",
"M%	c #AB7F58",
"N%	c #AA8059",
"O%	c #A37B55",
"P%	c #8A7A68",
"Q%	c #84817B",
"R%	c #848179",
"S%	c #7B6E5C",
"T%	c #725438",
"U%	c #725333",
"V%	c #926F48",
"W%	c #7F5E3B",
"X%	c #7C5A36",
"Y%	c #7E6C57",
"Z%	c #686A63",
"`%	c #7C6A59",
" &	c #866642",
".&	c #563D23",
"+&	c #82603F",
"@&	c #755638",
"#&	c #745638",
"$&	c #765531",
"%&	c #916C47",
"&&	c #7B6B58",
"*&	c #696A66",
"=&	c #7D6A5B",
"-&	c #916F47",
";&	c #866743",
">&	c #694B2F",
",&	c #926F4A",
"'&	c #81613E",
")&	c #8A6743",
"!&	c #7E6B57",
"~&	c #6A6B64",
"{&	c #7B6B5A",
"]&	c #876742",
"^&	c #583D21",
"/&	c #8D6C48",
"(&	c #775532",
"_&	c #785533",
":&	c #694A2C",
"<&	c #5C4025",
"[&	c #593F25",
"}&	c #775736",
"|&	c #A67D55",
"1&	c #B0855A",
"2&	c #755838",
"3&	c #74583C",
"4&	c #73593A",
"5&	c #785634",
"6&	c #755536",
"7&	c #8D6D46",
"8&	c #8F6D46",
"9&	c #7A5836",
"0&	c #9B754E",
"a&	c #AF845A",
"b&	c #AE835A",
"c&	c #AA7F56",
"d&	c #8B6842",
"e&	c #785736",
"f&	c #9F764E",
"g&	c #8E6B45",
"h&	c #8B6844",
"i&	c #785737",
"j&	c #9F764F",
"k&	c #705133",
"l&	c #805F3D",
"m&	c #7D5C39",
"n&	c #72583E",
"o&	c #73583D",
"p&	c #72593B",
"q&	c #9C724C",
"r&	c #906B45",
"s&	c #8C6944",
"t&	c #6E4F31",
"u&	c #5F442A",
"v&	c #684B2D",
"w&	c #9C764F",
"x&	c #A87E54",
"y&	c #A87D54",
"z&	c #A0774E",
"A&	c #9B714A",
"B&	c #9D714B",
"C&	c #9C714B",
"D&	c #715940",
"E&	c #705A41",
"F&	c #6F593E",
"G&	c #6B4E31",
"H&	c #A77E55",
"I&	c #A07750",
"J&	c #926B47",
"K&	c #72593F",
"L&	c #715941",
"M&	c #71593D",
"N&	c #6B4E32",
"O&	c #A97E56",
"P&	c #A07851",
"Q&	c #876642",
"R&	c #83623F",
"S&	c #9E7652",
"T&	c #96724E",
"U&	c #755739",
"V&	c #745739",
"W&	c #64492D",
"X&	c #63482C",
"Y&	c #65482B",
"Z&	c #7D5C3A",
"`&	c #80603C",
" *	c #715435",
".*	c #8D6847",
"+*	c #6C4E2F",
"@*	c #6C4E30",
"#*	c #7D5D3C",
"$*	c #7C5E3C",
"%*	c #916B47",
"&*	c #B5865E",
"**	c #AB8058",
"=*	c #705234",
"-*	c #604629",
";*	c #926E4A",
">*	c #785836",
",*	c #8C6744",
"'*	c #B4875F",
")*	c #624529",
"!*	c #916D4B",
"~*	c #755734",
"{*	c #84613F",
"]*	c #A77B55",
"^*	c #84613D",
"/*	c #84613E",
"(*	c #82623E",
"_*	c #654A2C",
":*	c #654A2E",
"<*	c #786755",
"[*	c #7C6E5D",
"}*	c #796F5D",
"|*	c #6B5741",
"1*	c #654B2F",
"2*	c #A87B55",
"3*	c #7E6C5A",
"4*	c #7D6D5C",
"5*	c #7B6D59",
"6*	c #826444",
"7*	c #83613F",
"8*	c #7C5C3D",
"9*	c #7C5C3C",
"0*	c #936E4A",
"a*	c #956B46",
"b*	c #818075",
"c*	c #838681",
"d*	c #878582",
"e*	c #7A6855",
"f*	c #866440",
"g*	c #8C6A45",
"h*	c #85857D",
"i*	c #858584",
"j*	c #858682",
"k*	c #8F7256",
"l*	c #946C48",
"m*	c #80603B",
"n*	c #AA8056",
"o*	c #775639",
"p*	c #827F78",
"q*	c #776755",
"r*	c #86837D",
"s*	c #838685",
"t*	c #838880",
"u*	c #8E7258",
"  . + @ # # # # $ % & & & & * = . - ; # # # # # > % & & & & , ' ) ! ~ & & & & & { ] ^ / ( _ : < [ ",
"} | 1 2 # # 3 3 4 ( & & & & 5 6 - 7 8 9 # # # # > % & & & _ 0 a ' b ~ & & _ % ( c ] [ d ( & e ] f ",
"g h i j 3 k l m n & & & & & & o p q r s t u u v w % _ x y z u A B C D & * E F G H I J K L M N O P ",
"& ( Q # # R S T U & & & & & V W ) S X Y Y Y Y T Z & `  .' Y ..# # +.& & * @.< #.I $.%.&.Y Y W S ) ",
"*.=.B # j -.a ;.>.( % _ =.,.*.W T ) ) ) ) ' '.T ).~ ` !.Y W ~.# j {._ & * ].^.- /.(._.:.W <.' Y ' ",
"[.}.i |.|.K 1.2.t 3.4.5.6.7.8.9.0.0.0.0.0.a.2.b.c.d.6.e.Y W f.g.h.i.% & _ j.k.l.m.n.o.p.q.r.s.t.u.",
"f ^.v.% & & & & w.W Y x.f . y.3 j # # # # z.~ & A.. f B.'.Y C.& & & & & ,.<.Y a D.E.F.G.^ H.I._ & ",
". J.K.& & _ _ & L.M.Y x.f N.| (.O.# # # # z.P.( J < ^.Q.R.S.C.& & & & & _ T.Y U.V.W.X.Y.- 7 I.Z.& ",
"`. +.+++@+#+$+%+&+*+=+-+;+>+,+'+'+# )+&+!+~+{+]+^+/+(+_+:+<+_ & & [+).Z }+|+=+1+2+3+4+5+6+7+8+Z.& ",
"9+0+a+b+b+c+^ d+e+( & :.M.) f+g+j # h+& & i+. < j+k+@ 3 9 # l+& & m+W R.R.P.& _ n+o+p++ q+r+s+t+& ",
"O.v.u+b+v+w+[ H.E & % &.Y W a x+j # y+& & z+A+< + B+C+j # # l+% & m+Y W W D+& & n+J.E+F+# # G+Z.& ",
"O.2 H+I+J+K+L+L+z+M+M+s.W Y N+9 j 9 O+& & P+Q+R+I 2 3 S+T+U+V+& & W+X+Y+Z+=.& _ `+ @.@j U++@@@& & ",
"j '+#@$@%@&@*@%+=@y.| -@;@Y M.# j *@O+& & & ~ >@&+# # ,@' ' '@& & )@!@~@{@]@% & ^@%./@(@<.<._@_ & ",
"@ C+g.* & :@# <@[@< A+}@' ) ;@9 j 9 O+& & & & & |@# 1@2@S ' '@& _ 3@4@< y.]@% 5@^@j # 6@T T 7@P.& ",
"8@9@0@a@&.b@# c@d@e@f@g@h@i@j@9 # 9 k@l@m@n@o@n@p@q@r@s@t@u@v@& & w@x@y@z@A@& & B@C@D@a.E@F@G@H@H@",
"I@{@J@N+' :+K@O._.L@_.M@N@_ & 9 # # O@Y a R.W W P@Q@M.R@S@& ~ _ & T@N+U@V@S@& & % % & & _ _ W@#.7 ",
". {@X@Y@) N@j Z@`@2 C+^@=.& 5@# # j  #) W ;.T W T T ' .#& & & & & m+W ' ' D+& & & & & & & % +#. . ",
"- @###S.M.$#%## # # # ^@&#<+V # # %#*#' W =#' W W ' -#;#& & & >#>#m@=#W M.,#_ _ & & % & & & '#!@| ",
"A+. )#!#~#~ {#]#D 5 % ^#/#(#_#:#<#[#}#|#,#1#2#3#3#4#e@5#& & 6#3#7#8#e@4#9#0#& _ a#b#b#b@& & c#Z@d#",
". f e#_ _ ~ & & & _ ( f#g#v+h#:+% & _ _ _ i#. A+] . j#k#& & l#f | . . < N.m#& % i O.# b@P.& n#]+o#",
"< . K.& & % * * * & & p#q#r#s#N@% % _ & ( t#A+y.< . j#u#% & v#A+A+< A+< w#x#& & i '+9 y#~ & n## # ",
"h z#A#& & B#C#D#E#F#G#H#I#J#K#L#L#i M#y N#O#P#s+v.Q#; R#S#T#U#; V#I.R#s+X@& & =.W#X#X#Y#Z#Z#~+# # ",
"Z.<+& & & `#^.| | f f  $.$+$@$#$j j $$'.W L.~ =.B O.*@%$' &$u Z@j *$% _ _ & & >@=$-$-$;$@ 2 # # # ",
"& % & & & >$. < A+J.J.,$'$b#j # # j )$a X !$_ _ ~$C+9 %$T T ~.# # *$% & & & =.<+{$]$^$/$($j j # # ",
"_$:$<$& & &@[$}$|$1$2$3$&@V+4$# # j )$) Y 5$6$7$*.V+8$9$0$0.a$8$V+b$& & & _$_$Q c$d$e$f$g$h$i$V+V+",
"# # :@& & % % & j$# # k$Z.& l$# # # v@) X Y M.m$n$& * b@j j l+o$& & & & _ `@# C+O.'$'+p$Y@' q$~ & ",
"j # r$s$~ P.& _ j$j j t$Z.& _ 3 # # u$a Y W W W n$& & v$j # l+% & & _ & & g+%.o#w$o#x$y$' M.q$~ % ",
"h :$z$A$B$C$n$Z D$&+&+P#( & =.E$F$G$H$W Y I$J$K$L$_ _ M$# # l+& & N@N$O$).1$1 j+P$+ Q$2@=+=+R$S$> ",
"( ( T$Z@*@U$S ) V$W$& D & & $#T W W S.X Y X$~ & & & & g.# # l+% & D$a W =#Y$A+< < A+!@Z$& & B$# Z@",
"_ ~ B # # `$ %T V$_ & _ & & S@' Y Y a ' T .%_ & & _ & &@# # i & _ m@a W a 3#| < ] [ +%@%~ s$> Z@j ",
"_ ~ B # # #%I$$%%%&%c.*%& & ~ r =%=%-%;%>%,%'%j$$#)%!%~%{%H ]%^%/%(%_%W a :%<%[%}%|%[%1%2%3%4%5%6%",
"_ ~ B # # |@& & 7%- - 8%>#& * C+]+# 9%< !@d@j # 0%) N+a%6 . - ] J.b%_%Y =#c%d%e%.$.$}$f%g%^$h%=.% ",
"& _ B O.j i%& & j%< A+k%$@& 5@2 r+%.l%] ^.m%b#j n%a ' a%!@< A+| . o%a W P@p%2 <@`@2 q%f%r%E.s%t%% ",
"u%v%|@w%C@G+& & x%y%z%A%B%& 5@2 ]+C%:%b%D%E%`@# F%G%H%I%J%K%L%M%N%O%) Y f+p%# # # # `@P%Q%R%S%T%U%",
"j V%B$% 5 & & & W%@ @ / Z.& 5@`@j 2 X%% W$B@j K.Y%h#Z%`%2 2  &Y M.=#m$Y .&c%# # # # # +&@&#&m ) W ",
"# j :@% & & & & j$# # @%Z.& $&`@j # y+& & B@j %&&&r#*&=&%&-&;&X W W M.Y P@c%# # # # # &@& ~ >&W W ",
",&,&'&_ s$~ & & j$# # @%P.& 5 9 # 9 h+o$o$)&# `@!&~&~&{&b#/@]&W ' W W W ^&/&*@*@*@9 9 |.(&_&:&U.N+",
"<&<&[&<.[&K$D & '%# # @%Z.& & }&D m#|&1&@.$ }&]#2&3&4&0%]#5&( 6&~#}&D@7&8&9&D D D D 5&0&2#e@a&,$b&",
"X W W ' W =+D & '%# # @%P.& & & & % c&. < d&~ & & _ & & & & & & & ]## # # e&& & & & & f&< - [ < | ",
"W W Y W Y 7@D & '%# # g&P._ _ & & % }%!@. h&_ & & & & & & & & & _ 0## j 9 i&& & & & ~ j&< < < < < ",
", k&,@B B l&% & e&m&m&w@n&o&p&t+& & W@I q&r&L#s&9$& & t&'@C.N#C.z u&s ~.v&,#& & w&x&y&z&A&B&B&B&C&",
"_ ~ B # # &+& & & & _ <+D&E&F&~ & & ^@C+$.`@j # B$& ~ G&'.Y W X Y Y Y W T ~#& & H&#.j#I&}$v.v.v.J&",
"& ( Q Z@j |@& % & & & <+K&L&M&n%% & ^@j ]+j j # B$& ~ N&M.X M.Y Y Y Y ' T R$& & O&| A+P&'$j # j j ",
"Q&|@R&8$8$m&& & B$^+S&T&<+U&V&W&X&Y&Z&b@`&}&&. *B#^+8..*+*@*@*G@+*L.#*0.$*s$& & Z#'$%*{.'+# # # # ",
"j 3 g.& & & & & 5%&*| **% ~ >@M.Y Y =*& _ -*) a ;*+%| [.& & & & & >*9 # b#{#& & & ~ & |@# j # # # ",
"j # g.& & & & & ,*'*j#N%o$% ~ X M.W (@~ _ )*W m$!*< f [.& & & & & A@9 # # 5&~*_ % & & Q # # j # # ",
"# # g.& & {*j j /.]*6+i+^*/*(*J$_*:*<*[*}*|*1+1*B#2*/+]%b@g.b$& & ]#B |@B 3*4*5*6*> S$G+_$_$7*8*9*",
"# # g.& & 0*. ~@[%L@a*$+O.# 9 ( ~ U&b*c*d*e**._ f*O.L@v.9 *@g*& & & % & S@h*i*j*k*l*# m*( & s M.W ",
"# # g.& & O.^ . n*2 %.# # # 9 % & o*p*W.j*q*=._ B %#j j # # l+& & & & & ~ r*s*t*u*@ j 8$& & >&a Y "};
