/* XPM */
static char * persopetitng_xpm[] = {
"50 50 246 2",
"  	c #73C260",
". 	c #72BF5F",
"+ 	c #70BD5E",
"@ 	c #6FBC5E",
"# 	c #6AB556",
"$ 	c #62AD4C",
"% 	c #5FAA49",
"& 	c #64AF4F",
"* 	c #6CB85A",
"= 	c #72C05F",
"- 	c #74C261",
"; 	c #79C469",
"> 	c #71BF5F",
", 	c #6FBD5E",
"' 	c #69B556",
") 	c #61AD4C",
"! 	c #61AC4C",
"~ 	c #63AF4F",
"{ 	c #72C15F",
"] 	c #71BE5F",
"^ 	c #71BE5E",
"/ 	c #6FBB5D",
"( 	c #6EB95C",
"_ 	c #6DB95C",
": 	c #68B354",
"< 	c #60AB4B",
"[ 	c #5EA949",
"} 	c #62AE4E",
"| 	c #6AB658",
"1 	c #6FBC5D",
"2 	c #71C05F",
"3 	c #6EBA5D",
"4 	c #6DB85B",
"5 	c #67B254",
"6 	c #63AE4E",
"7 	c #6AB557",
"8 	c #6DB95B",
"9 	c #6EBB5D",
"0 	c #67B253",
"a 	c #62AD4E",
"b 	c #6EBA5C",
"c 	c #69B657",
"d 	c #66B353",
"e 	c #65B151",
"f 	c #64B050",
"g 	c #64AF50",
"h 	c #63AE4F",
"i 	c #63AD4F",
"j 	c #60AB4C",
"k 	c #5DA748",
"l 	c #5CA647",
"m 	c #5EA849",
"n 	c #62AC4D",
"o 	c #67B453",
"p 	c #6AB757",
"q 	c #67B353",
"r 	c #63AF4E",
"s 	c #62AE4D",
"t 	c #61AC4B",
"u 	c #60AB4A",
"v 	c #5FAA4A",
"w 	c #5FA949",
"x 	c #67B454",
"y 	c #60AC4B",
"z 	c #5DA848",
"A 	c #5EA848",
"B 	c #5DA647",
"C 	c #5CA646",
"D 	c #5BA546",
"E 	c #5BA446",
"F 	c #65B251",
"G 	c #65B051",
"H 	c #70BE5E",
"I 	c #61A550",
"J 	c #5A9B4A",
"K 	c #5A9A49",
"L 	c #589647",
"M 	c #579446",
"N 	c #589B46",
"O 	c #5AA246",
"P 	c #589A46",
"Q 	c #589747",
"R 	c #5B9B4A",
"S 	c #62A651",
"T 	c #5F9E50",
"U 	c #57904A",
"V 	c #568F49",
"W 	c #558B47",
"X 	c #548A46",
"Y 	c #538946",
"Z 	c #569546",
"` 	c #5AA146",
" .	c #5AA046",
"..	c #569446",
"+.	c #558C47",
"@.	c #609F51",
"#.	c #5E9D50",
"$.	c #578E4A",
"%.	c #568D49",
"&.	c #548A47",
"*.	c #538846",
"=.	c #569346",
"-.	c #578F4A",
";.	c #5F9E51",
">.	c #5BA346",
",.	c #5A9F46",
"'.	c #569246",
").	c #528746",
"!.	c #538746",
"~.	c #559246",
"{.	c #528646",
"].	c #559146",
"^.	c #5BA345",
"/.	c #599F45",
"(.	c #5F9D50",
"_.	c #5AA345",
":.	c #559145",
"<.	c #5E9C4F",
"[.	c #548947",
"}.	c #5D9B4F",
"|.	c #578E49",
"1.	c #6CB75B",
"2.	c #528546",
"3.	c #568C49",
"4.	c #6BB759",
"5.	c #69B457",
"6.	c #69B356",
"7.	c #5D9E4D",
"8.	c #589549",
"9.	c #579448",
"0.	c #569147",
"a.	c #559046",
"b.	c #558F46",
"c.	c #548F46",
"d.	c #579746",
"e.	c #5AA346",
"f.	c #5AA045",
"g.	c #579645",
"h.	c #548F45",
"i.	c #558F45",
"j.	c #589649",
"k.	c #59974A",
"l.	c #61A451",
"m.	c #61AC4E",
"n.	c #5DA449",
"o.	c #5BA148",
"p.	c #5BA147",
"q.	c #599E46",
"r.	c #599D46",
"s.	c #5AA245",
"t.	c #5BA246",
"u.	c #599D45",
"v.	c #5BA047",
"w.	c #5EA54A",
"x.	c #64AD51",
"y.	c #5CA747",
"z.	c #5DA547",
"A.	c #7AC469",
"B.	c #65B050",
"C.	c #73C161",
"D.	c #79C369",
"E.	c #71BE60",
"F.	c #77C068",
"G.	c #70BC5F",
"H.	c #76BE67",
"I.	c #62AD4D",
"J.	c #5CA547",
"K.	c #6AB558",
"L.	c #6BB659",
"M.	c #74BC65",
"N.	c #6AB657",
"O.	c #68B355",
"P.	c #68B255",
"Q.	c #67B255",
"R.	c #61AB4C",
"S.	c #599E45",
"T.	c #569545",
"U.	c #5FA94B",
"V.	c #63AE50",
"W.	c #66B153",
"X.	c #6DB45D",
"Y.	c #599C45",
"Z.	c #538C45",
"`.	c #518445",
" +	c #518545",
".+	c #528A45",
"++	c #579946",
"@+	c #5BA445",
"#+	c #60AA4A",
"$+	c #67AD56",
"%+	c #70BC5E",
"&+	c #538D45",
"*+	c #60AA4B",
"=+	c #579945",
"-+	c #528845",
";+	c #61AB4B",
">+	c #61AC4D",
",+	c #69AE58",
"'+	c #589946",
")+	c #579846",
"!+	c #66B052",
"~+	c #66B152",
"{+	c #6FB65F",
"]+	c #5EA94A",
"^+	c #6DB85A",
"/+	c #75BE67",
"(+	c #6DBA5C",
"_+	c #5CA546",
":+	c #6FBA5D",
"<+	c #71BD5E",
"[+	c #5EAA4A",
"}+	c #6CB75A",
"|+	c #67B354",
"1+	c #71BF5E",
"2+	c #6EBB5C",
"3+	c #6EB95B",
"4+	c #6FBB5C",
"5+	c #70BC5D",
"6+	c #72BF60",
"7+	c #70BD5F",
"8+	c #64AF51",
"9+	c #6CB85B",
"0+	c #71BD60",
"a+	c #72C060",
"b+	c #73C160",
"c+	c #70BB5D",
"d+	c #6EB85C",
"e+	c #6EB95D",
"f+	c #71BD5F",
"g+	c #74C262",
"h+	c #7AC46A",
"i+	c #77C169",
"j+	c #76BE68",
"k+	c #71B861",
"l+	c #6AAF58",
"m+	c #6BB25B",
"n+	c #73BA64",
"o+	c #76BF68",
"p+	c #78C268",
"q+	c #79C368",
"r+	c #76BE66",
"s+	c #74BB65",
"t+	c #75BC65",
"u+	c #76BF67",
"v+	c #78C368",
"w+	c #7FC672",
"                              . + @ # $ % % % % & * @ + =                                       - ; ",
"                              > , @ ' ) % % % % & * @ + =                                       - ; ",
"                              > @ @ ' ! % % % % ~ * @ + =                                       - ; ",
"      { { { > ] ] ^ + , + + + / ( _ : < [ [ [ [ } | _ ( 1 + + + + + + + + + + , + ] > 2 { { {   - ; ",
"      { { { ] ] ] + @ @ @ @ @ 3 4 4 5 < [ [ [ [ 6 7 4 8 9 @ @ @ @ @ @ @ @ @ @ @ @ ] ] > { { {   - ; ",
"      { { { ] ] ^ @ / / / / / ( 4 4 0 < [ [ [ [ a 7 4 4 b 1 / / / / / / / / / / @ ^ ] ] { { {   - ; ",
"      > ] ] c d d e f g g g g & h i j k l l l l m n h h & f g g g g g g g g g f e d o p ] > =   - ; ",
"      ] ] ] q r s t u v v v v v w [ m l l l l l k m [ % v v v v v v v v v v v u t s r x ] ] >   - ; ",
"      ] ] ^ d s s y % % % % % w [ [ z l l l l l l z [ [ w % % % % % % % % % % % y s } q ] ] >   - ; ",
"      ^ + @ e t y A B B B B B B l l C D E E E E D l l B B B B B B B B B B B B B z y y F @ + ^   - ; ",
"      + @ / f u % B E E E E E E E E E E E E E E E E E E E E E E E E E E E E E E B % u G / @ H   - ; ",
"      , @ / g v % B E E E E E E E E E E E E E E E E E E E E E E E E E E E E E E B % u G 1 @ H   - ; ",
"      + @ 9 I J K L M M M M M M M M N O E E E E E E E E E E O P M M M M M M M M Q K R S 9 @ H   - ; ",
"      + @ 9 T U V W X Y Y Y Y Y Y Y Z ` E E E E E E E E E E  ...Y Y Y Y Y Y Y X +.V U @.9 @ H   - ; ",
"      + @ 9 #.$.%.&.*.*.*.*.*.*.*.*...` E E E E E E E E E E  .=.*.*.*.*.*.*.*.*.&.%.-.;.9 @ H   - ; ",
"      + @ 9 #.$.%.&.*.*.*.*.*.*.*.*...` E E >.>.>.>.>.>.>.E ,.'.).!.*.*.*.*.*.*.&.%.-.;.9 @ H   - ; ",
"      + @ 9 #.$.%.&.*.*.*.*.*.*.*.*...` E >.>.>.>.>.>.>.>.>.,.~.{.).!.*.*.*.*.*.&.%.-.;.9 @ H   - ; ",
"      + @ 9 #.$.%.&.*.*.*.*.*.*.*.*...` E >.>.>.>.>.>.>.>.>.,.].{.{.).*.*.*.*.*.&.%.-.;.9 @ H   - ; ",
"      + @ 9 #.$.%.&.*.*.*.*.*.*.*.*...` E E E E >.>.^.^.^.^.,.].{.{.).*.*.*.*.*.&.%.-.;.9 @ H   - ; ",
"      + @ 9 #.$.%.&.*.*.*.*.*.*.*.*...` E E E E >.>.^.^.^.^./.].{.{.).*.*.*.*.*.&.%.-.;.9 @ H   - ; ",
"      + @ 9 (.$.%.&.*.*.*.*.*.*.*.*...` E E E E E >.^.^._.^./.:.{.{.).*.*.*.*.*.&.%.-.;.9 @ H   - ; ",
"= = . 1 9 b <.$.%.&.*.*.*.*.*.*.!.)... .E >.>.>.>._._._._.^./.:.{.{.).).).).).*.[.%.-.;.9 @ H   - ; ",
"+ + + ( 8 4 }.|.%.&.*.*.*.*.*.!.).{.=. .>.>.^.^.^.^.^._._.^./.:.{.{.{.{.{.{.{.).[.%.-.;.9 @ H   - ; ",
"@ @ @ _ 4 1.}.|.%.&.*.*.*.*.*.).{.2.'.,.>.^.^._._._.^.^._._./.:.2.{.{.{.{.{.{.{.[.3.$.;.9 @ H   - ; ",
"4.4.4.5.5.6.7.8.9.0.a.a.a.a.a.b.c.c.d.` ^.^._._._._.^.^.e.>.f.g.h.b.b.i.b.b.c.b.0.j.k.l.9 @ H   - ; ",
"6 } } a m.n n.o.p.,.q.q.q.q.q.q.r.r. .s.^.^._._.^.>.>.>.>.>.t./.u.u.u.u.u.r.r.q.v.n.w.x./ @ H   - ; ",
"% % % [ [ [ y.l l D E E E E E E >.>.^.^.^._._._.^.^.>.>.>.>.>.>._._._.^._.^.>.>.z.% u G @ @ H   - A.",
"% % % [ [ [ l l l E E E E E E E >.>.^.^._._._._.^.>.>.>.>.>.>.>.^._._.^.^.^.>.>.B % u B.9 / + = C.D.",
"% % % [ [ [ l l l E E E E E E E E >.^.^._._._.^.>.>.>.>.>.>.>.>._._._._.^.^.>.E B w % & 8 ( b + E.F.",
"% % % [ [ [ l l l E E E E E E E E E >.^._._._._.>.>.>.>.>.>.>.>.^._._._.^.^.E E l [ [ h 4 4 8 @ G.H.",
"I.$ $ j j j z l l D E E E E E E E E >.^._._._._.s. .,.,.,.,. .O ^.^.^.^.^.>.E E J.[ [ a K.L.4.8 b M.",
"N.N.c O.P.Q.R.m z l E E E E E E E E >.>.>.>.^.^.S.T.].].].]...r.^.^.^.^.>.>.E E D k k U.V.g g e W.X.",
"@ @ @ 8 4 4 i [ [ l E E E E E ^.^._.E E E >.>.>.Y.Z.`. + +`..+++>.>.>.>.>.>._._.@+l l l [ [ [ % #+$+",
"+ + %+( 8 4 h w [ l E E E E E E ^.^.E E E >.>.>.Y.&+ + + + +.+++>.>.>.>.>.>._.@+D l l l [ [ [ % *+$+",
"= . > / 9 b & v [ l E E E E E E D D E E E >.>.>.Y.&+ + + + +.+++>.>.>.>.E E D D D l l l [ [ [ % *+$+",
"      + @ / g v % B E E E E E J.l l D E E >.>.>.Y.Z. + + + +.+=+>.>.>.E E D l l l l l l [ [ [ % #+$+",
"      + @ / g v % B E E E E E D l l D E E E >.>.r.h.-+-+-+-+&+P >.>.E E E D l l l l l k v *+< ;+>+,+",
"      + @ / g v % B E E E E E D D J.D E E E E >. .'+g.g.g.g.)+,.>.E E E E E J.J.l k m *+!+~+0 O.6.{+",
"      , @ / g v % B E E E E E E E E E E E E E E E E E E E E E E E E E E E E E E l [ ]+h ^+4 8 @ G./+",
"      + @ / f u % B E E E E E E E E E E E E E E E E E E E E E E E E E E E E E E l [ v h 4 4 (+@ G.H.",
"      ^ + @ e t y A B B B B B l l l J.E E E E E _+l l l l l l l l l l l l l l l z u u B.b :+/ ^ ] F.",
"      ] ] <+d s s y % % % % % [ [ [ z l l l l l l z [ [ [ [ [ [ [ [ [ [ [ [ [ [ u s s q <+] .   - ; ",
"      > ] ] o r s t u u u u u #+v [+m y.l l l l k [ v ]+]+v v [ [ [ [ [ ]+w w v u s r x ] ] >   - ; ",
"      = > > p o q F G G G G G g h h R.z y.l y.y.[ a h h h h h h 6 6 6 6 h h & h B.q x p > > =   - ; ",
"            > ] <+@ / 1 1 1 1 b 4 4 0 < [ [ [ [ a 7 4 4 4 4 4 }+}+}+}+}+}+}+4 4 b <+] >         - ; ",
"            > ] ] + @ @ @ @ @ 3 4 4 |+< [ [ [ [ a 7 4 4 4 4 4 4 }+}+}+}+}+}+4 4 :+] ] >         - ; ",
"            = > > 1+H H H H H / b _ O.j [ [ [ [ 6 | _ ( b 2+b 8 }+}+}+}+}+3+2+4+5+> > =         - ; ",
"                              > @ @ ' ! % % % % ~ * @ + > { 1+4+4 4 4 4 8 5+{ { {               - ; ",
"- - - - - - - - - - - - - - - 6+7+G.N.I.#+*+*+#+8+9+G.0+a+b+= c+d+d+d+d+e+f+b+b+b+- - - - - - - g+h+",
"; ; ; ; ; ; ; ; ; ; ; ; ; ; ; i+j+H.k+l+$+$+$+$+m+n+H.o+p+q+p+r+s+s+s+s+t+u+v+v+q+; ; ; ; ; ; ; h+w+"};
