/* XPM */
static char * testimgmini_xpm[] = {
"49 49 348 2",
"  	c None",
". 	c #000000",
"+ 	c #120A0A",
"@ 	c #160D0C",
"# 	c #241816",
"$ 	c #31211F",
"% 	c #382624",
"& 	c #241817",
"* 	c #160E0C",
"= 	c #120B0A",
"- 	c #201614",
"; 	c #382826",
"> 	c #533C39",
", 	c #6C4D49",
"' 	c #7A5753",
") 	c #6D4D4A",
"! 	c #543C39",
"~ 	c #221715",
"{ 	c #221716",
"] 	c #322220",
"^ 	c #3C2A28",
"/ 	c #45312F",
"( 	c #4A3532",
"_ 	c #604441",
": 	c #6F4F4C",
"< 	c #694B47",
"[ 	c #664845",
"} 	c #332422",
"| 	c #4F3836",
"1 	c #5D423F",
"2 	c #654845",
"3 	c #322321",
"4 	c #4B3633",
"5 	c #4C3633",
"6 	c #513A37",
"7 	c #573E3B",
"8 	c #634743",
"9 	c #6C4D4A",
"0 	c #6A4C48",
"a 	c #43302E",
"b 	c #3D2B29",
"c 	c #2A1D1C",
"d 	c #3E2D2A",
"e 	c #3F2D2B",
"f 	c #44312E",
"g 	c #74524F",
"h 	c #6D4E4A",
"i 	c #312321",
"j 	c #332523",
"k 	c #362725",
"l 	c #3A2927",
"m 	c #4E3835",
"n 	c #F3C28D",
"o 	c #A98663",
"p 	c #7F634A",
"q 	c #F6C58F",
"r 	c #F7C590",
"s 	c #CCA367",
"t 	c #8D6F49",
"u 	c #302220",
"v 	c #352624",
"w 	c #654D3F",
"x 	c #80644B",
"y 	c #FCCA92",
"z 	c #C19970",
"A 	c #9B7B5A",
"B 	c #E9BA87",
"C 	c #FBC991",
"D 	c #FFCC94",
"E 	c #C29A61",
"F 	c #856944",
"G 	c #2D201E",
"H 	c #AA8763",
"I 	c #E8B986",
"J 	c #E8BA87",
"K 	c #3A2A27",
"L 	c #886C42",
"M 	c #614B30",
"N 	c #9E7D5B",
"O 	c #D1A779",
"P 	c #CCA375",
"Q 	c #B9936A",
"R 	c #2A1E1C",
"S 	c #BA946A",
"T 	c #E2B582",
"U 	c #2E201D",
"V 	c #19100F",
"W 	c #CFA567",
"X 	c #8C6F44",
"Y 	c #E7B886",
"Z 	c #110C06",
"` 	c #A98760",
" .	c #090603",
"..	c #090504",
"+.	c #1F1513",
"@.	c #8B6E4F",
"#.	c #9A7B57",
"$.	c #060402",
"%.	c #A3A3A3",
"&.	c #D2D2D2",
"*.	c #646464",
"=.	c #644F37",
"-.	c #030201",
";.	c #A5A5A5",
">.	c #BEBEBE",
",.	c #C6C6C6",
"'.	c #FFFFFF",
").	c #7B7B7B",
"!.	c #C9C9C9",
"~.	c #E7E7E7",
"{.	c #BA945C",
"].	c #E0B379",
"^.	c #F9C790",
"/.	c #100B06",
"(.	c #1F1F1F",
"_.	c #2B2B2B",
":.	c #0F0F0F",
"<.	c #896C42",
"[.	c #060401",
"}.	c #202020",
"|.	c #262626",
"1.	c #BB955D",
"2.	c #7F643D",
"3.	c #2D2211",
"4.	c #654F2F",
"5.	c #C39B61",
"6.	c #E6B77C",
"7.	c #7D6245",
"8.	c #7B6145",
"9.	c #A68456",
"0.	c #D4A96A",
"a.	c #665030",
"b.	c #41321C",
"c.	c #EFBF85",
"d.	c #8D6F44",
"e.	c #4E3C23",
"f.	c #A68451",
"g.	c #CBA265",
"h.	c #DFB275",
"i.	c #EEBE84",
"j.	c #FFCC93",
"k.	c #F5C48E",
"l.	c #C89F73",
"m.	c #BB9567",
"n.	c #BF985F",
"o.	c #FECB93",
"p.	c #E7B885",
"q.	c #D3A86A",
"r.	c #6B5432",
"s.	c #A38150",
"t.	c #C79E72",
"u.	c #A07F5B",
"v.	c #D7AC7C",
"w.	c #AC8862",
"x.	c #464646",
"y.	c #4E4E4E",
"z.	c #AA8761",
"A.	c #785F43",
"B.	c #CCA275",
"C.	c #505050",
"D.	c #5C5C5C",
"E.	c #D3D4D4",
"F.	c #D9DADA",
"G.	c #E1E1E1",
"H.	c #FEFEFE",
"I.	c #E1E2E2",
"J.	c #AEAEAE",
"K.	c #0A0602",
"L.	c #D1A769",
"M.	c #FECC93",
"N.	c #110B05",
"O.	c #666666",
"P.	c #A1A1A1",
"Q.	c #5B5B5B",
"R.	c #2E2E2E",
"S.	c #2D2D2D",
"T.	c #7C7C7C",
"U.	c #DDDEDE",
"V.	c #E8E8E8",
"W.	c #E8E9E9",
"X.	c #BEBFBF",
"Y.	c #696969",
"Z.	c #BC965E",
"`.	c #D7AB77",
" +	c #E6B885",
".+	c #070502",
"++	c #757575",
"@+	c #888989",
"#+	c #AEAFAF",
"$+	c #7C7D7D",
"%+	c #3E3E3E",
"&+	c #222222",
"*+	c #9E9E9E",
"=+	c #F1F2F2",
"-+	c #0C0C0C",
";+	c #A1A2A2",
">+	c #767676",
",+	c #C1C1C1",
"'+	c #EDEDED",
")+	c #D5D5D5",
"!+	c #CBCBCB",
"~+	c #EFF0F0",
"{+	c #FCFCFC",
"]+	c #F7F8F8",
"^+	c #EBEBEB",
"/+	c #929393",
"(+	c #919292",
"_+	c #737373",
":+	c #777777",
"<+	c #606060",
"[+	c #9D9E9E",
"}+	c #A4A5A5",
"|+	c #AAAAAA",
"1+	c #B1B2B2",
"2+	c #D0D1D1",
"3+	c #8F9090",
"4+	c #4B4B4B",
"5+	c #3A3A3A",
"6+	c #909090",
"7+	c #686868",
"8+	c #F8F8F8",
"9+	c #DADBDB",
"0+	c #ADAEAE",
"a+	c #B2B2B2",
"b+	c #B6B7B7",
"c+	c #BBA0A0",
"d+	c #D3B6B6",
"e+	c #6F6F6F",
"f+	c #494949",
"g+	c #F5F5F5",
"h+	c #B5B5B5",
"i+	c #8D8D8D",
"j+	c #C3C3C3",
"k+	c #C8C8C8",
"l+	c #D6D6D6",
"m+	c #717272",
"n+	c #717171",
"o+	c #979898",
"p+	c #C0C1C1",
"q+	c #909191",
"r+	c #333333",
"s+	c #DFC0C0",
"t+	c #FCD9D9",
"u+	c #0C0A0A",
"v+	c #656666",
"w+	c #CCCCCC",
"x+	c #E4E4E4",
"y+	c #716060",
"z+	c #F8D6D6",
"A+	c #FBD8D8",
"B+	c #FDFDFD",
"C+	c #B4B4B4",
"D+	c #8C8C8C",
"E+	c #FBC992",
"F+	c #A7855F",
"G+	c #624D2E",
"H+	c #D1A668",
"I+	c #F3C28A",
"J+	c #C8A073",
"K+	c #212121",
"L+	c #6F6161",
"M+	c #E5C5C5",
"N+	c #E7C8C8",
"O+	c #E7C7C7",
"P+	c #F1F1F1",
"Q+	c #E5E5E5",
"R+	c #A2A2A2",
"S+	c #F3F3F3",
"T+	c #B6B6B6",
"U+	c #808080",
"V+	c #9A7A57",
"W+	c #5A4629",
"X+	c #C09960",
"Y+	c #F4B37F",
"Z+	c #CB9369",
"`+	c #4F4F4F",
" @	c #5D5D5D",
".@	c #595959",
"+@	c #515151",
"@@	c #B3B3B3",
"#@	c #545454",
"$@	c #E60000",
"%@	c #CB0000",
"&@	c #5C5D5D",
"*@	c #3B3B3B",
"=@	c #ECECEC",
"-@	c #F0F0F0",
";@	c #BFC0C0",
">@	c #A2A3A3",
",@	c #C0C0C0",
"'@	c #888888",
")@	c #292929",
"!@	c #424242",
"~@	c #886C4C",
"{@	c #9C7C58",
"]@	c #AF0000",
"^@	c #A80000",
"/@	c #626262",
"(@	c #6C6D6D",
"_@	c #414141",
":@	c #CBA275",
"<@	c #E7B986",
"[@	c #434343",
"}@	c #636464",
"|@	c #666767",
"1@	c #444444",
"2@	c #727373",
"3@	c #5A5A5A",
"4@	c #565656",
"5@	c #766350",
"6@	c #796044",
"7@	c #020202",
"8@	c #150D0C",
"9@	c #372826",
"0@	c #372726",
"a@	c #010101",
"b@	c #140C0B",
"c@	c #201514",
"d@	c #3D2C2A",
"e@	c #3F2D2A",
"f@	c #160E0D",
"g@	c #3B2A28",
"h@	c #463230",
"i@	c #493431",
"j@	c #4B3533",
"k@	c #473230",
"l@	c #010000",
"m@	c #3E2C2A",
"n@	c #010100",
"o@	c #291D1C",
"p@	c #4D3734",
"q@	c #18100F",
"r@	c #180F0E",
"s@	c #231816",
"t@	c #503937",
"u@	c #312220",
"v@	c #4F3936",
"w@	c #422E2C",
"x@	c #2F211F",
"y@	c #302221",
"z@	c #382825",
"A@	c #4F3835",
"B@	c #47322F",
"C@	c #1D1312",
"D@	c #2B1E1C",
"E@	c #0C0706",
"F@	c #251918",
"G@	c #251A18",
"                          . . . . . . . . .                                                       ",
"                        + @ # $ % % % $ & * =                                                     ",
"                    . . - ; > , ' ' ' ) ! ; ~ .                                                   ",
"                  = { ] ^ / ( _ : ' : < [ / } -                                                   ",
"                . @ ; | ! ! ; ( 1 ' 1 2 ' ! / 3 .                                                 ",
"              . & } 4 / ( ! 5 6 7 8 9 0 8 a b 3 .                                                 ",
"              . c d ! e f ! ! ! ! ! g h ! ; ; i .                                                 ",
"            . j k ; l m ( l n o p q r r q s t 3 .                                                 ",
"            . u v ; ; 4 w x y z A B C D D E F G .                                                 ",
"            . . c ; ; ; H D D D I ; J D D K { .                                                   ",
"            . L M G ; N O D P P Q R S T D U V .                                                   ",
"            . W X @ ; Y D D Z . . . . ` D  .. . .                                                 ",
"            . W X ..+.@.#.#.$.%.&.&.*.=.#.-.;.>..                                                 ",
"            . W X . . . . . . ,.'.'.).. . . !.~..                                                 ",
"            . W X . . {.].^./.(._._.:.<.W [.}.|..                                                 ",
"            . 1.2.3.4.5.6.D 7.8.8.8.8.9.0.a.b.. .                                                 ",
"              . . 4.0.0.6.D D D D D D c.0.0.d..                                                   ",
"              . . e.f.g.h.i.j.D k.l.l.m.f.0.d..                                                   ",
"                . . . n.0.0.o.D p.. . . . q.d..           . .                                     ",
"              . . . . r.s.0.o.t.u.v.v.w.. q.d..         . x.y.. . . . . . .               .       ",
"              . . . . . <.0.o.z.A.D D B.. q.d..         . C.D.. . . . . . .               .       ",
"            . E.F.G.H.I.J.K.L.i.j.D D D M.N.            . C.O.O.O.O.O.F.P.Q.. . . . . . R.O.S.. . ",
"          O.T.U.I.V.'.W.X.Y.Z.`. + + + + +.+            . C.O.O.O.++@+F.#+$+R.R.R.R.R.R.%+O.%+&+. ",
"        . *+'.'.'.'.'.'.=+F.-+. . . . . . .             . C.O.O.O.;+F.F.F.!.O.O.O.O.O.O.O.O.O.C.. ",
"        . >+,+'+)+!+~+{+]+^+/+(+(+(+(+_+. :+<+          (+[+}+}+}+|+1+F.F.2+}+}+3+O.4+4+4+4+4+5+. ",
"      . . . . E.6+7+F.8+'.'.9+F.F.F.F.0+. a+>+. .     . F.F.F.F.F.b+O.F.F.F.F.F.b+O.. . . . . . . ",
"    . . c+d+d+e+f+7+F.8+'.'.g+h+i+F.~+j+. a+k+l+l+e+. . m+n+n+n+n+o+p+6+q+q+q+q+>+r+              ",
"  . . . s+t+t+u+. 7+F.8+'.'.'.|+v+F.8+w+. a+x+'.'.).. . . . . . . q+F.O.O.O.O.O.C..               ",
". . y+z+A+t+t+u+. 7+F.8+'.'.'.B+g+F.8+w+. a+C+,.'.j+D+. E+F+G+H+I+J+. . . . . . .                 ",
". K+L+M+N+O+M+u+. 7+F.8+{+8+'.P+Q+F.8+w+. R+R+h+S+T+U+. I V+W+X+Y+Z+. . . . . .                   ",
". `+ @. .@+@.   . 7+F.8+=+F.H.|+v+F.8+w+. . . +@@@#@. . . . . . $@%@. . . . .                     ",
". 5+&@/+<+*@.   . 7+F.=@V.F.-@;@>@F.=@,@. . . f+'@%+)@!@. ~@{@. ]@^@. . . . .                     ",
". . /@F.(@. .   . 7+F.F.F.F.F.F.F.F.F.0+.       . . _@O.. :@<@. . .                               ",
". [@}@6+|@1@.   . r+2@2@2@2@2@2@2@2@2@3@.       . y. @O.4@5@6@.                                   ",
". `+O.O.O.+@.   . . . . . . . . . . . . .       . D.O.O.O._@. .                                   ",
"  7@7@7@.@+@.   . 8@; 9@0@9@9@; 9@9@; c .         7@7@7@7@a@. .                                   ",
"    . . C.4+.   b@c@; d@e@e e e@e@e@e@} f@        . . . . . . .                                   ",
"      . . .   . c ; ; | ! ! ! ! ! ! ! ( ; .                                                       ",
"      . .     . c g@h@6 ! ! i@i@j@! ! | k@l@                                                      ",
"              . c e@! ! ! ! ; ; m@! ! ! ! n@                                                      ",
"              . o@e@! ! p@e q@r@s@e t@! ! u@c@.                                                   ",
"              . c e@! ! j@; a@. * ; v@! ! ; ~ .                                                   ",
"            . k ; e@! ! w@.       . 4 ! ! ; ~ .                                                   ",
"            . x@y@z@A@A@b .       . B@A@A@u@C@.                                                   ",
"            . . . @ ; ; D@.       . 3 ; ; . . . .                                                 ",
"          . . . . E@F@F@c@          s@F@G@. . . . .                                               ",
"        . . . . . . . . .           . . . . . . . . .                                             ",
"        . . . . . . . . .           . . . . . . . . .                                             ",
"        . . . . . . . . .           . . . . . . . . .                                             "};
