/* XPM */
static char * wall_xpm[] = {
"49 49 77 1",
" 	c #A7A7A7",
".	c #A3A3A3",
"+	c #9F9F9F",
"@	c #9C9C9C",
"#	c #A4A4A4",
"$	c #A2A2A2",
"%	c #A0A0A0",
"&	c #979797",
"*	c #949494",
"=	c #969696",
"-	c #A1A1A1",
";	c #9D9D9D",
">	c #9B9B9B",
",	c #9A9A9A",
"'	c #999999",
")	c #919191",
"!	c #929292",
"~	c #707070",
"{	c #616161",
"]	c #626262",
"^	c #646464",
"/	c #9E9E9E",
"(	c #939393",
"_	c #959595",
":	c #8E8E8E",
"<	c #8F8F8F",
"[	c #909090",
"}	c #6F6F6F",
"|	c #878787",
"1	c #868686",
"2	c #888888",
"3	c #858585",
"4	c #898989",
"5	c #8B8B8B",
"6	c #8A8A8A",
"7	c #6B6B6B",
"8	c #636363",
"9	c #7C7C7C",
"0	c #7B7B7B",
"a	c #7E7E7E",
"b	c #747474",
"c	c #7F7F7F",
"d	c #808080",
"e	c #7A7A7A",
"f	c #7D7D7D",
"g	c #696969",
"h	c #757575",
"i	c #818181",
"j	c #6A6A6A",
"k	c #838383",
"l	c #787878",
"m	c #767676",
"n	c #737373",
"o	c #6D6D6D",
"p	c #5F5F5F",
"q	c #848484",
"r	c #797979",
"s	c #727272",
"t	c #6C6C6C",
"u	c #5E5E5E",
"v	c #989898",
"w	c #6E6E6E",
"x	c #828282",
"y	c #606060",
"z	c #777777",
"A	c #656565",
"B	c #717171",
"C	c #666666",
"D	c #8D8D8D",
"E	c #676767",
"F	c #5D5D5D",
"G	c #5B5B5B",
"H	c #5C5C5C",
"I	c #A6A6A6",
"J	c #A5A5A5",
"K	c #8C8C8C",
"L	c #686868",
" .+@@@#.$%%%&*=--%;>,'''''''''''';;;,))!!!!!!~{]^",
"#+@,''%+//;/(!_//;'&=___________=>>>&:<[[[[<[}{{]",
"-/=)[[*((((*|1|!(![<[<<<2334566546554111111117{]8",
"%;!26464442690a4444644669bbaccdaa00e0ccaadf00g]]8",
"%;*444244222909664442246fhbfaaadc0000ccccif00j8]^",
"%;*6444444420ef462444466fbhfccccc0000daccif00g8]^",
"_!|fff9ffff9k13fffciiiiia9f|||kfaaccfaclhmnoo{pp{",
"()qr0000lrer3|1000fccdccaac422qaacdccadhbbst7{upp",
"v_1mmm90fdidkqi99999999999fidda9faaccaacafewo]pp{",
",v2bbbafq422idaaaa0000000000ee000ccacca122iw}8p{]",
"'v|nhhcfq224kcccad000000000000000acdccf142iw}8p{8",
",&1nhhcf3222x99ffa0eeeeeeeeeeee0ecafaca|44k}w8py]",
"'=|zee9e9999e0000exqkqqqqqqqqqqqqmhhlcf126kns8pp{",
"'_|00000000000000e14224424224464|hnnmidq22kbb^upy",
"'_|000000000000zzzk1131133qq3qqqkzhmzffq31iss^up{",
"&*|0000000009c9bhb9ccacc00eeremnbaaa900erlmjj^88^",
"&*1e000000009a9bnb9caaac000000mnbaac900000zjj^8]^",
"&*|e0000e0erfa9nnn9dcccf000000mnhafaf0000emjjA8]^",
"([khhmerzmhlzmbBBBhzzmmhhhmmmmhnnsB~sbnhhmm}}A8]^",
")<dnnnmmmhhhs}w}}}}}}}}}BbhhhhnsBCAAC77nhhhnnC8]^",
"<Dasnnzzhbbn}wwwwwwwwwwoBbnnbbsB}AAAEj7snnnssC]{^",
"ppFuuupuuuuFuFFFFFFFFFFFFFFGFFp]{]88]]8]]]]yyuuuy",
"pupupppppppuppppppppppppHGFpppp8]888]{{]]]]ypupp{",
"yppuppuppupuuuuuuuuuppppGGGuppy]8888{{{{{y{pppuuy",
"iaciddddddddqqqqqqiiepppz2|k3q3kqffackx333xffx3q3",
"'=&vvvvvvvvv;;;;;/,vDypy5I#+///;@<<<)',@;;'!)>//%",
"&*=&==&_==&v,@@>>@&=6ppy4J.@;;@>'<::)&&,@>,<<,@@/",
"9e0leeac0hbh9aacddb~7uupa=*4443ddccace000eerre0ef",
"000000aarnnn9ccacch~jupua=*224qacaccf0000000000e0",
"900000fcrnnn9accccbB7upua=*|24qcacac90000000000r0",
"iffffffflhhb0fakxkh~tpypc&*1|1dcacad900faa90000r0",
"K4222100zhhblra462rzB]]{xv&daafcaacacaf2621re00e0",
"K24442r0mnbnrla2260mB{y{xv=caaaacadaxad|42|e000e0",
"qixixxa9iqkqq3qxixbBoyy{3@,111amhmmmlacdidcaa00r0",
"xacacccf3224241cccs}tppy1;>222ahhhhbzccccccac0er0",
"xcididdfq4222|3caas}tppy1/>444ahhhhbzddidddia0ee0",
"dfaaaaaak|24423affswjppyq;>2||ahhhhhlaaaacaaa00e0",
"0e00000ed44444q000wjCppya=(e000fcaacf0000000000r0",
"0000000ed66664qezlojApppa_(elr0fccccfrl0000lr0rz0",
"dfafff00099000emhhogCy]{c_!3qq313cfcd310e0933emhl",
"xaaccf000eeeeezhhhtgE{8]d*!46642|cccd640e0946rhhh",
"xcidid00000000zhhhtgE{8]d=!24464|dacd66fe0f44rhhh",
"ifaffflzrlrlrrmhhho7g{8]c((221|11aaac119ll911lnnh",
"tgggggjjowwwtjtbhhzlb88]e54o77Bzmnnns}wwwwoLLjjj7",
"jgjjjjjgo}}}tjtbhhlen88]054wooszmnnns}}}}}}jgjjjj",
"EACCCA^8CECCAACjjj7jEpyy7nnCAAgt7jjjgCCEC^^^8]88A",
"]{]]]{y{{{{{{{{{{ypppppppuuppp{88{]{y{{ppuupppppy",
"]{{{{{{y{{{{{{{{{ppppppppppppp{88]{{{{ypppppppppy",
"^]]]]]]]]]]]]]]]]{yyppppppy{{{]^^]]]]]]ypppppppp8"};
