/* XPM */
static char * wallng_xpm[] = {
"50 50 75 1",
" 	c #A6A6A6",
".	c #A3A3A3",
"+	c #9F9F9F",
"@	c #9C9C9C",
"#	c #A2A2A2",
"$	c #A0A0A0",
"%	c #999999",
"&	c #959595",
"*	c #9D9D9D",
"=	c #A1A1A1",
"-	c #9E9E9E",
";	c #9B9B9B",
">	c #9A9A9A",
",	c #979797",
"'	c #919191",
")	c #929292",
"!	c #8E8E8E",
"~	c #707070",
"{	c #626262",
"]	c #646464",
"^	c #A4A4A4",
"/	c #969696",
"(	c #939393",
"_	c #989898",
":	c #949494",
"<	c #8F8F8F",
"[	c #909090",
"}	c #8C8C8C",
"|	c #6F6F6F",
"1	c #616161",
"2	c #8B8B8B",
"3	c #878787",
"4	c #888888",
"5	c #868686",
"6	c #8A8A8A",
"7	c #898989",
"8	c #838383",
"9	c #6C6C6C",
"0	c #636363",
"a	c #818181",
"b	c #7D7D7D",
"c	c #7E7E7E",
"d	c #848484",
"e	c #7A7A7A",
"f	c #767676",
"g	c #808080",
"h	c #7F7F7F",
"i	c #7C7C7C",
"j	c #6A6A6A",
"k	c #7B7B7B",
"l	c #797979",
"m	c #747474",
"n	c #787878",
"o	c #858585",
"p	c #696969",
"q	c #828282",
"r	c #777777",
"s	c #6E6E6E",
"t	c #606060",
"u	c #717171",
"v	c #5E5E5E",
"w	c #5F5F5F",
"x	c #6B6B6B",
"y	c #757575",
"z	c #6D6D6D",
"A	c #737373",
"B	c #727272",
"C	c #656565",
"D	c #666666",
"E	c #676767",
"F	c #686868",
"G	c #5D5D5D",
"H	c #5C5C5C",
"I	c #5A5A5A",
"J	c #8D8D8D",
" .+@@@#.#$$$%&&*=$-;>%%%%%%%%%%%%>**@,'')))))!~{{]",
"^$@>%%-+-***/)(;-*>_/&&&&:::&&&&&,>>%:!<[[[<<}|{1{",
"=-,)''::::::234[:('[[[<[}3542222262}27333333589{{0",
"$*(666266662abc366666662defeggaaghbbicgghhgcbej{{0",
"$*:677477444hki567777476dlmnccchhckkkihhhhgbklj0{]",
"+@:277477444hkio74477776dlmlchhhhckkkihchhgiknp0{]",
",(6ghhchhhhcaddahhgqqqq8gikg55ogcccccbhclrrm~s0tt1",
"('okkkkkleeeq55hkkbhhgghhcc8445acchghchcfmmu9j1vww",
",:3lrrkkicghqd8ciiiibbbbiibgqqacbcchhhccbikrsx{ww1",
"%,4rmyibq5358ahcccikkkkkkkkiikkkkbhhchhgo5ob|z0w1{",
"%,4fyybc8347dghhchbkkkkkkkkkkkkkkihhhhch373c|z0w10",
">/3fyybc8344dcbbbcikeeeeeeeeeeekkihccchg374g~z0wt{",
"%/4nnlikchhhbkkkikcaaaaaaaaaaaaqqhnrnkch377aA|0ww1",
"%&4ikkkkkkkkkkkkkea33334333334443amAmlggo44amB]wwt",
"%:4bkkkkkkkkkkklnng53533555o5555ogfyylchd55gAu]vw1",
",:4bkkkkkkkkibiryykgaaaagccbbbieleikkkiibbinzx]{{0",
",(3ikkkkkkkkicbrmmlchcchbkkkeelyArcccikkeelyjp]00]",
",(4ikkkkkkkeicbfAAlhhhhcikkkkklyAncccikkkkeyjpC0{]",
":'olrneennrnllnABBfeeeelnrnnnnrmAyrffrrfrrryz9C0{]",
")<qymmrrffyfyBu~~~uBBBBuBAyyyyyAB|jpj9s|myyyB~D0{]",
"[!gmAAfrfyymu|ss|||||||s~AmmmymBuzCCCEjzAmmmAuD0{]",
"ryzFFFjjpFFEDCCCCCCCCCC]CEEEEFFFFD0]]CDEpjjpFE{tt{",
"vGGvvvvvvvvGvvvvvvvvvvvvGHHGGvvt{{000{1{{{{1twvvwt",
"wvvGvvvvvvvGGvvvvvvvvwwwGIIHvvvt{{{{{1tt1tttwvvGvw",
"B~~uuu~uu~u~BAAAAAuu|Cww]|mAAAAmmAuuuBAAmmmB||BAAm",
"!2}JJJJJJJJJ[)))))[!7uvvB!_&))))'!3336<[))'!47[)):",
"%/,________%@*-**-;%)yvvr> #----*_<<[:%>@**%));--$",
"276666}}2777}<<<<[}3qzvvA)-%:::'<}43462}J!J}53J!![",
"keeleebceyAAlbcchhnu90vv|2&<443qhhchcbeeeeeelleeek",
"kkkkkkbcemAAechhhhlBz0vv|2/<373qchchcikkkkkkkkkkek",
"ciiiiibceymmebcggglBs]wv|2/!345ahchccikkiiikkkkklk",
"oqaaagbinfymnkb8ooim~DtwuJ,!8dahhchhhbibq8qhkkkkek",
"}77773ikrmmmrni577gnmp1tA!_Jcccchchhhgcg464oeekkek",
"753335bkelllibhd53hfBEttA<%!aagbiiiiihcao5o8iikkek",
"8gagaahbaoo5o5oqgalusCwwy)@)53dkyyfyflchgghhcckklk",
"qhhhhhhc8447443ahhr~zCwwy(*(47okyyyyylhhghhhhckeek",
"ahgggghc8344445accr~zCwwm(*(47okyyyyylhggggggckeek",
"hbbbbbbba547745gbbysx0wwA[;[ddqkrnrrnebbbbcbbbkkek",
"kekkkkkeh477775ceeAxF{ww~2&4eekichcccieekkkkeekelk",
"iiikkkkeco33358irruxE{ww~2&7kkicgghhhbikkkkkkiknre",
"gccbbbkkkiikkkeryy~jE011u2:Jooo558cchq5dkekcodefyr",
"qhhhhckkkeeeeenfyy~jF]{{B2:!76674dhhh865kekc74lyyy",
"qhggghkekkkkkknfyy~jF]{{B}&!47774ohchq73iekh43lyyy",
"ckkeeeryrrrrrryyyyus9C{{u7)}d88ddaiiih8alrrkqgfBBA",
"9jjjjjjjzs||zx9Byyfnfj0{|82cz9|mrfAAAB~|||szjjjjjx",
"jpppppppxsss9jx~Amyrmp{{sa4i99sAymBBB~ssssszpFpppp",
"DCDDDC]0CEDDCCCFjpjjF{ttC|BzCCDjxjpjpFDDDC]]]0{00C",
"{1{{{11111111111{1tttwwwwttwwwt{]0{{1111twwwwwwwwt",
"{111111t111111111twwwwwwwwwwwwt{00{1111twwwwwwwwwt",
"]{{{{{{{{{{{{{{{{1ttwwwwwwwt1110]0{{{{{1twwwwwwww{"};
