/* XPM */
static char * 0_xpm[] = {
"20 21 9 1",
" 	c None",
".	c #000000",
"+	c #A2A2A2",
"@	c #E0E0E0",
"#	c #DFDFDF",
"$	c #BABABA",
"%	c #FFFFFF",
"&	c #BBBBBB",
"*	c #B9B9B9",
"                    ",
"..................  ",
"..................  ",
"....................",
"....................",
"....+@@@##########..",
"....$%%%%%%%%%%%%%..",
"....&%%%%****#%%%%..",
"....$%%%%....*%%%%..",
"....*%%%%....*%%%%..",
"....*%%%%....*%%%%..",
"....*%%%%....*%%%%..",
"....*%%%%....*%%%%..",
"....*%%%%....*%%%%..",
"....*%%%%....*%%%%..",
"....*%%%%....*%%%%..",
"....*%%%%****#%%%%..",
"....*%%%%%%%%%%%%%..",
"....+#############..",
"  ..................",
"  .................."};
