/* XPM */
static char * 0_xpm[] = {
"15 20 2 1",
" 	c None",
".	c #5F00FF",
"...............",
"...............",
"...         ...",
"...         ...",
"...  .   .  ...",
"...  .   .  ...",
"...  .   .   ..",
"..   .   .   ..",
"..   .       ..",
"..           ..",
"..           ..",
"..           ..",
"..        .  ..",
"... .     . ...",
"... ..   .. ...",
"...  .....  ...",
"...    .    ...",
"...         ...",
"...............",
"..............."};
