/* XPM */
static char * 1_xpm[] = {
"20 21 8 1",
" 	c None",
".	c #000000",
"+	c #A2A2A2",
"@	c #DFDFDF",
"#	c #B9B9B9",
"$	c #FFFFFF",
"%	c #868686",
"&	c #ADADAD",
"                    ",
"..............      ",
"..............      ",
"................    ",
"................    ",
"....+@@@@@@@@+..    ",
"....#$$$$$$$$#..    ",
"....%####$$$$#..    ",
"  .......$$$$#..    ",
"  .......$$$$#..    ",
"    .....$$$$#..    ",
"    .....$$$$#..    ",
".........$$$$#....  ",
".........$$$$&....  ",
".........$$$$#......",
".........$$$$#......",
"....%####$$$$@####..",
"....#$$$$$$$$$$$$$..",
"....+@@@@@@@@@@@@@..",
"  ..................",
"  .................."};
