/* XPM */
static char * 1_xpm[] = {
"15 20 2 1",
" 	c None",
".	c #EEEB4D",
"      .....    ",
"     ......    ",
"    ...  ..    ",
"   ...   ..    ",
"  ...    ..    ",
"  ..     ..    ",
"  ..     ..    ",
" ..      ..    ",
"..       ..    ",
"..       ..    ",
"         ..    ",
"         ..    ",
"         ..    ",
"         ..    ",
"         ..    ",
"         ..    ",
"         ..    ",
"...............",
"...............",
"..............."};
