/* XPM */
static char * 2_xpm[] = {
"15 20 2 1",
" 	c None",
".	c #4DB6EE",
"   ........    ",
"   ........    ",
"  ..      .    ",
"  .       .    ",
"  .       .    ",
"  . ...   .    ",
"  . . .   .    ",
" .. . .   .    ",
"  .   .  ..    ",
"  .....  .     ",
"     .  ..     ",
"       ..      ",
"       .       ",
"      ..       ",
"     ..        ",
"    ..         ",
"   ..          ",
"  ..           ",
"...            ",
"..............."};
