/* XPM */
static char * 2_xpm[] = {
"20 21 9 1",
" 	c None",
".	c #000000",
"+	c #A2A2A2",
"@	c #DFDFDF",
"#	c #B9B9B9",
"$	c #FFFFFF",
"%	c #868686",
"&	c #606060",
"*	c #CECECE",
"                    ",
"..................  ",
"..................  ",
"....................",
"....................",
"....+@@@@@@@@@@@@@..",
"....#$$$$$$$$$$$$$..",
"....%########@$$$$..",
".............#$$$$..",
"....&%%%%%%%%*$$$$..",
"....#$$$$$$$$$$$$$..",
"....#$$$$$$$$$$$$$..",
"....#$$$$$$$$$$$$$..",
"....#$$$$$$$$$$$$$..",
"....#$$$$%%%%%%%%%..",
"....#$$$$...........",
"....#$$$$#########..",
"....#$$$$$$$$$$$$$..",
"....+@@@@@@@@@@@@@..",
"  ..................",
"  .................."};
