/* XPM */
static char * 3_xpm[] = {
"15 20 2 1",
" 	c None",
".	c #00FF5B",
"...............",
"            ...",
"            .. ",
"           ..  ",
"         ....  ",
"        ....   ",
"        ...    ",
"       ....    ",
"      ....  .  ",
"      ..    .. ",
"  .         .. ",
"  .         ...",
" .          ...",
" .          ...",
"..          ...",
"..          ...",
" .          ...",
" ...        ...",
"  ............ ",
"      .......  "};
