/* XPM */
static char * 4_xpm[] = {
"15 20 2 1",
" 	c None",
".	c #FF0000",
"            ...",
"           ... ",
"          ...  ",
"         ...   ",
"         ..    ",
"        ..     ",
"       ..  .   ",
"     ...   .   ",
"    ..     .   ",
"   ...     .   ",
" ...       .   ",
"..         .   ",
".....      .   ",
"...............",
"       ........",
"           .   ",
"           .   ",
"           .   ",
"           .   ",
"           .   "};
