/* XPM */
static char * 5_xpm[] = {
"15 20 2 1",
" 	c None",
".	c #FF8E00",
"...............",
".              ",
".              ",
".              ",
".              ",
".              ",
"...............",
"...............",
".            ..",
"             ..",
"             ..",
"             ..",
"             ..",
"             ..",
"             ..",
"             ..",
"..           ..",
" .....     ....",
"    ...........",
"      ........ "};
