/* XPM */
static char * 5_xpm[] = {
"20 21 10 1",
" 	c None",
".	c #000000",
"+	c #A2A2A2",
"@	c #DFDFDF",
"#	c #B9B9B9",
"$	c #FFFFFF",
"%	c #868686",
"&	c #B5B5B5",
"*	c #606060",
"=	c #CECECE",
"                    ",
"..................  ",
"..................  ",
"....................",
"....................",
"....+@@@@@@@@@@@@@..",
"....#$$$$$$$$$$$$$..",
"....#$$$$#########..",
"....#$$$$...........",
"....#$$$$%%%%%%%%%..",
"....#$$$$$$$$$$$$$..",
"....#$$$$$$$$$$$$$..",
"....#$$$$$$$$$$$$$..",
"....&$$$$$$$$$$$$$..",
"....*%%%%%%%%=$$$$..",
".............#$$$$..",
"....%########@$$$$..",
"....#$$$$$$$$$$$$$..",
"....+@@@@@@@@@@@@@..",
"  ..................",
"  .................."};
