/* XPM */
static char * 6_xpm[] = {
"15 20 2 1",
" 	c None",
".	c #FFFFFF",
"    ......     ",
"   ..    ...   ",
"  ..      ...  ",
" ..         .. ",
"..          .. ",
"..           . ",
".            . ",
".            . ",
".   ....       ",
". ........     ",
"...      ..    ",
"...      ..    ",
"..        ..   ",
"..        ..   ",
"..        ..   ",
"..       ...   ",
"...      ..    ",
" ...    ...    ",
"   .......     ",
"    .....      "};
