/* XPM */
static char * 7_xpm[] = {
"15 20 2 1",
" 	c None",
".	c #FF7BFA",
"...............",
"...............",
"             ..",
"            .. ",
"           ... ",
"           ..  ",
"          ...  ",
"         ...   ",
"  ...........  ",
"  ...........  ",
"     ........  ",
"      ...      ",
"     ...       ",
"     ..        ",
"    ..         ",
"   ..          ",
" ...           ",
" ..            ",
" ..            ",
"..             "};
