/* XPM */
static char * 7_xpm[] = {
"20 21 7 1",
" 	c None",
".	c #000000",
"+	c #A2A2A2",
"@	c #DFDFDF",
"#	c #B9B9B9",
"$	c #FFFFFF",
"%	c #868686",
"                    ",
"..................  ",
"..................  ",
"....................",
"....................",
"....+@@@@@@@@@@@@@..",
"....#$$$$$$$$$$$$$..",
"....%########@$$$$..",
"  ...........#$$$$..",
"  ...........#$$$$..",
"         ....#$$$$..",
"         ....#$$$$..",
"         ....#$$$$..",
"         ....#$$$$..",
"         ....#$$$$..",
"         ....#$$$$..",
"         ....#$$$$..",
"         ....#$$$$..",
"         ....+@@@@..",
"           .........",
"           ........."};
