/* XPM */
static char * 8_xpm[] = {
"15 20 2 1",
" 	c None",
".	c #0D00FF",
"...............",
"...............",
"...............",
"...............",
".....     .....",
".....     .....",
".....     .....",
".....     .....",
".....     .....",
"...............",
"...............",
"...............",
".....     .....",
".....     .....",
".....     .....",
".....     .....",
".....     .....",
".....     .....",
"...............",
"..............."};
