/* XPM */
static char * 9_xpm[] = {
"20 21 9 1",
" 	c None",
".	c #000000",
"+	c #A2A2A2",
"@	c #DFDFDF",
"#	c #B9B9B9",
"$	c #FFFFFF",
"%	c #606060",
"&	c #868686",
"*	c #CECECE",
"                    ",
"..................  ",
"..................  ",
"....................",
"....................",
"....+@@@@@@@@@@@@@..",
"....#$$$$$$$$$$$$$..",
"....#$$$$####@$$$$..",
"....#$$$$....#$$$$..",
"....#$$$$....#$$$$..",
"....#$$$$....#$$$$..",
"....#$$$$....#$$$$..",
"....#$$$$$$$$$$$$$..",
"....#$$$$$$$$$$$$$..",
"....%&&&&&&&&*$$$$..",
".............#$$$$..",
"....&########@$$$$..",
"....#$$$$$$$$$$$$$..",
"....+@@@@@@@@@@@@@..",
"  ..................",
"  .................."};
