/* XPM */
static char * 9_xpm[] = {
"15 20 2 1",
" 	c None",
".	c #00FFB3",
"...............",
"...............",
".....    ......",
"....      .....",
"....      .....",
"....      .....",
"....      .....",
".....    ......",
"...............",
"...............",
"...............",
"          .....",
"           ....",
"            ...",
"            ...",
"            ...",
"            ...",
".......   .....",
"...............",
"..............."};
