/* XPM */
static char * boot_xpm[] = {
"25 24 247 2",
"  	c None",
". 	c #0A0704",
"+ 	c #010101",
"@ 	c #000001",
"# 	c #000000",
"$ 	c #2B1518",
"% 	c #864438",
"& 	c #864538",
"* 	c #854539",
"= 	c #864539",
"- 	c #85453A",
"; 	c #814337",
"> 	c #321B1C",
", 	c #502928",
"' 	c #ED7255",
") 	c #EC7556",
"! 	c #E97656",
"~ 	c #E87558",
"{ 	c #E97559",
"] 	c #E97459",
"^ 	c #EB7458",
"/ 	c #E77256",
"( 	c #5A2F2D",
"_ 	c #472424",
": 	c #C75946",
"< 	c #C95A46",
"[ 	c #C95A45",
"} 	c #CA5A45",
"| 	c #C95B45",
"1 	c #C35845",
"2 	c #4C2626",
"3 	c #36191D",
"4 	c #A03F33",
"5 	c #A44034",
"6 	c #A53F33",
"7 	c #A43F33",
"8 	c #A44033",
"9 	c #A24032",
"0 	c #A24033",
"a 	c #9C4032",
"b 	c #3B1D1E",
"c 	c #2F191F",
"d 	c #6F2929",
"e 	c #6F2928",
"f 	c #712926",
"g 	c #742825",
"h 	c #732825",
"i 	c #732827",
"j 	c #6D2929",
"k 	c #34181C",
"l 	c #1C0E0F",
"m 	c #411517",
"n 	c #792F2B",
"o 	c #953B2E",
"p 	c #953B2F",
"q 	c #8D382E",
"r 	c #582627",
"s 	c #4A2124",
"t 	c #4C1F24",
"u 	c #4A2024",
"v 	c #1A0D0D",
"w 	c #120407",
"x 	c #7E322D",
"y 	c #A84231",
"z 	c #A74332",
"A 	c #9E3F31",
"B 	c #58272A",
"C 	c #422028",
"D 	c #371B26",
"E 	c #261422",
"F 	c #010000",
"G 	c #120507",
"H 	c #7D332E",
"I 	c #A84232",
"J 	c #A74232",
"K 	c #9E3F33",
"L 	c #9E4034",
"M 	c #9E4134",
"N 	c #2A1422",
"O 	c #110406",
"P 	c #A94232",
"Q 	c #A44031",
"R 	c #80362E",
"S 	c #79342E",
"T 	c #78342E",
"U 	c #5E2928",
"V 	c #291520",
"W 	c #9F3F31",
"X 	c #572628",
"Y 	c #411D24",
"Z 	c #361A23",
"` 	c #261521",
" .	c #A74233",
"..	c #9A3F32",
"+.	c #993F33",
"@.	c #994033",
"#.	c #983F32",
"$.	c #76302B",
"%.	c #2B1623",
"&.	c #110407",
"*.	c #A94231",
"=.	c #AA4232",
"-.	c #AA4233",
";.	c #A74334",
">.	c #9C4034",
",.	c #8D3A32",
"'.	c #8D3C33",
").	c #7B342E",
"!.	c #0D0305",
"~.	c #A64232",
"{.	c #A94233",
"].	c #A84234",
"^.	c #7C3630",
"/.	c #1E1323",
"(.	c #271223",
"_.	c #77302E",
":.	c #9D4232",
"<.	c #270F17",
"[.	c #5E2829",
"}.	c #712D28",
"|.	c #803028",
"1.	c #A54132",
"2.	c #A94234",
"3.	c #A14034",
"4.	c #983E35",
"5.	c #983F34",
"6.	c #A04134",
"7.	c #A94535",
"8.	c #D06A54",
"9.	c #BA5C49",
"0.	c #9D4437",
"a.	c #C1624E",
"b.	c #DA6F58",
"c.	c #D37057",
"d.	c #3B1C13",
"e.	c #000100",
"f.	c #32161E",
"g.	c #80332E",
"h.	c #85342C",
"i.	c #87342B",
"j.	c #963C2F",
"k.	c #A84233",
"l.	c #AA4331",
"m.	c #AE4434",
"n.	c #DA644E",
"o.	c #CA5946",
"p.	c #B04837",
"q.	c #D4664C",
"r.	c #DC6B50",
"s.	c #D86A50",
"t.	c #6F3024",
"u.	c #451B15",
"v.	c #3A1A20",
"w.	c #A54234",
"x.	c #A64234",
"y.	c #A14232",
"z.	c #762D28",
"A.	c #923930",
"B.	c #A74234",
"C.	c #A94331",
"D.	c #AB4333",
"E.	c #AF4635",
"F.	c #AD4434",
"G.	c #AE4534",
"H.	c #AE4635",
"I.	c #AA4634",
"J.	c #A44131",
"K.	c #81342E",
"L.	c #130707",
"M.	c #3B1B1F",
"N.	c #9A3B2E",
"O.	c #8F372C",
"P.	c #8C362C",
"Q.	c #A24133",
"R.	c #A84434",
"S.	c #A84433",
"T.	c #8A362B",
"U.	c #6C2B2A",
"V.	c #110507",
"W.	c #000101",
"X.	c #3A1A1E",
"Y.	c #9F3F30",
"Z.	c #89352B",
"`.	c #792D28",
" +	c #973D31",
".+	c #9E4033",
"++	c #9E3F32",
"@+	c #A03E30",
"#+	c #A03F30",
"$+	c #782C25",
"%+	c #622728",
"&+	c #351C1F",
"*+	c #2E141C",
"=+	c #6F2A28",
"-+	c #732B26",
";+	c #702C25",
">+	c #6F2C25",
",+	c #6F2B24",
"'+	c #712A25",
")+	c #732925",
"!+	c #742925",
"~+	c #762A25",
"{+	c #762A26",
"]+	c #702A27",
"^+	c #6C2A28",
"/+	c #37181E",
"(+	c #90392F",
"_+	c #92392E",
":+	c #903A2C",
"<+	c #913A2B",
"[+	c #8A372B",
"}+	c #5C2528",
"|+	c #521F25",
"1+	c #752E2B",
"2+	c #94392F",
"3+	c #95392E",
"4+	c #95392D",
"5+	c #953A2E",
"6+	c #461C21",
"7+	c #3A1B20",
"8+	c #9D3F33",
"9+	c #A04131",
"0+	c #9F4231",
"a+	c #944030",
"b+	c #3D1D18",
"c+	c #0B0407",
"d+	c #0D0608",
"e+	c #6D2B23",
"f+	c #A04032",
"g+	c #A14031",
"h+	c #A24031",
"i+	c #A23F31",
"j+	c #A04034",
"k+	c #4B1F21",
"l+	c #1B0C15",
"m+	c #36161B",
"n+	c #39171D",
"o+	c #37171B",
"p+	c #2D1216",
"q+	c #331318",
"r+	c #36151D",
"s+	c #35151C",
"t+	c #35151E",
"u+	c #1D0C16",
"v+	c #040302",
"w+	c #010102",
"x+	c #010001",
". + @ @ @ # @ @ @ # # # # # # @                   ",
"@ $ % & * = - - - - - - * ; > #                   ",
"# , ' ) ! ~ { ] ] ] ] ] ^ / ( #                   ",
"# _ : < < < [ } } } } | < 1 2 #                   ",
"@ 3 4 5 6 7 8 9 9 9 9 9 0 a b #                   ",
"# c d e f g g h f f f f i j k #                   ",
"+ l m n o p p q r s s s t u v #                   ",
"# # w x y z z A B C C C D E # F                   ",
"  # G H y I I J K L M L n N #                     ",
"  # O H y P P Q R S S T U V #                     ",
"  # O H y P P W X Y Y Y Z ` #                     ",
"  # O H y P P  ...+.@.#.$.%.#                     ",
"  # &.H *.=.=.-.;.>.,.'.).U #                     ",
"# # !.S ~.{.P {.].^./.(._.:.# # # # # # # #       ",
"+ <.[.}.|.1.P {.2.3.4.5.6.7.8.9.0.a.b.c.d.# #     ",
"e.f.g.h.i.j.9 k.2.2.-.l.l.m.n.o.p.q.r.s.t.u.# +   ",
"# v.w.x.y.z.A.B.2.{.P C.l.D.E.F.=.G.H.I.J.K.L.#   ",
"@ M.;.;. .N.O.P.Q.R.S.P P P P P =.=.=.~.T.U.V.#   ",
"W.X.A W Y.Y.Z.`. +L .+K ++W @+Y.#+#+#+A $+%+&+# # ",
"+ *+=+-+;+;+>+,+'+)+)+)+!+~+{+{+{+{+{+{+f ]+^+/+e.",
"# /+(+_+:+<+<+[+}+|+|+|+1+2+3+4+4+3+3+3+3+5+A.6+# ",
"# 7+8+9+0+0+0+a+b+c+d+c+e+f+g+h+i+i+i+i+i+i+j+k+e.",
"# l+m+n+o+m+m+p+# # + # # q+r+s+s+s+s+s+s+s+t+u+v+",
"# # # w+@ # # # #       # # # # # # # # # # # # x+"};
