/* XPM */
static char * frog_h_xpm[] = {
"24 18 240 2",
"  	c None",
". 	c #000000",
"+ 	c #9EAC83",
"@ 	c #9BB17B",
"# 	c #8BAF6B",
"$ 	c #8EB270",
"% 	c #6D9754",
"& 	c #93B169",
"* 	c #9ABA71",
"= 	c #B2D385",
"- 	c #A4C974",
"; 	c #629441",
"> 	c #AAC887",
", 	c #BEDC8E",
"' 	c #9EBF72",
") 	c #8CAC66",
"! 	c #66825C",
"~ 	c #A8C987",
"{ 	c #90B973",
"] 	c #4B991E",
"^ 	c #75A54D",
"/ 	c #ABCF79",
"( 	c #84AA4A",
"_ 	c #6E964B",
": 	c #A5BD83",
"< 	c #8DB570",
"[ 	c #84AE68",
"} 	c #BEDF90",
"| 	c #95BA6B",
"1 	c #8BB366",
"2 	c #70A350",
"3 	c #399131",
"4 	c #5F7D67",
"5 	c #63A03F",
"6 	c #5D9E34",
"7 	c #303D22",
"8 	c #539806",
"9 	c #9FC571",
"0 	c #BEE08B",
"a 	c #C4E498",
"b 	c #C6E899",
"c 	c #C5E79C",
"d 	c #C1E193",
"e 	c #A9CA70",
"f 	c #89B166",
"g 	c #589C2F",
"h 	c #568835",
"i 	c #2A3C1E",
"j 	c #41813F",
"k 	c #69A138",
"l 	c #1F3104",
"m 	c #2F391C",
"n 	c #69A033",
"o 	c #AECF84",
"p 	c #B1D687",
"q 	c #87B25E",
"r 	c #C7E696",
"s 	c #B9D98C",
"t 	c #7BA951",
"u 	c #9DC26B",
"v 	c #8DAE61",
"w 	c #478F02",
"x 	c #1C4900",
"y 	c #2D392B",
"z 	c #3F8840",
"A 	c #72A650",
"B 	c #84A950",
"C 	c #679E3A",
"D 	c #619B2D",
"E 	c #99B969",
"F 	c #C1E393",
"G 	c #C2E38F",
"H 	c #AFCF75",
"I 	c #ADCF6B",
"J 	c #A8CD6C",
"K 	c #96BF5E",
"L 	c #A0C866",
"M 	c #93B95A",
"N 	c #7B9E54",
"O 	c #459225",
"P 	c #409343",
"Q 	c #3A8E4A",
"R 	c #B9DF8F",
"S 	c #B0D085",
"T 	c #ABC980",
"U 	c #ADCC7E",
"V 	c #BEE28C",
"W 	c #C2E78F",
"X 	c #C1E58E",
"Y 	c #ABCC6B",
"Z 	c #A6C865",
"` 	c #9DC961",
" .	c #9DC966",
"..	c #9CC864",
"+.	c #9DC967",
"@.	c #92BE5E",
"#.	c #7CAA52",
"$.	c #6A9D56",
"%.	c #5A9562",
"&.	c #4B9B68",
"*.	c #C7E690",
"=.	c #C4E48D",
"-.	c #C1E087",
";.	c #BEDA81",
">.	c #B2CD76",
",.	c #A8C66D",
"'.	c #94B85D",
").	c #8DB059",
"!.	c #89B057",
"~.	c #8CB25C",
"{.	c #88AE59",
"].	c #94B762",
"^.	c #98BB60",
"/.	c #9ABB62",
"(.	c #8BB166",
"_.	c #6C9D6B",
":.	c #5E8E6F",
"<.	c #000100",
"[.	c #89AE58",
"}.	c #BCD678",
"|.	c #B6D06D",
"1.	c #99B960",
"2.	c #8DB058",
"3.	c #72A12F",
"4.	c #8BA63F",
"5.	c #94AE53",
"6.	c #9AB35D",
"7.	c #8EB468",
"8.	c #8FB469",
"9.	c #72A24B",
"0.	c #5E9939",
"a.	c #5A972C",
"b.	c #6D9B42",
"c.	c #77A157",
"d.	c #729F6A",
"e.	c #5D986D",
"f.	c #27964F",
"g.	c #010101",
"h.	c #6A9F3C",
"i.	c #7BA64F",
"j.	c #7AA649",
"k.	c #87AD55",
"l.	c #9CBC69",
"m.	c #9FB758",
"n.	c #A5B34C",
"o.	c #A4AF3A",
"p.	c #9DAC3A",
"q.	c #96A83C",
"r.	c #97A738",
"s.	c #95A63F",
"t.	c #90A64A",
"u.	c #7DA35B",
"v.	c #719F4F",
"w.	c #659C4B",
"x.	c #549838",
"y.	c #4B9542",
"z.	c #339037",
"A.	c #47745B",
"B.	c #529623",
"C.	c #8DB05B",
"D.	c #94B35B",
"E.	c #97B55E",
"F.	c #9FB14C",
"G.	c #A3B041",
"H.	c #A2AD3F",
"I.	c #9B9E49",
"J.	c #989A4C",
"K.	c #999653",
"L.	c #999652",
"M.	c #9C9253",
"N.	c #9B9A4F",
"O.	c #89A04A",
"P.	c #86A04F",
"Q.	c #83A055",
"R.	c #779E5E",
"S.	c #579968",
"T.	c #459863",
"U.	c #45765C",
"V.	c #679843",
"W.	c #709B51",
"X.	c #779E5A",
"Y.	c #96A23F",
"Z.	c #95A13E",
"`.	c #969E36",
" +	c #A57F6E",
".+	c #A77C72",
"++	c #A47C71",
"@+	c #A37B70",
"#+	c #A57E6F",
"$+	c #9C8A5E",
"%+	c #90994A",
"&+	c #8B9D44",
"*+	c #869E40",
"=+	c #619854",
"-+	c #339559",
";+	c #338C52",
">+	c #659E2B",
",+	c #6A9835",
"'+	c #9B8D53",
")+	c #9C8E51",
"!+	c #A57E69",
"~+	c #A57D72",
"{+	c #A37C70",
"]+	c #A37C71",
"^+	c #9C7971",
"/+	c #97767A",
"(+	c #8D8A5F",
"_+	c #849547",
":+	c #578E37",
"<+	c #1D8D20",
"[+	c #0F8A13",
"}+	c #333A20",
"|+	c #AA856A",
"1+	c #AA836D",
"2+	c #A7806F",
"3+	c #A67F6E",
"4+	c #A67F6F",
"5+	c #A57E6E",
"6+	c #A37C6E",
"7+	c #A17A76",
"8+	c #9D7B78",
"9+	c #9B7877",
"0+	c #95786F",
"a+	c #90726A",
"b+	c #253726",
"c+	c #010402",
"d+	c #010401",
"e+	c #090703",
"f+	c #070602",
"g+	c #100D06",
"h+	c #0E0805",
"i+	c #080503",
"j+	c #040201",
"k+	c #030201",
"l+	c #060402",
"m+	c #050302",
"n+	c #010100",
"o+	c #030402",
"p+	c #0C0A04",
"q+	c #060802",
"        . . . . . .         . . . . . .         ",
"      . . . . . . . .     . . . . . . . .       ",
"    . . . . + @ . . . . . . . # $ % . . . .     ",
"    . . . & * = - ; . . . . > , ' ) ! . . .     ",
"    . . ~ { ] ^ / ( _ : < [ } | 1 2 3 4 . .     ",
"    . . 5 6 7 8 9 0 a b c d e f g h i j . .     ",
"  . . . k l m n o p q r s t u v w x y z . .     ",
"  . . A B C D E F G H I J K L M N O P Q . . .   ",
"  . . R S T U V W X Y Z `  ...+.@.#.$.%.&.. .   ",
". . . b *.=.-.;.>.,.'.).!.~.{.].^./.(._.:.. . . ",
". <.[.}.|.1.2.3.4.5.6.7.8.7.9.0.a.b.c.d.e.f.. . ",
". g.h.i.j.k.l.m.n.o.p.q.r.s.t.u.v.w.x.y.z.A.. . ",
". . B.C.D.E.F.G.H.I.J.K.L.M.N.O.P.Q.R.S.T.U.. . ",
". . . V.W.X.Y.Z.`. +.+++@+#+$+%+&+*+=+-+;+. . . ",
"  . . >+B.,+'+)+!+#+~+{+@+]+^+/+(+_+:+<+[+. .   ",
"  . . . . }+|+1+2+3+4+5+6+7+8+9+0+a+b+c+c+d+.   ",
"    . . . . e+f+g+h+i+j+k+. . l+m+n+o+. . .     ",
"          . . . . . . . p+. . . . n+q+.         "};
