/* XPM */
static char * 12541707_whiteoak_xpm[] = {
"49 49 197 2",
"  	c #DAC9AF",
". 	c #D6C7AA",
"+ 	c #D9C9AE",
"@ 	c #DECDB0",
"# 	c #DFCEB0",
"$ 	c #DDCCB0",
"% 	c #DCCBAF",
"& 	c #D9C8AE",
"* 	c #CAB8A0",
"= 	c #DECDAF",
"- 	c #D7C7AB",
"; 	c #CEBCA3",
"> 	c #CBB9A1",
", 	c #CEBFA5",
"' 	c #D0C1A6",
") 	c #D4C5A9",
"! 	c #D9C8AD",
"~ 	c #D7C8AB",
"{ 	c #CFC1A6",
"] 	c #CDBCA2",
"^ 	c #CDBEA4",
"/ 	c #D3C5A8",
"( 	c #D8C8AD",
"_ 	c #DAC9AE",
": 	c #D6C6AA",
"< 	c #D7C7AC",
"[ 	c #D3C4A8",
"} 	c #D1C2A7",
"| 	c #D0C2A7",
"1 	c #D2C4A8",
"2 	c #D7C8AC",
"3 	c #D8C7AD",
"4 	c #D8C8AC",
"5 	c #D2C3A8",
"6 	c #D1C3A7",
"7 	c #C9B79F",
"8 	c #CCBBA2",
"9 	c #CCBAA1",
"0 	c #C4B59E",
"a 	c #C4B49E",
"b 	c #CBBAA2",
"c 	c #CDBBA3",
"d 	c #C6B69F",
"e 	c #BEB09B",
"f 	c #BAAE99",
"g 	c #B9AD99",
"h 	c #B8AC98",
"i 	c #BDB09B",
"j 	c #C2B39D",
"k 	c #BCAF9A",
"l 	c #C3B49D",
"m 	c #C1B39C",
"n 	c #BAAE9A",
"o 	c #BCAF9B",
"p 	c #C3B49E",
"q 	c #B7AB97",
"r 	c #BFB09B",
"s 	c #C8B69F",
"t 	c #C2B29C",
"u 	c #B8AB98",
"v 	c #B3A896",
"w 	c #B9AC99",
"x 	c #BAAD99",
"y 	c #B7AB98",
"z 	c #BCAE9A",
"A 	c #B5A997",
"B 	c #BEAF9A",
"C 	c #D6C5AC",
"D 	c #D8C8AB",
"E 	c #D8C7AB",
"F 	c #CDBFA5",
"G 	c #CBBDA4",
"H 	c #DAC9AC",
"I 	c #D9C8AC",
"J 	c #C9BCA3",
"K 	c #D5C5AA",
"L 	c #D4C4AB",
"M 	c #D3C3AA",
"N 	c #CFC0A6",
"O 	c #CEC0A5",
"P 	c #CCBEA4",
"Q 	c #D2C2AA",
"R 	c #DCCCAE",
"S 	c #D5C6AA",
"T 	c #D5C6A9",
"U 	c #DDCCAF",
"V 	c #DBCAAF",
"W 	c #D7C7AD",
"X 	c #D9C9AC",
"Y 	c #D5C5A9",
"Z 	c #CFBFA4",
"` 	c #D0C0A5",
" .	c #D8C9AB",
"..	c #D9C9AD",
"+.	c #D7C6AC",
"@.	c #CCBCA2",
"#.	c #CCBCA3",
"$.	c #D3C4A9",
"%.	c #D3C4AA",
"&.	c #D4C6A9",
"*.	c #CDBDA3",
"=.	c #D0BFA6",
"-.	c #D6C6AC",
";.	c #CFBEA4",
">.	c #D2C1A8",
",.	c #DBCAB0",
"'.	c #D2C1A7",
").	c #BEB29C",
"!.	c #C7B8A0",
"~.	c #C8B9A1",
"{.	c #CABAA2",
"].	c #CABAA3",
"^.	c #CEBDA4",
"/.	c #CABBA2",
"(.	c #C4B79F",
"_.	c #C2B59E",
":.	c #BEB19B",
"<.	c #BCAE99",
"[.	c #C0B29D",
"}.	c #C3B6A0",
"|.	c #C6B7A1",
"1.	c #C9BAA2",
"2.	c #C9BAA1",
"3.	c #CBBBA2",
"4.	c #C6B79F",
"5.	c #C5B79F",
"6.	c #C5B69F",
"7.	c #BDAF9A",
"8.	c #C1B29C",
"9.	c #C8B79F",
"0.	c #C8B9A3",
"a.	c #CABCA4",
"b.	c #CBBCA4",
"c.	c #CFBFA6",
"d.	c #D0C0A6",
"e.	c #CEBDA5",
"f.	c #CDBDA5",
"g.	c #CFBFA5",
"h.	c #CCBDA3",
"i.	c #CBBCA3",
"j.	c #CABCA3",
"k.	c #CDBEA5",
"l.	c #D1C1A6",
"m.	c #D5C3A8",
"n.	c #D4C2A8",
"o.	c #CCBCA5",
"p.	c #DBCBAE",
"q.	c #DBCBAD",
"r.	c #DACAAC",
"s.	c #DACAAD",
"t.	c #D5C5AB",
"u.	c #CDBDA4",
"v.	c #D2C3A7",
"w.	c #CFC0A5",
"x.	c #D4C5A8",
"y.	c #D4C5AA",
"z.	c #D3C5A9",
"A.	c #D0C1A7",
"B.	c #D3C3A9",
"C.	c #D1C3A8",
"D.	c #CEBEA6",
"E.	c #CDBEA6",
"F.	c #D1C2A6",
"G.	c #D2C2A7",
"H.	c #D2C2A6",
"I.	c #CBBCA2",
"J.	c #CABCA2",
"K.	c #C7BAA1",
"L.	c #C6B9A0",
"M.	c #C8BBA2",
"N.	c #CBBDA3",
"O.	c #C9BBA2",
"P.	c #C7B9A1",
"Q.	c #B9AC98",
"R.	c #C3B39D",
"S.	c #C6B59E",
"T.	c #BDAE9A",
"U.	c #BEB19C",
"V.	c #C4B59F",
"W.	c #C6B6A0",
"X.	c #CDBCA3",
"Y.	c #CFBDA4",
"Z.	c #C8B8A1",
"`.	c #C0B39E",
" +	c #BDB09C",
".+	c #BBAF9B",
"++	c #BCB09B",
"@+	c #C2B49E",
"#+	c #C7B7A0",
"$+	c #CABAA1",
"%+	c #DDCCAE",
"&+	c #DCCBAE",
"*+	c #DDCDAF",
"=+	c #D2C0A7",
"-+	c #D8C7AE",
";+	c #C5B59E",
">+	c #C5B49E",
"      . . . +     @ # # # # # # # # # # # # # # $     % # # # # # # # # # # # # # # @     & * * * ",
"      . . . +     @ # # # # # # # # # # # # # # $     % # # # # # # # # # # # # # # @     & * * * ",
"      . . . +     @ # # = = = = = = # # # # # # $     % # # # # # # # # # # # # # # @     & * * * ",
"            - . . . . . ; > > , ' ' ) . . !                 ! . . . . . ~           & { { { { { { ",
"            - . . . . . ] * * ^ { { / . . (                 ( . . . . . -           & { { { { { { ",
"            - . . . . . ] * * ^ { { / . . (                 ( . . . . . -           & { { { { { { ",
"- - -       _ + + + + + : ) ) < & & - . . [ } } } } } } } } | | | 1 . . . - - 2       & & 3 > > > ",
". . .                   - . . &     4 . . 5 { { { { { { { { { { { 6 . . . . . ~           & * * * ",
". . .                   - . . +     4 . . 5 { { { { { { { { { { { 6 . . . . . ~           & 7 * * ",
"8 8 9 0 a a a a a b c c 8 8 8 d a a e f f g h h i j j j j j e h h k l l m f f f n n o a a p q q q ",
"* * * r r r r r r s * * * * * t r r u v v v v v w r r r r r x v v y r r z v v v v v A r r B v v v ",
"* * * r r r r r r s * * * * * t r r u v v v v v w r r r r r x v v y r r z v v v v v A r r B v v v ",
"C C C D D E F G G E H H H H H I D D - : : , J J } D D D D D - : : K L L M N N N N N O G G P Q Q Q ",
"      # # # 6 { { R # # # # # # # # # # # S { { ~ # # # # # # # # $     + . . . . . T { { |       ",
"      # # # 6 { { R # # # # # # # # # # # S { { - # # # # # # # # U     + . . . . . T { { |       ",
"2 2 2 V % V W < < 4 X X Y [ [ ~ X X S [ ) Z 8 8 ` [ [ : X X X X  ...      ! ! ! ! ! ( +.< < 2 2 2 ",
". . .             - . . } { { ) . . 5 { { @.* * #.{ { 1 . . . . . 2                         . . . ",
". . .             - . . } { { ) . . 5 { { 8 * * #.{ { 1 . . . . . 2                         . . . ",
"5 5 5 $.%.%.< 4 4 ( ( ( S / / S . . &./ [ *.* * =.-.-.< ( ( ( ( ( ( 4 4 4 4 4 - %.%.%.%.%.$.5 5 5 ",
"{ { { { { { T . . +     - . . . . . . . . ;.* * >.                ! . . . . . &.{ { { { { { { { { ",
"| | | | | | T . . _ ,.,.- . . . . . . ~ . ;.* * '.            ,.  ( . . . . . T { { { { { { | | | ",
").).).).).).!.~.~.{.].].^.;.;./.~.~.(._._.:.<.<.[.}.}.}.}.}.|.].].1.~.~.~.~.2.2.@.#.3.4.5.6.).).).",
"v v v v v v 7.r r r r r s * * t r r u v v v v v v v v v v v u r r r r r r r r 8.* * 9.r r B v v v ",
"v v v v v v 7.r r r r r s * * t r r u v v v v v v v v v v v u r r r r r r r r 8.* * 9.r r B v v v ",
"0.0.0.a.b.b.c.d.d.e.f.f.g.` ` h.i.i.j.b.b.b.b.b.b.b.b.b.b.b.k.d.d.d.d.d.d.d.d.l.m.m.n.f.f.o._._._.",
"      # # # # # # V     - . . . . . p.# # # # # # # # # # # # # # # # # # # # # # # @     & { { { ",
"      # # # # # # V     - . . . . . q.# # # # # # # # # # # # # # # # # # # # # # # @     & { { { ",
"      q.q.q.U $ U       ( 4 4 4 4 4 ..q.q.X D D D D D D D D X q.q.r.D D 4 q.q.s.D D - t.t.K u.u.u.",
"      . . . +                       4 . . v.{ { { { { { { { 5 . . / { { } . . ) { { { { { w.* * * ",
"      . . . +                       4 . . v.{ { { { { { { { 5 . . x.{ { } . . &.{ { { { { w.* * * ",
"% % % 4 4 4 ( ( ( ( ( ( -.-.-.-.-.-.y./ [ | { { | 5 5 5 5 5 z.. . &.5 6 v.[ [ v.{ { A.%.%.B.@.@.@.",
"# # #       - . . . . . } { { { { { { { { { { { [ . . . . . . . . . . . &.{ { { { { }     & { { { ",
"# # #       . . . . . . } { { { { O { | | | | | z.~ ~ . . . . T T . . . ) { { { | | C.    & | | | ",
"} } } D.E.E., , , F.G.H., ^ ^ I./.J.K.L.L.L.L.L.M.N.N.P , , ` G.G.l., , ^ O.O.O.L.L.P.E.E.E.L.L.L.",
"v v v v v v 7.r r s * * * * * t r r u v v v v v v v v Q.r r R.* * S.r r r r r T.v v v v v v v v v ",
"v v v v v v 7.r r s * * * * * t r r u v v v v v v v v Q.r r R.* * S.r r r r r z v v v v v v v v v ",
").).U.n n n V.W.W.X.Y.Y.Y.Y.Y.Z.W.W.`. + +.+n n ++).).@+#+#+$+Y.Y.b p p 0 #+!.V. + + +).).).).).).",
"# # = ' { { &     @ # # # # # V           $.{ { ~ # # # # # # # = X { { [ # # @     V # # # # # # ",
"# # # ' { { &     @ # # # # # V           %.{ { ~ # # # # # # # # H { { [ # # @     V # # # # # # ",
"U U %+6 | | &     $ @ @ &+q.&+( W 3 & + & $.{ { S q.q.R @ @ @ @ = X | | ) = @ U + + _ *+U U U U U ",
". . . . . . +           5 { { { { { / . . v.{ { { { { y.          ( . . -     + . . . . . . . . . ",
". . . . . . +           5 { { { { { / . . v.{ { { { { y.          ( . . -     + . . . . . . . . . ",
". . . T T T ( & & + + + $.} } | | | / T T } O O { } } t.      + + ( T T . & & ( T T T T T T T T T ",
". . . { { { { { { T . . +     2 . . 5 { { 8 * * >.          ( . . x.{ { { { { { { { { { { { { { { ",
". . . { { { { { { T . . &     2 . . 5 { { @.* * >.          ! . . / { { { { { { { { { { { { { { { ",
") x./ O O O O O O [ ) ) +.W W S ) ) } { N 8 * * =+& -+-+-+-+< ) x.6 O O O F F F F F F F F F F F F ",
"v v v r r r r r r A v v v v v z r r ;+* * * * * * * * >+r r x v v y r r z v v v v v v v v v v v v ",
"v v v r r r r r r A v v v v v z r r S.* * * * * * * * >+r r x v v y r r z v v v v v v v v v v v v ",
"v v v r r r r r r A v v v v v z r r S.* * * * * * * * >+r r x v v y r r z v v v v v v v v v v v v "};
