/* XPM */
static char * MiniRock_xpm[] = {
"50 50 605 2",
"  	c None",
". 	c #000000",
"+ 	c #19110B",
"@ 	c #19110E",
"# 	c #201B17",
"$ 	c #807975",
"% 	c #A19894",
"& 	c #A29995",
"* 	c #27221E",
"= 	c #050000",
"- 	c #4D433F",
"; 	c #6B605C",
"> 	c #8B827D",
", 	c #9B928D",
"' 	c #9E9590",
") 	c #9F9691",
"! 	c #9B938E",
"~ 	c #988F8B",
"{ 	c #817A77",
"] 	c #010000",
"^ 	c #5C524E",
"/ 	c #7D726D",
"( 	c #958B86",
"_ 	c #99908B",
": 	c #978D89",
"< 	c #A09792",
"[ 	c #AAA19C",
"} 	c #A9A09B",
"| 	c #988E8A",
"1 	c #9A918C",
"2 	c #9E9691",
"3 	c #99918C",
"4 	c #7A736F",
"5 	c #3D3531",
"6 	c #716561",
"7 	c #807671",
"8 	c #8F8580",
"9 	c #A49A96",
"0 	c #B2A9A4",
"a 	c #B1A8A4",
"b 	c #9C938E",
"c 	c #968C88",
"d 	c #99908C",
"e 	c #6D6663",
"f 	c #0E0501",
"g 	c #39312C",
"h 	c #645A55",
"i 	c #837873",
"j 	c #9D938E",
"k 	c #A79E99",
"l 	c #9B918C",
"m 	c #918883",
"n 	c #958B87",
"o 	c #978E8B",
"p 	c #645E5A",
"q 	c #655F5C",
"r 	c #6F6865",
"s 	c #6D6662",
"t 	c #6D645F",
"u 	c #716661",
"v 	c #7E736E",
"w 	c #8B817C",
"x 	c #8D837E",
"y 	c #857A75",
"z 	c #8A7F7B",
"A 	c #928984",
"B 	c #938B87",
"C 	c #605A57",
"D 	c #625B58",
"E 	c #958D89",
"F 	c #A69D99",
"G 	c #A69E9A",
"H 	c #A49B98",
"I 	c #897F7B",
"J 	c #847974",
"K 	c #8A7E7A",
"L 	c #897E7A",
"M 	c #9D948F",
"N 	c #A49B97",
"O 	c #A29894",
"P 	c #867E7C",
"Q 	c #4E4946",
"R 	c #827873",
"S 	c #8C827D",
"T 	c #938A85",
"U 	c #948B86",
"V 	c #988D89",
"W 	c #A19893",
"X 	c #867E7B",
"Y 	c #2D2725",
"Z 	c #A39995",
"` 	c #837974",
" .	c #736863",
"..	c #7C726D",
"+.	c #817772",
"@.	c #827772",
"#.	c #978C88",
"$.	c #776F6A",
"%.	c #110100",
"&.	c #6F6560",
"*.	c #857B76",
"=.	c #897D79",
"-.	c #918782",
";.	c #766B66",
">.	c #746964",
",.	c #746863",
"'.	c #7C716C",
").	c #8F8681",
"!.	c #695F5B",
"~.	c #332D2A",
"{.	c #080000",
"].	c #231915",
"^.	c #746965",
"/.	c #867C77",
"(.	c #7E726B",
"_.	c #71625A",
":.	c #746761",
"<.	c #776C67",
"[.	c #7C706B",
"}.	c #867C78",
"|.	c #908682",
"1.	c #9F9792",
"2.	c #8B8480",
"3.	c #322D2A",
"4.	c #251B15",
"5.	c #554D48",
"6.	c #938984",
"7.	c #A59C98",
"8.	c #A69C98",
"9.	c #978C87",
"0.	c #7F746E",
"a.	c #736660",
"b.	c #776B66",
"c.	c #887D79",
"d.	c #9A928D",
"e.	c #877F7C",
"f.	c #271D17",
"g.	c #605652",
"h.	c #7F746F",
"i.	c #AFA6A2",
"j.	c #ACA39E",
"k.	c #7C6F69",
"l.	c #6C5E57",
"m.	c #6F625C",
"n.	c #726762",
"o.	c #756A65",
"p.	c #7A6F6A",
"q.	c #7E746F",
"r.	c #8A807C",
"s.	c #8D827D",
"t.	c #7F7772",
"u.	c #23150E",
"v.	c #5C504B",
"w.	c #786C66",
"x.	c #7B706B",
"y.	c #817671",
"z.	c #A89F9A",
"A.	c #948B85",
"B.	c #827771",
"C.	c #6A5951",
"D.	c #6B5B54",
"E.	c #6E615A",
"F.	c #6F615A",
"G.	c #877C77",
"H.	c #998F8B",
"I.	c #908681",
"J.	c #7D736E",
"K.	c #6A605C",
"L.	c #251708",
"M.	c #594B43",
"N.	c #6E6059",
"O.	c #6F625B",
"P.	c #70635C",
"Q.	c #796D68",
"R.	c #8D847F",
"S.	c #9F9590",
"T.	c #A69D98",
"U.	c #75675F",
"V.	c #695850",
"W.	c #776961",
"X.	c #80746E",
"Y.	c #9A908B",
"Z.	c #948A86",
"`.	c #685F5A",
" +	c #3D332E",
".+	c #63554F",
"++	c #736762",
"@+	c #7C716B",
"#+	c #74655E",
"$+	c #897E79",
"%+	c #9C948F",
"&+	c #867B76",
"*+	c #A29893",
"=+	c #A49995",
"-+	c #887E7B",
";+	c #433C38",
">+	c #584F4B",
",+	c #837A75",
"'+	c #877D79",
")+	c #857C77",
"!+	c #7B6F6A",
"~+	c #817672",
"{+	c #786E69",
"]+	c #887E7A",
"^+	c #A9A09C",
"/+	c #8B807C",
"(+	c #A79E9A",
"_+	c #7D746F",
":+	c #423A37",
"<+	c #4E4340",
"[+	c #837975",
"}+	c #A59B97",
"|+	c #ABA29D",
"1+	c #908782",
"2+	c #796E6A",
"3+	c #817873",
"4+	c #7C736E",
"5+	c #403935",
"6+	c #49403D",
"7+	c #958A86",
"8+	c #716662",
"9+	c #796E69",
"0+	c #726761",
"a+	c #AEA4A0",
"b+	c #B0A7A3",
"c+	c #786E6A",
"d+	c #423936",
"e+	c #413531",
"f+	c #5B4F4B",
"g+	c #988D8A",
"h+	c #6F6460",
"i+	c #655A55",
"j+	c #726661",
"k+	c #6E605A",
"l+	c #6A5A52",
"m+	c #8E8580",
"n+	c #8A7F7C",
"o+	c #6B615E",
"p+	c #0B0000",
"q+	c #40322E",
"r+	c #554845",
"s+	c #5E524E",
"t+	c #675B57",
"u+	c #5A4F4A",
"v+	c #554945",
"w+	c #574B47",
"x+	c #584C47",
"y+	c #64554F",
"z+	c #6C5C53",
"A+	c #6B5A52",
"B+	c #6D5E56",
"C+	c #72645E",
"D+	c #7F7570",
"E+	c #6E6560",
"F+	c #1B0E08",
"G+	c #3E302D",
"H+	c #534642",
"I+	c #594C49",
"J+	c #807570",
"K+	c #948A85",
"L+	c #6F645F",
"M+	c #5A4E4A",
"N+	c #524541",
"O+	c #7E726D",
"P+	c #7B6F69",
"Q+	c #766A65",
"R+	c #8E847F",
"S+	c #988E8B",
"T+	c #877C78",
"U+	c #847A75",
"V+	c #887C78",
"W+	c #7B716C",
"X+	c #3C2E2A",
"Y+	c #4E403D",
"Z+	c #50423F",
"`+	c #685C58",
" @	c #887D7A",
".@	c #756965",
"+@	c #635753",
"@@	c #695E5A",
"#@	c #766A66",
"$@	c #968B88",
"%@	c #A39894",
"&@	c #928883",
"*@	c #8B7F7B",
"=@	c #817773",
"-@	c #847B76",
";@	c #726A66",
">@	c #221B15",
",@	c #392923",
"'@	c #4A3A37",
")@	c #4A3C38",
"!@	c #4C3E3A",
"~@	c #564946",
"{@	c #6A5E5A",
"]@	c #584B47",
"^@	c #50413D",
"/@	c #665A56",
"(@	c #9F9591",
"_@	c #7A6E69",
":@	c #786D68",
"<@	c #827975",
"[@	c #2D2622",
"}@	c #36231D",
"|@	c #473631",
"1@	c #493A36",
"2@	c #50423E",
"3@	c #4D3D39",
"4@	c #4B3C37",
"5@	c #4D3C37",
"6@	c #5F514D",
"7@	c #A59D98",
"8@	c #978E8A",
"9@	c #938883",
"0@	c #968B87",
"a@	c #7D7570",
"b@	c #29221D",
"c@	c #130000",
"d@	c #3A2720",
"e@	c #45312A",
"f@	c #483833",
"g@	c #473630",
"h@	c #594A46",
"i@	c #645652",
"j@	c #776A66",
"k@	c #766B67",
"l@	c #221713",
"m@	c #2D1E17",
"n@	c #3F2D27",
"o@	c #3E2C25",
"p@	c #3D2A25",
"q@	c #422E29",
"r@	c #43302A",
"s@	c #433029",
"t@	c #463530",
"u@	c #716560",
"v@	c #726863",
"w@	c #201711",
"x@	c #27150E",
"y@	c #3C2A25",
"z@	c #35231D",
"A@	c #2D1D17",
"B@	c #3A2722",
"C@	c #3E2A23",
"D@	c #3A2C26",
"E@	c #8C837E",
"F@	c #887C79",
"G@	c #1E150E",
"H@	c #25130E",
"I@	c #483A37",
"J@	c #4F413E",
"K@	c #483936",
"L@	c #30201B",
"M@	c #220E05",
"N@	c #230E08",
"O@	c #403029",
"P@	c #675B56",
"Q@	c #776B67",
"R@	c #746A66",
"S@	c #685D58",
"T@	c #5B504C",
"U@	c #594F4B",
"V@	c #4C403C",
"W@	c #7A6E6A",
"X@	c #483937",
"Y@	c #271711",
"Z@	c #200801",
"`@	c #3D2C25",
" #	c #4F413D",
".#	c #695D59",
"+#	c #5D504D",
"@#	c #7C716E",
"##	c #645954",
"$#	c #4B3D37",
"%#	c #3F312C",
"&#	c #37251D",
"*#	c #534742",
"=#	c #564A46",
"-#	c #271713",
";#	c #493935",
">#	c #50433F",
",#	c #6C615C",
"'#	c #6B5F5C",
")#	c #706560",
"!#	c #685C57",
"~#	c #4E3F39",
"{#	c #3E2C23",
"]#	c #493730",
"^#	c #4E3F36",
"/#	c #3E2A25",
"(#	c #4E3F3C",
"_#	c #5F524F",
":#	c #645854",
"<#	c #625652",
"[#	c #2A1915",
"}#	c #200B01",
"|#	c #3C2A23",
"1#	c #43332E",
"2#	c #4B3E3A",
"3#	c #625752",
"4#	c #897D7A",
"5#	c #695E59",
"6#	c #4C3D38",
"7#	c #51423F",
"8#	c #554946",
"9#	c #4D3F3A",
"0#	c #37261E",
"a#	c #261101",
"b#	c #38261D",
"c#	c #3C2C22",
"d#	c #4A3A36",
"e#	c #574A47",
"f#	c #4D3F3C",
"g#	c #40312A",
"h#	c #4A3D38",
"i#	c #544742",
"j#	c #46332D",
"k#	c #45332D",
"l#	c #4F413C",
"m#	c #594D49",
"n#	c #5A4E4B",
"o#	c #463833",
"p#	c #3F3027",
"q#	c #312013",
"r#	c #0E0000",
"s#	c #150000",
"t#	c #231101",
"u#	c #22130B",
"v#	c #271308",
"w#	c #41312C",
"x#	c #4A3D39",
"y#	c #42312A",
"z#	c #362723",
"A#	c #3E2C26",
"B#	c #3E2D26",
"C#	c #423630",
"D#	c #5F544F",
"E#	c #594D4A",
"F#	c #493835",
"G#	c #473530",
"H#	c #4B3D39",
"I#	c #5D504B",
"J#	c #574840",
"K#	c #4A3931",
"L#	c #1D0500",
"M#	c #322019",
"N#	c #412E29",
"O#	c #473732",
"P#	c #463631",
"Q#	c #3D2E2A",
"R#	c #36251E",
"S#	c #32231E",
"T#	c #3C2C23",
"U#	c #483C36",
"V#	c #6F635F",
"W#	c #726662",
"X#	c #706460",
"Y#	c #6E625D",
"Z#	c #5C504C",
"`#	c #453530",
" $	c #473733",
".$	c #493936",
"+$	c #5B4D47",
"@$	c #6B5C56",
"#$	c #64534C",
"$$	c #4F3F38",
"%$	c #231108",
"&$	c #200800",
"*$	c #33221B",
"=$	c #382620",
"-$	c #37251E",
";$	c #27130E",
">$	c #190000",
",$	c #1B0500",
"'$	c #1E0800",
")$	c #2C1911",
"!$	c #322017",
"~$	c #392A23",
"{$	c #493C37",
"]$	c #665B57",
"^$	c #746864",
"/$	c #736763",
"($	c #796D69",
"_$	c #615551",
":$	c #544845",
"<$	c #38261E",
"[$	c #301D17",
"}$	c #42322D",
"|$	c #56473F",
"1$	c #5B4C46",
"2$	c #51423A",
"3$	c #382A25",
"4$	c #170000",
"5$	c #261711",
"6$	c #3F3531",
"7$	c #413835",
"8$	c #332723",
"9$	c #271511",
"0$	c #2E1D15",
"a$	c #3D2D27",
"b$	c #4D403D",
"c$	c #4C3F3C",
"d$	c #60534F",
"e$	c #7D736F",
"f$	c #756964",
"g$	c #6E635E",
"h$	c #38251E",
"i$	c #2A1711",
"j$	c #332019",
"k$	c #110000",
"l$	c #25150B",
"m$	c #362925",
"n$	c #25130B",
"o$	c #190100",
"p$	c #786C68",
"q$	c #5F5551",
"r$	c #433835",
"s$	c #332622",
"t$	c #372620",
"u$	c #463630",
"v$	c #433530",
"w$	c #40322D",
"x$	c #483732",
"y$	c #422E27",
"z$	c #35221B",
"A$	c #1E0801",
"B$	c #524340",
"C$	c #392C27",
"D$	c #3A2923",
"E$	c #412E27",
"F$	c #412D27",
"G$	c #423029",
"H$	c #4A3C37",
"I$	c #493A37",
"J$	c #483733",
"K$	c #230E05",
"L$	c #1B0100",
"M$	c #3F2C26",
"N$	c #4B3935",
"O$	c #64554E",
"P$	c #7A6C67",
"Q$	c #6B5D56",
"R$	c #46372E",
"S$	c #251108",
"T$	c #220B05",
"U$	c #45312C",
"V$	c #250E08",
"W$	c #1D0100",
"X$	c #33231E",
"Y$	c #52433E",
"Z$	c #52423D",
"`$	c #503E38",
" %	c #58473F",
".%	c #3D2E27",
"+%	c #45322C",
"@%	c #43312A",
"#%	c #3A2620",
"$%	c #2C1913",
"%%	c #3F2E29",
"&%	c #30221D",
"*%	c #3D2A23",
"=%	c #4A3831",
"-%	c #33231D",
";%	c #26110B",
">%	c #2D1913",
",%	c #382622",
"'%	c #2C1711",
")%	c #36231E",
"!%	c #4B3932",
"~%	c #5D4D45",
"{%	c #604F47",
"]%	c #5E4E46",
"^%	c #4D3F37",
"/%	c #27130B",
"(%	c #2E1B15",
"_%	c #26130B",
":%	c #2D1B13",
"<%	c #2E1B11",
"[%	c #2E1D13",
"}%	c #261308",
"|%	c #1D0800",
"1%	c #2A1B15",
"2%	c #473731",
"3%	c #66554D",
"4%	c #5F5048",
"5%	c #493A35",
"6%	c #302017",
"7%	c #1E0B00",
"8%	c #1D0B00",
"9%	c #1E0B01",
"0%	c #392C25",
"a%	c #493A33",
"b%	c #4B3C35",
"c%	c #1E0E05",
"d%	c #2E221D",
"e%	c #2A1E19",
"f%	c #1D0801",
"g%	c #25150E",
"h%	c #392D29",
"i%	c #3D312E",
"j%	c #3D312D",
"k%	c #30231E",
"l%	c #271913",
"m%	c #332623",
"n%	c #261713",
"                                        . + @ @ @ @ @ @ + .                                         ",
"                                  . . # $ % & & & & & & % $ * =                                     ",
"                                . - ; > , ' ' ' ) ) ) ' ' ! ~ { ]                                   ",
"                                . ^ / ( _ : : < [ [ } < | 1 2 3 4 .                                 ",
"                              . 5 6 7 8 : : : 9 0 a [ b c c : 1 d e f                               ",
"                              g h / i 8 j b : ' k k l 8 m n c : b o p                               ",
"                      q r r s t u v i w j ' c : | | x y z 8 A _ ' b B C                             ",
"                    D E F G H I u v i J x ( c c c c 8 K L z 8 M N c O P                             ",
"                  Q o M ~ , ~ R u v i i y S T T U c n n n V ~ : | c W X                             ",
"              ] Y ! b c V Z ' `  ...+.@.R J y y S n U n c W N c c n #.$.                            ",
"            %.&.Z b c z *.=.-.U 7 ;.>.,.'.@.@.i J y y x U c c n n ).y @.!.~.{.                      ",
"            ].^.: : n z J /.).c A m (._.:.<.[.@.@.@.@.y /./././.}.*.i i |.1.2.3.                    ",
"          4.5...=.6.( m -.m U c : 7.8.9.S 0.a.b.b.<./ @.@.@.@.@.@.R i c.U , d.e..                   ",
"          f.g.h.i c.z w m n n c Z i.0 j.M x k.l.m.n.o.p.'.........q.@.*.L r.s.t..                   ",
"          u.v.w.p.x.y.J L S m n z.0 0 a Z A.B.C.D.E.F.G.V H.~ ~ ~ I.J.J.J.J...K..                   ",
"          L.M.N.O.P.Q.'...@.z R.S.T.k T.M ( z U.V.W.X.( 9 N O M M Y.T Z.Z.Z.w `..                   ",
"           +.+N.N.F.++>.o.p.y.J s.-.n : 6.8 w @+#+$+_ < %+n x /.&+I.*+=+T.k < -+q ;+                ",
"        = >+o.,+'+'+'+)+x.>.!+q.@.J s.I.z ~+x.{+]+n W ^+W m K =.=.K /+I.1 < Z (+% _+:+              ",
"        . <+[+}+|+|+|+z.1+2+>. .'.@.J J i [.>.3+U c : | : c n n n n n : 9 i.j.' b 7.4+5+            ",
"        . 6+: M ~ ~ ~ 1 Z 7+x.8+n.J.+.@.y.9+0+p.> n U n n U n c c c c < a+b+b+} | b 7.c+d+          ",
"      . e+f+..I.U n c c g+c 1+h+i+u u u j+k+l+k+[.J y m+n++.z U n n c : ~ ~ ~ | c c ' < o+p+        ",
"      . q+r+s+t+@.c.A c n T z >.u+v+w+x+y+z+A+z+B+C+*.A ' n '.D+/.w ( n n c c c c c M 9 E+F+        ",
"      . G+H+I+6 J+R.U K+w ` L+M+N+L+x.[.O+X.X.X.P+Q+7 R+S+: R+T+x.U+V+V+x K+n n n U , O W+>+        ",
"      . X+Y+Z+s+`+`  @/..@+@M+@@#@$@*+O %@%@%@Z < ' &@*@-.n U /+o.9+p...y z /+/+L =@-@R.w }.;@>@    ",
"      . ,@'@)@!@~@{@{@t+]@^@/@m+' W Z 9 Z 9 ^+|+O Z < (@: x w T+_@'.=@:@..@.J J @.x.9+w U n <@[@    ",
"      . }@|@1@)@2@N+3@4@5@6@[._ 7@b | ) b | ' ) 8@| ) N < 9@&+i R ).| 7 9+v i i i D+W+A 0@U a@b@    ",
"      c@d@e@|@f@f@f@g@h@i@j@V+6.| : c W M c : : , % b | ) ) 8 J L , W > D+U+V+J i y.v R.8 x k@l@    ",
"    . m@n@o@p@q@r@s@t@u@J+J R+c c c c : : c c c 9 0 9 : : ) , J V+K+: 1+-.| 1+U+@.v v h.y.J v@w@    ",
"    . x@y@z@A@B@o@C@D@L+@.U+E@n c c c c c c c c Z i.Z : c : m &+i F@1+n ) Z T J v ,. . .o.[.L+G@    ",
"  . H@I@Z+J@K@L@M@N@O@P@'.i y m+n U n c c c c c : ~ : c c c n ).y Q@R@m : : ).7 >.n.n.n.S@T@U@%.    ",
"  . V@.@h.W@s+X@Y@Z@`@ #.#[.y.i U+y ).n c c c c c c c c c c c n R+Q++#@#m 8 *.v  .n.n.n.##$#%#.     ",
". &#*#Q@y.J+Q.=#-#Z@p@;#>#M+,#<.h.i &+).( n c c c c c c c n ( I.*..@r+'#+.J h.;.n.n.)#!#~#{#]#^#.   ",
". /#(#_#:#:#<#Z+[#}#|#1#2#3#Q.7 i i i /.L m+n n n c c c n ).4#G.q.5#6#7#/@ .>.u )#,#8#9#0#a#b#c#.   ",
". p@d#2@r+e#v+f#p@x@|#g#h#,#c.8 ).V+` i i /.z /+).n n n I.V+i h.L+i#j#k#l#m#f+n#n#w+o#p#q#r#s#t#u#. ",
". v#w#f@f#Z+J@x#y#z#A#B#C#D#D+m n 8 /.i v '.q.@././+/+/+T+@.v u E#F#r@s@G#)@H#H#H#Z+I#J#K#L#. . s#. ",
". . M#N#t@O#P#Q#R#S#z@&#T#U###` E@> *.@.v x.Q+V#V#6 W#W#X#Y#5#Z#H#f@s@o@A#`# $.$d#+$@$#$$$%$. . . . ",
". . &$*$=$=$-$;$>$,$'$)$!$~${$]$^$^$/$($D+` ($:#_$I+r+:$N+Y+f#!@)@f@s@<$[$-$A#}$`@|$1$2$3$4$. . . . ",
". . r#4$>$>$4$s#5$6$7$8$9$0$a$h#b$c$f#d$j+e$J.f$g$m#H#H#)@)@)@)@'@|@s@h$N@Z@i$j$k$l$m$n$o$. . . .   ",
"  . . . . . . k$Y+p$'.q$r$s$t$u$v$w$w$t@6#Z+>#J@Y+2#)@)@)@)@)@'@x$s@y$z$Z@>$L#A$s#. p+= . . .       ",
"    . . c@s#L#=$B$Q.J+J+x.q$C$D$E$F$E$G$O#H$)@)@)@)@)@)@)@'@I$J$s@E$h$K$k$= >$L$c@. . . . .         ",
"      . . . . >$M$N$O$P$h.!+Q$R$S$T$K$h$G$O#'@'@'@)@)@'@O#U$r@E$B@S$V$M@c@= r#. . . . .             ",
"          . . . W$S$X$d#Y$Z$`$ %.%L$L#S$h$q@e@+%+%x$|@@%q@E$#%$%R#G$G$%%&%k$. . . .                 ",
"                . . k$i$*%s@r@=%-%,$,$L#;%>%-$y$y$@%,%>%'%>%)%!%~%{%]%^%l$. . . .                   ",
"                    . k$/%(%(%[$S$L#p+c@W$'$_%:%<%[%}%|%L#1%2%]%3%4%5%6%. . . .                     ",
"                      . . . r#'$L#L#. . = k$s#{.s#7%8%s#p+9%0%a%b%g#,$. . . .                       ",
"                        . . . k$L$c@. . . . . . c%d%d%e%f%p+k$c@k$. . . . .                         ",
"                              . . . . . . . . . g%h%i%j%k%r#. . . . . .                             ",
"                              . . . . . . . . . . l%m%m%n%= . . . . .                               ",
"                                  . . . . . . . . . . . . . . . . .                                 ",
"                                                . . . . . . . .                                     "};
