/* XPM */
static char * persopetit_xpm[] = {
"49 49 129 2",
"  	c #73C260",
". 	c #71BE5F",
"+ 	c #6FBC5E",
"@ 	c #66B151",
"# 	c #5FAA49",
"$ 	c #69B455",
"% 	c #72BF5F",
"& 	c #7AC46A",
"* 	c #70BE5F",
"= 	c #65B151",
"- 	c #68B455",
"; 	c #71BF5F",
"> 	c #72C15F",
", 	c #70BD5E",
"' 	c #6EB95C",
") 	c #6DB85B",
"! 	c #64AF4F",
"~ 	c #5EA949",
"{ 	c #66B253",
"] 	c #6EBA5C",
"^ 	c #63AF4F",
"/ 	c #67B253",
"( 	c #63AE4F",
"_ 	c #66B353",
": 	c #64B150",
"< 	c #62AE4E",
"[ 	c #62AD4D",
"} 	c #61AC4C",
"| 	c #61AB4C",
"1 	c #5EA849",
"2 	c #5CA647",
"3 	c #5FA94A",
"4 	c #62AE4D",
"5 	c #67B453",
"6 	c #65B150",
"7 	c #60AB4A",
"8 	c #5FA949",
"9 	c #5DA748",
"0 	c #5EA848",
"a 	c #5FAB4A",
"b 	c #5DA647",
"c 	c #5CA547",
"d 	c #5CA546",
"e 	c #5BA546",
"f 	c #5BA446",
"g 	c #63AF4E",
"h 	c #63AE4E",
"i 	c #5C9B4D",
"j 	c #589449",
"k 	c #558F47",
"l 	c #558E46",
"m 	c #599D46",
"n 	c #589C46",
"o 	c #559047",
"p 	c #5E9D4E",
"q 	c #5B964D",
"r 	c #568D49",
"s 	c #548947",
"t 	c #538846",
"u 	c #589B46",
"v 	c #589946",
"w 	c #5C984E",
"x 	c #5BA346",
"y 	c #589846",
"z 	c #528746",
"A 	c #538746",
"B 	c #579846",
"C 	c #528646",
"D 	c #5BA345",
"E 	c #5AA345",
"F 	c #579845",
"G 	c #5A954C",
"H 	c #589A46",
"I 	c #538847",
"J 	c #65B052",
"K 	c #66B052",
"L 	c #5B9E4A",
"M 	c #599B48",
"N 	c #579746",
"O 	c #599F46",
"P 	c #599E45",
"Q 	c #579745",
"R 	c #589847",
"S 	c #5B9E49",
"T 	c #60A54E",
"U 	c #5CA447",
"V 	c #6FBB5D",
"W 	c #78C169",
"X 	c #61AC4D",
"Y 	c #6DB95B",
"Z 	c #76BE68",
"` 	c #66B252",
" .	c #64AF51",
"..	c #599D45",
"+.	c #5DA848",
"@.	c #5FAA4B",
"#.	c #67B254",
"$.	c #68B354",
"%.	c #69B556",
"&.	c #71B862",
"*.	c #569445",
"=.	c #518545",
"-.	c #559345",
";.	c #5BA445",
">.	c #68AD57",
",.	c #559346",
"'.	c #559245",
").	c #559145",
"!.	c #64AE4F",
"~.	c #64AF50",
"{.	c #65B051",
"].	c #6DB35D",
"^.	c #77BF68",
"/.	c #61AE4C",
"(.	c #5CA747",
"_.	c #5FAA4A",
":.	c #6CB75A",
"<.	c #66B153",
"[.	c #70BE5E",
"}.	c #6FBB5C",
"|.	c #70BD5D",
"1.	c #77C069",
"2.	c #6EB45D",
"3.	c #70B761",
"4.	c #79C369",
"5.	c #77C068",
"6.	c #75BB66",
"7.	c #76BE67",
"8.	c #80C673",
"                              . + + @ # # # # # $ + + %                                         & ",
"                              * + + = # # # # # - + + ;                                         & ",
"                              * + + = # # # # # - + + ;                                         & ",
"      > > > . . . , + + + + + ' ) ) ! ~ ~ ~ ~ ~ { ) ) ] + + + + + + + + + + + + . . ; > > >     & ",
"      > > > . . . , + + + + + ' ) ) ^ ~ ~ ~ ~ ~ / ) ) ] + + + + + + + + + + + + . . . > > >     & ",
"      > > > . . . + + + + + + ' ) ) ( ~ ~ ~ ~ ~ / ) ) ] + + + + + + + + + + + + . . . > > >     & ",
"      . . . _ : : < [ [ [ [ [ } } | 1 2 2 2 2 2 3 | } } [ [ [ [ [ [ [ [ [ [ [ 4 : : 5 . . %     & ",
"      . . . 6 4 4 7 # # # # # 8 ~ ~ 9 2 2 2 2 2 9 0 ~ # # # # # # # # # # # # 7 4 4 = . . .     & ",
"      . . . : 4 4 7 # # # # # 8 ~ ~ 9 2 2 2 2 2 9 ~ ~ 8 # # # # # # # # # # # 7 4 4 = . . ;     & ",
"      , + + 4 7 a b c c c c c c c d e f f f f f e c c c c c c c c c c c c c c 2 a a g + + ,     & ",
"      + + + [ # # c f f f f f f f f f f f f f f f f f f f f f f f f f f f f f c # # h + + ,     & ",
"      + + + [ # # c f f f f f f f f f f f f f f f f f f f f f f f f f f f f f c # # h + + ,     & ",
"      + + + i j j k l l l l l l l l m f f f f f f f f f f f n l l l l l l l l o j j p + + ,     & ",
"      + + + q r r s t t t t t t t t u f f f f f f f f f f f v t t t t t t t t s r r w + + ,     & ",
"      + + + q r r s t t t t t t t t u f f f f f f f f f f f v t t t t t t t t s r r w + + ,     & ",
"      + + + q r r s t t t t t t t t u f f x x x x x x x x x y z z A t t t t t s r r w + + ,     & ",
"      + + + q r r s t t t t t t t t u f f x x x x x x x x x B C C z t t t t t s r r w + + ,     & ",
"      + + + q r r s t t t t t t t t u f f x x x x x x x x x B C C z t t t t t s r r w + + ,     & ",
"      + + + q r r s t t t t t t t t u f f f f f x D D D D D B C C z t t t t t s r r w + + ,     & ",
"      + + + q r r s t t t t t t t t u f f f f f x D D E D E F C C z t t t t t s r r w + + ,     & ",
"      + + + q r r s t t t t t t t t u f f f f f x E D E D E F C C z t t t t t s r r w + + ,     & ",
"; . . ] ] ] G r r s t t t t t A z z H x x x D x D E E E D D F C C C z z z z z I r r w + + ,     & ",
"+ + + ) ) ) G r r s t t t t t z C C v x x D D E D D D E D E F C C C C C C C C I r r w + + ,     & ",
"+ + + ) ) ) G r r s t t t t t z C C v x x D E E E E D E E E F C C C C C C C C I r r w + + ,     & ",
"/ { { J J K L M M y B B B B B N N N O D D D E E D x D x x x P Q Q N Q Q N N N R S S T + + ,     & ",
"# # # ~ ~ ~ 2 2 2 f f f f f f x x x D E D E E D D x x x x x x E E E D E D x x U # # h + + ,     & ",
"# # # ~ ~ ~ 2 2 2 f f f f f f x x x D D E E E E D x x x x x x D E E D E D x x U # # h + + ,     & ",
"# # # ~ ~ ~ 2 2 2 f f f f f f f x x D E E E D D x x x x x x x E D E E D D x x c # # [ ] ] V ; ; W ",
"# # # ~ ~ ~ 2 2 2 f f f f f f f f f D D E E E E x x x x x x x D E E E E D f f c ~ 0 X ) ) Y + + Z ",
"# # # ~ ~ ~ 2 2 2 f f f f f f f f f x E E E E E x x x x x x x E D D D D D f f d ~ ~ X ) ) Y + + Z ",
"{ ` `  . . .~ 9 9 e f f f f f f f f x D x D D D ..B B B B B m D D D D D x f f f +.+.@.#.#.$.%.%.&.",
"+ + + ) ) ) | ~ ~ d f f f f f D E E f f f x x x *.=.=.=.=.=.-.x x x x x x E E ;.2 2 2 ~ ~ ~ # # >.",
"+ + + ) ) ) } ~ ~ d f f f f f D D E f f f x x x *.=.=.=.=.=.,.x x x x x x E D ;.2 2 2 ~ ~ ~ # # >.",
"; . . ] ] ] } 8 ~ c f f f f f f f f f f f x x x *.=.=.=.=.=.,.x x x x x f f f e 2 2 2 ~ ~ ~ # # >.",
"      + + + [ # # c f f f f f 2 2 2 e f f x x x *.=.=.=.=.=.'.x x x f f e 2 2 2 2 2 2 ~ ~ ~ # # >.",
"      + + + [ # # c f f f f f 2 2 2 e f f x x x *.=.=.=.=.=.-.x x x f f e 2 2 2 2 2 2 ~ ~ ~ # # >.",
"      + + + [ # # c f f f f f e c c e f f f x x H ).).).).).v x x f f f f c c 2 9 9 1 !.!.~.{.{.].",
"      + + + [ # # c f f f f f f f f f f f f f f f f f f f f f f f f f f f f f c ~ ~ X ) ) Y + + Z ",
"      + + + [ # # c f f f f f f f f f f f f f f f f f f f f f f f f f f f f f c ~ ~ X ) ) Y + + Z ",
"      , + + 4 7 7 b c c c c c c d c f f f f f f d c c c d c c c d d c c d c e 2 # # [ ' ' ] , , ^.",
"      . . . : /.4 7 # # # # # ~ ~ ~ 9 2 2 2 2 2 9 ~ ~ ~ ~ ~ ~ ~ ~ ~ ~ ~ ~ ~ ~ # 4 4 6 . . %     & ",
"      . . . 6 4 4 7 # # # # # 8 ~ ~ 9 2 2 2 2 2 9 ~ ~ ~ ~ ~ ~ ~ ~ ~ ~ ~ ~ 0 ~ # /.4 = . . .     & ",
"      ; ; ; 5 6 6 g h h h h h [ X X ~ (.2 2 (.2 _.X X X X [ } } } } } } X [ X [ = = 5 ; ; ;     & ",
"            ; . . + + + + + + ' ) ) ! ~ ~ ~ ~ ~ / ) ) ) ) ) ) :.:.:.:.:.:.) ) ' . . ;           & ",
"            . . . + + + + + + ' ) ) ^ ~ ~ ~ ~ ~ <.) ) ) ) ) ) :.:.:.:.:.:.) ) ' . . ;           & ",
"            % . ; [., , , , , ] Y Y ~.~ ~ ~ ~ ~ / Y Y ' ] ] Y :.:.:.:.:.) ] ] }.; ; %           & ",
"                              * + + = # # # # # - + + . > > |.) ) ) ) ) V > > >                 & ",
"                              * + + = # # # # # - + + ; > > |.) ) ) ) ) V > > >                 & ",
"& & & & & & & & & & & & & & & 1.Z Z 2.>.>.>.>.>.3.Z Z W 4.4.5.6.6.6.6.6.7.4.4.4.& & & & & & & & 8."};
