/* XPM */
static char * 16E_xpm[] = {
"16 16 4 1",
" 	c #8B9BB4",
".	c #3A4466",
"+	c #262B44",
"@	c #5A6988",
"   .+  @@    @@ ",
"@@@ .@@@@@@@@@ @",
"@@@ .@@@@@@@@@@@",
"@@@ @.@@@@@@@@@@",
"@@@@.@@@@@.@@@@@",
"@@@ ..@@..@@@.@ ",
".@..+...@@...@..",
"++++++++++++++++",
"        @.+.  @@",
"@@@@@@@@ @..@@  ",
"@@@@@@@@@ +.@@@@",
"@@@@@@@@@ +@.@@@",
"@@@@@@@@@@..@@.@",
".@@@.@@@@ +..@@.",
"@.@.@.....++...@",
"++++++++++++++++"};
