/* XPM */
static char * 16N_xpm[] = {
"16 16 4 1",
" 	c #8B9BB4",
".	c #3A4466",
"+	c #5A6988",
"@	c #C0CBDC",
"           .+   ",
"@@@@@@@@@@ .+@@@",
"         @ .+   ",
"         @ .+   ",
"+++++++++++.++++",
"................",
".       .       ",
".+@@@@@ .+@@@@@ ",
".+    @ .+    @ ",
".+++++++.+    @ ",
".........+    @ ",
".       .+    @ ",
".+@@@@@ .+    @ ",
".+    @ .+      ",
".+++++++.+++++++",
"................"};
