/* XPM */
static char * 16S_xpm[] = {
"16 16 6 1",
" 	c #262B44",
".	c #3A4466",
"+	c #5A6988",
"@	c #3E2731",
"#	c #8B9BB4",
"$	c #733E39",
" .   .  ++  @  .",
"    .  @. +++ .#",
" ..@@.  .  @ +#.",
".   .. +     ..+",
"+. .  + .   .   ",
" .+..+..   .+   ",
"   +.#..+ .+   +",
" . @...+  #   +.",
"..@ .++.  +  +. ",
" .@@.+..##  ..  ",
".@.@.#+#..++ .  ",
"@@  #+    . .   ",
".  +    @@ . . @",
"  +    @@ . . ..",
"      $..+.....@",
" +  ++.++.. .@.@"};
