/* XPM */
static char * 16W_xpm[] = {
"16 17 6 1",
" 	c #8B9BB4",
".	c #3A4466",
"+	c #262B44",
"@	c #5A6988",
"#	c #5B6986",
"$	c #8B9BB5",
"    .+.         ",
"@@@@ .@@@@@@@@@@",
"@@@@ .@@@..@@@@@",
"@@@@ .@@@@@@@@@@",
"@@@@ .@@@@@@@@@ ",
" @@@ .@@ .@@@@@@",
".@@@.+.@@@@@@@..",
"+...++++...+++++",
"@          .+.  ",
" @@@@@@@@@@ .@@@",
"@@@@@@@@ .@ .@@@",
"@@@@@@@@@@@ .@@@",
"@@ .@@@@@@@ .@@ ",
".@@@@@@@@@@@.@@@",
"@@@..@@@@@@.+.@@",
"+..++......+++..",
"############$###"};
