/* XPM */
static char * door_xpm[] = {
"64 64 400 2",
"  	c #818181",
". 	c #CDCDCD",
"+ 	c #CFCFCF",
"@ 	c #CECECE",
"# 	c #868686",
"$ 	c #D1D1D1",
"% 	c #7E7E7E",
"& 	c #A2A2A2",
"* 	c #A3A3A3",
"= 	c #A5A5A5",
"- 	c #838383",
"; 	c #A0A0A0",
"> 	c #A1A1A1",
", 	c #A09FA4",
"' 	c #A09FA5",
") 	c #A3A1A7",
"! 	c #CAC9CD",
"~ 	c #838189",
"{ 	c #9F9EA3",
"] 	c #A09DA7",
"^ 	c #997CCE",
"/ 	c #987AD0",
"( 	c #997BD0",
"_ 	c #9A7ECF",
": 	c #9A7DCF",
"< 	c #9A7CCF",
"[ 	c #A189CF",
"} 	c #845FCB",
"| 	c #987ACF",
"1 	c #997CCF",
"2 	c #9879D1",
"3 	c #9A7CD0",
"4 	c #9E84CD",
"5 	c #A188CB",
"6 	c #A28BC9",
"7 	c #A38BC9",
"8 	c #A28CC7",
"9 	c #A18CC7",
"0 	c #A896C5",
"a 	c #927AC1",
"b 	c #A089C7",
"c 	c #A18BC7",
"d 	c #A18AC8",
"e 	c #A089C8",
"f 	c #A188CA",
"g 	c #A087CB",
"h 	c #9D81CD",
"i 	c #9B7FCF",
"j 	c #987AD1",
"k 	c #9D82CE",
"l 	c #A28AC9",
"m 	c #B1A3BA",
"n 	c #BBB2AD",
"o 	c #BEB6AA",
"p 	c #BCB5AA",
"q 	c #B6BD8C",
"r 	c #B9C189",
"s 	c #BBC288",
"t 	c #C4CE84",
"u 	c #CCDB36",
"v 	c #BAC386",
"w 	c #B4BC8D",
"x 	c #B2BA8E",
"y 	c #ADB593",
"z 	c #B7AFAF",
"A 	c #B7AEB2",
"B 	c #B3A7B6",
"C 	c #A38FC5",
"D 	c #A28ACA",
"E 	c #9C7FCE",
"F 	c #A09DA8",
"G 	c #987CCF",
"H 	c #997DCE",
"I 	c #9679CC",
"J 	c #967ACC",
"K 	c #9C83C8",
"L 	c #A08AC4",
"M 	c #A999BC",
"N 	c #BCC778",
"O 	c #C0D836",
"P 	c #C9E02B",
"Q 	c #C8E129",
"R 	c #D4E921",
"S 	c #DAED1E",
"T 	c #DCEE1E",
"U 	c #DFF223",
"V 	c #DFEF0F",
"W 	c #D7EB1E",
"X 	c #D3E921",
"Y 	c #CEE524",
"Z 	c #C8E226",
"` 	c #C7E02A",
" .	c #BFDA30",
"..	c #C4DB37",
"+.	c #A5B388",
"@.	c #9E8AC3",
"#.	c #9F89C5",
"$.	c #987ECA",
"%.	c #987BCF",
"&.	c #997ECC",
"*.	c #9B999E",
"=.	c #7C7B7C",
"-.	c #7A797A",
";.	c #7F7D79",
">.	c #898B76",
",.	c #878F72",
"'.	c #A2AF64",
").	c #B9C951",
"!.	c #C2D544",
"~.	c #CEE136",
"{.	c #D4E72D",
"].	c #D5E82A",
"^.	c #D6EA27",
"/.	c #DCEE23",
"(.	c #E1F11F",
"_.	c #E3F21E",
":.	c #DDEE22",
"<.	c #D2E82A",
"[.	c #CDE52D",
"}.	c #CDE42F",
"|.	c #C8E033",
"1.	c #C6DC3A",
"2.	c #C4D743",
"3.	c #BECD4F",
"4.	c #95A369",
"5.	c #858D72",
"6.	c #838478",
"7.	c #7B797A",
"8.	c #7C797F",
"9.	c #9579C9",
"0.	c #997FCC",
"a.	c #9A989C",
"b.	c #675A53",
"c.	c #63554D",
"d.	c #6D624C",
"e.	c #777049",
"f.	c #818344",
"g.	c #B1B935",
"h.	c #BBC82C",
"i.	c #BCCE25",
"j.	c #BFD51D",
"k.	c #C4DA15",
"l.	c #C5DD11",
"m.	c #C4DE0E",
"n.	c #C7DF0D",
"o.	c #CDE30B",
"p.	c #D1E60A",
"q.	c #CFE50B",
"r.	c #CCE30B",
"s.	c #C6DF0D",
"t.	c #C6DD11",
"u.	c #C5DB15",
"v.	c #C2D71C",
"w.	c #C0D223",
"x.	c #BCC92B",
"y.	c #7B7C45",
"z.	c #6E664A",
"A.	c #64564F",
"B.	c #7B787D",
"C.	c #A09CA8",
"D.	c #997FCB",
"E.	c #675952",
"F.	c #63544C",
"G.	c #6D624B",
"H.	c #767148",
"I.	c #7D8044",
"J.	c #B0BB32",
"K.	c #BCCC28",
"L.	c #EFF809",
"M.	c #F7FE01",
"N.	c #F8FF00",
"O.	c #C4D225",
"P.	c #B9C42F",
"Q.	c #7D8144",
"R.	c #6E6749",
"S.	c #7B777D",
"T.	c #9579C8",
"U.	c #A09CA9",
"V.	c #9A989B",
"W.	c #60524A",
"X.	c #665A4A",
"Y.	c #756E47",
"Z.	c #767944",
"`.	c #AEB832",
" +	c #B9C928",
".+	c #B0C823",
"++	c #EFF805",
"@+	c #F1FA02",
"#+	c #F1FA01",
"$+	c #F1FA00",
"%+	c #B3CA22",
"&+	c #C3D125",
"*+	c #B1BA32",
"=+	c #797D43",
"-+	c #6C6548",
";+	c #61534A",
">+	c #7A777C",
",+	c #9479C8",
"'+	c #9A979B",
")+	c #675B55",
"!+	c #514B49",
"~+	c #555148",
"{+	c #696846",
"]+	c #6A6E44",
"^+	c #9EA838",
"/+	c #B6C22D",
"(+	c #BFCE24",
"_+	c #BCD01C",
":+	c #B5CD19",
"<+	c #B5CF15",
"[+	c #BBD40F",
"}+	c #BBD50D",
"|+	c #BCD610",
"1+	c #BDD708",
"2+	c #BFD80D",
"3+	c #BCD60F",
"4+	c #BAD411",
"5+	c #B8D115",
"6+	c #B8CF18",
"7+	c #BBCE1E",
"8+	c #B5C626",
"9+	c #B5C22E",
"0+	c #86913E",
"a+	c #676C44",
"b+	c #5B5947",
"c+	c #514C49",
"d+	c #A1A0A3",
"e+	c #9980CB",
"f+	c #99979A",
"g+	c #665952",
"h+	c #6A5E59",
"i+	c #888787",
"j+	c #898989",
"k+	c #919385",
"l+	c #929981",
"m+	c #96A479",
"n+	c #B6C663",
"o+	c #C3D652",
"p+	c #CCE044",
"q+	c #C9E141",
"r+	c #C4E03F",
"s+	c #CCE539",
"t+	c #CDE638",
"u+	c #D0EA41",
"v+	c #CFE226",
"w+	c #D0E736",
"x+	c #CDE637",
"y+	c #CAE43A",
"z+	c #C7E13E",
"A+	c #C6DF42",
"B+	c #C5DB4A",
"C+	c #BFD355",
"D+	c #9FB36F",
"E+	c #8A9A7D",
"F+	c #909781",
"G+	c #8A8C87",
"H+	c #7A777B",
"I+	c #9479C7",
"J+	c #9980CA",
"K+	c #665851",
"L+	c #6A5F59",
"M+	c #8B8B88",
"N+	c #919583",
"O+	c #919980",
"P+	c #94A37A",
"Q+	c #A6B76E",
"R+	c #B2C562",
"S+	c #BACE5A",
"T+	c #BED354",
"U+	c #BDD353",
"V+	c #B9D050",
"W+	c #BFD962",
"X+	c #B3C73D",
"Y+	c #B3CC50",
"Z+	c #B5CF55",
"`+	c #B5CE57",
" @	c #B0C85C",
".@	c #ADC560",
"+@	c #A5BC67",
"@@	c #9AAE73",
"#@	c #8E9D7C",
"$@	c #8E9781",
"%@	c #8B8F86",
"&@	c #64564E",
"*@	c #A5A4A8",
"=@	c #888887",
"-@	c #8F9186",
";@	c #909584",
">@	c #919882",
",@	c #909A80",
"'@	c #94A07D",
")@	c #95A27A",
"!@	c #92A177",
"~@	c #818F5F",
"{@	c #A4B48C",
"]@	c #7F8D59",
"^@	c #818E5B",
"/@	c #93A276",
"(@	c #94A379",
"_@	c #8F9D7C",
":@	c #919D7E",
"<@	c #919B7F",
"[@	c #8D9285",
"}@	c #898A88",
"|@	c #7C7B80",
"1@	c #9779CE",
"2@	c #9B7ED1",
"3@	c #CCCBCE",
"4@	c #6B5E57",
"5@	c #63544D",
"6@	c #6B5F5A",
"7@	c #8C8C88",
"8@	c #80817C",
"9@	c #82827D",
"0@	c #A0A19C",
"a@	c #6E6E66",
"b@	c #828279",
"c@	c #82837B",
"d@	c #8D8E87",
"e@	c #8F9087",
"f@	c #8D8E88",
"g@	c #6B5C54",
"h@	c #888888",
"i@	c #7D7D7D",
"j@	c #9E9E9E",
"k@	c #676767",
"l@	c #7B7B7B",
"m@	c #65564D",
"n@	c #8A7668",
"o@	c #898888",
"p@	c #7F7F7F",
"q@	c #848484",
"r@	c #8A8A8A",
"s@	c #9D9D9D",
"t@	c #9F9F9F",
"u@	c #696969",
"v@	c #9B9B9B",
"w@	c #686868",
"x@	c #878787",
"y@	c #787878",
"z@	c #9A9A9A",
"A@	c #9C9C9C",
"B@	c #9C9A9E",
"C@	c #9A7ED1",
"D@	c #C2C1C4",
"E@	c #6A5D56",
"F@	c #77757B",
"G@	c #C5C5C5",
"H@	c #646464",
"I@	c #89888D",
"J@	c #977ACF",
"K@	c #9E9DA0",
"L@	c #656269",
"M@	c #9678CE",
"N@	c #8A888D",
"O@	c #9F9DA1",
"P@	c #656369",
"Q@	c #A09FA2",
"R@	c #918B89",
"S@	c #665750",
"T@	c #8F8986",
"U@	c #68656C",
"V@	c #A2A1A5",
"W@	c #C1C1C0",
"X@	c #948E8C",
"Y@	c #685951",
"Z@	c #BFBFBF",
"`@	c #6B6A70",
" #	c #C0C0C0",
".#	c #96908D",
"+#	c #8B786B",
"@#	c #68676D",
"##	c #C1C0C0",
"$#	c #A79E98",
"%#	c #69676D",
"&#	c #A7A7A7",
"*#	c #8D8D8D",
"=#	c #7A7A7A",
"-#	c #727272",
";#	c #666666",
">#	c #6E6E6E",
",#	c #8F8F8F",
"'#	c #8C8C8C",
")#	c #969696",
"!#	c #949494",
"~#	c #B9B9B9",
"{#	c #979797",
"]#	c #959595",
"^#	c #636363",
"/#	c #777777",
"(#	c #78787A",
"_#	c #816FA5",
":#	c #816FA7",
"<#	c #8170A6",
"[#	c #878688",
"}#	c #656468",
"|#	c #806EA5",
"1#	c #796C65",
"2#	c #7A6E66",
"3#	c #958D87",
"  . + + + + + + + + + + + + + + + + + + + + + + + + + + + + + @ # . + + + + + + + + + + + + + + + + + + + + + + + + + + + + + $ ",
"% & * * * * * * * * * * * * * * * * * * * * * * * * * * * * = . - & * * * * * * * * * * * * * * * * * * * * * * * * * * * * = + ",
"% ; > > > > > > > > > > > > > > > > > > > > > > > > > > > > * . - ; > > > > > > > > > > > > > > > > > > > > > > > > > > > > * + ",
"% ; > > > > > > > > > > > > > > > > > > > > > > > > > > > > * . - ; > > > > > > > > > > > > > > > > > > > > > > > > > > > > * + ",
"% ; > > > > > > > > > > > > , ' ' ' ' ' ' ' ' ' ' ' ' ' ' ' ) ! ~ { ' ' ' ' ' ' ' ' ' ' ' ' ' ' ' , > > > > > > > > > > > > * + ",
"% ; > > > > > > > > > > > ] ^ / / / / / / / / / / ( _ _ _ : < [ } | ( ( ( ( ( / / / / / / / / / / ^ ] > > > > > > > > > > > * + ",
"% ; > > > > > > > > > > ] 1 2 2 2 2 2 2 2 2 2 3 4 5 6 7 8 9 8 0 a b c d e f g 4 h i 2 2 2 2 2 2 2 2 1 ] > > > > > > > > > > * + ",
"% ; > > > > > > > > > ] 1 2 2 2 2 2 2 2 2 j k l m n o p q r s t u v w x y z A B C D E 2 2 2 2 2 2 2 2 1 ] > > > > > > > > > * + ",
"% ; > > > > > > > > F G 2 2 2 2 H I I I J K L M N O P Q R S T U V W X Y Z `  ...+.@.#.$.I I I I 2 2 2 2 G F > > > > > > > > * + ",
"% ; > > > > > > > F %.2 2 2 2 &.*.=.-.-.;.>.,.'.).!.~.{.].^./.(._.:.<.[.}.|.1.2.3.4.5.6.7.-.-.8.9.2 2 2 2 %.F > > > > > > > * + ",
"% ; > > > > > > F %.2 2 2 2 0.a.b.c.c.c.d.e.f.g.h.i.j.k.l.m.n.o.p.q.r.s.t.u.v.w.x.g.y.z.c.c.c.A.B.9.2 2 2 2 %.F > > > > > > * + ",
"% ; > > > > > C.%.2 2 2 2 D.a.E.F.F.F.F.G.H.I.J.K.L.M.N.N.N.N.N.N.N.N.N.N.N.M.L.O.P.Q.R.F.F.F.F.A.S.T.2 2 2 2 %.C.> > > > > * + ",
"% ; > > > > U.%.2 2 2 2 D.V.E.F.F.F.F.W.X.Y.Z.`. +.+++@+#+#+$+$+$+$+$+#+#+@+++%+&+*+=+-+;+F.F.F.F.A.>+,+2 2 2 2 %.U.> > > > * + ",
"% ; > > > U.%.2 2 2 2 D.'+E.F.F.F.F.)+!+~+{+]+^+/+(+_+:+<+[+}+|+1+2+3+4+5+6+7+8+9+0+a+b+c+)+F.F.F.F.A.>+,+2 2 2 2 %.U.> > > * + ",
"% ; > > d+%.2 2 2 2 e+f+g+F.F.F.F.h+i+j+j+k+l+m+n+o+p+q+r+s+t+u+v+w+x+y+z+A+B+C+D+E+F+G+j+i+h+F.F.F.F.A.H+I+2 2 2 2 %.d+> > * + ",
"% ; > > d+%.2 2 2 J+f+K+F.F.F.F.L+i+j+j+j+M+N+O+P+Q+R+S+T+U+V+W+X+Y+Z+`+ @.@+@@@#@$@%@j+j+j+i+L+F.F.F.F.&@H+I+2 2 2 %.d+> > * + ",
"% ; > > d+%.2 2 ( *@b.F.F.F.F.L+=@j+j+j+j+j+M+-@;@>@,@'@)@!@~@{@]@^@/@(@_@:@<@>@[@}@j+j+j+j+j+=@L+F.F.F.F.A.|@1@2 2 %.d+> > * + ",
"% ; > > d+%.2 2 2@3@4@F.F.5@6@=@j+j+j+j+j+j+j+j+j+M+7@7@M+8@9@0@a@b@c@d@e@e@f@7@j+j+j+j+j+j+j+j+=@6@5@F.F.A.|@1@2 2 %.d+> > * + ",
"% ; > > d+%.2 2 2@3@4@F.F.g@=@j+j+j+j+j+j+j+j+j+j+j+j+j+h@i@% j@k@l@i@h@j+j+j+j+j+j+j+j+j+j+j+j+j+=@g@F.F.A.|@1@2 2 %.d+> > * + ",
"% ; > > d+%.2 2 2@3@4@F.m@n@o@j+j+j+j+j+j+j+j+j+j+j+j+j+h@i@% j@k@l@i@h@j+j+j+j+j+j+j+j+j+j+j+j+j+o@n@m@F.A.|@1@2 2 %.d+> > * + ",
"% ; > > d+%.2 2 2@3@4@F.m@n@o@j+j+j+j+j+j+j+j+j+j+j+j+j+j+p@q@j@k@  p@j+j+j+j+j+j+j+j+j+j+j+j+j+j+o@n@m@F.A.|@1@2 2 %.d+> > * + ",
"% ; > > d+%.2 2 2@3@4@F.m@n@o@j+j+j+j+j+j+j+j+j+j+j+j+j+j+r@s@t@u@v@r@j+j+j+j+j+j+j+j+j+j+j+j+j+j+o@n@m@F.A.|@1@2 2 %.d+> > * + ",
"% ; > > d+%.2 2 2@3@4@F.m@n@o@j+j+j+j+j+j+j+j+j+j+j+j+j+j+j+r@j@w@x@j+j+j+j+j+j+j+j+j+j+j+j+j+j+j+o@n@m@F.A.|@1@2 2 %.d+> > * + ",
"% ; > > d+%.2 2 2@3@4@F.m@n@o@j+j+j+j+j+j+j+j+j+j+j+j+j+j+j+r@j@w@h@j+j+j+j+j+j+j+j+j+j+j+j+j+j+j+o@n@m@F.A.|@1@2 2 %.d+> > * + ",
"% ; > > d+%.2 2 2@3@4@F.m@n@o@j+j+j+j+j+j+j+j+j+j+j+j+j+j+j+r@j@w@h@j+j+j+j+j+j+j+j+j+j+j+j+j+j+j+o@n@m@F.A.|@1@2 2 %.d+> > * + ",
"% ; > > d+%.2 2 2@3@4@F.m@n@o@j+j+j+j+j+j+j+j+j+j+j+j+j+j+j+r@j@w@h@j+j+j+j+j+j+j+j+j+j+j+j+j+j+j+o@n@m@F.A.|@1@2 2 %.d+> > * + ",
"% ; > > d+%.2 2 2@3@4@F.m@n@o@j+j+j+j+j+j+j+j+j+j+j+j+j+j+j+r@j@w@h@j+j+j+j+j+j+j+j+j+j+j+j+j+j+j+o@n@m@F.A.|@1@2 2 %.d+> > * + ",
"% ; > > d+%.2 2 2@3@4@F.m@n@o@j+j+j+j+j+j+j+j+j+j+j+j+j+j+j+r@j@w@h@j+j+j+j+j+j+j+j+j+j+j+j+j+j+j+o@n@m@F.A.|@1@2 2 %.d+> > * + ",
"% ; > > d+%.2 2 2@3@4@F.m@n@o@j+j+j+j+j+j+j+j+j+j+j+j+j+j+j+r@j@w@h@j+j+j+j+j+j+j+j+j+j+j+j+j+j+j+o@n@m@F.A.|@1@2 2 %.d+> > * + ",
"% ; > > d+%.2 2 2@3@4@F.m@n@o@j+j+j+j+j+j+j+j+j+j+j+j+j+j+j+r@j@w@h@j+j+j+j+j+j+j+j+j+j+j+j+j+j+j+o@n@m@F.A.|@1@2 2 %.d+> > * + ",
"% ; > > d+%.2 2 2@3@4@F.m@n@o@j+j+j+j+j+j+j+j+j+j+j+j+j+j+j+r@j@w@h@j+j+j+j+j+j+j+j+j+j+j+j+j+j+j+o@n@m@F.A.|@1@2 2 %.d+> > * + ",
"y@z@A@A@B@%.2 2 C@D@E@F.m@n@o@j+j+j+j+j+j+j+j+j+j+j+j+j+j+j+r@j@w@h@j+j+j+j+j+j+j+j+j+j+j+j+j+j+j+o@n@m@F.&@F@1@2 2 %.B@A@A@j@G@",
"H@x@j+j+I@J@2 2 %.K@E.F.m@n@o@j+j+j+j+j+j+j+j+j+j+j+j+j+j+j+r@j@w@h@j+j+j+j+j+j+j+j+j+j+j+j+j+j+j+o@n@m@F.c.L@M@2 2 J@I@j+j+r@; ",
"H@h@j+j+N@J@2 2 %.O@E.F.m@n@o@j+j+j+j+j+j+j+j+j+j+j+j+j+j+j+r@j@w@h@j+j+j+j+j+j+j+j+j+j+j+j+j+j+j+o@n@m@F.c.P@M@2 2 J@N@j+j+r@; ",
"H@h@j+j+N@J@2 2 %.O@E.F.m@n@o@j+j+j+j+j+j+j+j+j+j+j+j+j+j+j+r@j@w@h@j+j+j+j+j+j+j+j+j+j+j+j+j+j+j+o@n@m@F.c.P@M@2 2 J@N@j+j+r@; ",
"H@h@j+j+N@J@2 2 %.O@E.F.m@n@o@j+j+j+j+j+j+j+j+j+j+j+j+j+j+j+r@j@w@h@j+j+j+j+j+j+j+j+j+j+j+j+j+j+j+o@n@m@F.c.P@M@2 2 J@N@j+j+r@; ",
"H@h@j+j+N@J@2 2 %.O@E.F.m@n@o@j+j+j+j+j+j+j+j+j+j+j+j+j+j+j+r@j@w@h@j+j+j+j+j+j+j+j+j+j+j+j+j+j+j+o@n@m@F.c.P@M@2 2 J@N@j+j+r@; ",
"H@h@j+j+N@J@2 2 %.O@E.F.m@n@o@j+j+j+j+j+j+j+j+j+j+j+j+j+j+j+r@j@w@h@j+j+j+j+j+j+j+j+j+j+j+j+j+j+j+o@n@m@F.c.P@M@2 2 J@N@j+j+r@; ",
"H@h@j+j+N@J@2 2 %.O@E.F.m@n@o@j+j+j+j+j+j+j+j+j+j+j+j+j+j+j+r@j@w@h@j+j+j+j+j+j+j+j+j+j+j+j+j+j+j+o@n@m@F.c.P@M@2 2 J@N@j+j+r@; ",
"H@h@j+j+N@J@2 2 %.O@E.F.m@n@o@j+j+j+j+j+j+j+j+j+j+j+j+j+j+j+r@j@w@h@j+j+j+j+j+j+j+j+j+j+j+j+j+j+j+o@n@m@F.c.P@M@2 2 J@N@j+j+r@; ",
"H@h@j+j+N@J@2 2 %.O@E.F.m@n@o@j+j+j+j+j+j+j+j+j+j+j+j+j+j+j+r@j@w@h@j+j+j+j+j+j+j+j+j+j+j+j+j+j+j+o@n@m@F.c.P@M@2 2 J@N@j+j+r@; ",
"H@h@j+j+N@J@2 2 %.Q@R@S@m@n@o@j+j+j+j+j+j+j+j+j+j+j+j+j+j+j+r@j@w@h@j+j+j+j+j+j+j+j+j+j+j+j+j+j+j+o@n@m@S@T@U@M@2 2 J@N@j+j+r@; ",
"H@h@j+j+N@J@2 2 %.V@W@X@Y@n@o@j+j+j+j+j+j+j+j+j+j+j+j+j+j+j+r@j@w@h@j+j+j+j+j+j+j+j+j+j+j+j+j+j+j+o@n@Y@X@Z@`@M@2 2 J@N@j+j+r@; ",
"H@h@j+j+N@J@2 2 %.d+&  #.#+#o@j+j+j+j+j+j+j+j+j+j+j+j+j+j+j+r@j@w@h@j+j+j+j+j+j+j+j+j+j+j+j+j+j+j+o@+#.# #; @#M@2 2 J@N@j+j+r@; ",
"H@h@j+j+N@J@2 2 %.d+> & ##$#r@j+j+j+j+j+j+j+j+j+j+j+j+j+j+j+r@j@w@h@j+j+j+j+j+j+j+j+j+j+j+j+j+j+j+r@$###& t@%#M@2 2 J@N@j+j+r@; ",
"H@h@j+j+N@J@2 2 %.d+> > &  #&#r@j+j+j+j+j+j+j+j+j+j+j+j+j+j+r@j@w@h@j+j+j+j+j+j+j+j+j+j+j+j+j+j+r@&# #& > t@%#M@2 2 J@N@j+j+r@; ",
"H@h@j+j+N@J@2 2 %.d+> > > * . *#j+j+j+j+j+j+j+j+j+j+j+j+j+j+r@j@w@h@j+j+j+j+j+j+j+j+j+j+j+j+j+j+*#. * > > t@%#M@2 2 J@N@j+j+r@; ",
"H@h@j+j+N@J@2 2 %.d+> > > * . *#j+j+j+j+j+j+j+j+j+j+j+j+j+j+r@j@w@h@j+j+j+j+j+j+j+j+j+j+j+j+j+j+*#. * > > t@%#M@2 2 J@N@j+j+r@; ",
"H@h@j+j+N@J@2 2 %.d+> > > * . *#j+j+j+j+j+j+j+j+j+j+j+j+j+j+r@j@w@h@j+j+j+j+j+j+j+j+j+j+j+j+j+j+*#. * > > t@%#M@2 2 J@N@j+j+r@; ",
"H@h@j+j+N@J@2 2 %.d+> > > * . *#j+j+j+j+j+j+j+j+j+j+j+j+j+j+r@j@w@h@j+j+j+j+j+j+j+j+j+j+j+j+j+j+*#. * > > t@%#M@2 2 J@N@j+j+r@; ",
"H@h@j+j+N@J@2 2 %.d+> > > * . *#j+j+j+j+j+j+j+j+j+j+j+j+j+j+r@j@w@h@j+j+j+j+j+j+j+j+j+j+j+j+j+j+*#. * > > t@%#M@2 2 J@N@j+j+r@; ",
"H@h@j+j+N@J@2 2 %.d+> > > * . *#j+j+j+j+j+j+j+j+j+j+j+j+j+j+r@j@w@h@j+j+j+j+j+j+j+j+j+j+j+j+j+j+*#. * > > t@%#M@2 2 J@N@j+j+r@; ",
"H@h@j+j+N@J@2 2 %.d+> > > * . *#j+j+j+j+j+j+j+j+j+j+j+j+j+j+r@j@w@h@j+j+j+j+j+j+j+j+j+j+j+j+j+j+*#. * > > t@%#M@2 2 J@N@j+j+r@; ",
"H@h@j+j+N@J@2 2 %.d+> > > * . *#j+j+j+j+j+j+j+j+j+j+j+j+j+h@i@j@k@=#h@j+j+j+j+j+j+j+j+j+j+j+j+j+*#. * > > t@%#M@2 2 J@N@j+j+r@; ",
"H@h@j+j+N@J@2 2 %.d+> > > * . *#j+j+j+j+j+j+j+j+j+j+j+j+j+- -#s@;#>#- j+j+j+j+j+j+j+j+j+j+j+j+j+*#. * > > t@%#M@2 2 J@N@j+j+r@; ",
"H@h@j+j+N@J@2 2 %.d+> > > * . *#j+j+j+j+j+j+j+j+j+j+j+j+h@i@% j@k@l@i@h@j+j+j+j+j+j+j+j+j+j+j+j+*#. * > > t@%#M@2 2 J@N@j+j+r@; ",
"H@h@j+j+N@J@2 2 %.d+> > > * . *#j+j+j+j+j+j+j+j+j+j+j+j+h@i@% j@k@l@i@h@j+j+j+j+j+j+j+j+j+j+j+j+*#. * > > t@%#M@2 2 J@N@j+j+r@; ",
"H@h@j+j+N@J@2 2 %.d+> > > * . *#j+j+j+j+j+j+j+j+j+j+j+j+h@i@% j@k@l@i@h@j+j+j+j+j+j+j+j+j+j+j+j+*#. * > > t@%#M@2 2 J@N@j+j+r@; ",
"H@h@j+j+N@J@2 2 %.d+> > > * . *#j+j+j+j+j+j+j+j+j+j+j+j+j+- ,#j@w@'#- j+j+j+j+j+j+j+j+j+j+j+j+j+*#. * > > t@%#M@2 2 J@N@j+j+r@; ",
"H@h@j+j+N@J@2 2 %.d+> > > * . *#j+j+j+j+j+j+j+j+j+j+j+j+j+r@)#t@w@!#r@j+j+j+j+j+j+j+j+j+j+j+j+j+*#. * > > t@%#M@2 2 J@N@j+j+r@; ",
"H@h@j+j+N@J@2 2 %.d+> > > * . *#j+j+j+j+j+j+j+j+j+j+j+j+j+j+r@j@w@h@j+j+j+j+j+j+j+j+j+j+j+j+j+j+*#. * > > t@%#M@2 2 J@N@j+j+r@; ",
"H@h@j+j+N@J@2 2 %.d+> > > & ~#{#]#]#]#]#]#]#]#]#]#]#]#]#]#]#)#t@x@]#]#]#]#]#]#]#]#]#]#]#]#]#]#]#{#~#& > > t@%#M@2 2 J@N@j+j+r@; ",
"^#/#y@y@(#_#:#:#<#[#x@x@x@x@x@x@x@x@x@x@x@x@x@x@x@x@x@x@x@x@x@x@x@x@x@x@x@x@x@x@x@x@x@x@x@x@x@x@x@x@x@x@x@# }#|#:#:#_#(#y@y@=#; ",
"1#1#1#1#1#1#1#1#1#1#1#1#1#1#1#1#1#1#1#1#1#1#1#1#1#1#1#1#1#1#1#1#1#1#1#1#1#1#1#1#1#1#1#1#1#1#1#1#1#1#1#1#1#1#1#1#1#1#1#1#1#1#2#3#"};
