/* XPM */
static char * door6_xpm[] = {
"64 64 24 1",
" 	c None",
".	c #000000",
"+	c #BA9533",
"@	c #5C6567",
"#	c #A87523",
"$	c #4B5355",
"%	c #1F1F1E",
"&	c #D2C758",
"*	c #5B6567",
"=	c #C6AB4B",
"-	c #37302D",
";	c #362F2D",
">	c #36302D",
",	c #20201E",
"'	c #BA9532",
")	c #4A3B3F",
"!	c #6D7F82",
"~	c #809CA3",
"{	c #4A5355",
"]	c #95541C",
"^	c #95551C",
"/	c #1F201E",
"(	c #1E1F1E",
"_	c #3F2924",
"                                                         .++++@@",
"                                                         .+###$$",
"                                                         .+###$$",
"                                                         .+###$$",
"                                                         .+###$$",
"                                                         .+###$$",
"                                                         .+###$$",
"                                                         %&+++@@",
"                                                         .+###$$",
"                                                         %&+++@@",
"                                                         .&+++@@",
"                                                         .&+++@@",
"                                                         %&+++@@",
"                                                         %&+++@@",
"                                                         %&+++*@",
"                                                         %=+++++",
"                                                         %&+++++",
"                                                         %=+++++",
"                                                         %======",
"                                                         -;;;;;;",
">>>>>>>%-,-,,,                                                  ",
"+++++++++@@@$,                                                  ",
"++++++++*'*@@,                                                  ",
"+++++++++*'@$,                                                  ",
"++++++++++*@@,                                                  ",
"@@@@@@@@*++@$,                                                  ",
"@@@@@@@@@+*@$,                                                  ",
"))$$$@@@@*'@$,                                                  ",
"@@@@@@@@@'*@$,                                                  ",
"@@@@@@!@@*@@$,                                                  ",
"@@@@@@!@@'@@$-                                                  ",
"@@@@@@!@@@@@$,                                                  ",
"@@@@@@!@@@@@$-                                                  ",
"@@@@@@~@@@@@@,                                                  ",
"@@@@@@~@@'@@$-                                                  ",
"@@@@@!~@@*@@@,                                                  ",
"~~~~~~@@@'*'@-                                                  ",
"@@@@@@@@@*'*@,                                                  ",
"@@*={@@@*'*'@-                                                  ",
"++=]#++++*'*@,                                                  ",
"=&.^++++++*@@-                                                  ",
".%/#+++++*'@@,                                                  ",
"-,-(##+=++@@$-                                                  ",
",-,-.....%,---                                                  ",
"                                                  .%>%>>>%-%-%%%",
"                                                  .+++++++++++++",
"                                                  .+++++++++++++",
"                                                  .=++++++++++++",
"                                                  .+++++++++++++",
"                                                  .=+++*@@@@@@@@",
"                                                  .&+++@@@@@@@@@",
"                                                  %&+++@@@))))))",
"                                                  .&+++@@)$@@@@@",
"                                                  %=+++@@)@@@@@@",
"                                                  .&+++@@)@@@@@@",
"                                                  %++++@@)@@@@@@",
"                                                  %=+++@@$@@@@@@",
"                                                  %++++@@$@@@@@@",
"                                                  %++++@@$@@@@@@",
"                                                  %++++@@@@@@@@@",
"                                                  %++++@@@@!!!!!",
"                                                  %++++@@@@@@@@@",
"                                                  >++++@@@@@@@@@",
"                                                  ,%_%%,,),)))))"};
