/* XPM */
static char * door_xpm[] = {
"64 64 31 1",
" 	c #5C6567",
".	c #4B5355",
"+	c #BA9533",
"@	c #A87523",
"#	c #1F201E",
"$	c #000000",
"%	c #95551C",
"&	c #3F2924",
"*	c #4A3B3F",
"=	c #6D7F82",
"-	c #37302D",
";	c #1F1F1E",
">	c #D2C758",
",	c #809CA3",
"'	c #4A3A3E",
")	c #5B6567",
"!	c #62534B",
"~	c #C6AB4B",
"{	c #927C4A",
"]	c #8B6B70",
"^	c #362F2D",
"/	c #36302D",
"(	c #4A5355",
"_	c #20201E",
":	c #BA9532",
"<	c #1F1F1D",
"[	c #4B5254",
"}	c #201F1D",
"|	c #95541C",
"1	c #1E1F1E",
"2	c #3F2824",
"                 .    .+@@@#$++++                          . .  ",
".......................@@@@#$+@@@...............................",
".......................@@@%#$+@@@...............................",
"....&&&&&&*&*******....@@@@#$+@@@...&&&&&&&&&&&&*&****&&&**.....",
"...&*..................@@@%#$+@@@..&*...........................",
"...&................ ..@@@%#$+@@@..&........................ ...",
"...&................ ..@@@%#$+@@@..&........................ ...",
"   *                =  +++@-;>+++  *                        =   ",
"...&................ ..@@@%#$+@@@..&........................ ...",
"   *                =  +++@-;>+++  .                        =   ",
"   *                ,  +++@#$>+++  .                        ,   ",
"   *        .       =  +++@#$>+++                           =   ",
"   *       .,       ,  +++@-;>+++    ===,=,,,,=             ,   ",
"   *      '=        ,  +++@-;>+++              =            ,   ",
"   *     *=         ,  +++@-;>+++)              =           ,   ",
"   .    *!          ,  +++@#;~+++++++++++++++{   =          ,   ",
"   .    !!          ,  +++@-;>+++++++++++++++++   =         ,   ",
"        !!         =,  ++++;;~+++++++++++++++++{   =       =,   ",
"     ====],=,=,,,,,,   +++@-;~~~~~~~~+~+~+++++++    =,,,,,,,    ",
"        !              )~++^-^^^^^^^/;/;;;$@++++                ",
"        !!            (~+++@^///////;-_-___$ +)+                ",
"    ****&&*.*......   =+++++++++++++++   ._$ )++   ****....     ",
"   *.   !!          .  {+++++++++++++):)  _$  )+  *             ",
"   *     !       . .    ++++++++++++++): ._$= :)  *         =   ",
"   *    !       .=. .=   {+++++++++++++)  _$= ):  *         =   ",
"   *     !     .,. ., =              )++ ._$= :)  *         =   ",
"   .          .,  .=   =              +) ._$, ):  *         ,   ",
"   *     !    =  .      .******...    ): ._$, :)  *.        =   ",
"   .                                  :) ._$,     *=        ,   ",
"   *                               =  )  .__=    .          ,   ",
"   .                               =  :  .-<,   .,'         ,   ",
"   *                               =     ._-=   =[     .,   ,   ",
"   *                               =     .-}=   .,.   .=    =   ",
"   *                               ,      _-=   = .  *=     ,   ",
"   *               .***            ,  :  .-}=  :  . *!      ,   ",
"   *              .*!!..          =,  )   _-=  )  . !!      ,   ",
"   *             .*!!  .=,,,,,,,,,,   :): --=  :  . !       ,   ",
"   .            ,*!! !  =             ):) _-=  )  .  !      ,   ",
"   *           , *.!!  ,=      )~(   ):): --  ):  . !       ,   ",
"   .          ,   {  {>~+++++++~|@++++):) _- ):)  .         ,   ",
"   .         ,   +>>>~+++++++~>$%++++++)  --):)+  .         ,   ",
"            ,   {++++++++++~>$;#@+++++):  _^~)++           =,   ",
"     ==,,,,,    +++++++~~>>$;-_-1@@+~++  .-^~+++    ===,,,,,    ",
"                ++++@1;^/1^--_-_-$$$$$;_---^++++                ",
"                ++++1$;/;///;-;-;;;;;;;-;/^@++++                ",
"    ****....    ++++;$++++++++++++++++++++++++++    ***....     ",
"   *.           +++@#$+++++++++++++++++++++++++{   *            ",
"   *         =  ++++;$~++++++++++++++++++++++++   *         =   ",
"   *     *.  =  +++@#$+++++++++++++++++++++++{   *          =   ",
"   *    *! = =  +++@#$~+++)                     *           =   ",
"   .    . ,= ,  +++@#$>+++                     .            ,   ",
"   *     =   ,  +++@-;>+++   **********.*......             =   ",
"   .         ,  +++@#$>+++  *.                              ,   ",
"   .         ,  +++@-;~+++  *                               ,   ",
"   .         ,  +++@#$>+++  *                               ,   ",
"   *         =  +++%-;++++  *                               ,   ",
"   .         ,  +++@-;~+++  .                               ,   ",
"   .         ,  +++%-;++++  .                               ,   ",
"   .         ,  +++%#;++++  .                               ,   ",
"            =,  +++%-;++++                                 =,   ",
"     ====,,,,   +++%#;++++    ======,,,,,=,=,,,,,,,,,,,,,,,,    ",
"                +++%-;++++                                      ",
"                +++%-/++++                                      ",
"*&&&&&&*&*&*****2&&#__;&;;__*_**********&*&**&*&*&&&&&&*&*&*****"};
