/* XPM */
static char * door5_xpm[] = {
"64 64 28 1",
" 	c None",
".	c #5C6567",
"+	c #4B5355",
"@	c #BA9533",
"#	c #A87523",
"$	c #1F201E",
"%	c #000000",
"&	c #95551C",
"*	c #3F2924",
"=	c #4A3B3F",
"-	c #6D7F82",
";	c #37302D",
">	c #1F1F1E",
",	c #D2C758",
"'	c #809CA3",
")	c #5B6567",
"!	c #C6AB4B",
"~	c #362F2D",
"{	c #36302D",
"]	c #4A5355",
"^	c #20201E",
"/	c #927C4A",
"(	c #BA9532",
"_	c #1F1F1D",
":	c #201F1D",
"<	c #62534B",
"[	c #95541C",
"}	c #1E1F1E",
"...+@###$                                      %@@@@............",
"++++####$                                      %@###++++++++++++",
"++++###&$                                      %@###++++++++++++",
"++++####$                                      %@###+++*********",
"++++###&$                                      %@###++*=++++++++",
"+.++###&$                                      %@###++*+++++++++",
"+.++###&$                                      %@###++*+++++++++",
".-..@@@#;                                      >,@@@..=.........",
"+.++###&$                                      %@###++*+++++++++",
".-..@@@#;                                      >,@@@..+.........",
".'..@@@#$                                      %,@@@..+.........",
".-..@@@#$                                      %,@@@............",
".'..@@@#;                                      >,@@@....---'-'''",
".'..@@@#;                                      >,@@@............",
".'..@@@#;                                      >,@@@)...........",
".'..@@@#$                                      >!@@@@@@@@@@@@@@@",
".'..@@@#;                                      >,@@@@@@@@@@@@@@@",
"-'..@@@@>                                      >!@@@@@@@@@@@@@@@",
"'...@@@#;                                      >!!!!!!!!@!@!@@@@",
"....)!@@~                                      ;~~~~~~~{>{>>>%#@",
"...]!@@@#~{{{{{{{>;^;^^^                                      %.",
"...-@@@@@@@@@@@@@@@...+^                                      %.",
".+../@@@@@@@@@@@@@)()..^                                      %.",
"+....@@@@@@@@@@@@@@)(.+^                                      %-",
".+-.../@@@@@@@@@@@@@)..^                                      %-",
"+'.-..............)@@.+^                                      %-",
"-...-..............@).+^                                      %'",
".....+======+++....)(.+^                                      %'",
"...................().+^                                      %'",
"................-..)..+^                                      ^-",
"................-..(..+;                                      _'",
"................-.....+^                                      ;-",
"................-.....+;                                      :-",
"................'......^                                      ;-",
"+===............'..(..+;                                      :-",
"=<<++..........-'..)...^                                      ;-",
"<<..+-''''''''''...()(.;                                      ;-",
"<.<..-.............)().^                                      ;-",
"<<..'-......)!]...)()(.;                                      ;.",
"../,!@@@@@@@![#@@@@)().^                                      ;.",
",,!@@@@@@@!,%&@@@@@@)..;                                      ;)",
"@@@@@@@@!,%>$#@@@@@)(..^                                      ~!",
"@@@@!!,,%>;^;}##@!@@..+;                                      ~!",
"@#}>~{}~;;^;^;%%%%%>^;;;                                      ~@",
"@}                                      %>{>{{{>;>;>>>>>>>;>{~#@",
"@>                                      %@@@@@@@@@@@@@@@@@@@@@@@",
"#$                                      %@@@@@@@@@@@@@@@@@@@@@@@",
"@>                                      %!@@@@@@@@@@@@@@@@@@@@@@",
"#$                                      %@@@@@@@@@@@@@@@@@@@@@@@",
"#$                                      %!@@@)..................",
"#$                                      %,@@@...................",
"#;                                      >,@@@...==========+=++++",
"#$                                      %,@@@..=+...............",
"#;                                      >!@@@..=................",
"#$                                      %,@@@..=................",
"&;                                      >@@@@..=................",
"#;                                      >!@@@..+................",
"&;                                      >@@@@..+................",
"&$                                      >@@@@..+................",
"&;                                      >@@@@...................",
"&$                                      >@@@@....------'''''-'-'",
"&;                                      >@@@@...................",
"&;                                      {@@@@...................",
"$^                                      ^>*>>^^=^==========*=*=="};
