/* XPM */
static char * EAtest_xpm[] = {
"64 64 27 1",
" 	c #5C6567",
".	c #4B5355",
"+	c #4A3B3F",
"@	c #3F2924",
"#	c #3F2923",
"$	c #6D7F82",
"%	c #3F2823",
"&	c #809CA3",
"*	c #3B2C31",
"=	c #AFB3B1",
"-	c #BCC1BD",
";	c #535D5E",
">	c #4A5254",
",	c #1E1D1B",
"'	c #1B1B19",
")	c #495254",
"!	c #1D1C1A",
"~	c #B02C2E",
"{	c #7E2733",
"]	c #C43725",
"^	c #D03421",
"/	c #B02B2E",
"(	c #C43724",
"_	c #62534B",
":	c #4A3A3E",
"<	c #8B6B70",
"[	c #20201E",
"               . . .            .                          . .  ",
"................................................................",
"................................................................",
"...+@@@@@@+@+@++++.....@@@@@@@@@@@@@@@+@+@+@++++++++++..........",
"...@..................#...................................#. ...",
"...@.............$...#...............................$...#.. ...",
"...@............$...%...............................$...%... ...",
"   +           &   +                               $   +    $   ",
"...@..........&...%...............................&...%..... ...",
"   +         &   +                               &   +      $   ",
"   +        &   +                               $   +       &   ",
"   .       &   +                               &   +        $   ",
"   +      &   +                               &   +         &   ",
"   .     &   +                               &   +          &   ",
"   .    &   +                               &   +           &   ",
"   .   &   .                               &   .            &   ",
"   .  &   .                               &   .             &   ",
"   . $                                   &                 $&   ",
"          $$$$$$$$$$$$&$&$&&&&&&&&&&&&&&$     $$&$&&&&&&&&&&    ",
"                                                                ",
"                                                                ",
"                                                                ",
"    +++++++++++++++++++.+.+.+.++++**+*++++++++++++.+..          ",
"   +.                                                     . $   ",
"   +                                                 $   .  $   ",
"   +  =----------=;                                 $   .   $   ",
"   +  -->,>>-'-)--. =-=;                           $   .    $   ",
"   +  ------------. ---.                          $   .     $   ",
"   +  --)-!,>>----. -!-.                         &   +      $   ",
"   +  =----------=. ->-.                        &   +       &   ",
"   .  ;...........; ---.                       &   +        $   ",
"   +                -)-.                      &   +         &   ",
"   .  =------=;     ---.                     &   +          &   ",
"   .  --!>-)--.     =-=.                    &   .           &   ",
"   .  =------=.     ;..;                   &   .            &   ",
"   .  ;.......;                           &   .             &   ",
"                                         &                 $&   ",
"     $$$$$$&$&$&&&&&&&&&&&&&&&&&&$&$&$&&$     $$$&$&$&&&&&&&    ",
"                                                                ",
"                                                                ",
"                                                                ",
"    ++++++.+.+....     .++++++++++++++++++++++++.+.+.......     ",
"   +.                 +                                         ",
"~~~{~~~~~~~~~~~~~]~~~{~~~~~~~~~~~~~~~~~~~~~~~~~~~~~~~~~~~~~~]~~~",
"~~~{~~~~~~~~~~~~]~~~{~~~~~~~~~~~~~~~~~~~~~~~~~~~~~~~~~~~~~~~]~~~",
"~~~{~~~~~~~~~~~^~~~{~~~~~~~~~~~~~~~~~~~~~~~~~~~~~~~~~~~~~~~~^~~~",
"~~~{~~~~~~~~~/^~~~{~~~~~~~~~~~~~~~~~~~~~~~~~~~~~~~~~~~~~~~~~(~~~",
"   +         &   +                                          &   ",
"_  +        &   +                 $                         $   ",
"   .       &   +                 $.                         &   ",
"_  +      &   +                 &:_                         &   ",
"   .     &   +                 &:__                         &   ",
"_  .    &   +                   __                          &   ",
"_  .   &   .                    ___                         &  _",
"__ .  &   .                     __                          &   ",
"_  . $            ++..._        __                         $&  _",
"__        $$$$$$$.___ _ &$&&&&&<<<<<$&&&&&&&&&&&$&$&&&&&&&&&  _ ",
"_                 $$$$$&       _____                           _",
"__     _                        ____                          __",
"__ _                            ____                      _ _ __",
"++++.+..........................+............+.........+.+.+..+@",
"@+++++...+...+........+.+.......++...........++......+.++.+++.++",
"@+@@+++.++++.++.+.++++.+.+.+...++@++......+.++@++.+.+.++.++@@++@",
"@@@@@@@+@+@+++++@@@[[[[@[[[[+[++++++++++@+@++@@@+@@@@@@+@+@+@@@@"};
