/* XPM */
static char * EA_xpm[] = {
"64 64 175 2",
"  	c #858585",
". 	c #B0B0B0",
"+ 	c #B2B2B2",
"@ 	c #878787",
"# 	c #7F7F7F",
"$ 	c #B8B8B8",
"% 	c #BABABA",
"& 	c #BBBBBB",
"* 	c #CDCDCD",
"= 	c #848484",
"- 	c #D0D0D0",
"; 	c #7E7E7E",
"> 	c #A0A0A0",
", 	c #A1A1A1",
"' 	c #A3A3A3",
") 	c #838383",
"! 	c #CFCFCF",
"~ 	c #A4A4A4",
"{ 	c #9F9F9F",
"] 	c #808080",
"^ 	c #CECECE",
"/ 	c #BFBFBF",
"( 	c #C2C2C2",
"_ 	c #7C7C7C",
": 	c #818181",
"< 	c #A6A6A6",
"[ 	c #A8A8A8",
"} 	c #A7A7A8",
"| 	c #A7A8A8",
"1 	c #A7A7A7",
"2 	c #A9A9AA",
"3 	c #7D7D7D",
"4 	c #989898",
"5 	c #999999",
"6 	c #8A8A8A",
"7 	c #8E8E8E",
"8 	c #B8A698",
"9 	c #B5A497",
"0 	c #B1A296",
"a 	c #8B8B8B",
"b 	c #D0CDCB",
"c 	c #D43534",
"d 	c #B7A597",
"e 	c #B7A698",
"f 	c #B6A597",
"g 	c #D43030",
"h 	c #000000",
"i 	c #B6A598",
"j 	c #BFBDBB",
"k 	c #060606",
"l 	c #030303",
"m 	c #040404",
"n 	c #080808",
"o 	c #B1A194",
"p 	c #B5A496",
"q 	c #CECBC9",
"r 	c #8C8B89",
"s 	c #8B8887",
"t 	c #B6B5B3",
"u 	c #C5C2C0",
"v 	c #CBCCD0",
"w 	c #020202",
"x 	c #090908",
"y 	c #010101",
"z 	c #B5A396",
"A 	c #35224C",
"B 	c #BDBAB8",
"C 	c #9C9997",
"D 	c #ACA9A7",
"E 	c #83429C",
"F 	c #610F5D",
"G 	c #B7A598",
"H 	c #100F0F",
"I 	c #1A7130",
"J 	c #525E45",
"K 	c #1F4221",
"L 	c #98AC81",
"M 	c #993838",
"N 	c #192748",
"O 	c #354D87",
"P 	c #696969",
"Q 	c #96ACE0",
"R 	c #BBC8E9",
"S 	c #B7C4E8",
"T 	c #A0B3E3",
"U 	c #022B99",
"V 	c #19295C",
"W 	c #8C8C8C",
"X 	c #ADADAD",
"Y 	c #626262",
"Z 	c #6F92D9",
"` 	c #7D9BDC",
" .	c #7C9AD4",
"..	c #7A99BA",
"+.	c #7C9ACC",
"@.	c #B6C4DF",
"#.	c #0045EE",
"$.	c #002897",
"%.	c #5E89D7",
"&.	c #568492",
"*.	c #528258",
"=.	c #5C88C5",
"-.	c #5D88CE",
";.	c #578598",
">.	c #548370",
",.	c #558380",
"'.	c #538262",
").	c #518147",
"!.	c #548377",
"~.	c #5885A2",
"{.	c #5885A4",
"].	c #53825E",
"^.	c #52814A",
"/.	c #538260",
"(.	c #538269",
"_.	c #528253",
":.	c #528259",
"<.	c #528256",
"[.	c #518146",
"}.	c #528250",
"|.	c #528148",
"1.	c #528149",
"2.	c #528252",
"3.	c #52824B",
"4.	c #538268",
"5.	c #518145",
"6.	c #548375",
"7.	c #568494",
"8.	c #548378",
"9.	c #528146",
"0.	c #57859E",
"a.	c #5986B0",
"b.	c #AFA095",
"c.	c #52824E",
"d.	c #52814E",
"e.	c #52814B",
"f.	c #9FB3D7",
"g.	c #9E9E9E",
"h.	c #B4A396",
"i.	c #CBCBCB",
"j.	c #CACACA",
"k.	c #656565",
"l.	c #9B9B9B",
"m.	c #A7A09A",
"n.	c #A79F98",
"o.	c #A49E99",
"p.	c #AAA29B",
"q.	c #A8A099",
"r.	c #A9A09A",
"s.	c #A79F99",
"t.	c #77726D",
"u.	c #A89F99",
"v.	c #9F9B97",
"w.	c #A09B97",
"x.	c #A69F99",
"y.	c #C8C8C8",
"z.	c #959595",
"A.	c #969696",
"B.	c #6C6C6C",
"C.	c #6C6C6D",
"D.	c #6F6F6F",
"E.	c #9D9D9D",
"F.	c #6D6D6D",
"G.	c #C9C9C9",
"H.	c #CCCCCC",
"I.	c #979797",
"J.	c #898989",
"K.	c #646464",
"L.	c #868686",
"M.	c #686868",
"N.	c #929292",
"O.	c #949494",
"P.	c #939393",
"Q.	c #888888",
"R.	c #666666",
"  . + + + + + + + + + + + + + + + + + + + + + + + + + + + + + . @ . + + + + + + + + + + + + + + + + + + + + + + + + + + + + + + ",
"# $ % % % % % % % % % % % % % % % % % % % % % % % % % % % % & * = $ % % % % % % % % % % % % % % % % % % % % % % % % % % % % & - ",
"; > , , , , , , , , , , , , , , , , , , , , , , , , , , , , ' * ) > , , , , , , , , , , , , , , , , , , , , , , , , , , , , ' ! ",
"; > , , , , , , , , , , , , , , , , , , , , , , , , , , , , ' * ) > , , , , , , , , , , , , , , , , , , , , , , , , , , , , ' ! ",
"; > , , , , , , , , , , , , , , , , , , , , , , , , , , , , ' * ) > , , , , , , , , , , , , , , , , , , , , , , , , , , , , ' ! ",
"; > , , , , , , , , , , , , , , , , , , , , , , , , , , , , ' * ) > , , , , , , , , , , , , , , , , , , , , , , , , , , , , ' ! ",
"; > , , , , , , , , , , , , , , , , , , , , , , , , , , , , ' * ) > , , , , , , , , , , , , , , , , , , , , , , , , , , , , ' ! ",
"; > , , , , , , , , , , , , , , , , , , , , , , , , , , , , ' * ) > , , , , , , , , , , , , , , , , , , , , , , , , , , , , ' ! ",
"; > , , , , , , , , , , , , , , , , , , , , , , , , , , , , ' * ) > , , , , , , , , , , , , , , , , , , , , , , , , , , , , ' ! ",
"; > , , , , , , , , , , , , , , , , , , , , , , , , , , , , ' * ) > , , , , , , , , , , , , , , , , , , , , , , , , , , , , ' ! ",
"; > , , , , , , , , , , , , , , , , , , , , , , , , , , , , ' * ) > , , , , , , , , , , , , , , , , , , , , , , , , , , , , ' ! ",
"; > , , , , , , , , , , , , , , , , , , , , , , , , , , , , ' * ) > , , , , , , , , , , , , , , , , , , , , , , , , , , , , ' ! ",
"; > , , , , , , , , , , , , , , , , , , , , , , , , , , , , ' * ) > , , , , , , , , , , , , , , , , , , , , , , , , , , , , ' ! ",
"; > , , , , , , , , , , , , , , , , , , , , , , , , , , , , ' * ) > , , , , , , , , , , , , , , , , , , , , , , , , , , , , ' ! ",
"; > , , , , , , , , , , , , , , , , , , , , , , , , , , , , ' * ) > , , , , , , , , , , , , , , , , , , , , , , , , , , , , ~ ! ",
"; { , , , , , , , , , , , , , , , , , , , , , , , , , , , , ' * ) > , , , , , , , , , , , , , > ] ; ; ; ; ; ; ; ; ; ; ; ; ; ) ^ ",
"] / ( ( ( ( ( ( ( ( ( ( ( ( ( ( ( ( ( ( ( ( ( ( ( ( ( ( ( ( ( ^ ) > , , , , , , , , , , , , > # _ _ _ _ _ _ _ _ _ _ _ _ _ _ : ^ ",
"; < [ [ [ [ [ [ [ [ [ [ [ [ [ [ [ [ [ } | [ } 1 1 1 1 1 } } 2 * : 3 3 3 3 3 3 3 3 3 3 3 3 3 3 ; 4 5 5 4 6 4 5 5 4 6 4 5 5 4 7 ! ",
"_ : : : : : : : : : 8 8 8 8 8 8 8 8 8 8 8 8 8 8 8 8 8 8 8 8 8 8 8 8 8 8 8 8 8 8 8 8 8 8 8 8 8 9 8 8 8 8 0 8 8 , > a > , , > 7 ! ",
"_ _ _ _ _ _ _ _ _ _ 8 8 8 8 8 8 8 8 8 8 8 8 8 b b b b b b b b c b b b b b b b 8 8 8 d e 8 8 8 f 8 8 8 8 8 8 8 , > a > , , > 7 ! ",
"_ _ _ _ _ _ _ _ _ _ 8 8 8 b b g b b b f 8 8 8 b h h h h h h h h h h h h h h b 8 8 d d i 8 8 8 8 8 8 8 8 8 8 8 , > a > , , > 7 ! ",
"_ _ _ _ _ _ _ _ _ _ 8 8 8 j k l m n b o 8 p 8 b b b b b b b b b b b b b b b b 8 8 8 8 8 8 8 8 8 8 8 8 8 8 8 8 , > a > , , > 7 ! ",
"_ _ _ _ _ _ _ _ _ _ 8 8 8 q r s t u b o 8 8 8 b h h h h h h h h h h h h h h b 8 8 8 v v v v 8 8 8 8 8 8 8 8 8 , > a > , , > 7 ! ",
"_ _ _ _ _ _ _ _ _ _ 8 8 8 b w x y h b z 8 8 8 b b b b b b b b b b b b b b b b 8 8 8 v A h v 8 8 8 8 8 8 8 8 8 , > a > , , > 7 ! ",
"_ _ _ _ _ _ _ _ _ _ 8 8 8 b B C D B b 8 8 8 8 b b b b b b b b b b b b b b b b 8 8 8 v E F v 8 8 8 8 8 8 G 8 8 , > a > , , > 7 ! ",
"_ _ _ _ _ _ _ _ _ _ 8 8 8 b H H H H b 8 8 8 8 8 8 8 8 8 8 8 8 8 8 8 8 8 8 8 8 8 8 8 v F F v 8 8 v v v v 8 8 8 , > a > , , > 7 ! ",
"_ _ _ _ _ _ _ _ _ _ 8 8 8 b B B B b b 8 8 8 8 8 8 8 8 8 8 8 8 8 8 8 8 8 8 8 8 8 8 8 v b b v 8 8 v h I v 8 8 8 , > a > , , > 7 ! ",
"_ _ _ _ _ _ _ _ _ _ 8 8 8 b l h l H b 8 8 8 8 8 8 8 8 8 8 8 8 8 8 8 8 8 8 8 8 8 8 8 v v v v 8 8 v J K v 8 8 8 , > a > , , > 7 ! ",
"_ _ _ _ _ _ _ _ _ _ 8 8 8 b b b b b b 8 8 8 8 8 8 8 8 8 8 8 8 8 8 8 8 8 8 8 8 8 8 8 8 8 8 8 8 8 v L J v 8 8 8 , > a > , , > 7 ! ",
"_ _ _ _ _ _ _ _ _ _ 8 8 8 8 8 8 8 8 8 8 8 8 8 8 8 8 8 8 8 8 8 8 8 8 8 8 8 8 8 8 8 8 8 8 8 8 8 8 v b b v 8 8 8 , > a > , , > 7 ! ",
"_ _ _ _ _ _ _ _ _ _ 8 8 8 8 8 8 8 8 8 8 8 8 8 8 8 8 8 8 8 8 8 8 8 8 8 8 8 8 8 8 8 8 v v v v 8 8 v v v v 8 8 8 , > a > , , > 7 ! ",
"_ _ _ _ _ _ _ _ _ _ 8 8 8 v v v v v v v v v v M v v v v v v v v v v v v 8 8 8 8 8 8 v N O v 8 8 8 8 8 8 8 8 8 , > a > , , > 7 ! ",
"P P P P P P P P P P 8 8 8 v Q Q R R R R R R R R R R R R R R R R S T T v 8 8 8 8 8 8 v U V v 8 8 8 8 8 8 8 8 8 , > a > , , > W X ",
"Y Y Y Y Y Y Y Y Y Y 8 8 8 v Z Z `  ...` ` ` ` ` ` ` ` ` ` ` ` +.@.T T v 8 8 8 8 8 8 v #.$.v 8 8 8 8 8 8 8 8 8 , > a > , , > a > ",
"Y Y Y Y Y Y Y Y Y Y 8 8 8 v %.%.%.&.*.%.%.%.%.%.=.-.-.%.%.;.>.>.>.>.,.v 8 8 8 8 8 8 v v v v 8 8 8 8 8 8 8 8 8 , > a > , , > a > ",
"Y Y Y Y Y Y Y Y Y Y 8 8 8 v %.%.=.'.).%.%.%.%.%.!.*.~.{.!.'.].^./.(._.v 8 8 8 8 8 8 v v v v 8 8 8 8 8 8 8 8 8 , > a > , , > a > ",
"Y Y Y Y Y Y Y Y Y Y 8 8 8 v %.%.,.:.^.;.%.%.%.;.<.[.'.'.}.|.<.1.2.[.3.v 8 8 8 8 8 8 8 8 8 8 8 8 8 8 8 8 8 8 8 , > a > , , > a > ",
"Y Y Y Y Y Y Y Y Y Y 8 8 8 v %.%.{.4.4.{.%.%.%.'.5.}.).|.[.).[.[.}.).1.v 8 8 8 8 8 8 8 8 8 8 8 8 8 8 8 8 8 8 8 , > a > , , > a > ",
"Y Y Y Y Y Y Y Y Y Y 8 8 8 v %.%.%.6.6.{.%.%.%.'.).[.).=.!.(.'.,.,.%.%.v 8 8 8 8 8 8 8 8 8 8 8 8 8 8 8 8 8 8 8 , > a > , , > a > ",
"Y Y Y Y Y Y Y Y Y Y 8 8 8 v %.%.%.7.7.%.%.%.%.8.4.[.}.%.%.%.%.%.%.%.%.v 8 8 8 8 8 8 8 8 8 8 8 8 8 8 8 8 e 8 8 , > a > , , > a > ",
"Y Y Y Y Y Y Y Y Y Y 8 8 8 v %.%.{.).[.%.%.%.=._.8.9.|.%.%.%.=.{.0.a.%.v 8 8 8 8 8 8 8 8 8 8 8 8 8 8 8 8 b.8 8 , > a > , , > a > ",
"Y Y Y Y Y Y Y Y Y Y 8 8 8 v %.%.,.].).=.%.%.%.%.{.1.>.%.%.%.'.c.5.2.%.v 8 8 8 8 8 8 8 8 8 8 8 8 8 8 8 8 8 8 8 , > a > , , > a > ",
"Y Y Y Y Y Y Y Y Y Y 8 8 8 v %.%.{.{._.=.%.%.%.%.%.,.d.%.%.%.{.|.e.4.%.v 8 8 8 8 8 8 8 8 8 8 8 8 8 8 8 8 8 8 8 , > a > , , > a > ",
"Y Y Y Y Y Y Y Y Y Y 8 8 8 v %.%.%.%.=.R R R T T T T f.R R R T T %.%.%.v 8 8 8 8 8 8 8 8 8 8 8 8 8 8 8 8 8 8 8 , > a > , , > a > ",
"Y Y Y Y Y Y Y Y Y Y 8 8 8 v v v v v v v v v v v v v v v v v v v v v v v 8 8 8 8 8 8 8 8 8 8 8 8 8 8 8 8 8 8 8 , > a > , , > a > ",
"Y Y Y Y Y Y Y Y Y Y 8 8 8 8 8 8 8 8 8 8 8 8 8 8 8 8 8 8 8 8 8 8 8 8 8 8 8 8 8 8 8 8 8 8 8 8 8 8 8 8 8 8 8 8 8 , , g., , , , g., ",
"Y Y Y Y Y Y Y Y Y Y 8 8 8 8 8 8 8 8 8 h.d d 8 8 8 8 8 8 8 8 8 8 8 8 8 8 8 8 8 8 8 8 8 8 8 8 8 8 8 8 8 8 8 8 8 i.i.i.i.i.i.i.j.' ",
"k.5 l.l.l.l.l.l.l.l.l.l.l.l.l.l.l.l.l.m.n.o.p.p.p.p.q.r.p.p.p.s.t.u.p.p.p.q.u.p.p.v.w.x., , ' y.4 z.z.z.z.z.z.z.z.z.z.z.z.z.A., ",
"Y B.B.B.B.B.B.B.B.B.B.B.B.B.B.B.B.B.B.C.C.C.C.C.C.C.C.C.C.C.D.E.F.G.H.H.H.H.H.H.H.H.H.H.H.H.j.I.6 J.J.J.J.J.J.J.J.J.J.J.J.J.6 > ",
"K.=                                                         L.g.M.N.O.O.O.O.O.O.O.O.O.O.O.O.P.J.J.J.J.J.J.J.J.J.J.J.J.J.J.J.6 > ",
"K.Q.J.J.J.J.J.J.J.J.J.J.J.J.J.J.J.J.J.J.J.J.J.J.J.J.J.J.J.J.6 g.M.Q.J.J.J.J.J.J.J.J.J.J.J.J.J.J.J.J.J.J.J.J.J.J.J.J.J.J.J.J.6 > ",
"K.Q.J.J.J.J.J.J.J.J.J.J.J.J.J.J.J.J.J.J.J.J.J.J.J.J.J.J.J.J.6 g.M.Q.J.J.J.J.J.J.J.J.J.J.J.J.J.J.J.J.J.J.J.J.J.J.J.J.J.J.J.J.6 > ",
"K.Q.J.J.J.J.J.J.J.J.J.J.J.J.J.J.J.J.J.J.J.J.J.J.J.J.J.J.J.J.6 g.M.Q.J.J.J.J.J.J.J.J.J.J.J.J.J.J.J.J.J.J.J.J.J.J.J.J.J.J.J.J.6 > ",
"K.Q.J.J.J.J.J.J.J.J.J.J.J.J.J.J.J.J.J.J.J.J.J.J.J.J.J.J.J.J.6 g.M.Q.J.J.J.J.J.J.J.J.J.J.J.J.J.J.J.J.J.J.J.J.J.J.J.J.J.J.J.J.6 > ",
"K.Q.J.J.J.J.J.J.J.J.J.J.J.J.J.J.J.J.J.J.J.J.J.J.J.J.J.J.J.J.6 g.M.Q.J.J.J.J.J.J.J.J.J.J.J.J.J.J.J.J.J.J.J.J.J.J.J.J.J.J.J.J.6 > ",
"K.Q.J.J.J.J.J.J.J.J.J.J.J.J.J.J.J.J.J.J.J.J.J.J.J.J.J.J.J.J.6 g.M.Q.J.J.J.J.J.J.J.J.J.J.J.J.J.J.J.J.J.J.J.J.J.J.J.J.J.J.J.J.6 > ",
"K.Q.J.J.J.J.J.J.J.J.J.J.J.J.J.J.J.J.J.J.J.J.J.J.J.J.J.J.J.J.6 g.M.Q.J.J.J.J.J.J.J.J.J.J.J.J.J.J.J.J.J.J.J.J.J.J.J.J.J.J.J.J.6 > ",
"K.Q.J.J.J.J.J.J.J.J.J.J.J.J.J.J.J.J.J.J.J.J.J.J.J.J.J.J.J.J.6 g.M.Q.J.J.J.J.J.J.J.J.J.J.J.J.J.J.J.J.J.J.J.J.J.J.J.J.J.J.J.J.6 > ",
"K.Q.J.J.J.J.J.J.J.J.J.J.J.J.J.J.J.J.J.J.J.J.J.J.J.J.J.J.J.J.6 g.M.Q.J.J.J.J.J.J.J.J.J.J.J.J.J.J.J.J.J.J.J.J.J.J.J.J.J.J.J.J.6 > ",
"K.Q.J.J.J.J.J.J.J.J.J.J.J.J.J.J.J.J.J.J.J.J.J.J.J.J.J.J.J.J.6 g.M.Q.J.J.J.J.J.J.J.J.J.J.J.J.J.J.J.J.J.J.J.J.J.J.J.J.J.J.J.J.6 > ",
"K.Q.J.J.J.J.J.J.J.J.J.J.J.J.J.J.J.J.J.J.J.J.J.J.J.J.J.J.J.J.6 g.M.Q.J.J.J.J.J.J.J.J.J.J.J.J.J.J.J.J.J.J.J.J.J.J.J.J.J.J.J.J.6 > ",
"K.Q.J.J.J.J.J.J.J.J.J.J.J.J.J.J.J.J.J.J.J.J.J.J.J.J.J.J.J.J.6 g.M.Q.J.J.J.J.J.J.J.J.J.J.J.J.J.J.J.J.J.J.J.J.J.J.J.J.J.J.J.J.6 > ",
"K.L.Q.Q.Q.Q.Q.Q.Q.Q.Q.Q.Q.Q.Q.Q.Q.Q.Q.Q.Q.Q.Q.Q.Q.Q.Q.Q.Q.Q.J.g.M.L.Q.Q.Q.Q.Q.Q.Q.Q.Q.Q.Q.Q.Q.Q.Q.Q.Q.Q.Q.Q.Q.Q.Q.Q.Q.Q.Q.Q.J.> ",
"Y K.K.K.K.K.K.K.K.K.K.K.K.K.K.K.K.K.K.K.K.K.K.K.K.K.K.K.K.K.M.E.R.K.K.K.K.K.K.K.K.K.K.K.K.K.K.K.K.K.K.K.K.K.K.K.K.K.K.K.K.K.M.{ "};
