/* XPM */
static char * eh_xpm[] = {
"32 32 685 2",
"  	c #B1B0AB",
". 	c #B3B0AD",
"+ 	c #B2B0AC",
"@ 	c #B4AFAD",
"# 	c #B6B0AF",
"$ 	c #B8B0AE",
"% 	c #BAB1AD",
"& 	c #BAB1AC",
"* 	c #BAB1AE",
"= 	c #B9B0AE",
"- 	c #B9B0AC",
"; 	c #BAB1AB",
"> 	c #B9B0AB",
", 	c #B8B1AB",
"' 	c #B9B1AB",
") 	c #B9B0A9",
"! 	c #B8AFA7",
"~ 	c #B8AFA8",
"{ 	c #B7AFA7",
"] 	c #B7AFA8",
"^ 	c #B6AEA6",
"/ 	c #B5AEA6",
"( 	c #B5AFA7",
"_ 	c #B4AEA8",
": 	c #B1ADA9",
"< 	c #B0ACA9",
"[ 	c #B3B0AA",
"} 	c #B4B0AD",
"| 	c #B7B0AE",
"1 	c #B8B0AD",
"2 	c #B9B1AC",
"3 	c #BAB0AC",
"4 	c #B8B0AB",
"5 	c #B8AFAA",
"6 	c #B7B0AA",
"7 	c #B8AFA9",
"8 	c #B7AEA7",
"9 	c #B6AFA7",
"0 	c #B4ADA7",
"a 	c #B4AFAA",
"b 	c #B3AFAC",
"c 	c #B7B1AB",
"d 	c #B5B0AB",
"e 	c #B4B0AC",
"f 	c #B5B0AC",
"g 	c #B8B1AC",
"h 	c #B8B0AA",
"i 	c #B8B0AC",
"j 	c #B6AFA9",
"k 	c #B6AFA8",
"l 	c #B6AEA8",
"m 	c #B6ADA7",
"n 	c #B6AEA7",
"o 	c #B5AEA7",
"p 	c #B4AFAB",
"q 	c #C0BAB5",
"r 	c #BAB3AD",
"s 	c #B5AFAA",
"t 	c #B6B0AA",
"u 	c #B7AFAC",
"v 	c #B7AFAB",
"w 	c #B7B0AB",
"x 	c #B7AFAA",
"y 	c #B6AEA9",
"z 	c #B5AEA8",
"A 	c #B5ADA7",
"B 	c #B5B0AA",
"C 	c #B4B0AA",
"D 	c #B5B1AB",
"E 	c #B6B2AD",
"F 	c #C4C0BC",
"G 	c #C1B9B7",
"H 	c #BBB4AF",
"I 	c #B7AFA9",
"J 	c #B4ADA6",
"K 	c #B6AFAB",
"L 	c #BAB3AE",
"M 	c #BAB3AF",
"N 	c #C4BEBA",
"O 	c #C7C0BD",
"P 	c #C1BAB5",
"Q 	c #BDB6AF",
"R 	c #B7B0AC",
"S 	c #B3ACA6",
"T 	c #B6AFAA",
"U 	c #B9B2AC",
"V 	c #BBB4AE",
"W 	c #BBB5AF",
"X 	c #CDC7C1",
"Y 	c #C9C2BC",
"Z 	c #C8C1BB",
"` 	c #C3BDB7",
" .	c #BEB7B1",
"..	c #B8B2AC",
"+.	c #BBB4B1",
"@.	c #CCC6C0",
"#.	c #CEC7C2",
"$.	c #C7C1BB",
"%.	c #C5BEBA",
"&.	c #C0B8B4",
"*.	c #BAB4AE",
"=.	c #BBB4B0",
"-.	c #CDC5C1",
";.	c #CEC7C1",
">.	c #CCC5BF",
",.	c #C7C0BA",
"'.	c #C6BFBB",
").	c #BFB7B4",
"!.	c #BCB5AF",
"~.	c #BCB5B0",
"{.	c #CDC6C3",
"].	c #CDC6C2",
"^.	c #CDC6C0",
"/.	c #C4BDB8",
"(.	c #B4AEA9",
"_.	c #BCB4AF",
":.	c #BDB6B0",
"<.	c #CEC6C4",
"[.	c #CCC6C1",
"}.	c #C2BBB5",
"|.	c #BEB7B3",
"1.	c #B4ACA6",
"2.	c #B1B5BF",
"3.	c #C6CCD8",
"4.	c #BDB6B2",
"5.	c #BDB6B1",
"6.	c #CEC9C4",
"7.	c #CFC8C3",
"8.	c #CBC4BE",
"9.	c #C0B9B4",
"0.	c #BEB7B2",
"a.	c #B1AAA4",
"b.	c #B3AAA5",
"c.	c #B9B2AF",
"d.	c #ADBBCF",
"e.	c #D1DDEE",
"f.	c #CECDCF",
"g.	c #BEB6B1",
"h.	c #BCB6B1",
"i.	c #BEB6B3",
"j.	c #BDB6B4",
"k.	c #D0CAC5",
"l.	c #D1C9C5",
"m.	c #CFC8C2",
"n.	c #CAC3BD",
"o.	c #C1BAB4",
"p.	c #B3ABA6",
"q.	c #B9ACA6",
"r.	c #C4BABE",
"s.	c #D0D2D9",
"t.	c #DBE0E8",
"u.	c #D3E1E1",
"v.	c #C4C0BE",
"w.	c #BEB6B4",
"x.	c #BEB7B4",
"y.	c #D0CBC7",
"z.	c #D1CAC6",
"A.	c #CFC9C4",
"B.	c #C4BCB6",
"C.	c #B6B2AE",
"D.	c #5B9D85",
"E.	c #A9BAA2",
"F.	c #E0CFA3",
"G.	c #DEE3DD",
"H.	c #E2E8EE",
"I.	c #C3B6B0",
"J.	c #BFB8B2",
"K.	c #C0B8B6",
"L.	c #BFB8B5",
"M.	c #D1CCC9",
"N.	c #D1CBC8",
"O.	c #D0CAC7",
"P.	c #D0C8C4",
"Q.	c #CFC7C4",
"R.	c #CEC6C3",
"S.	c #CCC5C0",
"T.	c #CAC1BC",
"U.	c #BEB5B0",
"V.	c #BFB6B3",
"W.	c #C3BEC3",
"X.	c #C8C7CC",
"Y.	c #CDCABE",
"Z.	c #A0B1B5",
"`.	c #7EB5BA",
" +	c #8FC2A8",
".+	c #CBCDD9",
"++	c #BFB8B3",
"@+	c #BFB8B4",
"#+	c #BEB8B3",
"$+	c #C0B8B5",
"%+	c #D4CFCC",
"&+	c #D1CDCA",
"*+	c #CFCBC8",
"=+	c #D0C9C7",
"-+	c #CEC8C6",
";+	c #CEC7C4",
">+	c #CAC2BC",
",+	c #C9C0BB",
"'+	c #BFB5B0",
")+	c #D6A192",
"!+	c #C8AC6D",
"~+	c #A3B3A7",
"{+	c #9EB7B8",
"]+	c #D3CCDA",
"^+	c #91C2BD",
"/+	c #9EB197",
"(+	c #DCC2B3",
"_+	c #CECECD",
":+	c #C0B9B6",
"<+	c #BFB8B6",
"[+	c #BEB9B7",
"}+	c #BDB8B6",
"|+	c #D5D1CE",
"1+	c #D3CFCC",
"2+	c #CECAC7",
"3+	c #CEC8C5",
"4+	c #C7BFBA",
"5+	c #BBB1AD",
"6+	c #ABA09A",
"7+	c #958381",
"8+	c #8E6C5A",
"9+	c #78654D",
"0+	c #485D76",
"a+	c #6A6379",
"b+	c #92534D",
"c+	c #604C42",
"d+	c #3D3A33",
"e+	c #352D28",
"f+	c #545149",
"g+	c #807976",
"h+	c #A79E9B",
"i+	c #BDB5B2",
"j+	c #C2BAB8",
"k+	c #C0B9B7",
"l+	c #BEBAB7",
"m+	c #BDB9B6",
"n+	c #D6D2CF",
"o+	c #CAC2BF",
"p+	c #A99E99",
"q+	c #837672",
"r+	c #372A27",
"s+	c #372722",
"t+	c #4A352E",
"u+	c #755C55",
"v+	c #977C74",
"w+	c #A58780",
"x+	c #A3857D",
"y+	c #957770",
"z+	c #A58983",
"A+	c #B0938C",
"B+	c #A28780",
"C+	c #78635D",
"D+	c #271B17",
"E+	c #615653",
"F+	c #ADA5A2",
"G+	c #C3BCBA",
"H+	c #C2BBB9",
"I+	c #BFBBB8",
"J+	c #BFBAB7",
"K+	c #D8D4D2",
"L+	c #D7D3D1",
"M+	c #D2CECB",
"N+	c #D0CCC9",
"O+	c #CBC5C2",
"P+	c #B2A9A4",
"Q+	c #7A6B67",
"R+	c #251D1A",
"S+	c #362620",
"T+	c #6E5046",
"U+	c #9D7A6E",
"V+	c #B69286",
"W+	c #C29E92",
"X+	c #C8A49A",
"Y+	c #CBA79E",
"Z+	c #CDA99E",
"`+	c #CEAA9F",
" @	c #D0ACA2",
".@	c #D5B2AA",
"+@	c #D5B4AB",
"@@	c #B2948B",
"#@	c #523F39",
"$@	c #61534D",
"%@	c #B4ADAA",
"&@	c #C2BDBA",
"*@	c #C0BCB9",
"=@	c #BFBCB8",
"-@	c #D9D5D6",
";@	c #D7D4D4",
">@	c #D6D3D0",
",@	c #D4D2CE",
"'@	c #D3D0CE",
")@	c #D1CECE",
"!@	c #C8C3C1",
"~@	c #A39A95",
"{@	c #493C37",
"]@	c #201513",
"^@	c #7C5C52",
"/@	c #A98578",
"(@	c #B08C7F",
"_@	c #B89488",
":@	c #C29D92",
"<@	c #CAA59C",
"[@	c #CFABA3",
"}@	c #D0ACA3",
"|@	c #D0ACA1",
"1@	c #D2AFA5",
"2@	c #D6B4AB",
"3@	c #DABBB3",
"4@	c #D9BBB2",
"5@	c #C7AAA0",
"6@	c #614E47",
"7@	c #887F7A",
"8@	c #C1BDBA",
"9@	c #D8D7D8",
"0@	c #D8D6D7",
"a@	c #D6D5D2",
"b@	c #D4D4D2",
"c@	c #D3D3D3",
"d@	c #D1CFCF",
"e@	c #C7C2C1",
"f@	c #8C807B",
"g@	c #3D2F29",
"h@	c #543C32",
"i@	c #A17E70",
"j@	c #B08C7E",
"k@	c #B39083",
"l@	c #B69387",
"m@	c #C09B91",
"n@	c #C5A098",
"o@	c #CBA79F",
"p@	c #D0AEA6",
"q@	c #D1AFA7",
"r@	c #D1B1A8",
"s@	c #D6B9B3",
"t@	c #DABEB9",
"u@	c #DCC1BB",
"v@	c #DABEB6",
"w@	c #C0A79E",
"x@	c #574740",
"y@	c #B8B4B1",
"z@	c #C0BFBB",
"A@	c #BFBDBA",
"B@	c #BFBDB9",
"C@	c #BDBBB7",
"D@	c #D9D9D8",
"E@	c #D8D8D8",
"F@	c #D7D7D7",
"G@	c #D5D5D5",
"H@	c #CECDCC",
"I@	c #BAB4B2",
"J@	c #65564E",
"K@	c #322420",
"L@	c #7A5B51",
"M@	c #A58275",
"N@	c #967367",
"O@	c #8E6B60",
"P@	c #8F6C60",
"Q@	c #977266",
"R@	c #A88378",
"S@	c #B8948B",
"T@	c #C8A6A0",
"U@	c #D2B4B1",
"V@	c #D4B8B6",
"W@	c #CFB2B0",
"X@	c #C0A39F",
"Y@	c #BEA39F",
"Z@	c #C3A6A3",
"`@	c #CCB0A8",
" #	c #77645E",
".#	c #A4A19D",
"+#	c #BFBFBE",
"@#	c #BEBEBD",
"##	c #BDBDBD",
"$#	c #BDBDB9",
"%#	c #BBBCB7",
"&#	c #D4D4D4",
"*#	c #C7C6C4",
"=#	c #786C65",
"-#	c #41352D",
";#	c #392A23",
">#	c #8B6E61",
",#	c #876458",
"'#	c #765347",
")#	c #6A483D",
"!#	c #634238",
"~#	c #644034",
"{#	c #724B3F",
"]#	c #966F62",
"^#	c #B08E83",
"/#	c #C6A6A1",
"(#	c #C5A59E",
"_#	c #B28F88",
":#	c #957268",
"<#	c #8D6A62",
"[#	c #8F6F68",
"}#	c #9F837B",
"|#	c #8C756E",
"1#	c #95938D",
"2#	c #BDBEBC",
"3#	c #BCBEBE",
"4#	c #BCBEBC",
"5#	c #BCBCBC",
"6#	c #BBBBBA",
"7#	c #D7D9D9",
"8#	c #D6D9D8",
"9#	c #D4D8D7",
"0#	c #D3D6D5",
"a#	c #CCCECD",
"b#	c #96918E",
"c#	c #3A2D26",
"d#	c #29211C",
"e#	c #665247",
"f#	c #886C5E",
"g#	c #805D4D",
"h#	c #8C685A",
"i#	c #956F62",
"j#	c #926F63",
"k#	c #785248",
"l#	c #775951",
"m#	c #896559",
"n#	c #A58276",
"o#	c #C6A9A3",
"p#	c #C7ABA4",
"q#	c #A28279",
"r#	c #957366",
"s#	c #B59A91",
"t#	c #B1998F",
"u#	c #A59188",
"v#	c #9F9D9C",
"w#	c #B9BEBA",
"x#	c #BCBFBC",
"y#	c #BABFB9",
"z#	c #BABDBB",
"A#	c #B9BBB9",
"B#	c #D7DAD8",
"C#	c #D5D9D8",
"D#	c #D3D7D6",
"E#	c #CFD2D1",
"F#	c #BDBCB9",
"G#	c #564B43",
"H#	c #1C1411",
"I#	c #67625E",
"J#	c #7E6759",
"K#	c #866756",
"L#	c #7C5F51",
"M#	c #7D5B51",
"N#	c #815F55",
"O#	c #83645D",
"P#	c #6C483E",
"Q#	c #5F3C30",
"R#	c #755A4F",
"S#	c #937567",
"T#	c #AF968C",
"U#	c #AB958D",
"V#	c #84695E",
"W#	c #623D33",
"X#	c #644138",
"Y#	c #8E746E",
"Z#	c #A58D83",
"`#	c #A69085",
" $	c #898780",
".$	c #AAACA8",
"+$	c #BEC2BE",
"@$	c #BABEBC",
"#$	c #B9BDBC",
"$$	c #B8BBBA",
"%$	c #CED1CF",
"&$	c #989289",
"*$	c #36261C",
"=$	c #110B08",
"-$	c #604D45",
";$	c #907665",
">$	c #826452",
",$	c #533B2F",
"'$	c #453029",
")$	c #3B2A24",
"!$	c #4C3832",
"~$	c #5A3C2F",
"{$	c #704F3F",
"]$	c #6E584C",
"^$	c #8F6B5F",
"/$	c #C2A49D",
"($	c #BDA19A",
"_$	c #A0897C",
":$	c #6D554E",
"<$	c #42302B",
"[$	c #473938",
"}$	c #5F4A45",
"|$	c #998478",
"1$	c #948679",
"2$	c #9D9B93",
"3$	c #A3A5A2",
"4$	c #B9BEBC",
"5$	c #D6DADA",
"6$	c #D5D9DB",
"7$	c #D2D6D7",
"8$	c #BFC1BD",
"9$	c #736252",
"0$	c #2D1E13",
"a$	c #0C0707",
"b$	c #836C5F",
"c$	c #9D8573",
"d$	c #9B7F69",
"e$	c #8E705C",
"f$	c #7F6251",
"g$	c #74564A",
"h$	c #745448",
"i$	c #765447",
"j$	c #765547",
"k$	c #6B5147",
"l$	c #916F65",
"m$	c #BA9A92",
"n$	c #D2B7B4",
"o$	c #A69189",
"p$	c #AB978E",
"q$	c #9D8A84",
"r$	c #938077",
"s$	c #A08B7E",
"t$	c #B6A092",
"u$	c #B9A699",
"v$	c #9C978C",
"w$	c #ADB1AF",
"x$	c #B7BCBA",
"y$	c #B8BCBB",
"z$	c #B7BBBA",
"A$	c #D4D8DA",
"B$	c #D3D9DB",
"C$	c #CFD3D3",
"D$	c #A29D93",
"E$	c #58402C",
"F$	c #261910",
"G$	c #160E0A",
"H$	c #947969",
"I$	c #A68D7E",
"J$	c #AA907E",
"K$	c #A78A75",
"L$	c #9E7F69",
"M$	c #987A67",
"N$	c #957867",
"O$	c #937462",
"P$	c #795A4C",
"Q$	c #78594D",
"R$	c #947365",
"S$	c #B6948A",
"T$	c #D0B1AB",
"U$	c #B79E98",
"V$	c #B9A59A",
"W$	c #BCAA9F",
"X$	c #BAAA9E",
"Y$	c #B8A698",
"Z$	c #C4AEA2",
"`$	c #C8B3A6",
" %	c #8E8176",
".%	c #B2B6B2",
"+%	c #B3BCB9",
"@%	c #B6BCB9",
"#%	c #B6BBB8",
"$%	c #D4D9DB",
"%%	c #D1D7D8",
"&%	c #B9B7B2",
"*%	c #8D8073",
"=%	c #4D3420",
"-%	c #20140E",
";%	c #1B100C",
">%	c #937564",
",%	c #A18475",
"'%	c #9E8678",
")%	c #987A6A",
"!%	c #A28373",
"~%	c #A28574",
"{%	c #99806F",
"]%	c #826556",
"^%	c #6F4E40",
"/%	c #745247",
"(%	c #96776A",
"_%	c #AE8C81",
":%	c #C9ACA7",
"<%	c #C8AFA9",
"[%	c #997D70",
"}%	c #B5A69D",
"|%	c #BEAFA5",
"1%	c #BFACA2",
"2%	c #BBA39B",
"3%	c #B29C93",
"4%	c #947F72",
"5%	c #ADAA9E",
"6%	c #B4BBB8",
"7%	c #B3BCB8",
"8%	c #B4BAB7",
"9%	c #D3D7D8",
"0%	c #BDBCB8",
"a%	c #ACA69D",
"b%	c #735943",
"c%	c #462D1C",
"d%	c #18100A",
"e%	c #190F0B",
"f%	c #836654",
"g%	c #937764",
"h%	c #967867",
"i%	c #977463",
"j%	c #8E6C5C",
"k%	c #896554",
"l%	c #8B6B5D",
"m%	c #906E61",
"n%	c #694439",
"o%	c #815D51",
"p%	c #765244",
"q%	c #7E5648",
"r%	c #957469",
"s%	c #A88E84",
"t%	c #A88B80",
"u%	c #A2877F",
"v%	c #A79190",
"w%	c #AC9793",
"x%	c #BDA6A3",
"y%	c #CAB1AB",
"z%	c #A69185",
"A%	c #93826C",
"B%	c #B5B8B3",
"C%	c #B5BAB7",
"D%	c #B2B8B5",
"E%	c #C8C8C5",
"F%	c #B1AA9F",
"G%	c #9A8A78",
"H%	c #69472C",
"I%	c #402819",
"J%	c #1F150E",
"K%	c #1A130D",
"L%	c #705643",
"M%	c #8C705C",
"N%	c #937663",
"O%	c #997968",
"P%	c #9E7E6A",
"Q%	c #A0816E",
"R%	c #A18474",
"S%	c #8E6D5E",
"T%	c #5D392D",
"U%	c #664032",
"V%	c #462720",
"W%	c #694536",
"X%	c #836258",
"Y%	c #845D51",
"Z%	c #A98D81",
"`%	c #AA8D84",
" &	c #BBA29F",
".&	c #C9B1AE",
"+&	c #C9B2AD",
"@&	c #C8B1A9",
"#&	c #AA968B",
"$&	c #7F6751",
"%&	c #A39B8D",
"&&	c #B2B6B1",
"*&	c #B3B7B5",
"=&	c #B8B6AD",
"-&	c #ABA292",
";&	c #856843",
">&	c #644324",
",&	c #3E2A1A",
"'&	c #22170F",
")&	c #19130C",
"!&	c #5B4332",
"~&	c #876B55",
"{&	c #907361",
"]&	c #997B69",
"^&	c #9C7C69",
"/&	c #9D7D69",
"(&	c #9F826F",
"_&	c #8D6D58",
":&	c #775541",
"<&	c #6C4B3C",
"[&	c #836455",
"}&	c #9B7F71",
"|&	c #B9A096",
"1&	c #C1A69D",
"2&	c #C0A89E",
"3&	c #BAA197",
"4&	c #B69A93",
"5&	c #C1A6A2",
"6&	c #C6AEAB",
"7&	c #C5AEA9",
"8&	c #957E71",
"9&	c #7A644C",
"0&	c #836C53",
"a&	c #A19B91",
"b&	c #B0B2B0",
"  . + @ # $ % & & & % * = = - & ; > , ' ) ! ~ { ] ^ / ( _ : : < ",
"[ } } } | 1 2 > > & 3 > 4 > > & > 5 6 7 ~ ~ 8 8 8 9 9 9 / 0 a b ",
"c d e f g , h i 4 > 4 h h h h h 6 j k k 8 l m n 9 9 o / k j p b ",
"q r s t , , 1 u v w 6 4 4 4 h h x y o z k z k 9 k A k 6 B C D E ",
"F G H z 6 6 w u u 6 , , g w 6 6 I y 0 z j z z J 0 6 v K 6 g L M ",
"N O P Q z j 6 , R w 6 6 w 6 j j j j z j z 0 S z j x T 6 , U V W ",
"X Y Z `  .z 6 , , 6 w 6 6 j j j j j z z 0 z j j j 4 ..U U r V +.",
"@.#.Y $.%.&.w j 6 , 6 j j j j j j z 0 z j 6 6 U U V V V V *.=.=.",
"-.;.X >.,.'.)., z j j j j j z z 0 0 j j j 6 U r V V !.!.!.~.~.~.",
"{.].].;.^.,./. ., 0 z j z 0 S (.g j j 6 U r r _.!.!._.!.!.:.!.~.",
"#.<.[.^.>.^.,.}.|.2 S 1.S S 0 2.3.6 U r r V !.~.!.~.!.:.:.:.4.5.",
"6.7.X ^.^.8.8.Z 9.0.2 a.b.A c.d.e.f.V V V !.!.:.:.5.g.5.:.h.i.j.",
"k.l.m.;.^.8.n.n.Y o. .A p.q.r.s.t.u.v.~.!.!.:.:.:. .w.w. .|.).x.",
"y.z.A.m.#.-.8.n.Y Y B.> 5 C.D.E.F.G.H.I.:.:. .g.0. .0.0.J.).K.L.",
"M.N.O.P.Q.R.S.8.n.Y T.U.V.W.X.Y.Z.`. +.+0.J.++@+).++#+@+$+K.K.L.",
"%+&+*+=+-+;+;.^.>.>+,+'+)+!+~+{+]+^+/+(+_+&.9.$+G K.G :+<+:+[+}+",
"|+1+&+*+2+3+].8.4+5+6+7+8+9+0+a+b+c+d+e+f+g+h+i+j+j+j+k+l+[+l+m+",
"n+|+1+&+*+2+{.o+p+q+r+s+t+u+v+w+x+y+z+A+B+C+D+E+F+G+H+I+l+l+I+J+",
"K+L+|+1+M+N+O+P+Q+R+S+T+U+V+W+X+Y+Z+`+ @.@+@@@#@$@%@&@*@=@I+l+l+",
"-@;@>@,@'@)@!@~@{@]@^@/@(@_@:@<@[@}@|@1@2@3@4@5@6@7@l+8@*@*@*@l+",
"9@0@a@b@c@d@e@f@g@h@i@j@k@l@m@n@o@p@q@r@s@t@u@v@w@x@y@z@A@B@*@C@",
"D@E@F@G@c@H@I@J@K@L@M@N@O@P@Q@R@S@T@U@V@W@X@Y@Z@`@ #.#+#@###$#%#",
"D@E@F@&#c@*#=#-#;#>#,#'#)#!#~#{#]#^#/#(#_#:#<#[#}#|#1#2#3#4#5#6#",
"7#8#9#0#a#b#c#d#e#f#g#h#i#j#k#l#m#n#o#p#q#,#r#s#t#u#v#w#x#y#z#A#",
"B#C#D#E#F#G#H#I#J#K#L#M#N#O#P#Q#R#S#T#U#V#W#X#Y#Z#`# $.$+$@$#$$$",
"C#C#D#%$&$*$=$-$;$>$,$'$)$!$~${$]$^$/$($_$:$<$[$}$|$1$2$3$4$#$$$",
"5$6$7$8$9$0$a$b$c$d$e$f$g$h$i$j$k$l$m$n$o$p$q$r$s$t$u$v$w$x$y$z$",
"A$B$C$D$E$F$G$H$I$J$K$L$M$N$O$P$Q$R$S$T$U$V$W$X$Y$Z$`$ %.%+%@%#%",
"$%%%&%*%=%-%;%>%,%'%)%!%~%{%]%^%/%(%_%:%<%[%}%|%1%2%3%4%5%6%7%8%",
"9%0%a%b%c%d%e%f%g%h%i%j%k%l%m%n%o%p%q%r%s%t%u%v%w%x%y%z%A%B%C%D%",
"E%F%G%H%I%J%K%L%M%N%O%P%Q%R%S%T%U%V%W%X%Y%Z%`% &.&+&@&#&$&%&&&*&",
"=&-&;&>&,&'&)&!&~&{&]&^&/&(&_&:&<&[&}&|&1&2&3&4&5&6&7&8&9&0&a&b&"};
