/* XPM */
static char * NO_xpm[] = {
"64 64 54 1",
" 	c #9D9D9D",
".	c #B2B2B2",
"+	c #A0A0A0",
"@	c #BBBBBB",
"#	c #C6C6C6",
"$	c #ADADAD",
"%	c #909090",
"&	c #A1A1A1",
"*	c #949494",
"=	c #868686",
"-	c #B1B1B1",
";	c #7F7F7F",
">	c #787878",
",	c #ACACAC",
"'	c #9A9A9A",
")	c #C2C2C2",
"!	c #818181",
"~	c #888888",
"{	c #969696",
"]	c #8F8F8F",
"^	c #8A8A8A",
"/	c #B6B6B6",
"(	c #7A7A7A",
"_	c #9485B4",
":	c #9D8FBB",
"<	c #9F98AF",
"[	c #9992AA",
"}	c #9788B6",
"|	c #A699C2",
"1	c #A396C0",
"2	c #9879D1",
"3	c #9A84C6",
"4	c #B1AE7A",
"5	c #B8B585",
"6	c #ADAB94",
"7	c #A8A68E",
"8	c #B3B07E",
"9	c #BFBC90",
"0	c #BDBA8D",
"a	c #CCC65E",
"b	c #C2BE74",
"c	c #848484",
"d	c #AAAAAA",
"e	c #9B9B9B",
"f	c #8B8B8B",
"g	c #A4A4A4",
"h	c #898989",
"i	c #AFAFAF",
"j	c #767676",
"k	c #979797",
"l	c #9F9F9F",
"m	c #6D6D6D",
"n	c #8E8E8E",
"o	c #919191",
" ..............................  .............................. ",
"+@@@@@@@@@@@@@@@@@@@@@@@@@@@@@#$+@@@@@@@@@@@@@@@@@@@@@@@@@@@@@#$",
"%&&&&&&&&&&&&&&&&&&&&&&&&&&&&&@$%&&&&&&&&&&&&&&&&&&&&&&&&&&&&&@$",
"%&&&&&&&&&&&&&&&&&&&&&&&&&&&&&@$%&&&&&&&&&&&&&&&&&&&&&&&&&&&&&@$",
"%&&&&&&&&&&&&&&&&&&&&&&&&&&&&&@$%&&&&&&&&&&&&&&&&&&&&&&&&&&&&&@$",
"%&&&&&&&&&&&&&&&&&&&&&&&&&&&&&@$%&&&&&&&&&&&&&&&&&&&&&&&&&&&&&@$",
"%&&&&&&&&&&&&&&&&&&&&&&&&&&&&&@$%&&&&&&&&&&&&&&&&&&&&&&&&&&&&&@$",
"%&&&&&&&&&&&&&&&&&&&&&&&&&&&&&@$%&&&&&&&&&&&&&&&&&&&&&&&&&&&&&@$",
"%&&&&&&&&&&&&&&&&&&&&&&&&&&&&&@$%&&&&&&&&&&&&&&&&&&&&&&&&&&&&&@$",
"%&&&&&&&&&&&&&&&&&&&&&&&&&&&&&@$%&&&&&&&&&&&&&&&&&&&&&&&&&&&&&@$",
"%&&&&&&&&&&&&&&&&&&&&&&&&&&&&&@$%&&&&&&&&&&&&&&&&&&&&&&&&&&&&&@$",
"%&&&&&&&&&&&&&&&&&&&&&&&&&&&&&@$%&&&&&&&&&&&&&&&&&&&&&&&&&&&&&@$",
"%&&&&&&&&&&&&&&&&&&&&&&&&&&&&&@$%&&&&&&&&&&&&&&&&&&&&&&&&&&&&&@$",
"%&&&&&&&&&&&&&&&&&&&&&&&&&&&&&@$%&&&&&&&&&&&&&&&&&&&&&&&&&&&&&@$",
"%&&&&&&&&&&&&&&&&&&&&&&&&&&&&&@$%&&&&&&&&&&&&&&&&&&&&&&&&&&&&&@$",
"%&&&&&&&&&&&&&&&&&&&&&&&&&&&&&@$%&&&&&&&&&&&&&&*==============-$",
"+@@@@@@@@@@@@@@@@@@@@@@@@@@@@@#$%&&&&&&&&&&&&&*;>>>>>>>>>>>>>>,$",
"'.............................)$!=============;~{{{]]{{{]]{{{].$",
"^{{{{{{{{{{{{{{{{{{{{{{{{{{{{{/$(>>>>>>>>>>>>>!{&&&{{&&&{{&&&{.$",
"%&&&&&&&&&&&&&&&&&&&&&&&&&&&&&@$^{{{]]{{{]]{{{]{&&&{{&&&{{&&&{.$",
"_::::::::::::::::::<<:<<:<<:<&@$%<:<[}<<:[[:::}}:::}}:::}}:::}|1",
"22222222222222222223:33:33:33<@$%<33:33:33:322222222222222222222",
"22222222222222222222::2::2::2:@$%&:2::2::2::22222222222222222222",
"22222222222222222223:33:33:33<@$%<33:33:33:322222222222222222222",
"_::::::::::::::::::<<:<<:<<:<&@$%<:<[}<<:[[:::}}:::}}:::}}:::}|1",
"455555555555555555556656656656@$%&657756687655885558855588555890",
"aaaaaaaaaaaaaaaaaaab5bb5bb5bb6@$%6bb5bb5bb5baaaaaaaaaaaaaaaaaaaa",
"aaaaaaaaaaaaaaaaaaa55a55a55a5&@$%5a55a55a55aaaaaaaaaaaaaaaaaaaaa",
"aaaaaaaaaaaaaaaaaaab5bb5bb5bb6@$%6bb5bb5bb5baaaaaaaaaaaaaaaaaaaa",
"455555555555555555556656656656@$%&657756687655885558855588555890",
"%&&&&&&&&&&&&&&&&&&&&&&&&&&&&&@$%&&&{{&&&{{&&&{{&&&{{&&&{{&&&{.$",
"%&&&&&&&&&&&&&&&&&&&&&&&&&&&&&@$%&&&{{&&&{{&&&{{&&&{{&&&{{&&&{.$",
"c{{{{{{{{{{{{{{{{{{{{{{{{{{{{{def&&&{{&&&{{&&&{{&&&{{&&&{{&&&{ge",
">hhhhhhhhhhhhhhhhhhhhhhhhhhhhh{==&&&{{&&&{{&&&{{&&&{{&&&{{&&&{{=",
">hhhhhhhhhhhhhhhhhhhhhhhhhhhhh{==&&&{{&&&{{&&&{{&&&{{&&&{{&&&{{=",
">hhhhhhhhhhhhhhhhhhhhhhhhhhhhh{==&&&{{&&&{{&&&{{&&&{{&&&{{&&&{{=",
">hhhhhhhhhhhhhhhhhhhhhhhhhhhhh{==&&&{{&&&{{&&&{{&&&{{&&&{{&&&{{=",
">hhhhhhhhhhhhhhhhhhhhhhhhhhhhh{==&&&{{&&&{{&&&{{&&&{{&&&{{&&&{{=",
">hhhhhhhhhhhhhhhhhhhhhhhhhhhhh{==&&&{{&&&{{&&&{{&&&{{&&&{{&&&{{=",
">hhhhhhhhhhhhhhhhhhhhhhhhhhhhh{==&&&{{&&&{{&&&{{&&&{{&&&{{&&&{{=",
">hhhhhhhhhhhhhhhhhhhhhhhhhhhhh{==&&&{{&&&{{&&&{{&&&{{&&&{{&&&{{=",
">hhhhhhhhhhhhhhhhhhhhhhhhhhhhh{==&&&{{&&&{{&&&{{&&&{{&&&{{&&&{{=",
">hhhhhhhhhhhhhhhhhhhhhhhhhhhhh{==&&&{{&&&{{&&&{{&&&{{&&&{{&&&{{=",
">hhhhhhhhhhhhhhhhhhhhhhhhhhhhh{==&&&{{&&&{{&&&{{&&&{{&&&{{&&&{{=",
">hhhhhhhhhhhhhhhhhhhhhhhhhhhhh{==&&&{{&&&{{&&&{{&&&{{&&&{{&&&{{=",
">hhhhhhhhhhhhhhhhhhhhhhhhhhhhh{==&&&{{&&&{{&&&{{&&&ee&&&ee&&&ee=",
">hhhhhhhhhhhhhhhhhhhhhhhhhhhhh{==&&&{{&&&{{&&&ed@@@@@@@@@@@@@@i=",
";{{{{{{{{{{{{{{{{{{{{{{{{{{{{{e==&&&ee&&&ee&&&i/..............d=",
"j=============================*=k@@@@@@@@@@@@@/lhhhhhhhhhhhhhh{=",
"m>>>>>>>>>>>>>>>>>>>>>>>>>>>>>n=o.............lhhhhhhhhhhhhhhh{=",
">hhhhhhhhhhhhhhhhhhhhhhhhhhhhh{=>hhhhhhhhhhhhhhhhhhhhhhhhhhhhh{=",
">hhhhhhhhhhhhhhhhhhhhhhhhhhhhh{=>hhhhhhhhhhhhhhhhhhhhhhhhhhhhh{=",
">hhhhhhhhhhhhhhhhhhhhhhhhhhhhh{=>hhhhhhhhhhhhhhhhhhhhhhhhhhhhh{=",
">hhhhhhhhhhhhhhhhhhhhhhhhhhhhh{=>hhhhhhhhhhhhhhhhhhhhhhhhhhhhh{=",
">hhhhhhhhhhhhhhhhhhhhhhhhhhhhh{=>hhhhhhhhhhhhhhhhhhhhhhhhhhhhh{=",
">hhhhhhhhhhhhhhhhhhhhhhhhhhhhh{=>hhhhhhhhhhhhhhhhhhhhhhhhhhhhh{=",
">hhhhhhhhhhhhhhhhhhhhhhhhhhhhh{=>hhhhhhhhhhhhhhhhhhhhhhhhhhhhh{=",
">hhhhhhhhhhhhhhhhhhhhhhhhhhhhh{=>hhhhhhhhhhhhhhhhhhhhhhhhhhhhh{=",
">hhhhhhhhhhhhhhhhhhhhhhhhhhhhh{=>hhhhhhhhhhhhhhhhhhhhhhhhhhhhh{=",
">hhhhhhhhhhhhhhhhhhhhhhhhhhhhh{=>hhhhhhhhhhhhhhhhhhhhhhhhhhhhh{=",
">hhhhhhhhhhhhhhhhhhhhhhhhhhhhh{=>hhhhhhhhhhhhhhhhhhhhhhhhhhhhh{=",
">hhhhhhhhhhhhhhhhhhhhhhhhhhhhh{=>hhhhhhhhhhhhhhhhhhhhhhhhhhhhh{=",
">hhhhhhhhhhhhhhhhhhhhhhhhhhhhh{=>hhhhhhhhhhhhhhhhhhhhhhhhhhhhh{=",
"m>>>>>>>>>>>>>>>>>>>>>>>>>>>>>n=m>>>>>>>>>>>>>>>>>>>>>>>>>>>>>n="};
