/* XPM */
static char * SO_xpm[] = {
"64 64 157 2",
"  	c #ACACAC",
". 	c #CFCFCF",
"+ 	c #D0D0D0",
"@ 	c #ADADAD",
"# 	c #919191",
"$ 	c #A4A4A4",
"% 	c #A6A6A6",
"& 	c #A3A3A3",
"* 	c #BCBCBC",
"= 	c #B3B3B3",
"- 	c #989898",
"; 	c #909090",
"> 	c #B8B8B8",
", 	c #CCCCCC",
"' 	c #A1A1A1",
") 	c #BBBBBB",
"! 	c #B2B2B2",
"~ 	c #969696",
"{ 	c #939393",
"] 	c #828282",
"^ 	c #A0A0A0",
"/ 	c #A1A0A3",
"( 	c #A09FA5",
"_ 	c #BDBDBD",
": 	c #9D8FBB",
"< 	c #9C8EBC",
"[ 	c #997CCF",
"} 	c #9D91B9",
"| 	c #987AD0",
"1 	c #BABABA",
"2 	c #CECECE",
"3 	c #9D90B9",
"4 	c #997DCD",
"5 	c #997DCE",
"6 	c #B0B0B0",
"7 	c #A19FA4",
"8 	c #A09EA7",
"9 	c #A09EA6",
"0 	c #A1A0A4",
"a 	c #979797",
"b 	c #997ECD",
"c 	c #AFAFAF",
"d 	c #A3A39F",
"e 	c #A6A59C",
"f 	c #A4A39E",
"g 	c #B8B585",
"h 	c #C8C268",
"i 	c #BAB782",
"j 	c #A4A49E",
"k 	c #BAB781",
"l 	c #B6B389",
"m 	c #CAC463",
"n 	c #CAC464",
"o 	c #BBB781",
"p 	c #B5B289",
"q 	c #A7A69B",
"r 	c #C7C26A",
"s 	c #A8A79A",
"t 	c #BBB780",
"u 	c #C7C16B",
"v 	c #908C9B",
"w 	c #A09CA9",
"x 	c #A09EA5",
"y 	c #9F9CAA",
"z 	c #B7B4BE",
"A 	c #AAA7B3",
"B 	c #AEABB6",
"C 	c #9591A0",
"D 	c #A9A8AD",
"E 	c #906FCE",
"F 	c #9879D1",
"G 	c #9C8CBF",
"H 	c #997CCE",
"I 	c #9C80D0",
"J 	c #9577CD",
"K 	c #9082AC",
"L 	c #9D81D0",
"M 	c #9578CD",
"N 	c #9C8BBF",
"O 	c #9076C5",
"P 	c #9A81CA",
"Q 	c #9D92B7",
"R 	c #A38DCC",
"S 	c #9A83C8",
"T 	c #9B84C9",
"U 	c #9177C6",
"V 	c #968BAC",
"W 	c #9A9986",
"X 	c #AAA997",
"Y 	c #BEBDB1",
"Z 	c #B1B0A3",
"` 	c #B4B4A7",
" .	c #9F9D8B",
"..	c #ACACA6",
"+.	c #C1BA4E",
"@.	c #CCC65D",
"#.	c #C9C366",
"$.	c #BCB87E",
"%.	c #CAC575",
"&.	c #BEB96A",
"*.	c #A7A582",
"=.	c #C0BA4F",
"-.	c #CCC65E",
";.	c #CAC576",
">.	c #BEB96B",
",.	c #A7A583",
"'.	c #CAC45B",
").	c #C7C158",
"!.	c #C8C368",
"~.	c #B7B262",
"{.	c #B7B261",
"].	c #AAA44E",
"^.	c #C4BF71",
"/.	c #C4BF70",
"(.	c #B3B18C",
"_.	c #C7C389",
":.	c #BAB77D",
"<.	c #BBB77F",
"[.	c #B8B364",
"}.	c #A8A78D",
"|.	c #8F9091",
"1.	c #939494",
"2.	c #858586",
"3.	c #A0A1A2",
"4.	c #BBBBBC",
"5.	c #ADADAE",
"6.	c #959596",
"7.	c #8C8C8C",
"8.	c #9A9A9A",
"9.	c #999999",
"0.	c #7E7E7E",
"a.	c #868686",
"b.	c #AAAAAA",
"c.	c #A5A5A5",
"d.	c #8B8B8B",
"e.	c #9C9C9C",
"f.	c #A9A9A9",
"g.	c #8F8F8F",
"h.	c #838383",
"i.	c #9E9E9E",
"j.	c #777777",
"k.	c #898989",
"l.	c #959595",
"m.	c #787878",
"n.	c #949494",
"o.	c #7C7C7C",
"p.	c #6D6D6D",
"q.	c #8E8E8E",
"r.	c #818181",
"s.	c #7F7F7F",
"t.	c #808080",
"u.	c #6C6C6C",
"v.	c #888888",
"w.	c #6E6E6E",
"x.	c #767676",
"y.	c #796C65",
"z.	c #897F78",
"  . . . . . . . . . . . . . . . . . . . . . . . . . . . . . + @   . . . . + + . . . . . . . . . . . . . . . . . . . . . . . + @ ",
"# $ % $ & & & & & & & & & & & & & & & & & & & & & & & $ % $ * @ # & & & & * = - & & & & & & & & & & & & & & & & & & & & & & * @ ",
"; > , > ' ' ' ' ' ' ' ' ' ' ' ' ' ' ' ' ' ' ' ' ' ' ' > , > ) @ ; ' ' ' ' ) ! ~ ' ' ' ' ' ' ' ' ' ' ' ' ' ' ' ' ' ' ' ' ' ' ) @ ",
"; { ] { ' ' ' ' ' ' ' ' ' ' ' ' ' ' ' ' ' ' ' ' ' ' ' { ] { ) @ ; ' ' ' ' ) ! ~ ' ' ' ' ' ' ' ' ' ' ' ' ' ' ' ' ' ' ' ' ' ' ) @ ",
"; ' ^ ' ' ' ' ' ' ' ' ' ' ' ' ' ' ' ' ' ' ' ' ' ' ' ' ' ^ ' ) @ ; ' ' ' ' ) ! ~ ' ' ' ' ' ' ' ' ' ' ' ' ' ' ' ' ' ' ' ' ' ' ) @ ",
"; ' ' ' ' ' ' ' ' ' ' ' ' ' ' ' ' ' ' ' ' ' ' ' ' ' ' ' ' ' ) @ ; ' ' ' ' ) ! ~ ' ' ' ' ' ' ' ' ' ' ' ' ' ' ' ' ' ' ' ' ' ' ) @ ",
"; ' ' ' ' ' ' ' / / ' ' / / / ( / / / ' / ( / ' ' ' ' ' ' ' ) @ ; ' ' ' ' ) ! ~ ' ' ' ' ' ' ' ' ' ' ' ' ' ' ' ' ' ' ' ' ' & _ @ ",
"; ' ' ' ' ' ' ' : < / / < : : [ } : < / : | : ' ' ' ' ' ' ' ) @ ; ' ' ' ' ) ! ~ ' ' ' ' ' ' ' ' ' ' ' ' ' ' ' ' ' ' ' ' & 1 2 @ ",
"; ' ' ' ' ' ' ' 3 4 } } 4 3 3 3 ' 3 4 } 3 5 3 ' ' ' ' ' ' ' ) @ ; ' ' ' ' ) ! ~ ' ' ' ' ' ' ' ' ' ' ' ' ' ' ' ' ' ' ' & 1 6 = @ ",
"; ' ' ' ' ' ' ' 7 8 9 9 8 9 9 9 9 9 8 9 9 8 9 0 ' ' ' ' ' ' ) @ ; ' ' ' ' ) ! ~ ' ' ' ' ' ' ' ' ' ' ' ' ' ' ' ' ' ' $ 1 6 a ) @ ",
"; ' ' ' ' ' ' ' } b b b b b b b b b b b b b b } ' ' ' ' ' ' ) @ ; ' ' ' ' ) ! ~ ' ' ' ' ' ' ' ' ' ' ' ' ' ' ' ' ' $ 1 c a ' ) @ ",
"; ' ' ' ' ' ' ' ' d e e d ' ' d d ' ' d e e d ' ' ' ' ' ' ' ) @ ; ' ' ' ' ) ! ~ ' ' ' ' ' ' ' ' ' ' ' ' ' ' ' ' $ 1 c a ' ' ) @ ",
"; ' ' ' ' ' ' ' f g h h g f f i g ' f g h h g f ' ' ' ' ' ' ) @ ; ' ' ' ' ) ! ~ ' ' ' ' ' ' ' ' ' ' ' ' ' ' ' $ 1 c a ' ' ' ) @ ",
"; ' ' ' ' ' ' ' g g ' j k g l m g ' g g ' ' g g ' ' ' ' ' ' ) @ ; ' ' ' ' ) ! ~ ' ' ' ' ' ' ' ' ' ' ' ' ' ' ' ) ! ~ ' ' ' ' ) @ ",
"; ' ' ' ' ' ' ' g g f g n g ' g g ' g g ' ' g g ' ' ' ' ' ' ) @ ; ' ' ' ' ) ! ~ ' ' ' ' ' ' ' ' ' ' ' ' ' ' ' ) ! ~ ' ' ' ' ) @ ",
"; ' ' ' ' ' ' ' g o g p g g ' g g ' g o q q o g ' ' ' ' ' ' ) @ ; ' ' ' ' ) ! ~ ' ' ' ' ' ' ' ' ' ' ' ' ' ' ' ) ! ~ ' ' ' ' ) @ ",
"; ' ' ' ' ' ' ' g n p ' g g ' g g ' g n r r n g ' ' ' ' ' ' ) @ ; ' ' ' ' ) ! ~ ' ' ' ' ' ' ' ' ' ' ' ' ' ' ' ) ! ~ ' ' ' ' ) @ ",
"; ' ' ' ' ' ' ' p g s s g p j t t j g g ' ' g g ' ' ' ' ' ' ) @ ; ' ' ' ' ) ! ~ ' ' ' ' ' ' ' ' ' ' ' ' ' ' ' ) ! ~ ' ' ' ' ) @ ",
"; ' ' ' ' ' ' ' ' p u u p ' p u u p p p ' ' p p ' ' ' ' ' ' ) @ ; ' ' ' ' ) ! ~ ' ' ' ' ' ' ' ' ' ' ' ' ' ' ' ) ! ~ ' ' ' ' ) @ ",
"v w w w w w w w w w x x w x x y x x w x x w w w w w w w w w z A v w w w w z B C w w w w w w w w w w w w w w w z B C w w w w z D ",
"E F F F F F F F F F G : H G : H G : H G : H F F F F F F F F I J E F F F F I J E F F F F F F F F F F F F F F F I J E F F F F I K ",
"E F F F F F F F F F F : : F : : F : : F : : F F F F F F F F L M E F F F F L M E F F F F F F F F F F F F F F F L M E F F F F L K ",
"E F F F F F F F F F 4 : N 4 : N 4 : N 4 : N F F F F F F F F L M E F F F F L M E F F F F F F F F F F F F F F F L M E F F F F L K ",
"O P P P P P P P P P Q Q P Q Q P Q Q P Q Q P P P P P P P P P R S O P P P P R T U P P P P P P P P P P P P P P P R T U P P P P R V ",
"W X X X X X X X X X X e e X e e X e e X e e X X X X X X X X Y Z W X X X X Y `  .X X X X X X X X X X X X X X X Y `  .X X X X Y ..",
"+.@.@.@.@.@.@.@.@.@.#.g $.#.g $.#.g $.#.g $.@.@.@.@.@.@.@.@.%.&.+.@.@.@.@.%.&.+.@.@.@.@.@.@.@.@.@.@.@.@.@.@.@.%.&.+.@.@.@.@.%.*.",
"=.-.-.-.-.-.-.-.-.-.g g -.g g -.g g -.g g -.-.-.-.-.-.-.-.-.;.>.=.-.-.-.-.;.>.=.-.-.-.-.-.-.-.-.-.-.-.-.-.-.-.;.>.=.-.-.-.-.;.,.",
"=.'.).'.-.-.-.-.-.-.$.g !.$.g !.$.g !.$.g !.-.-.-.-.-.'.).'.;.>.=.-.-.-.-.;.>.=.-.-.-.-.-.-.-.-.-.-.-.-.-.-.-.;.>.=.-.-.-.-.;.,.",
"~.{.].{.^.^.^.^.^.^./.(.(./.(.(./.(.(./.(.(.^.^.^.^.^.{.].{._.:.~.^.^.^.^._.<.[.^.^.^.^.^.^.^.^.^.^.^.^.^.^.^._.<.[.^.^.^.^._.}.",
"|.1.2.1.3.3.3.3.3.3.3.' ' 3.' ' 3.' ' 3.' ' 3.3.3.3.3.1.2.1.4.5.|.3.3.3.3.4.! 6.3.3.3.3.3.3.3.3.3.3.3.3.3.3.3.4.! 6.3.3.3.3.4.5.",
"7.8.8.8.9.9.9.9.9.9.9.9.9.9.9.9.9.9.9.9.9.9.9.9.9.9.9.8.8.8.> @ ; ' ' ' ' ) ! ~ ' ' ' ' ' ' ' ' ' ' ' ' ' ' ' ) ! ~ ' ' ' ' ) @ ",
"0.a.a.a.a.a.a.a.a.a.a.a.a.a.a.a.a.a.a.a.a.a.a.a.a.a.a.a.a.a.b.c.d.e.e.e.e.= f.g.e.e.e.e.e.e.e.e.e.e.e.e.e.e.e.= f.g.e.e.e.e.= c.",
"h.e.e.e.e.e.e.e.e.e.e.e.e.e.e.e.e.e.e.e.e.e.e.e.e.e.e.e.e.e.i.a.j.k.k.k.k.l.a.j.k.k.k.k.k.k.k.k.k.k.k.k.k.k.k.l.a.j.k.k.k.k.l.a.",
"j.7.g.7.k.k.k.k.k.k.k.k.k.k.k.k.k.k.k.k.k.k.k.k.k.k.k.7.g.7.l.a.m.k.k.k.k.~ a.m.k.k.k.k.k.k.k.k.k.k.k.k.k.k.k.~ a.m.k.k.k.k.~ a.",
"m.g.n.g.k.k.k.k.k.k.k.k.k.k.k.k.k.k.k.k.k.k.k.k.k.k.k.g.n.g.~ a.m.k.k.k.k.~ a.m.k.k.k.k.k.k.k.k.k.k.k.k.k.k.k.~ a.m.k.k.k.k.~ a.",
"m.o.p.o.k.k.k.k.k.k.k.k.k.k.k.k.k.k.k.k.k.k.k.k.k.k.k.o.p.o.~ a.m.k.k.k.k.~ a.m.k.k.k.k.k.k.k.k.k.k.k.k.k.k.k.~ a.m.k.k.k.k.~ a.",
"m.k.k.k.k.k.k.k.k.k.k.k.k.k.k.k.k.k.k.k.k.k.k.k.k.k.k.k.k.k.~ a.m.k.k.k.k.~ a.m.k.k.k.k.k.k.k.k.k.k.k.k.k.k.k.~ a.m.k.k.k.k.~ a.",
"m.k.k.k.k.k.k.k.k.k.k.k.k.k.k.k.k.k.k.k.k.k.k.k.k.k.k.k.k.k.~ a.m.k.k.k.k.~ a.m.k.k.k.k.k.k.k.k.k.k.k.k.k.k.k.~ a.m.k.k.k.k.~ a.",
"m.k.k.k.k.k.k.k.k.k.k.k.k.k.k.k.k.k.k.k.k.k.k.k.k.k.k.k.k.k.~ a.m.k.k.k.k.~ a.m.k.k.k.k.k.k.k.k.k.k.k.k.k.k.k.~ a.m.k.k.k.k.~ a.",
"m.k.k.k.k.k.k.k.k.k.k.k.k.k.k.k.k.k.k.k.k.k.k.k.k.k.k.k.k.k.~ a.m.k.k.k.k.~ a.m.k.k.k.k.k.k.k.k.k.k.k.k.k.k.k.~ a.m.k.k.k.k.~ a.",
"m.k.k.k.k.k.k.k.k.k.k.k.k.k.k.k.k.k.k.k.k.k.k.k.k.k.k.k.k.k.~ a.m.k.k.k.k.~ a.m.k.k.k.k.k.k.k.k.k.k.k.k.k.k.k.~ a.m.k.k.k.k.~ a.",
"m.k.k.k.k.k.k.k.k.k.k.k.k.k.k.k.k.k.k.k.k.k.k.k.k.k.k.k.k.k.~ a.m.k.k.k.k.~ a.m.k.k.k.k.k.k.k.k.k.k.k.k.k.k.k.~ a.m.k.k.k.k.~ a.",
"m.k.k.k.k.k.k.k.k.k.k.k.k.k.k.k.k.k.k.k.k.k.k.k.k.k.k.k.k.k.~ a.m.k.k.k.k.~ a.m.k.k.k.k.k.k.k.k.k.k.k.k.k.k.k.~ a.m.k.k.k.k.~ a.",
"m.k.k.k.k.k.k.k.k.k.k.k.k.k.k.k.k.k.k.k.k.k.k.k.k.k.k.k.k.k.~ a.m.k.k.k.k.~ a.m.k.k.k.k.k.k.k.k.k.k.k.k.k.k.k.~ a.m.k.k.k.k.~ a.",
"m.k.k.k.k.k.k.k.k.k.k.k.k.k.k.k.k.k.k.k.k.k.k.k.k.k.k.k.k.k.~ a.m.k.k.k.k.~ a.m.k.k.k.k.k.k.k.k.k.k.k.k.k.k.k.~ a.m.k.k.k.k.~ a.",
"m.k.k.k.k.k.k.k.k.k.k.k.k.k.k.k.k.k.k.k.k.k.k.k.k.k.k.k.k.k.~ a.m.k.k.k.k.~ a.m.k.k.k.k.k.k.k.k.k.k.k.k.k.k.k.~ a.m.k.k.k.k.~ a.",
"m.k.k.k.k.k.k.k.k.k.k.k.k.k.k.k.k.k.k.k.k.k.k.k.k.k.k.k.k.k.~ a.m.k.k.k.k.~ a.m.k.k.k.k.k.k.k.k.k.k.k.k.k.k.k.~ a.m.k.k.k.k.~ a.",
"m.k.k.k.k.k.k.k.k.k.k.k.k.k.k.k.k.k.k.k.k.k.k.k.k.k.k.k.k.k.~ a.m.k.k.k.k.~ a.m.k.k.k.k.k.k.k.k.k.k.k.k.k.k.k.~ a.m.k.k.k.k.~ a.",
"m.k.k.k.k.k.k.k.k.k.k.k.k.k.k.k.k.k.k.k.k.k.k.k.k.k.k.k.k.k.~ a.m.k.k.k.k.~ a.m.k.k.k.k.k.k.k.k.k.k.k.k.k.k.k.~ a.m.k.k.k.k.~ a.",
"m.k.k.k.k.k.k.k.k.k.k.k.k.k.k.k.k.k.k.k.k.k.k.k.k.k.k.k.k.k.~ a.m.k.k.k.k.~ a.m.k.k.k.k.k.k.k.k.k.k.k.k.k.k.k.~ a.m.k.k.k.k.~ a.",
"m.k.k.k.k.k.k.k.k.k.k.k.k.k.k.k.k.k.k.k.k.k.k.k.k.k.k.k.k.k.~ a.m.k.k.k.q.; r.s.k.k.k.k.k.k.k.k.k.k.k.k.k.k.k.~ a.m.k.k.k.k.~ a.",
"m.k.k.k.k.k.k.k.k.k.k.k.k.k.k.k.k.k.k.k.k.k.k.k.k.k.k.k.k.k.~ a.m.k.k.q.; r.s.k.k.k.k.k.k.k.k.k.k.k.k.k.k.k.k.~ a.m.k.k.k.k.~ a.",
"m.k.k.k.k.k.k.k.k.k.k.k.k.k.k.k.k.k.k.k.k.k.k.k.k.k.k.k.k.k.~ a.m.k.q.; t.s.k.k.k.k.k.k.k.k.k.k.k.k.k.k.k.k.k.~ a.m.k.k.k.k.~ a.",
"m.k.k.k.k.k.k.k.k.k.k.k.k.k.k.k.k.k.k.k.k.k.k.k.k.k.k.k.k.k.~ a.m.q.g.t.s.k.k.k.k.k.k.k.k.k.k.k.k.k.k.k.k.k.k.~ a.m.k.k.k.k.~ a.",
"m.k.k.k.k.k.k.k.k.k.k.k.k.k.k.k.k.k.k.k.k.k.k.k.k.k.k.k.k.k.~ a.0.g.t.s.k.k.k.k.k.k.k.k.k.k.k.k.k.k.k.k.k.k.k.~ a.m.k.k.k.k.~ a.",
"m.k.k.k.k.k.k.k.k.k.k.k.k.k.k.k.k.k.k.k.k.k.k.k.k.k.k.k.k.k.~ a.m.t.s.k.k.k.k.k.k.k.k.k.k.k.k.k.k.k.k.k.k.k.k.~ a.m.k.k.k.k.~ a.",
"m.k.k.k.k.k.k.k.k.k.k.k.k.k.k.k.k.k.k.k.k.k.k.k.k.k.k.k.k.k.~ a.u.t.k.k.k.k.k.k.k.k.k.k.k.k.k.k.k.k.k.k.k.k.k.~ a.m.k.k.k.k.~ a.",
"m.k.k.k.k.k.k.k.k.k.k.k.k.k.k.k.k.k.k.k.k.k.k.k.k.k.k.k.k.k.~ a.m.k.k.k.k.k.k.k.k.k.k.k.k.k.k.k.k.k.k.k.k.k.k.~ a.m.k.k.k.k.~ a.",
"m.k.k.k.k.k.k.k.k.k.k.k.k.k.k.k.k.k.k.k.k.k.k.k.k.k.k.k.k.k.~ a.m.k.k.k.k.k.k.k.k.k.k.k.k.k.k.k.k.k.k.k.k.k.k.~ a.m.k.k.k.k.~ a.",
"m.g.l.g.k.k.k.k.k.k.k.k.k.k.k.k.k.k.k.k.k.k.k.k.k.k.k.g.l.g.~ a.m.k.k.k.k.k.k.k.k.k.k.k.k.k.k.k.k.k.k.k.k.k.k.~ a.m.k.k.k.k.~ a.",
"m.v.v.v.k.k.k.k.k.k.k.k.k.k.k.k.k.k.k.k.k.k.k.k.k.k.k.v.v.v.~ a.m.k.k.k.k.k.k.k.k.k.k.k.k.k.k.k.k.k.k.k.k.k.k.~ a.m.k.k.k.k.~ a.",
"m.t.j.t.k.k.k.k.k.k.k.k.k.k.k.k.k.k.k.k.k.k.k.k.k.k.k.t.j.t.~ a.m.k.k.k.k.k.k.k.k.k.k.k.k.k.k.k.k.k.k.k.k.k.k.~ a.m.k.k.k.k.~ a.",
"w.m.m.m.m.m.m.m.m.m.m.m.m.m.m.m.m.m.m.m.m.m.m.m.m.m.m.m.m.m.q.a.w.m.m.m.m.m.m.m.m.m.m.m.m.m.m.m.m.m.m.m.m.m.m.t.x.w.m.m.m.m.q.a.",
"y.y.y.y.y.y.y.y.y.y.y.y.y.y.y.y.y.y.y.y.y.y.y.y.y.y.y.y.y.y.z.z.y.y.y.y.y.y.y.y.y.y.y.y.y.y.y.y.y.y.y.y.y.y.y.y.y.y.y.y.y.y.z.z."};
