/* XPM */
static char * soso_xpm[] = {
"32 32 976 2",
"  	c #E8E8D0",
". 	c #DADBBA",
"+ 	c #DDDEC6",
"@ 	c #E0E1DD",
"# 	c #7D827C",
"$ 	c #9EA598",
"% 	c #DFE2D6",
"& 	c #DADDD3",
"* 	c #9AB2CA",
"= 	c #B6BBD1",
"- 	c #83B3D8",
"; 	c #4A86B0",
"> 	c #2B6E9D",
", 	c #256395",
"' 	c #246192",
") 	c #1B5383",
"! 	c #205A8A",
"~ 	c #25618F",
"{ 	c #205C8F",
"] 	c #24669A",
"^ 	c #3C79A5",
"/ 	c #335876",
"( 	c #3A6992",
"_ 	c #5C6A65",
": 	c #C2C9BD",
"< 	c #C2C7BB",
"[ 	c #C1C2B0",
"} 	c #C3C3AF",
"| 	c #BEBEA9",
"1 	c #B8B7A2",
"2 	c #B4B39F",
"3 	c #AFB19F",
"4 	c #E9E9D1",
"5 	c #DFE1C3",
"6 	c #E4E6D5",
"7 	c #E2E3DF",
"8 	c #7B7F79",
"9 	c #9EA696",
"0 	c #DFE2D8",
"a 	c #DDE0D8",
"b 	c #A2BACF",
"c 	c #ACBCD6",
"d 	c #89BBDD",
"e 	c #5699C5",
"f 	c #3179A9",
"g 	c #2B6FA1",
"h 	c #27689A",
"i 	c #215E8F",
"j 	c #226196",
"k 	c #226297",
"l 	c #1D5A8D",
"m 	c #1C5787",
"n 	c #375D79",
"o 	c #32425A",
"p 	c #1F507A",
"q 	c #3E5B61",
"r 	c #C6CEC0",
"s 	c #CFD2C5",
"t 	c #D0D3C2",
"u 	c #E3E4D6",
"v 	c #DFDECF",
"w 	c #D4D3C3",
"x 	c #D1D0BC",
"y 	c #C1C2AC",
"z 	c #EEEDD8",
"A 	c #EEEEDC",
"B 	c #EEEFE3",
"C 	c #E4E5E1",
"D 	c #787D76",
"E 	c #A2A79B",
"F 	c #D8DAD4",
"G 	c #DFE1DA",
"H 	c #B8CDDE",
"I 	c #A1C3E0",
"J 	c #8CBCDC",
"K 	c #60A2CC",
"L 	c #3782B3",
"M 	c #2A6FA4",
"N 	c #256A9F",
"O 	c #23669B",
"P 	c #266BA1",
"Q 	c #216098",
"R 	c #1C5587",
"S 	c #184A72",
"T 	c #37475B",
"U 	c #465679",
"V 	c #11395D",
"W 	c #142C38",
"X 	c #849696",
"Y 	c #D0D5C9",
"Z 	c #D5D7C7",
"` 	c #E6E7D8",
" .	c #DEDDCD",
"..	c #D8D8C6",
"+.	c #D7D6C2",
"@.	c #D3D2BC",
"#.	c #ECEDDB",
"$.	c #F1F1E4",
"%.	c #EEEFE5",
"&.	c #757B74",
"*.	c #A6A69F",
"=.	c #B3B3AD",
"-.	c #D7DAD3",
";.	c #C1D7E7",
">.	c #ABCDE7",
",.	c #8CBADA",
"'.	c #5F9EC8",
").	c #327DAF",
"!.	c #286EA5",
"~.	c #2F79AC",
"{.	c #2C70A3",
"].	c #286A9D",
"^.	c #236294",
"/.	c #1B5380",
"(.	c #17466C",
"_.	c #44526A",
":.	c #46638D",
"<.	c #0C2C40",
"[.	c #0A212E",
"}.	c #485E66",
"|.	c #C4CAC3",
"1.	c #D4D6C5",
"2.	c #DEDECE",
"3.	c #D0CFBA",
"4.	c #C6C3AE",
"5.	c #CAC9B6",
"6.	c #E6E7D9",
"7.	c #EBECE2",
"8.	c #E6E7DB",
"9.	c #DEDFDA",
"0.	c #72766F",
"a.	c #A79A8F",
"b.	c #A49D94",
"c.	c #D1D4CE",
"d.	c #BED7E9",
"e.	c #A0C8E4",
"f.	c #79B2D6",
"g.	c #4791C0",
"h.	c #3582B6",
"i.	c #2972AB",
"j.	c #327FB2",
"k.	c #236195",
"l.	c #1F5A8A",
"m.	c #225E8A",
"n.	c #1C5179",
"o.	c #144064",
"p.	c #1E4564",
"q.	c #214C6D",
"r.	c #102E3F",
"s.	c #0B222F",
"t.	c #123240",
"u.	c #9DB2B4",
"v.	c #D2D3C2",
"w.	c #D7D5C4",
"x.	c #D2CFBA",
"y.	c #BDB198",
"z.	c #847C63",
"A.	c #7F816E",
"B.	c #9A9F8F",
"C.	c #9D9F8F",
"D.	c #A3A597",
"E.	c #ABABA5",
"F.	c #61625B",
"G.	c #716359",
"H.	c #8A7C72",
"I.	c #C5C7C2",
"J.	c #BCD4E8",
"K.	c #8DC0E0",
"L.	c #60A4CD",
"M.	c #3280B7",
"N.	c #3785BB",
"O.	c #2A79B2",
"P.	c #2B76AC",
"Q.	c #1A5389",
"R.	c #184C7A",
"S.	c #276690",
"T.	c #1E5278",
"U.	c #123E5F",
"V.	c #0F3350",
"W.	c #103550",
"X.	c #0A2735",
"Y.	c #0B2331",
"Z.	c #062331",
"`.	c #6A8189",
" +	c #BFBCAB",
".+	c #B7AF9B",
"++	c #A69B85",
"@+	c #84765D",
"#+	c #5F5641",
"$+	c #4B4837",
"%+	c #51574F",
"&+	c #3C3E36",
"*+	c #3E4038",
"=+	c #42433E",
"-+	c #31332D",
";+	c #393831",
">+	c #5E574F",
",+	c #8F948D",
"'+	c #BED5E6",
")+	c #74B3D6",
"!+	c #599EC5",
"~+	c #3279AE",
"{+	c #307FB8",
"]+	c #2E7EBA",
"^+	c #2163A0",
"/+	c #134272",
"(+	c #1E4B73",
"_+	c #29658C",
":+	c #1D557B",
"<+	c #133E5D",
"[+	c #0E314C",
"}+	c #0B2C45",
"|+	c #0B2634",
"1+	c #0A2431",
"2+	c #374E56",
"3+	c #827C6B",
"4+	c #625F50",
"5+	c #595B4F",
"6+	c #4B4838",
"7+	c #524B37",
"8+	c #47402F",
"9+	c #283331",
"0+	c #1E231E",
"a+	c #222620",
"b+	c #292A24",
"c+	c #2A2B25",
"d+	c #2B2C27",
"e+	c #34332E",
"f+	c #4F5754",
"g+	c #A7C3D8",
"h+	c #6EA4C6",
"i+	c #7B97AD",
"j+	c #5E8CAE",
"k+	c #2F7DB5",
"l+	c #3487BE",
"m+	c #1B5995",
"n+	c #2C4E74",
"o+	c #4D687D",
"p+	c #4D7798",
"q+	c #235D8D",
"r+	c #123E60",
"s+	c #0D314D",
"t+	c #0B2E49",
"u+	c #0D2633",
"v+	c #0C222E",
"w+	c #0C2330",
"x+	c #14303C",
"y+	c #445452",
"z+	c #3F413A",
"A+	c #3E3F38",
"B+	c #404034",
"C+	c #484331",
"D+	c #413C2E",
"E+	c #1A2522",
"F+	c #17211D",
"G+	c #1C241F",
"H+	c #282A24",
"I+	c #282924",
"J+	c #2C2D27",
"K+	c #525957",
"L+	c #93B2C6",
"M+	c #8DA5B7",
"N+	c #BEC5C4",
"O+	c #809EA0",
"P+	c #3882B5",
"Q+	c #4697C6",
"R+	c #205B94",
"S+	c #71828B",
"T+	c #8A9B92",
"U+	c #A8ADB1",
"V+	c #356C97",
"W+	c #144167",
"X+	c #0E3552",
"Y+	c #0D3049",
"Z+	c #0D2431",
"`+	c #0E202A",
" @	c #0D202C",
".@	c #425153",
"+@	c #3B3E3C",
"@@	c #343E40",
"#@	c #333A38",
"$@	c #38382C",
"%@	c #3B392C",
"&@	c #1A221E",
"*@	c #18211D",
"=@	c #212520",
"-@	c #2A2C25",
";@	c #262722",
">@	c #343632",
",@	c #96AFC3",
"'@	c #BCC8D1",
")@	c #B8C4BE",
"!@	c #8B9C95",
"~@	c #619DC2",
"{@	c #5CA0C5",
"]@	c #4875A0",
"^@	c #899A97",
"/@	c #6E7B75",
"(@	c #D1D3D0",
"_@	c #657C95",
":@	c #114165",
"<@	c #11395B",
"[@	c #0F3659",
"}@	c #0D2838",
"|@	c #102128",
"1@	c #0F2028",
"2@	c #0C222F",
"3@	c #324950",
"4@	c #363F3D",
"5@	c #314549",
"6@	c #2D3C3D",
"7@	c #2B2E23",
"8@	c #343327",
"9@	c #262A22",
"0@	c #22241F",
"a@	c #2B2D27",
"b@	c #2A2B26",
"c@	c #333735",
"d@	c #B5C6D5",
"e@	c #E0E0E2",
"f@	c #C7CAC4",
"g@	c #B5BEB5",
"h@	c #9FB1BC",
"i@	c #90A1AD",
"j@	c #8F9EAD",
"k@	c #A5B0A8",
"l@	c #767D73",
"m@	c #D5D3CD",
"n@	c #99A1AB",
"o@	c #204A68",
"p@	c #103A5D",
"q@	c #0F3556",
"r@	c #12313F",
"s@	c #132B34",
"t@	c #0E2029",
"u@	c #0C2430",
"v@	c #33525C",
"w@	c #383529",
"x@	c #363528",
"y@	c #353224",
"z@	c #322F21",
"A@	c #322F25",
"B@	c #26281F",
"C@	c #20231D",
"D@	c #252621",
"E@	c #292924",
"F@	c #444F53",
"G@	c #C5D3E0",
"H@	c #EBE4DE",
"I@	c #E8E0D7",
"J@	c #E3D9D0",
"K@	c #757671",
"L@	c #65625D",
"M@	c #AF9D90",
"N@	c #CBBEB0",
"O@	c #CCC2B3",
"P@	c #CBB9AB",
"Q@	c #AC9C93",
"R@	c #425C6F",
"S@	c #103B5E",
"T@	c #103653",
"U@	c #1C3641",
"V@	c #0E222E",
"W@	c #102F3D",
"X@	c #385864",
"Y@	c #3B3425",
"Z@	c #383321",
"`@	c #37321E",
" #	c #342E21",
".#	c #2F2B20",
"+#	c #22241D",
"@#	c #1C201A",
"##	c #1E221C",
"$#	c #1E221D",
"%#	c #1F231E",
"&#	c #1F231D",
"*#	c #20231E",
"=#	c #414E55",
"-#	c #E8DFD9",
";#	c #E9DFD4",
">#	c #E4D6C9",
",#	c #776C5E",
"'#	c #6F5D50",
")#	c #9A7F6B",
"!#	c #B3A08C",
"~#	c #C3B2A1",
"{#	c #B6A494",
"]#	c #928377",
"^#	c #425663",
"/#	c #143C58",
"(#	c #0E3047",
"_#	c #0F2B3B",
":#	c #2D414A",
"<#	c #1A3642",
"[#	c #1A3C4B",
"}#	c #3D4747",
"|#	c #3D3323",
"1#	c #3A3321",
"2#	c #373220",
"3#	c #352F22",
"4#	c #302C21",
"5#	c #21221B",
"6#	c #1F221B",
"7#	c #1E211C",
"8#	c #1E211D",
"9#	c #1D221C",
"0#	c #1D221B",
"a#	c #37474D",
"b#	c #9CB4C7",
"c#	c #DFD8D2",
"d#	c #E5D8CA",
"e#	c #E0D1BF",
"f#	c #A1866F",
"g#	c #8F735F",
"h#	c #8B725D",
"i#	c #9D8972",
"j#	c #AC9984",
"k#	c #9D8B7C",
"l#	c #746D62",
"m#	c #31444D",
"n#	c #0F3248",
"o#	c #0C293D",
"p#	c #0B2B3B",
"q#	c #223F4B",
"r#	c #274A53",
"s#	c #264551",
"t#	c #3A3E39",
"u#	c #373327",
"v#	c #343126",
"w#	c #333023",
"x#	c #322E24",
"y#	c #2D2B23",
"z#	c #2A271F",
"A#	c #2C2920",
"B#	c #282721",
"C#	c #262721",
"D#	c #232521",
"E#	c #1F221D",
"F#	c #2B3639",
"G#	c #8AA1B3",
"H#	c #CDCBCA",
"I#	c #DACDBD",
"J#	c #CFBCA9",
"K#	c #997F6A",
"L#	c #896F5D",
"M#	c #836D5B",
"N#	c #877360",
"O#	c #8E7C6A",
"P#	c #807163",
"Q#	c #595752",
"R#	c #213844",
"S#	c #113349",
"T#	c #0B2637",
"U#	c #0B293B",
"V#	c #123345",
"W#	c #30575C",
"X#	c #2E565C",
"Y#	c #2F3E35",
"Z#	c #313B33",
"`#	c #323730",
" $	c #302F26",
".$	c #343025",
"+$	c #2D2C24",
"@$	c #393022",
"#$	c #342F22",
"$$	c #302D26",
"%$	c #2E2D28",
"&$	c #2D2D28",
"*$	c #2A2926",
"=$	c #242521",
"-$	c #242724",
";$	c #5F7281",
">$	c #98A7B6",
",$	c #CDC1B5",
"'$	c #A59281",
")$	c #5A4C40",
"!$	c #56483B",
"~$	c #635347",
"{$	c #716050",
"]$	c #736254",
"^$	c #665B50",
"/$	c #384042",
"($	c #152D38",
"_$	c #0D2836",
":$	c #0D2738",
"<$	c #0C2839",
"[$	c #0E2D3D",
"}$	c #3C6269",
"|$	c #2A4F4C",
"1$	c #1F392F",
"2$	c #21372D",
"3$	c #25372D",
"4$	c #222C24",
"5$	c #2D2D23",
"6$	c #2C2B23",
"7$	c #25261E",
"8$	c #282824",
"9$	c #272823",
"0$	c #242520",
"a$	c #23241F",
"b$	c #344147",
"c$	c #68879C",
"d$	c #A5A7AA",
"e$	c #9A887B",
"f$	c #312C28",
"g$	c #33302A",
"h$	c #302C27",
"i$	c #67574C",
"j$	c #615448",
"k$	c #494742",
"l$	c #1E2F3A",
"m$	c #0B2430",
"n$	c #0C2431",
"o$	c #0E2B38",
"p$	c #102C38",
"q$	c #6B8188",
"r$	c #426060",
"s$	c #1A392F",
"t$	c #153026",
"u$	c #152D24",
"v$	c #13281E",
"w$	c #1D261E",
"x$	c #322D21",
"y$	c #171C18",
"z$	c #161C19",
"A$	c #171C1A",
"B$	c #181D1B",
"C$	c #1A1F1A",
"D$	c #181E19",
"E$	c #191D1A",
"F$	c #1B2525",
"G$	c #30576A",
"H$	c #697E8E",
"I$	c #B7A9A0",
"J$	c #5F5751",
"K$	c #312C2A",
"L$	c #372E2C",
"M$	c #7F6F64",
"N$	c #564E45",
"O$	c #29353B",
"P$	c #0C2432",
"Q$	c #09202D",
"R$	c #0B2029",
"S$	c #0D232C",
"T$	c #0E2733",
"U$	c #0E2631",
"V$	c #294147",
"W$	c #1F3532",
"X$	c #182C24",
"Y$	c #162621",
"Z$	c #192822",
"`$	c #1E2822",
" %	c #1E241B",
".%	c #191E19",
"+%	c #2B2720",
"@%	c #151C18",
"#%	c #131B18",
"$%	c #131C19",
"%%	c #141C19",
"&%	c #141D17",
"*%	c #141B16",
"=%	c #151B19",
"-%	c #161D1A",
";%	c #1E3C49",
">%	c #345E77",
",%	c #9D9C9F",
"'%	c #BFAFA6",
")%	c #7A6A64",
"!%	c #917B74",
"~%	c #99867B",
"{%	c #3A3F41",
"]%	c #102939",
"^%	c #0E2B3C",
"/%	c #0D2533",
"(%	c #0C1E2B",
"_%	c #0F222C",
":%	c #122B33",
"<%	c #16211F",
"[%	c #18201E",
"}%	c #181F1D",
"|%	c #312E24",
"1%	c #50412E",
"2%	c #4B402A",
"3%	c #1D201B",
"4%	c #25241D",
"5%	c #151E17",
"6%	c #151D18",
"7%	c #141B19",
"8%	c #151E18",
"9%	c #131B15",
"0%	c #181E1B",
"a%	c #2F434B",
"b%	c #548EB1",
"c%	c #527695",
"d%	c #B6A6A1",
"e%	c #CAB4AA",
"f%	c #B6A098",
"g%	c #72655D",
"h%	c #1E3242",
"i%	c #153F61",
"j%	c #2B668B",
"k%	c #214E68",
"l%	c #0D1F2A",
"m%	c #0E1E26",
"n%	c #0F1F26",
"o%	c #122932",
"p%	c #151F1E",
"q%	c #141C1B",
"r%	c #161E1A",
"s%	c #44392A",
"t%	c #71573C",
"u%	c #604B2F",
"v%	c #1D1E17",
"w%	c #20211A",
"x%	c #1A1F18",
"y%	c #191E18",
"z%	c #181D18",
"A%	c #171E18",
"B%	c #161C18",
"C%	c #171D1A",
"D%	c #1E2420",
"E%	c #668397",
"F%	c #529BC5",
"G%	c #347BAB",
"H%	c #6E7687",
"I%	c #9F8D84",
"J%	c #817167",
"K%	c #424650",
"L%	c #154271",
"M%	c #1F5D93",
"N%	c #2F77A7",
"O%	c #2E6D98",
"P%	c #0F2F44",
"Q%	c #0E1E25",
"R%	c #0E1D26",
"S%	c #0D212C",
"T%	c #1A2C33",
"U%	c #1A2220",
"V%	c #141D1B",
"W%	c #151E1B",
"X%	c #473B29",
"Y%	c #765A3B",
"Z%	c #664D30",
"`%	c #20211B",
" &	c #1F201A",
".&	c #1E211B",
"+&	c #1B201A",
"@&	c #1C211B",
"#&	c #1B201B",
"$&	c #1B1F1A",
"%&	c #324248",
"&&	c #72A2BF",
"*&	c #519CC8",
"=&	c #5990BB",
"-&	c #7F99B4",
";&	c #7D8592",
">&	c #616771",
",&	c #536984",
"'&	c #275486",
")&	c #266BA5",
"!&	c #3079AF",
"~&	c #3379A8",
"{&	c #184A6E",
"]&	c #0E232F",
"^&	c #0F1D25",
"/&	c #0C202B",
"(&	c #243337",
"_&	c #272B28",
":&	c #1A211D",
"<&	c #322E22",
"[&	c #5B472D",
"}&	c #5E4A2E",
"|&	c #1E1F17",
"1&	c #22231D",
"2&	c #23261E",
"3&	c #222521",
"4&	c #252420",
"5&	c #466571",
"6&	c #6DA9CC",
"7&	c #7FAFCE",
"8&	c #B6BEC9",
"9&	c #B9BBC1",
"0&	c #B2B2B8",
"a&	c #A3A3A9",
"b&	c #9C9EA1",
"c&	c #69798F",
"d&	c #3069A1",
"e&	c #2974AB",
"f&	c #2B71A6",
"g&	c #1F5581",
"h&	c #0F2D43",
"i&	c #0D1C24",
"j&	c #0B202B",
"k&	c #4C575C",
"l&	c #474D4B",
"m&	c #30342E",
"n&	c #2A302C",
"o&	c #1C211D",
"p&	c #27241A",
"q&	c #362E21",
"r&	c #191C15",
"s&	c #1D1E18",
"t&	c #25211C",
"u&	c #33302D",
"v&	c #39322F",
"w&	c #392F2D",
"x&	c #3B2E2D",
"y&	c #3E302F",
"z&	c #5F7F92",
"A&	c #7FB5D6",
"B&	c #C3CDD9",
"C&	c #CCCDD2",
"D&	c #C1C2C6",
"E&	c #B3B2B8",
"F&	c #B0AFB5",
"G&	c #ABACAF",
"H&	c #A1A3A5",
"I&	c #6581A2",
"J&	c #2A75AB",
"K&	c #2C74A6",
"L&	c #235C8A",
"M&	c #133957",
"N&	c #0D1E27",
"O&	c #919EA6",
"P&	c #667377",
"Q&	c #353934",
"R&	c #353D39",
"S&	c #222826",
"T&	c #1C1D1A",
"U&	c #1F211B",
"V&	c #151A15",
"W&	c #1D1C16",
"X&	c #26201B",
"Y&	c #2E2D29",
"Z&	c #47423F",
"`&	c #5A4C4B",
" *	c #4C3634",
".*	c #513537",
"+*	c #4E3131",
"@*	c #768EA3",
"#*	c #A4C1D9",
"$*	c #DADADF",
"%*	c #D4D5DA",
"&*	c #C6C6CB",
"**	c #BBBAC0",
"=*	c #B7B8BD",
"-*	c #B6B7BC",
";*	c #B6B5B7",
">*	c #949FAB",
",*	c #2F76AB",
"'*	c #3773A2",
")*	c #275F8A",
"!*	c #172935",
"~*	c #B9C1CA",
"{*	c #6E7C83",
"]*	c #343A35",
"^*	c #3A4542",
"/*	c #272E2A",
"(*	c #1B1F19",
"_*	c #1D211A",
":*	c #161B18",
"<*	c #211D18",
"[*	c #2B1F1A",
"}*	c #2B2B27",
"|*	c #4E4B47",
"1*	c #A49E9C",
"2*	c #413B39",
"3*	c #483938",
"4*	c #322D2E",
"5*	c #719BB7",
"6*	c #BACADA",
"7*	c #DBDCE1",
"8*	c #D3D3D8",
"9*	c #CACACF",
"0*	c #C0C0C5",
"a*	c #BBBBC0",
"b*	c #BABBBD",
"c*	c #ADAFB2",
"d*	c #5C87AC",
"e*	c #778FA7",
"f*	c #4A6A83",
"g*	c #163E5E",
"h*	c #2C3B47",
"i*	c #ACB6BC",
"j*	c #667176",
"k*	c #383A35",
"l*	c #404947",
"m*	c #2D322F",
"n*	c #2A251C",
"o*	c #2C291E",
"p*	c #191E1A",
"q*	c #231C16",
"r*	c #2E1F19",
"s*	c #363631",
"t*	c #686663",
"u*	c #C4C1BF",
"v*	c #61615D",
"w*	c #524947",
"x*	c #43555E",
"y*	c #6298BB",
"z*	c #C9D0DB",
"A*	c #CCCCD1",
"B*	c #C5C4C9",
"C*	c #BFBFC5",
"D*	c #BDBDC2",
"E*	c #BEBFC3",
"F*	c #B9B9BA",
"G*	c #B2B5B7",
"H*	c #929390",
"I*	c #5C6161",
"J*	c #274863",
"K*	c #133244",
"L*	c #404F55",
"M*	c #7F8584",
"N*	c #565C5B",
"O*	c #2E322D",
"P*	c #384140",
"Q*	c #454036",
"R*	c #6A4D32",
"S*	c #6A5235",
"T*	c #23241E",
"U*	c #231A15",
"V*	c #311F18",
"W*	c #63625E",
"X*	c #B1B0AB",
"Y*	c #9A9794",
"Z*	c #8B8684",
"`*	c #95908D",
" =	c #8192A1",
".=	c #5E8EB4",
"+=	c #CFD3DD",
"@=	c #D5D5DA",
"#=	c #D4D4D8",
"$=	c #CDCDD2",
"%=	c #C5C4CA",
"&=	c #C6C5CA",
"*=	c #C1C1C6",
"==	c #BEBFC2",
"-=	c #B7B7B8",
";=	c #B7B4B0",
">=	c #8D8D87",
",=	c #5C5C56",
"'=	c #2E495D",
")=	c #13354A",
"!=	c #5E6667",
"~=	c #828783",
"{=	c #515856",
"]=	c #212A2C",
"^=	c #685138",
"/=	c #966C44",
"(=	c #896741",
"_=	c #27261E",
":=	c #221913",
"<=	c #2F1E17",
"[=	c #6F6D69",
"}=	c #BDB9B5",
"|=	c #878381",
"1=	c #5B5450",
"2=	c #87807B",
"3=	c #778FA4",
"4=	c #6D8CAC",
"5=	c #D4D6DC",
"6=	c #D5D5D9",
"7=	c #C7C5CB",
"8=	c #C4C3C8",
"9=	c #BCBCC1",
"0=	c #BABABC",
"a=	c #A4A39E",
"b=	c #706F6A",
"c=	c #4C4C47",
"d=	c #3B474D",
"e=	c #0F364F",
"f=	c #696D70",
"g=	c #7C7D76",
"h=	c #4F5554",
"i=	c #121B1A",
"j=	c #151E1D",
"k=	c #6E5033",
"l=	c #9F764D",
"m=	c #8E6B45",
"n=	c #272721",
"o=	c #261A16",
"p=	c #2C1D1B",
"q=	c #6E6C69",
"r=	c #B7B3AF",
"s=	c #7B7674",
"t=	c #504944",
"u=	c #625B58",
"v=	c #48769A",
"w=	c #6C87A6",
"x=	c #D4D5DB",
"y=	c #D1D2D6",
"z=	c #CECFD4",
"A=	c #CAC9CE",
"B=	c #C7C5CA",
"C=	c #C1C0C6",
"D=	c #B8B7BD",
"E=	c #B1B2B7",
"F=	c #A3A2A6",
"G=	c #B1B0AC",
"H=	c #90908A",
"I=	c #5A5B55",
"J=	c #444946",
"K=	c #11364F",
"L=	c #6F7379",
"M=	c #6A6C66",
"N=	c #4F5553",
"O=	c #101A18",
"P=	c #131B1A",
"Q=	c #705132",
"R=	c #9F744C",
"S=	c #8F6B44",
"T=	c #262821",
"U=	c #2A1A16",
"V=	c #2D1C18",
"W=	c #64625F",
"X=	c #ACA7A4",
"Y=	c #86837E",
"Z=	c #3F3D38",
"`=	c #44484C",
" -	c #31618A",
".-	c #677D97",
"+-	c #D0D2D8",
"@-	c #CBCCD0",
"#-	c #C7C6CA",
"$-	c #C4C2C7",
"%-	c #B9B8BE",
"&-	c #B2B1B7",
"*-	c #A4A5AA",
"=-	c #97989A",
"--	c #A3A29C",
";-	c #71716A",
">-	c #474841",
",-	c #40423C",
"'-	c #133047",
")-	c #4E5C69",
"!-	c #4F5655",
"~-	c #4C5250",
"{-	c #0F1917",
"]-	c #121B1B",
"^-	c #70502F",
"/-	c #9E7348",
"(-	c #916C44",
"_-	c #252723",
":-	c #2D1B11",
"<-	c #2F1D16",
"[-	c #43413D",
"}-	c #817B78",
"|-	c #5C5C57",
"1-	c #3C3C37",
"2-	c #23292D",
"3-	c #0F2E4F",
"4-	c #5E6C80",
"5-	c #C5C7CD",
"6-	c #C4C5CA",
"7-	c #C4C5C9",
"8-	c #C4C4C8",
"9-	c #C3C1C5",
"0-	c #B7B6BC",
"a-	c #AFAFB5",
"b-	c #9D9EA3",
"c-	c #8B8C8D",
"d-	c #92938E",
"e-	c #8B8A82",
"f-	c #636358",
"g-	c #42433D",
"h-	c #172736",
"i-	c #1D374B",
"j-	c #4A5456",
"k-	c #4E5353",
"l-	c #111A19",
"m-	c #141D1C",
"n-	c #6E4F2B",
"o-	c #A07348",
"p-	c #906A43",
"q-	c #252722",
"  . + @ # $ % & * = - ; > , ' ) ! ~ { ] ^ / ( _ : < [ } | 1 2 3 ",
"4 5 6 7 8 9 0 a b c d e f g h i j k l m n o p q r s t u v w x y ",
"z A B C D E F G H I J K L M N O P Q R S T U V W X Y Z `  ...+.@.",
"#.$.%.C &.*.=.-.;.>.,.'.).!.~.{.].^./.(._.:.<.[.}.|.1.2...3.4.5.",
"6.7.8.9.0.a.b.c.d.e.f.g.h.i.j.k.l.m.n.o.p.q.r.s.t.u.v.w.x.y.z.A.",
"B.C.D.E.F.G.H.I.J.K.L.M.N.O.P.Q.R.S.T.U.V.W.X.Y.Z.`. +.+++@+#+$+",
"%+&+*+=+-+;+>+,+'+)+!+~+{+]+^+/+(+_+:+<+[+}+|+Y.1+2+3+4+5+6+7+8+",
"9+0+a+b+c+d+e+f+g+h+i+j+k+l+m+n+o+p+q+r+s+t+u+v+w+x+y+z+A+B+C+D+",
"E+F+G+H+d+I+J+K+L+M+N+O+P+Q+R+S+T+U+V+W+X+Y+Z+`+ @u+.@+@@@#@$@%@",
"&@*@=@-@J+;@J+>@,@'@)@!@~@{@]@^@/@(@_@:@<@[@}@|@1@2@3@4@5@6@7@8@",
"9@0@b+a@J+;@b@c@d@e@f@g@h@i@j@k@l@m@n@o@p@q@r@s@t@u@v@w@x@y@z@A@",
"B@C@D@E@H+D@;@F@G@H@I@J@K@L@M@N@O@P@Q@R@S@T@r.U@V@W@X@Y@Z@`@ #.#",
"+#@###$#%#&#*#=#d@-#;#>#,#'#)#!#~#{#]#^#/#(#_#:#<#[#}#|#1#2#3#4#",
"5#6#7#8###9#0#a#b#c#d#e#f#g#h#i#j#k#l#m#n#o#p#q#r#s#t#u#v#w#x#y#",
"z#A#B#C#D@D#E#F#G#H#I#J#K#L#M#N#O#P#Q#R#S#T#U#V#W#X#Y#Z#`# $.$+$",
"@$#$$$%$&$*$=$-$;$>$,$'$)$!$~${$]$^$/$($_$:$<$[$}$|$1$2$3$4$5$6$",
"3#7$C#;@8$9$0$a$b$c$d$e$f$g$h$i$j$k$l$m$v+n$o$p$q$r$s$t$u$v$w$0@",
"x$y$z$A$B$C$D$E$F$G$H$I$J$K$L$M$N$O$P$Q$R$S$T$U$V$W$X$Y$Z$`$ %.%",
"+%@%#%$%%%&%*%=%-%;%>%,%'%)%!%~%{%]%^%/%(%t@_%2@:%<%[%}%|%1%2%3%",
"4%5%6%7%%%8%9%=%0%a%b%c%d%e%f%g%h%i%j%k%l%m%n%v+o%p%q%r%s%t%u%v%",
"w%x%y%z%A%D$B%C%D%E%F%G%H%I%J%K%L%M%N%O%P%Q%R%S%T%U%V%W%X%Y%Z%v%",
"`% &.&+&@&#&$&3%%&&&*&=&-&;&>&,&'&)&!&~&{&]&^&/&(&_&D%:&<&[&}&|&",
"`%1&2&C@0@3&a$4&5&6&7&8&9&0&a&b&c&d&e&f&g&h&i&j&k&l&m&n&o&p&q&r&",
"s&t&b+u&v&w&x&y&z&A&B&C&D&E&F&G&H&I&J&K&L&M&N&v+O&P&Q&R&S&T&U&V&",
"W&X&Y&Z&`& *.*+*@*#*$*%*&***=*-*;*>*,*'*)*<+w+!*~*{*]*^*/*(*_*:*",
"<*[*}*|*1*2*3*4*5*6*7*8*9*0*a*-*b*c*d*e*f*g*^%h*i*j*k*l*m*n*o*p*",
"q*r*s*t*u*v*w*x*y*z*$*8*A*B*C*D*E*F*G*H*I*J*K*L*M*N*O*P*Q*R*S*T*",
"U*V*W*X*Y*Z*`* =.=+=@=#=$=%=&=*===-=;=>=,='=)=!=~={=[%]=^=/=(=_=",
":=<=[=}=|=1=2=3=4=5=@=6=A*7=8=0*9=0=a=b=c=d=e=f=g=h=i=j=k=l=m=n=",
"o=p=q=r=s=t=u=v=w=x=y=z=A=B=C=D=E=F=G=H=I=J=K=L=M=N=O=P=Q=R=S=T=",
"U=V=W=X=Y=Z=`= -.-+-C&@-#-$-%-&-*-=---;->-,-'-)-!-~-{-]-^-/-(-_-",
":-<-[-}-|-1-2-3-4-5-6-7-8-9-0-a-b-c-d-e-f-g-h-i-j-k-l-m-n-o-p-q-"};
