/* XPM */
static char * WE_xpm[] = {
"64 64 233 2",
"  	c #858585",
". 	c #B0B0B0",
"+ 	c #B2B2B2",
"@ 	c #878787",
"# 	c #7F7F7F",
"$ 	c #B8B8B8",
"% 	c #BABABA",
"& 	c #BBBBBB",
"* 	c #CDCDCD",
"= 	c #848484",
"- 	c #D0D0D0",
"; 	c #7E7E7E",
"> 	c #A0A0A0",
", 	c #A1A1A1",
"' 	c #A3A3A3",
") 	c #838383",
"! 	c #CFCFCF",
"~ 	c #A4A4A4",
"{ 	c #9F9F9F",
"] 	c #808080",
"^ 	c #CECECE",
"/ 	c #BFBFBF",
"( 	c #C2C2C2",
"_ 	c #7C7C7C",
": 	c #818181",
"< 	c #A6A6A6",
"[ 	c #A8A8A8",
"} 	c #AAAAAA",
"| 	c #7D7D7D",
"1 	c #989898",
"2 	c #999999",
"3 	c #8A8A8A",
"4 	c #8E8E8E",
"5 	c #7B7B7B",
"6 	c #585866",
"7 	c #565665",
"8 	c #60606C",
"9 	c #CBCBCB",
"0 	c #8B8B8B",
"a 	c #7A7A7A",
"b 	c #23234B",
"c 	c #171848",
"d 	c #1C1E48",
"e 	c #181948",
"f 	c #22244F",
"g 	c #242648",
"h 	c #181A48",
"i 	c #191A49",
"j 	c #343554",
"k 	c #CACACB",
"l 	c #828282",
"m 	c #2C3048",
"n 	c #181949",
"o 	c #2C2E56",
"p 	c #353948",
"q 	c #1B1D48",
"r 	c #181A49",
"s 	c #2D2F57",
"t 	c #282A53",
"u 	c #161748",
"v 	c #18184B",
"w 	c #191850",
"x 	c #1B1856",
"y 	c #1B1859",
"z 	c #1C185B",
"A 	c #1B1858",
"B 	c #1A1854",
"C 	c #19184E",
"D 	c #17184A",
"E 	c #1C1D4B",
"F 	c #171948",
"G 	c #20224D",
"H 	c #252848",
"I 	c #3C4148",
"J 	c #242748",
"K 	c #20214D",
"L 	c #191851",
"M 	c #21196C",
"N 	c #2B1B8A",
"O 	c #3A2BA0",
"P 	c #412EB1",
"Q 	c #4536BD",
"R 	c #4431BF",
"S 	c #402CB7",
"T 	c #3721A7",
"U 	c #2F1B92",
"V 	c #271B78",
"W 	c #1D195C",
"X 	c #303448",
"Y 	c #575E49",
"Z 	c #1A1852",
"` 	c #291A84",
" .	c #3F2AAC",
"..	c #4324CB",
"+.	c #5F51DB",
"@.	c #6362E6",
"#.	c #6777EE",
"$.	c #6D89F2",
"%.	c #6370F0",
"&.	c #543EE7",
"*.	c #6155D1",
"=.	c #4D3BBE",
"-.	c #342099",
";.	c #21196A",
">.	c #18184C",
",.	c #272948",
"'.	c #171849",
").	c #1D185D",
"!.	c #301B9A",
"~.	c #554BB8",
"{.	c #675FD3",
"].	c #513DE9",
"^.	c #5D60F2",
"/.	c #6E87F7",
"(.	c #83B5FA",
"_.	c #6F8AF6",
":.	c #5F64F0",
"<.	c #5139E5",
"[.	c #4C2ED4",
"}.	c #4128BE",
"|.	c #341E9D",
"1.	c #201B5C",
"2.	c #261979",
"3.	c #4237A6",
"4.	c #4A31C8",
"5.	c #5840DC",
"6.	c #5F58E6",
"7.	c #666EEC",
"8.	c #6980EF",
"9.	c #6673EC",
"0.	c #5E5AE3",
"a.	c #584BD6",
"b.	c #4B32C3",
"c.	c #4A3EA7",
"d.	c #342587",
"e.	c #211C59",
"f.	c #18184D",
"g.	c #1F1862",
"h.	c #281982",
"i.	c #3D3297",
"j.	c #493FA7",
"k.	c #4637B3",
"l.	c #483ABF",
"m.	c #4537B9",
"n.	c #4333AD",
"o.	c #403891",
"p.	c #231971",
"q.	c #1B1857",
"r.	c #222448",
"s.	c #1B1C4A",
"t.	c #3C3E65",
"u.	c #1A1853",
"v.	c #1D1958",
"w.	c #1C1957",
"x.	c #19184F",
"y.	c #191B48",
"z.	c #373B48",
"A.	c #161747",
"B.	c #202248",
"C.	c #232648",
"D.	c #191A48",
"E.	c #7A7A7B",
"F.	c #1E204C",
"G.	c #1F204D",
"H.	c #1A1B49",
"I.	c #232548",
"J.	c #2D3148",
"K.	c #676768",
"L.	c #20204A",
"M.	c #272A48",
"N.	c #1F204C",
"O.	c #3B4049",
"P.	c #5C6449",
"Q.	c #262A48",
"R.	c #2D2D50",
"S.	c #A9A9A9",
"T.	c #707070",
"U.	c #8C8C8C",
"V.	c #ADADAD",
"W.	c #606061",
"X.	c #1E1F49",
"Y.	c #1A1B48",
"Z.	c #313548",
"`.	c #222548",
" +	c #393B61",
".+	c #2A2A4E",
"++	c #9C9C9C",
"@+	c #696969",
"#+	c #525949",
"$+	c #363A48",
"%+	c #4D5449",
"&+	c #212448",
"*+	c #484E49",
"=+	c #1E1F4B",
"-+	c #373C48",
";+	c #1B1C48",
">+	c #151648",
",+	c #1C1D48",
"'+	c #1D1F48",
")+	c #232549",
"!+	c #464C48",
"~+	c #393E48",
"{+	c #505749",
"]+	c #1D1E49",
"^+	c #131448",
"/+	c #141548",
"(+	c #292A4E",
"_+	c #626262",
":+	c #5A5A5E",
"<+	c #5E5E62",
"[+	c #9D9D9D",
"}+	c #666666",
"|+	c #9E9E9E",
"1+	c #CACACA",
"2+	c #656565",
"3+	c #9B9B9B",
"4+	c #C8C8C8",
"5+	c #959595",
"6+	c #969696",
"7+	c #6C6C6C",
"8+	c #6F6F6F",
"9+	c #6D6D6D",
"0+	c #C9C9C9",
"a+	c #CCCCCC",
"b+	c #979797",
"c+	c #898989",
"d+	c #646464",
"e+	c #868686",
"f+	c #686868",
"g+	c #929292",
"h+	c #949494",
"i+	c #939393",
"j+	c #888888",
"  . + + + + + + + + + + + + + + + + + + + + + + + + + + + + + . @ . + + + + + + + + + + + + + + + + + + + + + + + + + + + + + + ",
"# $ % % % % % % % % % % % % % % % % % % % % % % % % % % % % & * = $ % % % % % % % % % % % % % % % % % % % % % % % % % % % % & - ",
"; > , , , , , , , , , , , , , , , , , , , , , , , , , , , , ' * ) > , , , , , , , , , , , , , , , , , , , , , , , , , , , , ' ! ",
"; > , , , , , , , , , , , , , , , , , , , , , , , , , , , , ' * ) > , , , , , , , , , , , , , , , , , , , , , , , , , , , , ' ! ",
"; > , , , , , , , , , , , , , , , , , , , , , , , , , , , , ' * ) > , , , , , , , , , , , , , , , , , , , , , , , , , , , , ' ! ",
"; > , , , , , , , , , , , , , , , , , , , , , , , , , , , , ' * ) > , , , , , , , , , , , , , , , , , , , , , , , , , , , , ' ! ",
"; > , , , , , , , , , , , , , , , , , , , , , , , , , , , , ' * ) > , , , , , , , , , , , , , , , , , , , , , , , , , , , , ' ! ",
"; > , , , , , , , , , , , , , , , , , , , , , , , , , , , , ' * ) > , , , , , , , , , , , , , , , , , , , , , , , , , , , , ' ! ",
"; > , , , , , , , , , , , , , , , , , , , , , , , , , , , , ' * ) > , , , , , , , , , , , , , , , , , , , , , , , , , , , , ' ! ",
"; > , , , , , , , , , , , , , , , , , , , , , , , , , , , , ' * ) > , , , , , , , , , , , , , , , , , , , , , , , , , , , , ' ! ",
"; > , , , , , , , , , , , , , , , , , , , , , , , , , , , , ' * ) > , , , , , , , , , , , , , , , , , , , , , , , , , , , , ' ! ",
"; > , , , , , , , , , , , , , , , , , , , , , , , , , , , , ' * ) > , , , , , , , , , , , , , , , , , , , , , , , , , , , , ' ! ",
"; > , , , , , , , , , , , , , , , , , , , , , , , , , , , , ' * ) > , , , , , , , , , , , , , , , , , , , , , , , , , , , , ' ! ",
"; > , , , , , , , , , , , , , , , , , , , , , , , , , , , , ' * ) > , , , , , , , , , , , , , , , , , , , , , , , , , , , , ' ! ",
"; > , , , , , , , , , , , , , , , , , , , , , , , , , , , , ' * ) > , , , , , , , , , , , , , , , , , , , , , , , , , , , , ~ ! ",
"; { , , , , , , , , , , , , , , , , , , , , , , , , , , , , ' * ) > , , , , , , , , , , , , , > ] ; ; ; ; ; ; ; ; ; ; ; ; ; ) ^ ",
"] / ( ( ( ( ( ( ( ( ( ( ( ( ( ( ( ( ( ( ( ( ( ( ( ( ( ( ( ( ( ^ ) > , , , , , , , , , , , , > # _ _ _ _ _ _ _ _ _ _ _ _ _ _ : ^ ",
"; < [ [ [ [ [ [ [ [ [ [ [ [ [ [ [ [ [ [ [ [ [ [ [ [ [ [ [ [ } * : | | | | | | | | | | | | | | ; 1 2 2 1 3 1 2 2 1 3 1 2 2 1 4 ! ",
"5 6 7 7 7 7 7 7 7 7 7 7 7 7 7 7 7 7 7 7 7 7 7 7 7 7 7 7 7 7 8 9 : | | | | | | | | | | | | | | 3 > , , > 0 > , , > 0 > , , > 4 ! ",
"a b c c c c c c d d c c c e f e c c c c g h c c c i c c c c j k l 1 2 2 2 3 2 2 2 2 3 2 2 2 2 0 > , , > 0 > , , > 0 > , , > 4 ! ",
"a b c c c c c c m m c c c n o n c c c c p q c c r s r c c c j k ) > , , > 0 > , , > 0 > , , > 0 > , , > 0 > , , > 0 > , , > 4 ! ",
"a b n t n u c i i c c c c v w x y z A B C D c c c c c c E c j k ) > , , > 0 > , , > 0 > , , > 0 > , , > 0 > , , > 0 > , , > 4 ! ",
"a b F G H I J K K c c L M N O P Q R S T U V W v c c c c e c j k ) > , , > 0 > , , > 0 > , , > 0 > , , > 0 > , , > 0 > , , > 4 ! ",
"a b c c X Y X c c c Z `  ...+.@.#.$.%.&.*.=.-.;.>.c c c c c j k ) > , , > 0 > , , > 0 > , , > 0 > , , > 0 > , , > 0 > , , > 4 ! ",
"a b c c d ,.d c c '.).!.~.{.].^./.(._.:.<.[.}.|.1.c c c c c j k ) > , , > 0 > , , > 0 > , , > 0 > , , > 0 > , , > 0 > , , > 4 ! ",
"a b c c c c c c c c L 2.3.4.5.6.7.8.9.0.a.b.c.d.e.c c c c c j k ) > , , > 0 > , , > 0 > , , > 0 > , , > 0 > , , > 0 > , , > 4 ! ",
"a b c c c E c c c c c f.g.h.i.j.k.l.m.n.o.p.q.D c c c e r.e j k ) > , , > 0 > , , > 0 > , , > 0 > , , > 0 > , , > 0 > , , > 4 ! ",
"a b c c s.t.n c c c c c c '.>.L u.v.w.x.v c c c c c c y.z.y.j k ) > , , > 0 > , , > 0 > , , > 0 > , , > 0 > , , > 0 > , , > 4 ! ",
"a b c c c A.c c c B.e c c c c c c c c c c c c i F c c c u c j k ) > , , > 0 > , , > 0 > , , > 0 > , , > 0 > , , > 0 > , , > 4 ! ",
"a b c c c c c c c c c c c c c c c c c c C.h c r c c c c c c j k ) > , , > 0 > , , > 0 > , , > 0 > , , > 0 > , , > 0 > , , > 4 ! ",
"a b c c c c c c c c c c c c c c c c c c H D.c c c c c c c c j k ) > , , > 0 > , , > 0 > , , > 0 > , , > 0 > , , > 0 > , , > 4 ! ",
"E.b c F.G.c c c c c n H.c c c c c c c c c c I.J.q c c c c c j 9 ) > , , > 0 > , , > 0 > , , > 0 > , , > 0 > , , > 0 > , , > 4 ! ",
"K.L.c s.s.c c M.M.c s.N.c c c c c c c c c c O.P.Q.c c E c c R.S.T.{ , , > 0 > , , > 0 > , , > 0 > , , > 0 > , , > 0 > , , > U.V.",
"W.X.F d Y.c c J.J.c c c c c c c c c e Z.Z.e `.J.q c n  +s.c .+++@+{ , , > 0 > , , > 0 > , , > 0 > , , > 0 > , , > 0 > , , > 0 > ",
"W.X.J #+$+c c c c c c c c c D.c c c Y.%+%+Y.c c c c c A.c c .+++@+{ , , > 0 > , , > 0 > , , > 0 > , , > 0 > , , > 0 > , , > 0 > ",
"W.X.&+*+X c c c c c c c c c d c c c e H H e e c c c c c u c .+++@+{ , , > 0 > , , > 0 > , , > 0 > , , > 0 > , , > 0 > , , > 0 > ",
"W.X.c u c =+c c c c c c c c c c c c c c c c D.c c c c e -+;+.+++@+{ , , > 0 > , , > 0 > , , > 0 > , , > 0 > , , > 0 > , , > 0 > ",
"W.X.>+c c i c c ,+,+c c c c c e '+c K K c c e m m e c e r.e .+++@+{ , , > 0 > , , > 0 > , , > 0 > , , > 0 > , , > 0 > , , > 0 > ",
"W.)+!+D.c c c c r.r.c c n c c d ~+c i i c c Y.{+{+Y.n e c c .+++@+{ , , > 0 > , , > 0 > , , > 0 > , , > 0 > , , > 0 > , , > 0 > ",
"W.]+^+>+>+>+>+>+>+>+>+>+>+>+>+>+/+>+>+>+>+>+u H H u >+>+>+>+(+++@+{ , , > 0 > , , > 0 > , , > 0 > , , > 0 > , , > 0 > , , > 0 > ",
"_+:+:+:+:+:+:+:+:+:+:+:+:+:+:+:+:+:+:+:+:+:+:+:+:+:+:+:+:+:+<+[+@+{ , , > 0 > , , > 0 > , , > 0 > , , > 0 > , , > 0 > , , > 0 > ",
"_+_+_+_+_+_+_+_+_+_+_+_+_+_+_+_+_+_+_+_+_+_+_+_+_+_+_+_+_+_+}+[+@+{ , , > 0 > , , > 0 > , , > 0 > , , > 0 > , , > 0 > , , > 0 > ",
"_+_+_+_+_+_+_+_+_+_+_+_+_+_+_+_+_+_+_+_+_+_+_+_+_+_+_+_+_+_+}+[+@+{ , , > 0 > , , > 0 > , , > 0 > , , > 0 > , , > 0 > , , > 0 > ",
"_+_+_+_+_+_+_+_+_+_+_+_+_+_+_+_+_+_+_+_+_+_+_+_+_+_+_+_+_+_+}+[+@+{ , , > 0 > , , > 0 > , , > 0 > , , > 0 > , , > 0 > , , > 0 > ",
"_+_+_+_+_+_+_+_+_+_+_+_+_+_+_+_+_+_+_+_+_+_+_+_+_+_+_+_+_+_+}+[+@+{ , , > 0 > , , > 0 > , , > 0 > , , > 0 > , , > 0 > , , > 0 > ",
"_+_+_+_+_+_+_+_+_+_+_+_+_+_+_+_+_+_+_+_+_+_+_+_+_+_+_+_+_+_+}+[+@+{ , , > 0 > , , > 0 > , , > 0 > , , , |+, , , , |+, , , , |+, ",
"_+_+_+_+_+_+_+_+_+_+_+_+_+_+_+_+_+_+_+_+_+_+_+_+_+_+_+_+_+_+}+[+@+{ , , > 0 > , , > 0 > , , , > 1+9 9 9 9 9 9 9 9 9 9 9 9 9 1+' ",
"2+2 3+3+3+3+3+3+3+3+3+3+3+3+3+3+3+3+3+3+3+3+3+3+3+3+3+3+3+3+3+{ @+{ , , , |+, , , , |+, , , ' 4+1 5+5+5+5+5+5+5+5+5+5+5+5+5+6+, ",
"_+7+7+7+7+7+7+7+7+7+7+7+7+7+7+7+7+7+7+7+7+7+7+7+7+7+7+7+7+7+8+[+9+0+a+a+a+a+a+a+a+a+a+a+a+a+1+b+3 c+c+c+c+c+c+c+c+c+c+c+c+c+3 > ",
"d+=                                                         e+|+f+g+h+h+h+h+h+h+h+h+h+h+h+h+i+c+c+c+c+c+c+c+c+c+c+c+c+c+c+c+3 > ",
"d+j+c+c+c+c+c+c+c+c+c+c+c+c+c+c+c+c+c+c+c+c+c+c+c+c+c+c+c+c+3 |+f+j+c+c+c+c+c+c+c+c+c+c+c+c+c+c+c+c+c+c+c+c+c+c+c+c+c+c+c+c+3 > ",
"d+j+c+c+c+c+c+c+c+c+c+c+c+c+c+c+c+c+c+c+c+c+c+c+c+c+c+c+c+c+3 |+f+j+c+c+c+c+c+c+c+c+c+c+c+c+c+c+c+c+c+c+c+c+c+c+c+c+c+c+c+c+3 > ",
"d+j+c+c+c+c+c+c+c+c+c+c+c+c+c+c+c+c+c+c+c+c+c+c+c+c+c+c+c+c+3 |+f+j+c+c+c+c+c+c+c+c+c+c+c+c+c+c+c+c+c+c+c+c+c+c+c+c+c+c+c+c+3 > ",
"d+j+c+c+c+c+c+c+c+c+c+c+c+c+c+c+c+c+c+c+c+c+c+c+c+c+c+c+c+c+3 |+f+j+c+c+c+c+c+c+c+c+c+c+c+c+c+c+c+c+c+c+c+c+c+c+c+c+c+c+c+c+3 > ",
"d+j+c+c+c+c+c+c+c+c+c+c+c+c+c+c+c+c+c+c+c+c+c+c+c+c+c+c+c+c+3 |+f+j+c+c+c+c+c+c+c+c+c+c+c+c+c+c+c+c+c+c+c+c+c+c+c+c+c+c+c+c+3 > ",
"d+j+c+c+c+c+c+c+c+c+c+c+c+c+c+c+c+c+c+c+c+c+c+c+c+c+c+c+c+c+3 |+f+j+c+c+c+c+c+c+c+c+c+c+c+c+c+c+c+c+c+c+c+c+c+c+c+c+c+c+c+c+3 > ",
"d+j+c+c+c+c+c+c+c+c+c+c+c+c+c+c+c+c+c+c+c+c+c+c+c+c+c+c+c+c+3 |+f+j+c+c+c+c+c+c+c+c+c+c+c+c+c+c+c+c+c+c+c+c+c+c+c+c+c+c+c+c+3 > ",
"d+j+c+c+c+c+c+c+c+c+c+c+c+c+c+c+c+c+c+c+c+c+c+c+c+c+c+c+c+c+3 |+f+j+c+c+c+c+c+c+c+c+c+c+c+c+c+c+c+c+c+c+c+c+c+c+c+c+c+c+c+c+3 > ",
"d+j+c+c+c+c+c+c+c+c+c+c+c+c+c+c+c+c+c+c+c+c+c+c+c+c+c+c+c+c+3 |+f+j+c+c+c+c+c+c+c+c+c+c+c+c+c+c+c+c+c+c+c+c+c+c+c+c+c+c+c+c+3 > ",
"d+j+c+c+c+c+c+c+c+c+c+c+c+c+c+c+c+c+c+c+c+c+c+c+c+c+c+c+c+c+3 |+f+j+c+c+c+c+c+c+c+c+c+c+c+c+c+c+c+c+c+c+c+c+c+c+c+c+c+c+c+c+3 > ",
"d+j+c+c+c+c+c+c+c+c+c+c+c+c+c+c+c+c+c+c+c+c+c+c+c+c+c+c+c+c+3 |+f+j+c+c+c+c+c+c+c+c+c+c+c+c+c+c+c+c+c+c+c+c+c+c+c+c+c+c+c+c+3 > ",
"d+j+c+c+c+c+c+c+c+c+c+c+c+c+c+c+c+c+c+c+c+c+c+c+c+c+c+c+c+c+3 |+f+j+c+c+c+c+c+c+c+c+c+c+c+c+c+c+c+c+c+c+c+c+c+c+c+c+c+c+c+c+3 > ",
"d+e+j+j+j+j+j+j+j+j+j+j+j+j+j+j+j+j+j+j+j+j+j+j+j+j+j+j+j+j+c+|+f+e+j+j+j+j+j+j+j+j+j+j+j+j+j+j+j+j+j+j+j+j+j+j+j+j+j+j+j+j+c+> ",
"_+d+d+d+d+d+d+d+d+d+d+d+d+d+d+d+d+d+d+d+d+d+d+d+d+d+d+d+d+d+f+[+}+d+d+d+d+d+d+d+d+d+d+d+d+d+d+d+d+d+d+d+d+d+d+d+d+d+d+d+d+d+f+{ "};
